<svg width="547" height="464" viewBox="0 0 547 464" fill="none" xmlns="http://www.w3.org/2000/svg">
<g opacity="0.42">
<path d="M546.154 88.4627H460.731V14.7366H484.042V0H312.863V14.7366H342.087V133.643H315.186V168.166H350.573V463.338H526.084V189.764L542.43 168.166H546.163V133.643H544.801C545.461 130.043 545.891 124.176 545.891 117.553C545.891 110.257 545.37 103.883 544.595 100.44H546.168V88.4627H546.154ZM472.506 133.643H460.727V100.44H472.712C471.937 103.883 471.416 110.257 471.416 117.553C471.416 124.181 471.847 130.043 472.506 133.643ZM486.351 133.643H475.566C476.226 130.043 476.656 124.176 476.656 117.553C476.656 110.257 476.135 103.883 475.36 100.44H486.557C485.782 103.883 485.261 110.257 485.261 117.553C485.261 124.181 485.692 130.043 486.351 133.643ZM500.196 133.643H489.411C490.071 130.043 490.501 124.176 490.501 117.553C490.501 110.257 489.98 103.883 489.205 100.44H500.402C499.628 103.883 499.106 110.257 499.106 117.553C499.106 124.181 499.537 130.043 500.196 133.643ZM514.042 133.643H503.256C503.916 130.043 504.346 124.176 504.346 117.553C504.346 110.257 503.825 103.883 503.051 100.44H514.247C513.473 103.883 512.952 110.257 512.952 117.553C512.952 124.181 513.382 130.043 514.042 133.643ZM517.101 133.643C517.761 130.043 518.191 124.176 518.191 117.553C518.191 110.257 517.67 103.883 516.896 100.44H528.092C527.318 103.883 526.797 110.257 526.797 117.553C526.797 124.181 527.227 130.043 527.887 133.643H517.101ZM526.075 181.96V168.166H536.511L526.075 181.96ZM541.727 133.643H530.941C531.601 130.043 532.032 124.176 532.032 117.553C532.032 110.257 531.51 103.883 530.736 100.44H541.932C541.158 103.883 540.637 110.257 540.637 117.553C540.637 124.181 541.067 130.043 541.727 133.643Z" fill="#F060DA"/>
<path d="M0 52.5439H7.01337C6.21498 56.8616 5.67954 64.7655 5.67954 73.8025C5.67954 83.3847 6.28191 91.6901 7.16157 95.7975H0V124.553H27.4511V463.338H202.962V124.553H208.976V95.7975H181.382C182.262 91.6901 182.864 83.3847 182.864 73.8025C182.864 64.7655 182.328 56.8616 181.53 52.5439H209.115V44.0568H0V52.5439ZM9.81011 52.5439H20.2226C19.4242 56.8616 18.8888 64.7655 18.8888 73.8025C18.8888 83.3847 19.4911 91.6901 20.3708 95.7975H9.66191C10.5416 91.6901 11.1439 83.3847 11.1439 73.8025C11.1439 64.7655 10.6085 56.8616 9.81011 52.5439ZM22.8711 95.7975C23.7508 91.6901 24.3532 83.3847 24.3532 73.8025C24.3532 64.7655 23.8177 56.8616 23.0193 52.5439H33.4318C32.6334 56.8616 32.098 64.7655 32.098 73.8025C32.098 83.3847 32.7004 91.6901 33.58 95.7975H22.8711ZM152.463 95.7975H141.754C142.634 91.6901 143.236 83.3847 143.236 73.8025C143.236 64.7655 142.701 56.8616 141.902 52.5439H152.315C151.516 56.8616 150.981 64.7655 150.981 73.8025C150.981 83.3847 151.583 91.6901 152.463 95.7975ZM155.112 52.5439H165.524C164.726 56.8616 164.19 64.7655 164.19 73.8025C164.19 83.3847 164.793 91.6901 165.672 95.7975H154.963C155.843 91.6901 156.445 83.3847 156.445 73.8025C156.445 64.7655 155.91 56.8616 155.112 52.5439ZM139.254 95.7975H128.545C129.425 91.6901 130.027 83.3847 130.027 73.8025C130.027 64.7655 129.492 56.8616 128.693 52.5439H139.106C138.307 56.8616 137.772 64.7655 137.772 73.8025C137.772 83.3847 138.374 91.6901 139.254 95.7975ZM126.045 95.7975H115.336C116.215 91.6901 116.818 83.3847 116.818 73.8025C116.818 64.7655 116.282 56.8616 115.484 52.5439H125.896C125.098 56.8616 124.563 64.7655 124.563 73.8025C124.563 83.3847 125.165 91.6901 126.045 95.7975ZM112.835 95.7975H102.127C103.006 91.6901 103.609 83.3847 103.609 73.8025C103.609 64.7655 103.073 56.8616 102.275 52.5439H112.687C111.889 56.8616 111.353 64.7655 111.353 73.8025C111.353 83.3847 111.956 91.6901 112.835 95.7975ZM99.6262 95.7975H88.9173C89.7969 91.6901 90.3993 83.3847 90.3993 73.8025C90.3993 64.7655 89.8639 56.8616 89.0655 52.5439H99.478C98.6796 56.8616 98.1441 64.7655 98.1441 73.8025C98.1441 83.3847 98.7465 91.6901 99.6262 95.7975ZM86.4169 95.7975H75.708C76.5877 91.6901 77.1901 83.3847 77.1901 73.8025C77.1901 64.7655 76.6546 56.8616 75.8562 52.5439H86.2687C85.4703 56.8616 84.9349 64.7655 84.9349 73.8025C84.9349 83.3847 85.5373 91.6901 86.4169 95.7975ZM73.2077 95.7975H62.4988C63.3785 91.6901 63.9809 83.3847 63.9809 73.8025C63.9809 64.7655 63.4454 56.8616 62.647 52.5439H73.0595C72.2611 56.8616 71.7257 64.7655 71.7257 73.8025C71.7257 83.3847 72.328 91.6901 73.2077 95.7975ZM59.9985 95.7975H49.2896C50.1692 91.6901 50.7716 83.3847 50.7716 73.8025C50.7716 64.7655 50.2362 56.8616 49.4378 52.5439H59.8503C59.0519 56.8616 58.5164 64.7655 58.5164 73.8025C58.5164 83.3847 59.1188 91.6901 59.9985 95.7975ZM46.7892 95.7975H36.0804C36.96 91.6901 37.5624 83.3847 37.5624 73.8025C37.5624 64.7655 37.027 56.8616 36.2286 52.5439H46.641C45.8427 56.8616 45.3072 64.7655 45.3072 73.8025C45.3072 83.3847 45.9096 91.6901 46.7892 95.7975ZM178.882 95.7975H168.173C169.052 91.6901 169.655 83.3847 169.655 73.8025C169.655 64.7655 169.119 56.8616 168.321 52.5439H178.733C177.935 56.8616 177.399 64.7655 177.399 73.8025C177.399 83.3847 178.002 91.6901 178.882 95.7975Z" fill="#F060DA"/>
<path d="M484.047 189.372C493.236 189.372 500.698 196.831 500.698 206.026V262.667H467.4V206.026C467.4 196.836 474.858 189.372 484.052 189.372H484.047Z" fill="#FF97F5"/>
<path d="M424.325 27.1592H427.624C435.904 27.1592 442.621 33.882 442.621 42.1588V86.6411H409.323V42.1588C409.323 33.8772 416.045 27.1592 424.32 27.1592H424.325Z" fill="#FF97F5"/>
<path d="M484.047 274.459C493.236 274.459 500.698 281.918 500.698 291.113V347.755H467.4V291.113C467.4 281.923 474.858 274.459 484.052 274.459H484.047Z" fill="#FF97F5"/>
</g>
</svg>
