<svg width="288" height="76" viewBox="0 0 288 76" fill="none" xmlns="http://www.w3.org/2000/svg">
<path d="M217.293 75.9014H211.685V47.504H217.293V75.9014ZM281.8 47.504H276.192L274.729 75.9014H280.337L281.8 47.504Z" fill="#5B47DB"/>
<mask id="mask0_241_76287" style="mask-type:luminance" maskUnits="userSpaceOnUse" x="211" y="47" width="71" height="29">
<path d="M217.292 75.9012H211.684V47.5038H217.292V75.9012ZM281.799 47.5038H276.191L274.728 75.9012H280.336L281.799 47.5038Z" fill="white"/>
</mask>
<g mask="url(#mask0_241_76287)">
<path d="M283.424 46.8112H210.79V51.8652H283.424V46.8112Z" fill="black"/>
</g>
<path d="M285.592 38.4719H208.177C206.976 38.4719 206.002 39.446 206.002 40.6475V46.8109C206.002 48.0124 206.976 48.9865 208.177 48.9865H285.592C286.793 48.9865 287.767 48.0124 287.767 46.8109V40.6475C287.767 39.446 286.793 38.4719 285.592 38.4719Z" fill="#F0BE40"/>
<path d="M82.3384 21.9757H45.4692C44.5752 21.9757 43.8533 21.2537 43.8533 20.3596C43.8533 19.4654 44.5752 18.7434 45.4692 18.7434H82.3384C83.2324 18.7434 83.9543 19.4654 83.9543 20.3596C83.9543 21.2537 83.2324 21.9757 82.3384 21.9757Z" fill="#F0DF79"/>
<path d="M82.3384 38.4719H45.4692C44.5752 38.4719 43.8533 37.7499 43.8533 36.8558C43.8533 35.9616 44.5752 35.2396 45.4692 35.2396H82.3384C83.2324 35.2396 83.9543 35.9616 83.9543 36.8558C83.9543 37.7499 83.2324 38.4719 82.3384 38.4719Z" fill="#EF5CBE"/>
<path d="M81.6404 21.9758H46.1672C44.8892 21.9758 43.8533 23.0119 43.8533 24.2901V26.2935C43.8533 27.5717 44.8892 28.6078 46.1672 28.6078H81.6404C82.9183 28.6078 83.9543 27.5717 83.9543 26.2935V24.2901C83.9543 23.0119 82.9183 21.9758 81.6404 21.9758Z" fill="#E48747"/>
<path d="M81.6404 28.6078H46.1672C44.8892 28.6078 43.8533 29.6439 43.8533 30.922V32.9255C43.8533 34.2036 44.8892 35.2397 46.1672 35.2397H81.6404C82.9183 35.2397 83.9543 34.2036 83.9543 32.9255V30.922C83.9543 29.6439 82.9183 28.6078 81.6404 28.6078Z" fill="#A04ACC"/>
<path d="M92.0872 43.5787C91.1884 43.5787 90.5287 42.7419 90.739 41.8669L94.3533 26.7908C94.5015 26.1644 95.0608 25.7245 95.7015 25.7245C96.6003 25.7245 97.26 26.5613 97.0496 27.4363L93.4354 42.5124C93.2872 43.1388 92.7278 43.5787 92.0872 43.5787Z" fill="#4349CE"/>
<path d="M94.879 43.5787C93.9802 43.5787 93.3204 42.7419 93.5308 41.8669L97.145 26.7908C97.2932 26.1644 97.8526 25.7245 98.4932 25.7245C99.392 25.7245 100.052 26.5613 99.8414 27.4363L96.2271 42.5124C96.0789 43.1388 95.5196 43.5787 94.879 43.5787Z" fill="#90CBBF"/>
<path d="M103.274 43.5787C102.375 43.5787 101.715 42.7419 101.926 41.8669L105.54 26.7908C105.688 26.1644 106.248 25.7245 106.888 25.7245C107.787 25.7245 108.447 26.5613 108.236 27.4363L104.622 42.5124C104.474 43.1388 103.915 43.5787 103.274 43.5787Z" fill="#E48747"/>
<path d="M105.936 43.5787C105.038 43.5787 104.378 42.7419 104.588 41.8669L108.202 26.7908C108.351 26.1644 108.91 25.7245 109.551 25.7245C110.449 25.7245 111.109 26.5613 110.899 27.4363L107.285 42.5124C107.136 43.1388 106.577 43.5787 105.936 43.5787Z" fill="#F0DF79"/>
<path d="M108.6 43.5787C107.701 43.5787 107.041 42.7419 107.251 41.8669L110.866 26.7908C111.014 26.1644 111.573 25.7245 112.214 25.7245C113.113 25.7245 113.772 26.5613 113.562 27.4363L109.948 42.5124C109.8 43.1388 109.24 43.5787 108.6 43.5787Z" fill="#4349CE"/>
<path d="M111.258 43.5787C110.359 43.5787 109.7 42.7419 109.91 41.8669L113.524 26.7908C113.672 26.1644 114.232 25.7245 114.872 25.7245C115.771 25.7245 116.431 26.5613 116.221 27.4363L112.606 42.5124C112.458 43.1388 111.899 43.5787 111.258 43.5787Z" fill="#F0DF79"/>
<path d="M113.92 43.5787C113.022 43.5787 112.362 42.7419 112.572 41.8669L116.187 26.7908C116.335 26.1644 116.894 25.7245 117.535 25.7245C118.433 25.7245 119.093 26.5613 118.883 27.4363L115.269 42.5124C115.12 43.1388 114.561 43.5787 113.92 43.5787Z" fill="#4349CE"/>
<path d="M116.584 43.5787C115.685 43.5787 115.025 42.7419 115.235 41.8669L118.85 26.7908C118.998 26.1644 119.557 25.7245 120.198 25.7245C121.097 25.7245 121.756 26.5613 121.546 27.4363L117.932 42.5124C117.784 43.1388 117.224 43.5787 116.584 43.5787Z" fill="#E383AA"/>
<path d="M119.246 43.5787C118.347 43.5787 117.687 42.7419 117.898 41.8669L121.512 26.7908C121.66 26.1644 122.22 25.7245 122.86 25.7245C123.759 25.7245 124.419 26.5613 124.208 27.4363L120.594 42.5124C120.446 43.1388 119.887 43.5787 119.246 43.5787Z" fill="#EF5CBE"/>
<path d="M100.525 43.5787H97.7134C96.8147 43.5787 96.1549 42.7419 96.3653 41.8669L99.9795 26.7908C100.128 26.1644 100.687 25.7245 101.328 25.7245H104.139C105.038 25.7245 105.697 26.5613 105.487 27.4363L101.873 42.5124C101.724 43.1388 101.165 43.5787 100.525 43.5787Z" fill="#A04ACC"/>
<path d="M121.292 43.5786H90.7808C89.9728 43.5786 89.3179 44.2337 89.3179 45.0417V49.9619C89.3179 50.77 89.9728 51.425 90.7808 51.425H121.292C122.1 51.425 122.754 50.77 122.754 49.9619V45.0417C122.754 44.2337 122.1 43.5786 121.292 43.5786Z" fill="#F0BE40"/>
<path d="M97.612 75.9015H94.3611L92.1189 51.4297H95.3698L97.612 75.9015ZM121.635 51.4249H118.384L117.538 75.8967H120.789L121.635 51.4249Z" fill="#5B47DB"/>
<mask id="mask1_241_76287" style="mask-type:luminance" maskUnits="userSpaceOnUse" x="92" y="51" width="30" height="25">
<path d="M97.611 75.9013H94.3601L92.1179 51.4295H95.3688L97.611 75.9013ZM121.634 51.4247H118.383L117.537 75.8965H120.788L121.634 51.4247Z" fill="white"/>
</mask>
<g mask="url(#mask1_241_76287)">
<path d="M123.681 48.9813H88.5952V55.4077H123.681V48.9813Z" fill="black"/>
</g>
<path d="M49.4523 75.9018H46.2014L43.9592 47.5044H47.2101L49.4523 75.9018ZM84.6148 47.5044H81.3638L80.5177 75.9018H83.7686L84.6148 47.5044Z" fill="#5B47DB"/>
<mask id="mask2_241_76287" style="mask-type:luminance" maskUnits="userSpaceOnUse" x="43" y="47" width="42" height="29">
<path d="M49.4523 75.9018H46.2014L43.9592 47.5044H47.2101L49.4523 75.9018ZM84.6148 47.5044H81.3638L80.5177 75.9018H83.7686L84.6148 47.5044Z" fill="white"/>
</mask>
<g mask="url(#mask2_241_76287)">
<path d="M86.0059 47.5188H42.0564V52.3768H86.0059V47.5188Z" fill="black"/>
</g>
<path d="M84.5427 38.4719H43.5191C42.7111 38.4719 42.0562 39.127 42.0562 39.9351V47.5233C42.0562 48.3314 42.7111 48.9865 43.5191 48.9865H84.5427C85.3507 48.9865 86.0056 48.3314 86.0056 47.5233V39.9351C86.0056 39.127 85.3507 38.4719 84.5427 38.4719Z" fill="#F0BE40"/>
<path d="M8.28016 75.9018H2.854V68.1223H8.28016V75.9018ZM39.0204 68.1223H33.5943V75.9018H39.0204V68.1223Z" fill="#5B47DB"/>
<mask id="mask3_241_76287" style="mask-type:luminance" maskUnits="userSpaceOnUse" x="2" y="68" width="38" height="8">
<path d="M8.28016 75.9018H2.854V68.1223H8.28016V75.9018ZM39.0204 68.1223H33.5943V75.9018H39.0204V68.1223Z" fill="white"/>
</mask>
<g mask="url(#mask3_241_76287)">
<path d="M40.402 69.1692H0.301025V73.3673H40.402V69.1692Z" fill="black"/>
</g>
<path d="M42.0563 71.3115L0 71.4836L6.75521 20.0154C7.05162 17.7681 8.96391 16.0898 11.23 16.0898H35.478C37.897 16.0898 39.8906 18.0024 39.9862 20.4219L42.0611 71.3115H42.0563Z" fill="#DF6245"/>
<mask id="mask4_241_76287" style="mask-type:luminance" maskUnits="userSpaceOnUse" x="0" y="16" width="43" height="56">
<path d="M42.0563 71.3115L0 71.4836L6.75521 20.0154C7.05162 17.7681 8.96391 16.0898 11.23 16.0898H35.478C37.897 16.0898 39.8906 18.0024 39.9862 20.4219L42.0611 71.3115H42.0563Z" fill="white"/>
</mask>
<g mask="url(#mask4_241_76287)">
<path d="M-9.30848 11.1792L-12.4351 11.619L-9.64791 13.0966L-12.7363 12.4367L-10.6232 14.7844L-13.3004 13.1109L-12.1148 16.0371L-14.0558 13.5508L-13.9458 16.7066L-14.9163 13.7038L-15.8916 16.7066L-15.7816 13.5508L-17.7274 16.0371L-16.5418 13.1109L-19.219 14.7844L-17.1059 12.4367L-20.1943 13.0966L-17.4071 11.619L-20.5337 11.1792L-17.4071 10.7392L-20.1943 9.26177L-17.1059 9.92162L-19.219 7.57389L-16.5418 9.24742L-17.7274 6.32114L-15.7864 8.8075L-15.8964 5.65171L-14.9259 8.65451L-13.9506 5.65171L-14.0606 8.8075L-12.1148 6.32114L-13.3004 9.24742L-10.6232 7.57389L-12.7363 9.92162L-9.64791 9.26177L-12.4351 10.7392L-9.30848 11.1792ZM-4.34605 1.64002L-1.55888 0.162552L-4.64724 0.822402L-2.53414 -1.52533L-5.21137 0.148193L-4.02573 -2.77809L-5.97151 -0.291668L-5.86156 -3.44751L-6.83682 -0.444709L-7.80731 -3.44751L-7.69737 -0.291668L-9.63835 -2.77809L-8.45272 0.148193L-11.1299 -1.52533L-9.01684 0.822402L-12.1052 0.162552L-9.31804 1.64002L-12.4447 2.07994L-9.31804 2.51986L-12.1052 3.99733L-9.01684 3.33748L-11.1299 5.68522L-8.45272 4.01169L-9.63835 6.93797L-7.69258 4.45155L-7.80254 7.60739L-6.82726 4.60459L-5.85677 7.60739L-5.96673 4.45155L-4.02573 6.93797L-5.21137 4.01169L-2.53414 5.68522L-4.64724 3.33748L-1.55888 3.99733L-4.34605 2.51986L-1.21943 2.07994L-4.34605 1.64002ZM3.73821 10.7392L6.52538 9.26177L3.43702 9.92162L5.55012 7.57389L2.87289 9.24742L4.05851 6.32114L2.11275 8.8075L2.2227 5.65171L1.24744 8.65451L0.276945 5.65171L0.386894 8.8075L-1.55409 6.32114L-0.36846 9.24742L-3.04568 7.57389L-0.9326 9.92162L-4.02096 9.26177L-1.23377 10.7392L-4.36039 11.1792L-1.23377 11.619L-4.02096 13.0966L-0.9326 12.4367L-3.04568 14.7844L-0.36846 13.1109L-1.55409 16.0371L0.39168 13.5508L0.281717 16.7066L1.25699 13.7038L2.22749 16.7066L2.11753 13.5508L4.05851 16.0371L2.87289 13.1109L5.55012 14.7844L3.43702 12.4367L6.52538 13.0966L3.73821 11.619L6.86483 11.1792L3.73821 10.7392ZM11.8225 1.64002L14.6096 0.162552L11.5213 0.822402L13.6344 -1.52533L10.9572 0.148193L12.1428 -2.77809L10.197 -0.291668L10.307 -3.44751L9.33168 -0.444709L8.36119 -3.44751L8.47115 -0.291668L6.53017 -2.77809L7.7158 0.148193L5.03857 -1.52533L7.15166 0.822402L4.0633 0.162552L6.85048 1.64002L3.72387 2.07994L6.85048 2.51986L4.0633 3.99733L7.15166 3.33748L5.03857 5.68522L7.7158 4.01169L6.53017 6.93797L8.47594 4.45155L8.36598 7.60739L9.34126 4.60459L10.3117 7.60739L10.2018 4.45155L12.1428 6.93797L10.9572 4.01169L13.6344 5.68522L11.5213 3.33748L14.6096 3.99733L11.8225 2.51986L14.9491 2.07994L11.8225 1.64002ZM19.9115 10.7392L22.6987 9.26177L19.6103 9.92162L21.7234 7.57389L19.0462 9.24742L20.2318 6.32114L18.286 8.8075L18.396 5.65171L17.4207 8.65451L16.4502 5.65171L16.5602 8.8075L14.6192 6.32114L15.8048 9.24742L13.1276 7.57389L15.2407 9.92162L12.1523 9.26177L14.9395 10.7392L11.8129 11.1792L14.9395 11.619L12.1523 13.0966L15.2407 12.4367L13.1276 14.7844L15.8048 13.1109L14.6192 16.0371L16.565 13.5508L16.455 16.7066L17.4303 13.7038L18.4008 16.7066L18.2908 13.5508L20.2318 16.0371L19.0462 13.1109L21.7234 14.7844L19.6103 12.4367L22.6987 13.0966L19.9115 11.619L23.0381 11.1792L19.9115 10.7392ZM27.9958 1.64002L30.7829 0.162552L27.6946 0.822402L29.8077 -1.52533L27.1304 0.148193L28.3161 -2.77809L26.3703 -0.291668L26.4803 -3.44751L25.505 -0.444709L24.5345 -3.44751L24.6444 -0.291668L22.7035 -2.77809L23.8891 0.148193L21.2119 -1.52533L23.325 0.822402L20.2366 0.162552L23.0238 1.64002L19.8972 2.07994L23.0238 2.51986L20.2366 3.99733L23.325 3.33748L21.2119 5.68522L23.8891 4.01169L22.7035 6.93797L24.6492 4.45155L24.5393 7.60739L25.5145 4.60459L26.485 7.60739L26.3751 4.45155L28.3161 6.93797L27.1304 4.01169L29.8077 5.68522L27.6946 3.33748L30.7829 3.99733L27.9958 2.51986L31.1224 2.07994L27.9958 1.64002ZM36.08 10.7392L38.8672 9.26177L35.7788 9.92162L37.8919 7.57389L35.2147 9.24742L36.4003 6.32114L34.4546 8.8075L34.5645 5.65171L33.5892 8.65451L32.6188 5.65171L32.7287 8.8075L30.7877 6.32114L31.9734 9.24742L29.2961 7.57389L31.4092 9.92162L28.3208 9.26177L31.108 10.7392L27.9814 11.1792L31.108 11.619L28.3208 13.0966L31.4092 12.4367L29.2961 14.7844L31.9734 13.1109L30.7877 16.0371L32.7335 13.5508L32.6235 16.7066L33.5988 13.7038L34.5693 16.7066L34.4594 13.5508L36.4003 16.0371L35.2147 13.1109L37.8919 14.7844L35.7788 12.4367L38.8672 13.0966L36.08 11.619L39.2066 11.1792L36.08 10.7392ZM44.1643 1.64002L46.9515 0.162552L43.8631 0.822402L45.9762 -1.52533L43.299 0.148193L44.4846 -2.77809L42.5388 -0.291668L42.6488 -3.44751L41.6735 -0.444709L40.703 -3.44751L40.813 -0.291668L38.872 -2.77809L40.0576 0.148193L37.3804 -1.52533L39.4935 0.822402L36.4051 0.162552L39.1923 1.64002L36.0657 2.07994L39.1923 2.51986L36.4051 3.99733L39.4935 3.33748L37.3804 5.68522L40.0576 4.01169L38.872 6.93797L40.8177 4.45155L40.7078 7.60739L41.6831 4.60459L42.6536 7.60739L42.5436 4.45155L44.4846 6.93797L43.299 4.01169L45.9762 5.68522L43.8631 3.33748L46.9515 3.99733L44.1643 2.51986L47.2909 2.07994L44.1643 1.64002ZM52.2533 10.7392L55.0405 9.26177L51.9521 9.92162L54.0652 7.57389L51.388 9.24742L52.5736 6.32114L50.6279 8.8075L50.7378 5.65171L49.7625 8.65451L48.792 5.65171L48.902 8.8075L46.961 6.32114L48.1466 9.24742L45.4694 7.57389L47.5825 9.92162L44.4942 9.26177L47.2813 10.7392L44.1547 11.1792L47.2813 11.619L44.4942 13.0966L47.5825 12.4367L45.4694 14.7844L48.1466 13.1109L46.961 16.0371L48.9068 13.5508L48.7968 16.7066L49.7721 13.7038L50.7426 16.7066L50.6326 13.5508L52.5736 16.0371L51.388 13.1109L54.0652 14.7844L51.9521 12.4367L55.0405 13.0966L52.2533 11.619L55.3799 11.1792L52.2533 10.7392ZM60.3376 1.64002L63.1248 0.162552L60.0364 0.822402L62.1495 -1.52533L59.4723 0.148193L60.6579 -2.77809L58.7121 -0.291668L58.8221 -3.44751L57.8468 -0.444709L56.8763 -3.44751L56.9863 -0.291668L55.0453 -2.77809L56.2309 0.148193L53.5537 -1.52533L55.6668 0.822402L52.5784 0.162552L55.3656 1.64002L52.239 2.07994L55.3656 2.51986L52.5784 3.99733L55.6668 3.33748L53.5537 5.68522L56.2309 4.01169L55.0453 6.93797L56.991 4.45155L56.8811 7.60739L57.8564 4.60459L58.8269 7.60739L58.7169 4.45155L60.6579 6.93797L59.4723 4.01169L62.1495 5.68522L60.0364 3.33748L63.1248 3.99733L60.3376 2.51986L63.4642 2.07994L60.3376 1.64002ZM-12.4303 28.9329L-9.64312 27.4554L-12.7315 28.1152L-10.6184 25.7675L-13.2956 27.4411L-12.11 24.5148L-14.0558 27.0012L-13.9458 23.8454L-14.9211 26.8482L-15.8916 23.8454L-15.7816 27.0012L-17.7226 24.5148L-16.537 27.4411L-19.2142 25.7675L-17.1011 28.1152L-20.1895 27.4554L-17.4023 28.9329L-20.5289 29.3728L-17.4023 29.8127L-20.1895 31.2902L-17.1011 30.6303L-19.2142 32.978L-16.537 31.3045L-17.7226 34.2308L-15.7768 31.7444L-15.8868 34.9002L-14.9115 31.8974L-13.941 34.9002L-14.051 31.7444L-12.11 34.2308L-13.2956 31.3045L-10.6184 32.978L-12.7315 30.6303L-9.64312 31.2902L-12.4303 29.8127L-9.30369 29.3728L-12.4303 28.9329ZM-4.34605 19.8385L-1.55888 18.361L-4.64724 19.0208L-2.53414 16.6731L-5.21137 18.3466L-4.02573 15.4204L-5.97151 17.9067L-5.86156 14.7509L-6.83682 17.7537L-7.80731 14.7509L-7.69737 17.9067L-9.63835 15.4204L-8.45272 18.3466L-11.1299 16.6731L-9.01684 19.0208L-12.1052 18.361L-9.31804 19.8385L-12.4447 20.2784L-9.31804 20.7182L-12.1052 22.1957L-9.01684 21.5359L-11.1299 23.8836L-8.45272 22.2101L-9.63835 25.1364L-7.69258 22.65L-7.80254 25.8058L-6.82726 22.803L-5.85677 25.8058L-5.96673 22.65L-4.02573 25.1364L-5.21137 22.2101L-2.53414 23.8836L-4.64724 21.5359L-1.55888 22.1957L-4.34605 20.7182L-1.21943 20.2784L-4.34605 19.8385ZM3.73821 28.9329L6.52538 27.4554L3.43702 28.1152L5.55012 25.7675L2.87289 27.4411L4.05851 24.5148L2.11275 27.0012L2.2227 23.8454L1.24744 26.8482L0.276945 23.8454L0.386894 27.0012L-1.55409 24.5148L-0.36846 27.4411L-3.04568 25.7675L-0.9326 28.1152L-4.02096 27.4554L-1.23377 28.9329L-4.36039 29.3728L-1.23377 29.8127L-4.02096 31.2902L-0.9326 30.6303L-3.04568 32.978L-0.36846 31.3045L-1.55409 34.2308L0.39168 31.7444L0.281717 34.9002L1.25699 31.8974L2.22749 34.9002L2.11753 31.7444L4.05851 34.2308L2.87289 31.3045L5.55012 32.978L3.43702 30.6303L6.52538 31.2902L3.73821 29.8127L6.86483 29.3728L3.73821 28.9329ZM11.8225 19.8385L14.6096 18.361L11.5213 19.0208L13.6344 16.6731L10.9572 18.3466L12.1428 15.4204L10.197 17.9067L10.307 14.7509L9.33168 17.7537L8.36119 14.7509L8.47115 17.9067L6.53017 15.4204L7.7158 18.3466L5.03857 16.6731L7.15166 19.0208L4.0633 18.361L6.85048 19.8385L3.72387 20.2784L6.85048 20.7182L4.0633 22.1957L7.15166 21.5359L5.03857 23.8836L7.7158 22.2101L6.53017 25.1364L8.47594 22.65L8.36598 25.8058L9.34126 22.803L10.3117 25.8058L10.2018 22.65L12.1428 25.1364L10.9572 22.2101L13.6344 23.8836L11.5213 21.5359L14.6096 22.1957L11.8225 20.7182L14.9491 20.2784L11.8225 19.8385ZM19.9115 28.9329L22.6987 27.4554L19.6103 28.1152L21.7234 25.7675L19.0462 27.4411L20.2318 24.5148L18.286 27.0012L18.396 23.8454L17.4207 26.8482L16.4502 23.8454L16.5602 27.0012L14.6192 24.5148L15.8048 27.4411L13.1276 25.7675L15.2407 28.1152L12.1523 27.4554L14.9395 28.9329L11.8129 29.3728L14.9395 29.8127L12.1523 31.2902L15.2407 30.6303L13.1276 32.978L15.8048 31.3045L14.6192 34.2308L16.565 31.7444L16.455 34.9002L17.4303 31.8974L18.4008 34.9002L18.2908 31.7444L20.2318 34.2308L19.0462 31.3045L21.7234 32.978L19.6103 30.6303L22.6987 31.2902L19.9115 29.8127L23.0381 29.3728L19.9115 28.9329ZM27.9958 19.8385L30.7829 18.361L27.6946 19.0208L29.8077 16.6731L27.1304 18.3466L28.3161 15.4204L26.3703 17.9067L26.4803 14.7509L25.505 17.7537L24.5345 14.7509L24.6444 17.9067L22.7035 15.4204L23.8891 18.3466L21.2119 16.6731L23.325 19.0208L20.2366 18.361L23.0238 19.8385L19.8972 20.2784L23.0238 20.7182L20.2366 22.1957L23.325 21.5359L21.2119 23.8836L23.8891 22.2101L22.7035 25.1364L24.6492 22.65L24.5393 25.8058L25.5145 22.803L26.485 25.8058L26.3751 22.65L28.3161 25.1364L27.1304 22.2101L29.8077 23.8836L27.6946 21.5359L30.7829 22.1957L27.9958 20.7182L31.1224 20.2784L27.9958 19.8385ZM36.08 28.9329L38.8672 27.4554L35.7788 28.1152L37.8919 25.7675L35.2147 27.4411L36.4003 24.5148L34.4546 27.0012L34.5645 23.8454L33.5892 26.8482L32.6188 23.8454L32.7287 27.0012L30.7877 24.5148L31.9734 27.4411L29.2961 25.7675L31.4092 28.1152L28.3208 27.4554L31.108 28.9329L27.9814 29.3728L31.108 29.8127L28.3208 31.2902L31.4092 30.6303L29.2961 32.978L31.9734 31.3045L30.7877 34.2308L32.7335 31.7444L32.6235 34.9002L33.5988 31.8974L34.5693 34.9002L34.4594 31.7444L36.4003 34.2308L35.2147 31.3045L37.8919 32.978L35.7788 30.6303L38.8672 31.2902L36.08 29.8127L39.2066 29.3728L36.08 28.9329ZM44.1643 19.8385L46.9515 18.361L43.8631 19.0208L45.9762 16.6731L43.299 18.3466L44.4846 15.4204L42.5388 17.9067L42.6488 14.7509L41.6735 17.7537L40.703 14.7509L40.813 17.9067L38.872 15.4204L40.0576 18.3466L37.3804 16.6731L39.4935 19.0208L36.4051 18.361L39.1923 19.8385L36.0657 20.2784L39.1923 20.7182L36.4051 22.1957L39.4935 21.5359L37.3804 23.8836L40.0576 22.2101L38.872 25.1364L40.8177 22.65L40.7078 25.8058L41.6831 22.803L42.6536 25.8058L42.5436 22.65L44.4846 25.1364L43.299 22.2101L45.9762 23.8836L43.8631 21.5359L46.9515 22.1957L44.1643 20.7182L47.2909 20.2784L44.1643 19.8385ZM52.2533 28.9329L55.0405 27.4554L51.9521 28.1152L54.0652 25.7675L51.388 27.4411L52.5736 24.5148L50.6279 27.0012L50.7378 23.8454L49.7625 26.8482L48.792 23.8454L48.902 27.0012L46.961 24.5148L48.1466 27.4411L45.4694 25.7675L47.5825 28.1152L44.4942 27.4554L47.2813 28.9329L44.1547 29.3728L47.2813 29.8127L44.4942 31.2902L47.5825 30.6303L45.4694 32.978L48.1466 31.3045L46.961 34.2308L48.9068 31.7444L48.7968 34.9002L49.7721 31.8974L50.7426 34.9002L50.6326 31.7444L52.5736 34.2308L51.388 31.3045L54.0652 32.978L51.9521 30.6303L55.0405 31.2902L52.2533 29.8127L55.3799 29.3728L52.2533 28.9329ZM60.3376 19.8385L63.1248 18.361L60.0364 19.0208L62.1495 16.6731L59.4723 18.3466L60.6579 15.4204L58.7121 17.9067L58.8221 14.7509L57.8468 17.7537L56.8763 14.7509L56.9863 17.9067L55.0453 15.4204L56.2309 18.3466L53.5537 16.6731L55.6668 19.0208L52.5784 18.361L55.3656 19.8385L52.239 20.2784L55.3656 20.7182L52.5784 22.1957L55.6668 21.5359L53.5537 23.8836L56.2309 22.2101L55.0453 25.1364L56.991 22.65L56.8811 25.8058L57.8564 22.803L58.8269 25.8058L58.7169 22.65L60.6579 25.1364L59.4723 22.2101L62.1495 23.8836L60.0364 21.5359L63.1248 22.1957L60.3376 20.7182L63.4642 20.2784L60.3376 19.8385ZM-12.4303 47.1265L-9.64312 45.649L-12.7315 46.3089L-10.6184 43.9611L-13.2956 45.6347L-12.11 42.7084L-14.0558 45.1948L-13.9458 42.039L-14.9211 45.0418L-15.8916 42.039L-15.7816 45.1948L-17.7226 42.7084L-16.537 45.6347L-19.2142 43.9611L-17.1011 46.3089L-20.1895 45.649L-17.4023 47.1265L-20.5289 47.5664L-17.4023 48.0063L-20.1895 49.4838L-17.1011 48.824L-19.2142 51.1717L-16.537 49.4982L-17.7226 52.4244L-15.7768 49.938L-15.8868 53.0938L-14.9115 50.0911L-13.941 53.0938L-14.051 49.938L-12.11 52.4244L-13.2956 49.4982L-10.6184 51.1717L-12.7315 48.824L-9.64312 49.4838L-12.4303 48.0063L-9.30369 47.5664L-12.4303 47.1265ZM-4.34605 38.0321L-1.55888 36.5546L-4.64724 37.2144L-2.53414 34.8667L-5.21137 36.5402L-4.02573 33.614L-5.97151 36.1004L-5.86156 32.9446L-6.83682 35.9473L-7.80731 32.9446L-7.69737 36.1004L-9.63835 33.614L-8.45272 36.5402L-11.1299 34.8667L-9.01684 37.2144L-12.1052 36.5546L-9.31804 38.0321L-12.4447 38.472L-9.31804 38.9119L-12.1052 40.3894L-9.01684 39.7295L-11.1299 42.0773L-8.45272 40.4037L-9.63835 43.33L-7.69258 40.8436L-7.80254 43.9994L-6.82726 40.9966L-5.85677 43.9994L-5.96673 40.8436L-4.02573 43.33L-5.21137 40.4037L-2.53414 42.0773L-4.64724 39.7295L-1.55888 40.3894L-4.34605 38.9119L-1.21943 38.472L-4.34605 38.0321ZM3.73821 47.1265L6.52538 45.649L3.43702 46.3089L5.55012 43.9611L2.87289 45.6347L4.05851 42.7084L2.11275 45.1948L2.2227 42.039L1.24744 45.0418L0.276945 42.039L0.386894 45.1948L-1.55409 42.7084L-0.36846 45.6347L-3.04568 43.9611L-0.9326 46.3089L-4.02096 45.649L-1.23377 47.1265L-4.36039 47.5664L-1.23377 48.0063L-4.02096 49.4838L-0.9326 48.824L-3.04568 51.1717L-0.36846 49.4982L-1.55409 52.4244L0.39168 49.938L0.281717 53.0938L1.25699 50.0911L2.22749 53.0938L2.11753 49.938L4.05851 52.4244L2.87289 49.4982L5.55012 51.1717L3.43702 48.824L6.52538 49.4838L3.73821 48.0063L6.86483 47.5664L3.73821 47.1265ZM11.8225 38.0321L14.6096 36.5546L11.5213 37.2144L13.6344 34.8667L10.9572 36.5402L12.1428 33.614L10.197 36.1004L10.307 32.9446L9.33168 35.9473L8.36119 32.9446L8.47115 36.1004L6.53017 33.614L7.7158 36.5402L5.03857 34.8667L7.15166 37.2144L4.0633 36.5546L6.85048 38.0321L3.72387 38.472L6.85048 38.9119L4.0633 40.3894L7.15166 39.7295L5.03857 42.0773L7.7158 40.4037L6.53017 43.33L8.47594 40.8436L8.36598 43.9994L9.34126 40.9966L10.3117 43.9994L10.2018 40.8436L12.1428 43.33L10.9572 40.4037L13.6344 42.0773L11.5213 39.7295L14.6096 40.3894L11.8225 38.9119L14.9491 38.472L11.8225 38.0321ZM19.9115 47.1265L22.6987 45.649L19.6103 46.3089L21.7234 43.9611L19.0462 45.6347L20.2318 42.7084L18.286 45.1948L18.396 42.039L17.4207 45.0418L16.4502 42.039L16.5602 45.1948L14.6192 42.7084L15.8048 45.6347L13.1276 43.9611L15.2407 46.3089L12.1523 45.649L14.9395 47.1265L11.8129 47.5664L14.9395 48.0063L12.1523 49.4838L15.2407 48.824L13.1276 51.1717L15.8048 49.4982L14.6192 52.4244L16.565 49.938L16.455 53.0938L17.4303 50.0911L18.4008 53.0938L18.2908 49.938L20.2318 52.4244L19.0462 49.4982L21.7234 51.1717L19.6103 48.824L22.6987 49.4838L19.9115 48.0063L23.0381 47.5664L19.9115 47.1265ZM27.9958 38.0321L30.7829 36.5546L27.6946 37.2144L29.8077 34.8667L27.1304 36.5402L28.3161 33.614L26.3703 36.1004L26.4803 32.9446L25.505 35.9473L24.5345 32.9446L24.6444 36.1004L22.7035 33.614L23.8891 36.5402L21.2119 34.8667L23.325 37.2144L20.2366 36.5546L23.0238 38.0321L19.8972 38.472L23.0238 38.9119L20.2366 40.3894L23.325 39.7295L21.2119 42.0773L23.8891 40.4037L22.7035 43.33L24.6492 40.8436L24.5393 43.9994L25.5145 40.9966L26.485 43.9994L26.3751 40.8436L28.3161 43.33L27.1304 40.4037L29.8077 42.0773L27.6946 39.7295L30.7829 40.3894L27.9958 38.9119L31.1224 38.472L27.9958 38.0321ZM36.08 47.1265L38.8672 45.649L35.7788 46.3089L37.8919 43.9611L35.2147 45.6347L36.4003 42.7084L34.4546 45.1948L34.5645 42.039L33.5892 45.0418L32.6188 42.039L32.7287 45.1948L30.7877 42.7084L31.9734 45.6347L29.2961 43.9611L31.4092 46.3089L28.3208 45.649L31.108 47.1265L27.9814 47.5664L31.108 48.0063L28.3208 49.4838L31.4092 48.824L29.2961 51.1717L31.9734 49.4982L30.7877 52.4244L32.7335 49.938L32.6235 53.0938L33.5988 50.0911L34.5693 53.0938L34.4594 49.938L36.4003 52.4244L35.2147 49.4982L37.8919 51.1717L35.7788 48.824L38.8672 49.4838L36.08 48.0063L39.2066 47.5664L36.08 47.1265ZM44.1643 38.0321L46.9515 36.5546L43.8631 37.2144L45.9762 34.8667L43.299 36.5402L44.4846 33.614L42.5388 36.1004L42.6488 32.9446L41.6735 35.9473L40.703 32.9446L40.813 36.1004L38.872 33.614L40.0576 36.5402L37.3804 34.8667L39.4935 37.2144L36.4051 36.5546L39.1923 38.0321L36.0657 38.472L39.1923 38.9119L36.4051 40.3894L39.4935 39.7295L37.3804 42.0773L40.0576 40.4037L38.872 43.33L40.8177 40.8436L40.7078 43.9994L41.6831 40.9966L42.6536 43.9994L42.5436 40.8436L44.4846 43.33L43.299 40.4037L45.9762 42.0773L43.8631 39.7295L46.9515 40.3894L44.1643 38.9119L47.2909 38.472L44.1643 38.0321ZM52.2533 47.1265L55.0405 45.649L51.9521 46.3089L54.0652 43.9611L51.388 45.6347L52.5736 42.7084L50.6279 45.1948L50.7378 42.039L49.7625 45.0418L48.792 42.039L48.902 45.1948L46.961 42.7084L48.1466 45.6347L45.4694 43.9611L47.5825 46.3089L44.4942 45.649L47.2813 47.1265L44.1547 47.5664L47.2813 48.0063L44.4942 49.4838L47.5825 48.824L45.4694 51.1717L48.1466 49.4982L46.961 52.4244L48.9068 49.938L48.7968 53.0938L49.7721 50.0911L50.7426 53.0938L50.6326 49.938L52.5736 52.4244L51.388 49.4982L54.0652 51.1717L51.9521 48.824L55.0405 49.4838L52.2533 48.0063L55.3799 47.5664L52.2533 47.1265ZM60.3376 38.0321L63.1248 36.5546L60.0364 37.2144L62.1495 34.8667L59.4723 36.5402L60.6579 33.614L58.7121 36.1004L58.8221 32.9446L57.8468 35.9473L56.8763 32.9446L56.9863 36.1004L55.0453 33.614L56.2309 36.5402L53.5537 34.8667L55.6668 37.2144L52.5784 36.5546L55.3656 38.0321L52.239 38.472L55.3656 38.9119L52.5784 40.3894L55.6668 39.7295L53.5537 42.0773L56.2309 40.4037L55.0453 43.33L56.991 40.8436L56.8811 43.9994L57.8564 40.9966L58.8269 43.9994L58.7169 40.8436L60.6579 43.33L59.4723 40.4037L62.1495 42.0773L60.0364 39.7295L63.1248 40.3894L60.3376 38.9119L63.4642 38.472L60.3376 38.0321ZM-12.4303 65.3202L-9.64312 63.8427L-12.7315 64.5025L-10.6184 62.1548L-13.2956 63.8283L-12.11 60.9021L-14.0558 63.3884L-13.9458 60.2326L-14.9211 63.2354L-15.8916 60.2326L-15.7816 63.3884L-17.7226 60.9021L-16.537 63.8283L-19.2142 62.1548L-17.1011 64.5025L-20.1895 63.8427L-17.4023 65.3202L-20.5289 65.7601L-17.4023 66.1999L-20.1895 67.6774L-17.1011 67.0176L-19.2142 69.3653L-16.537 67.6918L-17.7226 70.618L-15.7768 68.1317L-15.8868 71.2875L-14.9115 68.2847L-13.941 71.2875L-14.051 68.1317L-12.11 70.618L-13.2956 67.6918L-10.6184 69.3653L-12.7315 67.0176L-9.64312 67.6774L-12.4303 66.1999L-9.30369 65.7601L-12.4303 65.3202ZM-4.34605 56.2257L-1.55888 54.7483L-4.64724 55.4081L-2.53414 53.0604L-5.21137 54.7339L-4.02573 51.8076L-5.97151 54.294L-5.86156 51.1382L-6.83682 54.141L-7.80731 51.1382L-7.69737 54.294L-9.63835 51.8076L-8.45272 54.7339L-11.1299 53.0604L-9.01684 55.4081L-12.1052 54.7483L-9.31804 56.2257L-12.4447 56.6656L-9.31804 57.1055L-12.1052 58.583L-9.01684 57.9232L-11.1299 60.2709L-8.45272 58.5973L-9.63835 61.5236L-7.69258 59.0373L-7.80254 62.193L-6.82726 59.1902L-5.85677 62.193L-5.96673 59.0373L-4.02573 61.5236L-5.21137 58.5973L-2.53414 60.2709L-4.64724 57.9232L-1.55888 58.583L-4.34605 57.1055L-1.21943 56.6656L-4.34605 56.2257ZM3.73821 65.3202L6.52538 63.8427L3.43702 64.5025L5.55012 62.1548L2.87289 63.8283L4.05851 60.9021L2.11275 63.3884L2.2227 60.2326L1.24744 63.2354L0.276945 60.2326L0.386894 63.3884L-1.55409 60.9021L-0.36846 63.8283L-3.04568 62.1548L-0.9326 64.5025L-4.02096 63.8427L-1.23377 65.3202L-4.36039 65.7601L-1.23377 66.1999L-4.02096 67.6774L-0.9326 67.0176L-3.04568 69.3653L-0.36846 67.6918L-1.55409 70.618L0.39168 68.1317L0.281717 71.2875L1.25699 68.2847L2.22749 71.2875L2.11753 68.1317L4.05851 70.618L2.87289 67.6918L5.55012 69.3653L3.43702 67.0176L6.52538 67.6774L3.73821 66.1999L6.86483 65.7601L3.73821 65.3202ZM11.8225 56.2257L14.6096 54.7483L11.5213 55.4081L13.6344 53.0604L10.9572 54.7339L12.1428 51.8076L10.197 54.294L10.307 51.1382L9.33168 54.141L8.36119 51.1382L8.47115 54.294L6.53017 51.8076L7.7158 54.7339L5.03857 53.0604L7.15166 55.4081L4.0633 54.7483L6.85048 56.2257L3.72387 56.6656L6.85048 57.1055L4.0633 58.583L7.15166 57.9232L5.03857 60.2709L7.7158 58.5973L6.53017 61.5236L8.47594 59.0373L8.36598 62.193L9.34126 59.1902L10.3117 62.193L10.2018 59.0373L12.1428 61.5236L10.9572 58.5973L13.6344 60.2709L11.5213 57.9232L14.6096 58.583L11.8225 57.1055L14.9491 56.6656L11.8225 56.2257ZM19.9115 65.3202L22.6987 63.8427L19.6103 64.5025L21.7234 62.1548L19.0462 63.8283L20.2318 60.9021L18.286 63.3884L18.396 60.2326L17.4207 63.2354L16.4502 60.2326L16.5602 63.3884L14.6192 60.9021L15.8048 63.8283L13.1276 62.1548L15.2407 64.5025L12.1523 63.8427L14.9395 65.3202L11.8129 65.7601L14.9395 66.1999L12.1523 67.6774L15.2407 67.0176L13.1276 69.3653L15.8048 67.6918L14.6192 70.618L16.565 68.1317L16.455 71.2875L17.4303 68.2847L18.4008 71.2875L18.2908 68.1317L20.2318 70.618L19.0462 67.6918L21.7234 69.3653L19.6103 67.0176L22.6987 67.6774L19.9115 66.1999L23.0381 65.7601L19.9115 65.3202ZM27.9958 56.2257L30.7829 54.7483L27.6946 55.4081L29.8077 53.0604L27.1304 54.7339L28.3161 51.8076L26.3703 54.294L26.4803 51.1382L25.505 54.141L24.5345 51.1382L24.6444 54.294L22.7035 51.8076L23.8891 54.7339L21.2119 53.0604L23.325 55.4081L20.2366 54.7483L23.0238 56.2257L19.8972 56.6656L23.0238 57.1055L20.2366 58.583L23.325 57.9232L21.2119 60.2709L23.8891 58.5973L22.7035 61.5236L24.6492 59.0373L24.5393 62.193L25.5145 59.1902L26.485 62.193L26.3751 59.0373L28.3161 61.5236L27.1304 58.5973L29.8077 60.2709L27.6946 57.9232L30.7829 58.583L27.9958 57.1055L31.1224 56.6656L27.9958 56.2257ZM36.08 65.3202L38.8672 63.8427L35.7788 64.5025L37.8919 62.1548L35.2147 63.8283L36.4003 60.9021L34.4546 63.3884L34.5645 60.2326L33.5892 63.2354L32.6188 60.2326L32.7287 63.3884L30.7877 60.9021L31.9734 63.8283L29.2961 62.1548L31.4092 64.5025L28.3208 63.8427L31.108 65.3202L27.9814 65.7601L31.108 66.1999L28.3208 67.6774L31.4092 67.0176L29.2961 69.3653L31.9734 67.6918L30.7877 70.618L32.7335 68.1317L32.6235 71.2875L33.5988 68.2847L34.5693 71.2875L34.4594 68.1317L36.4003 70.618L35.2147 67.6918L37.8919 69.3653L35.7788 67.0176L38.8672 67.6774L36.08 66.1999L39.2066 65.7601L36.08 65.3202ZM44.1643 56.2257L46.9515 54.7483L43.8631 55.4081L45.9762 53.0604L43.299 54.7339L44.4846 51.8076L42.5388 54.294L42.6488 51.1382L41.6735 54.141L40.703 51.1382L40.813 54.294L38.872 51.8076L40.0576 54.7339L37.3804 53.0604L39.4935 55.4081L36.4051 54.7483L39.1923 56.2257L36.0657 56.6656L39.1923 57.1055L36.4051 58.583L39.4935 57.9232L37.3804 60.2709L40.0576 58.5973L38.872 61.5236L40.8177 59.0373L40.7078 62.193L41.6831 59.1902L42.6536 62.193L42.5436 59.0373L44.4846 61.5236L43.299 58.5973L45.9762 60.2709L43.8631 57.9232L46.9515 58.583L44.1643 57.1055L47.2909 56.6656L44.1643 56.2257ZM52.2533 65.3202L55.0405 63.8427L51.9521 64.5025L54.0652 62.1548L51.388 63.8283L52.5736 60.9021L50.6279 63.3884L50.7378 60.2326L49.7625 63.2354L48.792 60.2326L48.902 63.3884L46.961 60.9021L48.1466 63.8283L45.4694 62.1548L47.5825 64.5025L44.4942 63.8427L47.2813 65.3202L44.1547 65.7601L47.2813 66.1999L44.4942 67.6774L47.5825 67.0176L45.4694 69.3653L48.1466 67.6918L46.961 70.618L48.9068 68.1317L48.7968 71.2875L49.7721 68.2847L50.7426 71.2875L50.6326 68.1317L52.5736 70.618L51.388 67.6918L54.0652 69.3653L51.9521 67.0176L55.0405 67.6774L52.2533 66.1999L55.3799 65.7601L52.2533 65.3202ZM60.3376 56.2257L63.1248 54.7483L60.0364 55.4081L62.1495 53.0604L59.4723 54.7339L60.6579 51.8076L58.7121 54.294L58.8221 51.1382L57.8468 54.141L56.8763 51.1382L56.9863 54.294L55.0453 51.8076L56.2309 54.7339L53.5537 53.0604L55.6668 55.4081L52.5784 54.7483L55.3656 56.2257L52.239 56.6656L55.3656 57.1055L52.5784 58.583L55.6668 57.9232L53.5537 60.2709L56.2309 58.5973L55.0453 61.5236L56.991 59.0373L56.8811 62.193L57.8564 59.1902L58.8269 62.193L58.7169 59.0373L60.6579 61.5236L59.4723 58.5973L62.1495 60.2709L60.0364 57.9232L63.1248 58.583L60.3376 57.1055L63.4642 56.6656L60.3376 56.2257ZM-4.34605 74.4194L-1.55888 72.9419L-4.64724 73.6017L-2.53414 71.254L-5.21137 72.9276L-4.02573 70.0013L-5.97151 72.4876L-5.86156 69.3318L-6.83682 72.3347L-7.80731 69.3318L-7.69737 72.4876L-9.63835 70.0013L-8.45272 72.9276L-11.1299 71.254L-9.01684 73.6017L-12.1052 72.9419L-9.31804 74.4194L-12.4447 74.8592L-9.31804 75.2992L-12.1052 76.7766L-9.01684 76.1168L-11.1299 78.4645L-8.45272 76.791L-9.63835 79.7173L-7.69258 77.2309L-7.80254 80.3867L-6.82726 77.3839L-5.85677 80.3867L-5.96673 77.2309L-4.02573 79.7173L-5.21137 76.791L-2.53414 78.4645L-4.64724 76.1168L-1.55888 76.7766L-4.34605 75.2992L-1.21943 74.8592L-4.34605 74.4194ZM11.8225 74.4194L14.6096 72.9419L11.5213 73.6017L13.6344 71.254L10.9572 72.9276L12.1428 70.0013L10.197 72.4876L10.307 69.3318L9.33168 72.3347L8.36119 69.3318L8.47115 72.4876L6.53017 70.0013L7.7158 72.9276L5.03857 71.254L7.15166 73.6017L4.0633 72.9419L6.85048 74.4194L3.72387 74.8592L6.85048 75.2992L4.0633 76.7766L7.15166 76.1168L5.03857 78.4645L7.7158 76.791L6.53017 79.7173L8.47594 77.2309L8.36598 80.3867L9.34126 77.3839L10.3117 80.3867L10.2018 77.2309L12.1428 79.7173L10.9572 76.791L13.6344 78.4645L11.5213 76.1168L14.6096 76.7766L11.8225 75.2992L14.9491 74.8592L11.8225 74.4194ZM27.9958 74.4194L30.7829 72.9419L27.6946 73.6017L29.8077 71.254L27.1304 72.9276L28.3161 70.0013L26.3703 72.4876L26.4803 69.3318L25.505 72.3347L24.5345 69.3318L24.6444 72.4876L22.7035 70.0013L23.8891 72.9276L21.2119 71.254L23.325 73.6017L20.2366 72.9419L23.0238 74.4194L19.8972 74.8592L23.0238 75.2992L20.2366 76.7766L23.325 76.1168L21.2119 78.4645L23.8891 76.791L22.7035 79.7173L24.6492 77.2309L24.5393 80.3867L25.5145 77.3839L26.485 80.3867L26.3751 77.2309L28.3161 79.7173L27.1304 76.791L29.8077 78.4645L27.6946 76.1168L30.7829 76.7766L27.9958 75.2992L31.1224 74.8592L27.9958 74.4194ZM44.1643 74.4194L46.9515 72.9419L43.8631 73.6017L45.9762 71.254L43.299 72.9276L44.4846 70.0013L42.5388 72.4876L42.6488 69.3318L41.6735 72.3347L40.703 69.3318L40.813 72.4876L38.872 70.0013L40.0576 72.9276L37.3804 71.254L39.4935 73.6017L36.4051 72.9419L39.1923 74.4194L36.0657 74.8592L39.1923 75.2992L36.4051 76.7766L39.4935 76.1168L37.3804 78.4645L40.0576 76.791L38.872 79.7173L40.8177 77.2309L40.7078 80.3867L41.6831 77.3839L42.6536 80.3867L42.5436 77.2309L44.4846 79.7173L43.299 76.791L45.9762 78.4645L43.8631 76.1168L46.9515 76.7766L44.1643 75.2992L47.2909 74.8592L44.1643 74.4194ZM60.3376 74.4194L63.1248 72.9419L60.0364 73.6017L62.1495 71.254L59.4723 72.9276L60.6579 70.0013L58.7121 72.4876L58.8221 69.3318L57.8468 72.3347L56.8763 69.3318L56.9863 72.4876L55.0453 70.0013L56.2309 72.9276L53.5537 71.254L55.6668 73.6017L52.5784 72.9419L55.3656 74.4194L52.239 74.8592L55.3656 75.2992L52.5784 76.7766L55.6668 76.1168L53.5537 78.4645L56.2309 76.791L55.0453 79.7173L56.991 77.2309L56.8811 80.3867L57.8564 77.3839L58.8269 80.3867L58.7169 77.2309L60.6579 79.7173L59.4723 76.791L62.1495 78.4645L60.0364 76.1168L63.1248 76.7766L60.3376 75.2992L63.4642 74.8592L60.3376 74.4194Z" fill="#E58F4E"/>
</g>
<path d="M246.787 26.9294H209.956C208.155 26.9294 206.695 28.3895 206.695 30.1905V35.211C206.695 37.012 208.155 38.472 209.956 38.472H246.787C248.587 38.472 250.047 37.012 250.047 35.211V30.1905C250.047 28.3895 248.587 26.9294 246.787 26.9294Z" fill="#EF5CBE"/>
<path d="M285.282 30.769H252.534C251.161 30.769 250.048 31.8822 250.048 33.2554V35.9857C250.048 37.3589 251.161 38.472 252.534 38.472H285.282C286.655 38.472 287.768 37.3589 287.768 35.9857V33.2554C287.768 31.8822 286.655 30.769 285.282 30.769Z" fill="#F0DF79"/>
<path d="M285.282 23.0754H252.534C251.161 23.0754 250.048 24.1886 250.048 25.5618V28.2873C250.048 29.6605 251.161 30.7737 252.534 30.7737H285.282C286.655 30.7737 287.768 29.6605 287.768 28.2873V25.5618C287.768 24.1886 286.655 23.0754 285.282 23.0754Z" fill="#E48747"/>
<path d="M285.282 15.3821H252.534C251.161 15.3821 250.048 16.4953 250.048 17.8685V20.5939C250.048 21.9671 251.161 23.0804 252.534 23.0804H285.282C286.655 23.0804 287.768 21.9671 287.768 20.5939V17.8685C287.768 16.4953 286.655 15.3821 285.282 15.3821Z" fill="#4349CE"/>
<path d="M285.282 7.69336H252.534C251.161 7.69336 250.048 8.80653 250.048 10.1797V12.9052C250.048 14.2784 251.161 15.3916 252.534 15.3916H285.282C286.655 15.3916 287.768 14.2784 287.768 12.9052V10.1797C287.768 8.80653 286.655 7.69336 285.282 7.69336Z" fill="#A04ACC"/>
<path d="M285.282 0H252.534C251.161 0 250.048 1.11317 250.048 2.48636V5.21185C250.048 6.58505 251.161 7.69822 252.534 7.69822H285.282C286.655 7.69822 287.768 6.58505 287.768 5.21185V2.48636C287.768 1.11317 286.655 0 285.282 0Z" fill="#E383AA"/>
<path d="M247.465 19.6854H209.277C207.851 19.6854 206.695 20.8414 206.695 22.2675V24.3474C206.695 25.7734 207.851 26.9294 209.277 26.9294H247.465C248.891 26.9294 250.047 25.7734 250.047 24.3474V22.2675C250.047 20.8414 248.891 19.6854 247.465 19.6854Z" fill="#A04ACC"/>
</svg>
