<svg width="125" height="60" viewBox="0 0 125 60" fill="none" xmlns="http://www.w3.org/2000/svg">
<path d="M41.9093 5.88587H78.7785C79.6725 5.88587 80.3943 5.16386 80.3943 4.26972C80.3943 3.37557 79.6725 2.65356 78.7785 2.65356H41.9093C41.0153 2.65356 40.2934 3.37557 40.2934 4.26972C40.2934 5.16386 41.0153 5.88587 41.9093 5.88587Z" fill="#F0DF79"/>
<path d="M41.9093 22.3821H78.7785C79.6725 22.3821 80.3943 21.6601 80.3943 20.7659C80.3943 19.8718 79.6725 19.1498 78.7785 19.1498H41.9093C41.0153 19.1498 40.2934 19.8718 40.2934 20.7659C40.2934 21.6601 41.0153 22.3821 41.9093 22.3821Z" fill="#EF5CBE"/>
<path d="M42.6073 5.88599H78.0805C79.3584 5.88599 80.3943 6.92209 80.3943 8.20022V10.2037C80.3943 11.4818 79.3584 12.5179 78.0805 12.5179H42.6073C41.3293 12.5179 40.2934 11.4818 40.2934 10.2037V8.20022C40.2934 6.92209 41.3293 5.88599 42.6073 5.88599Z" fill="#E48747"/>
<path d="M42.6073 12.5179H78.0805C79.3584 12.5179 80.3943 13.5541 80.3943 14.8322V16.8357C80.3943 18.1138 79.3584 19.1499 78.0805 19.1499H42.6073C41.3293 19.1499 40.2934 18.1138 40.2934 16.8357V14.8322C40.2934 13.5541 41.3293 12.5179 42.6073 12.5179Z" fill="#A04ACC"/>
<path d="M32.1606 27.4888C33.0594 27.4888 33.7192 26.652 33.5088 25.777L29.8946 10.701C29.7464 10.0746 29.187 9.63464 28.5464 9.63464C27.6476 9.63464 26.9879 10.4714 27.1982 11.3465L30.8125 26.4226C30.9607 27.0489 31.52 27.4888 32.1606 27.4888Z" fill="#4349CE"/>
<path d="M29.3689 27.4888C30.2677 27.4888 30.9274 26.652 30.7171 25.777L27.1028 10.701C26.9546 10.0746 26.3953 9.63464 25.7547 9.63464C24.8559 9.63464 24.1961 10.4714 24.4065 11.3465L28.0207 26.4226C28.1689 27.0489 28.7283 27.4888 29.3689 27.4888Z" fill="#90CBBF"/>
<path d="M20.9736 27.4888C21.8724 27.4888 22.5322 26.652 22.3218 25.777L18.7076 10.701C18.5594 10.0746 18 9.63464 17.3594 9.63464C16.4606 9.63464 15.8009 10.4714 16.0112 11.3465L19.6255 26.4226C19.7737 27.0489 20.333 27.4888 20.9736 27.4888Z" fill="#E48747"/>
<path d="M18.3115 27.4888C19.2103 27.4888 19.8701 26.652 19.6597 25.777L16.0454 10.701C15.8972 10.0746 15.3379 9.63464 14.6973 9.63464C13.7985 9.63464 13.1387 10.4714 13.3491 11.3465L16.9633 26.4226C17.1116 27.0489 17.6709 27.4888 18.3115 27.4888Z" fill="#F0DF79"/>
<path d="M15.6482 27.4888C16.547 27.4888 17.2067 26.652 16.9964 25.777L13.3821 10.701C13.2339 10.0746 12.6745 9.63464 12.0339 9.63464C11.1351 9.63464 10.4754 10.4714 10.6858 11.3465L14.3 26.4226C14.4482 27.0489 15.0076 27.4888 15.6482 27.4888Z" fill="#4349CE"/>
<path d="M12.9895 27.4888C13.8883 27.4888 14.548 26.652 14.3377 25.777L10.7234 10.701C10.5752 10.0746 10.0159 9.63464 9.37525 9.63464C8.47647 9.63464 7.81675 10.4714 8.0271 11.3465L11.6414 26.4226C11.7896 27.0489 12.3489 27.4888 12.9895 27.4888Z" fill="#F0DF79"/>
<path d="M10.3274 27.4888C11.2262 27.4888 11.8859 26.652 11.6756 25.777L8.06132 10.701C7.91311 10.0746 7.35379 9.63464 6.71317 9.63464C5.81439 9.63464 5.15464 10.4714 5.36499 11.3465L8.97924 26.4226C9.12745 27.0489 9.6868 27.4888 10.3274 27.4888Z" fill="#4349CE"/>
<path d="M7.66406 27.4888C8.56284 27.4888 9.22259 26.652 9.01224 25.777L5.39799 10.701C5.24979 10.0746 4.69043 9.63464 4.04981 9.63464C3.15103 9.63464 2.49128 10.4714 2.70164 11.3465L6.31589 26.4226C6.46409 27.0489 7.02344 27.4888 7.66406 27.4888Z" fill="#E383AA"/>
<path d="M5.00195 27.4888C5.90073 27.4888 6.56048 26.652 6.35013 25.777L2.73588 10.701C2.58768 10.0746 2.02832 9.63464 1.3877 9.63464C0.488921 9.63464 -0.170826 10.4714 0.0395269 11.3465L3.65378 26.4226C3.80198 27.0489 4.36133 27.4888 5.00195 27.4888Z" fill="#EF5CBE"/>
<path d="M23.7234 27.4888H26.5344C27.4332 27.4888 28.093 26.652 27.8826 25.777L24.2684 10.701C24.1201 10.0746 23.5608 9.63464 22.9202 9.63464H20.1091C19.2103 9.63464 18.5506 10.4714 18.7609 11.3465L22.3752 26.4226C22.5234 27.0489 23.0827 27.4888 23.7234 27.4888Z" fill="#A04ACC"/>
<path d="M2.95557 27.4888H33.4664C34.2743 27.4888 34.9293 28.1438 34.9293 28.9519V33.8721C34.9293 34.6801 34.2743 35.3352 33.4664 35.3352H2.95557C2.14762 35.3352 1.49266 34.6801 1.49266 33.8721V28.9519C1.49266 28.1438 2.14762 27.4888 2.95557 27.4888Z" fill="#F0BE40"/>
<path d="M26.6339 59.8117H29.8848L32.127 35.3399H28.8761L26.6339 59.8117ZM2.61064 35.3351H5.86154L6.70775 59.8069H3.45684L2.61064 35.3351Z" fill="#5B47DB"/>
<mask id="mask0_241_76547" style="mask-type:luminance" maskUnits="userSpaceOnUse" x="2" y="35" width="31" height="25">
<path d="M26.633 59.8114H29.8839L32.126 35.3396H28.8751L26.633 59.8114ZM2.60966 35.3348H5.86057L6.70677 59.8066H3.45586L2.60966 35.3348Z" fill="white"/>
</mask>
<g mask="url(#mask0_241_76547)">
<path d="M0.563995 32.8916H35.65V39.318H0.563995V32.8916Z" fill="black"/>
</g>
<path d="M74.7953 59.8119H78.0462L80.2884 31.4146H77.0375L74.7953 59.8119ZM39.6329 31.4146H42.8838L43.73 59.8119H40.4791L39.6329 31.4146Z" fill="#5B47DB"/>
<mask id="mask1_241_76547" style="mask-type:luminance" maskUnits="userSpaceOnUse" x="39" y="31" width="42" height="29">
<path d="M74.7953 59.8119H78.0462L80.2884 31.4146H77.0375L74.7953 59.8119ZM39.6329 31.4146H42.8838L43.73 59.8119H40.4791L39.6329 31.4146Z" fill="white"/>
</mask>
<g mask="url(#mask1_241_76547)">
<path d="M38.2417 31.429H82.1912V36.2869H38.2417V31.429Z" fill="black"/>
</g>
<path d="M39.7049 22.3821H80.7286C81.5365 22.3821 82.1915 23.0372 82.1915 23.8452V31.4335C82.1915 32.2416 81.5365 32.8966 80.7286 32.8966H39.7049C38.897 32.8966 38.242 32.2416 38.242 31.4335V23.8452C38.242 23.0372 38.897 22.3821 39.7049 22.3821Z" fill="#F0BE40"/>
<path d="M115.968 59.812H121.394V52.0325H115.968V59.812ZM85.2277 52.0325H90.6539V59.812H85.2277V52.0325Z" fill="#5B47DB"/>
<mask id="mask2_241_76547" style="mask-type:luminance" maskUnits="userSpaceOnUse" x="85" y="52" width="37" height="8">
<path d="M115.968 59.812H121.394V52.0325H115.968V59.812ZM85.2277 52.0325H90.6539V59.812H85.2277V52.0325Z" fill="white"/>
</mask>
<g mask="url(#mask2_241_76547)">
<path d="M83.8459 53.0795H123.947V57.2776H83.8459V53.0795Z" fill="black"/>
</g>
<path d="M82.1913 55.2216L124.248 55.3938L117.492 3.9256C117.196 1.67829 115.284 0 113.018 0H88.7696C86.3506 0 84.357 1.91257 84.2614 4.33202L82.1865 55.2216H82.1913Z" fill="#DF6245"/>
<mask id="mask3_241_76547" style="mask-type:luminance" maskUnits="userSpaceOnUse" x="82" y="0" width="43" height="56">
<path d="M82.1913 55.2216L124.248 55.3938L117.492 3.9256C117.196 1.67829 115.284 0 113.018 0H88.7696C86.3506 0 84.357 1.91257 84.2614 4.33202L82.1865 55.2216H82.1913Z" fill="white"/>
</mask>
<g mask="url(#mask3_241_76547)">
<path d="M133.557 -4.91068L136.683 -4.47082L133.896 -2.99329L136.984 -3.65314L134.871 -1.30546L137.549 -2.97899L136.363 -0.0527115L138.304 -2.53907L138.194 0.616711L139.164 -2.38603L140.14 0.616711L140.03 -2.53907L141.975 -0.0527115L140.79 -2.97899L143.467 -1.30546L141.354 -3.65314L144.442 -2.99329L141.655 -4.47082L144.782 -4.91068L141.655 -5.3506L144.442 -6.82807L141.354 -6.16822L143.467 -8.51596L140.79 -6.84243L141.975 -9.76871L140.035 -7.28235L140.144 -10.4381L139.174 -7.43533L138.199 -10.4381L138.309 -7.28235L136.363 -9.76871L137.549 -6.84243L134.871 -8.51596L136.984 -6.16822L133.896 -6.82807L136.683 -5.3506L133.557 -4.91068ZM128.594 -14.4498L125.807 -15.9273L128.895 -15.2674L126.782 -17.6152L129.459 -15.9417L128.274 -18.8679L130.22 -16.3815L130.11 -19.5374L131.085 -16.5346L132.055 -19.5374L131.945 -16.3815L133.886 -18.8679L132.701 -15.9417L135.378 -17.6152L133.265 -15.2674L136.353 -15.9273L133.566 -14.4498L136.693 -14.0099L133.566 -13.57L136.353 -12.0925L133.265 -12.7524L135.378 -10.4046L132.701 -12.0782L133.886 -9.15188L131.941 -11.6383L132.051 -8.48245L131.075 -11.4853L130.105 -8.48245L130.215 -11.6383L128.274 -9.15188L129.459 -12.0782L126.782 -10.4046L128.895 -12.7524L125.807 -12.0925L128.594 -13.57L125.468 -14.0099L128.594 -14.4498ZM120.51 -5.3506L117.723 -6.82807L120.811 -6.16822L118.698 -8.51596L121.375 -6.84243L120.19 -9.76871L122.135 -7.28235L122.025 -10.4381L123.001 -7.43533L123.971 -10.4381L123.861 -7.28235L125.802 -9.76871L124.617 -6.84243L127.294 -8.51596L125.181 -6.16822L128.269 -6.82807L125.482 -5.3506L128.609 -4.91068L125.482 -4.47082L128.269 -2.99329L125.181 -3.65314L127.294 -1.30546L124.617 -2.97899L125.802 -0.0527115L123.856 -2.53907L123.966 0.616711L122.991 -2.38603L122.021 0.616711L122.131 -2.53907L120.19 -0.0527115L121.375 -2.97899L118.698 -1.30546L120.811 -3.65314L117.723 -2.99329L120.51 -4.47082L117.383 -4.91068L120.51 -5.3506ZM112.426 -14.4498L109.638 -15.9273L112.727 -15.2674L110.614 -17.6152L113.291 -15.9417L112.105 -18.8679L114.051 -16.3815L113.941 -19.5374L114.916 -16.5346L115.887 -19.5374L115.777 -16.3815L117.718 -18.8679L116.532 -15.9417L119.21 -17.6152L117.096 -15.2674L120.185 -15.9273L117.398 -14.4498L120.524 -14.0099L117.398 -13.57L120.185 -12.0925L117.096 -12.7524L119.21 -10.4046L116.532 -12.0782L117.718 -9.15188L115.772 -11.6383L115.882 -8.48245L114.907 -11.4853L113.936 -8.48245L114.046 -11.6383L112.105 -9.15188L113.291 -12.0782L110.614 -10.4046L112.727 -12.7524L109.638 -12.0925L112.426 -13.57L109.299 -14.0099L112.426 -14.4498ZM104.337 -5.3506L101.549 -6.82807L104.638 -6.16822L102.525 -8.51596L105.202 -6.84243L104.016 -9.76871L105.962 -7.28235L105.852 -10.4381L106.827 -7.43533L107.798 -10.4381L107.688 -7.28235L109.629 -9.76871L108.443 -6.84243L111.121 -8.51596L109.007 -6.16822L112.096 -6.82807L109.309 -5.3506L112.435 -4.91068L109.309 -4.47082L112.096 -2.99329L109.007 -3.65314L111.121 -1.30546L108.443 -2.97899L109.629 -0.0527115L107.683 -2.53907L107.793 0.616711L106.818 -2.38603L105.847 0.616711L105.957 -2.53907L104.016 -0.0527115L105.202 -2.97899L102.525 -1.30546L104.638 -3.65314L101.549 -2.99329L104.337 -4.47082L101.21 -4.91068L104.337 -5.3506ZM96.2523 -14.4498L93.4652 -15.9273L96.5535 -15.2674L94.4404 -17.6152L97.1177 -15.9417L95.932 -18.8679L97.8778 -16.3815L97.7678 -19.5374L98.7431 -16.5346L99.7136 -19.5374L99.6037 -16.3815L101.545 -18.8679L100.359 -15.9417L103.036 -17.6152L100.923 -15.2674L104.012 -15.9273L101.224 -14.4498L104.351 -14.0099L101.224 -13.57L104.012 -12.0925L100.923 -12.7524L103.036 -10.4046L100.359 -12.0782L101.545 -9.15188L99.5989 -11.6383L99.7088 -8.48245L98.7336 -11.4853L97.7631 -8.48245L97.873 -11.6383L95.932 -9.15188L97.1177 -12.0782L94.4404 -10.4046L96.5535 -12.7524L93.4652 -12.0925L96.2523 -13.57L93.1257 -14.0099L96.2523 -14.4498ZM88.1681 -5.3506L85.3809 -6.82807L88.4693 -6.16822L86.3562 -8.51596L89.0334 -6.84243L87.8478 -9.76871L89.7935 -7.28235L89.6836 -10.4381L90.6589 -7.43533L91.6294 -10.4381L91.5194 -7.28235L93.4604 -9.76871L92.2748 -6.84243L94.952 -8.51596L92.8389 -6.16822L95.9273 -6.82807L93.1401 -5.3506L96.2667 -4.91068L93.1401 -4.47082L95.9273 -2.99329L92.8389 -3.65314L94.952 -1.30546L92.2748 -2.97899L93.4604 -0.0527115L91.5146 -2.53907L91.6246 0.616711L90.6493 -2.38603L89.6788 0.616711L89.7888 -2.53907L87.8478 -0.0527115L89.0334 -2.97899L86.3562 -1.30546L88.4693 -3.65314L85.3809 -2.99329L88.1681 -4.47082L85.0415 -4.91068L88.1681 -5.3506ZM80.0838 -14.4498L77.2967 -15.9273L80.385 -15.2674L78.2719 -17.6152L80.9491 -15.9417L79.7635 -18.8679L81.7093 -16.3815L81.5993 -19.5374L82.5746 -16.5346L83.5451 -19.5374L83.4351 -16.3815L85.3761 -18.8679L84.1905 -15.9417L86.8677 -17.6152L84.7546 -15.2674L87.843 -15.9273L85.0558 -14.4498L88.1824 -14.0099L85.0558 -13.57L87.843 -12.0925L84.7546 -12.7524L86.8677 -10.4046L84.1905 -12.0782L85.3761 -9.15188L83.4304 -11.6383L83.5403 -8.48245L82.565 -11.4853L81.5945 -8.48245L81.7045 -11.6383L79.7635 -9.15188L80.9491 -12.0782L78.2719 -10.4046L80.385 -12.7524L77.2967 -12.0925L80.0838 -13.57L76.9572 -14.0099L80.0838 -14.4498ZM71.9948 -5.3506L69.2076 -6.82807L72.296 -6.16822L70.1829 -8.51596L72.8601 -6.84243L71.6745 -9.76871L73.6203 -7.28235L73.5103 -10.4381L74.4856 -7.43533L75.4561 -10.4381L75.3461 -7.28235L77.2871 -9.76871L76.1015 -6.84243L78.7787 -8.51596L76.6656 -6.16822L79.754 -6.82807L76.9668 -5.3506L80.0934 -4.91068L76.9668 -4.47082L79.754 -2.99329L76.6656 -3.65314L78.7787 -1.30546L76.1015 -2.97899L77.2871 -0.0527115L75.3413 -2.53907L75.4513 0.616711L74.476 -2.38603L73.5055 0.616711L73.6155 -2.53907L71.6745 -0.0527115L72.8601 -2.97899L70.1829 -1.30546L72.296 -3.65314L69.2076 -2.99329L71.9948 -4.47082L68.8682 -4.91068L71.9948 -5.3506ZM63.9105 -14.4498L61.1234 -15.9273L64.2117 -15.2674L62.0986 -17.6152L64.7759 -15.9417L63.5902 -18.8679L65.536 -16.3815L65.426 -19.5374L66.4013 -16.5346L67.3718 -19.5374L67.2618 -16.3815L69.2028 -18.8679L68.0172 -15.9417L70.6944 -17.6152L68.5813 -15.2674L71.6697 -15.9273L68.8825 -14.4498L72.0091 -14.0099L68.8825 -13.57L71.6697 -12.0925L68.5813 -12.7524L70.6944 -10.4046L68.0172 -12.0782L69.2028 -9.15188L67.2571 -11.6383L67.367 -8.48245L66.3918 -11.4853L65.4213 -8.48245L65.5312 -11.6383L63.5902 -9.15188L64.7759 -12.0782L62.0986 -10.4046L64.2117 -12.7524L61.1234 -12.0925L63.9105 -13.57L60.7839 -14.0099L63.9105 -14.4498ZM136.678 12.8431L133.891 11.3655L136.98 12.0254L134.867 9.6777L137.544 11.3512L136.358 8.42495L138.304 10.9113L138.194 7.75553L139.169 10.7583L140.14 7.75553L140.03 10.9113L141.971 8.42495L140.785 11.3512L143.462 9.6777L141.349 12.0254L144.438 11.3655L141.65 12.8431L144.777 13.2829L141.65 13.7228L144.438 15.2003L141.349 14.5405L143.462 16.8882L140.785 15.2147L141.971 18.1409L140.025 15.6546L140.135 18.8104L139.16 15.8076L138.189 18.8104L138.299 15.6546L136.358 18.1409L137.544 15.2147L134.867 16.8882L136.98 14.5405L133.891 15.2003L136.678 13.7228L133.552 13.2829L136.678 12.8431ZM128.594 3.74862L125.807 2.27115L128.895 2.931L126.782 0.583267L129.459 2.25679L128.274 -0.669487L130.22 1.81687L130.11 -1.33891L131.085 1.66389L132.055 -1.33891L131.945 1.81687L133.886 -0.669487L132.701 2.25679L135.378 0.583267L133.265 2.931L136.353 2.27115L133.566 3.74862L136.693 4.18854L133.566 4.6284L136.353 6.10587L133.265 5.44602L135.378 7.79376L132.701 6.12023L133.886 9.04651L131.941 6.56015L132.051 9.71593L131.075 6.71313L130.105 9.71593L130.215 6.56015L128.274 9.04651L129.459 6.12023L126.782 7.79376L128.895 5.44602L125.807 6.10587L128.594 4.6284L125.468 4.18854L128.594 3.74862ZM120.51 12.8431L117.723 11.3655L120.811 12.0254L118.698 9.6777L121.375 11.3512L120.19 8.42495L122.135 10.9113L122.025 7.75553L123.001 10.7583L123.971 7.75553L123.861 10.9113L125.802 8.42495L124.617 11.3512L127.294 9.6777L125.181 12.0254L128.269 11.3655L125.482 12.8431L128.609 13.2829L125.482 13.7228L128.269 15.2003L125.181 14.5405L127.294 16.8882L124.617 15.2147L125.802 18.1409L123.856 15.6546L123.966 18.8104L122.991 15.8076L122.021 18.8104L122.131 15.6546L120.19 18.1409L121.375 15.2147L118.698 16.8882L120.811 14.5405L117.723 15.2003L120.51 13.7228L117.383 13.2829L120.51 12.8431ZM112.426 3.74862L109.638 2.27115L112.727 2.931L110.614 0.583267L113.291 2.25679L112.105 -0.669487L114.051 1.81687L113.941 -1.33891L114.916 1.66389L115.887 -1.33891L115.777 1.81687L117.718 -0.669487L116.532 2.25679L119.21 0.583267L117.096 2.931L120.185 2.27115L117.398 3.74862L120.524 4.18854L117.398 4.6284L120.185 6.10587L117.096 5.44602L119.21 7.79376L116.532 6.12023L117.718 9.04651L115.772 6.56015L115.882 9.71593L114.907 6.71313L113.936 9.71593L114.046 6.56015L112.105 9.04651L113.291 6.12023L110.614 7.79376L112.727 5.44602L109.638 6.10587L112.426 4.6284L109.299 4.18854L112.426 3.74862ZM104.337 12.8431L101.549 11.3655L104.638 12.0254L102.525 9.6777L105.202 11.3512L104.016 8.42495L105.962 10.9113L105.852 7.75553L106.827 10.7583L107.798 7.75553L107.688 10.9113L109.629 8.42495L108.443 11.3512L111.121 9.6777L109.007 12.0254L112.096 11.3655L109.309 12.8431L112.435 13.2829L109.309 13.7228L112.096 15.2003L109.007 14.5405L111.121 16.8882L108.443 15.2147L109.629 18.1409L107.683 15.6546L107.793 18.8104L106.818 15.8076L105.847 18.8104L105.957 15.6546L104.016 18.1409L105.202 15.2147L102.525 16.8882L104.638 14.5405L101.549 15.2003L104.337 13.7228L101.21 13.2829L104.337 12.8431ZM96.2523 3.74862L93.4652 2.27115L96.5535 2.931L94.4404 0.583267L97.1177 2.25679L95.932 -0.669487L97.8778 1.81687L97.7678 -1.33891L98.7431 1.66389L99.7136 -1.33891L99.6037 1.81687L101.545 -0.669487L100.359 2.25679L103.036 0.583267L100.923 2.931L104.012 2.27115L101.224 3.74862L104.351 4.18854L101.224 4.6284L104.012 6.10587L100.923 5.44602L103.036 7.79376L100.359 6.12023L101.545 9.04651L99.5989 6.56015L99.7088 9.71593L98.7336 6.71313L97.7631 9.71593L97.873 6.56015L95.932 9.04651L97.1177 6.12023L94.4404 7.79376L96.5535 5.44602L93.4652 6.10587L96.2523 4.6284L93.1257 4.18854L96.2523 3.74862ZM88.1681 12.8431L85.3809 11.3655L88.4693 12.0254L86.3562 9.6777L89.0334 11.3512L87.8478 8.42495L89.7935 10.9113L89.6836 7.75553L90.6589 10.7583L91.6294 7.75553L91.5194 10.9113L93.4604 8.42495L92.2748 11.3512L94.952 9.6777L92.8389 12.0254L95.9273 11.3655L93.1401 12.8431L96.2667 13.2829L93.1401 13.7228L95.9273 15.2003L92.8389 14.5405L94.952 16.8882L92.2748 15.2147L93.4604 18.1409L91.5146 15.6546L91.6246 18.8104L90.6493 15.8076L89.6788 18.8104L89.7888 15.6546L87.8478 18.1409L89.0334 15.2147L86.3562 16.8882L88.4693 14.5405L85.3809 15.2003L88.1681 13.7228L85.0415 13.2829L88.1681 12.8431ZM80.0838 3.74862L77.2967 2.27115L80.385 2.931L78.2719 0.583267L80.9491 2.25679L79.7635 -0.669487L81.7093 1.81687L81.5993 -1.33891L82.5746 1.66389L83.5451 -1.33891L83.4351 1.81687L85.3761 -0.669487L84.1905 2.25679L86.8677 0.583267L84.7546 2.931L87.843 2.27115L85.0558 3.74862L88.1824 4.18854L85.0558 4.6284L87.843 6.10587L84.7546 5.44602L86.8677 7.79376L84.1905 6.12023L85.3761 9.04651L83.4304 6.56015L83.5403 9.71593L82.565 6.71313L81.5945 9.71593L81.7045 6.56015L79.7635 9.04651L80.9491 6.12023L78.2719 7.79376L80.385 5.44602L77.2967 6.10587L80.0838 4.6284L76.9572 4.18854L80.0838 3.74862ZM71.9948 12.8431L69.2076 11.3655L72.296 12.0254L70.1829 9.6777L72.8601 11.3512L71.6745 8.42495L73.6203 10.9113L73.5103 7.75553L74.4856 10.7583L75.4561 7.75553L75.3461 10.9113L77.2871 8.42495L76.1015 11.3512L78.7787 9.6777L76.6656 12.0254L79.754 11.3655L76.9668 12.8431L80.0934 13.2829L76.9668 13.7228L79.754 15.2003L76.6656 14.5405L78.7787 16.8882L76.1015 15.2147L77.2871 18.1409L75.3413 15.6546L75.4513 18.8104L74.476 15.8076L73.5055 18.8104L73.6155 15.6546L71.6745 18.1409L72.8601 15.2147L70.1829 16.8882L72.296 14.5405L69.2076 15.2003L71.9948 13.7228L68.8682 13.2829L71.9948 12.8431ZM63.9105 3.74862L61.1234 2.27115L64.2117 2.931L62.0986 0.583267L64.7759 2.25679L63.5902 -0.669487L65.536 1.81687L65.426 -1.33891L66.4013 1.66389L67.3718 -1.33891L67.2618 1.81687L69.2028 -0.669487L68.0172 2.25679L70.6944 0.583267L68.5813 2.931L71.6697 2.27115L68.8825 3.74862L72.0091 4.18854L68.8825 4.6284L71.6697 6.10587L68.5813 5.44602L70.6944 7.79376L68.0172 6.12023L69.2028 9.04651L67.2571 6.56015L67.367 9.71593L66.3918 6.71313L65.4213 9.71593L65.5312 6.56015L63.5902 9.04651L64.7759 6.12023L62.0986 7.79376L64.2117 5.44602L61.1234 6.10587L63.9105 4.6284L60.7839 4.18854L63.9105 3.74862ZM136.678 31.0367L133.891 29.5592L136.98 30.219L134.867 27.8713L137.544 29.5448L136.358 26.6185L138.304 29.105L138.194 25.9491L139.169 28.9519L140.14 25.9491L140.03 29.105L141.971 26.6185L140.785 29.5448L143.462 27.8713L141.349 30.219L144.438 29.5592L141.65 31.0367L144.777 31.4766L141.65 31.9165L144.438 33.394L141.349 32.7341L143.462 35.0819L140.785 33.4083L141.971 36.3346L140.025 33.8482L140.135 37.004L139.16 34.0012L138.189 37.004L138.299 33.8482L136.358 36.3346L137.544 33.4083L134.867 35.0819L136.98 32.7341L133.891 33.394L136.678 31.9165L133.552 31.4766L136.678 31.0367ZM128.594 21.9422L125.807 20.4648L128.895 21.1246L126.782 18.7769L129.459 20.4504L128.274 17.5241L130.22 20.0105L130.11 16.8547L131.085 19.8575L132.055 16.8547L131.945 20.0105L133.886 17.5241L132.701 20.4504L135.378 18.7769L133.265 21.1246L136.353 20.4648L133.566 21.9422L136.693 22.3821L133.566 22.8221L136.353 24.2995L133.265 23.6397L135.378 25.9874L132.701 24.3139L133.886 27.2402L131.941 24.7537L132.051 27.9096L131.075 24.9068L130.105 27.9096L130.215 24.7537L128.274 27.2402L129.459 24.3139L126.782 25.9874L128.895 23.6397L125.807 24.2995L128.594 22.8221L125.468 22.3821L128.594 21.9422ZM120.51 31.0367L117.723 29.5592L120.811 30.219L118.698 27.8713L121.375 29.5448L120.19 26.6185L122.135 29.105L122.025 25.9491L123.001 28.9519L123.971 25.9491L123.861 29.105L125.802 26.6185L124.617 29.5448L127.294 27.8713L125.181 30.219L128.269 29.5592L125.482 31.0367L128.609 31.4766L125.482 31.9165L128.269 33.394L125.181 32.7341L127.294 35.0819L124.617 33.4083L125.802 36.3346L123.856 33.8482L123.966 37.004L122.991 34.0012L122.021 37.004L122.131 33.8482L120.19 36.3346L121.375 33.4083L118.698 35.0819L120.811 32.7341L117.723 33.394L120.51 31.9165L117.383 31.4766L120.51 31.0367ZM112.426 21.9422L109.638 20.4648L112.727 21.1246L110.614 18.7769L113.291 20.4504L112.105 17.5241L114.051 20.0105L113.941 16.8547L114.916 19.8575L115.887 16.8547L115.777 20.0105L117.718 17.5241L116.532 20.4504L119.21 18.7769L117.096 21.1246L120.185 20.4648L117.398 21.9422L120.524 22.3821L117.398 22.8221L120.185 24.2995L117.096 23.6397L119.21 25.9874L116.532 24.3139L117.718 27.2402L115.772 24.7537L115.882 27.9096L114.907 24.9068L113.936 27.9096L114.046 24.7537L112.105 27.2402L113.291 24.3139L110.614 25.9874L112.727 23.6397L109.638 24.2995L112.426 22.8221L109.299 22.3821L112.426 21.9422ZM104.337 31.0367L101.549 29.5592L104.638 30.219L102.525 27.8713L105.202 29.5448L104.016 26.6185L105.962 29.105L105.852 25.9491L106.827 28.9519L107.798 25.9491L107.688 29.105L109.629 26.6185L108.443 29.5448L111.121 27.8713L109.007 30.219L112.096 29.5592L109.309 31.0367L112.435 31.4766L109.309 31.9165L112.096 33.394L109.007 32.7341L111.121 35.0819L108.443 33.4083L109.629 36.3346L107.683 33.8482L107.793 37.004L106.818 34.0012L105.847 37.004L105.957 33.8482L104.016 36.3346L105.202 33.4083L102.525 35.0819L104.638 32.7341L101.549 33.394L104.337 31.9165L101.21 31.4766L104.337 31.0367ZM96.2523 21.9422L93.4652 20.4648L96.5535 21.1246L94.4404 18.7769L97.1177 20.4504L95.932 17.5241L97.8778 20.0105L97.7678 16.8547L98.7431 19.8575L99.7136 16.8547L99.6037 20.0105L101.545 17.5241L100.359 20.4504L103.036 18.7769L100.923 21.1246L104.012 20.4648L101.224 21.9422L104.351 22.3821L101.224 22.8221L104.012 24.2995L100.923 23.6397L103.036 25.9874L100.359 24.3139L101.545 27.2402L99.5989 24.7537L99.7088 27.9096L98.7336 24.9068L97.7631 27.9096L97.873 24.7537L95.932 27.2402L97.1177 24.3139L94.4404 25.9874L96.5535 23.6397L93.4652 24.2995L96.2523 22.8221L93.1257 22.3821L96.2523 21.9422ZM88.1681 31.0367L85.3809 29.5592L88.4693 30.219L86.3562 27.8713L89.0334 29.5448L87.8478 26.6185L89.7935 29.105L89.6836 25.9491L90.6589 28.9519L91.6294 25.9491L91.5194 29.105L93.4604 26.6185L92.2748 29.5448L94.952 27.8713L92.8389 30.219L95.9273 29.5592L93.1401 31.0367L96.2667 31.4766L93.1401 31.9165L95.9273 33.394L92.8389 32.7341L94.952 35.0819L92.2748 33.4083L93.4604 36.3346L91.5146 33.8482L91.6246 37.004L90.6493 34.0012L89.6788 37.004L89.7888 33.8482L87.8478 36.3346L89.0334 33.4083L86.3562 35.0819L88.4693 32.7341L85.3809 33.394L88.1681 31.9165L85.0415 31.4766L88.1681 31.0367ZM80.0838 21.9422L77.2967 20.4648L80.385 21.1246L78.2719 18.7769L80.9491 20.4504L79.7635 17.5241L81.7093 20.0105L81.5993 16.8547L82.5746 19.8575L83.5451 16.8547L83.4351 20.0105L85.3761 17.5241L84.1905 20.4504L86.8677 18.7769L84.7546 21.1246L87.843 20.4648L85.0558 21.9422L88.1824 22.3821L85.0558 22.8221L87.843 24.2995L84.7546 23.6397L86.8677 25.9874L84.1905 24.3139L85.3761 27.2402L83.4304 24.7537L83.5403 27.9096L82.565 24.9068L81.5945 27.9096L81.7045 24.7537L79.7635 27.2402L80.9491 24.3139L78.2719 25.9874L80.385 23.6397L77.2967 24.2995L80.0838 22.8221L76.9572 22.3821L80.0838 21.9422ZM71.9948 31.0367L69.2076 29.5592L72.296 30.219L70.1829 27.8713L72.8601 29.5448L71.6745 26.6185L73.6203 29.105L73.5103 25.9491L74.4856 28.9519L75.4561 25.9491L75.3461 29.105L77.2871 26.6185L76.1015 29.5448L78.7787 27.8713L76.6656 30.219L79.754 29.5592L76.9668 31.0367L80.0934 31.4766L76.9668 31.9165L79.754 33.394L76.6656 32.7341L78.7787 35.0819L76.1015 33.4083L77.2871 36.3346L75.3413 33.8482L75.4513 37.004L74.476 34.0012L73.5055 37.004L73.6155 33.8482L71.6745 36.3346L72.8601 33.4083L70.1829 35.0819L72.296 32.7341L69.2076 33.394L71.9948 31.9165L68.8682 31.4766L71.9948 31.0367ZM63.9105 21.9422L61.1234 20.4648L64.2117 21.1246L62.0986 18.7769L64.7759 20.4504L63.5902 17.5241L65.536 20.0105L65.426 16.8547L66.4013 19.8575L67.3718 16.8547L67.2618 20.0105L69.2028 17.5241L68.0172 20.4504L70.6944 18.7769L68.5813 21.1246L71.6697 20.4648L68.8825 21.9422L72.0091 22.3821L68.8825 22.8221L71.6697 24.2995L68.5813 23.6397L70.6944 25.9874L68.0172 24.3139L69.2028 27.2402L67.2571 24.7537L67.367 27.9096L66.3918 24.9068L65.4213 27.9096L65.5312 24.7537L63.5902 27.2402L64.7759 24.3139L62.0986 25.9874L64.2117 23.6397L61.1234 24.2995L63.9105 22.8221L60.7839 22.3821L63.9105 21.9422ZM136.678 49.2303L133.891 47.7528L136.98 48.4127L134.867 46.065L137.544 47.7385L136.358 44.8122L138.304 47.2986L138.194 44.1428L139.169 47.1456L140.14 44.1428L140.03 47.2986L141.971 44.8122L140.785 47.7385L143.462 46.065L141.349 48.4127L144.438 47.7528L141.65 49.2303L144.777 49.6702L141.65 50.1101L144.438 51.5876L141.349 50.9278L143.462 53.2755L140.785 51.6019L141.971 54.5282L140.025 52.0418L140.135 55.1976L139.16 52.1948L138.189 55.1976L138.299 52.0418L136.358 54.5282L137.544 51.6019L134.867 53.2755L136.98 50.9278L133.891 51.5876L136.678 50.1101L133.552 49.6702L136.678 49.2303ZM128.594 40.1359L125.807 38.6584L128.895 39.3183L126.782 36.9705L129.459 38.6441L128.274 35.7178L130.22 38.2041L130.11 35.0484L131.085 38.0512L132.055 35.0484L131.945 38.2041L133.886 35.7178L132.701 38.6441L135.378 36.9705L133.265 39.3183L136.353 38.6584L133.566 40.1359L136.693 40.5758L133.566 41.0157L136.353 42.4932L133.265 41.8333L135.378 44.181L132.701 42.5075L133.886 45.4338L131.941 42.9474L132.051 46.1032L131.075 43.1004L130.105 46.1032L130.215 42.9474L128.274 45.4338L129.459 42.5075L126.782 44.181L128.895 41.8333L125.807 42.4932L128.594 41.0157L125.468 40.5758L128.594 40.1359ZM120.51 49.2303L117.723 47.7528L120.811 48.4127L118.698 46.065L121.375 47.7385L120.19 44.8122L122.135 47.2986L122.025 44.1428L123.001 47.1456L123.971 44.1428L123.861 47.2986L125.802 44.8122L124.617 47.7385L127.294 46.065L125.181 48.4127L128.269 47.7528L125.482 49.2303L128.609 49.6702L125.482 50.1101L128.269 51.5876L125.181 50.9278L127.294 53.2755L124.617 51.6019L125.802 54.5282L123.856 52.0418L123.966 55.1976L122.991 52.1948L122.021 55.1976L122.131 52.0418L120.19 54.5282L121.375 51.6019L118.698 53.2755L120.811 50.9278L117.723 51.5876L120.51 50.1101L117.383 49.6702L120.51 49.2303ZM112.426 40.1359L109.638 38.6584L112.727 39.3183L110.614 36.9705L113.291 38.6441L112.105 35.7178L114.051 38.2041L113.941 35.0484L114.916 38.0512L115.887 35.0484L115.777 38.2041L117.718 35.7178L116.532 38.6441L119.21 36.9705L117.096 39.3183L120.185 38.6584L117.398 40.1359L120.524 40.5758L117.398 41.0157L120.185 42.4932L117.096 41.8333L119.21 44.181L116.532 42.5075L117.718 45.4338L115.772 42.9474L115.882 46.1032L114.907 43.1004L113.936 46.1032L114.046 42.9474L112.105 45.4338L113.291 42.5075L110.614 44.181L112.727 41.8333L109.638 42.4932L112.426 41.0157L109.299 40.5758L112.426 40.1359ZM104.337 49.2303L101.549 47.7528L104.638 48.4127L102.525 46.065L105.202 47.7385L104.016 44.8122L105.962 47.2986L105.852 44.1428L106.827 47.1456L107.798 44.1428L107.688 47.2986L109.629 44.8122L108.443 47.7385L111.121 46.065L109.007 48.4127L112.096 47.7528L109.309 49.2303L112.435 49.6702L109.309 50.1101L112.096 51.5876L109.007 50.9278L111.121 53.2755L108.443 51.6019L109.629 54.5282L107.683 52.0418L107.793 55.1976L106.818 52.1948L105.847 55.1976L105.957 52.0418L104.016 54.5282L105.202 51.6019L102.525 53.2755L104.638 50.9278L101.549 51.5876L104.337 50.1101L101.21 49.6702L104.337 49.2303ZM96.2523 40.1359L93.4652 38.6584L96.5535 39.3183L94.4404 36.9705L97.1177 38.6441L95.932 35.7178L97.8778 38.2041L97.7678 35.0484L98.7431 38.0512L99.7136 35.0484L99.6037 38.2041L101.545 35.7178L100.359 38.6441L103.036 36.9705L100.923 39.3183L104.012 38.6584L101.224 40.1359L104.351 40.5758L101.224 41.0157L104.012 42.4932L100.923 41.8333L103.036 44.181L100.359 42.5075L101.545 45.4338L99.5989 42.9474L99.7088 46.1032L98.7336 43.1004L97.7631 46.1032L97.873 42.9474L95.932 45.4338L97.1177 42.5075L94.4404 44.181L96.5535 41.8333L93.4652 42.4932L96.2523 41.0157L93.1257 40.5758L96.2523 40.1359ZM88.1681 49.2303L85.3809 47.7528L88.4693 48.4127L86.3562 46.065L89.0334 47.7385L87.8478 44.8122L89.7935 47.2986L89.6836 44.1428L90.6589 47.1456L91.6294 44.1428L91.5194 47.2986L93.4604 44.8122L92.2748 47.7385L94.952 46.065L92.8389 48.4127L95.9273 47.7528L93.1401 49.2303L96.2667 49.6702L93.1401 50.1101L95.9273 51.5876L92.8389 50.9278L94.952 53.2755L92.2748 51.6019L93.4604 54.5282L91.5146 52.0418L91.6246 55.1976L90.6493 52.1948L89.6788 55.1976L89.7888 52.0418L87.8478 54.5282L89.0334 51.6019L86.3562 53.2755L88.4693 50.9278L85.3809 51.5876L88.1681 50.1101L85.0415 49.6702L88.1681 49.2303ZM80.0838 40.1359L77.2967 38.6584L80.385 39.3183L78.2719 36.9705L80.9491 38.6441L79.7635 35.7178L81.7093 38.2041L81.5993 35.0484L82.5746 38.0512L83.5451 35.0484L83.4351 38.2041L85.3761 35.7178L84.1905 38.6441L86.8677 36.9705L84.7546 39.3183L87.843 38.6584L85.0558 40.1359L88.1824 40.5758L85.0558 41.0157L87.843 42.4932L84.7546 41.8333L86.8677 44.181L84.1905 42.5075L85.3761 45.4338L83.4304 42.9474L83.5403 46.1032L82.565 43.1004L81.5945 46.1032L81.7045 42.9474L79.7635 45.4338L80.9491 42.5075L78.2719 44.181L80.385 41.8333L77.2967 42.4932L80.0838 41.0157L76.9572 40.5758L80.0838 40.1359ZM71.9948 49.2303L69.2076 47.7528L72.296 48.4127L70.1829 46.065L72.8601 47.7385L71.6745 44.8122L73.6203 47.2986L73.5103 44.1428L74.4856 47.1456L75.4561 44.1428L75.3461 47.2986L77.2871 44.8122L76.1015 47.7385L78.7787 46.065L76.6656 48.4127L79.754 47.7528L76.9668 49.2303L80.0934 49.6702L76.9668 50.1101L79.754 51.5876L76.6656 50.9278L78.7787 53.2755L76.1015 51.6019L77.2871 54.5282L75.3413 52.0418L75.4513 55.1976L74.476 52.1948L73.5055 55.1976L73.6155 52.0418L71.6745 54.5282L72.8601 51.6019L70.1829 53.2755L72.296 50.9278L69.2076 51.5876L71.9948 50.1101L68.8682 49.6702L71.9948 49.2303ZM63.9105 40.1359L61.1234 38.6584L64.2117 39.3183L62.0986 36.9705L64.7759 38.6441L63.5902 35.7178L65.536 38.2041L65.426 35.0484L66.4013 38.0512L67.3718 35.0484L67.2618 38.2041L69.2028 35.7178L68.0172 38.6441L70.6944 36.9705L68.5813 39.3183L71.6697 38.6584L68.8825 40.1359L72.0091 40.5758L68.8825 41.0157L71.6697 42.4932L68.5813 41.8333L70.6944 44.181L68.0172 42.5075L69.2028 45.4338L67.2571 42.9474L67.367 46.1032L66.3918 43.1004L65.4213 46.1032L65.5312 42.9474L63.5902 45.4338L64.7759 42.5075L62.0986 44.181L64.2117 41.8333L61.1234 42.4932L63.9105 41.0157L60.7839 40.5758L63.9105 40.1359ZM128.594 58.3295L125.807 56.852L128.895 57.5119L126.782 55.1642L129.459 56.8377L128.274 53.9114L130.22 56.3978L130.11 53.242L131.085 56.2448L132.055 53.242L131.945 56.3978L133.886 53.9114L132.701 56.8377L135.378 55.1642L133.265 57.5119L136.353 56.852L133.566 58.3295L136.693 58.7694L133.566 59.2093L136.353 60.6868L133.265 60.0269L135.378 62.3747L132.701 60.7011L133.886 63.6274L131.941 61.1411L132.051 64.2969L131.075 61.2941L130.105 64.2969L130.215 61.1411L128.274 63.6274L129.459 60.7011L126.782 62.3747L128.895 60.0269L125.807 60.6868L128.594 59.2093L125.468 58.7694L128.594 58.3295ZM112.426 58.3295L109.638 56.852L112.727 57.5119L110.614 55.1642L113.291 56.8377L112.105 53.9114L114.051 56.3978L113.941 53.242L114.916 56.2448L115.887 53.242L115.777 56.3978L117.718 53.9114L116.532 56.8377L119.21 55.1642L117.096 57.5119L120.185 56.852L117.398 58.3295L120.524 58.7694L117.398 59.2093L120.185 60.6868L117.096 60.0269L119.21 62.3747L116.532 60.7011L117.718 63.6274L115.772 61.1411L115.882 64.2969L114.907 61.2941L113.936 64.2969L114.046 61.1411L112.105 63.6274L113.291 60.7011L110.614 62.3747L112.727 60.0269L109.638 60.6868L112.426 59.2093L109.299 58.7694L112.426 58.3295ZM96.2523 58.3295L93.4652 56.852L96.5535 57.5119L94.4404 55.1642L97.1177 56.8377L95.932 53.9114L97.8778 56.3978L97.7678 53.242L98.7431 56.2448L99.7136 53.242L99.6037 56.3978L101.545 53.9114L100.359 56.8377L103.036 55.1642L100.923 57.5119L104.012 56.852L101.224 58.3295L104.351 58.7694L101.224 59.2093L104.012 60.6868L100.923 60.0269L103.036 62.3747L100.359 60.7011L101.545 63.6274L99.5989 61.1411L99.7088 64.2969L98.7336 61.2941L97.7631 64.2969L97.873 61.1411L95.932 63.6274L97.1177 60.7011L94.4404 62.3747L96.5535 60.0269L93.4652 60.6868L96.2523 59.2093L93.1257 58.7694L96.2523 58.3295ZM80.0838 58.3295L77.2967 56.852L80.385 57.5119L78.2719 55.1642L80.9491 56.8377L79.7635 53.9114L81.7093 56.3978L81.5993 53.242L82.5746 56.2448L83.5451 53.242L83.4351 56.3978L85.3761 53.9114L84.1905 56.8377L86.8677 55.1642L84.7546 57.5119L87.843 56.852L85.0558 58.3295L88.1824 58.7694L85.0558 59.2093L87.843 60.6868L84.7546 60.0269L86.8677 62.3747L84.1905 60.7011L85.3761 63.6274L83.4304 61.1411L83.5403 64.2969L82.565 61.2941L81.5945 64.2969L81.7045 61.1411L79.7635 63.6274L80.9491 60.7011L78.2719 62.3747L80.385 60.0269L77.2967 60.6868L80.0838 59.2093L76.9572 58.7694L80.0838 58.3295ZM63.9105 58.3295L61.1234 56.852L64.2117 57.5119L62.0986 55.1642L64.7759 56.8377L63.5902 53.9114L65.536 56.3978L65.426 53.242L66.4013 56.2448L67.3718 53.242L67.2618 56.3978L69.2028 53.9114L68.0172 56.8377L70.6944 55.1642L68.5813 57.5119L71.6697 56.852L68.8825 58.3295L72.0091 58.7694L68.8825 59.2093L71.6697 60.6868L68.5813 60.0269L70.6944 62.3747L68.0172 60.7011L69.2028 63.6274L67.2571 61.1411L67.367 64.2969L66.3918 61.2941L65.4213 64.2969L65.5312 61.1411L63.5902 63.6274L64.7759 60.7011L62.0986 62.3747L64.2117 60.0269L61.1234 60.6868L63.9105 59.2093L60.7839 58.7694L63.9105 58.3295Z" fill="#E58F4E"/>
</g>
</svg>
