<svg width="351" height="493" viewBox="0 0 351 493" fill="none" xmlns="http://www.w3.org/2000/svg">
<path d="M331.321 0.379028H21.4653V132.908H331.321V0.379028Z" fill="#F48020"/>
<mask id="mask0_840_2" style="mask-type:luminance" maskUnits="userSpaceOnUse" x="21" y="0" width="311" height="133">
<path d="M331.697 0.37854H21.1443V132.72H331.697V0.37854Z" fill="white"/>
</mask>
<g mask="url(#mask0_840_2)">
<path d="M16.8845 3.08423H335.957V7.94701L330.454 13.704L324.952 7.94701L319.449 13.704L313.951 7.94701L308.448 13.704L302.946 7.94701L297.443 13.704L291.941 7.94701L286.438 13.704L280.94 7.94701L275.437 13.704L269.935 7.94701L264.437 13.704L258.934 7.94701L253.436 13.704L247.934 7.94701L242.436 13.704L236.938 7.94701L231.435 13.704L225.933 7.94701L220.43 13.704L214.932 7.94701L209.429 13.704L203.932 7.94701L198.429 13.704L192.926 7.94701L187.428 13.704L181.926 7.94701L176.423 13.704L170.916 7.94701L165.413 13.704L159.91 7.94701L154.408 13.704L148.905 7.94701L143.402 13.704L137.905 7.94701L132.402 13.704L126.899 7.94701L121.397 13.704L115.894 7.94701L110.396 13.704L104.893 7.94701L99.3908 13.704L93.8929 7.94701L88.3903 13.704L82.8924 7.94701L77.3945 13.704L71.8919 7.94701L66.3893 13.704L60.8914 7.94701L55.3887 13.704L49.8909 7.94701L44.3882 13.704L38.8856 7.94701L33.3877 13.704L27.885 7.94701L22.3872 13.704L16.8845 7.94701V3.08423Z" fill="black"/>
</g>
<path d="M311.722 132.529H41.9983V447.984H311.722V132.529Z" fill="#594831"/>
<path d="M305.189 132.529H47.5981V447.984H305.189V132.529Z" fill="#381A26"/>
<path d="M311.294 447.984H41.5444V458.087H311.294V447.984Z" fill="#483828"/>
<path d="M348.469 480.594H4.37451V492.548H348.469V480.594Z" fill="#7F7137"/>
<path d="M342.024 468.784H10.823V480.737H342.024V468.784Z" fill="#705E33"/>
<path d="M334.518 456.892H18.324V468.846H334.518V456.892Z" fill="#594831"/>
<path d="M331.698 93.4211H20.9966V132.72H331.698V93.4211Z" fill="#9D4C20"/>
<path d="M8.1231 101.349H343.947L350.134 106.7C347.495 106.7 347.495 108.746 344.86 108.746C342.226 108.746 342.221 106.7 339.587 106.7C336.953 106.7 336.953 108.746 334.319 108.746C331.685 108.746 331.685 106.7 329.046 106.7C326.407 106.7 326.411 108.746 323.777 108.746C321.143 108.746 321.143 106.7 318.509 106.7C315.875 106.7 315.875 108.746 313.241 108.746C310.606 108.746 310.606 106.7 307.972 106.7C305.338 106.7 305.338 108.746 302.704 108.746C300.07 108.746 300.07 106.7 297.435 106.7C294.801 106.7 294.801 108.746 292.167 108.746C289.533 108.746 289.533 106.7 286.899 106.7C284.264 106.7 284.264 108.746 281.63 108.746C278.996 108.746 278.996 106.7 276.362 106.7C273.728 106.7 273.728 108.746 271.093 108.746C268.459 108.746 268.459 106.7 265.825 106.7C263.191 106.7 263.191 108.746 260.557 108.746C257.922 108.746 257.922 106.7 255.288 106.7C252.654 106.7 252.654 108.746 250.02 108.746C247.386 108.746 247.386 106.7 244.751 106.7C242.117 106.7 242.117 108.746 239.483 108.746C236.849 108.746 236.849 106.7 234.215 106.7C231.58 106.7 231.58 108.746 228.946 108.746C226.312 108.746 226.312 106.7 223.678 106.7C221.044 106.7 221.044 108.746 218.409 108.746C215.775 108.746 215.775 106.7 213.141 106.7C210.507 106.7 210.507 108.746 207.873 108.746C205.238 108.746 205.238 106.7 202.604 106.7C199.97 106.7 199.97 108.746 197.336 108.746C194.702 108.746 194.702 106.7 192.067 106.7C189.433 106.7 189.433 108.746 186.799 108.746C184.165 108.746 184.165 106.7 181.531 106.7C178.896 106.7 178.896 108.746 176.262 108.746C173.628 108.746 173.628 106.7 170.994 106.7C168.36 106.7 168.36 108.746 165.725 108.746C163.091 108.746 163.091 106.7 160.457 106.7C157.823 106.7 157.823 108.746 155.189 108.746C152.555 108.746 152.555 106.7 149.92 106.7C147.286 106.7 147.286 108.746 144.652 108.746C142.018 108.746 142.018 106.7 139.384 106.7C136.749 106.7 136.749 108.746 134.115 108.746C131.481 108.746 131.481 106.7 128.847 106.7C126.213 106.7 126.213 108.746 123.578 108.746C120.944 108.746 120.944 106.7 118.31 106.7C115.676 106.7 115.676 108.746 113.042 108.746C110.407 108.746 110.407 106.7 107.773 106.7C105.139 106.7 105.139 108.746 102.505 108.746C99.8706 108.746 99.8706 106.7 97.2364 106.7C94.6022 106.7 94.6022 108.746 91.968 108.746C89.3338 108.746 89.3338 106.7 86.7044 106.7C84.075 106.7 84.0702 108.746 81.436 108.746C78.8018 108.746 78.8018 106.7 76.1676 106.7C73.5334 106.7 73.5334 108.746 70.8992 108.746C68.265 108.746 68.265 106.7 65.6356 106.7C63.0062 106.7 63.0014 108.746 60.372 108.746C57.7426 108.746 57.7378 106.7 55.1084 106.7C52.479 106.7 52.4742 108.746 49.84 108.746C47.2058 108.746 47.2058 106.7 44.5716 106.7C41.9374 106.7 41.9374 108.746 39.308 108.746C36.6785 108.746 36.6738 106.7 34.0444 106.7C31.4149 106.7 31.4102 108.746 28.7807 108.746C26.1513 108.746 26.1465 106.7 23.5171 106.7C20.8877 106.7 20.8829 108.746 18.2487 108.746C15.6145 108.746 15.6145 106.7 12.9803 106.7C10.3461 106.7 10.3461 108.746 7.71673 108.746C5.08732 108.746 5.08254 106.7 2.45312 106.7L8.13266 101.349H8.1231Z" fill="#DC574A"/>
<mask id="mask1_840_2" style="mask-type:luminance" maskUnits="userSpaceOnUse" x="2" y="101" width="349" height="8">
<path d="M8.12408 101.349H343.948L350.135 106.7C347.496 106.7 347.496 108.746 344.861 108.746C342.227 108.746 342.222 106.7 339.588 106.7C336.954 106.7 336.954 108.746 334.32 108.746C331.686 108.746 331.686 106.7 329.047 106.7C326.408 106.7 326.412 108.746 323.778 108.746C321.144 108.746 321.144 106.7 318.51 106.7C315.876 106.7 315.876 108.746 313.241 108.746C310.607 108.746 310.607 106.7 307.973 106.7C305.339 106.7 305.339 108.746 302.705 108.746C300.07 108.746 300.07 106.7 297.436 106.7C294.802 106.7 294.802 108.746 292.168 108.746C289.534 108.746 289.534 106.7 286.9 106.7C284.265 106.7 284.265 108.746 281.631 108.746C278.997 108.746 278.997 106.7 276.363 106.7C273.729 106.7 273.729 108.746 271.094 108.746C268.46 108.746 268.46 106.7 265.826 106.7C263.192 106.7 263.192 108.746 260.558 108.746C257.923 108.746 257.923 106.7 255.289 106.7C252.655 106.7 252.655 108.746 250.021 108.746C247.387 108.746 247.387 106.7 244.752 106.7C242.118 106.7 242.118 108.746 239.484 108.746C236.85 108.746 236.85 106.7 234.216 106.7C231.581 106.7 231.581 108.746 228.947 108.746C226.313 108.746 226.313 106.7 223.679 106.7C221.045 106.7 221.045 108.746 218.41 108.746C215.776 108.746 215.776 106.7 213.142 106.7C210.508 106.7 210.508 108.746 207.874 108.746C205.239 108.746 205.239 106.7 202.605 106.7C199.971 106.7 199.971 108.746 197.337 108.746C194.703 108.746 194.703 106.7 192.068 106.7C189.434 106.7 189.434 108.746 186.8 108.746C184.166 108.746 184.166 106.7 181.532 106.7C178.897 106.7 178.897 108.746 176.263 108.746C173.629 108.746 173.629 106.7 170.995 106.7C168.361 106.7 168.361 108.746 165.726 108.746C163.092 108.746 163.092 106.7 160.458 106.7C157.824 106.7 157.824 108.746 155.19 108.746C152.555 108.746 152.555 106.7 149.921 106.7C147.287 106.7 147.287 108.746 144.653 108.746C142.019 108.746 142.019 106.7 139.384 106.7C136.75 106.7 136.75 108.746 134.116 108.746C131.482 108.746 131.482 106.7 128.848 106.7C126.214 106.7 126.214 108.746 123.579 108.746C120.945 108.746 120.945 106.7 118.311 106.7C115.677 106.7 115.677 108.746 113.043 108.746C110.408 108.746 110.408 106.7 107.774 106.7C105.14 106.7 105.14 108.746 102.506 108.746C99.8716 108.746 99.8716 106.7 97.2374 106.7C94.6032 106.7 94.6032 108.746 91.969 108.746C89.3348 108.746 89.3348 106.7 86.7054 106.7C84.0759 106.7 84.0712 108.746 81.437 108.746C78.8028 108.746 78.8028 106.7 76.1686 106.7C73.5344 106.7 73.5344 108.746 70.9002 108.746C68.266 108.746 68.266 106.7 65.6366 106.7C63.0071 106.7 63.0024 108.746 60.373 108.746C57.7435 108.746 57.7388 106.7 55.1093 106.7C52.4799 106.7 52.4751 108.746 49.8409 108.746C47.2067 108.746 47.2067 106.7 44.5726 106.7C41.9384 106.7 41.9384 108.746 39.3089 108.746C36.6795 108.746 36.6748 106.7 34.0453 106.7C31.4159 106.7 31.4111 108.746 28.7817 108.746C26.1523 108.746 26.1475 106.7 23.5181 106.7C20.8887 106.7 20.8839 108.746 18.2497 108.746C15.6155 108.746 15.6155 106.7 12.9813 106.7C10.3471 106.7 10.3471 108.746 7.71771 108.746C5.0883 108.746 5.08352 106.7 2.4541 106.7L8.13363 101.349H8.12408Z" fill="white"/>
</mask>
<g mask="url(#mask1_840_2)">
<path d="M353.634 89.7731H-6.60034V105.045H353.634V89.7731Z" fill="black"/>
</g>
<path d="M331.698 110.769H20.9966V112.418H331.698V110.769Z" fill="black"/>
<path d="M331.698 116.387H20.9966V118.036H331.698V116.387Z" fill="black"/>
<path d="M49.5332 94.4732H45.7134V85.0775H49.5332V94.4732ZM86.1299 85.0728H82.3101V94.4684H86.1299V85.0728ZM122.727 85.0728H118.907V94.4684H122.727V85.0728ZM159.323 85.0728H155.503V94.4684H159.323V85.0728ZM195.915 85.0728H192.095V94.4684H195.915V85.0728ZM232.512 85.0728H228.692V94.4684H232.512V85.0728ZM269.109 85.0728H265.289V94.4684H269.109V85.0728ZM305.705 85.0728H301.885V94.4684H305.705V85.0728Z" fill="#AE712F"/>
<path d="M16.885 0H335.957V4.86278L330.455 10.6245L324.952 4.86278L319.449 10.6245L313.952 4.86278L308.449 10.6245L302.946 4.86278L297.444 10.6245L291.941 4.86278L286.438 10.6245L280.94 4.86278L275.438 10.6245L269.935 4.86278L264.437 10.6245L258.935 4.86278L253.437 10.6245L247.934 4.86278L242.436 10.6245L236.938 4.86278L231.436 10.6245L225.933 4.86278L220.43 10.6245L214.933 4.86278L209.43 10.6245L203.932 4.86278L198.429 10.6245L192.927 4.86278L187.429 10.6245L181.926 4.86278L176.424 10.6245L170.916 4.86278L165.414 10.6245L159.911 4.86278L154.408 10.6245L148.906 4.86278L143.403 10.6245L137.905 4.86278L132.402 10.6245L126.9 4.86278L121.397 10.6245L115.894 4.86278L110.397 10.6245L104.894 4.86278L99.3913 10.6245L93.8934 4.86278L88.3908 10.6245L82.8929 4.86278L77.395 10.6245L71.8924 4.86278L66.3897 10.6245L60.8919 4.86278L55.3892 10.6245L49.8913 4.86278L44.3887 10.6245L38.8861 4.86278L33.3882 10.6245L27.8855 4.86278L22.3877 10.6245L16.885 4.86278V0Z" fill="#F2E4BF"/>
<path d="M331.698 16.3815H21.145V20.5509H331.698V16.3815Z" fill="#F2E4BF"/>
<path d="M347.685 103.051H0L12.2722 93.3972H335.413L347.685 103.051Z" fill="#F0DC91"/>
<path d="M325.489 31.3191H33.5852V88.9219H325.489V31.3191Z" fill="#A9A1A6"/>
<path d="M320.617 27.4698H33.5852V85.0727H320.617V27.4698Z" fill="#E8E256"/>
<path d="M307.646 79.1627H46.5551V78.1203C46.5551 74.802 43.8539 72.1004 40.5361 72.1004H39.4939V40.4421H40.5361C43.8539 40.4421 46.5551 37.7405 46.5551 34.4221V33.3798H307.646V34.4221C307.646 37.7405 310.348 40.4421 313.665 40.4421H314.708V72.1004H313.665C310.348 72.1004 307.646 74.802 307.646 78.1203V79.1627ZM48.5725 77.078H305.624C306.093 73.4392 308.98 70.5512 312.618 70.0826V42.4646C308.98 41.996 306.093 39.108 305.624 35.4693H48.5725C48.104 39.108 45.2165 41.996 41.5783 42.4646V70.0826C45.2165 70.5512 48.104 73.4392 48.5725 77.078Z" fill="#AF96FF"/>
<path d="M15.492 92.9021L6.18164 102.555L7.18288 103.521L16.4932 93.8681L15.492 92.9021Z" fill="white"/>
<path d="M25.6469 92.9213L16.9338 102.569L17.9662 103.502L26.6793 93.854L25.6469 92.9213Z" fill="white"/>
<path d="M35.8014 92.9447L27.6895 102.597L28.7544 103.492L36.8663 93.84L35.8014 92.9447Z" fill="white"/>
<path d="M45.9539 92.965L38.4417 102.616L39.5394 103.471L47.0516 93.8197L45.9539 92.965Z" fill="white"/>
<path d="M56.1113 92.9689L49.2073 102.621L50.3387 103.431L57.2427 93.7785L56.1113 92.9689Z" fill="white"/>
<path d="M66.2556 93.0543L59.9458 102.702L61.11 103.463L67.4198 93.816L66.2556 93.0543Z" fill="white"/>
<path d="M76.4235 93.013L70.7134 102.662L71.9106 103.371L77.6207 93.7217L76.4235 93.013Z" fill="white"/>
<path d="M86.5728 93.0627L81.4673 102.711L82.6969 103.362L87.8024 93.7136L86.5728 93.0627Z" fill="white"/>
<path d="M96.7311 93.1185L92.2249 102.766L93.4853 103.355L97.9915 93.7074L96.7311 93.1185Z" fill="white"/>
<path d="M106.885 93.1297L102.981 102.779L104.27 103.301L108.174 93.6516L106.885 93.1297Z" fill="white"/>
<path d="M117.041 93.1792L113.738 102.828L115.054 103.279L118.358 93.6299L117.041 93.1792Z" fill="white"/>
<path d="M127.21 93.2455L124.504 102.895L125.843 103.271L128.55 93.6213L127.21 93.2455Z" fill="white"/>
<path d="M137.375 93.2816L135.272 102.934L136.632 103.23L138.734 93.5778L137.375 93.2816Z" fill="white"/>
<path d="M147.539 93.3245L146.036 102.977L147.411 103.191L148.914 93.5385L147.539 93.3245Z" fill="white"/>
<path d="M157.699 93.3421L156.796 102.992L158.181 103.122L159.085 93.4718L157.699 93.3421Z" fill="white"/>
<path d="M167.855 93.3626L167.553 103.012L168.944 103.055L169.245 93.4061L167.855 93.3626Z" fill="white"/>
<path d="M179.412 93.3849L178.021 93.4281L178.321 103.077L179.711 103.034L179.412 93.3849Z" fill="white"/>
<path d="M189.566 93.3583L188.181 93.4875L189.081 103.138L190.466 103.009L189.566 93.3583Z" fill="white"/>
<path d="M199.783 93.2687L198.409 93.4828L199.911 103.13L201.285 102.916L199.783 93.2687Z" fill="white"/>
<path d="M209.942 93.2303L208.583 93.5267L210.687 103.179L212.046 102.882L209.942 93.2303Z" fill="white"/>
<path d="M220.111 93.1792L218.771 93.5548L221.476 103.205L222.815 102.829L220.111 93.1792Z" fill="white"/>
<path d="M230.261 93.1505L228.945 93.6014L232.25 103.25L233.566 102.799L230.261 93.1505Z" fill="white"/>
<path d="M240.416 93.1176L239.127 93.6398L243.032 103.288L244.322 102.766L240.416 93.1176Z" fill="white"/>
<path d="M250.578 93.0659L249.317 93.6548L253.824 103.302L255.084 102.713L250.578 93.0659Z" fill="white"/>
<path d="M260.706 93.1041L259.476 93.755L264.582 103.403L265.811 102.752L260.706 93.1041Z" fill="white"/>
<path d="M270.877 93.0292L269.68 93.7377L275.388 103.388L276.586 102.679L270.877 93.0292Z" fill="white"/>
<path d="M281.029 93.0104L279.865 93.7719L286.173 103.42L287.337 102.659L281.029 93.0104Z" fill="white"/>
<path d="M291.184 92.9679L290.053 93.7781L296.962 103.427L298.093 102.616L291.184 92.9679Z" fill="white"/>
<path d="M301.34 92.9443L300.242 93.7991L307.755 103.45L308.852 102.596L301.34 92.9443Z" fill="white"/>
<path d="M311.493 92.8978L310.428 93.7933L318.541 103.444L319.606 102.548L311.493 92.8978Z" fill="white"/>
<path d="M321.643 92.9574L320.61 93.8899L329.322 103.539L330.354 102.607L321.643 92.9574Z" fill="white"/>
<path d="M331.8 92.8928L330.799 93.8591L340.113 103.509L341.113 102.542L331.8 92.8928Z" fill="white"/>
</svg>
