<svg width="1279" height="34" viewBox="0 0 1279 34" fill="none" xmlns="http://www.w3.org/2000/svg">
<path d="M338.042 9.15527e-05H0V33.7548H338.042V9.15527e-05Z" fill="#F2E4BF"/>
<path d="M27.344 7.18686H6.68359V26.5673H27.344V7.18686Z" fill="#F0BE40"/>
<path d="M21.7156 13.2479C19.5146 15.4492 17.2326 16.7375 17.2326 16.7375C17.2326 16.7375 18.5207 14.4551 20.7216 12.2538C22.9225 10.0525 25.2046 8.76418 25.2046 8.76418C25.2046 8.76418 23.9165 11.0466 21.7156 13.2479ZM8.82435 8.76926C8.82435 8.76926 10.1125 11.0517 12.3134 13.253C14.5143 15.4543 16.7964 16.7426 16.7964 16.7426C16.7964 16.7426 15.5083 14.4601 13.3074 12.2589C11.1064 10.0576 8.82435 8.76926 8.82435 8.76926ZM21.7156 20.501C19.5146 18.2997 17.2326 17.0114 17.2326 17.0114C17.2326 17.0114 18.5207 19.2938 20.7216 21.4951C22.9225 23.6964 25.2046 24.9847 25.2046 24.9847C25.2046 24.9847 23.9165 22.7023 21.7156 20.501ZM13.3074 21.4951C15.5083 19.2938 16.7964 17.0114 16.7964 17.0114C16.7964 17.0114 14.5143 18.2997 12.3134 20.501C10.1125 22.7023 8.82435 24.9847 8.82435 24.9847C8.82435 24.9847 11.1064 23.6964 13.3074 21.4951ZM17.0145 8.4903C17.0145 8.4903 16.3349 9.84454 16.3349 11.5183C16.3349 13.1921 17.0145 14.5464 17.0145 14.5464C17.0145 14.5464 17.694 13.1921 17.694 11.5183C17.694 9.84454 17.0145 8.4903 17.0145 8.4903ZM17.694 22.2306C17.694 23.9044 17.0145 25.2586 17.0145 25.2586C17.0145 25.2586 16.3349 23.9044 16.3349 22.2306C16.3349 20.5568 17.0145 19.2025 17.0145 19.2025C17.0145 19.2025 17.694 20.5568 17.694 22.2306ZM25.3973 16.8744C25.3973 16.8744 24.0433 16.1948 22.3698 16.1948C20.6963 16.1948 19.3422 16.8744 19.3422 16.8744C19.3422 16.8744 20.6963 17.5541 22.3698 17.5541C24.0433 17.5541 25.3973 16.8744 25.3973 16.8744ZM11.6643 17.5592C9.99075 17.5592 8.63672 16.8795 8.63672 16.8795C8.63672 16.8795 9.99075 16.1999 11.6643 16.1999C13.3378 16.1999 14.6918 16.8795 14.6918 16.8795C14.6918 16.8795 13.3378 17.5592 11.6643 17.5592Z" fill="#F8E6A7"/>
<path d="M54.9832 7.18668H34.3228V26.5671H54.9832V7.18668Z" fill="#F0BE40"/>
<path d="M49.3535 13.2478C47.1526 15.4491 44.8705 16.7374 44.8705 16.7374C44.8705 16.7374 46.1586 14.455 48.3595 12.2537C50.5605 10.0524 52.8426 8.76412 52.8426 8.76412C52.8426 8.76412 51.5545 11.0466 49.3535 13.2478ZM36.4623 8.7692C36.4623 8.7692 37.7504 11.0516 39.9513 13.2529C42.1523 15.4542 44.4344 16.7425 44.4344 16.7425C44.4344 16.7425 43.1462 14.4601 40.9453 12.2588C38.7444 10.0575 36.4623 8.7692 36.4623 8.7692ZM49.3535 20.5009C47.1526 18.2997 44.8705 17.0113 44.8705 17.0113C44.8705 17.0113 46.1586 19.2938 48.3595 21.4951C50.5605 23.6963 52.8426 24.9847 52.8426 24.9847C52.8426 24.9847 51.5545 22.7022 49.3535 20.5009ZM40.9453 21.4951C43.1462 19.2938 44.4344 17.0113 44.4344 17.0113C44.4344 17.0113 42.1523 18.2997 39.9513 20.5009C37.7504 22.7022 36.4623 24.9847 36.4623 24.9847C36.4623 24.9847 38.7444 23.6963 40.9453 21.4951ZM44.6524 8.49023C44.6524 8.49023 43.9729 9.84448 43.9729 11.5183C43.9729 13.1921 44.6524 14.5463 44.6524 14.5463C44.6524 14.5463 45.332 13.1921 45.332 11.5183C45.332 9.84448 44.6524 8.49023 44.6524 8.49023ZM45.332 22.2305C45.332 23.9043 44.6524 25.2585 44.6524 25.2585C44.6524 25.2585 43.9729 23.9043 43.9729 22.2305C43.9729 20.5567 44.6524 19.2025 44.6524 19.2025C44.6524 19.2025 45.332 20.5567 45.332 22.2305ZM53.0353 16.8744C53.0353 16.8744 51.6812 16.1947 50.0077 16.1947C48.3342 16.1947 46.9802 16.8744 46.9802 16.8744C46.9802 16.8744 48.3342 17.5541 50.0077 17.5541C51.6812 17.5541 53.0353 16.8744 53.0353 16.8744ZM39.3022 17.5591C37.6287 17.5591 36.2747 16.8795 36.2747 16.8795C36.2747 16.8795 37.6287 16.1998 39.3022 16.1998C40.9757 16.1998 42.3298 16.8795 42.3298 16.8795C42.3298 16.8795 40.9757 17.5591 39.3022 17.5591Z" fill="#F8E6A7"/>
<path d="M82.6211 7.18692H61.9607V26.5674H82.6211V7.18692Z" fill="#F0BE40"/>
<path d="M76.9921 13.2479C74.7912 15.4492 72.5091 16.7375 72.5091 16.7375C72.5091 16.7375 73.7972 14.455 75.9982 12.2538C78.1991 10.0525 80.4812 8.76415 80.4812 8.76415C80.4812 8.76415 79.1931 11.0466 76.9921 13.2479ZM64.1009 8.76923C64.1009 8.76923 65.389 11.0517 67.59 13.253C69.7909 15.4542 72.073 16.7426 72.073 16.7426C72.073 16.7426 70.7849 14.4601 68.5839 12.2588C66.383 10.0575 64.1009 8.76923 64.1009 8.76923ZM76.9921 20.501C74.7912 18.2997 72.5091 17.0114 72.5091 17.0114C72.5091 17.0114 73.7972 19.2938 75.9982 21.4951C78.1991 23.6964 80.4812 24.9847 80.4812 24.9847C80.4812 24.9847 79.1931 22.7023 76.9921 20.501ZM68.5839 21.4951C70.7849 19.2938 72.073 17.0114 72.073 17.0114C72.073 17.0114 69.7909 18.2997 67.59 20.501C65.389 22.7023 64.1009 24.9847 64.1009 24.9847C64.1009 24.9847 66.383 23.6964 68.5839 21.4951ZM72.2911 8.49026C72.2911 8.49026 71.6115 9.84451 71.6115 11.5183C71.6115 13.1921 72.2911 14.5463 72.2911 14.5463C72.2911 14.5463 72.9706 13.1921 72.9706 11.5183C72.9706 9.84451 72.2911 8.49026 72.2911 8.49026ZM72.9706 22.2305C72.9706 23.9043 72.2911 25.2586 72.2911 25.2586C72.2911 25.2586 71.6115 23.9043 71.6115 22.2305C71.6115 20.5567 72.2911 19.2025 72.2911 19.2025C72.2911 19.2025 72.9706 20.5567 72.9706 22.2305ZM80.6739 16.8744C80.6739 16.8744 79.3199 16.1948 77.6463 16.1948C75.9728 16.1948 74.6188 16.8744 74.6188 16.8744C74.6188 16.8744 75.9728 17.5541 77.6463 17.5541C79.3199 17.5541 80.6739 16.8744 80.6739 16.8744ZM66.9358 17.5591C65.2622 17.5591 63.9082 16.8795 63.9082 16.8795C63.9082 16.8795 65.2622 16.1998 66.9358 16.1998C68.6093 16.1998 69.9633 16.8795 69.9633 16.8795C69.9633 16.8795 68.6093 17.5591 66.9358 17.5591Z" fill="#F8E6A7"/>
<path d="M110.26 7.18665H89.5996V26.5671H110.26V7.18665Z" fill="#F0BE40"/>
<path d="M104.63 13.2478C102.429 15.4491 100.147 16.7374 100.147 16.7374C100.147 16.7374 101.435 14.455 103.636 12.2537C105.837 10.0524 108.119 8.76412 108.119 8.76412C108.119 8.76412 106.831 11.0466 104.63 13.2478ZM91.7386 8.7692C91.7386 8.7692 93.0267 11.0516 95.2277 13.2529C97.4286 15.4542 99.7107 16.7425 99.7107 16.7425C99.7107 16.7425 98.4226 14.4601 96.2216 12.2588C94.0207 10.0575 91.7386 8.7692 91.7386 8.7692ZM104.63 20.5009C102.429 18.2997 100.147 17.0113 100.147 17.0113C100.147 17.0113 101.435 19.2938 103.636 21.4951C105.837 23.6963 108.119 24.9847 108.119 24.9847C108.119 24.9847 106.831 22.7022 104.63 20.5009ZM96.2166 21.4951C98.4175 19.2938 99.7056 17.0113 99.7056 17.0113C99.7056 17.0113 97.4235 18.2997 95.2226 20.5009C93.0216 22.7022 91.7335 24.9847 91.7335 24.9847C91.7335 24.9847 94.0156 23.6963 96.2166 21.4951ZM99.9288 8.49023C99.9288 8.49023 99.2492 9.84448 99.2492 11.5183C99.2492 13.1921 99.9288 14.5463 99.9288 14.5463C99.9288 14.5463 100.608 13.1921 100.608 11.5183C100.608 9.84448 99.9288 8.49023 99.9288 8.49023ZM100.608 22.2305C100.608 23.9043 99.9288 25.2585 99.9288 25.2585C99.9288 25.2585 99.2492 23.9043 99.2492 22.2305C99.2492 20.5567 99.9288 19.2025 99.9288 19.2025C99.9288 19.2025 100.608 20.5567 100.608 22.2305ZM108.312 16.8744C108.312 16.8744 106.958 16.1947 105.284 16.1947C103.611 16.1947 102.256 16.8744 102.256 16.8744C102.256 16.8744 103.611 17.5541 105.284 17.5541C106.958 17.5541 108.312 16.8744 108.312 16.8744ZM94.5735 17.5591C92.8999 17.5591 91.5459 16.8795 91.5459 16.8795C91.5459 16.8795 92.8999 16.1998 94.5735 16.1998C96.247 16.1998 97.601 16.8795 97.601 16.8795C97.601 16.8795 96.247 17.5591 94.5735 17.5591Z" fill="#F8E6A7"/>
<path d="M137.899 7.18686H117.238V26.5673H137.899V7.18686Z" fill="#F0BE40"/>
<path d="M132.27 13.2479C130.069 15.4492 127.787 16.7375 127.787 16.7375C127.787 16.7375 129.075 14.4551 131.276 12.2538C133.477 10.0525 135.759 8.76418 135.759 8.76418C135.759 8.76418 134.471 11.0466 132.27 13.2479ZM119.379 8.76926C119.379 8.76926 120.667 11.0517 122.868 13.253C125.069 15.4543 127.351 16.7426 127.351 16.7426C127.351 16.7426 126.063 14.4601 123.862 12.2589C121.661 10.0576 119.379 8.76926 119.379 8.76926ZM132.27 20.501C130.069 18.2997 127.787 17.0114 127.787 17.0114C127.787 17.0114 129.075 19.2938 131.276 21.4951C133.477 23.6964 135.759 24.9847 135.759 24.9847C135.759 24.9847 134.471 22.7023 132.27 20.501ZM123.857 21.4951C126.058 19.2938 127.346 17.0114 127.346 17.0114C127.346 17.0114 125.064 18.2997 122.863 20.501C120.662 22.7023 119.374 24.9847 119.374 24.9847C119.374 24.9847 121.656 23.6964 123.857 21.4951ZM127.569 8.4903C127.569 8.4903 126.89 9.84454 126.89 11.5183C126.89 13.1921 127.569 14.5464 127.569 14.5464C127.569 14.5464 128.249 13.1921 128.249 11.5183C128.249 9.84454 127.569 8.4903 127.569 8.4903ZM128.249 22.2306C128.249 23.9044 127.569 25.2586 127.569 25.2586C127.569 25.2586 126.89 23.9044 126.89 22.2306C126.89 20.5568 127.569 19.2025 127.569 19.2025C127.569 19.2025 128.249 20.5568 128.249 22.2306ZM135.952 16.8744C135.952 16.8744 134.598 16.1948 132.924 16.1948C131.251 16.1948 129.897 16.8744 129.897 16.8744C129.897 16.8744 131.251 17.5541 132.924 17.5541C134.598 17.5541 135.952 16.8744 135.952 16.8744ZM122.214 17.5592C120.54 17.5592 119.186 16.8795 119.186 16.8795C119.186 16.8795 120.54 16.1999 122.214 16.1999C123.887 16.1999 125.241 16.8795 125.241 16.8795C125.241 16.8795 123.887 17.5592 122.214 17.5592Z" fill="#F8E6A7"/>
<path d="M165.536 7.18668H144.876V26.5671H165.536V7.18668Z" fill="#F0BE40"/>
<path d="M159.907 13.2478C157.706 15.4491 155.424 16.7374 155.424 16.7374C155.424 16.7374 156.712 14.455 158.913 12.2537C161.114 10.0524 163.396 8.76412 163.396 8.76412C163.396 8.76412 162.108 11.0466 159.907 13.2478ZM147.016 8.7692C147.016 8.7692 148.304 11.0516 150.505 13.2529C152.706 15.4542 154.988 16.7425 154.988 16.7425C154.988 16.7425 153.7 14.4601 151.499 12.2588C149.298 10.0575 147.016 8.7692 147.016 8.7692ZM159.907 20.5009C157.706 18.2997 155.424 17.0113 155.424 17.0113C155.424 17.0113 156.712 19.2938 158.913 21.4951C161.114 23.6963 163.396 24.9847 163.396 24.9847C163.396 24.9847 162.108 22.7022 159.907 20.5009ZM151.494 21.4951C153.695 19.2938 154.983 17.0113 154.983 17.0113C154.983 17.0113 152.701 18.2997 150.5 20.5009C148.299 22.7022 147.011 24.9847 147.011 24.9847C147.011 24.9847 149.293 23.6963 151.494 21.4951ZM155.206 8.49023C155.206 8.49023 154.527 9.84448 154.527 11.5183C154.527 13.1921 155.206 14.5463 155.206 14.5463C155.206 14.5463 155.886 13.1921 155.886 11.5183C155.886 9.84448 155.206 8.49023 155.206 8.49023ZM155.886 22.2305C155.886 23.9043 155.206 25.2585 155.206 25.2585C155.206 25.2585 154.527 23.9043 154.527 22.2305C154.527 20.5567 155.206 19.2025 155.206 19.2025C155.206 19.2025 155.886 20.5567 155.886 22.2305ZM163.584 16.8744C163.584 16.8744 162.23 16.1947 160.556 16.1947C158.883 16.1947 157.529 16.8744 157.529 16.8744C157.529 16.8744 158.883 17.5541 160.556 17.5541C162.23 17.5541 163.584 16.8744 163.584 16.8744ZM149.851 17.5591C148.177 17.5591 146.823 16.8795 146.823 16.8795C146.823 16.8795 148.177 16.1998 149.851 16.1998C151.524 16.1998 152.878 16.8795 152.878 16.8795C152.878 16.8795 151.524 17.5591 149.851 17.5591Z" fill="#F8E6A7"/>
<path d="M193.174 7.18686H172.514V26.5673H193.174V7.18686Z" fill="#F0BE40"/>
<path d="M187.542 13.2479C185.341 15.4492 183.058 16.7375 183.058 16.7375C183.058 16.7375 184.347 14.4551 186.548 12.2538C188.748 10.0525 191.031 8.76418 191.031 8.76418C191.031 8.76418 189.742 11.0466 187.542 13.2479ZM174.65 8.76926C174.65 8.76926 175.938 11.0517 178.139 13.253C180.34 15.4543 182.622 16.7426 182.622 16.7426C182.622 16.7426 181.334 14.4601 179.133 12.2589C176.932 10.0576 174.65 8.76926 174.65 8.76926ZM187.542 20.501C185.341 18.2997 183.058 17.0114 183.058 17.0114C183.058 17.0114 184.347 19.2938 186.548 21.4951C188.748 23.6964 191.031 24.9847 191.031 24.9847C191.031 24.9847 189.742 22.7023 187.542 20.501ZM179.133 21.4951C181.334 19.2938 182.622 17.0114 182.622 17.0114C182.622 17.0114 180.34 18.2997 178.139 20.501C175.938 22.7023 174.65 24.9847 174.65 24.9847C174.65 24.9847 176.932 23.6964 179.133 21.4951ZM182.845 8.4903C182.845 8.4903 182.166 9.84454 182.166 11.5183C182.166 13.1921 182.845 14.5464 182.845 14.5464C182.845 14.5464 183.525 13.1921 183.525 11.5183C183.525 9.84454 182.845 8.4903 182.845 8.4903ZM183.525 22.2306C183.525 23.9044 182.845 25.2586 182.845 25.2586C182.845 25.2586 182.166 23.9044 182.166 22.2306C182.166 20.5568 182.845 19.2025 182.845 19.2025C182.845 19.2025 183.525 20.5568 183.525 22.2306ZM191.223 16.8744C191.223 16.8744 189.869 16.1948 188.196 16.1948C186.522 16.1948 185.168 16.8744 185.168 16.8744C185.168 16.8744 186.522 17.5541 188.196 17.5541C189.869 17.5541 191.223 16.8744 191.223 16.8744ZM177.49 17.5592C175.817 17.5592 174.463 16.8795 174.463 16.8795C174.463 16.8795 175.817 16.1999 177.49 16.1999C179.164 16.1999 180.518 16.8795 180.518 16.8795C180.518 16.8795 179.164 17.5592 177.49 17.5592Z" fill="#F8E6A7"/>
<path d="M220.814 7.18652H200.153V26.567H220.814V7.18652Z" fill="#F0BE40"/>
<path d="M215.179 13.2478C212.978 15.4491 210.696 16.7374 210.696 16.7374C210.696 16.7374 211.984 14.455 214.185 12.2537C216.386 10.0524 218.668 8.76409 218.668 8.76409C218.668 8.76409 217.38 11.0465 215.179 13.2478ZM202.287 8.76917C202.287 8.76917 203.576 11.0516 205.777 13.2529C207.977 15.4542 210.26 16.7425 210.26 16.7425C210.26 16.7425 208.971 14.46 206.771 12.2588C204.57 10.0575 202.287 8.76917 202.287 8.76917ZM215.179 20.5009C212.978 18.2996 210.696 17.0113 210.696 17.0113C210.696 17.0113 211.984 19.2937 214.185 21.495C216.386 23.6963 218.668 24.9846 218.668 24.9846C218.668 24.9846 217.38 22.7022 215.179 20.5009ZM206.771 21.495C208.971 19.2937 210.26 17.0113 210.26 17.0113C210.26 17.0113 207.977 18.2996 205.777 20.5009C203.576 22.7022 202.287 24.9846 202.287 24.9846C202.287 24.9846 204.57 23.6963 206.771 21.495ZM210.478 8.4902C210.478 8.4902 209.798 9.84445 209.798 11.5182C209.798 13.192 210.478 14.5463 210.478 14.5463C210.478 14.5463 211.157 13.192 211.157 11.5182C211.157 9.84445 210.478 8.4902 210.478 8.4902ZM211.162 22.2305C211.162 23.9043 210.483 25.2585 210.483 25.2585C210.483 25.2585 209.803 23.9043 209.803 22.2305C209.803 20.5567 210.483 19.2025 210.483 19.2025C210.483 19.2025 211.162 20.5567 211.162 22.2305ZM218.86 16.8744C218.86 16.8744 217.506 16.1947 215.833 16.1947C214.159 16.1947 212.805 16.8744 212.805 16.8744C212.805 16.8744 214.159 17.554 215.833 17.554C217.506 17.554 218.86 16.8744 218.86 16.8744ZM205.127 17.5591C203.454 17.5591 202.1 16.8794 202.1 16.8794C202.1 16.8794 203.454 16.1998 205.127 16.1998C206.801 16.1998 208.155 16.8794 208.155 16.8794C208.155 16.8794 206.801 17.5591 205.127 17.5591Z" fill="#F8E6A7"/>
<path d="M248.452 7.18686H227.792V26.5673H248.452V7.18686Z" fill="#F0BE40"/>
<path d="M242.818 13.2479C240.617 15.4492 238.335 16.7375 238.335 16.7375C238.335 16.7375 239.623 14.4551 241.824 12.2538C244.025 10.0525 246.307 8.76422 246.307 8.76422C246.307 8.76422 245.019 11.0467 242.818 13.2479ZM229.927 8.76929C229.927 8.76929 231.215 11.0517 233.416 13.253C235.617 15.4543 237.899 16.7426 237.899 16.7426C237.899 16.7426 236.611 14.4602 234.41 12.2589C232.209 10.0576 229.927 8.76929 229.927 8.76929ZM242.818 20.501C240.617 18.2997 238.335 17.0114 238.335 17.0114C238.335 17.0114 239.623 19.2939 241.824 21.4952C244.025 23.6964 246.307 24.9848 246.307 24.9848C246.307 24.9848 245.019 22.7023 242.818 20.501ZM234.41 21.4952C236.611 19.2939 237.899 17.0114 237.899 17.0114C237.899 17.0114 235.617 18.2997 233.416 20.501C231.215 22.7023 229.927 24.9848 229.927 24.9848C229.927 24.9848 232.209 23.6964 234.41 21.4952ZM238.117 8.49033C238.117 8.49033 237.437 9.84457 237.437 11.5184C237.437 13.1922 238.117 14.5464 238.117 14.5464C238.117 14.5464 238.797 13.1922 238.797 11.5184C238.797 9.84457 238.117 8.49033 238.117 8.49033ZM238.802 22.2306C238.802 23.9044 238.122 25.2586 238.122 25.2586C238.122 25.2586 237.443 23.9044 237.443 22.2306C237.443 20.5568 238.122 19.2026 238.122 19.2026C238.122 19.2026 238.802 20.5568 238.802 22.2306ZM246.5 16.8745C246.5 16.8745 245.146 16.1948 243.472 16.1948C241.799 16.1948 240.445 16.8745 240.445 16.8745C240.445 16.8745 241.799 17.5541 243.472 17.5541C245.146 17.5541 246.5 16.8745 246.5 16.8745ZM232.767 17.5592C231.093 17.5592 229.739 16.8796 229.739 16.8796C229.739 16.8796 231.093 16.1999 232.767 16.1999C234.44 16.1999 235.794 16.8796 235.794 16.8796C235.794 16.8796 234.44 17.5592 232.767 17.5592Z" fill="#F8E6A7"/>
<path d="M276.091 7.1868H255.43V26.5672H276.091V7.1868Z" fill="#F0BE40"/>
<path d="M270.457 13.2478C268.256 15.4491 265.974 16.7374 265.974 16.7374C265.974 16.7374 267.262 14.455 269.463 12.2537C271.664 10.0524 273.946 8.76409 273.946 8.76409C273.946 8.76409 272.658 11.0465 270.457 13.2478ZM257.566 8.76917C257.566 8.76917 258.854 11.0516 261.055 13.2529C263.256 15.4542 265.538 16.7425 265.538 16.7425C265.538 16.7425 264.25 14.46 262.049 12.2588C259.848 10.0575 257.566 8.76917 257.566 8.76917ZM270.457 20.5009C268.256 18.2996 265.974 17.0113 265.974 17.0113C265.974 17.0113 267.262 19.2937 269.463 21.495C271.664 23.6963 273.946 24.9846 273.946 24.9846C273.946 24.9846 272.658 22.7022 270.457 20.5009ZM262.049 21.495C264.25 19.2937 265.538 17.0113 265.538 17.0113C265.538 17.0113 263.256 18.2996 261.055 20.5009C258.854 22.7022 257.566 24.9846 257.566 24.9846C257.566 24.9846 259.848 23.6963 262.049 21.495ZM265.756 8.4902C265.756 8.4902 265.076 9.84445 265.076 11.5182C265.076 13.192 265.756 14.5463 265.756 14.5463C265.756 14.5463 266.435 13.192 266.435 11.5182C266.435 9.84445 265.756 8.4902 265.756 8.4902ZM266.44 22.2305C266.44 23.9043 265.761 25.2585 265.761 25.2585C265.761 25.2585 265.081 23.9043 265.081 22.2305C265.081 20.5567 265.761 19.2025 265.761 19.2025C265.761 19.2025 266.44 20.5567 266.44 22.2305ZM274.139 16.8744C274.139 16.8744 272.785 16.1947 271.111 16.1947C269.437 16.1947 268.083 16.8744 268.083 16.8744C268.083 16.8744 269.437 17.554 271.111 17.554C272.785 17.554 274.139 16.8744 274.139 16.8744ZM260.406 17.5591C258.732 17.5591 257.378 16.8794 257.378 16.8794C257.378 16.8794 258.732 16.1998 260.406 16.1998C262.079 16.1998 263.433 16.8794 263.433 16.8794C263.433 16.8794 262.079 17.5591 260.406 17.5591Z" fill="#F8E6A7"/>
<path d="M303.724 7.18686H283.063V26.5673H303.724V7.18686Z" fill="#F0BE40"/>
<path d="M298.095 13.2479C295.895 15.4492 293.612 16.7375 293.612 16.7375C293.612 16.7375 294.901 14.4551 297.101 12.2538C299.302 10.0525 301.585 8.76422 301.585 8.76422C301.585 8.76422 300.296 11.0467 298.095 13.2479ZM285.204 8.76929C285.204 8.76929 286.492 11.0517 288.693 13.253C290.894 15.4543 293.176 16.7426 293.176 16.7426C293.176 16.7426 291.888 14.4602 289.687 12.2589C287.486 10.0576 285.204 8.76929 285.204 8.76929ZM298.095 20.501C295.895 18.2997 293.612 17.0114 293.612 17.0114C293.612 17.0114 294.901 19.2939 297.101 21.4952C299.302 23.6964 301.585 24.9848 301.585 24.9848C301.585 24.9848 300.296 22.7023 298.095 20.501ZM289.687 21.4952C291.888 19.2939 293.176 17.0114 293.176 17.0114C293.176 17.0114 290.894 18.2997 288.693 20.501C286.492 22.7023 285.204 24.9848 285.204 24.9848C285.204 24.9848 287.486 23.6964 289.687 21.4952ZM293.394 8.49033C293.394 8.49033 292.715 9.84457 292.715 11.5184C292.715 13.1922 293.394 14.5464 293.394 14.5464C293.394 14.5464 294.074 13.1922 294.074 11.5184C294.074 9.84457 293.394 8.49033 293.394 8.49033ZM294.074 22.2306C294.074 23.9044 293.394 25.2586 293.394 25.2586C293.394 25.2586 292.715 23.9044 292.715 22.2306C292.715 20.5568 293.394 19.2026 293.394 19.2026C293.394 19.2026 294.074 20.5568 294.074 22.2306ZM301.777 16.8745C301.777 16.8745 300.423 16.1948 298.75 16.1948C297.076 16.1948 295.722 16.8745 295.722 16.8745C295.722 16.8745 297.076 17.5541 298.75 17.5541C300.423 17.5541 301.777 16.8745 301.777 16.8745ZM288.044 17.5592C286.371 17.5592 285.017 16.8796 285.017 16.8796C285.017 16.8796 286.371 16.1999 288.044 16.1999C289.718 16.1999 291.072 16.8796 291.072 16.8796C291.072 16.8796 289.718 17.5592 288.044 17.5592Z" fill="#F8E6A7"/>
<path d="M331.363 7.18686H310.702V26.5673H331.363V7.18686Z" fill="#F0BE40"/>
<path d="M325.733 13.2479C323.532 15.4492 321.25 16.7375 321.25 16.7375C321.25 16.7375 322.538 14.4551 324.739 12.2538C326.94 10.0525 329.222 8.76418 329.222 8.76418C329.222 8.76418 327.934 11.0466 325.733 13.2479ZM312.842 8.76926C312.842 8.76926 314.13 11.0517 316.331 13.253C318.532 15.4543 320.814 16.7426 320.814 16.7426C320.814 16.7426 319.526 14.4601 317.325 12.2589C315.124 10.0576 312.842 8.76926 312.842 8.76926ZM325.733 20.501C323.532 18.2997 321.25 17.0114 321.25 17.0114C321.25 17.0114 322.538 19.2938 324.739 21.4951C326.94 23.6964 329.222 24.9847 329.222 24.9847C329.222 24.9847 327.934 22.7023 325.733 20.501ZM317.325 21.4951C319.526 19.2938 320.814 17.0114 320.814 17.0114C320.814 17.0114 318.532 18.2997 316.331 20.501C314.13 22.7023 312.842 24.9847 312.842 24.9847C312.842 24.9847 315.124 23.6964 317.325 21.4951ZM321.032 8.4903C321.032 8.4903 320.353 9.84454 320.353 11.5183C320.353 13.1921 321.032 14.5464 321.032 14.5464C321.032 14.5464 321.712 13.1921 321.712 11.5183C321.712 9.84454 321.032 8.4903 321.032 8.4903ZM321.712 22.2306C321.712 23.9044 321.032 25.2586 321.032 25.2586C321.032 25.2586 320.353 23.9044 320.353 22.2306C320.353 20.5568 321.032 19.2025 321.032 19.2025C321.032 19.2025 321.712 20.5568 321.712 22.2306ZM329.415 16.8744C329.415 16.8744 328.061 16.1948 326.387 16.1948C324.714 16.1948 323.36 16.8744 323.36 16.8744C323.36 16.8744 324.714 17.5541 326.387 17.5541C328.061 17.5541 329.415 16.8744 329.415 16.8744ZM315.682 17.5592C314.008 17.5592 312.654 16.8795 312.654 16.8795C312.654 16.8795 314.008 16.1999 315.682 16.1999C317.355 16.1999 318.709 16.8795 318.709 16.8795C318.709 16.8795 317.355 17.5592 315.682 17.5592Z" fill="#F8E6A7"/>
<path d="M670.689 0H332.647V33.7547H670.689V0Z" fill="#F2E4BF"/>
<path d="M359.99 7.18701H339.329V26.5675H359.99V7.18701Z" fill="#F0BE40"/>
<path d="M354.361 13.2479C352.16 15.4492 349.878 16.7375 349.878 16.7375C349.878 16.7375 351.166 14.4551 353.367 12.2538C355.568 10.0525 357.85 8.76422 357.85 8.76422C357.85 8.76422 356.562 11.0467 354.361 13.2479ZM341.47 8.76929C341.47 8.76929 342.758 11.0517 344.959 13.253C347.16 15.4543 349.442 16.7426 349.442 16.7426C349.442 16.7426 348.154 14.4602 345.953 12.2589C343.752 10.0576 341.47 8.76929 341.47 8.76929ZM354.361 20.501C352.16 18.2997 349.878 17.0114 349.878 17.0114C349.878 17.0114 351.166 19.2939 353.367 21.4952C355.568 23.6964 357.85 24.9848 357.85 24.9848C357.85 24.9848 356.562 22.7023 354.361 20.501ZM345.953 21.4952C348.154 19.2939 349.442 17.0114 349.442 17.0114C349.442 17.0114 347.16 18.2997 344.959 20.501C342.758 22.7023 341.47 24.9848 341.47 24.9848C341.47 24.9848 343.752 23.6964 345.953 21.4952ZM349.66 8.49033C349.66 8.49033 348.98 9.84457 348.98 11.5184C348.98 13.1922 349.66 14.5464 349.66 14.5464C349.66 14.5464 350.339 13.1922 350.339 11.5184C350.339 9.84457 349.66 8.49033 349.66 8.49033ZM350.339 22.2306C350.339 23.9044 349.66 25.2586 349.66 25.2586C349.66 25.2586 348.98 23.9044 348.98 22.2306C348.98 20.5568 349.66 19.2026 349.66 19.2026C349.66 19.2026 350.339 20.5568 350.339 22.2306ZM358.043 16.8745C358.043 16.8745 356.689 16.1948 355.015 16.1948C353.342 16.1948 351.987 16.8745 351.987 16.8745C351.987 16.8745 353.342 17.5541 355.015 17.5541C356.689 17.5541 358.043 16.8745 358.043 16.8745ZM344.31 17.5592C342.636 17.5592 341.282 16.8796 341.282 16.8796C341.282 16.8796 342.636 16.1999 344.31 16.1999C345.983 16.1999 347.337 16.8796 347.337 16.8796C347.337 16.8796 345.983 17.5592 344.31 17.5592Z" fill="#F8E6A7"/>
<path d="M387.628 7.18677H366.968V26.5672H387.628V7.18677Z" fill="#F0BE40"/>
<path d="M382 13.2478C379.8 15.4491 377.517 16.7374 377.517 16.7374C377.517 16.7374 378.806 14.455 381.007 12.2537C383.207 10.0524 385.49 8.76412 385.49 8.76412C385.49 8.76412 384.201 11.0466 382 13.2478ZM369.109 8.7692C369.109 8.7692 370.397 11.0516 372.598 13.2529C374.799 15.4542 377.081 16.7425 377.081 16.7425C377.081 16.7425 375.793 14.4601 373.592 12.2588C371.391 10.0575 369.109 8.7692 369.109 8.7692ZM382 20.5009C379.8 18.2997 377.517 17.0113 377.517 17.0113C377.517 17.0113 378.806 19.2938 381.007 21.4951C383.207 23.6963 385.49 24.9847 385.49 24.9847C385.49 24.9847 384.201 22.7022 382 20.5009ZM373.592 21.4951C375.793 19.2938 377.081 17.0113 377.081 17.0113C377.081 17.0113 374.799 18.2997 372.598 20.5009C370.397 22.7022 369.109 24.9847 369.109 24.9847C369.109 24.9847 371.391 23.6963 373.592 21.4951ZM377.299 8.49023C377.299 8.49023 376.62 9.84448 376.62 11.5183C376.62 13.1921 377.299 14.5463 377.299 14.5463C377.299 14.5463 377.979 13.1921 377.979 11.5183C377.979 9.84448 377.299 8.49023 377.299 8.49023ZM377.979 22.2305C377.979 23.9043 377.299 25.2585 377.299 25.2585C377.299 25.2585 376.62 23.9043 376.62 22.2305C376.62 20.5567 377.299 19.2025 377.299 19.2025C377.299 19.2025 377.979 20.5567 377.979 22.2305ZM385.682 16.8744C385.682 16.8744 384.328 16.1947 382.655 16.1947C380.981 16.1947 379.627 16.8744 379.627 16.8744C379.627 16.8744 380.981 17.5541 382.655 17.5541C384.328 17.5541 385.682 16.8744 385.682 16.8744ZM371.949 17.5591C370.276 17.5591 368.922 16.8795 368.922 16.8795C368.922 16.8795 370.276 16.1998 371.949 16.1998C373.623 16.1998 374.977 16.8795 374.977 16.8795C374.977 16.8795 373.623 17.5591 371.949 17.5591Z" fill="#F8E6A7"/>
<path d="M415.266 7.18661H394.606V26.5671H415.266V7.18661Z" fill="#F0BE40"/>
<path d="M409.638 13.2477C407.437 15.449 405.155 16.7373 405.155 16.7373C405.155 16.7373 406.443 14.4549 408.644 12.2536C410.845 10.0523 413.127 8.764 413.127 8.764C413.127 8.764 411.839 11.0464 409.638 13.2477ZM396.747 8.76908C396.747 8.76908 398.035 11.0515 400.236 13.2528C402.437 15.4541 404.719 16.7424 404.719 16.7424C404.719 16.7424 403.431 14.46 401.23 12.2587C399.029 10.0574 396.747 8.76908 396.747 8.76908ZM409.638 20.5008C407.437 18.2995 405.155 17.0112 405.155 17.0112C405.155 17.0112 406.443 19.2937 408.644 21.4949C410.845 23.6962 413.127 24.9845 413.127 24.9845C413.127 24.9845 411.839 22.7021 409.638 20.5008ZM401.23 21.4949C403.431 19.2937 404.719 17.0112 404.719 17.0112C404.719 17.0112 402.437 18.2995 400.236 20.5008C398.035 22.7021 396.747 24.9845 396.747 24.9845C396.747 24.9845 399.029 23.6962 401.23 21.4949ZM404.937 8.49011C404.937 8.49011 404.257 9.84436 404.257 11.5181C404.257 13.1919 404.937 14.5462 404.937 14.5462C404.937 14.5462 405.617 13.1919 405.617 11.5181C405.617 9.84436 404.937 8.49011 404.937 8.49011ZM405.617 22.2304C405.617 23.9042 404.937 25.2584 404.937 25.2584C404.937 25.2584 404.257 23.9042 404.257 22.2304C404.257 20.5566 404.937 19.2024 404.937 19.2024C404.937 19.2024 405.617 20.5566 405.617 22.2304ZM413.32 16.8743C413.32 16.8743 411.966 16.1946 410.292 16.1946C408.619 16.1946 407.265 16.8743 407.265 16.8743C407.265 16.8743 408.619 17.5539 410.292 17.5539C411.966 17.5539 413.32 16.8743 413.32 16.8743ZM399.582 17.559C397.908 17.559 396.554 16.8793 396.554 16.8793C396.554 16.8793 397.908 16.1997 399.582 16.1997C401.255 16.1997 402.609 16.8793 402.609 16.8793C402.609 16.8793 401.255 17.559 399.582 17.559Z" fill="#F8E6A7"/>
<path d="M442.906 7.18643H422.245V26.5669H442.906V7.18643Z" fill="#F0BE40"/>
<path d="M437.277 13.2478C435.076 15.449 432.794 16.7374 432.794 16.7374C432.794 16.7374 434.082 14.4549 436.283 12.2536C438.484 10.0523 440.766 8.76403 440.766 8.76403C440.766 8.76403 439.478 11.0465 437.277 13.2478ZM424.386 8.76911C424.386 8.76911 425.674 11.0515 427.875 13.2528C430.076 15.4541 432.358 16.7424 432.358 16.7424C432.358 16.7424 431.07 14.46 428.869 12.2587C426.668 10.0574 424.386 8.76911 424.386 8.76911ZM437.277 20.5008C435.076 18.2996 432.794 17.0112 432.794 17.0112C432.794 17.0112 434.082 19.2937 436.283 21.495C438.484 23.6963 440.766 24.9846 440.766 24.9846C440.766 24.9846 439.478 22.7021 437.277 20.5008ZM428.864 21.495C431.065 19.2937 432.353 17.0112 432.353 17.0112C432.353 17.0112 430.071 18.2996 427.87 20.5008C425.669 22.7021 424.381 24.9846 424.381 24.9846C424.381 24.9846 426.663 23.6963 428.864 21.495ZM432.576 8.49014C432.576 8.49014 431.897 9.84439 431.897 11.5182C431.897 13.192 432.576 14.5462 432.576 14.5462C432.576 14.5462 433.256 13.192 433.256 11.5182C433.256 9.84439 432.576 8.49014 432.576 8.49014ZM433.256 22.2304C433.256 23.9042 432.576 25.2584 432.576 25.2584C432.576 25.2584 431.897 23.9042 431.897 22.2304C431.897 20.5566 432.576 19.2024 432.576 19.2024C432.576 19.2024 433.256 20.5566 433.256 22.2304ZM440.959 16.8743C440.959 16.8743 439.605 16.1946 437.931 16.1946C436.258 16.1946 434.904 16.8743 434.904 16.8743C434.904 16.8743 436.258 17.554 437.931 17.554C439.605 17.554 440.959 16.8743 440.959 16.8743ZM427.221 17.559C425.547 17.559 424.193 16.8794 424.193 16.8794C424.193 16.8794 425.547 16.1997 427.221 16.1997C428.894 16.1997 430.248 16.8794 430.248 16.8794C430.248 16.8794 428.894 17.559 427.221 17.559Z" fill="#F8E6A7"/>
<path d="M470.545 7.18677H449.885V26.5672H470.545V7.18677Z" fill="#F0BE40"/>
<path d="M464.916 13.2478C462.715 15.4491 460.433 16.7374 460.433 16.7374C460.433 16.7374 461.721 14.455 463.922 12.2537C466.123 10.0524 468.405 8.76409 468.405 8.76409C468.405 8.76409 467.117 11.0465 464.916 13.2478ZM452.024 8.76917C452.024 8.76917 453.313 11.0516 455.514 13.2529C457.714 15.4542 459.997 16.7425 459.997 16.7425C459.997 16.7425 458.708 14.46 456.508 12.2588C454.307 10.0575 452.024 8.76917 452.024 8.76917ZM464.916 20.5009C462.715 18.2996 460.433 17.0113 460.433 17.0113C460.433 17.0113 461.721 19.2937 463.922 21.495C466.123 23.6963 468.405 24.9846 468.405 24.9846C468.405 24.9846 467.117 22.7022 464.916 20.5009ZM456.502 21.495C458.703 19.2937 459.992 17.0113 459.992 17.0113C459.992 17.0113 457.709 18.2996 455.508 20.5009C453.308 22.7022 452.019 24.9846 452.019 24.9846C452.019 24.9846 454.302 23.6963 456.502 21.495ZM460.215 8.4902C460.215 8.4902 459.535 9.84445 459.535 11.5182C459.535 13.192 460.215 14.5463 460.215 14.5463C460.215 14.5463 460.894 13.192 460.894 11.5182C460.894 9.84445 460.215 8.4902 460.215 8.4902ZM460.894 22.2305C460.894 23.9043 460.215 25.2585 460.215 25.2585C460.215 25.2585 459.535 23.9043 459.535 22.2305C459.535 20.5567 460.215 19.2025 460.215 19.2025C460.215 19.2025 460.894 20.5567 460.894 22.2305ZM468.597 16.8744C468.597 16.8744 467.243 16.1947 465.57 16.1947C463.896 16.1947 462.542 16.8744 462.542 16.8744C462.542 16.8744 463.896 17.554 465.57 17.554C467.243 17.554 468.597 16.8744 468.597 16.8744ZM454.859 17.5591C453.186 17.5591 451.832 16.8794 451.832 16.8794C451.832 16.8794 453.186 16.1998 454.859 16.1998C456.533 16.1998 457.887 16.8794 457.887 16.8794C457.887 16.8794 456.533 17.5591 454.859 17.5591Z" fill="#F8E6A7"/>
<path d="M498.183 7.1868H477.522V26.5672H498.183V7.1868Z" fill="#F0BE40"/>
<path d="M492.553 13.2478C490.352 15.4491 488.07 16.7374 488.07 16.7374C488.07 16.7374 489.358 14.4549 491.559 12.2537C493.76 10.0524 496.042 8.76406 496.042 8.76406C496.042 8.76406 494.754 11.0465 492.553 13.2478ZM479.661 8.76914C479.661 8.76914 480.95 11.0516 483.151 13.2529C485.351 15.4541 487.634 16.7425 487.634 16.7425C487.634 16.7425 486.345 14.46 484.144 12.2587C481.944 10.0574 479.661 8.76914 479.661 8.76914ZM492.553 20.5009C490.352 18.2996 488.07 17.0113 488.07 17.0113C488.07 17.0113 489.358 19.2937 491.559 21.495C493.76 23.6963 496.042 24.9846 496.042 24.9846C496.042 24.9846 494.754 22.7022 492.553 20.5009ZM484.139 21.495C486.34 19.2937 487.628 17.0113 487.628 17.0113C487.628 17.0113 485.346 18.2996 483.145 20.5009C480.944 22.7022 479.656 24.9846 479.656 24.9846C479.656 24.9846 481.938 23.6963 484.139 21.495ZM487.852 8.49017C487.852 8.49017 487.172 9.84442 487.172 11.5182C487.172 13.192 487.852 14.5462 487.852 14.5462C487.852 14.5462 488.531 13.192 488.531 11.5182C488.531 9.84442 487.852 8.49017 487.852 8.49017ZM488.531 22.2304C488.531 23.9042 487.852 25.2585 487.852 25.2585C487.852 25.2585 487.172 23.9042 487.172 22.2304C487.172 20.5567 487.852 19.2024 487.852 19.2024C487.852 19.2024 488.531 20.5567 488.531 22.2304ZM496.229 16.8743C496.229 16.8743 494.875 16.1947 493.202 16.1947C491.528 16.1947 490.174 16.8743 490.174 16.8743C490.174 16.8743 491.528 17.554 493.202 17.554C494.875 17.554 496.229 16.8743 496.229 16.8743ZM482.496 17.5591C480.823 17.5591 479.469 16.8794 479.469 16.8794C479.469 16.8794 480.823 16.1997 482.496 16.1997C484.17 16.1997 485.524 16.8794 485.524 16.8794C485.524 16.8794 484.17 17.5591 482.496 17.5591Z" fill="#F8E6A7"/>
<path d="M525.821 7.18677H505.161V26.5672H525.821V7.18677Z" fill="#F0BE40"/>
<path d="M520.188 13.2478C517.987 15.4491 515.705 16.7374 515.705 16.7374C515.705 16.7374 516.993 14.455 519.194 12.2537C521.395 10.0524 523.677 8.76409 523.677 8.76409C523.677 8.76409 522.389 11.0465 520.188 13.2478ZM507.297 8.76917C507.297 8.76917 508.585 11.0516 510.786 13.2529C512.987 15.4542 515.269 16.7425 515.269 16.7425C515.269 16.7425 513.981 14.46 511.78 12.2588C509.579 10.0575 507.297 8.76917 507.297 8.76917ZM520.188 20.5009C517.987 18.2996 515.705 17.0113 515.705 17.0113C515.705 17.0113 516.993 19.2937 519.194 21.495C521.395 23.6963 523.677 24.9846 523.677 24.9846C523.677 24.9846 522.389 22.7022 520.188 20.5009ZM511.78 21.495C513.981 19.2937 515.269 17.0113 515.269 17.0113C515.269 17.0113 512.987 18.2996 510.786 20.5009C508.585 22.7022 507.297 24.9846 507.297 24.9846C507.297 24.9846 509.579 23.6963 511.78 21.495ZM515.492 8.4902C515.492 8.4902 514.812 9.84445 514.812 11.5182C514.812 13.192 515.492 14.5463 515.492 14.5463C515.492 14.5463 516.172 13.192 516.172 11.5182C516.172 9.84445 515.492 8.4902 515.492 8.4902ZM516.172 22.2305C516.172 23.9043 515.492 25.2585 515.492 25.2585C515.492 25.2585 514.812 23.9043 514.812 22.2305C514.812 20.5567 515.492 19.2025 515.492 19.2025C515.492 19.2025 516.172 20.5567 516.172 22.2305ZM523.87 16.8744C523.87 16.8744 522.516 16.1947 520.842 16.1947C519.169 16.1947 517.815 16.8744 517.815 16.8744C517.815 16.8744 519.169 17.554 520.842 17.554C522.516 17.554 523.87 16.8744 523.87 16.8744ZM510.137 17.5591C508.463 17.5591 507.109 16.8794 507.109 16.8794C507.109 16.8794 508.463 16.1998 510.137 16.1998C511.81 16.1998 513.164 16.8794 513.164 16.8794C513.164 16.8794 511.81 17.5591 510.137 17.5591Z" fill="#F8E6A7"/>
<path d="M553.459 7.18655H532.799V26.567H553.459V7.18655Z" fill="#F0BE40"/>
<path d="M547.825 13.2478C545.624 15.449 543.342 16.7374 543.342 16.7374C543.342 16.7374 544.63 14.4549 546.831 12.2536C549.032 10.0523 551.314 8.76403 551.314 8.76403C551.314 8.76403 550.026 11.0465 547.825 13.2478ZM534.933 8.76911C534.933 8.76911 536.222 11.0515 538.423 13.2528C540.623 15.4541 542.906 16.7424 542.906 16.7424C542.906 16.7424 541.617 14.46 539.417 12.2587C537.216 10.0574 534.933 8.76911 534.933 8.76911ZM547.825 20.5008C545.624 18.2996 543.342 17.0112 543.342 17.0112C543.342 17.0112 544.63 19.2937 546.831 21.495C549.032 23.6963 551.314 24.9846 551.314 24.9846C551.314 24.9846 550.026 22.7021 547.825 20.5008ZM539.417 21.495C541.617 19.2937 542.906 17.0112 542.906 17.0112C542.906 17.0112 540.623 18.2996 538.423 20.5008C536.222 22.7021 534.933 24.9846 534.933 24.9846C534.933 24.9846 537.216 23.6963 539.417 21.495ZM543.124 8.49014C543.124 8.49014 542.444 9.84439 542.444 11.5182C542.444 13.192 543.124 14.5462 543.124 14.5462C543.124 14.5462 543.803 13.192 543.803 11.5182C543.803 9.84439 543.124 8.49014 543.124 8.49014ZM543.808 22.2304C543.808 23.9042 543.129 25.2584 543.129 25.2584C543.129 25.2584 542.449 23.9042 542.449 22.2304C542.449 20.5566 543.129 19.2024 543.129 19.2024C543.129 19.2024 543.808 20.5566 543.808 22.2304ZM551.506 16.8743C551.506 16.8743 550.152 16.1946 548.479 16.1946C546.805 16.1946 545.451 16.8743 545.451 16.8743C545.451 16.8743 546.805 17.554 548.479 17.554C550.152 17.554 551.506 16.8743 551.506 16.8743ZM537.773 17.559C536.1 17.559 534.746 16.8794 534.746 16.8794C534.746 16.8794 536.1 16.1997 537.773 16.1997C539.447 16.1997 540.801 16.8794 540.801 16.8794C540.801 16.8794 539.447 17.559 537.773 17.559Z" fill="#F8E6A7"/>
<path d="M581.098 7.18677H560.437V26.5672H581.098V7.18677Z" fill="#F0BE40"/>
<path d="M575.464 13.2478C573.263 15.4491 570.981 16.7374 570.981 16.7374C570.981 16.7374 572.269 14.455 574.47 12.2537C576.671 10.0524 578.953 8.76409 578.953 8.76409C578.953 8.76409 577.665 11.0465 575.464 13.2478ZM562.573 8.76917C562.573 8.76917 563.861 11.0516 566.062 13.2529C568.263 15.4542 570.545 16.7425 570.545 16.7425C570.545 16.7425 569.257 14.46 567.056 12.2588C564.855 10.0575 562.573 8.76917 562.573 8.76917ZM575.464 20.5009C573.263 18.2996 570.981 17.0113 570.981 17.0113C570.981 17.0113 572.269 19.2937 574.47 21.495C576.671 23.6963 578.953 24.9846 578.953 24.9846C578.953 24.9846 577.665 22.7022 575.464 20.5009ZM567.056 21.495C569.257 19.2937 570.545 17.0113 570.545 17.0113C570.545 17.0113 568.263 18.2996 566.062 20.5009C563.861 22.7022 562.573 24.9846 562.573 24.9846C562.573 24.9846 564.855 23.6963 567.056 21.495ZM570.763 8.4902C570.763 8.4902 570.083 9.84445 570.083 11.5182C570.083 13.192 570.763 14.5463 570.763 14.5463C570.763 14.5463 571.443 13.192 571.443 11.5182C571.443 9.84445 570.763 8.4902 570.763 8.4902ZM571.448 22.2305C571.448 23.9043 570.768 25.2585 570.768 25.2585C570.768 25.2585 570.089 23.9043 570.089 22.2305C570.089 20.5567 570.768 19.2025 570.768 19.2025C570.768 19.2025 571.448 20.5567 571.448 22.2305ZM579.146 16.8744C579.146 16.8744 577.792 16.1947 576.118 16.1947C574.445 16.1947 573.091 16.8744 573.091 16.8744C573.091 16.8744 574.445 17.554 576.118 17.554C577.792 17.554 579.146 16.8744 579.146 16.8744ZM565.413 17.5591C563.739 17.5591 562.385 16.8794 562.385 16.8794C562.385 16.8794 563.739 16.1998 565.413 16.1998C567.086 16.1998 568.44 16.8794 568.44 16.8794C568.44 16.8794 567.086 17.5591 565.413 17.5591Z" fill="#F8E6A7"/>
<path d="M608.737 7.18661H588.077V26.5671H608.737V7.18661Z" fill="#F0BE40"/>
<path d="M603.102 13.2478C600.901 15.449 598.619 16.7374 598.619 16.7374C598.619 16.7374 599.907 14.4549 602.108 12.2536C604.309 10.0523 606.591 8.76403 606.591 8.76403C606.591 8.76403 605.303 11.0465 603.102 13.2478ZM590.211 8.76911C590.211 8.76911 591.499 11.0515 593.7 13.2528C595.901 15.4541 598.183 16.7424 598.183 16.7424C598.183 16.7424 596.895 14.46 594.694 12.2587C592.493 10.0574 590.211 8.76911 590.211 8.76911ZM603.102 20.5008C600.901 18.2996 598.619 17.0112 598.619 17.0112C598.619 17.0112 599.907 19.2937 602.108 21.495C604.309 23.6963 606.591 24.9846 606.591 24.9846C606.591 24.9846 605.303 22.7021 603.102 20.5008ZM594.694 21.495C596.895 19.2937 598.183 17.0112 598.183 17.0112C598.183 17.0112 595.901 18.2996 593.7 20.5008C591.499 22.7021 590.211 24.9846 590.211 24.9846C590.211 24.9846 592.493 23.6963 594.694 21.495ZM598.401 8.49014C598.401 8.49014 597.721 9.84439 597.721 11.5182C597.721 13.192 598.401 14.5462 598.401 14.5462C598.401 14.5462 599.081 13.192 599.081 11.5182C599.081 9.84439 598.401 8.49014 598.401 8.49014ZM599.086 22.2304C599.086 23.9042 598.406 25.2584 598.406 25.2584C598.406 25.2584 597.726 23.9042 597.726 22.2304C597.726 20.5566 598.406 19.2024 598.406 19.2024C598.406 19.2024 599.086 20.5566 599.086 22.2304ZM606.784 16.8743C606.784 16.8743 605.43 16.1946 603.756 16.1946C602.083 16.1946 600.729 16.8743 600.729 16.8743C600.729 16.8743 602.083 17.554 603.756 17.554C605.43 17.554 606.784 16.8743 606.784 16.8743ZM593.051 17.559C591.377 17.559 590.023 16.8794 590.023 16.8794C590.023 16.8794 591.377 16.1997 593.051 16.1997C594.724 16.1997 596.078 16.8794 596.078 16.8794C596.078 16.8794 594.724 17.559 593.051 17.559Z" fill="#F8E6A7"/>
<path d="M636.37 7.18677H615.71V26.5672H636.37V7.18677Z" fill="#F0BE40"/>
<path d="M630.741 13.2478C628.54 15.4491 626.258 16.7374 626.258 16.7374C626.258 16.7374 627.546 14.455 629.747 12.2537C631.948 10.0524 634.23 8.76412 634.23 8.76412C634.23 8.76412 632.942 11.0466 630.741 13.2478ZM617.85 8.7692C617.85 8.7692 619.138 11.0516 621.339 13.2529C623.539 15.4542 625.822 16.7425 625.822 16.7425C625.822 16.7425 624.533 14.4601 622.333 12.2588C620.132 10.0575 617.85 8.7692 617.85 8.7692ZM630.741 20.5009C628.54 18.2997 626.258 17.0113 626.258 17.0113C626.258 17.0113 627.546 19.2938 629.747 21.4951C631.948 23.6963 634.23 24.9847 634.23 24.9847C634.23 24.9847 632.942 22.7022 630.741 20.5009ZM622.333 21.4951C624.533 19.2938 625.822 17.0113 625.822 17.0113C625.822 17.0113 623.539 18.2997 621.339 20.5009C619.138 22.7022 617.85 24.9847 617.85 24.9847C617.85 24.9847 620.132 23.6963 622.333 21.4951ZM626.04 8.49023C626.04 8.49023 625.36 9.84448 625.36 11.5183C625.36 13.1921 626.04 14.5463 626.04 14.5463C626.04 14.5463 626.719 13.1921 626.719 11.5183C626.719 9.84448 626.04 8.49023 626.04 8.49023ZM626.719 22.2305C626.719 23.9043 626.04 25.2585 626.04 25.2585C626.04 25.2585 625.36 23.9043 625.36 22.2305C625.36 20.5567 626.04 19.2025 626.04 19.2025C626.04 19.2025 626.719 20.5567 626.719 22.2305ZM634.422 16.8744C634.422 16.8744 633.068 16.1947 631.395 16.1947C629.721 16.1947 628.367 16.8744 628.367 16.8744C628.367 16.8744 629.721 17.5541 631.395 17.5541C633.068 17.5541 634.422 16.8744 634.422 16.8744ZM620.689 17.5591C619.016 17.5591 617.662 16.8795 617.662 16.8795C617.662 16.8795 619.016 16.1998 620.689 16.1998C622.363 16.1998 623.717 16.8795 623.717 16.8795C623.717 16.8795 622.363 17.5591 620.689 17.5591Z" fill="#F8E6A7"/>
<path d="M664.009 7.18683H643.348V26.5673H664.009V7.18683Z" fill="#F0BE40"/>
<path d="M658.379 13.2478C656.178 15.449 653.896 16.7374 653.896 16.7374C653.896 16.7374 655.184 14.4549 657.385 12.2536C659.586 10.0523 661.868 8.76403 661.868 8.76403C661.868 8.76403 660.58 11.0465 658.379 13.2478ZM645.488 8.76911C645.488 8.76911 646.776 11.0515 648.977 13.2528C651.178 15.4541 653.46 16.7424 653.46 16.7424C653.46 16.7424 652.172 14.46 649.971 12.2587C647.77 10.0574 645.488 8.76911 645.488 8.76911ZM658.379 20.5008C656.178 18.2996 653.896 17.0112 653.896 17.0112C653.896 17.0112 655.184 19.2937 657.385 21.495C659.586 23.6963 661.868 24.9846 661.868 24.9846C661.868 24.9846 660.58 22.7021 658.379 20.5008ZM649.971 21.495C652.172 19.2937 653.46 17.0112 653.46 17.0112C653.46 17.0112 651.178 18.2996 648.977 20.5008C646.776 22.7021 645.488 24.9846 645.488 24.9846C645.488 24.9846 647.77 23.6963 649.971 21.495ZM653.678 8.49014C653.678 8.49014 652.999 9.84439 652.999 11.5182C652.999 13.192 653.678 14.5462 653.678 14.5462C653.678 14.5462 654.358 13.192 654.358 11.5182C654.358 9.84439 653.678 8.49014 653.678 8.49014ZM654.358 22.2304C654.358 23.9042 653.678 25.2584 653.678 25.2584C653.678 25.2584 652.999 23.9042 652.999 22.2304C652.999 20.5566 653.678 19.2024 653.678 19.2024C653.678 19.2024 654.358 20.5566 654.358 22.2304ZM662.061 16.8743C662.061 16.8743 660.707 16.1946 659.034 16.1946C657.36 16.1946 656.006 16.8743 656.006 16.8743C656.006 16.8743 657.36 17.554 659.034 17.554C660.707 17.554 662.061 16.8743 662.061 16.8743ZM648.328 17.559C646.655 17.559 645.301 16.8794 645.301 16.8794C645.301 16.8794 646.655 16.1997 648.328 16.1997C650.002 16.1997 651.356 16.8794 651.356 16.8794C651.356 16.8794 650.002 17.559 648.328 17.559Z" fill="#F8E6A7"/>
<path d="M1002.34 9.15527e-05H664.303V33.7548H1002.34V9.15527e-05Z" fill="#F2E4BF"/>
<path d="M691.646 7.18686H670.985V26.5673H691.646V7.18686Z" fill="#F0BE40"/>
<path d="M686.018 13.2479C683.817 15.4492 681.535 16.7375 681.535 16.7375C681.535 16.7375 682.823 14.4551 685.024 12.2538C687.225 10.0525 689.507 8.76422 689.507 8.76422C689.507 8.76422 688.219 11.0467 686.018 13.2479ZM673.127 8.76929C673.127 8.76929 674.415 11.0517 676.616 13.253C678.817 15.4543 681.099 16.7426 681.099 16.7426C681.099 16.7426 679.811 14.4602 677.61 12.2589C675.409 10.0576 673.127 8.76929 673.127 8.76929ZM686.018 20.501C683.817 18.2997 681.535 17.0114 681.535 17.0114C681.535 17.0114 682.823 19.2939 685.024 21.4952C687.225 23.6964 689.507 24.9848 689.507 24.9848C689.507 24.9848 688.219 22.7023 686.018 20.501ZM677.61 21.4952C679.811 19.2939 681.099 17.0114 681.099 17.0114C681.099 17.0114 678.817 18.2997 676.616 20.501C674.415 22.7023 673.127 24.9848 673.127 24.9848C673.127 24.9848 675.409 23.6964 677.61 21.4952ZM681.317 8.49033C681.317 8.49033 680.638 9.84457 680.638 11.5184C680.638 13.1922 681.317 14.5464 681.317 14.5464C681.317 14.5464 681.997 13.1922 681.997 11.5184C681.997 9.84457 681.317 8.49033 681.317 8.49033ZM681.997 22.2306C681.997 23.9044 681.317 25.2586 681.317 25.2586C681.317 25.2586 680.638 23.9044 680.638 22.2306C680.638 20.5568 681.317 19.2026 681.317 19.2026C681.317 19.2026 681.997 20.5568 681.997 22.2306ZM689.7 16.8745C689.7 16.8745 688.346 16.1948 686.673 16.1948C684.999 16.1948 683.645 16.8745 683.645 16.8745C683.645 16.8745 684.999 17.5541 686.673 17.5541C688.346 17.5541 689.7 16.8745 689.7 16.8745ZM675.967 17.5592C674.293 17.5592 672.939 16.8796 672.939 16.8796C672.939 16.8796 674.293 16.1999 675.967 16.1999C677.641 16.1999 678.995 16.8796 678.995 16.8796C678.995 16.8796 677.641 17.5592 675.967 17.5592Z" fill="#F8E6A7"/>
<path d="M719.284 7.18668H698.624V26.5671H719.284V7.18668Z" fill="#F0BE40"/>
<path d="M713.656 13.2478C711.455 15.4491 709.173 16.7374 709.173 16.7374C709.173 16.7374 710.461 14.455 712.662 12.2537C714.863 10.0524 717.145 8.76409 717.145 8.76409C717.145 8.76409 715.857 11.0465 713.656 13.2478ZM700.765 8.76917C700.765 8.76917 702.053 11.0516 704.254 13.2529C706.455 15.4542 708.737 16.7425 708.737 16.7425C708.737 16.7425 707.448 14.46 705.248 12.2588C703.047 10.0575 700.765 8.76917 700.765 8.76917ZM713.656 20.5009C711.455 18.2996 709.173 17.0113 709.173 17.0113C709.173 17.0113 710.461 19.2937 712.662 21.495C714.863 23.6963 717.145 24.9846 717.145 24.9846C717.145 24.9846 715.857 22.7022 713.656 20.5009ZM705.248 21.495C707.448 19.2937 708.737 17.0113 708.737 17.0113C708.737 17.0113 706.455 18.2996 704.254 20.5009C702.053 22.7022 700.765 24.9846 700.765 24.9846C700.765 24.9846 703.047 23.6963 705.248 21.495ZM708.955 8.4902C708.955 8.4902 708.275 9.84445 708.275 11.5182C708.275 13.192 708.955 14.5463 708.955 14.5463C708.955 14.5463 709.634 13.192 709.634 11.5182C709.634 9.84445 708.955 8.4902 708.955 8.4902ZM709.634 22.2305C709.634 23.9043 708.955 25.2585 708.955 25.2585C708.955 25.2585 708.275 23.9043 708.275 22.2305C708.275 20.5567 708.955 19.2025 708.955 19.2025C708.955 19.2025 709.634 20.5567 709.634 22.2305ZM717.338 16.8744C717.338 16.8744 715.983 16.1947 714.31 16.1947C712.636 16.1947 711.282 16.8744 711.282 16.8744C711.282 16.8744 712.636 17.554 714.31 17.554C715.983 17.554 717.338 16.8744 717.338 16.8744ZM703.604 17.5591C701.931 17.5591 700.577 16.8794 700.577 16.8794C700.577 16.8794 701.931 16.1998 703.604 16.1998C705.278 16.1998 706.632 16.8794 706.632 16.8794C706.632 16.8794 705.278 17.5591 703.604 17.5591Z" fill="#F8E6A7"/>
<path d="M746.924 7.18668H726.263V26.5671H746.924V7.18668Z" fill="#F0BE40"/>
<path d="M741.295 13.2478C739.094 15.4491 736.812 16.7374 736.812 16.7374C736.812 16.7374 738.1 14.455 740.301 12.2537C742.502 10.0524 744.784 8.76412 744.784 8.76412C744.784 8.76412 743.496 11.0466 741.295 13.2478ZM728.404 8.7692C728.404 8.7692 729.692 11.0516 731.893 13.2529C734.094 15.4542 736.376 16.7425 736.376 16.7425C736.376 16.7425 735.088 14.4601 732.887 12.2588C730.686 10.0575 728.404 8.7692 728.404 8.7692ZM741.295 20.5009C739.094 18.2997 736.812 17.0113 736.812 17.0113C736.812 17.0113 738.1 19.2938 740.301 21.4951C742.502 23.6963 744.784 24.9847 744.784 24.9847C744.784 24.9847 743.496 22.7022 741.295 20.5009ZM732.887 21.4951C735.088 19.2938 736.376 17.0113 736.376 17.0113C736.376 17.0113 734.094 18.2997 731.893 20.5009C729.692 22.7022 728.404 24.9847 728.404 24.9847C728.404 24.9847 730.686 23.6963 732.887 21.4951ZM736.594 8.49023C736.594 8.49023 735.914 9.84448 735.914 11.5183C735.914 13.1921 736.594 14.5463 736.594 14.5463C736.594 14.5463 737.274 13.1921 737.274 11.5183C737.274 9.84448 736.594 8.49023 736.594 8.49023ZM737.274 22.2305C737.274 23.9043 736.594 25.2585 736.594 25.2585C736.594 25.2585 735.914 23.9043 735.914 22.2305C735.914 20.5567 736.594 19.2025 736.594 19.2025C736.594 19.2025 737.274 20.5567 737.274 22.2305ZM744.977 16.8744C744.977 16.8744 743.623 16.1947 741.949 16.1947C740.276 16.1947 738.922 16.8744 738.922 16.8744C738.922 16.8744 740.276 17.5541 741.949 17.5541C743.623 17.5541 744.977 16.8744 744.977 16.8744ZM731.239 17.5591C729.565 17.5591 728.211 16.8795 728.211 16.8795C728.211 16.8795 729.565 16.1998 731.239 16.1998C732.912 16.1998 734.266 16.8795 734.266 16.8795C734.266 16.8795 732.912 17.5591 731.239 17.5591Z" fill="#F8E6A7"/>
<path d="M774.563 7.18674H753.902V26.5672H774.563V7.18674Z" fill="#F0BE40"/>
<path d="M768.933 13.2479C766.732 15.4492 764.45 16.7375 764.45 16.7375C764.45 16.7375 765.738 14.4551 767.939 12.2538C770.14 10.0525 772.422 8.76418 772.422 8.76418C772.422 8.76418 771.134 11.0466 768.933 13.2479ZM756.041 8.76926C756.041 8.76926 757.329 11.0517 759.53 13.253C761.731 15.4543 764.013 16.7426 764.013 16.7426C764.013 16.7426 762.725 14.4601 760.524 12.2589C758.323 10.0576 756.041 8.76926 756.041 8.76926ZM768.933 20.501C766.732 18.2997 764.45 17.0114 764.45 17.0114C764.45 17.0114 765.738 19.2938 767.939 21.4951C770.14 23.6964 772.422 24.9847 772.422 24.9847C772.422 24.9847 771.134 22.7023 768.933 20.501ZM760.519 21.4951C762.72 19.2938 764.008 17.0114 764.008 17.0114C764.008 17.0114 761.726 18.2997 759.525 20.501C757.324 22.7023 756.036 24.9847 756.036 24.9847C756.036 24.9847 758.318 23.6964 760.519 21.4951ZM764.231 8.4903C764.231 8.4903 763.552 9.84454 763.552 11.5183C763.552 13.1921 764.231 14.5464 764.231 14.5464C764.231 14.5464 764.911 13.1921 764.911 11.5183C764.911 9.84454 764.231 8.4903 764.231 8.4903ZM764.911 22.2306C764.911 23.9044 764.231 25.2586 764.231 25.2586C764.231 25.2586 763.552 23.9044 763.552 22.2306C763.552 20.5568 764.231 19.2025 764.231 19.2025C764.231 19.2025 764.911 20.5568 764.911 22.2306ZM772.614 16.8744C772.614 16.8744 771.26 16.1948 769.587 16.1948C767.913 16.1948 766.559 16.8744 766.559 16.8744C766.559 16.8744 767.913 17.5541 769.587 17.5541C771.26 17.5541 772.614 16.8744 772.614 16.8744ZM758.876 17.5592C757.203 17.5592 755.849 16.8795 755.849 16.8795C755.849 16.8795 757.203 16.1999 758.876 16.1999C760.55 16.1999 761.904 16.8795 761.904 16.8795C761.904 16.8795 760.55 17.5592 758.876 17.5592Z" fill="#F8E6A7"/>
<path d="M802.201 7.1868H781.541V26.5672H802.201V7.1868Z" fill="#F0BE40"/>
<path d="M796.572 13.2478C794.372 15.4491 792.089 16.7374 792.089 16.7374C792.089 16.7374 793.378 14.455 795.578 12.2537C797.779 10.0524 800.061 8.76412 800.061 8.76412C800.061 8.76412 798.773 11.0466 796.572 13.2478ZM783.681 8.7692C783.681 8.7692 784.969 11.0516 787.17 13.2529C789.371 15.4542 791.653 16.7425 791.653 16.7425C791.653 16.7425 790.365 14.4601 788.164 12.2588C785.963 10.0575 783.681 8.7692 783.681 8.7692ZM796.572 20.5009C794.372 18.2997 792.089 17.0113 792.089 17.0113C792.089 17.0113 793.378 19.2938 795.578 21.4951C797.779 23.6963 800.061 24.9847 800.061 24.9847C800.061 24.9847 798.773 22.7022 796.572 20.5009ZM788.159 21.4951C790.36 19.2938 791.648 17.0113 791.648 17.0113C791.648 17.0113 789.366 18.2997 787.165 20.5009C784.964 22.7022 783.676 24.9847 783.676 24.9847C783.676 24.9847 785.958 23.6963 788.159 21.4951ZM791.871 8.49023C791.871 8.49023 791.192 9.84448 791.192 11.5183C791.192 13.1921 791.871 14.5463 791.871 14.5463C791.871 14.5463 792.551 13.1921 792.551 11.5183C792.551 9.84448 791.871 8.49023 791.871 8.49023ZM792.551 22.2305C792.551 23.9043 791.871 25.2585 791.871 25.2585C791.871 25.2585 791.192 23.9043 791.192 22.2305C791.192 20.5567 791.871 19.2025 791.871 19.2025C791.871 19.2025 792.551 20.5567 792.551 22.2305ZM800.254 16.8744C800.254 16.8744 798.9 16.1947 797.227 16.1947C795.553 16.1947 794.199 16.8744 794.199 16.8744C794.199 16.8744 795.553 17.5541 797.227 17.5541C798.9 17.5541 800.254 16.8744 800.254 16.8744ZM786.516 17.5591C784.843 17.5591 783.489 16.8795 783.489 16.8795C783.489 16.8795 784.843 16.1998 786.516 16.1998C788.19 16.1998 789.544 16.8795 789.544 16.8795C789.544 16.8795 788.19 17.5591 786.516 17.5591Z" fill="#F8E6A7"/>
<path d="M829.839 7.18686H809.179V26.5673H829.839V7.18686Z" fill="#F0BE40"/>
<path d="M824.21 13.2479C822.009 15.4492 819.727 16.7375 819.727 16.7375C819.727 16.7375 821.015 14.4551 823.216 12.2538C825.417 10.0525 827.699 8.76418 827.699 8.76418C827.699 8.76418 826.411 11.0466 824.21 13.2479ZM811.319 8.76926C811.319 8.76926 812.607 11.0517 814.808 13.253C817.009 15.4543 819.291 16.7426 819.291 16.7426C819.291 16.7426 818.003 14.4601 815.802 12.2589C813.601 10.0576 811.319 8.76926 811.319 8.76926ZM824.21 20.501C822.009 18.2997 819.727 17.0114 819.727 17.0114C819.727 17.0114 821.015 19.2938 823.216 21.4951C825.417 23.6964 827.699 24.9847 827.699 24.9847C827.699 24.9847 826.411 22.7023 824.21 20.501ZM815.797 21.4951C817.998 19.2938 819.286 17.0114 819.286 17.0114C819.286 17.0114 817.004 18.2997 814.803 20.501C812.602 22.7023 811.314 24.9847 811.314 24.9847C811.314 24.9847 813.596 23.6964 815.797 21.4951ZM819.509 8.4903C819.509 8.4903 818.829 9.84454 818.829 11.5183C818.829 13.1921 819.509 14.5464 819.509 14.5464C819.509 14.5464 820.188 13.1921 820.188 11.5183C820.188 9.84454 819.509 8.4903 819.509 8.4903ZM820.188 22.2306C820.188 23.9044 819.509 25.2586 819.509 25.2586C819.509 25.2586 818.829 23.9044 818.829 22.2306C818.829 20.5568 819.509 19.2025 819.509 19.2025C819.509 19.2025 820.188 20.5568 820.188 22.2306ZM827.887 16.8744C827.887 16.8744 826.533 16.1948 824.859 16.1948C823.186 16.1948 821.831 16.8744 821.831 16.8744C821.831 16.8744 823.186 17.5541 824.859 17.5541C826.533 17.5541 827.887 16.8744 827.887 16.8744ZM814.154 17.5592C812.48 17.5592 811.126 16.8795 811.126 16.8795C811.126 16.8795 812.48 16.1999 814.154 16.1999C815.827 16.1999 817.181 16.8795 817.181 16.8795C817.181 16.8795 815.827 17.5592 814.154 17.5592Z" fill="#F8E6A7"/>
<path d="M857.477 7.18668H836.816V26.5671H857.477V7.18668Z" fill="#F0BE40"/>
<path d="M851.844 13.2478C849.643 15.4491 847.36 16.7374 847.36 16.7374C847.36 16.7374 848.649 14.455 850.85 12.2537C853.05 10.0524 855.333 8.76412 855.333 8.76412C855.333 8.76412 854.044 11.0466 851.844 13.2478ZM838.952 8.7692C838.952 8.7692 840.24 11.0516 842.441 13.2529C844.642 15.4542 846.924 16.7425 846.924 16.7425C846.924 16.7425 845.636 14.4601 843.435 12.2588C841.234 10.0575 838.952 8.7692 838.952 8.7692ZM851.844 20.5009C849.643 18.2997 847.36 17.0113 847.36 17.0113C847.36 17.0113 848.649 19.2938 850.85 21.4951C853.05 23.6963 855.333 24.9847 855.333 24.9847C855.333 24.9847 854.044 22.7022 851.844 20.5009ZM843.435 21.4951C845.636 19.2938 846.924 17.0113 846.924 17.0113C846.924 17.0113 844.642 18.2997 842.441 20.5009C840.24 22.7022 838.952 24.9847 838.952 24.9847C838.952 24.9847 841.234 23.6963 843.435 21.4951ZM847.148 8.49023C847.148 8.49023 846.468 9.84448 846.468 11.5183C846.468 13.1921 847.148 14.5463 847.148 14.5463C847.148 14.5463 847.827 13.1921 847.827 11.5183C847.827 9.84448 847.148 8.49023 847.148 8.49023ZM847.827 22.2305C847.827 23.9043 847.148 25.2585 847.148 25.2585C847.148 25.2585 846.468 23.9043 846.468 22.2305C846.468 20.5567 847.148 19.2025 847.148 19.2025C847.148 19.2025 847.827 20.5567 847.827 22.2305ZM855.525 16.8744C855.525 16.8744 854.171 16.1947 852.498 16.1947C850.824 16.1947 849.47 16.8744 849.47 16.8744C849.47 16.8744 850.824 17.5541 852.498 17.5541C854.171 17.5541 855.525 16.8744 855.525 16.8744ZM841.792 17.5591C840.119 17.5591 838.765 16.8795 838.765 16.8795C838.765 16.8795 840.119 16.1998 841.792 16.1998C843.466 16.1998 844.82 16.8795 844.82 16.8795C844.82 16.8795 843.466 17.5591 841.792 17.5591Z" fill="#F8E6A7"/>
<path d="M885.116 7.18661H864.456V26.5671H885.116V7.18661Z" fill="#F0BE40"/>
<path d="M879.481 13.2479C877.28 15.4492 874.998 16.7375 874.998 16.7375C874.998 16.7375 876.286 14.4551 878.487 12.2538C880.688 10.0525 882.97 8.76418 882.97 8.76418C882.97 8.76418 881.682 11.0466 879.481 13.2479ZM866.59 8.76926C866.59 8.76926 867.878 11.0517 870.079 13.253C872.28 15.4543 874.562 16.7426 874.562 16.7426C874.562 16.7426 873.274 14.4601 871.073 12.2589C868.872 10.0576 866.59 8.76926 866.59 8.76926ZM879.481 20.501C877.28 18.2997 874.998 17.0114 874.998 17.0114C874.998 17.0114 876.286 19.2938 878.487 21.4951C880.688 23.6964 882.97 24.9847 882.97 24.9847C882.97 24.9847 881.682 22.7023 879.481 20.501ZM871.073 21.4951C873.274 19.2938 874.562 17.0114 874.562 17.0114C874.562 17.0114 872.28 18.2997 870.079 20.501C867.878 22.7023 866.59 24.9847 866.59 24.9847C866.59 24.9847 868.872 23.6964 871.073 21.4951ZM874.78 8.4903C874.78 8.4903 874.1 9.84454 874.1 11.5183C874.1 13.1921 874.78 14.5464 874.78 14.5464C874.78 14.5464 875.459 13.1921 875.459 11.5183C875.459 9.84454 874.78 8.4903 874.78 8.4903ZM875.464 22.2306C875.464 23.9044 874.785 25.2586 874.785 25.2586C874.785 25.2586 874.105 23.9044 874.105 22.2306C874.105 20.5568 874.785 19.2025 874.785 19.2025C874.785 19.2025 875.464 20.5568 875.464 22.2306ZM883.163 16.8744C883.163 16.8744 881.809 16.1948 880.135 16.1948C878.462 16.1948 877.108 16.8744 877.108 16.8744C877.108 16.8744 878.462 17.5541 880.135 17.5541C881.809 17.5541 883.163 16.8744 883.163 16.8744ZM869.43 17.5592C867.756 17.5592 866.402 16.8795 866.402 16.8795C866.402 16.8795 867.756 16.1999 869.43 16.1999C871.103 16.1999 872.457 16.8795 872.457 16.8795C872.457 16.8795 871.103 17.5592 869.43 17.5592Z" fill="#F8E6A7"/>
<path d="M912.755 7.18692H892.094V26.5674H912.755V7.18692Z" fill="#F0BE40"/>
<path d="M907.12 13.2479C904.919 15.4492 902.637 16.7375 902.637 16.7375C902.637 16.7375 903.925 14.455 906.126 12.2538C908.327 10.0525 910.609 8.76415 910.609 8.76415C910.609 8.76415 909.321 11.0466 907.12 13.2479ZM894.229 8.76923C894.229 8.76923 895.517 11.0517 897.718 13.253C899.919 15.4542 902.201 16.7426 902.201 16.7426C902.201 16.7426 900.913 14.4601 898.712 12.2588C896.511 10.0575 894.229 8.76923 894.229 8.76923ZM907.12 20.501C904.919 18.2997 902.637 17.0114 902.637 17.0114C902.637 17.0114 903.925 19.2938 906.126 21.4951C908.327 23.6964 910.609 24.9847 910.609 24.9847C910.609 24.9847 909.321 22.7023 907.12 20.501ZM898.712 21.4951C900.913 19.2938 902.201 17.0114 902.201 17.0114C902.201 17.0114 899.919 18.2997 897.718 20.501C895.517 22.7023 894.229 24.9847 894.229 24.9847C894.229 24.9847 896.511 23.6964 898.712 21.4951ZM902.419 8.49026C902.419 8.49026 901.739 9.84451 901.739 11.5183C901.739 13.1921 902.419 14.5463 902.419 14.5463C902.419 14.5463 903.098 13.1921 903.098 11.5183C903.098 9.84451 902.419 8.49026 902.419 8.49026ZM903.103 22.2305C903.103 23.9043 902.424 25.2586 902.424 25.2586C902.424 25.2586 901.744 23.9043 901.744 22.2305C901.744 20.5567 902.424 19.2025 902.424 19.2025C902.424 19.2025 903.103 20.5567 903.103 22.2305ZM910.802 16.8744C910.802 16.8744 909.448 16.1948 907.774 16.1948C906.101 16.1948 904.746 16.8744 904.746 16.8744C904.746 16.8744 906.101 17.5541 907.774 17.5541C909.448 17.5541 910.802 16.8744 910.802 16.8744ZM897.069 17.5591C895.395 17.5591 894.041 16.8795 894.041 16.8795C894.041 16.8795 895.395 16.1998 897.069 16.1998C898.742 16.1998 900.096 16.8795 900.096 16.8795C900.096 16.8795 898.742 17.5591 897.069 17.5591Z" fill="#F8E6A7"/>
<path d="M940.393 7.18686H919.732V26.5673H940.393V7.18686Z" fill="#F0BE40"/>
<path d="M934.759 13.2479C932.558 15.4492 930.276 16.7375 930.276 16.7375C930.276 16.7375 931.564 14.4551 933.765 12.2538C935.966 10.0525 938.248 8.76418 938.248 8.76418C938.248 8.76418 936.96 11.0466 934.759 13.2479ZM921.868 8.76926C921.868 8.76926 923.156 11.0517 925.357 13.253C927.558 15.4543 929.84 16.7426 929.84 16.7426C929.84 16.7426 928.552 14.4601 926.351 12.2589C924.15 10.0576 921.868 8.76926 921.868 8.76926ZM934.759 20.501C932.558 18.2997 930.276 17.0114 930.276 17.0114C930.276 17.0114 931.564 19.2938 933.765 21.4951C935.966 23.6964 938.248 24.9847 938.248 24.9847C938.248 24.9847 936.96 22.7023 934.759 20.501ZM926.351 21.4951C928.552 19.2938 929.84 17.0114 929.84 17.0114C929.84 17.0114 927.558 18.2997 925.357 20.501C923.156 22.7023 921.868 24.9847 921.868 24.9847C921.868 24.9847 924.15 23.6964 926.351 21.4951ZM930.058 8.4903C930.058 8.4903 929.379 9.84454 929.379 11.5183C929.379 13.1921 930.058 14.5464 930.058 14.5464C930.058 14.5464 930.738 13.1921 930.738 11.5183C930.738 9.84454 930.058 8.4903 930.058 8.4903ZM930.743 22.2306C930.743 23.9044 930.063 25.2586 930.063 25.2586C930.063 25.2586 929.384 23.9044 929.384 22.2306C929.384 20.5568 930.063 19.2025 930.063 19.2025C930.063 19.2025 930.743 20.5568 930.743 22.2306ZM938.441 16.8744C938.441 16.8744 937.087 16.1948 935.413 16.1948C933.74 16.1948 932.386 16.8744 932.386 16.8744C932.386 16.8744 933.74 17.5541 935.413 17.5541C937.087 17.5541 938.441 16.8744 938.441 16.8744ZM924.708 17.5592C923.034 17.5592 921.68 16.8795 921.68 16.8795C921.68 16.8795 923.034 16.1999 924.708 16.1999C926.382 16.1999 927.736 16.8795 927.736 16.8795C927.736 16.8795 926.382 17.5592 924.708 17.5592Z" fill="#F8E6A7"/>
<path d="M968.027 7.18668H947.366V26.5671H968.027V7.18668Z" fill="#F0BE40"/>
<path d="M962.397 13.2478C960.197 15.4491 957.914 16.7374 957.914 16.7374C957.914 16.7374 959.203 14.455 961.403 12.2537C963.604 10.0524 965.887 8.76409 965.887 8.76409C965.887 8.76409 964.598 11.0465 962.397 13.2478ZM949.506 8.76917C949.506 8.76917 950.794 11.0516 952.995 13.2529C955.196 15.4542 957.478 16.7425 957.478 16.7425C957.478 16.7425 956.19 14.46 953.989 12.2588C951.788 10.0575 949.506 8.76917 949.506 8.76917ZM962.397 20.5009C960.197 18.2996 957.914 17.0113 957.914 17.0113C957.914 17.0113 959.203 19.2937 961.403 21.495C963.604 23.6963 965.887 24.9846 965.887 24.9846C965.887 24.9846 964.598 22.7022 962.397 20.5009ZM953.989 21.495C956.19 19.2937 957.478 17.0113 957.478 17.0113C957.478 17.0113 955.196 18.2996 952.995 20.5009C950.794 22.7022 949.506 24.9846 949.506 24.9846C949.506 24.9846 951.788 23.6963 953.989 21.495ZM957.696 8.4902C957.696 8.4902 957.017 9.84445 957.017 11.5182C957.017 13.192 957.696 14.5463 957.696 14.5463C957.696 14.5463 958.376 13.192 958.376 11.5182C958.376 9.84445 957.696 8.4902 957.696 8.4902ZM958.376 22.2305C958.376 23.9043 957.696 25.2585 957.696 25.2585C957.696 25.2585 957.017 23.9043 957.017 22.2305C957.017 20.5567 957.696 19.2025 957.696 19.2025C957.696 19.2025 958.376 20.5567 958.376 22.2305ZM966.079 16.8744C966.079 16.8744 964.725 16.1947 963.052 16.1947C961.378 16.1947 960.024 16.8744 960.024 16.8744C960.024 16.8744 961.378 17.554 963.052 17.554C964.725 17.554 966.079 16.8744 966.079 16.8744ZM952.346 17.5591C950.673 17.5591 949.319 16.8794 949.319 16.8794C949.319 16.8794 950.673 16.1998 952.346 16.1998C954.02 16.1998 955.374 16.8794 955.374 16.8794C955.374 16.8794 954.02 17.5591 952.346 17.5591Z" fill="#F8E6A7"/>
<path d="M995.664 7.18686H975.004V26.5673H995.664V7.18686Z" fill="#F0BE40"/>
<path d="M990.036 13.2479C987.835 15.4492 985.553 16.7375 985.553 16.7375C985.553 16.7375 986.841 14.4551 989.042 12.2538C991.243 10.0525 993.525 8.76422 993.525 8.76422C993.525 8.76422 992.237 11.0467 990.036 13.2479ZM977.145 8.76929C977.145 8.76929 978.433 11.0517 980.634 13.253C982.835 15.4543 985.117 16.7426 985.117 16.7426C985.117 16.7426 983.829 14.4602 981.628 12.2589C979.427 10.0576 977.145 8.76929 977.145 8.76929ZM990.036 20.501C987.835 18.2997 985.553 17.0114 985.553 17.0114C985.553 17.0114 986.841 19.2939 989.042 21.4952C991.243 23.6964 993.525 24.9848 993.525 24.9848C993.525 24.9848 992.237 22.7023 990.036 20.501ZM981.628 21.4952C983.829 19.2939 985.117 17.0114 985.117 17.0114C985.117 17.0114 982.835 18.2997 980.634 20.501C978.433 22.7023 977.145 24.9848 977.145 24.9848C977.145 24.9848 979.427 23.6964 981.628 21.4952ZM985.335 8.49033C985.335 8.49033 984.655 9.84457 984.655 11.5184C984.655 13.1922 985.335 14.5464 985.335 14.5464C985.335 14.5464 986.014 13.1922 986.014 11.5184C986.014 9.84457 985.335 8.49033 985.335 8.49033ZM986.014 22.2306C986.014 23.9044 985.335 25.2586 985.335 25.2586C985.335 25.2586 984.655 23.9044 984.655 22.2306C984.655 20.5568 985.335 19.2026 985.335 19.2026C985.335 19.2026 986.014 20.5568 986.014 22.2306ZM993.718 16.8745C993.718 16.8745 992.364 16.1948 990.69 16.1948C989.017 16.1948 987.663 16.8745 987.663 16.8745C987.663 16.8745 989.017 17.5541 990.69 17.5541C992.364 17.5541 993.718 16.8745 993.718 16.8745ZM979.985 17.5592C978.311 17.5592 976.957 16.8796 976.957 16.8796C976.957 16.8796 978.311 16.1999 979.985 16.1999C981.658 16.1999 983.012 16.8796 983.012 16.8796C983.012 16.8796 981.658 17.5592 979.985 17.5592Z" fill="#F8E6A7"/>
<path d="M1334 9.15527e-05H995.958V33.7548H1334V9.15527e-05Z" fill="#F2E4BF"/>
<path d="M1023.3 7.18677H1002.64V26.5672H1023.3V7.18677Z" fill="#F0BE40"/>
<path d="M1017.67 13.2478C1015.47 15.4491 1013.19 16.7374 1013.19 16.7374C1013.19 16.7374 1014.48 14.455 1016.68 12.2537C1018.88 10.0524 1021.16 8.76409 1021.16 8.76409C1021.16 8.76409 1019.87 11.0465 1017.67 13.2478ZM1004.78 8.76917C1004.78 8.76917 1006.07 11.0516 1008.27 13.2529C1010.47 15.4542 1012.75 16.7425 1012.75 16.7425C1012.75 16.7425 1011.47 14.46 1009.27 12.2588C1007.06 10.0575 1004.78 8.76917 1004.78 8.76917ZM1017.67 20.5009C1015.47 18.2996 1013.19 17.0113 1013.19 17.0113C1013.19 17.0113 1014.48 19.2937 1016.68 21.495C1018.88 23.6963 1021.16 24.9846 1021.16 24.9846C1021.16 24.9846 1019.87 22.7022 1017.67 20.5009ZM1009.27 21.495C1011.47 19.2937 1012.75 17.0113 1012.75 17.0113C1012.75 17.0113 1010.47 18.2996 1008.27 20.5009C1006.07 22.7022 1004.78 24.9846 1004.78 24.9846C1004.78 24.9846 1007.06 23.6963 1009.27 21.495ZM1012.97 8.4902C1012.97 8.4902 1012.29 9.84445 1012.29 11.5182C1012.29 13.192 1012.97 14.5463 1012.97 14.5463C1012.97 14.5463 1013.65 13.192 1013.65 11.5182C1013.65 9.84445 1012.97 8.4902 1012.97 8.4902ZM1013.65 22.2305C1013.65 23.9043 1012.97 25.2585 1012.97 25.2585C1012.97 25.2585 1012.29 23.9043 1012.29 22.2305C1012.29 20.5567 1012.97 19.2025 1012.97 19.2025C1012.97 19.2025 1013.65 20.5567 1013.65 22.2305ZM1021.36 16.8744C1021.36 16.8744 1020 16.1947 1018.33 16.1947C1016.65 16.1947 1015.3 16.8744 1015.3 16.8744C1015.3 16.8744 1016.65 17.554 1018.33 17.554C1020 17.554 1021.36 16.8744 1021.36 16.8744ZM1007.62 17.5591C1005.95 17.5591 1004.59 16.8794 1004.59 16.8794C1004.59 16.8794 1005.95 16.1998 1007.62 16.1998C1009.3 16.1998 1010.65 16.8794 1010.65 16.8794C1010.65 16.8794 1009.3 17.5591 1007.62 17.5591Z" fill="#F8E6A7"/>
<path d="M1050.94 7.18677H1030.28V26.5672H1050.94V7.18677Z" fill="#F0BE40"/>
<path d="M1045.31 13.2478C1043.11 15.4491 1040.83 16.7374 1040.83 16.7374C1040.83 16.7374 1042.12 14.455 1044.32 12.2537C1046.52 10.0524 1048.8 8.76412 1048.8 8.76412C1048.8 8.76412 1047.51 11.0466 1045.31 13.2478ZM1032.42 8.7692C1032.42 8.7692 1033.71 11.0516 1035.91 13.2529C1038.11 15.4542 1040.39 16.7425 1040.39 16.7425C1040.39 16.7425 1039.1 14.4601 1036.9 12.2588C1034.7 10.0575 1032.42 8.7692 1032.42 8.7692ZM1045.31 20.5009C1043.11 18.2997 1040.83 17.0113 1040.83 17.0113C1040.83 17.0113 1042.12 19.2938 1044.32 21.4951C1046.52 23.6963 1048.8 24.9847 1048.8 24.9847C1048.8 24.9847 1047.51 22.7022 1045.31 20.5009ZM1036.9 21.4951C1039.1 19.2938 1040.39 17.0113 1040.39 17.0113C1040.39 17.0113 1038.11 18.2997 1035.91 20.5009C1033.71 22.7022 1032.42 24.9847 1032.42 24.9847C1032.42 24.9847 1034.7 23.6963 1036.9 21.4951ZM1040.61 8.49023C1040.61 8.49023 1039.93 9.84448 1039.93 11.5183C1039.93 13.1921 1040.61 14.5463 1040.61 14.5463C1040.61 14.5463 1041.29 13.1921 1041.29 11.5183C1041.29 9.84448 1040.61 8.49023 1040.61 8.49023ZM1041.29 22.2305C1041.29 23.9043 1040.61 25.2585 1040.61 25.2585C1040.61 25.2585 1039.93 23.9043 1039.93 22.2305C1039.93 20.5567 1040.61 19.2025 1040.61 19.2025C1040.61 19.2025 1041.29 20.5567 1041.29 22.2305ZM1048.99 16.8744C1048.99 16.8744 1047.64 16.1947 1045.97 16.1947C1044.29 16.1947 1042.94 16.8744 1042.94 16.8744C1042.94 16.8744 1044.29 17.5541 1045.97 17.5541C1047.64 17.5541 1048.99 16.8744 1048.99 16.8744ZM1035.26 17.5591C1033.59 17.5591 1032.23 16.8795 1032.23 16.8795C1032.23 16.8795 1033.59 16.1998 1035.26 16.1998C1036.93 16.1998 1038.29 16.8795 1038.29 16.8795C1038.29 16.8795 1036.93 17.5591 1035.26 17.5591Z" fill="#F8E6A7"/>
<path d="M1078.58 7.18683H1057.92V26.5673H1078.58V7.18683Z" fill="#F0BE40"/>
<path d="M1072.95 13.2478C1070.75 15.4491 1068.47 16.7374 1068.47 16.7374C1068.47 16.7374 1069.76 14.455 1071.96 12.2537C1074.16 10.0524 1076.44 8.76409 1076.44 8.76409C1076.44 8.76409 1075.15 11.0465 1072.95 13.2478ZM1060.06 8.76917C1060.06 8.76917 1061.35 11.0516 1063.55 13.2529C1065.75 15.4542 1068.03 16.7425 1068.03 16.7425C1068.03 16.7425 1066.74 14.46 1064.54 12.2588C1062.34 10.0575 1060.06 8.76917 1060.06 8.76917ZM1072.95 20.5009C1070.75 18.2996 1068.47 17.0113 1068.47 17.0113C1068.47 17.0113 1069.76 19.2937 1071.96 21.495C1074.16 23.6963 1076.44 24.9846 1076.44 24.9846C1076.44 24.9846 1075.15 22.7022 1072.95 20.5009ZM1064.54 21.495C1066.74 19.2937 1068.03 17.0113 1068.03 17.0113C1068.03 17.0113 1065.75 18.2996 1063.55 20.5009C1061.35 22.7022 1060.06 24.9846 1060.06 24.9846C1060.06 24.9846 1062.34 23.6963 1064.54 21.495ZM1068.25 8.4902C1068.25 8.4902 1067.57 9.84445 1067.57 11.5182C1067.57 13.192 1068.25 14.5463 1068.25 14.5463C1068.25 14.5463 1068.93 13.192 1068.93 11.5182C1068.93 9.84445 1068.25 8.4902 1068.25 8.4902ZM1068.93 22.2305C1068.93 23.9043 1068.25 25.2585 1068.25 25.2585C1068.25 25.2585 1067.57 23.9043 1067.57 22.2305C1067.57 20.5567 1068.25 19.2025 1068.25 19.2025C1068.25 19.2025 1068.93 20.5567 1068.93 22.2305ZM1076.63 16.8744C1076.63 16.8744 1075.28 16.1947 1073.61 16.1947C1071.93 16.1947 1070.58 16.8744 1070.58 16.8744C1070.58 16.8744 1071.93 17.554 1073.61 17.554C1075.28 17.554 1076.63 16.8744 1076.63 16.8744ZM1062.89 17.5591C1061.22 17.5591 1059.87 16.8794 1059.87 16.8794C1059.87 16.8794 1061.22 16.1998 1062.89 16.1998C1064.57 16.1998 1065.92 16.8794 1065.92 16.8794C1065.92 16.8794 1064.57 17.5591 1062.89 17.5591Z" fill="#F8E6A7"/>
<path d="M1106.22 7.18655H1085.56V26.567H1106.22V7.18655Z" fill="#F0BE40"/>
<path d="M1100.59 13.2478C1098.39 15.449 1096.11 16.7374 1096.11 16.7374C1096.11 16.7374 1097.39 14.4549 1099.6 12.2536C1101.8 10.0523 1104.08 8.76403 1104.08 8.76403C1104.08 8.76403 1102.79 11.0465 1100.59 13.2478ZM1087.7 8.76911C1087.7 8.76911 1088.99 11.0515 1091.19 13.2528C1093.39 15.4541 1095.67 16.7424 1095.67 16.7424C1095.67 16.7424 1094.38 14.46 1092.18 12.2587C1089.98 10.0574 1087.7 8.76911 1087.7 8.76911ZM1100.59 20.5008C1098.39 18.2996 1096.11 17.0112 1096.11 17.0112C1096.11 17.0112 1097.39 19.2937 1099.6 21.495C1101.8 23.6963 1104.08 24.9846 1104.08 24.9846C1104.08 24.9846 1102.79 22.7021 1100.59 20.5008ZM1092.18 21.495C1094.38 19.2937 1095.67 17.0112 1095.67 17.0112C1095.67 17.0112 1093.38 18.2996 1091.18 20.5008C1088.98 22.7021 1087.69 24.9846 1087.69 24.9846C1087.69 24.9846 1089.98 23.6963 1092.18 21.495ZM1095.89 8.49014C1095.89 8.49014 1095.21 9.84439 1095.21 11.5182C1095.21 13.192 1095.89 14.5462 1095.89 14.5462C1095.89 14.5462 1096.57 13.192 1096.57 11.5182C1096.57 9.84439 1095.89 8.49014 1095.89 8.49014ZM1096.57 22.2304C1096.57 23.9042 1095.89 25.2584 1095.89 25.2584C1095.89 25.2584 1095.21 23.9042 1095.21 22.2304C1095.21 20.5566 1095.89 19.2024 1095.89 19.2024C1095.89 19.2024 1096.57 20.5566 1096.57 22.2304ZM1104.27 16.8743C1104.27 16.8743 1102.92 16.1946 1101.24 16.1946C1099.57 16.1946 1098.22 16.8743 1098.22 16.8743C1098.22 16.8743 1099.57 17.554 1101.24 17.554C1102.92 17.554 1104.27 16.8743 1104.27 16.8743ZM1090.53 17.559C1088.86 17.559 1087.51 16.8794 1087.51 16.8794C1087.51 16.8794 1088.86 16.1997 1090.53 16.1997C1092.21 16.1997 1093.56 16.8794 1093.56 16.8794C1093.56 16.8794 1092.21 17.559 1090.53 17.559Z" fill="#F8E6A7"/>
<path d="M1133.86 7.18677H1113.2V26.5672H1133.86V7.18677Z" fill="#F0BE40"/>
<path d="M1128.23 13.2478C1126.03 15.4491 1123.75 16.7374 1123.75 16.7374C1123.75 16.7374 1125.03 14.455 1127.23 12.2537C1129.44 10.0524 1131.72 8.76409 1131.72 8.76409C1131.72 8.76409 1130.43 11.0465 1128.23 13.2478ZM1115.34 8.76917C1115.34 8.76917 1116.63 11.0516 1118.83 13.2529C1121.03 15.4542 1123.31 16.7425 1123.31 16.7425C1123.31 16.7425 1122.02 14.46 1119.82 12.2588C1117.62 10.0575 1115.34 8.76917 1115.34 8.76917ZM1128.23 20.5009C1126.03 18.2996 1123.75 17.0113 1123.75 17.0113C1123.75 17.0113 1125.03 19.2937 1127.23 21.495C1129.44 23.6963 1131.72 24.9846 1131.72 24.9846C1131.72 24.9846 1130.43 22.7022 1128.23 20.5009ZM1119.81 21.495C1122.02 19.2937 1123.3 17.0113 1123.3 17.0113C1123.3 17.0113 1121.02 18.2996 1118.82 20.5009C1116.62 22.7022 1115.33 24.9846 1115.33 24.9846C1115.33 24.9846 1117.61 23.6963 1119.81 21.495ZM1123.53 8.4902C1123.53 8.4902 1122.85 9.84445 1122.85 11.5182C1122.85 13.192 1123.53 14.5463 1123.53 14.5463C1123.53 14.5463 1124.21 13.192 1124.21 11.5182C1124.21 9.84445 1123.53 8.4902 1123.53 8.4902ZM1124.21 22.2305C1124.21 23.9043 1123.53 25.2585 1123.53 25.2585C1123.53 25.2585 1122.85 23.9043 1122.85 22.2305C1122.85 20.5567 1123.53 19.2025 1123.53 19.2025C1123.53 19.2025 1124.21 20.5567 1124.21 22.2305ZM1131.91 16.8744C1131.91 16.8744 1130.56 16.1947 1128.88 16.1947C1127.21 16.1947 1125.85 16.8744 1125.85 16.8744C1125.85 16.8744 1127.21 17.554 1128.88 17.554C1130.56 17.554 1131.91 16.8744 1131.91 16.8744ZM1118.17 17.5591C1116.5 17.5591 1115.14 16.8794 1115.14 16.8794C1115.14 16.8794 1116.5 16.1998 1118.17 16.1998C1119.85 16.1998 1121.2 16.8794 1121.2 16.8794C1121.2 16.8794 1119.85 17.5591 1118.17 17.5591Z" fill="#F8E6A7"/>
<path d="M1161.5 7.18661H1140.83V26.5671H1161.5V7.18661Z" fill="#F0BE40"/>
<path d="M1155.86 13.2478C1153.66 15.449 1151.38 16.7374 1151.38 16.7374C1151.38 16.7374 1152.67 14.4549 1154.87 12.2536C1157.07 10.0523 1159.35 8.76403 1159.35 8.76403C1159.35 8.76403 1158.07 11.0465 1155.86 13.2478ZM1142.97 8.76911C1142.97 8.76911 1144.26 11.0515 1146.46 13.2528C1148.66 15.4541 1150.95 16.7424 1150.95 16.7424C1150.95 16.7424 1149.66 14.46 1147.46 12.2587C1145.26 10.0574 1142.97 8.76911 1142.97 8.76911ZM1155.86 20.5008C1153.66 18.2996 1151.38 17.0112 1151.38 17.0112C1151.38 17.0112 1152.67 19.2937 1154.87 21.495C1157.07 23.6963 1159.35 24.9846 1159.35 24.9846C1159.35 24.9846 1158.07 22.7021 1155.86 20.5008ZM1147.45 21.495C1149.65 19.2937 1150.94 17.0112 1150.94 17.0112C1150.94 17.0112 1148.66 18.2996 1146.46 20.5008C1144.26 22.7021 1142.97 24.9846 1142.97 24.9846C1142.97 24.9846 1145.25 23.6963 1147.45 21.495ZM1151.16 8.49014C1151.16 8.49014 1150.48 9.84439 1150.48 11.5182C1150.48 13.192 1151.16 14.5462 1151.16 14.5462C1151.16 14.5462 1151.84 13.192 1151.84 11.5182C1151.84 9.84439 1151.16 8.49014 1151.16 8.49014ZM1151.84 22.2304C1151.84 23.9042 1151.16 25.2584 1151.16 25.2584C1151.16 25.2584 1150.48 23.9042 1150.48 22.2304C1150.48 20.5566 1151.16 19.2024 1151.16 19.2024C1151.16 19.2024 1151.84 20.5566 1151.84 22.2304ZM1159.54 16.8743C1159.54 16.8743 1158.19 16.1946 1156.51 16.1946C1154.84 16.1946 1153.49 16.8743 1153.49 16.8743C1153.49 16.8743 1154.84 17.554 1156.51 17.554C1158.19 17.554 1159.54 16.8743 1159.54 16.8743ZM1145.81 17.559C1144.14 17.559 1142.78 16.8794 1142.78 16.8794C1142.78 16.8794 1144.14 16.1997 1145.81 16.1997C1147.48 16.1997 1148.84 16.8794 1148.84 16.8794C1148.84 16.8794 1147.48 17.559 1145.81 17.559Z" fill="#F8E6A7"/>
<path d="M1189.13 7.18677H1168.47V26.5672H1189.13V7.18677Z" fill="#F0BE40"/>
<path d="M1183.5 13.2478C1181.3 15.4491 1179.02 16.7374 1179.02 16.7374C1179.02 16.7374 1180.3 14.455 1182.51 12.2537C1184.71 10.0524 1186.99 8.76409 1186.99 8.76409C1186.99 8.76409 1185.7 11.0465 1183.5 13.2478ZM1170.61 8.76917C1170.61 8.76917 1171.9 11.0516 1174.1 13.2529C1176.3 15.4542 1178.58 16.7425 1178.58 16.7425C1178.58 16.7425 1177.29 14.46 1175.09 12.2588C1172.89 10.0575 1170.61 8.76917 1170.61 8.76917ZM1183.5 20.5009C1181.3 18.2996 1179.02 17.0113 1179.02 17.0113C1179.02 17.0113 1180.3 19.2937 1182.51 21.495C1184.71 23.6963 1186.99 24.9846 1186.99 24.9846C1186.99 24.9846 1185.7 22.7022 1183.5 20.5009ZM1175.09 21.495C1177.29 19.2937 1178.58 17.0113 1178.58 17.0113C1178.58 17.0113 1176.3 18.2996 1174.1 20.5009C1171.9 22.7022 1170.61 24.9846 1170.61 24.9846C1170.61 24.9846 1172.89 23.6963 1175.09 21.495ZM1178.8 8.4902C1178.8 8.4902 1178.12 9.84445 1178.12 11.5182C1178.12 13.192 1178.8 14.5463 1178.8 14.5463C1178.8 14.5463 1179.48 13.192 1179.48 11.5182C1179.48 9.84445 1178.8 8.4902 1178.8 8.4902ZM1179.48 22.2305C1179.48 23.9043 1178.8 25.2585 1178.8 25.2585C1178.8 25.2585 1178.12 23.9043 1178.12 22.2305C1178.12 20.5567 1178.8 19.2025 1178.8 19.2025C1178.8 19.2025 1179.48 20.5567 1179.48 22.2305ZM1187.18 16.8744C1187.18 16.8744 1185.83 16.1947 1184.15 16.1947C1182.48 16.1947 1181.13 16.8744 1181.13 16.8744C1181.13 16.8744 1182.48 17.554 1184.15 17.554C1185.83 17.554 1187.18 16.8744 1187.18 16.8744ZM1173.45 17.5591C1171.77 17.5591 1170.42 16.8794 1170.42 16.8794C1170.42 16.8794 1171.77 16.1998 1173.45 16.1998C1175.12 16.1998 1176.48 16.8794 1176.48 16.8794C1176.48 16.8794 1175.12 17.5591 1173.45 17.5591Z" fill="#F8E6A7"/>
<path d="M1216.77 7.18655H1196.11V26.567H1216.77V7.18655Z" fill="#F0BE40"/>
<path d="M1211.14 13.2478C1208.94 15.449 1206.65 16.7374 1206.65 16.7374C1206.65 16.7374 1207.94 14.4549 1210.14 12.2536C1212.34 10.0523 1214.63 8.76403 1214.63 8.76403C1214.63 8.76403 1213.34 11.0465 1211.14 13.2478ZM1198.25 8.76911C1198.25 8.76911 1199.53 11.0515 1201.74 13.2528C1203.94 15.4541 1206.22 16.7424 1206.22 16.7424C1206.22 16.7424 1204.93 14.46 1202.73 12.2587C1200.53 10.0574 1198.25 8.76911 1198.25 8.76911ZM1211.14 20.5008C1208.94 18.2996 1206.65 17.0112 1206.65 17.0112C1206.65 17.0112 1207.94 19.2937 1210.14 21.495C1212.34 23.6963 1214.63 24.9846 1214.63 24.9846C1214.63 24.9846 1213.34 22.7021 1211.14 20.5008ZM1202.73 21.495C1204.93 19.2937 1206.22 17.0112 1206.22 17.0112C1206.22 17.0112 1203.94 18.2996 1201.74 20.5008C1199.53 22.7021 1198.25 24.9846 1198.25 24.9846C1198.25 24.9846 1200.53 23.6963 1202.73 21.495ZM1206.44 8.49014C1206.44 8.49014 1205.76 9.84439 1205.76 11.5182C1205.76 13.192 1206.44 14.5462 1206.44 14.5462C1206.44 14.5462 1207.12 13.192 1207.12 11.5182C1207.12 9.84439 1206.44 8.49014 1206.44 8.49014ZM1207.12 22.2304C1207.12 23.9042 1206.44 25.2584 1206.44 25.2584C1206.44 25.2584 1205.76 23.9042 1205.76 22.2304C1205.76 20.5566 1206.44 19.2024 1206.44 19.2024C1206.44 19.2024 1207.12 20.5566 1207.12 22.2304ZM1214.82 16.8743C1214.82 16.8743 1213.46 16.1946 1211.79 16.1946C1210.12 16.1946 1208.76 16.8743 1208.76 16.8743C1208.76 16.8743 1210.12 17.554 1211.79 17.554C1213.46 17.554 1214.82 16.8743 1214.82 16.8743ZM1201.09 17.559C1199.41 17.559 1198.06 16.8794 1198.06 16.8794C1198.06 16.8794 1199.41 16.1997 1201.09 16.1997C1202.76 16.1997 1204.11 16.8794 1204.11 16.8794C1204.11 16.8794 1202.76 17.559 1201.09 17.559Z" fill="#F8E6A7"/>
<path d="M1244.41 7.18677H1223.75V26.5672H1244.41V7.18677Z" fill="#F0BE40"/>
<path d="M1238.78 13.2478C1236.58 15.4491 1234.29 16.7374 1234.29 16.7374C1234.29 16.7374 1235.58 14.455 1237.78 12.2537C1239.98 10.0524 1242.27 8.76409 1242.27 8.76409C1242.27 8.76409 1240.98 11.0465 1238.78 13.2478ZM1225.89 8.76917C1225.89 8.76917 1227.17 11.0516 1229.37 13.2529C1231.58 15.4542 1233.86 16.7425 1233.86 16.7425C1233.86 16.7425 1232.57 14.46 1230.37 12.2588C1228.17 10.0575 1225.89 8.76917 1225.89 8.76917ZM1238.78 20.5009C1236.58 18.2996 1234.29 17.0113 1234.29 17.0113C1234.29 17.0113 1235.58 19.2937 1237.78 21.495C1239.98 23.6963 1242.27 24.9846 1242.27 24.9846C1242.27 24.9846 1240.98 22.7022 1238.78 20.5009ZM1230.37 21.495C1232.57 19.2937 1233.86 17.0113 1233.86 17.0113C1233.86 17.0113 1231.58 18.2996 1229.37 20.5009C1227.17 22.7022 1225.89 24.9846 1225.89 24.9846C1225.89 24.9846 1228.17 23.6963 1230.37 21.495ZM1234.08 8.4902C1234.08 8.4902 1233.4 9.84445 1233.4 11.5182C1233.4 13.192 1234.08 14.5463 1234.08 14.5463C1234.08 14.5463 1234.76 13.192 1234.76 11.5182C1234.76 9.84445 1234.08 8.4902 1234.08 8.4902ZM1234.76 22.2305C1234.76 23.9043 1234.08 25.2585 1234.08 25.2585C1234.08 25.2585 1233.4 23.9043 1233.4 22.2305C1233.4 20.5567 1234.08 19.2025 1234.08 19.2025C1234.08 19.2025 1234.76 20.5567 1234.76 22.2305ZM1242.46 16.8744C1242.46 16.8744 1241.1 16.1947 1239.43 16.1947C1237.76 16.1947 1236.4 16.8744 1236.4 16.8744C1236.4 16.8744 1237.76 17.554 1239.43 17.554C1241.1 17.554 1242.46 16.8744 1242.46 16.8744ZM1228.73 17.5591C1227.05 17.5591 1225.7 16.8794 1225.7 16.8794C1225.7 16.8794 1227.05 16.1998 1228.73 16.1998C1230.4 16.1998 1231.75 16.8794 1231.75 16.8794C1231.75 16.8794 1230.4 17.5591 1228.73 17.5591Z" fill="#F8E6A7"/>
<path d="M1272.05 7.18661H1251.39V26.5671H1272.05V7.18661Z" fill="#F0BE40"/>
<path d="M1266.41 13.2478C1264.21 15.449 1261.93 16.7374 1261.93 16.7374C1261.93 16.7374 1263.22 14.4549 1265.42 12.2536C1267.62 10.0523 1269.9 8.76403 1269.9 8.76403C1269.9 8.76403 1268.62 11.0465 1266.41 13.2478ZM1253.52 8.76911C1253.52 8.76911 1254.81 11.0515 1257.01 13.2528C1259.21 15.4541 1261.5 16.7424 1261.5 16.7424C1261.5 16.7424 1260.21 14.46 1258.01 12.2587C1255.81 10.0574 1253.52 8.76911 1253.52 8.76911ZM1266.41 20.5008C1264.21 18.2996 1261.93 17.0112 1261.93 17.0112C1261.93 17.0112 1263.22 19.2937 1265.42 21.495C1267.62 23.6963 1269.9 24.9846 1269.9 24.9846C1269.9 24.9846 1268.62 22.7021 1266.41 20.5008ZM1258.01 21.495C1260.21 19.2937 1261.5 17.0112 1261.5 17.0112C1261.5 17.0112 1259.21 18.2996 1257.01 20.5008C1254.81 22.7021 1253.52 24.9846 1253.52 24.9846C1253.52 24.9846 1255.81 23.6963 1258.01 21.495ZM1261.71 8.49014C1261.71 8.49014 1261.03 9.84439 1261.03 11.5182C1261.03 13.192 1261.71 14.5462 1261.71 14.5462C1261.71 14.5462 1262.39 13.192 1262.39 11.5182C1262.39 9.84439 1261.71 8.49014 1261.71 8.49014ZM1262.4 22.2304C1262.4 23.9042 1261.72 25.2584 1261.72 25.2584C1261.72 25.2584 1261.04 23.9042 1261.04 22.2304C1261.04 20.5566 1261.72 19.2024 1261.72 19.2024C1261.72 19.2024 1262.4 20.5566 1262.4 22.2304ZM1270.1 16.8743C1270.1 16.8743 1268.74 16.1946 1267.07 16.1946C1265.4 16.1946 1264.04 16.8743 1264.04 16.8743C1264.04 16.8743 1265.4 17.554 1267.07 17.554C1268.74 17.554 1270.1 16.8743 1270.1 16.8743ZM1256.36 17.559C1254.69 17.559 1253.34 16.8794 1253.34 16.8794C1253.34 16.8794 1254.69 16.1997 1256.36 16.1997C1258.04 16.1997 1259.39 16.8794 1259.39 16.8794C1259.39 16.8794 1258.04 17.559 1256.36 17.559Z" fill="#F8E6A7"/>
</svg>
