<svg width="253" height="68" viewBox="0 0 253 68" fill="none" xmlns="http://www.w3.org/2000/svg">
<path d="M253 0H0V68H253V0Z" fill="#FFE000"/>
<path d="M7.74449 1.48602C6.9007 1.48602 6.21747 2.17698 6.21747 3.02753C6.21747 4.34704 7.74449 5.47575 7.74449 5.47575C7.74449 5.47575 9.2715 4.34704 9.2715 3.02753C9.2715 2.17609 8.58827 1.48602 7.74449 1.48602Z" fill="#0D0706"/>
<path d="M10.4526 1.8345C11.761 1.8345 12.8787 0.293885 12.8787 0.293885C12.8787 0.293885 11.7602 -1.24762 10.4526 -1.24762C9.60966 -1.24762 8.92554 -0.557554 8.92554 0.293885C8.92554 1.14532 9.60966 1.8345 10.4526 1.8345Z" fill="#0D0706"/>
<path d="M5.03551 1.8345C5.87929 1.8345 6.56253 1.14532 6.56253 0.293885C6.56253 -0.557554 5.87929 -1.24762 5.03551 -1.24762C3.72702 -1.24762 2.60941 0.293885 2.60941 0.293885C2.60941 0.293885 3.72702 1.8345 5.03551 1.8345Z" fill="#0D0706"/>
<path d="M22.5891 1.48596C21.7453 1.48596 21.0621 2.17692 21.0621 3.02747C21.0621 4.34697 22.5891 5.47569 22.5891 5.47569C22.5891 5.47569 24.1161 4.34697 24.1161 3.02747C24.1161 2.17603 23.4329 1.48596 22.5891 1.48596Z" fill="#0D0706"/>
<path d="M25.2971 1.83456C26.6056 1.83456 27.7232 0.293946 27.7232 0.293946C27.7232 0.293946 26.6047 -1.24756 25.2971 -1.24756C24.4542 -1.24756 23.7701 -0.557493 23.7701 0.293946C23.7701 1.14539 24.4533 1.83456 25.2971 1.83456Z" fill="#0D0706"/>
<path d="M19.8799 1.83456C20.7237 1.83456 21.4069 1.14539 21.4069 0.293946C21.4069 -0.557493 20.7237 -1.24756 19.8799 -1.24756C18.5714 -1.24756 17.4538 0.293946 17.4538 0.293946C17.4538 0.293946 18.5714 1.83456 19.8799 1.83456Z" fill="#0D0706"/>
<path d="M37.4332 1.48596C36.5894 1.48596 35.9062 2.17692 35.9062 3.02747C35.9062 4.34697 37.4332 5.47569 37.4332 5.47569C37.4332 5.47569 38.9602 4.34697 38.9602 3.02747C38.9602 2.17603 38.277 1.48596 37.4332 1.48596Z" fill="#0D0706"/>
<path d="M40.1421 1.83456C41.4506 1.83456 42.5682 0.293946 42.5682 0.293946C42.5682 0.293946 41.4497 -1.24756 40.1421 -1.24756C39.2992 -1.24756 38.6151 -0.557493 38.6151 0.293946C38.6151 1.14539 39.2983 1.83456 40.1421 1.83456Z" fill="#0D0706"/>
<path d="M34.7248 1.83456C35.5686 1.83456 36.2519 1.14539 36.2519 0.293946C36.2519 -0.557493 35.5686 -1.24756 34.7248 -1.24756C33.4163 -1.24756 32.2987 0.293946 32.2987 0.293946C32.2987 0.293946 33.4163 1.83456 34.7248 1.83456Z" fill="#0D0706"/>
<path d="M52.2779 1.48596C51.4341 1.48596 50.7509 2.17692 50.7509 3.02747C50.7509 4.34697 52.2779 5.47569 52.2779 5.47569C52.2779 5.47569 53.8049 4.34697 53.8049 3.02747C53.8049 2.17603 53.1217 1.48596 52.2779 1.48596Z" fill="#0D0706"/>
<path d="M54.9867 1.83456C56.2952 1.83456 57.4128 0.293946 57.4128 0.293946C57.4128 0.293946 56.2943 -1.24756 54.9867 -1.24756C54.1438 -1.24756 53.4597 -0.557493 53.4597 0.293946C53.4597 1.14539 54.1438 1.83456 54.9867 1.83456Z" fill="#0D0706"/>
<path d="M49.5705 1.83456C50.4143 1.83456 51.0976 1.14539 51.0976 0.293946C51.0976 -0.557493 50.4143 -1.24756 49.5705 -1.24756C48.2621 -1.24756 47.1444 0.293946 47.1444 0.293946C47.1444 0.293946 48.2621 1.83456 49.5705 1.83456Z" fill="#0D0706"/>
<path d="M67.0707 1.48596C66.2269 1.48596 65.5437 2.17692 65.5437 3.02747C65.5437 4.34697 67.0707 5.47569 67.0707 5.47569C67.0707 5.47569 68.5977 4.34697 68.5977 3.02747C68.5977 2.17603 67.9145 1.48596 67.0707 1.48596Z" fill="#0D0706"/>
<path d="M69.7799 1.83456C71.0884 1.83456 72.2061 0.293946 72.2061 0.293946C72.2061 0.293946 71.0875 -1.24756 69.7799 -1.24756C68.9371 -1.24756 68.2529 -0.557493 68.2529 0.293946C68.2529 1.14539 68.9362 1.83456 69.7799 1.83456Z" fill="#0D0706"/>
<path d="M64.3625 1.83456C65.2063 1.83456 65.8896 1.14539 65.8896 0.293946C65.8896 -0.557493 65.2063 -1.24756 64.3625 -1.24756C63.054 -1.24756 61.9364 0.293946 61.9364 0.293946C61.9364 0.293946 63.054 1.83456 64.3625 1.83456Z" fill="#0D0706"/>
<path d="M81.9154 1.48578C81.0716 1.48578 80.3884 2.17674 80.3884 3.02728C80.3884 4.34679 81.9154 5.47551 81.9154 5.47551C81.9154 5.47551 83.4424 4.34679 83.4424 3.02728C83.4424 2.17584 82.7592 1.48578 81.9154 1.48578Z" fill="#0D0706"/>
<path d="M84.6236 1.83444C85.9321 1.83444 87.0497 0.293824 87.0497 0.293824C87.0497 0.293824 85.9312 -1.24768 84.6236 -1.24768C83.7807 -1.24768 83.0966 -0.557615 83.0966 0.293824C83.0966 1.14526 83.7798 1.83444 84.6236 1.83444Z" fill="#0D0706"/>
<path d="M79.2063 1.83432C80.05 1.83432 80.7333 1.14514 80.7333 0.293702C80.7333 -0.557738 80.05 -1.2478 79.2063 -1.2478C77.8978 -1.2478 76.7802 0.293702 76.7802 0.293702C76.7802 0.293702 77.8978 1.83432 79.2063 1.83432Z" fill="#0D0706"/>
<path d="M96.7604 1.48578C95.9166 1.48578 95.2334 2.17674 95.2334 3.02728C95.2334 4.34679 96.7604 5.47551 96.7604 5.47551C96.7604 5.47551 98.2874 4.34679 98.2874 3.02728C98.2874 2.17584 97.6042 1.48578 96.7604 1.48578Z" fill="#0D0706"/>
<path d="M99.4684 1.8345C100.777 1.8345 101.895 0.293885 101.895 0.293885C101.895 0.293885 100.776 -1.24762 99.4684 -1.24762C98.6255 -1.24762 97.9414 -0.557554 97.9414 0.293885C97.9414 1.14532 98.6246 1.8345 99.4684 1.8345Z" fill="#0D0706"/>
<path d="M94.0511 1.83438C94.8949 1.83438 95.5781 1.1452 95.5781 0.293763C95.5781 -0.557677 94.8949 -1.24774 94.0511 -1.24774C92.7426 -1.24774 91.625 0.293763 91.625 0.293763C91.625 0.293763 92.7426 1.83438 94.0511 1.83438Z" fill="#0D0706"/>
<path d="M111.654 1.48572C110.81 1.48572 110.127 2.17667 110.127 3.02722C110.127 4.34673 111.654 5.47545 111.654 5.47545C111.654 5.47545 113.181 4.34673 113.181 3.02722C113.181 2.17578 112.498 1.48572 111.654 1.48572Z" fill="#0D0706"/>
<path d="M114.363 1.83432C115.671 1.83432 116.789 0.293702 116.789 0.293702C116.789 0.293702 115.67 -1.2478 114.363 -1.2478C113.52 -1.2478 112.836 -0.557738 112.836 0.293702C112.836 1.14514 113.519 1.83432 114.363 1.83432Z" fill="#0D0706"/>
<path d="M108.946 1.83432C109.79 1.83432 110.473 1.14514 110.473 0.293702C110.473 -0.557738 109.79 -1.2478 108.946 -1.2478C107.638 -1.2478 106.52 0.293702 106.52 0.293702C106.52 0.293702 107.638 1.83432 108.946 1.83432Z" fill="#0D0706"/>
<path d="M126.5 1.48596C125.657 1.48596 124.973 2.17692 124.973 3.02747C124.973 4.34697 126.5 5.47569 126.5 5.47569C126.5 5.47569 128.027 4.34697 128.027 3.02747C128.027 2.17603 127.343 1.48596 126.5 1.48596Z" fill="#0D0706"/>
<path d="M129.208 1.83456C130.516 1.83456 131.634 0.293946 131.634 0.293946C131.634 0.293946 130.515 -1.24756 129.208 -1.24756C128.365 -1.24756 127.681 -0.557493 127.681 0.293946C127.681 1.14539 128.364 1.83456 129.208 1.83456Z" fill="#0D0706"/>
<path d="M123.79 1.83456C124.634 1.83456 125.317 1.14539 125.317 0.293946C125.317 -0.557493 124.634 -1.24756 123.79 -1.24756C122.482 -1.24756 121.364 0.293946 121.364 0.293946C121.364 0.293946 122.482 1.83456 123.79 1.83456Z" fill="#0D0706"/>
<path d="M141.345 1.48602C140.501 1.48602 139.818 2.17698 139.818 3.02753C139.818 4.34704 141.345 5.47575 141.345 5.47575C141.345 5.47575 142.872 4.34704 142.872 3.02753C142.872 2.17609 142.189 1.48602 141.345 1.48602Z" fill="#0D0706"/>
<path d="M144.052 1.83456C145.361 1.83456 146.478 0.293946 146.478 0.293946C146.478 0.293946 145.36 -1.24756 144.052 -1.24756C143.209 -1.24756 142.525 -0.557493 142.525 0.293946C142.525 1.14539 143.208 1.83456 144.052 1.83456Z" fill="#0D0706"/>
<path d="M138.636 1.83456C139.48 1.83456 140.163 1.14539 140.163 0.293946C140.163 -0.557493 139.48 -1.24756 138.636 -1.24756C137.327 -1.24756 136.21 0.293946 136.21 0.293946C136.21 0.293946 137.327 1.83456 138.636 1.83456Z" fill="#0D0706"/>
<path d="M141.345 1.48602C140.501 1.48602 139.818 2.17698 139.818 3.02753C139.818 4.34704 141.345 5.47575 141.345 5.47575C141.345 5.47575 142.872 4.34704 142.872 3.02753C142.872 2.17609 142.189 1.48602 141.345 1.48602Z" fill="#0D0706"/>
<path d="M144.052 1.83456C145.361 1.83456 146.478 0.293946 146.478 0.293946C146.478 0.293946 145.36 -1.24756 144.052 -1.24756C143.209 -1.24756 142.525 -0.557493 142.525 0.293946C142.525 1.14539 143.209 1.83456 144.052 1.83456Z" fill="#0D0706"/>
<path d="M138.636 1.83456C139.48 1.83456 140.163 1.14539 140.163 0.293946C140.163 -0.557493 139.48 -1.24756 138.636 -1.24756C137.327 -1.24756 136.21 0.293946 136.21 0.293946C136.21 0.293946 137.327 1.83456 138.636 1.83456Z" fill="#0D0706"/>
<path d="M156.189 1.48596C155.345 1.48596 154.662 2.17692 154.662 3.02747C154.662 4.34697 156.189 5.47569 156.189 5.47569C156.189 5.47569 157.716 4.34697 157.716 3.02747C157.716 2.17603 157.033 1.48596 156.189 1.48596Z" fill="#0D0706"/>
<path d="M158.897 1.83456C160.205 1.83456 161.323 0.293946 161.323 0.293946C161.323 0.293946 160.204 -1.24756 158.897 -1.24756C158.054 -1.24756 157.37 -0.557493 157.37 0.293946C157.37 1.14539 158.053 1.83456 158.897 1.83456Z" fill="#0D0706"/>
<path d="M153.48 1.83456C154.324 1.83456 155.007 1.14539 155.007 0.293946C155.007 -0.557493 154.324 -1.24756 153.48 -1.24756C152.172 -1.24756 151.054 0.293946 151.054 0.293946C151.054 0.293946 152.172 1.83456 153.48 1.83456Z" fill="#0D0706"/>
<path d="M171.035 1.4859C170.191 1.4859 169.508 2.17686 169.508 3.02741C169.508 4.34691 171.035 5.47563 171.035 5.47563C171.035 5.47563 172.562 4.34691 172.562 3.02741C172.562 2.17597 171.879 1.4859 171.035 1.4859Z" fill="#0D0706"/>
<path d="M173.743 1.83462C175.051 1.83462 176.169 0.294007 176.169 0.294007C176.169 0.294007 175.05 -1.2475 173.743 -1.2475C172.9 -1.2475 172.216 -0.557432 172.216 0.294007C172.216 1.14545 172.899 1.83462 173.743 1.83462Z" fill="#0D0706"/>
<path d="M168.325 1.8345C169.169 1.8345 169.852 1.14532 169.852 0.293885C169.852 -0.557554 169.169 -1.24762 168.325 -1.24762C167.017 -1.24762 165.899 0.293885 165.899 0.293885C165.899 0.293885 167.017 1.8345 168.325 1.8345Z" fill="#0D0706"/>
<path d="M185.878 1.48572C185.035 1.48572 184.351 2.17667 184.351 3.02722C184.351 4.34673 185.878 5.47545 185.878 5.47545C185.878 5.47545 187.405 4.34673 187.405 3.02722C187.405 2.17578 186.722 1.48572 185.878 1.48572Z" fill="#0D0706"/>
<path d="M188.586 1.83444C189.895 1.83444 191.012 0.293824 191.012 0.293824C191.012 0.293824 189.894 -1.24768 188.586 -1.24768C187.743 -1.24768 187.059 -0.557615 187.059 0.293824C187.059 1.14526 187.743 1.83444 188.586 1.83444Z" fill="#0D0706"/>
<path d="M183.169 1.83444C184.013 1.83444 184.696 1.14526 184.696 0.293824C184.696 -0.557615 184.013 -1.24768 183.169 -1.24768C181.861 -1.24768 180.743 0.293824 180.743 0.293824C180.743 0.293824 181.861 1.83444 183.169 1.83444Z" fill="#0D0706"/>
<path d="M200.671 1.4859C199.828 1.4859 199.144 2.17686 199.144 3.02741C199.144 4.34691 200.671 5.47563 200.671 5.47563C200.671 5.47563 202.198 4.34691 202.198 3.02741C202.198 2.17597 201.515 1.4859 200.671 1.4859Z" fill="#0D0706"/>
<path d="M203.38 1.83456C204.689 1.83456 205.807 0.293946 205.807 0.293946C205.807 0.293946 204.688 -1.24756 203.38 -1.24756C202.538 -1.24756 201.853 -0.557493 201.853 0.293946C201.853 1.14539 202.537 1.83456 203.38 1.83456Z" fill="#0D0706"/>
<path d="M197.963 1.83444C198.807 1.83444 199.49 1.14526 199.49 0.293824C199.49 -0.557615 198.807 -1.24768 197.963 -1.24768C196.655 -1.24768 195.537 0.293824 195.537 0.293824C195.537 0.293824 196.655 1.83444 197.963 1.83444Z" fill="#0D0706"/>
<path d="M215.516 1.4859C214.672 1.4859 213.989 2.17686 213.989 3.02741C213.989 4.34691 215.516 5.47563 215.516 5.47563C215.516 5.47563 217.043 4.34691 217.043 3.02741C217.043 2.17597 216.36 1.4859 215.516 1.4859Z" fill="#0D0706"/>
<path d="M218.224 1.8345C219.532 1.8345 220.65 0.293885 220.65 0.293885C220.65 0.293885 219.532 -1.24762 218.224 -1.24762C217.381 -1.24762 216.697 -0.557554 216.697 0.293885C216.697 1.14532 217.38 1.8345 218.224 1.8345Z" fill="#0D0706"/>
<path d="M212.808 1.8345C213.652 1.8345 214.335 1.14532 214.335 0.293885C214.335 -0.557554 213.652 -1.24762 212.808 -1.24762C211.5 -1.24762 210.382 0.293885 210.382 0.293885C210.382 0.293885 211.5 1.8345 212.808 1.8345Z" fill="#0D0706"/>
<path d="M230.359 1.48566C229.515 1.48566 228.832 2.17661 228.832 3.02716C228.832 4.34667 230.359 5.47539 230.359 5.47539C230.359 5.47539 231.886 4.34667 231.886 3.02716C231.886 2.17572 231.203 1.48566 230.359 1.48566Z" fill="#0D0706"/>
<path d="M233.068 1.83462C234.376 1.83462 235.494 0.294007 235.494 0.294007C235.494 0.294007 234.376 -1.2475 233.068 -1.2475C232.225 -1.2475 231.541 -0.557432 231.541 0.294007C231.541 1.14545 232.224 1.83462 233.068 1.83462Z" fill="#0D0706"/>
<path d="M227.653 1.83456C228.496 1.83456 229.18 1.14539 229.18 0.293946C229.18 -0.557493 228.496 -1.24756 227.653 -1.24756C226.344 -1.24756 225.226 0.293946 225.226 0.293946C225.226 0.293946 226.344 1.83456 227.653 1.83456Z" fill="#0D0706"/>
<path d="M245.255 1.48572C244.412 1.48572 243.728 2.17667 243.728 3.02722C243.728 4.34673 245.255 5.47545 245.255 5.47545C245.255 5.47545 246.782 4.34673 246.782 3.02722C246.782 2.17578 246.099 1.48572 245.255 1.48572Z" fill="#0D0706"/>
<path d="M247.964 1.83438C249.272 1.83438 250.39 0.293763 250.39 0.293763C250.39 0.293763 249.271 -1.24774 247.964 -1.24774C247.121 -1.24774 246.437 -0.557677 246.437 0.293763C246.437 1.1452 247.12 1.83438 247.964 1.83438Z" fill="#0D0706"/>
<path d="M242.546 1.83456C243.39 1.83456 244.073 1.14539 244.073 0.293946C244.073 -0.557493 243.39 -1.24756 242.546 -1.24756C241.238 -1.24756 240.12 0.293946 240.12 0.293946C240.12 0.293946 241.238 1.83456 242.546 1.83456Z" fill="#0D0706"/>
<g clip-path="url(#clip0_747_267)">
<path d="M7.7447 67.4774C6.90092 67.4774 6.21768 68.1683 6.21768 69.0189C6.21768 70.3384 7.7447 71.4671 7.7447 71.4671C7.7447 71.4671 9.27172 70.3384 9.27172 69.0189C9.27172 68.1674 8.58848 67.4774 7.7447 67.4774Z" fill="#0D0706"/>
<path d="M7.7447 65.0922C8.58848 65.0922 9.27172 64.4021 9.27172 63.5507C9.27172 62.2303 7.7447 61.1016 7.7447 61.1016C7.7447 61.1016 6.21768 62.2294 6.21768 63.5507C6.21768 64.4012 6.90181 65.0922 7.7447 65.0922Z" fill="#0D0706"/>
<path d="M10.4528 67.8258C11.7613 67.8258 12.8789 66.2852 12.8789 66.2852C12.8789 66.2852 11.7604 64.7437 10.4528 64.7437C9.60988 64.7437 8.92575 65.4338 8.92575 66.2852C8.92575 67.1367 9.60988 67.8258 10.4528 67.8258Z" fill="#0D0706"/>
<path d="M5.03572 67.8258C5.87951 67.8258 6.56274 67.1367 6.56274 66.2852C6.56274 65.4338 5.87951 64.7437 5.03572 64.7437C3.72723 64.7437 2.60962 66.2852 2.60962 66.2852C2.60962 66.2852 3.72723 67.8258 5.03572 67.8258Z" fill="#0D0706"/>
<path d="M22.5893 67.4773C21.7455 67.4773 21.0623 68.1683 21.0623 69.0188C21.0623 70.3383 22.5893 71.467 22.5893 71.467C22.5893 71.467 24.1163 70.3383 24.1163 69.0188C24.1163 68.1674 23.4331 67.4773 22.5893 67.4773Z" fill="#0D0706"/>
<path d="M22.5893 65.0923C23.4331 65.0923 24.1163 64.4022 24.1163 63.5508C24.1163 62.2304 22.5893 61.1017 22.5893 61.1017C22.5893 61.1017 21.0623 62.2295 21.0623 63.5508C21.0623 64.4013 21.7464 65.0923 22.5893 65.0923Z" fill="#0D0706"/>
<path d="M25.2973 67.8259C26.6058 67.8259 27.7234 66.2853 27.7234 66.2853C27.7234 66.2853 26.6049 64.7438 25.2973 64.7438C24.4544 64.7438 23.7703 65.4338 23.7703 66.2853C23.7703 67.1367 24.4535 67.8259 25.2973 67.8259Z" fill="#0D0706"/>
<path d="M19.8801 67.8259C20.7239 67.8259 21.4071 67.1367 21.4071 66.2853C21.4071 65.4338 20.7239 64.7438 19.8801 64.7438C18.5716 64.7438 17.454 66.2853 17.454 66.2853C17.454 66.2853 18.5716 67.8259 19.8801 67.8259Z" fill="#0D0706"/>
<path d="M37.4334 67.4773C36.5896 67.4773 35.9064 68.1683 35.9064 69.0188C35.9064 70.3383 37.4334 71.467 37.4334 71.467C37.4334 71.467 38.9604 70.3383 38.9604 69.0188C38.9604 68.1674 38.2772 67.4773 37.4334 67.4773Z" fill="#0D0706"/>
<path d="M37.4334 65.0922C38.2772 65.0922 38.9604 64.4021 38.9604 63.5507C38.9604 62.2303 37.4334 61.1016 37.4334 61.1016C37.4334 61.1016 35.9064 62.2294 35.9064 63.5507C35.9064 64.4012 36.5905 65.0922 37.4334 65.0922Z" fill="#0D0706"/>
<path d="M40.1423 67.8259C41.4508 67.8259 42.5684 66.2853 42.5684 66.2853C42.5684 66.2853 41.4499 64.7438 40.1423 64.7438C39.2994 64.7438 38.6153 65.4338 38.6153 66.2853C38.6153 67.1367 39.2985 67.8259 40.1423 67.8259Z" fill="#0D0706"/>
<path d="M34.7251 67.8259C35.5688 67.8259 36.2521 67.1367 36.2521 66.2853C36.2521 65.4338 35.5688 64.7438 34.7251 64.7438C33.4166 64.7438 32.299 66.2853 32.299 66.2853C32.299 66.2853 33.4166 67.8259 34.7251 67.8259Z" fill="#0D0706"/>
<path d="M52.2781 67.4773C51.4343 67.4773 50.7511 68.1683 50.7511 69.0188C50.7511 70.3383 52.2781 71.467 52.2781 71.467C52.2781 71.467 53.8051 70.3383 53.8051 69.0188C53.8051 68.1674 53.1219 67.4773 52.2781 67.4773Z" fill="#0D0706"/>
<path d="M52.2781 65.0924C53.1219 65.0924 53.8051 64.4024 53.8051 63.5509C53.8051 62.2305 52.2781 61.1018 52.2781 61.1018C52.2781 61.1018 50.7511 62.2296 50.7511 63.5509C50.7511 64.4015 51.4352 65.0924 52.2781 65.0924Z" fill="#0D0706"/>
<path d="M54.9869 67.8259C56.2954 67.8259 57.413 66.2853 57.413 66.2853C57.413 66.2853 56.2945 64.7438 54.9869 64.7438C54.144 64.7438 53.4599 65.4338 53.4599 66.2853C53.4599 67.1367 54.144 67.8259 54.9869 67.8259Z" fill="#0D0706"/>
<path d="M49.5708 67.8259C50.4145 67.8259 51.0978 67.1367 51.0978 66.2853C51.0978 65.4338 50.4145 64.7438 49.5708 64.7438C48.2623 64.7438 47.1447 66.2853 47.1447 66.2853C47.1447 66.2853 48.2623 67.8259 49.5708 67.8259Z" fill="#0D0706"/>
<path d="M67.0709 67.4773C66.2271 67.4773 65.5439 68.1683 65.5439 69.0188C65.5439 70.3383 67.0709 71.467 67.0709 71.467C67.0709 71.467 68.5979 70.3383 68.5979 69.0188C68.5979 68.1674 67.9147 67.4773 67.0709 67.4773Z" fill="#0D0706"/>
<path d="M67.0709 65.0923C67.9147 65.0923 68.5979 64.4022 68.5979 63.5508C68.5979 62.2304 67.0709 61.1017 67.0709 61.1017C67.0709 61.1017 65.5439 62.2295 65.5439 63.5508C65.5439 64.4013 66.228 65.0923 67.0709 65.0923Z" fill="#0D0706"/>
<path d="M69.7802 67.8259C71.0887 67.8259 72.2063 66.2853 72.2063 66.2853C72.2063 66.2853 71.0878 64.7438 69.7802 64.7438C68.9373 64.7438 68.2531 65.4338 68.2531 66.2853C68.2531 67.1367 68.9364 67.8259 69.7802 67.8259Z" fill="#0D0706"/>
<path d="M64.3628 67.8259C65.2065 67.8259 65.8898 67.1367 65.8898 66.2853C65.8898 65.4338 65.2065 64.7438 64.3628 64.7438C63.0543 64.7438 61.9366 66.2853 61.9366 66.2853C61.9366 66.2853 63.0543 67.8259 64.3628 67.8259Z" fill="#0D0706"/>
<path d="M81.9156 67.4776C81.0718 67.4776 80.3886 68.1686 80.3886 69.0191C80.3886 70.3386 81.9156 71.4673 81.9156 71.4673C81.9156 71.4673 83.4426 70.3386 83.4426 69.0191C83.4426 68.1677 82.7594 67.4776 81.9156 67.4776Z" fill="#0D0706"/>
<path d="M81.9156 65.0924C82.7594 65.0924 83.4426 64.4024 83.4426 63.5509C83.4426 62.2305 81.9156 61.1018 81.9156 61.1018C81.9156 61.1018 80.3886 62.2296 80.3886 63.5509C80.3886 64.4015 81.0727 65.0924 81.9156 65.0924Z" fill="#0D0706"/>
<path d="M84.6238 67.826C85.9323 67.826 87.0499 66.2854 87.0499 66.2854C87.0499 66.2854 85.9314 64.7439 84.6238 64.7439C83.7809 64.7439 83.0968 65.434 83.0968 66.2854C83.0968 67.1368 83.78 67.826 84.6238 67.826Z" fill="#0D0706"/>
<path d="M79.2065 67.8261C80.0502 67.8261 80.7335 67.137 80.7335 66.2855C80.7335 65.4341 80.0502 64.744 79.2065 64.744C77.898 64.744 76.7804 66.2855 76.7804 66.2855C76.7804 66.2855 77.898 67.8261 79.2065 67.8261Z" fill="#0D0706"/>
<path d="M96.7607 67.4774C95.9169 67.4774 95.2336 68.1684 95.2336 69.0189C95.2336 70.3384 96.7607 71.4671 96.7607 71.4671C96.7607 71.4671 98.2877 70.3384 98.2877 69.0189C98.2877 68.1675 97.6044 67.4774 96.7607 67.4774Z" fill="#0D0706"/>
<path d="M96.7607 65.0925C97.6044 65.0925 98.2877 64.4025 98.2877 63.551C98.2877 62.2306 96.7607 61.1019 96.7607 61.1019C96.7607 61.1019 95.2336 62.2297 95.2336 63.551C95.2336 64.4016 95.9178 65.0925 96.7607 65.0925Z" fill="#0D0706"/>
<path d="M99.4687 67.8259C100.777 67.8259 101.895 66.2853 101.895 66.2853C101.895 66.2853 100.776 64.7438 99.4687 64.7438C98.6258 64.7438 97.9417 65.4338 97.9417 66.2853C97.9417 67.1367 98.6249 67.8259 99.4687 67.8259Z" fill="#0D0706"/>
<path d="M94.0514 67.826C94.8951 67.826 95.5784 67.1368 95.5784 66.2854C95.5784 65.434 94.8951 64.7439 94.0514 64.7439C92.7429 64.7439 91.6252 66.2854 91.6252 66.2854C91.6252 66.2854 92.7429 67.826 94.0514 67.826Z" fill="#0D0706"/>
<path d="M111.654 67.4775C110.81 67.4775 110.127 68.1685 110.127 69.019C110.127 70.3386 111.654 71.4673 111.654 71.4673C111.654 71.4673 113.181 70.3386 113.181 69.019C113.181 68.1676 112.498 67.4775 111.654 67.4775Z" fill="#0D0706"/>
<path d="M111.654 65.0927C112.498 65.0927 113.181 64.4026 113.181 63.5512C113.181 62.2308 111.654 61.1021 111.654 61.1021C111.654 61.1021 110.127 62.2299 110.127 63.5512C110.127 64.4017 110.811 65.0927 111.654 65.0927Z" fill="#0D0706"/>
<path d="M114.363 67.8261C115.671 67.8261 116.789 66.2855 116.789 66.2855C116.789 66.2855 115.67 64.744 114.363 64.744C113.52 64.744 112.836 65.4341 112.836 66.2855C112.836 67.137 113.519 67.8261 114.363 67.8261Z" fill="#0D0706"/>
<path d="M108.947 67.8261C109.79 67.8261 110.474 67.137 110.474 66.2855C110.474 65.4341 109.79 64.744 108.947 64.744C107.638 64.744 106.521 66.2855 106.521 66.2855C106.521 66.2855 107.638 67.8261 108.947 67.8261Z" fill="#0D0706"/>
<path d="M126.5 67.4773C125.657 67.4773 124.973 68.1683 124.973 69.0188C124.973 70.3383 126.5 71.467 126.5 71.467C126.5 71.467 128.027 70.3383 128.027 69.0188C128.027 68.1674 127.344 67.4773 126.5 67.4773Z" fill="#0D0706"/>
<path d="M126.5 65.0923C127.344 65.0923 128.027 64.4022 128.027 63.5508C128.027 62.2304 126.5 61.1017 126.5 61.1017C126.5 61.1017 124.973 62.2295 124.973 63.5508C124.973 64.4013 125.657 65.0923 126.5 65.0923Z" fill="#0D0706"/>
<path d="M129.208 67.8259C130.516 67.8259 131.634 66.2853 131.634 66.2853C131.634 66.2853 130.515 64.7438 129.208 64.7438C128.365 64.7438 127.681 65.4338 127.681 66.2853C127.681 67.1367 128.364 67.8259 129.208 67.8259Z" fill="#0D0706"/>
<path d="M123.79 67.8259C124.634 67.8259 125.317 67.1367 125.317 66.2853C125.317 65.4338 124.634 64.7438 123.79 64.7438C122.482 64.7438 121.364 66.2853 121.364 66.2853C121.364 66.2853 122.482 67.8259 123.79 67.8259Z" fill="#0D0706"/>
<path d="M141.345 67.4774C140.502 67.4774 139.818 68.1683 139.818 69.0189C139.818 70.3384 141.345 71.4671 141.345 71.4671C141.345 71.4671 142.872 70.3384 142.872 69.0189C142.872 68.1674 142.189 67.4774 141.345 67.4774Z" fill="#0D0706"/>
<path d="M141.345 65.0922C142.189 65.0922 142.872 64.4021 142.872 63.5507C142.872 62.2303 141.345 61.1016 141.345 61.1016C141.345 61.1016 139.818 62.2294 139.818 63.5507C139.818 64.4012 140.502 65.0922 141.345 65.0922Z" fill="#0D0706"/>
<path d="M144.052 67.8259C145.361 67.8259 146.478 66.2853 146.478 66.2853C146.478 66.2853 145.36 64.7438 144.052 64.7438C143.209 64.7438 142.525 65.4338 142.525 66.2853C142.525 67.1367 143.209 67.8259 144.052 67.8259Z" fill="#0D0706"/>
<path d="M138.636 67.8259C139.48 67.8259 140.163 67.1367 140.163 66.2853C140.163 65.4338 139.48 64.7438 138.636 64.7438C137.328 64.7438 136.21 66.2853 136.21 66.2853C136.21 66.2853 137.328 67.8259 138.636 67.8259Z" fill="#0D0706"/>
<path d="M141.345 67.4774C140.502 67.4774 139.818 68.1683 139.818 69.0189C139.818 70.3384 141.345 71.4671 141.345 71.4671C141.345 71.4671 142.872 70.3384 142.872 69.0189C142.872 68.1674 142.189 67.4774 141.345 67.4774Z" fill="#0D0706"/>
<path d="M141.345 65.0922C142.189 65.0922 142.872 64.4021 142.872 63.5507C142.872 62.2303 141.345 61.1016 141.345 61.1016C141.345 61.1016 139.818 62.2294 139.818 63.5507C139.818 64.4012 140.502 65.0922 141.345 65.0922Z" fill="#0D0706"/>
<path d="M144.052 67.8259C145.361 67.8259 146.478 66.2853 146.478 66.2853C146.478 66.2853 145.36 64.7438 144.052 64.7438C143.209 64.7438 142.525 65.4338 142.525 66.2853C142.525 67.1367 143.209 67.8259 144.052 67.8259Z" fill="#0D0706"/>
<path d="M138.636 67.8259C139.48 67.8259 140.163 67.1367 140.163 66.2853C140.163 65.4338 139.48 64.7438 138.636 64.7438C137.328 64.7438 136.21 66.2853 136.21 66.2853C136.21 66.2853 137.328 67.8259 138.636 67.8259Z" fill="#0D0706"/>
<path d="M156.189 67.4773C155.345 67.4773 154.662 68.1683 154.662 69.0188C154.662 70.3383 156.189 71.467 156.189 71.467C156.189 71.467 157.716 70.3383 157.716 69.0188C157.716 68.1674 157.033 67.4773 156.189 67.4773Z" fill="#0D0706"/>
<path d="M156.189 65.0922C157.033 65.0922 157.716 64.4021 157.716 63.5507C157.716 62.2303 156.189 61.1016 156.189 61.1016C156.189 61.1016 154.662 62.2294 154.662 63.5507C154.662 64.4012 155.346 65.0922 156.189 65.0922Z" fill="#0D0706"/>
<path d="M158.897 67.8259C160.205 67.8259 161.323 66.2853 161.323 66.2853C161.323 66.2853 160.205 64.7438 158.897 64.7438C158.054 64.7438 157.37 65.4338 157.37 66.2853C157.37 67.1367 158.053 67.8259 158.897 67.8259Z" fill="#0D0706"/>
<path d="M153.481 67.8259C154.324 67.8259 155.008 67.1367 155.008 66.2853C155.008 65.4338 154.324 64.7438 153.481 64.7438C152.172 64.7438 151.055 66.2853 151.055 66.2853C151.055 66.2853 152.172 67.8259 153.481 67.8259Z" fill="#0D0706"/>
<path d="M171.035 67.4775C170.191 67.4775 169.508 68.1685 169.508 69.019C169.508 70.3386 171.035 71.4673 171.035 71.4673C171.035 71.4673 172.562 70.3386 172.562 69.019C172.562 68.1676 171.879 67.4775 171.035 67.4775Z" fill="#0D0706"/>
<path d="M171.035 65.0927C171.879 65.0927 172.562 64.4026 172.562 63.5512C172.562 62.2308 171.035 61.1021 171.035 61.1021C171.035 61.1021 169.508 62.2299 169.508 63.5512C169.508 64.4017 170.192 65.0927 171.035 65.0927Z" fill="#0D0706"/>
<path d="M173.743 67.826C175.051 67.826 176.169 66.2854 176.169 66.2854C176.169 66.2854 175.051 64.7439 173.743 64.7439C172.9 64.7439 172.216 65.434 172.216 66.2854C172.216 67.1368 172.899 67.826 173.743 67.826Z" fill="#0D0706"/>
<path d="M168.326 67.8261C169.169 67.8261 169.853 67.137 169.853 66.2855C169.853 65.4341 169.169 64.744 168.326 64.744C167.017 64.744 165.9 66.2855 165.9 66.2855C165.9 66.2855 167.017 67.8261 168.326 67.8261Z" fill="#0D0706"/>
<path d="M185.878 67.4776C185.035 67.4776 184.351 68.1686 184.351 69.0191C184.351 70.3386 185.878 71.4673 185.878 71.4673C185.878 71.4673 187.406 70.3386 187.406 69.0191C187.406 68.1677 186.722 67.4776 185.878 67.4776Z" fill="#0D0706"/>
<path d="M185.878 65.0924C186.722 65.0924 187.406 64.4024 187.406 63.5509C187.406 62.2305 185.878 61.1018 185.878 61.1018C185.878 61.1018 184.351 62.2296 184.351 63.5509C184.351 64.4015 185.036 65.0924 185.878 65.0924Z" fill="#0D0706"/>
<path d="M188.586 67.8261C189.895 67.8261 191.013 66.2855 191.013 66.2855C191.013 66.2855 189.894 64.744 188.586 64.744C187.744 64.744 187.059 65.4341 187.059 66.2855C187.059 67.137 187.744 67.8261 188.586 67.8261Z" fill="#0D0706"/>
<path d="M183.169 67.8261C184.013 67.8261 184.696 67.137 184.696 66.2855C184.696 65.4341 184.013 64.744 183.169 64.744C181.861 64.744 180.743 66.2855 180.743 66.2855C180.743 66.2855 181.861 67.8261 183.169 67.8261Z" fill="#0D0706"/>
<path d="M200.672 67.4775C199.828 67.4775 199.145 68.1685 199.145 69.019C199.145 70.3386 200.672 71.4673 200.672 71.4673C200.672 71.4673 202.199 70.3386 202.199 69.019C202.199 68.1676 201.515 67.4775 200.672 67.4775Z" fill="#0D0706"/>
<path d="M200.672 65.0927C201.515 65.0927 202.199 64.4026 202.199 63.5512C202.199 62.2308 200.672 61.1021 200.672 61.1021C200.672 61.1021 199.145 62.2299 199.145 63.5512C199.145 64.4017 199.829 65.0927 200.672 65.0927Z" fill="#0D0706"/>
<path d="M203.381 67.8261C204.689 67.8261 205.807 66.2855 205.807 66.2855C205.807 66.2855 204.688 64.744 203.381 64.744C202.538 64.744 201.854 65.4341 201.854 66.2855C201.854 67.137 202.537 67.8261 203.381 67.8261Z" fill="#0D0706"/>
<path d="M197.964 67.8261C198.807 67.8261 199.491 67.137 199.491 66.2855C199.491 65.4341 198.807 64.744 197.964 64.744C196.655 64.744 195.537 66.2855 195.537 66.2855C195.537 66.2855 196.655 67.8261 197.964 67.8261Z" fill="#0D0706"/>
<path d="M215.516 67.4775C214.673 67.4775 213.989 68.1685 213.989 69.019C213.989 70.3386 215.516 71.4673 215.516 71.4673C215.516 71.4673 217.043 70.3386 217.043 69.019C217.043 68.1676 216.36 67.4775 215.516 67.4775Z" fill="#0D0706"/>
<path d="M215.516 65.0927C216.36 65.0927 217.043 64.4026 217.043 63.5512C217.043 62.2308 215.516 61.1021 215.516 61.1021C215.516 61.1021 213.989 62.2299 213.989 63.5512C213.989 64.4017 214.674 65.0927 215.516 65.0927Z" fill="#0D0706"/>
<path d="M218.224 67.8261C219.533 67.8261 220.65 66.2855 220.65 66.2855C220.65 66.2855 219.532 64.744 218.224 64.744C217.381 64.744 216.697 65.4341 216.697 66.2855C216.697 67.137 217.38 67.8261 218.224 67.8261Z" fill="#0D0706"/>
<path d="M212.808 67.8261C213.652 67.8261 214.335 67.137 214.335 66.2855C214.335 65.4341 213.652 64.744 212.808 64.744C211.5 64.744 210.382 66.2855 210.382 66.2855C210.382 66.2855 211.5 67.8261 212.808 67.8261Z" fill="#0D0706"/>
<path d="M230.359 67.4773C229.515 67.4773 228.832 68.1683 228.832 69.0188C228.832 70.3383 230.359 71.467 230.359 71.467C230.359 71.467 231.886 70.3383 231.886 69.0188C231.886 68.1674 231.203 67.4773 230.359 67.4773Z" fill="#0D0706"/>
<path d="M230.359 65.0922C231.203 65.0922 231.886 64.4021 231.886 63.5507C231.886 62.2303 230.359 61.1016 230.359 61.1016C230.359 61.1016 228.832 62.2294 228.832 63.5507C228.832 64.4012 229.516 65.0922 230.359 65.0922Z" fill="#0D0706"/>
<path d="M233.068 67.8258C234.377 67.8258 235.494 66.2852 235.494 66.2852C235.494 66.2852 234.376 64.7437 233.068 64.7437C232.225 64.7437 231.541 65.4337 231.541 66.2852C231.541 67.1366 232.224 67.8258 233.068 67.8258Z" fill="#0D0706"/>
<path d="M227.653 67.8259C228.497 67.8259 229.18 67.1367 229.18 66.2853C229.18 65.4338 228.497 64.7438 227.653 64.7438C226.344 64.7438 225.227 66.2853 225.227 66.2853C225.227 66.2853 226.344 67.8259 227.653 67.8259Z" fill="#0D0706"/>
<path d="M245.256 67.4774C244.412 67.4774 243.729 68.1683 243.729 69.0189C243.729 70.3384 245.256 71.4671 245.256 71.4671C245.256 71.4671 246.783 70.3384 246.783 69.0189C246.783 68.1674 246.099 67.4774 245.256 67.4774Z" fill="#0D0706"/>
<path d="M245.256 65.0922C246.099 65.0922 246.783 64.4021 246.783 63.5507C246.783 62.2303 245.256 61.1016 245.256 61.1016C245.256 61.1016 243.729 62.2294 243.729 63.5507C243.729 64.4012 244.413 65.0922 245.256 65.0922Z" fill="#0D0706"/>
<path d="M247.964 67.8258C249.272 67.8258 250.39 66.2852 250.39 66.2852C250.39 66.2852 249.271 64.7437 247.964 64.7437C247.121 64.7437 246.437 65.4337 246.437 66.2852C246.437 67.1366 247.12 67.8258 247.964 67.8258Z" fill="#0D0706"/>
<path d="M242.547 67.8259C243.39 67.8259 244.074 67.1367 244.074 66.2853C244.074 65.4338 243.39 64.7438 242.547 64.7438C241.238 64.7438 240.12 66.2853 240.12 66.2853C240.12 66.2853 241.238 67.8259 242.547 67.8259Z" fill="#0D0706"/>
</g>
<path d="M1.93732 0.164368H0.0811768V66.2245H1.93732V0.164368Z" fill="#E50064"/>
<path d="M11.7293 26.2443C11.7409 30.0147 9.24883 31.4885 7.05017 32.7884C6.81915 32.9248 6.59082 33.0603 6.36783 33.1949C6.59082 33.3295 6.81826 33.4651 7.05017 33.6015C9.24883 34.9014 11.7409 36.3742 11.7293 40.1446C11.7204 43.1099 9.29967 45.5145 6.33393 45.5056C3.90337 45.4984 1.93127 43.5156 1.9384 41.0852C1.94197 40.1152 2.32283 39.204 3.01053 38.5202C3.69911 37.8364 4.61247 37.4619 5.58291 37.4646C7.24461 37.469 8.59146 38.8242 8.58611 40.4852C8.58611 40.5021 8.58254 40.5182 8.58076 40.5351C8.5531 41.7387 7.56482 42.7087 6.35534 42.7043C5.13069 42.7007 4.13706 41.7013 4.14063 40.4772C4.1433 39.6418 4.60979 38.9143 5.2957 38.5371C4.71504 38.5987 4.17631 38.8527 3.7562 39.27C3.2683 39.755 2.99804 40.4005 2.99626 41.0879C2.99001 42.9352 4.48938 44.4419 6.3375 44.4482C8.7199 44.4553 10.6644 42.5233 10.6715 40.1419C10.6813 36.976 8.65568 35.7786 6.51232 34.5108C5.83444 34.1105 5.12802 33.6924 4.47957 33.194C5.12802 32.6965 5.83444 32.2775 6.51232 31.8772C8.65568 30.6103 10.6813 29.4129 10.6715 26.247C10.6644 23.8656 8.7199 21.9336 6.3375 21.9408C4.48938 21.9461 2.99001 23.4537 2.99626 25.301C2.99804 25.9884 3.2683 26.6348 3.7562 27.1189C4.17631 27.5362 4.71504 27.7912 5.2957 27.8518C4.60979 27.4747 4.14241 26.7472 4.14063 25.9118C4.13706 24.6877 5.13069 23.6882 6.35534 23.6846C7.56572 23.6802 8.554 24.6502 8.58076 25.8538C8.58254 25.8707 8.58611 25.8868 8.58611 25.9037C8.59057 27.5638 7.24372 28.919 5.58291 28.9243C4.61247 28.927 3.69911 28.5526 3.01053 27.8678C2.32194 27.184 1.94108 26.2728 1.9384 25.3028C1.93127 22.8724 3.90337 20.8896 6.33393 20.8825C9.29967 20.8736 11.7204 23.2781 11.7293 26.2434V26.2443Z" fill="#E50064"/>
<path d="M17.7777 26.6788L15.7481 28.7075L17.7777 30.7362L19.8073 28.7075L17.7777 26.6788Z" fill="#E50064"/>
<path d="M17.7733 31.1727L15.7433 33.2011L17.7726 35.2302L19.8026 33.2018L17.7733 31.1727Z" fill="#E50064"/>
<path d="M17.7798 35.648L15.7502 37.6768L17.7799 39.7055L19.8095 37.6768L17.7798 35.648Z" fill="#E50064"/>
<path d="M22.2637 31.1684L20.2341 33.1971L22.2637 35.2258L24.2933 33.1971L22.2637 31.1684Z" fill="#E50064"/>
<path d="M11.2585 33.195L13.2876 35.2233L15.3168 33.195L13.2876 31.1658L11.2585 33.195Z" fill="#E50064"/>
<path d="M27.3612 33.1948L29.3904 35.2231L31.4196 33.1948L29.3904 31.1656L27.3612 33.1948Z" fill="#0D0706"/>
<path d="M6.84603 7.75468L5.30774 9.2923L6.84603 10.8299L8.38431 9.2923L6.84603 7.75468Z" fill="#E50064"/>
<path d="M6.84239 11.1596L5.30383 12.697L6.84185 14.2348L8.38041 12.6975L6.84239 11.1596Z" fill="#E50064"/>
<path d="M6.8481 14.5513L5.30981 16.0889L6.8481 17.6265L8.38639 16.0889L6.8481 14.5513Z" fill="#E50064"/>
<path d="M10.2468 11.1573L8.70911 12.6943L10.2468 14.2313L11.7844 12.6943L10.2468 11.1573Z" fill="#E50064"/>
<path d="M3.44864 11.1514L1.91125 12.6887L3.44918 14.2254L4.98657 12.6881L3.44864 11.1514Z" fill="#E50064"/>
<path d="M15.6486 11.1506L14.1112 12.6879L15.6492 14.2246L17.1865 12.6873L15.6486 11.1506Z" fill="#0D0706"/>
<path d="M6.84493 48.8486L5.30664 50.3862L6.84493 51.9238L8.38321 50.3862L6.84493 48.8486Z" fill="#E50064"/>
<path d="M6.84044 52.2559L5.30188 53.7933L6.8399 55.3312L8.37845 53.7938L6.84044 52.2559Z" fill="#E50064"/>
<path d="M6.8499 55.6441L5.31161 57.1818L6.8499 58.7194L8.38819 57.1818L6.8499 55.6441Z" fill="#E50064"/>
<path d="M10.2449 52.2519L8.70721 53.7889L10.2449 55.3259L11.7825 53.7889L10.2449 52.2519Z" fill="#E50064"/>
<path d="M3.45072 52.2426L1.91333 53.7798L3.45125 55.3166L4.98864 53.7793L3.45072 52.2426Z" fill="#E50064"/>
<path d="M15.6508 52.242L14.1134 53.7792L15.6513 55.316L17.1887 53.7787L15.6508 52.242Z" fill="#0D0706"/>
<path d="M251.062 66.2256H252.918V0.165474H251.062V66.2256Z" fill="#E50064"/>
<path d="M241.27 26.2444C241.258 30.0148 243.75 31.4885 245.949 32.7884C246.18 32.9248 246.408 33.0603 246.631 33.195C246.408 33.3296 246.181 33.4651 245.949 33.6015C243.75 34.9014 241.258 36.3743 241.27 40.1447C241.279 43.11 243.7 45.5145 246.665 45.5056C249.096 45.4985 251.068 43.5157 251.061 41.0853C251.057 40.1153 250.676 39.2041 249.989 38.5203C249.3 37.8364 248.387 37.462 247.416 37.4646C245.755 37.4691 244.408 38.8243 244.413 40.4853C244.413 40.5022 244.417 40.5182 244.418 40.5352C244.446 41.7388 245.434 42.7088 246.644 42.7043C247.869 42.7008 248.862 41.7013 248.859 40.4772C248.856 39.6418 248.389 38.9143 247.704 38.5372C248.284 38.5987 248.823 38.8528 249.243 39.2701C249.731 39.7551 250.001 40.4006 250.003 41.0879C250.009 42.9353 248.51 44.442 246.662 44.4482C244.279 44.4554 242.335 42.5234 242.328 40.142C242.318 36.9761 244.344 35.7787 246.487 34.5109C247.165 34.1106 247.871 33.6925 248.52 33.1941C247.871 32.6966 247.165 32.2776 246.487 31.8773C244.344 30.6103 242.318 29.413 242.328 26.2471C242.335 23.8657 244.279 21.9337 246.662 21.9408C248.51 21.9462 250.009 23.4538 250.003 25.3011C250.001 25.9885 249.731 26.6349 249.243 27.119C248.823 27.5362 248.284 27.7912 247.704 27.8519C248.389 27.4747 248.857 26.7472 248.859 25.9118C248.862 24.6877 247.869 23.6883 246.644 23.6847C245.434 23.6803 244.445 24.6503 244.418 25.8539C244.417 25.8708 244.413 25.8869 244.413 25.9038C244.409 27.5639 245.756 28.919 247.416 28.9244C248.387 28.9271 249.3 28.5526 249.989 27.8679C250.677 27.1841 251.058 26.2729 251.061 25.3029C251.068 22.8725 249.096 20.8897 246.665 20.8825C243.7 20.8736 241.279 23.2782 241.27 26.2435V26.2444Z" fill="#E50064"/>
<path d="M235.222 26.68L233.193 28.7087L235.222 30.7374L237.252 28.7087L235.222 26.68Z" fill="#E50064"/>
<path d="M235.215 31.1477L233.186 33.1768L235.216 35.2052L237.245 33.1761L235.215 31.1477Z" fill="#E50064"/>
<path d="M235.227 35.6643L233.198 37.693L235.227 39.7217L237.257 37.693L235.227 35.6643Z" fill="#E50064"/>
<path d="M230.732 31.1608L228.702 33.1895L230.732 35.2182L232.761 33.1895L230.732 31.1608Z" fill="#E50064"/>
<path d="M241.741 33.1948L239.711 35.2231L237.682 33.1948L239.711 31.1656L241.741 33.1948Z" fill="#E50064"/>
<path d="M223.616 31.1838L221.586 33.2122L223.616 35.2412L225.645 33.2129L223.616 31.1838Z" fill="#0D0706"/>
<path d="M246.153 7.75451L244.615 9.29211L246.153 10.8297L247.691 9.29212L246.153 7.75451Z" fill="#E50064"/>
<path d="M246.145 11.1366L244.607 12.6744L246.145 14.2118L247.683 12.6739L246.145 11.1366Z" fill="#E50064"/>
<path d="M246.16 14.5663L244.621 16.1039L246.16 17.6415L247.698 16.1039L246.16 14.5663Z" fill="#E50064"/>
<path d="M242.75 11.1511L241.212 12.6881L242.75 14.2251L244.287 12.6881L242.75 11.1511Z" fill="#E50064"/>
<path d="M249.565 11.1741L248.027 12.7108L249.564 14.2481L251.102 12.7114L249.565 11.1741Z" fill="#E50064"/>
<path d="M237.363 11.1747L235.825 12.7114L237.362 14.2487L238.9 12.712L237.363 11.1747Z" fill="#0D0706"/>
<path d="M246.154 48.8484L244.615 50.386L246.154 51.9237L247.692 50.3861L246.154 48.8484Z" fill="#E50064"/>
<path d="M246.147 52.2292L244.609 53.767L246.148 55.3044L247.686 53.7665L246.147 52.2292Z" fill="#E50064"/>
<path d="M246.159 55.661L244.62 57.1986L246.159 58.7362L247.697 57.1986L246.159 55.661Z" fill="#E50064"/>
<path d="M242.752 52.2433L241.214 53.7803L242.752 55.3173L244.289 53.7803L242.752 52.2433Z" fill="#E50064"/>
<path d="M249.562 52.2695L248.025 53.8062L249.562 55.3435L251.1 53.8068L249.562 52.2695Z" fill="#E50064"/>
<path d="M237.361 52.27L235.823 53.8068L237.36 55.344L238.898 53.8073L237.361 52.27Z" fill="#0D0706"/>
<defs>
<clipPath id="clip0_747_267">
<rect width="247" height="7" fill="white" transform="translate(3.00012 61)"/>
</clipPath>
</defs>
</svg>
