<svg width="136" height="104" viewBox="0 0 136 104" fill="none" xmlns="http://www.w3.org/2000/svg">
<path fill-rule="evenodd" clip-rule="evenodd" d="M10.5022 92.4609C10.5022 94.174 11.4068 96.1005 12.9692 97.809L13.5472 97.1739C12.558 96.1896 11.9777 94.9802 11.9777 93.8507C11.9777 92.8828 12.7202 92.0672 13.5472 92.0672H15.3564V95.8802V96.8387L17.081 98.2144V95.8802V88.7512H18.8925L17.9127 86.9676H8.60371L9.59993 88.7512H15.3564V90.2861H12.6356C11.4843 90.2861 10.5022 91.2586 10.5022 92.4609Z" fill="black"/>
<path fill-rule="evenodd" clip-rule="evenodd" d="M15.9301 86.9675H16.6797C16.0171 85.8426 15.3592 84.7083 14.6144 83.6443C13.785 82.353 12.7183 81.5398 11.7315 81.5398C11.4848 81.5398 11.2357 81.6219 10.9984 81.7063L11.8161 83.6443C12.2319 83.4029 12.5585 83.3373 12.7183 83.3373C13.2986 83.3373 13.785 83.6443 14.1186 84.1365L15.9301 86.9675Z" fill="black"/>
<path fill-rule="evenodd" clip-rule="evenodd" d="M19.145 91.1711C20.1272 94.4146 21.9481 96.5168 23.7502 96.5168C24.5725 96.5168 25.322 95.6988 25.322 94.7332C25.322 94.0067 24.9132 93.1279 24.3282 92.31H26.8046V95.8816V96.8378L28.5339 98.2158V95.8816V88.7525H30.336L29.3515 86.9691H17.5826L18.567 88.7525H26.8046V90.2876H22.5214L22.2747 90.693C23.0947 91.3398 23.5881 92.3991 23.5881 93.292C23.5881 93.8521 23.2615 94.2552 22.761 94.2552C21.6215 94.2552 20.4608 92.8842 19.8029 90.857L19.145 91.1711Z" fill="black"/>
<path fill-rule="evenodd" clip-rule="evenodd" d="M29.934 88.7516H31.6609V95.8807V96.8392L33.3832 98.2148V95.8807V88.7516H35.19L34.2079 86.9682H33.1388C32.643 86.5628 32.4011 85.9206 32.4011 85.2691C32.4011 83.8934 34.0434 82.6795 36.0993 82.7569C40.0583 82.7569 43.679 83.8934 46.4773 86.1619L46.8861 85.8409C43.921 83.0005 39.727 81.5405 35.19 81.5405C32.7276 81.5405 30.8339 82.7568 30.8339 84.2965C30.8339 85.4261 31.332 86.3941 32.1543 86.9682H28.9425L29.934 88.7516Z" fill="black"/>
<path fill-rule="evenodd" clip-rule="evenodd" d="M39.3948 98.3857L40.2195 97.7295L37.4164 94.7321C38.1542 94.4977 38.6593 93.7736 38.8215 92.883C39.477 93.7736 40.2195 94.2563 40.7152 94.2563C41.2157 94.2563 41.6973 94.172 42.0263 93.8533V91.9877C41.6973 92.3979 41.1287 92.6275 40.3792 92.6275C39.7989 92.6275 39.3149 92.4612 38.9061 92.1425V88.7513H41.8618L40.8703 86.9679H33.7934L34.7896 88.7513H37.1744V91.2589C37.1744 91.655 37.0123 91.9878 36.8455 92.1425C36.5166 91.8238 36.1829 91.5871 35.9339 91.5871C35.6049 91.5871 35.3629 91.8987 35.3629 92.3111C35.3629 92.883 35.7741 93.7736 36.5166 94.7321L39.3948 98.3857Z" fill="black"/>
<path fill-rule="evenodd" clip-rule="evenodd" d="M45.7337 86.9675H40.4589L41.4528 88.7509H45.7337V86.9675ZM42.2822 92.3084C42.2822 94.0052 44.2464 96.1894 45.7337 96.1894V94.6637C45.4846 94.6637 45.2426 94.7317 45.0711 94.7317C44.0819 94.7317 43.3489 94.0052 43.3489 93.199C43.3489 92.2288 44.4179 91.4202 45.7337 91.4202V89.8852C45.4846 89.7962 45.1604 89.7071 44.9137 89.7071C43.4335 89.7071 42.2822 90.8554 42.2822 92.3084ZM45.7337 96.1894C46.3939 96.1894 47.2233 95.7863 48.1232 94.9824V95.88V96.8385L49.8501 98.2141V95.88V88.7509H51.6687L50.6772 86.9675H45.7337V88.7509H48.1232V91.7413C47.3807 90.7734 46.5607 90.1196 45.7337 89.8852V91.4202C46.4761 91.4202 47.3008 91.8983 48.1232 92.7162C47.3807 93.6888 46.5607 94.3239 45.7337 94.6637V96.1894Z" fill="black"/>
<path fill-rule="evenodd" clip-rule="evenodd" d="M55.5889 92.4609C55.5889 93.5999 56.6509 95.224 57.384 95.1443C57.5461 95.1443 57.7928 94.8186 57.7928 94.4155V93.8507C57.7928 93.5999 57.955 93.3514 58.1288 93.3514H60.3327V95.8802V96.8387L62.055 98.2144V95.8802V88.7512H63.8571L62.875 86.9676H55.0697L54.9311 88.7512H60.3327V91.5868H56.4019C55.9954 91.5868 55.5889 91.9898 55.5889 92.4609Z" fill="black"/>
<path fill-rule="evenodd" clip-rule="evenodd" d="M63.4506 88.7516H65.0859V95.8807V96.8392L66.8057 98.2148V95.8807V88.7516H68.6055L67.6234 86.9682H62.4684L63.4506 88.7516Z" fill="black"/>
<path fill-rule="evenodd" clip-rule="evenodd" d="M72.3773 86.9675H67.2177L68.2021 88.7509H72.3773V86.9675ZM69.0127 92.3084C69.0127 94.0052 70.8195 96.1894 72.3773 96.1894V94.6637C72.1259 94.6637 71.8722 94.7317 71.6395 94.7317C70.7373 94.7317 69.9995 94.0052 69.9995 93.199C69.9995 92.2288 71.0662 91.4202 72.3773 91.4202V89.8852C72.1259 89.7962 71.7923 89.7071 71.5573 89.7071C70.0818 89.7071 69.0127 90.8554 69.0127 92.3084ZM72.3773 96.1894C73.0305 96.1894 73.8528 95.7863 74.6681 94.9824V95.88V96.8385L76.4655 98.2141V95.88V88.7509H78.1925L77.2033 86.9675H72.3773V88.7509H74.6681V91.7413C74.0126 90.7734 73.1926 90.1196 72.3773 89.8852V91.4202C73.108 91.4202 73.9351 91.8983 74.6681 92.7162C74.0126 93.6888 73.108 94.3239 72.3773 94.6637V96.1894Z" fill="black"/>
<path fill-rule="evenodd" clip-rule="evenodd" d="M80.7262 93.2005C81.0505 92.8841 81.7366 92.4013 82.3052 92.4013L83.151 92.2536L83.0077 90.8569C81.1821 90.7116 80.8273 90.3248 80.8273 90.3248C80.1859 89.903 79.8405 89.4531 79.824 89.0711C79.8099 88.4922 80.1553 87.932 80.7262 87.707V86.3947H80.5594C79.4222 86.3947 78.5975 87.3696 78.5975 88.4922C78.5975 89.3945 79.3447 90.3647 80.5594 91.1709C79.582 91.4943 78.9312 92.2278 78.9312 93.0317C78.9312 94.0066 79.7512 95.1455 80.7262 95.7853V94.6628C80.409 94.4964 80.2375 94.255 80.2375 93.9175C80.2375 93.6879 80.409 93.3528 80.7262 93.2005ZM81.2197 87.6086C81.0505 87.6086 80.8884 87.6086 80.7262 87.707V86.3947M80.7262 95.7853C81.2196 96.1017 81.706 96.2775 82.1971 96.2775C83.1792 96.2775 84.1731 95.7853 84.9061 94.9815V95.8815V96.8377L86.7106 98.2156V95.8815V88.7499H88.4281L87.446 86.969H83.1792L84.1731 88.7499H84.9061V92.6286C83.9193 94.0066 82.526 94.8175 81.2972 94.8175C81.0505 94.8175 80.8884 94.8174 80.7262 94.6628V95.7853Z" fill="black"/>
<path fill-rule="evenodd" clip-rule="evenodd" d="M88.0216 88.7516H89.6546V95.8807V96.8392L91.4543 98.2148V95.8807V88.7516H93.1742L92.1921 86.9682H90.8834C90.4722 84.2966 89.0014 82.2717 87.3661 82.2717C86.2101 82.2717 85.3079 83.4036 85.3079 84.7089C85.3079 85.5995 85.4747 86.2323 85.806 86.7245H86.4592C86.3816 86.3941 86.2971 85.9955 86.2971 85.5081C86.2971 84.6222 86.9549 83.8934 87.8501 83.9684C88.8299 83.9684 89.7368 85.1895 89.9812 86.9682H87.0301L88.0216 88.7516Z" fill="black"/>
<path fill-rule="evenodd" clip-rule="evenodd" d="M93.7508 92.4609C93.7508 94.174 94.6554 96.1005 96.2061 97.809L96.7794 97.1739C95.7996 96.1896 95.1371 94.9802 95.217 93.8507C95.217 92.8828 95.8795 92.0672 96.7794 92.0672H98.4969V95.8802V96.8387L100.299 98.2144V95.8802V88.7512H102.019L101.037 86.9676H91.8618L92.8462 88.7512H98.4969V90.2861H95.8795C94.6554 90.2861 93.7508 91.2586 93.7508 92.4609Z" fill="black"/>
<path fill-rule="evenodd" clip-rule="evenodd" d="M102.354 93.0305C102.354 93.9187 104.072 95.8825 104.807 95.8825C105.052 95.8825 105.214 95.5497 105.214 95.1466V94.2537H106.685V92.4609H105.214V88.7512H106.685V86.9676H100.63L101.607 88.7512H103.414V92.4609H102.827C102.596 92.4609 102.354 92.7164 102.354 93.0305ZM106.685 94.2537H108.156V95.8825V96.8363L109.88 98.2168V95.8825V88.7512H111.682L110.7 86.9676H106.685V88.7512H108.156V92.4609H106.685V94.2537Z" fill="black"/>
<path fill-rule="evenodd" clip-rule="evenodd" d="M115.857 98.3857L116.679 97.7295L113.897 94.7321C114.63 94.4977 115.122 93.7736 115.291 92.883C115.942 93.7736 116.679 94.2563 117.175 94.2563C117.657 94.2563 118.152 94.172 118.479 93.8533V91.9877C118.237 92.3979 117.579 92.6275 116.841 92.6275C116.268 92.6275 115.782 92.4612 115.368 92.1425V88.7513H118.322L117.34 86.9679H110.296L111.271 88.7513H113.648V91.2589C113.648 91.655 113.566 91.9878 113.326 92.1425C112.995 91.8238 112.662 91.5871 112.424 91.5871C112.088 91.5871 111.851 91.8987 111.851 92.3111C111.851 92.883 112.26 93.7736 113.075 94.7321L115.857 98.3857Z" fill="black"/>
<path fill-rule="evenodd" clip-rule="evenodd" d="M118.807 92.4609C118.807 94.174 119.707 96.1005 121.265 97.809L121.838 97.1739C120.854 96.1896 120.283 94.9802 120.283 93.8507C120.283 92.8828 121.018 92.0672 121.838 92.0672H123.638V95.8802V96.8387L125.358 98.2144V95.8802V88.7512H127.164L126.178 86.9676H116.913L117.907 88.7512H123.638V90.2861H121.018C119.792 90.2861 118.807 91.2586 118.807 92.4609Z" fill="black"/>
<path fill-rule="evenodd" clip-rule="evenodd" d="M124.21 102.992C125.855 102.992 127.241 101.86 127.241 100.486C127.241 99.2747 125.69 97.6555 124.541 97.6555C123.97 97.6555 123.312 97.9764 122.737 98.6186L123.886 99.8302C124.21 99.1951 124.699 98.867 125.199 98.867C125.519 98.867 125.855 99.113 125.855 99.4365C125.855 100.566 124.955 101.454 123.726 101.536C122.001 101.536 120.366 100.407 119.217 98.6186L118.726 99.113C120.281 101.536 122.33 102.992 124.21 102.992Z" fill="black"/>
<path d="M48.4383 68.5432H46.2861V52.4078H48.4383V68.5432Z" fill="black"/>
<path d="M54.3028 68.5432H52.1506V52.4078H54.3028V68.5432Z" fill="black"/>
<path d="M60.9192 52.408L66.0177 65.9655L71.1351 52.408H74.0814V68.5435H72.042V55.1172H71.9974L66.9458 68.5435H65.1108L60.0592 55.1172H60.0122V68.5435H57.9752V52.408H60.9192Z" fill="black"/>
<path d="M85.2057 66.7333C86.1573 66.7333 86.8997 66.4779 87.4354 65.9646C87.9711 65.4561 88.239 64.746 88.239 63.8413C88.239 63.3164 88.1403 62.8758 87.9453 62.5313C87.7503 62.1844 87.4871 61.9102 87.1652 61.7063C86.841 61.5048 86.4651 61.3595 86.0421 61.2775C85.6192 61.1931 85.1822 61.1509 84.7287 61.1509H79.8134V66.7333H85.2057ZM84.1178 59.3463C85.3396 59.3463 86.2207 59.1285 86.7541 58.7019C87.2898 58.2684 87.5599 57.6286 87.5599 56.7685C87.5599 56.1967 87.4707 55.7443 87.2897 55.4139C87.1088 55.0788 86.8574 54.8234 86.5402 54.6476C86.223 54.4625 85.8589 54.3476 85.4406 54.2913C85.0271 54.2398 84.583 54.2164 84.1178 54.2164H79.8134V59.3463H84.1178ZM83.5281 52.4071C83.8758 52.4071 84.2471 52.4095 84.6488 52.4165C85.0483 52.4259 85.4453 52.4494 85.8377 52.4869C86.2301 52.522 86.599 52.5806 86.9373 52.658C87.2756 52.7353 87.5693 52.8453 87.8113 52.9977C88.3377 53.3117 88.7888 53.7477 89.1576 54.3055C89.5289 54.8633 89.7121 55.5476 89.7121 56.3631C89.7121 57.2185 89.5054 57.966 89.0895 58.5871C88.676 59.2128 88.0816 59.6768 87.3109 59.9744V60.0213C88.3071 60.2323 89.0707 60.6869 89.5994 61.3782C90.128 62.0696 90.3912 62.918 90.3912 63.907C90.3912 64.4952 90.2878 65.0694 90.074 65.6272C89.8625 66.1826 89.5477 66.6771 89.1342 67.1036C88.7206 67.5349 88.2037 67.8816 87.5952 68.1464C86.9843 68.4112 86.2771 68.5425 85.4759 68.5425H77.6612V52.4071H83.5281Z" fill="black"/>
<path fill-rule="evenodd" clip-rule="evenodd" d="M68.7199 35.285C67.4253 35.3108 65.985 35.2944 65.0029 35.3179C64.627 35.1843 64.822 34.7507 64.8619 34.5023C65.1721 32.8126 65.4423 31.5118 64.9207 29.5972C64.486 27.6309 62.9823 25.1632 61.831 23.5789C59.5895 20.6213 58.2996 18.5403 57.5736 15.8757C56.8194 13.361 56.9909 10.755 57.7968 8.53332C59.1126 4.8844 61.3305 2.35335 61.6031 2.13774C62.3315 1.29406 62.4959 1.11596 64.1453 1.14877C69.1006 0.682404 75.5102 1.23073 80.3409 2.0791C80.6158 2.12597 80.8226 2.1659 80.7967 2.49635C80.7826 2.67914 80.7027 2.85959 80.5899 2.89943C79.582 3.04942 76.8635 3.41267 74.084 4.91957C71.2105 6.34915 67.9164 9.47541 67.0799 13.7829C66.8755 15.1984 66.8332 16.7592 67.2632 19.0629C67.5639 20.6799 68.398 23.1736 69.0489 24.9172C69.4507 26.5202 70.0733 27.7458 70.0357 30.8018C70.0028 31.758 69.695 33.1454 69.3731 34.1766C69.1006 35.1843 68.922 35.2568 68.7199 35.285Z" fill="#B01116"/>
<path fill-rule="evenodd" clip-rule="evenodd" d="M58.9594 36.3702C57.7212 36.7405 56.6286 37.0734 55.6912 37.3569C55.2917 37.3312 55.3622 36.8578 55.334 36.6047C55.0662 34.8283 55.0004 33.6049 53.8984 31.9598C53.0291 30.638 51.4408 29.138 48.525 26.8132C45.5763 24.5587 43.753 23.0683 42.3433 20.6873C40.9453 18.4679 40.5693 16.04 40.755 13.6823C41.1685 9.74048 42.4373 7.19534 42.5359 6.92817C42.6675 6.55789 42.8954 6.01427 43.4992 5.78929C48.0785 3.87695 54.843 2.19895 60.1788 1.44433C60.7239 1.38574 60.9659 1.33176 61.0388 1.60596C61.0787 1.76767 61.0435 1.94573 60.9354 2.02306C60.012 2.41912 57.411 3.50185 55.1954 5.66027C53.5789 7.22811 50.7782 11.1114 51.1072 15.679C51.3327 17.35 51.6288 19.1007 52.7824 21.0529C53.6188 22.4707 55.0192 24.6314 56.1141 26.1384C56.9294 27.5773 58.2569 28.7514 59.0346 31.7043C59.2555 32.63 59.333 34.0525 59.2954 35.1305C59.3024 36.1758 59.1474 36.2906 58.9594 36.3702Z" fill="#B01116"/>
<path fill-rule="evenodd" clip-rule="evenodd" d="M50.0458 40.4954C48.9862 41.2336 47.8725 42.0305 47.0713 42.5999C46.7447 42.6538 46.6366 42.157 46.5285 41.9249C45.7132 40.3196 45.1517 39.354 44.038 38.2408C43.1428 37.2542 40.8614 36.0614 37.3605 34.7771C33.8526 33.5608 31.6252 32.5953 29.6234 30.6876C27.873 29.0284 26.6465 27.177 25.9463 24.7139C24.8632 20.7884 25.8547 17.5496 25.9416 16.9895C26.0145 16.6848 26.0004 16.1997 26.5901 15.6231C30.5139 12.3539 36.3831 8.94643 41.1222 6.76458C41.6438 6.58413 41.8482 7.21692 41.4464 7.55673C40.6969 8.22464 38.5329 9.96353 37.3441 12.8859C36.3995 14.7022 34.6679 18.9207 36.4395 23.35C36.9987 24.878 37.908 26.4129 39.5856 27.9737C40.7909 29.094 42.8397 30.6618 44.3505 31.7516C45.5793 32.8624 47.2075 33.5561 48.8334 36.1527C49.3339 36.9636 49.7498 38.1332 50.0529 39.169C50.3889 40.158 50.2009 40.3665 50.0458 40.4954Z" fill="#B01116"/>
<path fill-rule="evenodd" clip-rule="evenodd" d="M42.7695 46.7754C41.9636 47.7855 41.0989 48.7979 40.4927 49.5713C40.199 49.7142 39.9523 49.2643 39.7832 49.0768C38.5449 47.7691 37.8095 46.9605 36.4233 46.2036C35.2837 45.5146 32.6922 44.985 28.9705 44.7436C25.3098 44.4811 22.9133 44.385 20.3875 43.2484C18.2329 42.1492 16.5906 40.797 15.2161 38.6362C13.172 35.0529 12.8971 32.4845 12.7914 31.2776C12.6057 30.5839 12.9041 30.0846 13.2636 29.5526C15.3594 26.5271 20.1384 20.8088 24.4593 17.3661C24.9104 17.0451 25.3051 17.6076 25.0185 18.0458C24.7154 18.695 23.2916 20.2651 22.6525 24.1203C22.3024 26.192 21.91 30.6002 24.7647 34.4131C25.7328 35.7161 27.1072 36.7849 29.1584 37.8067C30.6363 38.5426 33.0493 39.4144 34.8068 40.0284C36.2987 40.7432 37.9975 41.1696 40.1943 43.2788C40.9063 43.9139 41.6816 44.8303 42.269 45.7373C42.8493 46.5809 42.847 46.5903 42.7695 46.7754Z" fill="#B01116"/>
<path fill-rule="evenodd" clip-rule="evenodd" d="M37.6906 55.026C37.2654 56.2353 36.8612 57.0532 36.349 58.2015C36.06 58.5319 35.8603 58.2484 35.6371 58.1406C34.1028 57.1094 33.4826 56.8025 31.8238 56.3127C30.4563 56.0432 28.3088 55.9401 24.1642 57.0439C20.5224 57.6626 18.1446 58.5062 15.5413 58.1758C12.9098 57.8453 11.0841 56.9876 9.13401 55.265C6.1994 52.3426 4.95179 50.1889 4.40669 49.1671C4.23517 48.8906 4.16233 48.7007 4.18348 48.5531C5.32772 43.9292 8.91316 36.5564 11.6715 32.1224C12.0052 31.6818 12.468 32.1271 12.3271 32.6286C12.1509 33.3528 11.3309 35.2675 11.7397 39.0899C12.0052 41.2038 12.844 45.7151 16.9722 48.4219C18.2879 49.3781 19.9185 50.0811 22.2094 50.3717C23.8423 50.5826 26.4315 50.6014 28.2642 50.8077C29.9018 51.0444 31.5959 50.9154 34.2955 52.3286C35.1085 52.7786 36.2879 53.6011 36.9153 54.1307C37.7188 54.7612 37.7094 54.8221 37.6906 55.026Z" fill="#B01116"/>
<path fill-rule="evenodd" clip-rule="evenodd" d="M35.0032 64.4021C34.9797 65.6629 34.8857 66.8933 34.8105 68.1447C34.7659 68.3158 34.4017 68.3347 34.1832 68.2081C32.4163 67.6621 31.5893 67.2894 29.8812 67.3667C28.6453 67.4558 27.4917 67.4698 22.5858 70.0782C18.6902 72.314 19.1413 72.0819 17.7081 72.8061C17.7081 72.8061 13.3684 74.9832 8.54945 73.2162C3.56132 71.1796 1.29399 67.866 1.26344 67.866C1.40442 62.4102 1.93307 56.0146 3.60831 50.3197C3.76573 49.7948 4.4894 49.9331 4.43066 50.5635C4.4424 50.5635 4.52934 54.4069 6.25862 57.8449C7.25014 59.4971 8.94183 62.8014 13.7443 64.2263C15.3186 64.6107 17.1794 64.7021 19.4021 64.4021C21.0374 64.1818 22.7925 63.528 24.5805 63.078C26.1688 62.86 27.8347 62.3702 30.8609 62.7546C31.7796 62.8858 33.2434 63.4483 34.0187 63.7295C34.9962 64.0342 35.0009 64.306 35.0032 64.4021Z" fill="#B01116"/>
<path fill-rule="evenodd" clip-rule="evenodd" d="M78.0869 36.852C76.844 36.4841 75.7703 36.2942 74.8257 36.0247C74.5086 35.7833 74.8962 35.4387 75.009 35.2091C75.8784 33.7326 76.5339 32.2328 76.5715 30.2197C76.5174 28.0378 75.6975 25.4365 75.1289 23.5804C74.1632 19.9361 73.4701 17.5762 73.611 14.9092C73.6651 12.2891 74.4522 9.89869 75.9019 8.02385C78.1645 4.82958 81.2001 3.34379 81.5244 3.12818C82.2997 2.68525 82.6193 2.493 82.9976 2.61253C89.621 4.06319 95.4338 6.77247 98.9605 8.69184C99.2283 8.83949 99.8674 9.07375 99.7711 9.47684C99.7147 9.70182 99.4375 9.8635 99.2871 9.826C98.2979 9.62445 95.6523 9.17924 92.5227 9.74404C89.332 10.2502 85.1826 12.0502 83.1315 16.0951C82.5018 17.3817 82.1188 18.6167 81.8228 20.9369C81.6137 22.5703 81.5761 25.1975 81.6606 27.0582C81.569 28.7737 81.9238 30.8055 80.8641 33.4748C80.5399 34.3724 80.0629 35.399 79.438 36.2778C78.8952 37.2574 78.39 36.9059 78.0869 36.852Z" fill="#B01116"/>
<path fill-rule="evenodd" clip-rule="evenodd" d="M87.6445 41.8295C86.5661 41.1147 85.927 40.571 85.1093 40.0343C84.8767 39.7062 84.966 39.6569 85.1422 39.4718C86.4063 38.3164 87.5576 37.5899 88.1896 35.6799C89.1412 33.2661 89.1248 30.3811 89.1342 28.436C89.2916 24.6722 89.1248 22.6052 89.8555 20.0625C90.6802 17.5736 92.1792 15.284 94.1199 13.9223C97.2307 11.5319 100.487 10.8524 100.858 10.7399C101.953 10.3672 102.273 10.5078 103.135 11.0281C105.076 12.2022 113.243 18.0517 116.34 21.6842C116.737 22.2373 116.063 22.4975 115.851 22.3662C114.965 21.8882 112.573 20.6835 109.413 20.2992C106.218 19.8445 101.716 19.9805 98.5583 23.2404C97.5761 24.2809 96.9653 25.9097 95.9949 28.0376C95.3088 29.5398 94.7332 32.2396 94.2656 34.0394C93.6712 35.6541 93.0885 37.8547 91.2464 39.5444C90.6731 40.3014 89.8179 41.131 88.9579 41.7896C88.1473 42.5653 87.9218 41.9701 87.6445 41.8295Z" fill="#B01116"/>
<path fill-rule="evenodd" clip-rule="evenodd" d="M94.6129 48.6914C93.8211 47.6696 93.3911 47.1797 92.7873 46.4064C92.6721 46.0244 92.7708 46.008 92.9964 45.8908C94.2839 45.0261 95.783 44.3604 97.2162 42.8863C98.8891 40.9013 99.7984 38.1641 100.428 36.3221C101.553 32.7294 102.289 30.7983 103.795 28.6141C105.374 26.5213 107.564 24.7542 109.84 24.0816C113.55 22.8091 116.894 23.1255 117.284 23.1396C118.174 23.231 118.282 23.4184 118.517 23.7348C121.776 27.2712 125.909 34.0489 128.374 38.5907C128.569 39.2469 127.85 39.2773 127.69 39.0852C127.002 38.2274 125.235 36.2846 122.364 34.998C118.567 33.088 115.933 32.2302 110.947 35.012C109.681 35.6846 108.659 36.4204 107.056 38.1312C105.928 39.3311 104.441 41.7075 103.424 43.2636C102.338 44.6042 101.084 46.2821 98.9502 47.5969C98.1607 48.1335 97.0071 48.7242 95.9874 49.0758C94.97 49.5492 94.829 48.9117 94.6129 48.6914Z" fill="#B01116"/>
<path fill-rule="evenodd" clip-rule="evenodd" d="M99.3247 57.1151C98.9182 55.8215 98.5987 55.2473 98.2533 54.3872C98.1499 54.0357 98.3308 53.9419 98.6034 53.9302C100.098 53.6537 101.587 53.3982 103.324 52.5569C105.504 51.1461 107.175 48.8729 108.316 47.291C110.452 44.4038 111.695 42.5874 113.845 40.9844C115.969 39.4377 118.504 38.3878 120.877 38.4089C124.796 38.2729 127.933 39.576 128.297 39.7025C129.122 40.0517 129.303 40.1525 129.437 40.5251C131.363 44.1131 133.88 53.0514 134.378 57.6073C134.378 58.2893 133.675 58.1088 133.581 57.8791C133.177 56.8573 132.15 54.2584 129.782 52.1867C127.369 50.0705 123.318 48.0526 118.76 49.0415C117.353 49.3181 116.098 49.7213 114.125 50.9892C112.734 51.8821 110.563 53.649 109.082 54.7411C107.706 55.6715 106.221 56.6277 103.697 57.3753C102.788 57.6589 101.653 57.7292 100.572 57.8698C99.461 58.0268 99.4657 57.3917 99.3247 57.1151Z" fill="#B01116"/>
<path fill-rule="evenodd" clip-rule="evenodd" d="M101.186 67.0829C101.186 65.7259 101.174 65.1213 101.104 64.1979C101.111 63.8276 101.31 63.7948 101.576 63.8675C103.084 64.0456 104.459 64.2143 106.369 63.9237C108.871 63.2277 111.021 61.4326 112.584 60.2655C115.488 58.1445 117.219 56.5321 119.75 55.6416C122.24 54.8659 125.165 54.8729 127.487 55.4705C131.202 56.6048 133.72 58.9014 134.026 59.1334C134.472 59.4147 134.566 59.9654 134.583 60.3614C135.285 65.6321 135.238 71.9973 134.55 77.3125C134.453 77.5468 134.298 77.6335 134.134 77.6124C133.939 77.5984 133.798 77.4695 133.763 77.3055C133.631 76.2298 133.286 74.2822 131.662 71.5942C129.996 68.8546 126.824 65.5408 122.179 65.1189C120.751 64.9666 119.364 64.9596 117.099 65.5759C115.502 66.0142 112.903 67.0031 111.207 67.664C109.616 68.1374 107.91 68.6741 105.281 68.6343C104.33 68.6343 103.223 68.3601 102.149 68.175C101.038 68.0086 101.228 67.3992 101.186 67.0829Z" fill="#B01116"/>
</svg>
