<svg width="121" height="40" viewBox="0 0 121 40" fill="none" xmlns="http://www.w3.org/2000/svg">
<path d="M120.996 2.92597V0.586914H20.2407V2.11535C20.2407 2.21664 20.1994 2.31377 20.126 2.38539C20.0526 2.45701 19.9531 2.49725 19.8493 2.49725C19.7455 2.49725 19.646 2.45701 19.5726 2.38539C19.4992 2.31377 19.458 2.21664 19.458 2.11535V0.586914H0.00336651V2.92597C0.532147 2.92597 1.03927 3.13095 1.41317 3.49583C1.78708 3.86071 1.99713 4.35559 1.99713 4.87161C1.99713 5.38763 1.78708 5.88251 1.41317 6.24739C1.03927 6.61227 0.532147 6.81726 0.00336651 6.81726V7.92929C0.532147 7.92929 1.03927 8.13428 1.41317 8.49916C1.78708 8.86404 1.99713 9.35892 1.99713 9.87494C1.99713 10.391 1.78708 10.8858 1.41317 11.2507C1.03927 11.6156 0.532147 11.8206 0.00336651 11.8206V12.9326C0.265263 12.9325 0.524615 12.9828 0.766607 13.0805C1.0086 13.1782 1.22849 13.3215 1.41372 13.5022C1.59894 13.6829 1.74588 13.8974 1.84613 14.1335C1.94638 14.3696 1.99798 14.6227 1.99798 14.8783C1.99726 15.0641 1.96891 15.249 1.91381 15.4269C1.79229 15.8302 1.54013 16.1842 1.19511 16.4359C0.850089 16.6876 0.430779 16.8235 0 16.8231V17.9351C0.52878 17.9351 1.0359 18.1401 1.40981 18.505C1.78371 18.8699 1.99377 19.3648 1.99377 19.8808C1.99377 20.3968 1.78371 20.8917 1.40981 21.2565C1.0359 21.6214 0.52878 21.8264 0 21.8264V22.9384C0.52878 22.9384 1.0359 23.1434 1.40981 23.5083C1.78371 23.8732 1.99377 24.3681 1.99377 24.8841C1.99377 25.4001 1.78371 25.895 1.40981 26.2599C1.0359 26.6248 0.52878 26.8297 0 26.8297V27.9418C0.52878 27.9418 1.0359 28.1468 1.40981 28.5116C1.78371 28.8765 1.99377 29.3714 1.99377 29.8874C1.99377 30.4034 1.78371 30.8983 1.40981 31.2632C1.0359 31.6281 0.52878 31.8331 0 31.8331V32.9451C0.528557 32.9451 1.03547 33.15 1.40921 33.5147C1.78296 33.8795 1.99293 34.3741 1.99293 34.8899C1.99293 35.4057 1.78296 35.9004 1.40921 36.2651C1.03547 36.6298 0.528557 36.8348 0 36.8348V39.5869H19.4622V37.9698C19.4622 37.8685 19.5034 37.7714 19.5768 37.6997C19.6502 37.6281 19.7497 37.5879 19.8535 37.5879C19.9573 37.5879 20.0569 37.6281 20.1302 37.6997C20.2036 37.7714 20.2449 37.8685 20.2449 37.9698V39.5869H121V36.8356C120.471 36.8356 119.965 36.6307 119.591 36.2659C119.217 35.9012 119.007 35.4066 119.007 34.8908C119.007 34.375 119.217 33.8803 119.591 33.5156C119.965 33.1508 120.471 32.9459 121 32.9459V31.8339C120.471 31.8339 119.964 31.6289 119.59 31.264C119.216 30.8991 119.006 30.4043 119.006 29.8882C119.006 29.3722 119.216 28.8773 119.59 28.5125C119.964 28.1476 120.471 27.9426 121 27.9426V26.8322C120.471 26.8322 119.964 26.6272 119.59 26.2623C119.216 25.8975 119.006 25.4026 119.006 24.8866C119.006 24.3705 119.216 23.8757 119.59 23.5108C119.964 23.1459 120.471 22.9409 121 22.9409V21.8289C120.471 21.8289 119.964 21.6239 119.59 21.259C119.216 20.8941 119.006 20.3993 119.006 19.8832C119.006 19.3672 119.216 18.8723 119.59 18.5075C119.964 18.1426 120.471 17.9376 121 17.9376V16.8256C120.471 16.8256 119.964 16.6206 119.59 16.2557C119.216 15.8908 119.006 15.3959 119.006 14.8799C119.006 14.3639 119.216 13.869 119.59 13.5041C119.964 13.1392 120.471 12.9343 121 12.9343V11.8222C120.471 11.8222 119.964 11.6172 119.59 11.2524C119.216 10.8875 119.006 10.3926 119.006 9.87659C119.006 9.36057 119.216 8.86568 119.59 8.5008C119.964 8.13592 120.471 7.93093 121 7.93093V6.81726C120.471 6.81726 119.964 6.61227 119.59 6.24739C119.216 5.88251 119.006 5.38763 119.006 4.87161C119.006 4.35559 119.216 3.86071 119.59 3.49583C119.964 3.13095 120.471 2.92597 121 2.92597H120.996ZM19.4622 3.86388C19.4622 3.76259 19.5034 3.66546 19.5768 3.59384C19.6502 3.52222 19.7497 3.48198 19.8535 3.48198C19.9573 3.48198 20.0569 3.52222 20.1302 3.59384C20.2036 3.66546 20.2449 3.76259 20.2449 3.86388V8.93702C20.2449 9.03831 20.2036 9.13545 20.1302 9.20707C20.0569 9.27869 19.9573 9.31892 19.8535 9.31892C19.7497 9.31892 19.6502 9.27869 19.5768 9.20707C19.5034 9.13545 19.4622 9.03831 19.4622 8.93702V3.86388ZM19.4622 10.6856C19.4622 10.5843 19.5034 10.4871 19.5768 10.4155C19.6502 10.3439 19.7497 10.3037 19.8535 10.3037C19.9573 10.3037 20.0569 10.3439 20.1302 10.4155C20.2036 10.4871 20.2449 10.5843 20.2449 10.6856V15.7587C20.2449 15.86 20.2036 15.9571 20.1302 16.0287C20.0569 16.1004 19.9573 16.1406 19.8535 16.1406C19.7497 16.1406 19.6502 16.1004 19.5768 16.0287C19.5034 15.9571 19.4622 15.86 19.4622 15.7587V10.6856ZM19.4622 17.5023C19.4622 17.401 19.5034 17.3039 19.5768 17.2323C19.6502 17.1606 19.7497 17.1204 19.8535 17.1204C19.9573 17.1204 20.0569 17.1606 20.1302 17.2323C20.2036 17.3039 20.2449 17.401 20.2449 17.5023V22.5754C20.2449 22.6767 20.2036 22.7739 20.1302 22.8455C20.0569 22.9171 19.9573 22.9573 19.8535 22.9573C19.7497 22.9573 19.6502 22.9171 19.5768 22.8455C19.5034 22.7739 19.4622 22.6767 19.4622 22.5754V17.5023ZM20.2449 36.2188C20.2449 36.3201 20.2036 36.4172 20.1302 36.4888C20.0569 36.5604 19.9573 36.6007 19.8535 36.6007C19.7497 36.6007 19.6502 36.5604 19.5768 36.4888C19.5034 36.4172 19.4622 36.3201 19.4622 36.2188V31.1457C19.4622 31.0444 19.5034 30.9472 19.5768 30.8756C19.6502 30.804 19.7497 30.7637 19.8535 30.7637C19.9573 30.7637 20.0569 30.804 20.1302 30.8756C20.2036 30.9472 20.2449 31.0444 20.2449 31.1457V36.2188ZM20.2449 29.3971C20.2449 29.4984 20.2036 29.5955 20.1302 29.6672C20.0569 29.7388 19.9573 29.779 19.8535 29.779C19.7497 29.779 19.6502 29.7388 19.5768 29.6672C19.5034 29.5955 19.4622 29.4984 19.4622 29.3971V24.324C19.4622 24.2227 19.5034 24.1256 19.5768 24.0539C19.6502 23.9823 19.7497 23.9421 19.8535 23.9421C19.9573 23.9421 20.0569 23.9823 20.1302 24.0539C20.2036 24.1256 20.2449 24.2227 20.2449 24.324V29.3971Z" fill="#FFE000"/>
<mask id="mask0_55_46505" style="mask-type:alpha" maskUnits="userSpaceOnUse" x="0" y="0" width="114" height="38">
<path d="M113.996 2.24797V0H20.2407V1.46892C20.2407 1.56626 20.1994 1.65961 20.126 1.72844C20.0526 1.79727 19.9531 1.83594 19.8493 1.83594C19.7455 1.83594 19.646 1.79727 19.5726 1.72844C19.4992 1.65961 19.458 1.56626 19.458 1.46892V0H0.00336651V2.24797C0.532147 2.24797 1.03927 2.44497 1.41317 2.79564C1.78708 3.14632 1.99713 3.62193 1.99713 4.11785C1.99713 4.61377 1.78708 5.08938 1.41317 5.44005C1.03927 5.79073 0.532147 5.98774 0.00336651 5.98774V7.05646C0.532147 7.05646 1.03927 7.25347 1.41317 7.60414C1.78708 7.95481 1.99713 8.43042 1.99713 8.92635C1.99713 9.42227 1.78708 9.89788 1.41317 10.2486C1.03927 10.5992 0.532147 10.7962 0.00336651 10.7962V11.865C0.265263 11.8649 0.524615 11.9131 0.766607 12.0071C1.0086 12.101 1.22849 12.2387 1.41372 12.4124C1.59894 12.586 1.74588 12.7922 1.84613 13.0191C1.94638 13.246 1.99798 13.4892 1.99798 13.7348C1.99726 13.9135 1.96891 14.0911 1.91381 14.2621C1.79229 14.6497 1.54013 14.9899 1.19511 15.2319C0.850089 15.4738 0.430779 15.6043 0 15.6039V16.6727C0.52878 16.6727 1.0359 16.8697 1.40981 17.2203C1.78371 17.571 1.99377 18.0466 1.99377 18.5425C1.99377 19.0385 1.78371 19.5141 1.40981 19.8647C1.0359 20.2154 0.52878 20.4124 0 20.4124V21.4812C0.52878 21.4812 1.0359 21.6782 1.40981 22.0288C1.78371 22.3795 1.99377 22.8551 1.99377 23.351C1.99377 23.847 1.78371 24.3226 1.40981 24.6732C1.0359 25.0239 0.52878 25.2209 0 25.2209V26.2897C0.52878 26.2897 1.0359 26.4867 1.40981 26.8373C1.78371 27.188 1.99377 27.6636 1.99377 28.1595C1.99377 28.6555 1.78371 29.1311 1.40981 29.4817C1.0359 29.8324 0.52878 30.0294 0 30.0294V31.0982C0.528557 31.0982 1.03547 31.2951 1.40921 31.6456C1.78296 31.9961 1.99293 32.4715 1.99293 32.9672C1.99293 33.463 1.78296 33.9384 1.40921 34.2889C1.03547 34.6394 0.528557 34.8363 0 34.8363V37.4813H19.4622V35.9272C19.4622 35.8298 19.5034 35.7365 19.5768 35.6676C19.6502 35.5988 19.7497 35.5601 19.8535 35.5601C19.9573 35.5601 20.0569 35.5988 20.1302 35.6676C20.2036 35.7365 20.2449 35.8298 20.2449 35.9272V37.4813H114V34.8371C113.471 34.8371 112.965 34.6402 112.591 34.2897C112.217 33.9392 112.007 33.4637 112.007 32.968C112.007 32.4723 112.217 31.9969 112.591 31.6464C112.965 31.2959 113.471 31.0989 114 31.0989V30.0302C113.471 30.0302 112.964 29.8332 112.59 29.4825C112.216 29.1319 112.006 28.6562 112.006 28.1603C112.006 27.6644 112.216 27.1888 112.59 26.8381C112.964 26.4874 113.471 26.2904 114 26.2904V25.2233C113.471 25.2233 112.964 25.0263 112.59 24.6756C112.216 24.3249 112.006 23.8493 112.006 23.3534C112.006 22.8575 112.216 22.3819 112.59 22.0312C112.964 21.6805 113.471 21.4835 114 21.4835V20.4148C113.471 20.4148 112.964 20.2178 112.59 19.8671C112.216 19.5164 112.006 19.0408 112.006 18.5449C112.006 18.049 112.216 17.5734 112.59 17.2227C112.964 16.872 113.471 16.675 114 16.675V15.6063C113.471 15.6063 112.964 15.4093 112.59 15.0586C112.216 14.708 112.006 14.2323 112.006 13.7364C112.006 13.2405 112.216 12.7649 112.59 12.4142C112.964 12.0635 113.471 11.8665 114 11.8665V10.7978C113.471 10.7978 112.964 10.6008 112.59 10.2501C112.216 9.89946 112.006 9.42385 112.006 8.92793C112.006 8.432 112.216 7.95638 112.59 7.60571C112.964 7.25504 113.471 7.05804 114 7.05804V5.98774C113.471 5.98774 112.964 5.79073 112.59 5.44005C112.216 5.08938 112.006 4.61377 112.006 4.11785C112.006 3.62193 112.216 3.14632 112.59 2.79564C112.964 2.44497 113.471 2.24797 114 2.24797H113.996ZM19.4622 3.14936C19.4622 3.05202 19.5034 2.95867 19.5768 2.88984C19.6502 2.82101 19.7497 2.78233 19.8535 2.78233C19.9573 2.78233 20.0569 2.82101 20.1302 2.88984C20.2036 2.95867 20.2449 3.05202 20.2449 3.14936V8.02495C20.2449 8.12229 20.2036 8.21565 20.1302 8.28448C20.0569 8.35331 19.9573 8.39198 19.8535 8.39198C19.7497 8.39198 19.6502 8.35331 19.5768 8.28448C19.5034 8.21565 19.4622 8.12229 19.4622 8.02495V3.14936ZM19.4622 9.7054C19.4622 9.60806 19.5034 9.5147 19.5768 9.44587C19.6502 9.37704 19.7497 9.33837 19.8535 9.33837C19.9573 9.33837 20.0569 9.37704 20.1302 9.44587C20.2036 9.5147 20.2449 9.60806 20.2449 9.7054V14.581C20.2449 14.6783 20.2036 14.7717 20.1302 14.8405C20.0569 14.9093 19.9573 14.948 19.8535 14.948C19.7497 14.948 19.6502 14.9093 19.5768 14.8405C19.5034 14.7717 19.4622 14.6783 19.4622 14.581V9.7054ZM19.4622 16.2567C19.4622 16.1594 19.5034 16.066 19.5768 15.9972C19.6502 15.9283 19.7497 15.8897 19.8535 15.8897C19.9573 15.8897 20.0569 15.9283 20.1302 15.9972C20.2036 16.066 20.2449 16.1594 20.2449 16.2567V21.1323C20.2449 21.2296 20.2036 21.323 20.1302 21.3918C20.0569 21.4606 19.9573 21.4993 19.8535 21.4993C19.7497 21.4993 19.6502 21.4606 19.5768 21.3918C19.5034 21.323 19.4622 21.2296 19.4622 21.1323V16.2567ZM20.2449 34.2444C20.2449 34.3417 20.2036 34.435 20.1302 34.5039C20.0569 34.5727 19.9573 34.6114 19.8535 34.6114C19.7497 34.6114 19.6502 34.5727 19.5768 34.5039C19.5034 34.435 19.4622 34.3417 19.4622 34.2444V29.3688C19.4622 29.2714 19.5034 29.1781 19.5768 29.1092C19.6502 29.0404 19.7497 29.0017 19.8535 29.0017C19.9573 29.0017 20.0569 29.0404 20.1302 29.1092C20.2036 29.1781 20.2449 29.2714 20.2449 29.3688V34.2444ZM20.2449 27.6883C20.2449 27.7857 20.2036 27.879 20.1302 27.9478C20.0569 28.0167 19.9573 28.0553 19.8535 28.0553C19.7497 28.0553 19.6502 28.0167 19.5768 27.9478C19.5034 27.879 19.4622 27.7857 19.4622 27.6883V22.8127C19.4622 22.7154 19.5034 22.622 19.5768 22.5532C19.6502 22.4844 19.7497 22.4457 19.8535 22.4457C19.9573 22.4457 20.0569 22.4844 20.1302 22.5532C20.2036 22.622 20.2449 22.7154 20.2449 22.8127V27.6883Z" fill="#FFE000"/>
</mask>
<g mask="url(#mask0_55_46505)">
<rect x="-1" y="-2.41309" width="21" height="44" fill="#F48020"/>
</g>
<path d="M42.3711 18.2783H36.4414V27.7119C36.4414 27.9854 36.5352 28.251 36.7227 28.5088C36.918 28.7666 37.1289 28.8955 37.3555 28.8955C38.5195 28.8955 39.1016 27.6924 39.1016 25.2861L41.457 26.6338C41.0742 27.4854 40.5508 28.1963 39.8867 28.7666C39.2305 29.3291 38.3633 29.6104 37.2852 29.6104C36.7461 29.6025 36.25 29.4619 35.7969 29.1885C35.3516 28.9072 34.9961 28.5518 34.7305 28.1221C34.4648 27.6846 34.332 27.251 34.332 26.8213V18.2783H31.8828V16.8721H34.332V12.9346L36.4414 14.3994V16.8721H42.3711V18.2783ZM46.1797 15.6416C46.1484 15.6729 46.0586 15.6885 45.9102 15.6885C45.7852 15.6885 45.6758 15.6729 45.582 15.6416C45.0195 14.54 44.6602 13.8682 44.5039 13.626C44.332 13.3916 44.1133 13.2393 43.8477 13.1689C43.5898 13.0986 43.3438 13.0322 43.1094 12.9697C42.8828 12.8994 42.6992 12.7432 42.5586 12.501C42.5273 12.4541 42.4688 12.2744 42.3828 11.9619C42.2969 11.6416 42.1289 11.2705 41.8789 10.8486V10.5791H42.3359C43.25 10.8604 43.8984 11.1182 44.2812 11.3525C44.6641 11.5791 44.9062 11.8018 45.0078 12.0205C45.1172 12.2314 45.2695 12.6729 45.4648 13.3447C45.6602 14.0088 45.8906 14.6064 46.1562 15.1377C46.1641 15.208 46.168 15.2744 46.168 15.3369C46.1758 15.3916 46.1797 15.4932 46.1797 15.6416ZM46.8711 18.2783H42.1016V16.8721H46.8711V18.2783ZM45.5352 29.8564L43.5664 28.7666V19.7197H45.5352V29.8564ZM59.1992 18.2783H56.75V21.5479C57.2578 22.0166 57.5898 22.3525 57.7461 22.5557C57.9023 22.751 58.082 23.1104 58.2852 23.6338H56.7266C56.7266 22.7354 56.4727 22.0596 55.9648 21.6064C55.457 21.1533 54.8047 20.9268 54.0078 20.9268C53.0859 20.9268 52.2461 21.1768 51.4883 21.6768C50.7383 22.1768 50.1484 22.8096 49.7188 23.5752C49.2891 24.333 49.0742 25.0635 49.0742 25.7666C49.0742 26.2041 49.1719 26.6143 49.3672 26.9971C49.5703 27.3721 49.8945 27.6768 50.3398 27.9111C50.793 28.1455 51.3711 28.2627 52.0742 28.2627C52.9727 28.2627 53.6641 28.1143 54.1484 27.8174C54.6406 27.5127 54.957 27.2627 55.0977 27.0674H57.5938C57.5 27.4502 57.2383 27.8369 56.8086 28.2275C56.3789 28.6182 55.8594 28.9424 55.25 29.2002C54.6484 29.458 54.0938 29.5869 53.5859 29.5869C52.6016 29.5869 51.6055 29.3135 50.5977 28.7666C49.5898 28.2119 48.7656 27.5088 48.125 26.6572C47.4922 25.8057 47.1758 24.9658 47.1758 24.1377C47.1758 23.6689 47.3867 23.0635 47.8086 22.3213C48.2383 21.5713 48.8398 20.9189 49.6133 20.3643C50.3867 19.8096 51.2695 19.5322 52.2617 19.5322C52.9023 19.5322 53.4492 19.6143 53.9023 19.7783C54.3555 19.9346 54.6797 20.083 54.875 20.2236V18.2783H46.6016V16.8721H59.1992V18.2783ZM69.9453 18.2783H62.2578V21.3018C62.4609 21.208 62.7773 21.04 63.207 20.7979C63.6445 20.5557 64.0781 20.376 64.5078 20.2588C64.9453 20.1416 65.4688 20.083 66.0781 20.083C66.8516 20.083 67.6016 20.3213 68.3281 20.7979C69.0547 21.2666 69.418 21.915 69.418 22.7432C69.418 23.29 69.2344 23.7705 68.8672 24.1846C68.5 24.5986 68.0586 24.9072 67.543 25.1104C67.0352 25.3135 66.5938 25.415 66.2188 25.415L68.9375 28.7197L67.4492 29.7979L63.2656 24.8291L64.0391 23.2236C64.4531 23.3408 64.8867 23.3994 65.3398 23.3994C66.0352 23.3994 66.5977 23.2275 67.0273 22.8838C67.4648 22.54 67.6836 22.0635 67.6836 21.4541C67.6836 20.8291 67.2383 20.5166 66.3477 20.5166C65.7617 20.5166 65.1484 20.7783 64.5078 21.3018C63.8672 21.8174 63.3281 22.4268 62.8906 23.1299C62.4531 23.833 62.2344 24.4111 62.2344 24.8643V29.7744L60.2188 28.8721V18.2783H58.7305V16.8721H60.1484C60.1484 15.6299 60.0273 14.54 59.7852 13.6025C59.5508 12.665 59.2695 11.8916 58.9414 11.2822C58.6055 10.6729 58.2305 10.0986 57.8164 9.55957C57.4023 9.02051 57.1797 8.71973 57.1484 8.65723H59.5273C59.6367 8.75879 59.8203 8.97754 60.0781 9.31348C60.3359 9.6416 60.625 10.1299 60.9453 10.7783C61.2734 11.4268 61.5664 12.2861 61.8242 13.3564C62.082 14.4189 62.2109 15.5908 62.2109 16.8721H69.9453V18.2783ZM82.1445 18.2783H78.9453V20.5869C79.1562 20.6338 79.332 20.6924 79.4727 20.7627C79.6133 20.8252 79.7031 20.8721 79.7422 20.9033V22.2861C78.8125 21.9658 77.8438 21.8057 76.8359 21.8057C76.1484 21.8057 75.4023 21.9463 74.5977 22.2275C73.793 22.5088 73.3789 22.9463 73.3555 23.54C73.3555 24.165 74.2422 24.4775 76.0156 24.4775C76.1641 24.4775 76.418 24.4697 76.7773 24.4541C77.1367 24.4307 77.3711 24.415 77.4805 24.4072V25.4854C76.918 25.501 76.2695 25.5322 75.5352 25.5791C74.8008 25.6182 74.1406 25.7588 73.5547 26.001C72.9766 26.2432 72.6875 26.6377 72.6875 27.1846C72.6875 27.6377 72.9531 28.0088 73.4844 28.2979C74.0234 28.5791 74.6289 28.7197 75.3008 28.7197C76.6523 28.7197 77.8398 28.4111 78.8633 27.7939C79.8945 27.1689 80.7617 26.3525 81.4648 25.3447V28.3096C80.6367 28.833 79.8359 29.1768 79.0625 29.3408C78.2891 29.5049 77.5 29.5869 76.6953 29.5869C75.9062 29.5869 75.0156 29.4697 74.0234 29.2354C73.0391 28.9932 72.1914 28.6494 71.4805 28.2041C70.7773 27.751 70.4258 27.2275 70.4258 26.6338C70.4258 26.0322 70.6523 25.5557 71.1055 25.2041C71.5664 24.8525 72.0938 24.5361 72.6875 24.2549C72.375 24.0752 72.1133 23.9268 71.9023 23.8096C71.6992 23.6924 71.5352 23.5518 71.4102 23.3877C71.2852 23.2236 71.2227 23.0088 71.2227 22.7432C71.2227 22.2275 71.4297 21.7979 71.8438 21.4541C72.2656 21.1025 72.7891 20.8369 73.4141 20.6572C74.0391 20.4775 74.6758 20.3525 75.3242 20.2822C75.9727 20.2119 76.582 20.1768 77.1523 20.1768V18.2783H69.6406V16.8721H82.1445V18.2783ZM92.3633 18.2783H86.4336V27.7119C86.4336 27.9854 86.5273 28.251 86.7148 28.5088C86.9102 28.7666 87.1211 28.8955 87.3477 28.8955C88.5117 28.8955 89.0938 27.6924 89.0938 25.2861L91.4492 26.6338C91.0664 27.4854 90.543 28.1963 89.8789 28.7666C89.2227 29.3291 88.3555 29.6104 87.2773 29.6104C86.7383 29.6025 86.2422 29.4619 85.7891 29.1885C85.3438 28.9072 84.9883 28.5518 84.7227 28.1221C84.457 27.6846 84.3242 27.251 84.3242 26.8213V18.2783H81.875V16.8721H84.3242V12.9346L86.4336 14.3994V16.8721H92.3633V18.2783ZM104.117 18.2783H102.84V22.7197C102.387 22.4541 101.738 22.2236 100.895 22.0283C100.051 21.833 99.332 21.7354 98.7383 21.7354C98.2461 21.7354 97.6562 21.7939 96.9688 21.9111C96.2891 22.0205 95.6758 22.2197 95.1289 22.5088C94.5898 22.79 94.3203 23.165 94.3203 23.6338C94.3203 23.8291 94.3984 24.0361 94.5547 24.2549C94.7188 24.4658 94.9688 24.5713 95.3047 24.5713C95.6719 24.5713 96.2031 24.4463 96.8984 24.1963C97.6016 23.9385 98.1172 23.7627 98.4453 23.6689C98.7812 23.5674 99.2695 23.5166 99.9102 23.5166C100.512 23.5166 101.082 23.626 101.621 23.8447C102.168 24.0557 102.602 24.3643 102.922 24.7705C103.25 25.1768 103.414 25.6455 103.414 26.1768C103.414 26.8096 103.184 27.3838 102.723 27.8994C102.262 28.415 101.707 28.8213 101.059 29.1182C100.418 29.4072 99.8047 29.5713 99.2188 29.6104C99.7812 30.1729 100.316 30.4541 100.824 30.4541C100.988 30.4541 101.164 30.4307 101.352 30.3838L102.535 32.3174C102.473 32.3721 102.32 32.4385 102.078 32.5166C101.844 32.5947 101.5 32.6338 101.047 32.6338C100.398 32.6338 99.9062 32.4502 99.5703 32.083C99.2344 31.7158 98.8867 31.2197 98.5273 30.5947C98.1758 29.9697 97.8867 29.6572 97.6602 29.6572C97.0742 29.6338 96.4922 29.5752 95.9141 29.4814C95.3438 29.3799 94.8125 29.1768 94.3203 28.8721C93.8281 28.5674 93.582 28.1494 93.582 27.6182C93.582 27.2666 93.6992 27.0166 93.9336 26.8682C94.1758 26.7119 94.4492 26.6338 94.7539 26.6338C95.1289 26.6338 95.4297 26.6885 95.6562 26.7979C95.8828 26.9072 96.1602 27.0752 96.4883 27.3018C96.8242 27.5205 97.1562 27.6885 97.4844 27.8057C97.8203 27.9229 98.2695 27.9814 98.832 27.9814C99.2305 27.9814 99.7578 27.9111 100.414 27.7705C101.078 27.6299 101.664 27.4229 102.172 27.1494C102.68 26.8682 102.934 26.5283 102.934 26.1299C102.934 25.9111 102.855 25.7354 102.699 25.6025C102.543 25.4619 102.363 25.3682 102.16 25.3213C101.957 25.2666 101.746 25.2393 101.527 25.2393C101.238 25.2393 100.93 25.2822 100.602 25.3682C100.281 25.4541 99.6562 25.6221 98.7266 25.8721C97.7969 26.1221 97.2266 26.2471 97.0156 26.2471C96.4766 26.2471 95.9219 26.0947 95.3516 25.79C94.7891 25.4775 94.3164 25.0439 93.9336 24.4893C93.5586 23.9346 93.3672 23.3291 93.3594 22.6729C93.3594 21.9619 93.625 21.3877 94.1562 20.9502C94.6875 20.5049 95.3242 20.1885 96.0664 20.001C96.8086 19.8135 97.5078 19.7197 98.1641 19.7197C98.6016 19.7197 99.1523 19.79 99.8164 19.9307C100.488 20.0635 101 20.1768 101.352 20.2705V18.2783H92.0234V16.8721H104.117V18.2783Z" fill="black"/>
</svg>
