<svg width="604" height="88" viewBox="0 0 604 88" fill="none" xmlns="http://www.w3.org/2000/svg">
<g filter="url(#filter0_i_54_43088)">
<path d="M3.52816 12.432C3.52816 9.91201 3.27616 7.89602 2.77216 6.38401C2.26816 4.87201 1.34416 3.61202 0.000156309 2.52002H25.0322C26.6282 2.52002 27.8882 3.36001 28.8962 4.87201C29.9042 6.38401 30.4082 8.06402 30.4082 9.82802C30.4082 13.272 29.5682 16.632 28.0562 19.992C26.4602 23.352 24.5282 26.376 22.3442 29.064C20.1602 31.752 17.8922 34.44 15.7082 37.128C13.4402 39.816 11.5082 42.672 9.99616 45.696C8.40016 48.72 7.64416 51.744 7.64416 54.768C7.64416 58.128 8.65216 60.984 10.7522 63.252C12.8522 65.604 15.2882 67.2 18.1442 68.04C20.9162 68.964 23.8562 69.384 27.0482 69.384C31.4162 69.384 35.0282 68.04 37.8842 65.268C40.7402 62.496 42.2522 58.632 42.2522 53.676V12.432C42.2522 9.91201 42.0002 7.89602 41.4962 6.38401C40.9922 4.87201 40.0682 3.61202 38.7242 2.52002H67.6202C66.2762 3.61202 65.3522 4.87201 64.8482 6.38401C64.3442 7.89602 64.0922 9.91201 64.0922 12.432V55.524C64.0922 60.48 63.4202 64.932 62.0762 68.796C60.7322 72.66 58.9682 75.768 56.9522 78.12C54.8522 80.472 52.4162 82.32 49.6442 83.832C46.7882 85.344 44.1002 86.436 41.5802 86.94C38.9762 87.528 36.3722 87.78 33.6842 87.78C30.9962 87.78 28.3082 87.528 25.7882 86.94C23.1842 86.436 20.4962 85.344 17.8082 83.832C15.0362 82.32 12.6002 80.472 10.5842 78.12C8.48416 75.768 6.80416 72.66 5.46016 68.796C4.11616 64.932 3.52816 60.48 3.52816 55.524V12.432ZM69.3166 86.52C71.2486 84.588 72.2566 81.312 72.2566 76.608V12.432C72.2566 7.81202 71.2486 4.53601 69.3166 2.52002H94.3486C95.6086 2.52002 96.6166 2.77202 97.4566 3.10802C98.2966 3.44402 99.0526 4.03202 99.8926 4.87201C100.733 5.71201 101.573 7.14002 102.497 9.24002C103.421 11.34 104.429 13.692 105.437 16.38C106.445 19.068 107.705 22.848 109.385 27.72L117.281 51.24C117.449 51.828 117.701 52.668 118.121 53.76C119.045 56.616 119.801 58.716 120.305 60.144C120.809 61.572 121.397 63.252 122.237 65.1C122.993 67.032 123.749 68.376 124.421 69.216C125.093 70.056 125.765 70.476 126.437 70.476C128.453 70.476 129.545 67.452 129.545 61.32C129.545 56.364 128.873 51.576 127.529 46.956C126.185 42.336 124.673 38.388 122.825 35.028C120.977 31.668 119.045 28.56 117.197 25.62C115.349 22.764 113.753 19.908 112.409 17.22C111.065 14.532 110.477 12.096 110.477 9.91201C110.477 7.56001 111.317 5.71201 113.081 4.45201C114.845 3.19202 117.113 2.52002 119.801 2.52002H137.357C135.341 4.53601 134.417 7.81202 134.417 12.432V76.608C134.417 81.312 135.341 84.588 137.357 86.52H115.349C113.417 86.52 111.653 86.1 110.141 85.176C108.545 84.336 107.285 83.328 106.361 82.236C105.353 81.228 104.345 79.464 103.253 77.112C102.161 74.76 101.405 72.828 100.901 71.4C100.397 70.056 99.6406 67.788 98.6326 64.596C97.7926 62.244 96.1966 57.54 93.8446 50.652C91.4086 43.764 89.8966 39.48 89.3926 37.8C89.2246 37.296 88.8886 36.456 88.5526 35.28C87.5446 32.508 86.8726 30.408 86.3686 28.98C85.8646 27.552 85.1926 25.872 84.4366 23.94C83.5966 22.092 82.9246 20.664 82.2526 19.824C81.5806 18.984 80.9086 18.564 80.2366 18.564C78.1366 18.564 77.1286 21.672 77.1286 27.72C77.1286 32.76 77.7166 37.548 79.0606 42.168C80.4046 46.788 82.0006 50.736 83.8486 54.096C85.6966 57.456 87.5446 60.564 89.3926 63.42C91.2406 66.36 92.8366 69.132 94.1806 71.82C95.5246 74.508 96.1966 76.944 96.1966 79.128C96.1966 81.564 95.2726 83.412 93.5086 84.672C91.7446 85.932 89.5606 86.52 86.8726 86.52H69.3166ZM141.983 12.432C141.983 7.81202 140.975 4.53601 139.043 2.52002H165.755C166.847 2.52002 167.855 2.77202 168.695 3.10802C169.535 3.44402 170.291 4.11601 171.047 5.04002C171.719 6.04801 172.391 7.05602 172.895 8.14802C173.399 9.32402 173.987 10.92 174.659 12.936C175.331 15.036 175.919 17.052 176.507 18.984C177.011 21 177.851 23.604 178.859 26.88C179.867 30.24 180.875 33.348 181.883 36.372C182.891 33.348 183.899 30.24 184.907 26.88C185.915 23.604 186.671 21 187.259 18.984C187.763 17.052 188.435 15.036 189.107 12.936C189.779 10.92 190.367 9.32402 190.871 8.14802C191.375 7.05602 191.963 6.04801 192.719 5.04002C193.391 4.11601 194.231 3.44402 195.071 3.10802C195.911 2.77202 196.835 2.52002 198.011 2.52002H224.555C222.539 4.53601 221.615 7.81202 221.615 12.432V76.608C221.615 81.312 222.539 84.588 224.555 86.52H196.415C198.347 84.588 199.355 81.312 199.355 76.608V27.72C199.355 21.672 198.263 18.564 196.247 18.564C193.559 18.564 189.695 29.232 184.571 50.484C184.067 52.248 183.479 54.936 182.639 58.548C181.799 62.244 181.127 64.848 180.707 66.528C180.287 68.208 179.783 70.056 179.111 72.24C178.439 74.424 177.851 75.936 177.263 76.776C176.675 77.616 176.087 78.036 175.499 78.036C175.079 78.036 174.659 77.784 174.155 77.28C173.651 76.776 173.147 75.936 172.559 74.76C171.971 73.584 171.467 72.408 171.047 71.316C170.543 70.224 169.955 68.628 169.283 66.612C168.611 64.596 168.023 62.916 167.603 61.572C167.099 60.228 166.511 58.38 165.671 55.86C164.831 53.34 164.243 51.492 163.907 50.232C163.823 50.064 163.571 49.14 163.067 47.628C162.563 46.116 162.143 44.856 161.807 43.848C161.471 42.84 160.967 41.328 160.295 39.48C159.623 37.632 159.119 35.952 158.615 34.608C158.111 33.264 157.523 31.668 156.851 29.904C156.179 28.14 155.507 26.628 154.919 25.452C154.331 24.276 153.743 23.1 153.155 21.924C152.483 20.832 151.895 19.992 151.391 19.404C150.887 18.9 150.383 18.564 149.963 18.564C147.863 18.564 146.855 21.672 146.855 27.72C146.855 32.76 147.443 37.548 148.787 42.168C150.131 46.788 151.727 50.736 153.575 54.096C155.423 57.456 157.271 60.564 159.119 63.42C160.967 66.36 162.563 69.132 163.907 71.82C165.251 74.508 165.923 76.944 165.923 79.128C165.923 81.564 164.999 83.412 163.235 84.672C161.471 85.932 159.287 86.52 156.599 86.52H139.043C140.975 84.588 141.983 81.312 141.983 76.608V12.432ZM225.402 86.52C226.41 85.68 227.418 84.252 228.426 82.32C229.434 80.388 230.106 78.708 230.61 77.28C231.03 75.852 231.786 73.5 232.794 70.224C235.986 59.64 238.422 50.316 240.186 42.336C241.95 34.44 244.05 23.94 246.402 11.004C247.074 7.22401 246.402 4.36802 244.554 2.52002H281.766C279.834 4.36802 279.246 7.22401 279.918 11.004C282.27 23.94 284.286 34.44 286.05 42.336C287.814 50.316 290.334 59.64 293.526 70.224C294.534 73.5 295.206 75.852 295.71 77.28C296.13 78.708 296.802 80.388 297.81 82.32C298.818 84.252 299.826 85.68 300.918 86.52H266.226C268.242 84.252 269.25 81.228 269.25 77.364C269.25 74.172 268.326 67.284 266.478 56.7H254.13C255.39 59.808 256.314 62.244 256.986 63.924C257.658 65.688 258.246 67.872 258.918 70.476C259.59 73.08 259.926 75.432 259.926 77.616C259.926 80.052 259.422 82.152 258.498 83.916C257.574 85.68 255.978 86.52 253.794 86.52H225.402ZM252.534 52.92H265.722C261.354 30.324 257.154 18.984 253.206 18.984C249.342 18.984 247.41 23.352 247.41 32.004C247.41 37.548 249.09 44.52 252.534 52.92ZM300.953 86.52C301.961 85.68 302.969 84.252 303.977 82.32C304.985 80.388 305.657 78.708 306.161 77.28C306.581 75.852 307.337 73.5 308.345 70.224C311.537 59.64 313.973 50.316 315.737 42.336C317.501 34.44 319.601 23.94 321.953 11.004C322.625 7.22401 321.953 4.36802 320.105 2.52002H357.317C355.385 4.36802 354.797 7.22401 355.469 11.004C357.821 23.94 359.837 34.44 361.601 42.336C363.365 50.316 365.885 59.64 369.077 70.224C370.085 73.5 370.757 75.852 371.261 77.28C371.681 78.708 372.353 80.388 373.361 82.32C374.369 84.252 375.377 85.68 376.469 86.52H341.777C343.793 84.252 344.801 81.228 344.801 77.364C344.801 74.172 343.877 67.284 342.029 56.7H329.681C330.941 59.808 331.865 62.244 332.537 63.924C333.209 65.688 333.797 67.872 334.469 70.476C335.141 73.08 335.477 75.432 335.477 77.616C335.477 80.052 334.973 82.152 334.049 83.916C333.125 85.68 331.529 86.52 329.345 86.52H300.953ZM328.085 52.92H341.273C336.905 30.324 332.705 18.984 328.757 18.984C324.893 18.984 322.961 23.352 322.961 32.004C322.961 37.548 324.641 44.52 328.085 52.92ZM377.344 2.52002H403.132C408.004 2.52002 412.54 3.69601 416.656 5.96402C420.772 8.31602 424.216 11.256 426.904 14.952C429.592 18.648 431.944 22.764 433.876 27.468C435.724 32.172 437.152 36.876 437.992 41.496C438.832 46.2 439.252 50.736 439.252 55.104C439.252 61.236 438.664 66.36 437.488 70.476C436.312 74.676 434.632 77.868 432.28 80.22C429.928 82.572 427.156 84.168 424.132 85.092C421.024 86.1 417.328 86.52 413.044 86.52H377.344C379.276 84.588 380.284 81.312 380.284 76.608V12.432C380.284 7.81202 379.276 4.53601 377.344 2.52002ZM408.844 7.30802C406.24 7.30802 404.476 8.82001 403.552 11.844C402.544 14.868 402.124 20.16 402.124 27.72V44.52V61.32C402.124 68.88 402.544 74.256 403.468 77.448C404.392 80.64 405.988 82.236 408.34 82.236C411.448 82.236 413.716 79.212 415.144 72.996C416.488 66.78 417.244 57.372 417.244 44.688C417.244 41.58 417.16 38.808 417.16 36.288C417.076 33.768 416.908 30.996 416.74 27.888C416.572 24.78 416.236 22.092 415.9 19.824C415.48 17.64 414.976 15.456 414.388 13.44C413.8 11.424 413.044 9.91201 412.12 8.90402C411.112 7.89602 410.02 7.30802 408.844 7.30802ZM443.071 12.18C443.071 9.15601 444.079 6.63602 446.263 4.45201C448.363 2.35201 450.967 1.26001 454.075 1.26001C457.183 1.26001 459.787 2.52002 461.887 4.87201C463.903 7.22401 464.995 10.5 464.995 14.616C464.995 18.732 463.651 22.596 461.131 26.292C458.611 29.988 455.335 31.752 451.387 31.752C450.715 31.752 450.043 31.668 449.371 31.416C448.699 31.164 448.363 30.828 448.363 30.408C448.363 30.24 448.447 30.156 448.615 30.072C448.783 30.072 449.035 29.988 449.371 29.904C449.707 29.82 450.043 29.736 450.379 29.568C450.967 29.232 451.471 28.728 451.975 27.888C452.479 27.048 452.731 26.124 452.731 25.116C452.731 24.108 452.395 23.436 451.891 22.932C449.287 22.428 447.187 21.252 445.507 19.236C443.827 17.22 443.071 14.868 443.071 12.18ZM470.016 22.512C470.016 17.724 471.696 13.608 475.056 10.08C478.416 6.55202 482.448 4.03202 487.32 2.43602C492.108 0.840011 497.232 1.19209e-05 502.692 1.19209e-05C511.932 1.19209e-05 519.576 2.43602 525.624 7.30802C531.672 12.18 534.78 18.9 534.78 27.384C534.78 31.584 534.108 35.364 532.764 38.64C531.42 41.916 529.572 44.604 527.304 46.704C525.036 48.888 522.432 50.736 519.492 52.332C516.552 53.928 513.444 55.272 510.168 56.28C506.892 57.288 503.616 58.296 500.424 59.136C497.148 59.976 494.04 60.9 491.1 61.74C488.16 62.58 485.556 63.588 483.288 64.596C481.02 65.688 479.256 67.032 477.912 68.712C476.568 70.392 475.896 72.324 475.896 74.508C475.896 76.188 476.232 77.532 477.072 78.624C477.912 79.8 479.088 80.304 480.684 80.304C482.868 80.304 485.136 79.632 487.488 78.204C489.84 76.776 492.024 75.012 494.208 72.996C496.392 70.98 498.66 68.964 501.096 66.948C503.532 64.932 506.472 63.252 510 61.824C513.444 60.396 517.14 59.64 521.172 59.64C524.784 59.64 527.892 60.732 530.412 62.748C532.932 64.764 534.192 67.116 534.192 69.636C534.192 70.728 532.848 74.172 530.328 79.968C529.992 80.64 529.74 81.312 529.404 82.152C529.068 82.992 528.816 83.58 528.648 84C528.48 84.504 528.228 84.924 528.06 85.344C527.808 85.848 527.556 86.1 527.388 86.268C527.136 86.436 526.884 86.52 526.632 86.52C526.212 86.52 525.708 86.268 525.204 85.596C524.7 85.008 524.112 84.336 523.608 83.58C523.02 82.824 522.012 82.152 520.584 81.48C519.072 80.892 517.308 80.556 515.292 80.556C512.268 80.556 507.9 81.564 502.02 83.58C496.14 85.596 491.1 86.52 487.068 86.52C481.944 86.52 477.912 85.092 475.056 82.236C472.2 79.38 470.772 75.684 470.772 71.148C470.772 67.62 471.696 64.176 473.628 60.9C475.56 57.708 478.08 54.852 481.188 52.332C484.212 49.812 487.656 47.46 491.436 45.108C495.132 42.756 498.912 40.488 502.608 38.304C506.304 36.12 509.748 33.936 512.856 31.752C515.88 29.568 518.4 27.048 520.332 24.36C522.264 21.672 523.272 18.9 523.272 15.96C523.272 12.432 521.676 9.57601 518.568 7.56001C515.376 5.54402 511.428 4.45201 506.556 4.45201C501.684 4.45201 497.568 5.88002 494.208 8.65202C490.848 11.424 489.168 14.952 489.168 19.32C489.168 21.84 490.092 24.024 491.94 25.956C493.788 27.888 495.888 28.812 498.072 28.812C499.08 31.08 498.408 33.432 496.056 35.784C493.704 38.22 490.512 39.396 486.564 39.396C481.944 39.396 477.996 37.8 474.804 34.44C471.612 31.164 470.016 27.216 470.016 22.512ZM543.208 46.788C543.208 32.844 546.904 21.504 554.296 12.936C561.688 4.36802 570.76 1.19209e-05 581.596 1.19209e-05C585.628 1.19209e-05 589.744 1.09201 594.028 3.10802C598.228 5.12402 600.412 7.14002 600.412 9.07202C600.412 9.57601 600.244 10.248 599.992 10.92C599.656 11.676 599.404 12.348 599.152 12.852C598.816 13.356 598.396 14.112 597.808 15.12C597.136 16.128 596.716 16.884 596.548 17.22C596.296 17.64 595.96 18.228 595.456 19.068C594.952 19.908 594.616 20.58 594.364 21C594.112 21.42 593.86 21.84 593.524 22.344C593.188 22.848 592.852 23.268 592.6 23.436C592.348 23.688 592.096 23.772 591.928 23.772C591.592 23.772 591.088 23.52 590.332 22.848C589.492 22.26 588.652 21.588 587.728 20.916C586.72 20.244 585.292 19.572 583.444 18.9C581.512 18.312 579.412 17.976 577.228 17.976C573.7 17.976 570.256 18.9 566.728 20.748C563.2 22.596 560.428 24.612 558.412 26.796C556.396 29.064 555.388 30.912 555.388 32.34C555.388 33.18 555.724 33.516 556.48 33.516C556.816 33.516 557.824 32.928 559.42 31.752C560.932 30.576 563.032 29.316 565.72 28.14C568.324 26.964 571.18 26.292 574.204 26.292C582.856 26.292 589.912 28.98 595.372 34.272C600.832 39.648 603.604 46.284 603.604 54.348C603.604 64.428 600.916 72.24 595.54 77.952C590.164 83.664 583.192 86.52 574.456 86.52C568.912 86.52 564.04 85.512 560.008 83.496C555.892 81.48 552.616 78.54 550.264 74.844C547.828 71.148 546.064 67.032 544.888 62.328C543.712 57.624 543.208 52.5 543.208 46.788ZM548.752 55.608C548.752 61.992 550.264 67.2 553.288 71.064C556.312 75.012 560.428 76.944 565.468 76.944C570.508 76.944 574.54 75.012 577.564 71.064C580.588 67.2 582.184 61.992 582.184 55.608C582.184 49.224 580.588 44.016 577.564 40.068C574.54 36.204 570.508 34.188 565.468 34.188C560.428 34.188 556.312 36.204 553.288 40.068C550.264 44.016 548.752 49.224 548.752 55.608Z" fill="#FFE000"/>
</g>
<defs>
<filter id="filter0_i_54_43088" x="0" y="0" width="603.604" height="87.78" filterUnits="userSpaceOnUse" color-interpolation-filters="sRGB">
<feFlood flood-opacity="0" result="BackgroundImageFix"/>
<feBlend mode="normal" in="SourceGraphic" in2="BackgroundImageFix" result="shape"/>
<feColorMatrix in="SourceAlpha" type="matrix" values="0 0 0 0 0 0 0 0 0 0 0 0 0 0 0 0 0 0 127 0" result="hardAlpha"/>
<feOffset dy="4"/>
<feComposite in2="hardAlpha" operator="arithmetic" k2="-1" k3="1"/>
<feColorMatrix type="matrix" values="0 0 0 0 1 0 0 0 0 0 0 0 0 0 0.658824 0 0 0 1 0"/>
<feBlend mode="normal" in2="shape" result="effect1_innerShadow_54_43088"/>
</filter>
</defs>
</svg>
