<svg width="58" height="110" viewBox="0 0 58 110" fill="none" xmlns="http://www.w3.org/2000/svg">
<path d="M18.0746 30.0744C17.85 29.9326 17.6017 29.8025 17.3062 29.6843C14.3744 28.4903 11.1234 28.0174 7.97883 28.3012C5.93368 28.4785 3.82941 29.0223 2.30441 30.4054C0.211967 32.2851 -0.367284 35.4415 0.21198 38.1841C0.980391 41.7543 3.90035 45.0407 7.54143 45.3008C10.0003 45.4781 12.4238 44.2841 14.1734 42.5463C15.8876 40.844 17.0461 38.6688 18.0036 36.4581C18.3228 43.5393 19.9188 51.0816 22.7914 59.014C19.9897 57.9618 16.9397 57.5481 13.9606 57.82C11.9155 57.9973 9.81121 58.5411 8.28621 59.9242C6.19377 61.8039 5.6145 64.9603 6.19376 67.7029C6.96217 71.2731 9.88213 74.5595 13.5232 74.8196C15.9821 74.9969 18.4056 73.8029 20.1552 72.0651C21.9048 70.3273 23.087 68.093 24.0564 65.8233C24.3046 65.244 24.5647 64.6647 24.7775 64.1209C26.8345 68.9915 29.1397 73.5074 31.4095 77.5031C31.2794 77.5031 31.1612 77.5031 31.0312 77.5031C27.8748 77.7514 24.7538 78.768 22.0585 80.4231C20.3089 81.4988 18.6657 82.9174 17.9209 84.8326C16.8924 87.4452 17.7672 90.5306 19.5168 92.7294C21.7984 95.5903 25.8769 97.2217 29.2579 95.8386C31.5395 94.9046 33.1709 92.7531 33.9629 90.4124C34.755 88.0717 34.8141 85.5537 34.6604 83.0829C34.6604 83.0357 34.6604 82.9884 34.6604 82.9411C37.1903 86.9605 39.4837 90.176 41.1033 92.3393C40.9378 92.6467 40.7841 93.0014 40.6659 93.4388C39.8383 96.5006 39.7556 99.7752 40.4176 102.872C40.8432 104.882 41.6352 106.904 43.1839 108.251C45.3118 110.096 48.5036 110.297 51.1635 109.386C54.6155 108.192 57.5236 104.894 57.3463 101.253C57.2281 98.7822 55.7504 96.5361 53.8116 94.9992C51.8728 93.4742 49.5085 92.5758 47.1441 91.8901C46.1629 91.6064 45.2172 91.3109 44.3542 91.1572C42.6519 88.9229 39.8501 85.0335 36.7529 80.0211C39.129 81.6289 41.8598 82.7165 44.6852 83.1893C46.7067 83.5322 48.8819 83.5322 50.7025 82.5864C53.1969 81.2861 54.5564 78.3897 54.6864 75.588C54.8519 71.9351 52.854 68.0221 49.3903 66.8517C47.0496 66.0597 44.4133 66.6035 42.2736 67.8448C40.1339 69.086 38.4434 70.9539 36.9302 72.9045C35.949 74.1812 34.956 75.3515 34.6486 76.4983C31.9769 71.8641 29.2461 66.4971 26.9527 60.7163C26.5153 59.605 26.1015 58.4938 25.7114 57.4062C28.2058 59.2031 31.1257 60.4326 34.1639 60.9409C36.1854 61.2837 38.3606 61.2837 40.1812 60.338C42.6755 59.0376 44.035 56.1413 44.1651 53.3395C44.3306 49.6866 42.3327 45.7736 38.869 44.6033C36.5283 43.8112 33.892 44.355 31.7523 45.5963C29.6126 46.8376 27.922 48.7054 26.4089 50.656C25.6286 51.6609 24.8602 52.5948 24.411 53.5169C22.6141 47.7006 21.562 42.168 21.2428 36.9428C23.0633 38.7634 25.2267 40.2529 27.591 41.2578C29.4825 42.0616 31.5868 42.5818 33.5847 42.0853C36.3155 41.4114 38.3252 38.9171 39.1054 36.2099C40.1221 32.6988 39.1054 28.4312 36.0081 26.4688C33.9157 25.1448 31.2203 25.062 28.856 25.7595C26.4916 26.457 24.3992 27.8756 22.4723 29.4242C22.0585 29.7552 21.6447 30.0862 21.2428 30.4054C21.9521 19.5886 26.1606 10.1903 33.8802 2.31705L31.5277 0C23.347 8.3343 18.843 18.501 18.0509 30.0862L18.0746 30.0744Z" fill="#9ED856"/>
</svg>
