<svg width="47" height="105" viewBox="0 0 47 105" fill="none" xmlns="http://www.w3.org/2000/svg">
<path d="M19.5413 20.168C19.3521 19.9907 19.1393 19.8016 18.8793 19.6242C16.2548 17.8392 13.193 16.6925 10.0485 16.3023C8.01512 16.0541 5.83993 16.1368 4.06667 17.1535C1.6314 18.5485 0.390089 21.5039 0.378267 24.3175C0.378267 27.9704 2.52983 31.8006 6.04087 32.8291C8.40522 33.5266 11.0296 32.8646 13.1103 31.5405C15.1436 30.2401 16.7395 28.3605 18.1345 26.3981C16.9523 33.3847 16.905 41.0925 18.0399 49.4622C15.5219 47.8427 12.6374 46.7905 9.67015 46.424C7.63681 46.1758 5.46162 46.2585 3.68837 47.2752C1.2531 48.6702 0.0118217 51.6256 0 54.4392C0 58.0921 2.15152 61.9223 5.66257 62.9508C8.02691 63.6483 10.6513 62.9863 12.732 61.6622C14.8126 60.3382 16.4322 58.3994 17.8626 56.3779C18.2291 55.8578 18.5955 55.3494 18.9265 54.8647C19.9077 60.0545 21.1963 64.9605 22.5794 69.3463C22.4612 69.3227 22.343 69.299 22.213 69.2754C19.0684 68.8498 15.8174 69.1808 12.8265 70.233C10.8878 70.9186 8.98448 71.9589 7.84959 73.6613C6.28913 76.002 6.50192 79.1938 7.7432 81.7237C9.36278 84.9983 13.0039 87.4572 16.5977 86.8188C19.0329 86.3814 21.0781 84.6318 22.343 82.5157C23.6198 80.3996 24.199 77.9407 24.5773 75.5054C24.5773 75.4582 24.5891 75.4109 24.601 75.3636C26.2205 79.8322 27.781 83.4615 28.9041 85.9085C28.6676 86.1686 28.4548 86.4878 28.242 86.8898C26.788 89.7033 26.0196 92.8834 26.0078 96.0516C26.0078 98.1086 26.3506 100.248 27.58 101.892C29.2705 104.149 32.3442 105.012 35.1341 104.681C38.7634 104.244 42.2981 101.643 42.8891 98.0376C43.2911 95.6023 42.3217 93.0843 40.7494 91.181C39.1771 89.2777 37.061 87.9064 34.8858 86.7361C33.9874 86.2514 33.1244 85.7549 32.3205 85.4357C31.1384 82.894 29.2114 78.5082 27.249 72.9401C29.2351 75.0089 31.6703 76.664 34.3302 77.7161C36.2335 78.4727 38.3614 78.9456 40.3357 78.4018C43.0546 77.6688 44.9934 75.1153 45.7145 72.3963C46.6484 68.8616 45.5254 64.6177 42.3926 62.738C40.2765 61.4731 37.5812 61.4376 35.2287 62.206C32.8762 62.9626 30.8192 64.4285 28.9277 66.0244C27.6983 67.0647 26.4806 67.9987 25.9486 69.0508C24.3172 63.9556 22.7804 58.1394 21.7638 52.0039C21.5628 50.8217 21.3973 49.6514 21.2436 48.5047C23.3006 50.7981 25.9013 52.6068 28.7504 53.7417C30.6537 54.4983 32.7816 54.9711 34.7558 54.4273C37.4748 53.6944 39.4135 51.1409 40.1347 48.4219C41.0686 44.8872 39.9455 40.6432 36.8128 38.7636C34.6967 37.4987 32.0013 37.4632 29.6488 38.2316C27.2963 38.9882 25.2393 40.4541 23.3479 42.05C22.3785 42.8657 21.4209 43.6223 20.7944 44.4262C20.2624 38.3616 20.4043 32.7345 21.2081 27.5566C22.6031 29.72 24.4118 31.6351 26.5042 33.1128C28.1829 34.295 30.1335 35.2525 32.1787 35.1934C34.9923 35.1107 37.4748 33.101 38.8106 30.6184C40.5484 27.4029 40.4539 23.0053 37.8413 20.4399C36.0798 18.7021 33.4672 18.052 31.0083 18.2411C28.5494 18.4303 26.1969 19.3642 23.998 20.4754C23.5252 20.7118 23.0405 20.9483 22.5913 21.1729C25.5703 10.7461 31.6703 2.44731 40.8913 -3.60541L39.0707 -6.35986C29.306 0.0593224 22.7686 9.032 19.5413 20.2035V20.168Z" fill="#206321"/>
</svg>
