<svg width="1280" height="34" viewBox="0 0 1280 34" fill="none" xmlns="http://www.w3.org/2000/svg">
<path d="M320.052 8.9437H0V28.7344H320.052V8.9437Z" fill="#ED1C24"/>
<path d="M320.052 3.51846H0V8.94373H320.052V3.51846Z" fill="white"/>
<path d="M27.875 18.3502H10.3445V19.3279H27.875V18.3502Z" fill="#00A14B"/>
<path d="M26.0432 24.337C28.065 22.3137 27.8739 18.8431 27.8739 18.8431C27.8739 18.8431 24.4044 18.6519 22.3825 20.6744C20.3607 22.6969 20.5518 26.1674 20.5518 26.1674C20.5518 26.1674 24.0213 26.3586 26.0432 24.3362V24.337Z" fill="#006838"/>
<path d="M22.3825 17.0028C24.4043 19.0253 27.8746 18.8341 27.8746 18.8341C27.8746 18.8341 28.0657 15.3636 26.0439 13.3411C24.022 11.3186 20.5526 11.5098 20.5526 11.5098C20.5526 11.5098 20.3614 14.9804 22.3833 17.0028H22.3825Z" fill="#006838"/>
<path d="M26.9185 21.8906C27.9774 20.8314 27.8766 19.0138 27.8766 19.0138C27.8766 19.0138 26.0596 18.9138 25.0007 19.973C23.9418 21.0322 24.0426 22.8498 24.0426 22.8498C24.0426 22.8498 25.8596 22.9498 26.9185 21.8906Z" fill="#00A14B"/>
<path d="M25.0016 17.7596C26.0606 18.8188 27.8776 18.718 27.8776 18.718C27.8776 18.718 27.9784 16.9004 26.9195 15.8412C25.8605 14.7819 24.0435 14.8819 24.0435 14.8819C24.0435 14.8819 23.9435 16.6995 25.0024 17.7588L25.0016 17.7596Z" fill="#00A14B"/>
<path d="M20.4851 18.8389L10.8525 11.5049L1.2207 18.8389L10.8525 26.1729L20.4851 18.8389Z" fill="white"/>
<path d="M12.4372 18.839L6.82817 14.5681L1.2207 18.839L6.82817 23.109L12.4372 18.839Z" fill="#F7941D"/>
<path d="M56.973 18.3502H39.4425V19.3279H56.973V18.3502Z" fill="#00A14B"/>
<path d="M55.1417 24.3368C57.1635 22.3136 56.9724 18.843 56.9724 18.843C56.9724 18.843 53.5029 18.6518 51.481 20.6743C49.4592 22.6968 49.6503 26.1673 49.6503 26.1673C49.6503 26.1673 53.1206 26.3585 55.1417 24.336V24.3368Z" fill="#006838"/>
<path d="M51.4801 17.0028C53.5019 19.0253 56.9714 18.8341 56.9714 18.8341C56.9714 18.8341 57.1625 15.3635 55.1407 13.341C53.1188 11.3186 49.6494 11.5097 49.6494 11.5097C49.6494 11.5097 49.4582 14.9803 51.4801 17.0028Z" fill="#006838"/>
<path d="M56.0161 21.8907C57.075 20.8314 56.975 19.0138 56.975 19.0138C56.975 19.0138 55.158 18.9138 54.0991 19.973C53.0402 21.0323 53.141 22.8499 53.141 22.8499C53.141 22.8499 54.958 22.9499 56.0169 21.8907H56.0161Z" fill="#00A14B"/>
<path d="M54.0989 17.7596C55.1578 18.8188 56.9748 18.718 56.9748 18.718C56.9748 18.718 57.0748 16.9004 56.0159 15.8412C54.957 14.7819 53.14 14.8819 53.14 14.8819C53.14 14.8819 53.04 16.6995 54.0981 17.7588L54.0989 17.7596Z" fill="#00A14B"/>
<path d="M49.5836 18.8389L39.951 11.5049L30.3184 18.8389L39.951 26.1729L49.5836 18.8389Z" fill="white"/>
<path d="M41.5357 18.839L35.9266 14.5681L30.3184 18.839L35.9266 23.109L41.5357 18.839Z" fill="#F7941D"/>
<path d="M86.0707 18.3503H68.541V19.328H86.0707V18.3503Z" fill="#00A14B"/>
<path d="M84.2403 24.337C86.2622 22.3137 86.071 18.8431 86.071 18.8431C86.071 18.8431 82.6015 18.6519 80.5797 20.6744C78.5578 22.6969 78.749 26.1674 78.749 26.1674C78.749 26.1674 82.2193 26.3586 84.2403 24.3362V24.337Z" fill="#006838"/>
<path d="M80.5797 17.0029C82.6015 19.0254 86.071 18.8342 86.071 18.8342C86.071 18.8342 86.2622 15.3636 84.2403 13.3411C82.2185 11.3187 78.749 11.5099 78.749 11.5099C78.749 11.5099 78.5578 14.9804 80.5797 17.0029Z" fill="#006838"/>
<path d="M85.1151 21.8908C86.174 20.8315 86.0732 19.014 86.0732 19.014C86.0732 19.014 84.2562 18.9139 83.1973 19.9732C82.1383 21.0324 82.2392 22.85 82.2392 22.85C82.2392 22.85 84.0562 22.95 85.1151 21.8908Z" fill="#00A14B"/>
<path d="M83.197 17.7597C84.2559 18.8189 86.0729 18.7181 86.0729 18.7181C86.0729 18.7181 86.1729 16.9005 85.114 15.8413C84.0559 14.782 82.2381 14.8821 82.2381 14.8821C82.2381 14.8821 82.1381 16.6996 83.1962 17.7589L83.197 17.7597Z" fill="#00A14B"/>
<path d="M78.6814 18.8393L69.0488 11.5053L59.417 18.8393L69.0488 26.1733L78.6814 18.8393Z" fill="white"/>
<path d="M70.6335 18.8393L65.0253 14.5684L59.417 18.8393L65.0253 23.1093L70.6335 18.8393Z" fill="#F7941D"/>
<path d="M115.17 18.3503H97.6399V19.328H115.17V18.3503Z" fill="#00A14B"/>
<path d="M113.339 24.3371C115.361 22.3138 115.169 18.8432 115.169 18.8432C115.169 18.8432 111.7 18.652 109.678 20.6745C107.656 22.697 107.847 26.1676 107.847 26.1676C107.847 26.1676 111.318 26.3588 113.339 24.3363V24.3371Z" fill="#006838"/>
<path d="M109.677 17.0031C111.699 19.0256 115.168 18.8344 115.168 18.8344C115.168 18.8344 115.36 15.3639 113.338 13.3414C111.316 11.3189 107.846 11.5101 107.846 11.5101C107.846 11.5101 107.655 14.9807 109.677 17.0031Z" fill="#006838"/>
<path d="M114.212 21.8907C115.271 20.8315 115.171 19.0139 115.171 19.0139C115.171 19.0139 113.354 18.9139 112.295 19.9731C111.236 21.0323 111.336 22.8499 111.336 22.8499C111.336 22.8499 113.153 22.95 114.212 21.8907H114.212Z" fill="#00A14B"/>
<path d="M112.296 17.7597C113.355 18.8189 115.172 18.7181 115.172 18.7181C115.172 18.7181 115.272 16.9005 114.214 15.8413C113.155 14.782 111.338 14.8821 111.338 14.8821C111.338 14.8821 111.238 16.6996 112.297 17.7589L112.296 17.7597Z" fill="#00A14B"/>
<path d="M107.78 18.8392L98.1477 11.5052L88.5151 18.8392L98.1477 26.1732L107.78 18.8392Z" fill="white"/>
<path d="M99.7325 18.8391L94.1234 14.5683L88.5151 18.8391L94.1234 23.1092L99.7325 18.8391Z" fill="#F7941D"/>
<path d="M144.268 18.3502H126.738V19.3279H144.268V18.3502Z" fill="#00A14B"/>
<path d="M142.438 24.337C144.459 22.3137 144.268 18.8431 144.268 18.8431C144.268 18.8431 140.799 18.6519 138.777 20.6744C136.755 22.6969 136.946 26.1674 136.946 26.1674C136.946 26.1674 140.416 26.3586 142.438 24.3362V24.337Z" fill="#006838"/>
<path d="M138.776 17.0028C140.798 19.0253 144.268 18.8341 144.268 18.8341C144.268 18.8341 144.459 15.3636 142.437 13.3411C140.415 11.3186 136.946 11.5098 136.946 11.5098C136.946 11.5098 136.754 14.9804 138.776 17.0028Z" fill="#006838"/>
<path d="M143.312 21.8906C144.371 20.8314 144.27 19.0138 144.27 19.0138C144.27 19.0138 142.453 18.9138 141.394 19.973C140.335 21.0322 140.435 22.8498 140.435 22.8498C140.435 22.8498 142.252 22.9498 143.311 21.8906H143.312Z" fill="#00A14B"/>
<path d="M141.394 17.7596C142.453 18.8188 144.27 18.718 144.27 18.718C144.27 18.718 144.37 16.9004 143.311 15.8412C142.252 14.7819 140.435 14.8819 140.435 14.8819C140.435 14.8819 140.335 16.6995 141.394 17.7588V17.7596Z" fill="#00A14B"/>
<path d="M136.878 18.8389L127.246 11.5049L117.613 18.8389L127.246 26.1729L136.878 18.8389Z" fill="white"/>
<path d="M128.83 18.839L123.222 14.5681L117.613 18.839L123.222 23.109L128.83 18.839Z" fill="#F7941D"/>
<path d="M173.366 18.3502H155.836V19.3279H173.366V18.3502Z" fill="#00A14B"/>
<path d="M171.535 24.3368C173.557 22.3136 173.366 18.843 173.366 18.843C173.366 18.843 169.896 18.6518 167.875 20.6743C165.853 22.6968 166.044 26.1673 166.044 26.1673C166.044 26.1673 169.514 26.3585 171.535 24.336V24.3368Z" fill="#006838"/>
<path d="M167.875 17.0028C169.896 19.0253 173.366 18.8341 173.366 18.8341C173.366 18.8341 173.557 15.3635 171.535 13.341C169.513 11.3186 166.044 11.5097 166.044 11.5097C166.044 11.5097 165.853 14.9803 167.875 17.0028Z" fill="#006838"/>
<path d="M172.409 21.8907C173.468 20.8314 173.368 19.0138 173.368 19.0138C173.368 19.0138 171.551 18.9138 170.492 19.973C169.433 21.0323 169.533 22.8499 169.533 22.8499C169.533 22.8499 171.35 22.9499 172.409 21.8907Z" fill="#00A14B"/>
<path d="M170.492 17.7596C171.551 18.8188 173.368 18.718 173.368 18.718C173.368 18.718 173.468 16.9004 172.409 15.8412C171.35 14.7819 169.533 14.8819 169.533 14.8819C169.533 14.8819 169.433 16.6995 170.492 17.7588V17.7596Z" fill="#00A14B"/>
<path d="M165.977 18.8389L156.345 11.5049L146.712 18.8389L156.345 26.1729L165.977 18.8389Z" fill="white"/>
<path d="M157.929 18.839L152.32 14.5681L146.712 18.839L152.32 23.109L157.929 18.839Z" fill="#F7941D"/>
<path d="M202.463 18.3503H184.934V19.328H202.463V18.3503Z" fill="#00A14B"/>
<path d="M200.634 24.337C202.656 22.3137 202.465 18.8431 202.465 18.8431C202.465 18.8431 198.994 18.6519 196.973 20.6744C194.951 22.6969 195.143 26.1674 195.143 26.1674C195.143 26.1674 198.613 26.3586 200.635 24.3362L200.634 24.337Z" fill="#006838"/>
<path d="M196.973 17.0029C198.995 19.0254 202.464 18.8342 202.464 18.8342C202.464 18.8342 202.656 15.3636 200.634 13.3411C198.612 11.3187 195.142 11.5099 195.142 11.5099C195.142 11.5099 194.95 14.9804 196.972 17.0029H196.973Z" fill="#006838"/>
<path d="M201.508 21.8908C202.567 20.8315 202.466 19.014 202.466 19.014C202.466 19.014 200.649 18.9139 199.591 19.9732C198.532 21.0324 198.632 22.85 198.632 22.85C198.632 22.85 200.449 22.95 201.508 21.8908Z" fill="#00A14B"/>
<path d="M199.591 17.7597C200.65 18.819 202.467 18.7181 202.467 18.7181C202.467 18.7181 202.567 16.9005 201.508 15.8413C200.45 14.7821 198.633 14.8821 198.633 14.8821C198.633 14.8821 198.533 16.6997 199.591 17.7589V17.7597Z" fill="#00A14B"/>
<path d="M195.075 18.8393L185.443 11.5053L175.811 18.8393L185.443 26.1733L195.075 18.8393Z" fill="white"/>
<path d="M187.027 18.8393L181.419 14.5684L175.811 18.8393L181.419 23.1093L187.027 18.8393Z" fill="#F7941D"/>
<path d="M231.532 18.3503H214.002V19.328H231.532V18.3503Z" fill="#00A14B"/>
<path d="M229.701 24.337C231.723 22.3137 231.532 18.8431 231.532 18.8431C231.532 18.8431 228.062 18.6519 226.041 20.6744C224.019 22.6969 224.21 26.1674 224.21 26.1674C224.21 26.1674 227.679 26.3586 229.701 24.3362V24.337Z" fill="#006838"/>
<path d="M226.041 17.0029C228.063 19.0254 231.532 18.8342 231.532 18.8342C231.532 18.8342 231.723 15.3636 229.701 13.3411C227.679 11.3187 224.21 11.5099 224.21 11.5099C224.21 11.5099 224.018 14.9804 226.041 17.0029Z" fill="#006838"/>
<path d="M230.576 21.8908C231.635 20.8315 231.535 19.014 231.535 19.014C231.535 19.014 229.718 18.9139 228.659 19.9732C227.6 21.0324 227.701 22.85 227.701 22.85C227.701 22.85 229.518 22.95 230.577 21.8908H230.576Z" fill="#00A14B"/>
<path d="M228.659 17.7597C229.718 18.8189 231.535 18.7181 231.535 18.7181C231.535 18.7181 231.635 16.9005 230.576 15.8413C229.517 14.782 227.7 14.8821 227.7 14.8821C227.7 14.8821 227.6 16.6996 228.658 17.7589L228.659 17.7597Z" fill="#00A14B"/>
<path d="M224.143 18.8393L214.51 11.5053L204.878 18.8393L214.51 26.1733L224.143 18.8393Z" fill="white"/>
<path d="M216.095 18.8393L210.487 14.5684L204.878 18.8393L210.487 23.1093L216.095 18.8393Z" fill="#F7941D"/>
<path d="M260.63 18.3501H243.101V19.3279H260.63V18.3501Z" fill="#00A14B"/>
<path d="M258.8 24.337C260.821 22.3137 260.63 18.8431 260.63 18.8431C260.63 18.8431 257.16 18.6519 255.139 20.6744C253.117 22.6969 253.308 26.1674 253.308 26.1674C253.308 26.1674 256.779 26.3586 258.8 24.3362L258.8 24.337Z" fill="#006838"/>
<path d="M255.139 17.003C257.16 19.0255 260.63 18.8343 260.63 18.8343C260.63 18.8343 260.822 15.3637 258.799 13.3413C256.777 11.3188 253.307 11.51 253.307 11.51C253.307 11.51 253.116 14.9806 255.138 17.003H255.139Z" fill="#006838"/>
<path d="M259.674 21.8906C260.732 20.8314 260.632 19.0138 260.632 19.0138C260.632 19.0138 258.815 18.9138 257.756 19.973C256.697 21.0322 256.797 22.8498 256.797 22.8498C256.797 22.8498 258.614 22.9498 259.673 21.8906H259.674Z" fill="#00A14B"/>
<path d="M257.756 17.7596C258.815 18.8188 260.632 18.718 260.632 18.718C260.632 18.718 260.732 16.9004 259.673 15.8412C258.614 14.7819 256.797 14.8819 256.797 14.8819C256.797 14.8819 256.697 16.6995 257.756 17.7588V17.7596Z" fill="#00A14B"/>
<path d="M253.241 18.8392L243.609 11.5052L233.977 18.8392L243.609 26.1732L253.241 18.8392Z" fill="white"/>
<path d="M245.193 18.8391L239.585 14.5683L233.977 18.8391L239.585 23.1092L245.193 18.8391Z" fill="#F7941D"/>
<path d="M289.728 18.3502H272.198V19.3279H289.728V18.3502Z" fill="#00A14B"/>
<path d="M287.898 24.337C289.919 22.3137 289.728 18.8431 289.728 18.8431C289.728 18.8431 286.259 18.6519 284.237 20.6744C282.215 22.6969 282.406 26.1674 282.406 26.1674C282.406 26.1674 285.876 26.3586 287.898 24.3362V24.337Z" fill="#006838"/>
<path d="M284.237 17.003C286.259 19.0255 289.728 18.8343 289.728 18.8343C289.728 18.8343 289.919 15.3637 287.897 13.3412C285.876 11.3188 282.406 11.51 282.406 11.51C282.406 11.51 282.215 14.9805 284.237 17.003Z" fill="#006838"/>
<path d="M288.772 21.8906C289.831 20.8314 289.731 19.0138 289.731 19.0138C289.731 19.0138 287.914 18.9138 286.855 19.973C285.797 21.0322 285.896 22.8498 285.896 22.8498C285.896 22.8498 287.713 22.9498 288.772 21.8906Z" fill="#00A14B"/>
<path d="M286.855 17.7596C287.914 18.8188 289.731 18.718 289.731 18.718C289.731 18.718 289.832 16.9004 288.772 15.8412C287.714 14.7819 285.896 14.8819 285.896 14.8819C285.896 14.8819 285.796 16.6995 286.855 17.7588V17.7596Z" fill="#00A14B"/>
<path d="M282.338 18.8389L272.706 11.5049L263.073 18.8389L272.706 26.1729L282.338 18.8389Z" fill="white"/>
<path d="M274.291 18.839L268.682 14.5681L263.073 18.839L268.682 23.109L274.291 18.839Z" fill="#F7941D"/>
<path d="M318.826 18.3502H301.296V19.3279H318.826V18.3502Z" fill="#00A14B"/>
<path d="M316.996 24.337C319.018 22.3137 318.827 18.8431 318.827 18.8431C318.827 18.8431 315.358 18.6519 313.335 20.6744C311.313 22.6969 311.504 26.1674 311.504 26.1674C311.504 26.1674 314.974 26.3586 316.996 24.3362V24.337Z" fill="#006838"/>
<path d="M313.335 17.003C315.357 19.0255 318.827 18.8343 318.827 18.8343C318.827 18.8343 319.018 15.3637 316.997 13.3413C314.975 11.3188 311.504 11.51 311.504 11.51C311.504 11.51 311.312 14.9806 313.335 17.003Z" fill="#006838"/>
<path d="M317.87 21.8907C318.929 20.8314 318.828 19.0138 318.828 19.0138C318.828 19.0138 317.011 18.9138 315.952 19.973C314.893 21.0323 314.993 22.8499 314.993 22.8499C314.993 22.8499 316.81 22.9499 317.869 21.8907H317.87Z" fill="#00A14B"/>
<path d="M315.952 17.7596C317.011 18.8188 318.828 18.718 318.828 18.718C318.828 18.718 318.928 16.9004 317.869 15.8412C316.81 14.7819 314.993 14.8819 314.993 14.8819C314.993 14.8819 314.893 16.6995 315.952 17.7588V17.7596Z" fill="#00A14B"/>
<path d="M311.437 18.8389L301.805 11.5049L292.173 18.8389L301.805 26.1729L311.437 18.8389Z" fill="white"/>
<path d="M303.39 18.839L297.781 14.5681L292.173 18.839L297.781 23.109L303.39 18.839Z" fill="#F7941D"/>
<path d="M320.052 28.7343H0V33.01H320.052V28.7343Z" fill="white"/>
<path d="M0 3.53038H1.83555C2.10814 4.87359 3.29367 5.88362 4.71469 5.88362H4.72598C6.14781 5.88362 7.33334 4.87278 7.60512 3.53038H11.2544C11.5278 4.87359 12.7182 5.88362 14.1392 5.88362C15.5603 5.88362 16.7458 4.87278 17.0184 3.53038H20.6621C20.9346 4.87359 22.1202 5.88362 23.5412 5.88362H23.5533C24.9751 5.88362 26.1606 4.87278 26.4324 3.53038H30.0753C30.3479 4.87359 31.5334 5.88362 32.9553 5.88362H32.9665C34.3884 5.88362 35.5739 4.87278 35.8457 3.53038H39.4894C39.762 4.87359 40.9475 5.88362 42.3685 5.88362H42.3798C43.8016 5.88362 44.9871 4.87278 45.2589 3.53038H48.9018C49.1744 4.87359 50.3599 5.88362 51.7818 5.88362H51.793C53.2141 5.88362 54.3996 4.87278 54.6722 3.53038H58.3215C58.5949 4.87359 59.7853 5.88362 61.2063 5.88362C62.6273 5.88362 63.8128 4.87278 64.0854 3.53038H67.7283C68.0001 4.87359 69.1856 5.88362 70.6075 5.88362H70.6187C72.0406 5.88362 73.2261 4.87278 73.4979 3.53038H77.1408C77.4125 4.87359 78.5981 5.88362 80.0199 5.88362H80.032C81.453 5.88362 82.6394 4.87278 82.9111 3.53038H86.5548C86.8266 4.87359 88.0121 5.88362 89.434 5.88362H89.4452C90.8671 5.88362 92.0526 4.87278 92.3252 3.53038H95.9681C96.2407 4.87359 97.4262 5.88362 98.848 5.88362H98.8593C100.281 5.88362 101.467 4.87278 101.738 3.53038H105.388C105.661 4.87359 106.852 5.88362 108.273 5.88362C109.694 5.88362 110.88 4.87278 111.152 3.53038H114.795C115.067 4.87359 116.253 5.88362 117.675 5.88362H117.687C119.108 5.88362 120.294 4.87278 120.566 3.53038H124.209C124.482 4.87359 125.668 5.88362 127.089 5.88362H127.1C128.522 5.88362 129.707 4.87278 129.979 3.53038H133.623C133.894 4.87359 135.081 5.88362 136.502 5.88362H136.513C137.935 5.88362 139.12 4.87278 139.393 3.53038H143.036C143.309 4.87359 144.494 5.88362 145.916 5.88362H145.927C147.349 5.88362 148.535 4.87278 148.806 3.53038H152.456C152.729 4.87359 153.919 5.88362 155.34 5.88362C156.761 5.88362 157.948 4.87278 158.22 3.53038H161.863C162.136 4.87359 163.321 5.88362 164.742 5.88362H164.754C166.176 5.88362 167.361 4.87278 167.633 3.53038H171.282C171.556 4.87359 172.746 5.88362 174.167 5.88362C175.588 5.88362 176.774 4.87278 177.046 3.53038H180.689C180.962 4.87359 182.146 5.88362 183.568 5.88362H183.58C185.002 5.88362 186.188 4.87278 186.459 3.53038H190.109C190.382 4.87359 191.572 5.88362 192.993 5.88362C194.415 5.88362 195.6 4.87278 195.873 3.53038H199.522C199.795 4.87359 200.986 5.88362 202.407 5.88362C203.829 5.88362 205.014 4.87278 205.287 3.53038H208.936C209.209 4.87359 210.399 5.88362 211.821 5.88362C213.243 5.88362 214.428 4.87278 214.7 3.53038H218.344C218.616 4.87359 219.801 5.88362 221.223 5.88362H221.235C222.657 5.88362 223.842 4.87278 224.114 3.53038H227.763C228.037 4.87359 229.227 5.88362 230.648 5.88362C232.069 5.88362 233.255 4.87278 233.527 3.53038H237.177C237.45 4.87359 238.64 5.88362 240.061 5.88362C241.482 5.88362 242.669 4.87278 242.94 3.53038H246.59C246.863 4.87359 248.054 5.88362 249.475 5.88362C250.896 5.88362 252.082 4.87278 252.354 3.53038H255.997C256.27 4.87359 257.455 5.88362 258.877 5.88362H258.889C260.31 5.88362 261.496 4.87278 261.768 3.53038H265.411C265.684 4.87359 266.869 5.88362 268.291 5.88362H268.302C269.724 5.88362 270.909 4.87278 271.181 3.53038H274.83C275.104 4.87359 276.293 5.88362 277.715 5.88362C279.137 5.88362 280.322 4.87278 280.594 3.53038H284.244C284.517 4.87359 285.707 5.88362 287.128 5.88362C288.55 5.88362 289.735 4.87278 290.007 3.53038H293.65C293.923 4.87359 295.109 5.88362 296.53 5.88362H296.542C297.963 5.88362 299.148 4.87278 299.421 3.53038H303.064C303.336 4.87359 304.522 5.88362 305.944 5.88362H305.955C307.377 5.88362 308.562 4.87278 308.834 3.53038H312.483C312.756 4.87359 313.946 5.88362 315.368 5.88362C316.79 5.88362 317.975 4.87278 318.247 3.53038H320.047V2.35336H318.247C317.975 1.01015 316.789 0.00012207 315.368 0.00012207H315.357C313.935 0.00012207 312.754 1.01096 312.483 2.35336H308.834C308.561 1.01015 307.376 0.00012207 305.955 0.00012207H305.944C304.523 0.00012207 303.337 1.01096 303.064 2.35336H299.421C299.149 1.01015 297.963 0.00012207 296.542 0.00012207H296.53C295.109 0.00012207 293.923 1.01096 293.65 2.35336H290.007C289.735 1.01015 288.549 0.00012207 287.128 0.00012207H287.116C285.695 0.00012207 284.514 1.01096 284.243 2.35336H280.593C280.321 1.01015 279.135 0.00012207 277.714 0.00012207H277.703C276.282 0.00012207 275.1 1.01096 274.83 2.35336H271.18C270.908 1.01015 269.723 0.00012207 268.301 0.00012207H268.29C266.869 0.00012207 265.683 1.01096 265.411 2.35336H261.767C261.494 1.01015 260.309 0.00012207 258.888 0.00012207H258.876C257.455 0.00012207 256.269 1.01096 255.997 2.35336H252.353C252.08 1.01096 250.896 0.00012207 249.474 0.00012207H249.462C248.041 0.00012207 246.86 1.01096 246.589 2.35336H242.94C242.668 1.01096 241.483 0.00012207 240.061 0.00012207H240.05C238.629 0.00012207 237.447 1.01096 237.177 2.35336H233.528C233.255 1.01096 232.071 0.00012207 230.649 0.00012207H230.638C229.217 0.00012207 228.035 1.01096 227.764 2.35336H224.116C223.843 1.01096 222.657 0.00012207 221.236 0.00012207H221.224C219.803 0.00012207 218.618 1.01096 218.345 2.35417H214.701C214.43 1.01096 213.244 0.00012207 211.822 0.00012207H211.811C210.39 0.00012207 209.209 1.01096 208.938 2.35417H205.289C205.016 1.01096 203.832 0.00012207 202.41 0.00012207H202.398C200.977 0.00012207 199.795 1.01096 199.524 2.35417H195.875C195.602 1.01096 194.417 0.00012207 192.996 0.00012207H192.984C191.563 0.00012207 190.381 1.01096 190.11 2.35417H186.461C186.188 1.01096 185.004 0.00012207 183.582 0.00012207H183.57C182.149 0.00012207 180.963 1.01096 180.691 2.35417H177.048C176.775 1.01096 175.59 0.00012207 174.169 0.00012207H174.157C172.736 0.00012207 171.555 1.01096 171.284 2.35417H167.635C167.363 1.01096 166.178 0.00012207 164.756 0.00012207H164.745C163.323 0.00012207 162.137 1.01096 161.866 2.35417H158.222C157.95 1.01096 156.764 0.00012207 155.343 0.00012207H155.332C153.91 0.00012207 152.729 1.01096 152.458 2.35417H148.809C148.536 1.01096 147.351 0.00012207 145.93 0.00012207H145.918C144.496 0.00012207 143.311 1.01096 143.038 2.35417H139.395C139.123 1.01096 137.937 0.00012207 136.516 0.00012207H136.504C135.082 0.00012207 133.898 1.01096 133.625 2.35417H129.981C129.709 1.01176 128.524 0.00012207 127.102 0.00012207H127.091C125.67 0.00012207 124.484 1.01096 124.212 2.35417H120.568C120.296 1.01176 119.111 0.00012207 117.689 0.00012207H117.677C116.255 0.00012207 115.07 1.01096 114.798 2.35417H111.154C110.882 1.01176 109.697 0.00012207 108.275 0.00012207H108.264C106.843 0.00012207 105.661 1.01096 105.39 2.35417H101.741C101.469 1.01176 100.284 0.00012207 98.8617 0.00012207H98.8504C97.4294 0.00012207 96.2431 1.01096 95.9705 2.35417H92.3276C92.055 1.01176 90.8695 0.00012207 89.4477 0.00012207H89.4364C88.0145 0.00012207 86.829 1.01096 86.5572 2.35417H82.9136C82.6418 1.01176 81.4562 0.00012207 80.0344 0.00012207H80.0223C78.6013 0.00012207 77.415 1.01096 77.1432 2.35417H73.5003C73.2277 1.01176 72.0422 0.00012207 70.6212 0.00012207H70.6099C69.188 0.00012207 68.0025 1.01096 67.7307 2.35417H64.0879C63.8161 1.01176 62.6305 0.00012207 61.2087 0.00012207H61.1966C59.7748 0.00012207 58.5941 1.01096 58.3231 2.35417H54.6738C54.402 1.01176 53.2165 0.00012207 51.7947 0.00012207H51.7834C50.3615 0.00012207 49.1768 1.01096 48.9034 2.35417H45.2605C44.988 1.01176 43.8032 0.00012207 42.3814 0.00012207H42.3701C40.9491 0.00012207 39.7636 1.01096 39.491 2.35417H35.8473C35.5755 1.01176 34.39 0.00012207 32.9682 0.00012207H32.9569C31.535 0.00012207 30.3495 1.01096 30.0769 2.35417H26.434C26.1615 1.01176 24.9767 0.00012207 23.5549 0.00012207H23.5428C22.1218 0.00012207 20.9363 1.01096 20.6637 2.35417H17.02C16.7482 1.01176 15.5627 0.00012207 14.1408 0.00012207H14.1287C12.7069 0.00012207 11.5262 1.01096 11.2553 2.35417H7.60593C7.33414 1.01176 6.14861 0.00012207 4.72679 0.00012207H4.71469C3.29367 0.00012207 2.10814 1.01096 1.83555 2.35417H0V3.53038Z" fill="#680018"/>
<path d="M958.582 8.9437H638.53V28.7344H958.582V8.9437Z" fill="#ED1C24"/>
<path d="M958.582 3.51837H638.53V8.94364H958.582V3.51837Z" fill="white"/>
<path d="M666.405 18.3501H648.875V19.3279H666.405V18.3501Z" fill="#00A14B"/>
<path d="M664.573 24.337C666.595 22.3137 666.404 18.8431 666.404 18.8431C666.404 18.8431 662.934 18.6519 660.912 20.6744C658.89 22.6969 659.082 26.1674 659.082 26.1674C659.082 26.1674 662.551 26.3586 664.573 24.3362V24.337Z" fill="#006838"/>
<path d="M660.913 17.0029C662.934 19.0254 666.405 18.8342 666.405 18.8342C666.405 18.8342 666.596 15.3636 664.574 13.3411C662.552 11.3187 659.083 11.5099 659.083 11.5099C659.083 11.5099 658.892 14.9804 660.913 17.0029H660.913Z" fill="#006838"/>
<path d="M665.448 21.8906C666.507 20.8314 666.406 19.0138 666.406 19.0138C666.406 19.0138 664.589 18.9138 663.53 19.973C662.471 21.0322 662.572 22.8498 662.572 22.8498C662.572 22.8498 664.389 22.9498 665.448 21.8906Z" fill="#00A14B"/>
<path d="M663.531 17.7596C664.59 18.8188 666.407 18.718 666.407 18.718C666.407 18.718 666.508 16.9004 665.449 15.8412C664.39 14.7819 662.573 14.8819 662.573 14.8819C662.573 14.8819 662.473 16.6995 663.532 17.7588L663.531 17.7596Z" fill="#00A14B"/>
<path d="M659.015 18.8389L649.383 11.5049L639.751 18.8389L649.383 26.1729L659.015 18.8389Z" fill="white"/>
<path d="M650.967 18.839L645.358 14.5681L639.751 18.839L645.358 23.109L650.967 18.839Z" fill="#F7941D"/>
<path d="M695.503 18.3502H677.972V19.3279H695.503V18.3502Z" fill="#00A14B"/>
<path d="M693.672 24.337C695.694 22.3137 695.503 18.8431 695.503 18.8431C695.503 18.8431 692.033 18.6519 690.012 20.6744C687.99 22.6969 688.181 26.1674 688.181 26.1674C688.181 26.1674 691.651 26.3586 693.672 24.3362V24.337Z" fill="#006838"/>
<path d="M690.011 17.003C692.032 19.0255 695.502 18.8343 695.502 18.8343C695.502 18.8343 695.693 15.3637 693.671 13.3413C691.649 11.3188 688.18 11.51 688.18 11.51C688.18 11.51 687.989 14.9806 690.011 17.003Z" fill="#006838"/>
<path d="M694.547 21.8906C695.606 20.8314 695.506 19.0138 695.506 19.0138C695.506 19.0138 693.689 18.9138 692.63 19.973C691.571 21.0322 691.672 22.8498 691.672 22.8498C691.672 22.8498 693.489 22.9498 694.547 21.8906H694.547Z" fill="#00A14B"/>
<path d="M692.629 17.7596C693.688 18.8188 695.505 18.718 695.505 18.718C695.505 18.718 695.605 16.9004 694.546 15.8412C693.488 14.7819 691.67 14.8819 691.67 14.8819C691.67 14.8819 691.57 16.6995 692.629 17.7588L692.629 17.7596Z" fill="#00A14B"/>
<path d="M688.114 18.8389L678.481 11.5049L668.849 18.8389L678.481 26.1729L688.114 18.8389Z" fill="white"/>
<path d="M680.066 18.839L674.457 14.5681L668.849 18.839L674.457 23.109L680.066 18.839Z" fill="#F7941D"/>
<path d="M724.601 18.3503H707.071V19.3281H724.601V18.3503Z" fill="#00A14B"/>
<path d="M722.769 24.337C724.791 22.3137 724.6 18.8431 724.6 18.8431C724.6 18.8431 721.131 18.6519 719.109 20.6744C717.087 22.6969 717.278 26.1674 717.278 26.1674C717.278 26.1674 720.748 26.3586 722.769 24.3362V24.337Z" fill="#006838"/>
<path d="M719.109 17.0029C721.131 19.0254 724.6 18.8342 724.6 18.8342C724.6 18.8342 724.791 15.3636 722.769 13.3411C720.748 11.3187 717.278 11.5099 717.278 11.5099C717.278 11.5099 717.087 14.9804 719.109 17.0029Z" fill="#006838"/>
<path d="M723.645 21.8908C724.704 20.8315 724.603 19.014 724.603 19.014C724.603 19.014 722.786 18.9139 721.727 19.9732C720.668 21.0324 720.769 22.85 720.769 22.85C720.769 22.85 722.586 22.95 723.645 21.8908Z" fill="#00A14B"/>
<path d="M721.727 17.7597C722.786 18.8189 724.603 18.7181 724.603 18.7181C724.603 18.7181 724.703 16.9005 723.644 15.8413C722.586 14.782 720.768 14.8821 720.768 14.8821C720.768 14.8821 720.668 16.6996 721.726 17.7589L721.727 17.7597Z" fill="#00A14B"/>
<path d="M717.211 18.8392L707.579 11.5052L697.947 18.8392L707.579 26.1732L717.211 18.8392Z" fill="white"/>
<path d="M709.163 18.8391L703.555 14.5683L697.947 18.8391L703.555 23.1092L709.163 18.8391Z" fill="#F7941D"/>
<path d="M753.699 18.3503H736.169V19.328H753.699V18.3503Z" fill="#00A14B"/>
<path d="M751.869 24.337C753.891 22.3137 753.7 18.8431 753.7 18.8431C753.7 18.8431 750.23 18.6519 748.209 20.6744C746.187 22.6969 746.378 26.1674 746.378 26.1674C746.378 26.1674 749.848 26.3586 751.869 24.3362V24.337Z" fill="#006838"/>
<path d="M748.208 17.0029C750.229 19.0254 753.699 18.8342 753.699 18.8342C753.699 18.8342 753.89 15.3636 751.868 13.3411C749.846 11.3187 746.377 11.5099 746.377 11.5099C746.377 11.5099 746.186 14.9804 748.208 17.0029Z" fill="#006838"/>
<path d="M752.743 21.8908C753.802 20.8315 753.701 19.014 753.701 19.014C753.701 19.014 751.884 18.9139 750.825 19.9732C749.766 21.0324 749.866 22.85 749.866 22.85C749.866 22.85 751.683 22.95 752.742 21.8908H752.743Z" fill="#00A14B"/>
<path d="M750.826 17.7597C751.885 18.8189 753.702 18.7181 753.702 18.7181C753.702 18.7181 753.802 16.9005 752.744 15.8413C751.685 14.782 749.868 14.8821 749.868 14.8821C749.868 14.8821 749.768 16.6996 750.827 17.7589L750.826 17.7597Z" fill="#00A14B"/>
<path d="M746.31 18.8393L736.678 11.5053L727.045 18.8393L736.678 26.1733L746.31 18.8393Z" fill="white"/>
<path d="M738.262 18.8393L732.653 14.5684L727.045 18.8393L732.653 23.1093L738.262 18.8393Z" fill="#F7941D"/>
<path d="M782.798 18.3501H765.269V19.3279H782.798V18.3501Z" fill="#00A14B"/>
<path d="M780.967 24.337C782.989 22.3137 782.798 18.8431 782.798 18.8431C782.798 18.8431 779.329 18.6519 777.307 20.6744C775.285 22.6969 775.476 26.1674 775.476 26.1674C775.476 26.1674 778.946 26.3586 780.967 24.3362V24.337Z" fill="#006838"/>
<path d="M777.306 17.0028C779.328 19.0253 782.797 18.8341 782.797 18.8341C782.797 18.8341 782.989 15.3636 780.967 13.3411C778.945 11.3186 775.475 11.5098 775.475 11.5098C775.475 11.5098 775.284 14.9804 777.306 17.0028Z" fill="#006838"/>
<path d="M781.841 21.8906C782.9 20.8314 782.799 19.0138 782.799 19.0138C782.799 19.0138 780.982 18.9138 779.923 19.973C778.864 21.0322 778.964 22.8498 778.964 22.8498C778.964 22.8498 780.781 22.9498 781.84 21.8906H781.841Z" fill="#00A14B"/>
<path d="M779.923 17.7596C780.982 18.8188 782.799 18.718 782.799 18.718C782.799 18.718 782.899 16.9004 781.84 15.8412C780.781 14.7819 778.964 14.8819 778.964 14.8819C778.964 14.8819 778.864 16.6995 779.923 17.7588V17.7596Z" fill="#00A14B"/>
<path d="M775.408 18.8389L765.776 11.5049L756.144 18.8389L765.776 26.1729L775.408 18.8389Z" fill="white"/>
<path d="M767.36 18.839L761.752 14.5681L756.144 18.839L761.752 23.109L767.36 18.839Z" fill="#F7941D"/>
<path d="M811.897 18.3502H794.366V19.3279H811.897V18.3502Z" fill="#00A14B"/>
<path d="M810.065 24.337C812.087 22.3137 811.896 18.8431 811.896 18.8431C811.896 18.8431 808.427 18.6519 806.405 20.6744C804.383 22.6969 804.574 26.1674 804.574 26.1674C804.574 26.1674 808.044 26.3586 810.065 24.3362V24.337Z" fill="#006838"/>
<path d="M806.405 17.003C808.427 19.0255 811.896 18.8343 811.896 18.8343C811.896 18.8343 812.087 15.3637 810.065 13.3413C808.044 11.3188 804.574 11.51 804.574 11.51C804.574 11.51 804.383 14.9806 806.405 17.003Z" fill="#006838"/>
<path d="M810.94 21.8906C811.999 20.8314 811.899 19.0138 811.899 19.0138C811.899 19.0138 810.082 18.9138 809.023 19.973C807.964 21.0322 808.064 22.8498 808.064 22.8498C808.064 22.8498 809.881 22.9498 810.94 21.8906Z" fill="#00A14B"/>
<path d="M809.023 17.7596C810.082 18.8188 811.899 18.718 811.899 18.718C811.899 18.718 811.999 16.9004 810.94 15.8412C809.881 14.7819 808.064 14.8819 808.064 14.8819C808.064 14.8819 807.964 16.6995 809.023 17.7588V17.7596Z" fill="#00A14B"/>
<path d="M804.507 18.8389L794.875 11.5049L785.242 18.8389L794.875 26.1729L804.507 18.8389Z" fill="white"/>
<path d="M796.46 18.839L790.85 14.5681L785.242 18.839L790.85 23.109L796.46 18.839Z" fill="#F7941D"/>
<path d="M840.994 18.3503H823.464V19.3281H840.994V18.3503Z" fill="#00A14B"/>
<path d="M839.164 24.337C841.186 22.3137 840.995 18.8431 840.995 18.8431C840.995 18.8431 837.524 18.6519 835.503 20.6744C833.481 22.6969 833.673 26.1674 833.673 26.1674C833.673 26.1674 837.143 26.3586 839.165 24.3362L839.164 24.337Z" fill="#006838"/>
<path d="M835.502 17.0029C837.524 19.0254 840.993 18.8342 840.993 18.8342C840.993 18.8342 841.185 15.3636 839.163 13.3411C837.141 11.3187 833.671 11.5099 833.671 11.5099C833.671 11.5099 833.479 14.9804 835.501 17.0029H835.502Z" fill="#006838"/>
<path d="M840.038 21.8908C841.097 20.8315 840.996 19.014 840.996 19.014C840.996 19.014 839.179 18.9139 838.121 19.9732C837.062 21.0324 837.162 22.85 837.162 22.85C837.162 22.85 838.979 22.95 840.038 21.8908Z" fill="#00A14B"/>
<path d="M838.121 17.7597C839.18 18.8189 840.997 18.7181 840.997 18.7181C840.997 18.7181 841.097 16.9005 840.038 15.8413C838.979 14.782 837.162 14.8821 837.162 14.8821C837.162 14.8821 837.062 16.6996 838.121 17.7589V17.7597Z" fill="#00A14B"/>
<path d="M833.605 18.8393L823.973 11.5053L814.34 18.8393L823.973 26.1733L833.605 18.8393Z" fill="white"/>
<path d="M825.557 18.8393L819.948 14.5684L814.34 18.8393L819.948 23.1093L825.557 18.8393Z" fill="#F7941D"/>
<path d="M870.062 18.3503H852.532V19.3281H870.062V18.3503Z" fill="#00A14B"/>
<path d="M868.23 24.337C870.252 22.3137 870.061 18.8431 870.061 18.8431C870.061 18.8431 866.592 18.6519 864.57 20.6744C862.548 22.6969 862.739 26.1674 862.739 26.1674C862.739 26.1674 866.208 26.3586 868.23 24.3362V24.337Z" fill="#006838"/>
<path d="M864.57 17.0028C866.592 19.0253 870.061 18.8341 870.061 18.8341C870.061 18.8341 870.252 15.3636 868.231 13.3411C866.209 11.3186 862.739 11.5098 862.739 11.5098C862.739 11.5098 862.547 14.9804 864.57 17.0028Z" fill="#006838"/>
<path d="M869.106 21.8908C870.165 20.8315 870.065 19.014 870.065 19.014C870.065 19.014 868.248 18.9139 867.189 19.9732C866.13 21.0324 866.231 22.85 866.231 22.85C866.231 22.85 868.048 22.95 869.107 21.8908H869.106Z" fill="#00A14B"/>
<path d="M867.189 17.7597C868.248 18.8189 870.065 18.7181 870.065 18.7181C870.065 18.7181 870.165 16.9005 869.106 15.8413C868.047 14.782 866.23 14.8821 866.23 14.8821C866.23 14.8821 866.13 16.6996 867.188 17.7589L867.189 17.7597Z" fill="#00A14B"/>
<path d="M862.673 18.8393L853.04 11.5053L843.407 18.8393L853.04 26.1733L862.673 18.8393Z" fill="white"/>
<path d="M854.625 18.8393L849.017 14.5684L843.407 18.8393L849.017 23.1093L854.625 18.8393Z" fill="#F7941D"/>
<path d="M899.16 18.3501H881.63V19.3279H899.16V18.3501Z" fill="#00A14B"/>
<path d="M897.33 24.3368C899.352 22.3136 899.161 18.843 899.161 18.843C899.161 18.843 895.691 18.6518 893.67 20.6743C891.648 22.6968 891.839 26.1673 891.839 26.1673C891.839 26.1673 895.309 26.3585 897.331 24.336L897.33 24.3368Z" fill="#006838"/>
<path d="M893.669 17.0028C895.691 19.0253 899.161 18.8341 899.161 18.8341C899.161 18.8341 899.353 15.3635 897.33 13.341C895.308 11.3186 891.838 11.5097 891.838 11.5097C891.838 11.5097 891.647 14.9803 893.669 17.0028H893.669Z" fill="#006838"/>
<path d="M898.205 21.8907C899.263 20.8314 899.163 19.0138 899.163 19.0138C899.163 19.0138 897.346 18.9138 896.287 19.973C895.228 21.0323 895.328 22.8499 895.328 22.8499C895.328 22.8499 897.145 22.9499 898.204 21.8907H898.205Z" fill="#00A14B"/>
<path d="M896.287 17.7596C897.346 18.8188 899.163 18.718 899.163 18.718C899.163 18.718 899.263 16.9004 898.204 15.8412C897.145 14.7819 895.328 14.8819 895.328 14.8819C895.328 14.8819 895.228 16.6995 896.287 17.7588V17.7596Z" fill="#00A14B"/>
<path d="M891.771 18.8392L882.139 11.5052L872.507 18.8392L882.139 26.1732L891.771 18.8392Z" fill="white"/>
<path d="M883.723 18.8391L878.115 14.5683L872.507 18.8391L878.115 23.1092L883.723 18.8391Z" fill="#F7941D"/>
<path d="M928.259 18.3501H910.729V19.3279H928.259V18.3501Z" fill="#00A14B"/>
<path d="M926.427 24.337C928.449 22.3137 928.258 18.8431 928.258 18.8431C928.258 18.8431 924.789 18.6519 922.767 20.6744C920.745 22.6969 920.936 26.1674 920.936 26.1674C920.936 26.1674 924.405 26.3586 926.427 24.3362V24.337Z" fill="#006838"/>
<path d="M922.767 17.003C924.789 19.0255 928.258 18.8343 928.258 18.8343C928.258 18.8343 928.449 15.3637 926.427 13.3413C924.405 11.3188 920.936 11.51 920.936 11.51C920.936 11.51 920.745 14.9806 922.767 17.003Z" fill="#006838"/>
<path d="M927.301 21.8906C928.36 20.8314 928.26 19.0138 928.26 19.0138C928.26 19.0138 926.443 18.9138 925.384 19.973C924.326 21.0322 924.425 22.8498 924.425 22.8498C924.425 22.8498 926.242 22.9498 927.301 21.8906Z" fill="#00A14B"/>
<path d="M925.384 17.7596C926.443 18.8188 928.26 18.718 928.26 18.718C928.26 18.718 928.361 16.9004 927.301 15.8412C926.243 14.7819 924.425 14.8819 924.425 14.8819C924.425 14.8819 924.325 16.6995 925.384 17.7588V17.7596Z" fill="#00A14B"/>
<path d="M920.869 18.8389L911.236 11.5049L901.604 18.8389L911.236 26.1729L920.869 18.8389Z" fill="white"/>
<path d="M912.821 18.839L907.213 14.5681L901.604 18.839L907.213 23.109L912.821 18.839Z" fill="#F7941D"/>
<path d="M957.356 18.3502H939.826V19.3279H957.356V18.3502Z" fill="#00A14B"/>
<path d="M955.526 24.337C957.547 22.3137 957.357 18.8431 957.357 18.8431C957.357 18.8431 953.887 18.6519 951.865 20.6744C949.843 22.6969 950.034 26.1674 950.034 26.1674C950.034 26.1674 953.504 26.3586 955.526 24.3362V24.337Z" fill="#006838"/>
<path d="M951.865 17.003C953.887 19.0255 957.357 18.8343 957.357 18.8343C957.357 18.8343 957.548 15.3637 955.526 13.3413C953.504 11.3188 950.034 11.51 950.034 11.51C950.034 11.51 949.842 14.9806 951.865 17.003Z" fill="#006838"/>
<path d="M956.401 21.8906C957.46 20.8314 957.359 19.0138 957.359 19.0138C957.359 19.0138 955.542 18.9138 954.483 19.973C953.424 21.0322 953.524 22.8498 953.524 22.8498C953.524 22.8498 955.341 22.9498 956.4 21.8906H956.401Z" fill="#00A14B"/>
<path d="M954.483 17.7596C955.542 18.8188 957.359 18.718 957.359 18.718C957.359 18.718 957.459 16.9004 956.4 15.8412C955.341 14.7819 953.524 14.8819 953.524 14.8819C953.524 14.8819 953.424 16.6995 954.483 17.7588V17.7596Z" fill="#00A14B"/>
<path d="M949.968 18.8389L940.336 11.5049L930.703 18.8389L940.336 26.1729L949.968 18.8389Z" fill="white"/>
<path d="M941.92 18.839L936.311 14.5681L930.703 18.839L936.311 23.109L941.92 18.839Z" fill="#F7941D"/>
<path d="M958.582 28.7343H638.53V33.01H958.582V28.7343Z" fill="white"/>
<path d="M638.53 3.53038H640.366C640.638 4.87359 641.824 5.88362 643.245 5.88362H643.256C644.678 5.88362 645.863 4.87278 646.135 3.53038H649.785C650.058 4.87359 651.248 5.88362 652.669 5.88362C654.09 5.88362 655.276 4.87278 655.549 3.53038H659.192C659.465 4.87359 660.65 5.88362 662.071 5.88362H662.083C663.505 5.88362 664.691 4.87278 664.963 3.53038H668.605C668.878 4.87359 670.064 5.88362 671.485 5.88362H671.497C672.919 5.88362 674.104 4.87278 674.376 3.53038H678.02C678.292 4.87359 679.478 5.88362 680.899 5.88362H680.91C682.332 5.88362 683.517 4.87278 683.789 3.53038H687.432C687.705 4.87359 688.89 5.88362 690.312 5.88362H690.323C691.744 5.88362 692.93 4.87278 693.202 3.53038H696.852C697.125 4.87359 698.315 5.88362 699.736 5.88362C701.157 5.88362 702.343 4.87278 702.616 3.53038H706.258C706.53 4.87359 707.716 5.88362 709.138 5.88362H709.149C710.571 5.88362 711.756 4.87278 712.028 3.53038H715.671C715.943 4.87359 717.128 5.88362 718.55 5.88362H718.562C719.983 5.88362 721.17 4.87278 721.441 3.53038H725.085C725.357 4.87359 726.542 5.88362 727.964 5.88362H727.975C729.397 5.88362 730.583 4.87278 730.855 3.53038H734.498C734.771 4.87359 735.956 5.88362 737.378 5.88362H737.389C738.811 5.88362 739.997 4.87278 740.269 3.53038H743.918C744.191 4.87359 745.382 5.88362 746.803 5.88362C748.224 5.88362 749.41 4.87278 749.682 3.53038H753.326C753.597 4.87359 754.783 5.88362 756.205 5.88362H756.217C757.638 5.88362 758.824 4.87278 759.096 3.53038H762.74C763.012 4.87359 764.198 5.88362 765.619 5.88362H765.63C767.052 5.88362 768.237 4.87278 768.509 3.53038H772.153C772.425 4.87359 773.611 5.88362 775.032 5.88362H775.043C776.465 5.88362 777.651 4.87278 777.923 3.53038H781.566C781.839 4.87359 783.024 5.88362 784.446 5.88362H784.457C785.879 5.88362 787.065 4.87278 787.336 3.53038H790.986C791.259 4.87359 792.45 5.88362 793.871 5.88362C795.292 5.88362 796.478 4.87278 796.75 3.53038H800.393C800.666 4.87359 801.852 5.88362 803.273 5.88362H803.284C804.706 5.88362 805.891 4.87278 806.163 3.53038H809.812C810.086 4.87359 811.276 5.88362 812.697 5.88362C814.118 5.88362 815.304 4.87278 815.576 3.53038H819.219C819.492 4.87359 820.676 5.88362 822.098 5.88362H822.11C823.532 5.88362 824.718 4.87278 824.989 3.53038H828.639C828.912 4.87359 830.102 5.88362 831.524 5.88362C832.945 5.88362 834.13 4.87278 834.403 3.53038H838.052C838.325 4.87359 839.516 5.88362 840.938 5.88362C842.359 5.88362 843.544 4.87278 843.817 3.53038H847.466C847.74 4.87359 848.929 5.88362 850.351 5.88362C851.773 5.88362 852.958 4.87278 853.23 3.53038H856.874C857.146 4.87359 858.331 5.88362 859.753 5.88362H859.765C861.187 5.88362 862.372 4.87278 862.644 3.53038H866.293C866.567 4.87359 867.757 5.88362 869.178 5.88362C870.599 5.88362 871.786 4.87278 872.057 3.53038H875.707C875.98 4.87359 877.17 5.88362 878.591 5.88362C880.012 5.88362 881.199 4.87278 881.471 3.53038H885.12C885.393 4.87359 886.584 5.88362 888.005 5.88362C889.426 5.88362 890.612 4.87278 890.884 3.53038H894.528C894.8 4.87359 895.985 5.88362 897.407 5.88362H897.419C898.84 5.88362 900.026 4.87278 900.298 3.53038H903.942C904.214 4.87359 905.399 5.88362 906.821 5.88362H906.832C908.254 5.88362 909.439 4.87278 909.711 3.53038H913.36C913.634 4.87359 914.823 5.88362 916.245 5.88362C917.667 5.88362 918.853 4.87278 919.124 3.53038H922.774C923.047 4.87359 924.237 5.88362 925.659 5.88362C927.08 5.88362 928.265 4.87278 928.537 3.53038H932.181C932.453 4.87359 933.639 5.88362 935.06 5.88362H935.072C936.494 5.88362 937.678 4.87278 937.951 3.53038H941.595C941.866 4.87359 943.052 5.88362 944.474 5.88362H944.485C945.907 5.88362 947.092 4.87278 947.364 3.53038H951.013C951.286 4.87359 952.476 5.88362 953.898 5.88362C955.32 5.88362 956.506 4.87278 956.777 3.53038H958.577V2.35336H956.777C956.505 1.01015 955.319 0.00012207 953.898 0.00012207H953.887C952.465 0.00012207 951.284 1.01096 951.013 2.35336H947.364C947.092 1.01015 945.906 0.00012207 944.485 0.00012207H944.474C943.053 0.00012207 941.867 1.01096 941.595 2.35336H937.951C937.679 1.01015 936.494 0.00012207 935.072 0.00012207H935.06C933.639 0.00012207 932.453 1.01096 932.181 2.35336H928.537C928.265 1.01015 927.08 0.00012207 925.659 0.00012207H925.646C924.225 0.00012207 923.044 1.01096 922.773 2.35336H919.124C918.851 1.01015 917.665 0.00012207 916.244 0.00012207H916.233C914.812 0.00012207 913.631 1.01096 913.36 2.35336H909.71C909.438 1.01015 908.253 0.00012207 906.831 0.00012207H906.82C905.399 0.00012207 904.213 1.01096 903.941 2.35336H900.297C900.025 1.01015 898.839 0.00012207 897.418 0.00012207H897.406C895.985 0.00012207 894.799 1.01096 894.527 2.35336H890.883C890.61 1.01096 889.426 0.00012207 888.004 0.00012207H887.993C886.572 0.00012207 885.39 1.01096 885.119 2.35336H881.471C881.198 1.01096 880.013 0.00012207 878.591 0.00012207H878.58C877.159 0.00012207 875.978 1.01096 875.707 2.35336H872.058C871.786 1.01096 870.601 0.00012207 869.179 0.00012207H869.168C867.747 0.00012207 866.565 1.01096 866.294 2.35336H862.646C862.373 1.01096 861.188 0.00012207 859.767 0.00012207H859.754C858.333 0.00012207 857.148 1.01096 856.875 2.35417H853.232C852.96 1.01096 851.774 0.00012207 850.353 0.00012207H850.341C848.92 0.00012207 847.739 1.01096 847.468 2.35417H843.819C843.547 1.01096 842.362 0.00012207 840.94 0.00012207H840.928C839.507 0.00012207 838.325 1.01096 838.054 2.35417H834.405C834.133 1.01096 832.947 0.00012207 831.526 0.00012207H831.514C830.093 0.00012207 828.911 1.01096 828.64 2.35417H824.991C824.718 1.01096 823.534 0.00012207 822.112 0.00012207H822.1C820.679 0.00012207 819.493 1.01096 819.221 2.35417H815.578C815.305 1.01096 814.12 0.00012207 812.699 0.00012207H812.687C811.266 0.00012207 810.085 1.01096 809.814 2.35417H806.165C805.893 1.01096 804.708 0.00012207 803.286 0.00012207H803.275C801.853 0.00012207 800.668 1.01096 800.396 2.35417H796.752C796.48 1.01096 795.294 0.00012207 793.873 0.00012207H793.862C792.44 0.00012207 791.259 1.01096 790.988 2.35417H787.339C787.066 1.01096 785.882 0.00012207 784.46 0.00012207H784.448C783.027 0.00012207 781.841 1.01096 781.569 2.35417H777.926C777.653 1.01096 776.468 0.00012207 775.046 0.00012207H775.034C773.613 0.00012207 772.428 1.01096 772.155 2.35417H768.512C768.239 1.01176 767.054 0.00012207 765.632 0.00012207H765.621C764.2 0.00012207 763.015 1.01096 762.742 2.35417H759.098C758.827 1.01176 757.641 0.00012207 756.219 0.00012207H756.207C754.785 0.00012207 753.6 1.01096 753.328 2.35417H749.684C749.412 1.01176 748.227 0.00012207 746.805 0.00012207H746.794C745.373 0.00012207 744.191 1.01096 743.92 2.35417H740.271C739.999 1.01176 738.814 0.00012207 737.392 0.00012207H737.381C735.96 0.00012207 734.773 1.01096 734.501 2.35417H730.858C730.585 1.01176 729.4 0.00012207 727.978 0.00012207H727.967C726.545 0.00012207 725.359 1.01096 725.087 2.35417H721.444C721.172 1.01176 719.986 0.00012207 718.565 0.00012207H718.552C717.131 0.00012207 715.945 1.01096 715.673 2.35417H712.03C711.758 1.01176 710.572 0.00012207 709.151 0.00012207H709.14C707.718 0.00012207 706.533 1.01096 706.261 2.35417H702.618C702.346 1.01176 701.161 0.00012207 699.739 0.00012207H699.727C698.305 0.00012207 697.124 1.01096 696.853 2.35417H693.204C692.932 1.01176 691.747 0.00012207 690.325 0.00012207H690.314C688.892 0.00012207 687.707 1.01096 687.434 2.35417H683.791C683.518 1.01176 682.333 0.00012207 680.912 0.00012207H680.9C679.479 0.00012207 678.294 1.01096 678.021 2.35417H674.377C674.106 1.01176 672.92 0.00012207 671.498 0.00012207H671.487C670.065 0.00012207 668.88 1.01096 668.607 2.35417H664.964C664.692 1.01176 663.507 0.00012207 662.085 0.00012207H662.073C660.652 0.00012207 659.466 1.01096 659.194 2.35417H655.55C655.278 1.01176 654.093 0.00012207 652.671 0.00012207H652.659C651.237 0.00012207 650.056 1.01096 649.785 2.35417H646.136C645.864 1.01176 644.679 0.00012207 643.257 0.00012207H643.245C641.824 0.00012207 640.638 1.01096 640.366 2.35417H638.53V3.53038Z" fill="#680018"/>
<path d="M641.081 8.9437H321.029V28.7344H641.081V8.9437Z" fill="#ED1C24"/>
<path d="M641.081 3.51837H321.029V8.94364H641.081V3.51837Z" fill="white"/>
<path d="M348.905 18.3503H331.374V19.328H348.905V18.3503Z" fill="#00A14B"/>
<path d="M347.072 24.3371C349.094 22.3138 348.903 18.8432 348.903 18.8432C348.903 18.8432 345.433 18.652 343.411 20.6745C341.39 22.697 341.581 26.1676 341.581 26.1676C341.581 26.1676 345.05 26.3588 347.072 24.3363V24.3371Z" fill="#006838"/>
<path d="M343.412 17.0031C345.433 19.0256 348.904 18.8344 348.904 18.8344C348.904 18.8344 349.095 15.3639 347.073 13.3414C345.051 11.3189 341.582 11.5101 341.582 11.5101C341.582 11.5101 341.39 14.9807 343.412 17.0031H343.412Z" fill="#006838"/>
<path d="M347.947 21.8907C349.006 20.8315 348.905 19.0139 348.905 19.0139C348.905 19.0139 347.088 18.9139 346.029 19.9731C344.97 21.0323 345.071 22.8499 345.071 22.8499C345.071 22.8499 346.888 22.95 347.947 21.8907Z" fill="#00A14B"/>
<path d="M346.03 17.7597C347.089 18.8189 348.906 18.7181 348.906 18.7181C348.906 18.7181 349.007 16.9005 347.948 15.8413C346.889 14.782 345.072 14.8821 345.072 14.8821C345.072 14.8821 344.972 16.6996 346.031 17.7589L346.03 17.7597Z" fill="#00A14B"/>
<path d="M341.515 18.8393L331.882 11.5053L322.25 18.8393L331.882 26.1733L341.515 18.8393Z" fill="white"/>
<path d="M333.467 18.8393L327.858 14.5684L322.25 18.8393L327.858 23.1093L333.467 18.8393Z" fill="#F7941D"/>
<path d="M378.002 18.3503H360.472V19.3281H378.002V18.3503Z" fill="#00A14B"/>
<path d="M376.171 24.3371C378.193 22.3138 378.002 18.8432 378.002 18.8432C378.002 18.8432 374.532 18.652 372.51 20.6745C370.489 22.697 370.68 26.1676 370.68 26.1676C370.68 26.1676 374.15 26.3588 376.171 24.3363V24.3371Z" fill="#006838"/>
<path d="M372.51 17.0031C374.531 19.0256 378.001 18.8344 378.001 18.8344C378.001 18.8344 378.192 15.3639 376.17 13.3414C374.148 11.3189 370.679 11.5101 370.679 11.5101C370.679 11.5101 370.488 14.9807 372.51 17.0031Z" fill="#006838"/>
<path d="M377.046 21.8907C378.105 20.8315 378.005 19.0139 378.005 19.0139C378.005 19.0139 376.188 18.9139 375.129 19.9731C374.07 21.0323 374.171 22.8499 374.171 22.8499C374.171 22.8499 375.988 22.95 377.046 21.8907H377.046Z" fill="#00A14B"/>
<path d="M375.128 17.7597C376.187 18.8189 378.004 18.7181 378.004 18.7181C378.004 18.7181 378.104 16.9005 377.045 15.8413C375.987 14.782 374.17 14.8821 374.17 14.8821C374.17 14.8821 374.07 16.6996 375.128 17.7589L375.128 17.7597Z" fill="#00A14B"/>
<path d="M370.613 18.839L360.98 11.505L351.348 18.839L360.98 26.173L370.613 18.839Z" fill="white"/>
<path d="M362.565 18.8391L356.956 14.5683L351.348 18.8391L356.956 23.1091L362.565 18.8391Z" fill="#F7941D"/>
<path d="M407.1 18.3503H389.57V19.3281H407.1V18.3503Z" fill="#00A14B"/>
<path d="M405.269 24.337C407.29 22.3137 407.099 18.8431 407.099 18.8431C407.099 18.8431 403.63 18.6519 401.608 20.6744C399.586 22.6969 399.777 26.1674 399.777 26.1674C399.777 26.1674 403.248 26.3586 405.269 24.3362V24.337Z" fill="#006838"/>
<path d="M401.608 17.0029C403.63 19.0254 407.099 18.8342 407.099 18.8342C407.099 18.8342 407.29 15.3636 405.269 13.3411C403.247 11.3187 399.777 11.5099 399.777 11.5099C399.777 11.5099 399.586 14.9804 401.608 17.0029Z" fill="#006838"/>
<path d="M406.144 21.8908C407.203 20.8315 407.102 19.014 407.102 19.014C407.102 19.014 405.285 18.9139 404.226 19.9732C403.167 21.0324 403.268 22.85 403.268 22.85C403.268 22.85 405.085 22.95 406.144 21.8908Z" fill="#00A14B"/>
<path d="M404.226 17.7597C405.285 18.8189 407.102 18.7181 407.102 18.7181C407.102 18.7181 407.202 16.9005 406.143 15.8413C405.085 14.782 403.267 14.8821 403.267 14.8821C403.267 14.8821 403.167 16.6996 404.225 17.7589L404.226 17.7597Z" fill="#00A14B"/>
<path d="M399.711 18.839L390.078 11.505L380.446 18.839L390.078 26.173L399.711 18.839Z" fill="white"/>
<path d="M391.663 18.8391L386.055 14.5683L380.446 18.8391L386.055 23.1091L391.663 18.8391Z" fill="#F7941D"/>
<path d="M436.198 18.3504H418.668V19.3281H436.198V18.3504Z" fill="#00A14B"/>
<path d="M434.368 24.3371C436.39 22.3138 436.199 18.8432 436.199 18.8432C436.199 18.8432 432.729 18.652 430.708 20.6745C428.686 22.697 428.877 26.1676 428.877 26.1676C428.877 26.1676 432.347 26.3588 434.368 24.3363V24.3371Z" fill="#006838"/>
<path d="M430.707 17.003C432.728 19.0255 436.198 18.8343 436.198 18.8343C436.198 18.8343 436.389 15.3637 434.367 13.3413C432.345 11.3188 428.876 11.51 428.876 11.51C428.876 11.51 428.685 14.9806 430.707 17.003Z" fill="#006838"/>
<path d="M435.242 21.8909C436.301 20.8317 436.2 19.0141 436.2 19.0141C436.2 19.0141 434.383 18.9141 433.324 19.9733C432.265 21.0325 432.365 22.8501 432.365 22.8501C432.365 22.8501 434.182 22.9501 435.241 21.8909H435.242Z" fill="#00A14B"/>
<path d="M433.325 17.7598C434.384 18.819 436.201 18.7182 436.201 18.7182C436.201 18.7182 436.301 16.9006 435.243 15.8414C434.184 14.7822 432.367 14.8822 432.367 14.8822C432.367 14.8822 432.267 16.6998 433.326 17.759L433.325 17.7598Z" fill="#00A14B"/>
<path d="M428.809 18.8394L419.177 11.5054L409.544 18.8394L419.177 26.1734L428.809 18.8394Z" fill="white"/>
<path d="M420.761 18.8394L415.152 14.5685L409.544 18.8394L415.152 23.1094L420.761 18.8394Z" fill="#F7941D"/>
<path d="M465.297 18.3503H447.768V19.328H465.297V18.3503Z" fill="#00A14B"/>
<path d="M463.466 24.3371C465.488 22.3138 465.297 18.8432 465.297 18.8432C465.297 18.8432 461.828 18.652 459.806 20.6745C457.784 22.697 457.975 26.1676 457.975 26.1676C457.975 26.1676 461.445 26.3588 463.466 24.3363V24.3371Z" fill="#006838"/>
<path d="M459.805 17.0031C461.827 19.0256 465.296 18.8344 465.296 18.8344C465.296 18.8344 465.488 15.3639 463.465 13.3414C461.444 11.3189 457.974 11.5101 457.974 11.5101C457.974 11.5101 457.783 14.9807 459.805 17.0031Z" fill="#006838"/>
<path d="M464.34 21.8907C465.399 20.8315 465.298 19.0139 465.298 19.0139C465.298 19.0139 463.481 18.9139 462.422 19.9731C461.363 21.0323 461.463 22.8499 461.463 22.8499C461.463 22.8499 463.28 22.95 464.339 21.8907H464.34Z" fill="#00A14B"/>
<path d="M462.422 17.7597C463.481 18.8189 465.298 18.7181 465.298 18.7181C465.298 18.7181 465.398 16.9005 464.339 15.8413C463.28 14.782 461.463 14.8821 461.463 14.8821C461.463 14.8821 461.363 16.6996 462.422 17.7589V17.7597Z" fill="#00A14B"/>
<path d="M457.907 18.8392L448.276 11.5052L438.643 18.8392L448.276 26.1732L457.907 18.8392Z" fill="white"/>
<path d="M449.86 18.8393L444.251 14.5684L438.643 18.8393L444.251 23.1093L449.86 18.8393Z" fill="#F7941D"/>
<path d="M494.395 18.3503H476.865V19.3281H494.395V18.3503Z" fill="#00A14B"/>
<path d="M492.565 24.3371C494.586 22.3138 494.395 18.8432 494.395 18.8432C494.395 18.8432 490.926 18.652 488.904 20.6745C486.882 22.697 487.073 26.1676 487.073 26.1676C487.073 26.1676 490.543 26.3588 492.565 24.3363V24.3371Z" fill="#006838"/>
<path d="M488.904 17.0031C490.926 19.0256 494.395 18.8344 494.395 18.8344C494.395 18.8344 494.586 15.3639 492.565 13.3414C490.543 11.3189 487.073 11.5101 487.073 11.5101C487.073 11.5101 486.882 14.9807 488.904 17.0031Z" fill="#006838"/>
<path d="M493.439 21.8907C494.498 20.8315 494.398 19.0139 494.398 19.0139C494.398 19.0139 492.581 18.9139 491.522 19.9731C490.463 21.0323 490.563 22.8499 490.563 22.8499C490.563 22.8499 492.38 22.95 493.439 21.8907Z" fill="#00A14B"/>
<path d="M491.522 17.7597C492.581 18.8189 494.398 18.7181 494.398 18.7181C494.398 18.7181 494.498 16.9005 493.439 15.8413C492.38 14.782 490.563 14.8821 490.563 14.8821C490.563 14.8821 490.463 16.6996 491.522 17.7589V17.7597Z" fill="#00A14B"/>
<path d="M487.005 18.839L477.373 11.505L467.74 18.839L477.373 26.173L487.005 18.839Z" fill="white"/>
<path d="M478.958 18.8391L473.348 14.5683L467.74 18.8391L473.348 23.1091L478.958 18.8391Z" fill="#F7941D"/>
<path d="M523.493 18.3503H505.963V19.3281H523.493V18.3503Z" fill="#00A14B"/>
<path d="M521.663 24.337C523.685 22.3137 523.494 18.8431 523.494 18.8431C523.494 18.8431 520.024 18.6519 518.003 20.6744C515.981 22.6969 516.172 26.1674 516.172 26.1674C516.172 26.1674 519.642 26.3586 521.664 24.3362L521.663 24.337Z" fill="#006838"/>
<path d="M518.002 17.0029C520.023 19.0254 523.493 18.8342 523.493 18.8342C523.493 18.8342 523.685 15.3636 521.662 13.3411C519.64 11.3187 516.17 11.5099 516.17 11.5099C516.17 11.5099 515.979 14.9804 518.001 17.0029H518.002Z" fill="#006838"/>
<path d="M522.537 21.8908C523.596 20.8315 523.495 19.014 523.495 19.014C523.495 19.014 521.678 18.9139 520.62 19.9732C519.561 21.0324 519.661 22.85 519.661 22.85C519.661 22.85 521.478 22.95 522.537 21.8908Z" fill="#00A14B"/>
<path d="M520.62 17.7597C521.679 18.8189 523.496 18.7181 523.496 18.7181C523.496 18.7181 523.596 16.9005 522.537 15.8413C521.478 14.782 519.661 14.8821 519.661 14.8821C519.661 14.8821 519.561 16.6996 520.62 17.7589V17.7597Z" fill="#00A14B"/>
<path d="M516.104 18.8389L506.472 11.5049L496.84 18.8389L506.472 26.1729L516.104 18.8389Z" fill="white"/>
<path d="M508.056 18.839L502.448 14.5682L496.84 18.839L502.448 23.1091L508.056 18.839Z" fill="#F7941D"/>
<path d="M552.561 18.3503H535.031V19.3281H552.561V18.3503Z" fill="#00A14B"/>
<path d="M550.73 24.337C552.751 22.3137 552.56 18.8431 552.56 18.8431C552.56 18.8431 549.091 18.6519 547.069 20.6744C545.047 22.6969 545.238 26.1674 545.238 26.1674C545.238 26.1674 548.708 26.3586 550.73 24.3362V24.337Z" fill="#006838"/>
<path d="M547.069 17.0029C549.091 19.0254 552.56 18.8342 552.56 18.8342C552.56 18.8342 552.751 15.3636 550.73 13.3411C548.708 11.3187 545.238 11.5099 545.238 11.5099C545.238 11.5099 545.046 14.9804 547.069 17.0029Z" fill="#006838"/>
<path d="M551.605 21.8908C552.663 20.8315 552.563 19.014 552.563 19.014C552.563 19.014 550.746 18.9139 549.687 19.9732C548.629 21.0324 548.729 22.85 548.729 22.85C548.729 22.85 550.546 22.95 551.605 21.8908H551.605Z" fill="#00A14B"/>
<path d="M549.688 17.7597C550.746 18.8189 552.563 18.7181 552.563 18.7181C552.563 18.7181 552.663 16.9005 551.605 15.8413C550.546 14.782 548.729 14.8821 548.729 14.8821C548.729 14.8821 548.629 16.6996 549.687 17.7589L549.688 17.7597Z" fill="#00A14B"/>
<path d="M545.172 18.839L535.54 11.505L525.907 18.839L535.54 26.173L545.172 18.839Z" fill="white"/>
<path d="M537.125 18.8391L531.516 14.5683L525.907 18.8391L531.516 23.1091L537.125 18.8391Z" fill="#F7941D"/>
<path d="M581.659 18.3503H564.129V19.328H581.659V18.3503Z" fill="#00A14B"/>
<path d="M579.828 24.337C581.85 22.3137 581.659 18.8431 581.659 18.8431C581.659 18.8431 578.189 18.6519 576.168 20.6744C574.146 22.6969 574.337 26.1674 574.337 26.1674C574.337 26.1674 577.807 26.3586 579.829 24.3362L579.828 24.337Z" fill="#006838"/>
<path d="M576.168 17.0029C578.19 19.0254 581.66 18.8342 581.66 18.8342C581.66 18.8342 581.852 15.3636 579.829 13.3411C577.807 11.3187 574.337 11.5099 574.337 11.5099C574.337 11.5099 574.146 14.9804 576.168 17.0029H576.168Z" fill="#006838"/>
<path d="M580.703 21.8908C581.762 20.8315 581.662 19.014 581.662 19.014C581.662 19.014 579.845 18.9139 578.786 19.9732C577.727 21.0324 577.827 22.85 577.827 22.85C577.827 22.85 579.644 22.95 580.703 21.8908H580.703Z" fill="#00A14B"/>
<path d="M578.786 17.7597C579.844 18.8189 581.661 18.718 581.661 18.718C581.661 18.718 581.761 16.9005 580.703 15.8412C579.644 14.782 577.827 14.882 577.827 14.882C577.827 14.882 577.727 16.6996 578.786 17.7588V17.7597Z" fill="#00A14B"/>
<path d="M574.27 18.8393L564.638 11.5053L555.006 18.8393L564.638 26.1733L574.27 18.8393Z" fill="white"/>
<path d="M566.222 18.8393L560.614 14.5684L555.006 18.8393L560.614 23.1093L566.222 18.8393Z" fill="#F7941D"/>
<path d="M610.758 18.3504H593.228V19.3281H610.758V18.3504Z" fill="#00A14B"/>
<path d="M608.927 24.3372C610.948 22.3139 610.757 18.8434 610.757 18.8434C610.757 18.8434 607.288 18.6522 605.266 20.6746C603.244 22.6971 603.435 26.1677 603.435 26.1677C603.435 26.1677 606.905 26.3589 608.927 24.3364V24.3372Z" fill="#006838"/>
<path d="M605.266 17.0033C607.288 19.0257 610.757 18.8346 610.757 18.8346C610.757 18.8346 610.948 15.364 608.927 13.3415C606.905 11.319 603.435 11.5102 603.435 11.5102C603.435 11.5102 603.244 14.9808 605.266 17.0033Z" fill="#006838"/>
<path d="M609.8 21.8908C610.859 20.8316 610.759 19.014 610.759 19.014C610.759 19.014 608.942 18.914 607.884 19.9732C606.825 21.0325 606.925 22.85 606.925 22.85C606.925 22.85 608.742 22.9501 609.8 21.8908Z" fill="#00A14B"/>
<path d="M607.884 17.7598C608.942 18.819 610.759 18.7182 610.759 18.7182C610.759 18.7182 610.86 16.9006 609.801 15.8414C608.742 14.7822 606.925 14.8822 606.925 14.8822C606.925 14.8822 606.825 16.6998 607.884 17.759V17.7598Z" fill="#00A14B"/>
<path d="M603.368 18.839L593.735 11.505L584.103 18.839L593.735 26.173L603.368 18.839Z" fill="white"/>
<path d="M595.32 18.8392L589.712 14.5684L584.103 18.8392L589.712 23.1092L595.32 18.8392Z" fill="#F7941D"/>
<path d="M639.855 18.3503H622.325V19.3281H639.855V18.3503Z" fill="#00A14B"/>
<path d="M638.025 24.3371C640.046 22.3138 639.856 18.8432 639.856 18.8432C639.856 18.8432 636.387 18.652 634.364 20.6745C632.342 22.697 632.533 26.1676 632.533 26.1676C632.533 26.1676 636.003 26.3588 638.025 24.3363V24.3371Z" fill="#006838"/>
<path d="M634.364 17.0031C636.386 19.0256 639.856 18.8344 639.856 18.8344C639.856 18.8344 640.047 15.3639 638.025 13.3414C636.004 11.3189 632.533 11.5101 632.533 11.5101C632.533 11.5101 632.341 14.9807 634.364 17.0031Z" fill="#006838"/>
<path d="M638.9 21.8907C639.959 20.8315 639.858 19.0139 639.858 19.0139C639.858 19.0139 638.041 18.9139 636.982 19.9731C635.923 21.0323 636.023 22.8499 636.023 22.8499C636.023 22.8499 637.84 22.95 638.899 21.8907H638.9Z" fill="#00A14B"/>
<path d="M636.982 17.7597C638.041 18.8189 639.858 18.7181 639.858 18.7181C639.858 18.7181 639.958 16.9005 638.899 15.8413C637.84 14.782 636.023 14.8821 636.023 14.8821C636.023 14.8821 635.923 16.6996 636.982 17.7589V17.7597Z" fill="#00A14B"/>
<path d="M632.466 18.839L622.834 11.505L613.201 18.839L622.834 26.173L632.466 18.839Z" fill="white"/>
<path d="M624.419 18.8391L618.809 14.5683L613.201 18.8391L618.809 23.1091L624.419 18.8391Z" fill="#F7941D"/>
<path d="M641.081 28.7343H321.029V33.01H641.081V28.7343Z" fill="white"/>
<path d="M321.029 3.53038H322.865C323.137 4.87359 324.323 5.88362 325.744 5.88362H325.755C327.177 5.88362 328.362 4.87278 328.634 3.53038H332.284C332.557 4.87359 333.747 5.88362 335.168 5.88362C336.589 5.88362 337.775 4.87278 338.047 3.53038H341.691C341.964 4.87359 343.149 5.88362 344.57 5.88362H344.582C346.004 5.88362 347.19 4.87278 347.461 3.53038H351.104C351.377 4.87359 352.562 5.88362 353.984 5.88362H353.996C355.417 5.88362 356.603 4.87278 356.875 3.53038H360.518C360.791 4.87359 361.977 5.88362 363.398 5.88362H363.409C364.831 5.88362 366.016 4.87278 366.288 3.53038H369.931C370.203 4.87359 371.389 5.88362 372.811 5.88362H372.822C374.243 5.88362 375.429 4.87278 375.701 3.53038H379.351C379.624 4.87359 380.814 5.88362 382.235 5.88362C383.656 5.88362 384.842 4.87278 385.114 3.53038H388.757C389.029 4.87359 390.215 5.88362 391.637 5.88362H391.648C393.07 5.88362 394.255 4.87278 394.527 3.53038H398.17C398.442 4.87359 399.627 5.88362 401.049 5.88362H401.061C402.482 5.88362 403.668 4.87278 403.94 3.53038H407.584C407.856 4.87359 409.041 5.88362 410.463 5.88362H410.474C411.896 5.88362 413.082 4.87278 413.354 3.53038H416.997C417.27 4.87359 418.455 5.88362 419.877 5.88362H419.888C421.31 5.88362 422.496 4.87278 422.767 3.53038H426.417C426.69 4.87359 427.881 5.88362 429.302 5.88362C430.723 5.88362 431.909 4.87278 432.181 3.53038H435.824C436.096 4.87359 437.282 5.88362 438.704 5.88362H438.716C440.137 5.88362 441.323 4.87278 441.595 3.53038H445.238C445.511 4.87359 446.697 5.88362 448.118 5.88362H448.129C449.551 5.88362 450.736 4.87278 451.008 3.53038H454.652C454.924 4.87359 456.11 5.88362 457.531 5.88362H457.542C458.964 5.88362 460.15 4.87278 460.422 3.53038H464.065C464.338 4.87359 465.523 5.88362 466.945 5.88362H466.956C468.378 5.88362 469.564 4.87278 469.835 3.53038H473.485C473.758 4.87359 474.948 5.88362 476.369 5.88362C477.79 5.88362 478.977 4.87278 479.249 3.53038H482.892C483.165 4.87359 484.35 5.88362 485.771 5.88362H485.783C487.205 5.88362 488.39 4.87278 488.662 3.53038H492.311C492.585 4.87359 493.775 5.88362 495.196 5.88362C496.617 5.88362 497.803 4.87278 498.075 3.53038H501.718C501.991 4.87359 503.175 5.88362 504.597 5.88362H504.609C506.031 5.88362 507.217 4.87278 507.488 3.53038H511.138C511.411 4.87359 512.601 5.88362 514.022 5.88362C515.444 5.88362 516.629 4.87278 516.902 3.53038H520.551C520.824 4.87359 522.015 5.88362 523.437 5.88362C524.858 5.88362 526.043 4.87278 526.316 3.53038H529.965C530.238 4.87359 531.428 5.88362 532.85 5.88362C534.272 5.88362 535.457 4.87278 535.729 3.53038H539.373C539.645 4.87359 540.83 5.88362 542.252 5.88362H542.264C543.686 5.88362 544.871 4.87278 545.143 3.53038H548.792C549.066 4.87359 550.256 5.88362 551.677 5.88362C553.098 5.88362 554.284 4.87278 554.556 3.53038H558.206C558.479 4.87359 559.669 5.88362 561.09 5.88362C562.511 5.88362 563.698 4.87278 563.969 3.53038H567.619C567.892 4.87359 569.083 5.88362 570.504 5.88362C571.925 5.88362 573.111 4.87278 573.383 3.53038H577.026C577.299 4.87359 578.484 5.88362 579.906 5.88362H579.918C581.339 5.88362 582.525 4.87278 582.797 3.53038H586.44C586.713 4.87359 587.898 5.88362 589.32 5.88362H589.331C590.753 5.88362 591.938 4.87278 592.21 3.53038H595.859C596.133 4.87359 597.322 5.88362 598.744 5.88362C600.166 5.88362 601.352 4.87278 601.623 3.53038H605.273C605.546 4.87359 606.736 5.88362 608.157 5.88362C609.579 5.88362 610.764 4.87278 611.036 3.53038H614.679C614.952 4.87359 616.138 5.88362 617.559 5.88362H617.571C618.992 5.88362 620.177 4.87278 620.45 3.53038H624.094C624.365 4.87359 625.551 5.88362 626.973 5.88362H626.984C628.406 5.88362 629.591 4.87278 629.863 3.53038H633.512C633.785 4.87359 634.975 5.88362 636.397 5.88362C637.819 5.88362 639.005 4.87278 639.276 3.53038H641.076V2.35336H639.276C639.004 1.01015 637.818 0.00012207 636.397 0.00012207H636.386C634.964 0.00012207 633.783 1.01096 633.512 2.35336H629.863C629.59 1.01015 628.405 0.00012207 626.984 0.00012207H626.973C625.552 0.00012207 624.366 1.01096 624.094 2.35336H620.45C620.178 1.01015 618.992 0.00012207 617.571 0.00012207H617.559C616.138 0.00012207 614.952 1.01096 614.679 2.35336H611.036C610.764 1.01015 609.578 0.00012207 608.157 0.00012207H608.145C606.724 0.00012207 605.543 1.01096 605.272 2.35336H601.622C601.35 1.01015 600.164 0.00012207 598.743 0.00012207H598.732C597.311 0.00012207 596.13 1.01096 595.859 2.35336H592.209C591.937 1.01015 590.752 0.00012207 589.33 0.00012207H589.319C587.898 0.00012207 586.712 1.01096 586.44 2.35336H582.796C582.523 1.01015 581.338 0.00012207 579.917 0.00012207H579.905C578.484 0.00012207 577.298 1.01096 577.026 2.35336H573.382C573.109 1.01096 571.925 0.00012207 570.503 0.00012207H570.492C569.07 0.00012207 567.889 1.01096 567.618 2.35336H563.969C563.697 1.01096 562.512 0.00012207 561.09 0.00012207H561.079C559.658 0.00012207 558.477 1.01096 558.206 2.35336H554.557C554.284 1.01096 553.1 0.00012207 551.678 0.00012207H551.667C550.246 0.00012207 549.064 1.01096 548.793 2.35336H545.145C544.872 1.01096 543.686 0.00012207 542.265 0.00012207H542.253C540.832 0.00012207 539.647 1.01096 539.374 2.35417H535.731C535.459 1.01096 534.273 0.00012207 532.851 0.00012207H532.84C531.419 0.00012207 530.238 1.01096 529.967 2.35417H526.318C526.046 1.01096 524.861 0.00012207 523.439 0.00012207H523.427C522.006 0.00012207 520.824 1.01096 520.553 2.35417H516.904C516.631 1.01096 515.446 0.00012207 514.025 0.00012207H514.013C512.592 0.00012207 511.41 1.01096 511.139 2.35417H507.49C507.217 1.01096 506.033 0.00012207 504.611 0.00012207H504.599C503.178 0.00012207 501.992 1.01096 501.72 2.35417H498.077C497.804 1.01096 496.619 0.00012207 495.198 0.00012207H495.186C493.765 0.00012207 492.584 1.01096 492.313 2.35417H488.664C488.392 1.01096 487.207 0.00012207 485.785 0.00012207H485.774C484.352 0.00012207 483.167 1.01096 482.895 2.35417H479.251C478.979 1.01096 477.793 0.00012207 476.372 0.00012207H476.361C474.939 0.00012207 473.758 1.01096 473.487 2.35417H469.838C469.565 1.01096 468.38 0.00012207 466.959 0.00012207H466.947C465.526 0.00012207 464.34 1.01096 464.067 2.35417H460.425C460.152 1.01096 458.966 0.00012207 457.545 0.00012207H457.533C456.111 0.00012207 454.927 1.01096 454.654 2.35417H451.01C450.738 1.01176 449.553 0.00012207 448.131 0.00012207H448.12C446.699 0.00012207 445.514 1.01096 445.241 2.35417H441.597C441.325 1.01176 440.14 0.00012207 438.718 0.00012207H438.706C437.284 0.00012207 436.099 1.01096 435.827 2.35417H432.183C431.911 1.01176 430.726 0.00012207 429.304 0.00012207H429.293C427.872 0.00012207 426.69 1.01096 426.419 2.35417H422.77C422.498 1.01176 421.313 0.00012207 419.891 0.00012207H419.879C418.458 0.00012207 417.272 1.01096 417 2.35417H413.357C413.084 1.01176 411.899 0.00012207 410.477 0.00012207H410.465C409.044 0.00012207 407.858 1.01096 407.586 2.35417H403.943C403.671 1.01176 402.485 0.00012207 401.063 0.00012207H401.051C399.63 0.00012207 398.444 1.01096 398.172 2.35417H394.529C394.257 1.01176 393.071 0.00012207 391.65 0.00012207H391.639C390.217 0.00012207 389.032 1.01096 388.76 2.35417H385.117C384.845 1.01176 383.66 0.00012207 382.238 0.00012207H382.226C380.804 0.00012207 379.623 1.01096 379.352 2.35417H375.703C375.431 1.01176 374.246 0.00012207 372.824 0.00012207H372.812C371.391 0.00012207 370.206 1.01096 369.932 2.35417H366.29C366.017 1.01176 364.832 0.00012207 363.41 0.00012207H363.399C361.978 0.00012207 360.793 1.01096 360.52 2.35417H356.876C356.605 1.01176 355.419 0.00012207 353.997 0.00012207H353.986C352.564 0.00012207 351.379 1.01096 351.106 2.35417H347.463C347.191 1.01176 346.006 0.00012207 344.584 0.00012207H344.572C343.151 0.00012207 341.965 1.01096 341.693 2.35417H338.049C337.777 1.01176 336.592 0.00012207 335.17 0.00012207H335.158C333.736 0.00012207 332.555 1.01096 332.284 2.35417H328.635C328.363 1.01176 327.178 0.00012207 325.756 0.00012207H325.744C324.323 0.00012207 323.137 1.01096 322.865 2.35417H321.029V3.53038Z" fill="#680018"/>
<path d="M1279.61 8.9436H959.56V28.7343H1279.61V8.9436Z" fill="#ED1C24"/>
<path d="M1279.61 3.51831H959.56V8.94358H1279.61V3.51831Z" fill="white"/>
<path d="M987.434 18.3502H969.903V19.328H987.434V18.3502Z" fill="#00A14B"/>
<path d="M985.603 24.3369C987.624 22.3137 987.433 18.8431 987.433 18.8431C987.433 18.8431 983.964 18.6519 981.942 20.6744C979.92 22.6968 980.111 26.1674 980.111 26.1674C980.111 26.1674 983.581 26.3586 985.603 24.3361V24.3369Z" fill="#006838"/>
<path d="M981.942 17.0029C983.964 19.0254 987.434 18.8342 987.434 18.8342C987.434 18.8342 987.625 15.3636 985.604 13.3411C983.582 11.3186 980.112 11.5098 980.112 11.5098C980.112 11.5098 979.921 14.9804 981.943 17.0029H981.942Z" fill="#006838"/>
<path d="M986.478 21.8907C987.537 20.8315 987.436 19.0139 987.436 19.0139C987.436 19.0139 985.619 18.9139 984.56 19.9731C983.501 21.0324 983.602 22.8499 983.602 22.8499C983.602 22.8499 985.419 22.95 986.478 21.8907Z" fill="#00A14B"/>
<path d="M984.561 17.7597C985.62 18.8189 987.437 18.718 987.437 18.718C987.437 18.718 987.537 16.9005 986.479 15.8412C985.42 14.782 983.603 14.882 983.603 14.882C983.603 14.882 983.503 16.6996 984.562 17.7588L984.561 17.7597Z" fill="#00A14B"/>
<path d="M980.045 18.8392L970.412 11.5052L960.78 18.8392L970.412 26.1732L980.045 18.8392Z" fill="white"/>
<path d="M971.997 18.8392L966.388 14.5684L960.78 18.8392L966.388 23.1093L971.997 18.8392Z" fill="#F7941D"/>
<path d="M1016.53 18.3502H999.002V19.328H1016.53V18.3502Z" fill="#00A14B"/>
<path d="M1014.7 24.3371C1016.72 22.3138 1016.53 18.8432 1016.53 18.8432C1016.53 18.8432 1013.06 18.652 1011.04 20.6745C1009.02 22.697 1009.21 26.1675 1009.21 26.1675C1009.21 26.1675 1012.68 26.3587 1014.7 24.3362V24.3371Z" fill="#006838"/>
<path d="M1011.04 17.0029C1013.06 19.0254 1016.53 18.8342 1016.53 18.8342C1016.53 18.8342 1016.72 15.3637 1014.7 13.3412C1012.68 11.3187 1009.21 11.5099 1009.21 11.5099C1009.21 11.5099 1009.02 14.9805 1011.04 17.0029Z" fill="#006838"/>
<path d="M1015.57 21.8907C1016.63 20.8314 1016.53 19.0139 1016.53 19.0139C1016.53 19.0139 1014.72 18.9138 1013.66 19.9731C1012.6 21.0323 1012.7 22.8499 1012.7 22.8499C1012.7 22.8499 1014.52 22.9499 1015.58 21.8907H1015.57Z" fill="#00A14B"/>
<path d="M1013.66 17.7597C1014.72 18.8189 1016.53 18.718 1016.53 18.718C1016.53 18.718 1016.63 16.9005 1015.57 15.8412C1014.52 14.782 1012.7 14.882 1012.7 14.882C1012.7 14.882 1012.6 16.6996 1013.66 17.7588L1013.66 17.7597Z" fill="#00A14B"/>
<path d="M1009.14 18.839L999.51 11.505L989.877 18.839L999.51 26.173L1009.14 18.839Z" fill="white"/>
<path d="M1001.09 18.8391L995.485 14.5682L989.877 18.8391L995.485 23.1091L1001.09 18.8391Z" fill="#F7941D"/>
<path d="M1045.63 18.3503H1028.1V19.328H1045.63V18.3503Z" fill="#00A14B"/>
<path d="M1043.8 24.3371C1045.82 22.3138 1045.63 18.8432 1045.63 18.8432C1045.63 18.8432 1042.16 18.652 1040.14 20.6745C1038.12 22.697 1038.31 26.1675 1038.31 26.1675C1038.31 26.1675 1041.78 26.3587 1043.8 24.3362V24.3371Z" fill="#006838"/>
<path d="M1040.14 17.0031C1042.16 19.0256 1045.63 18.8344 1045.63 18.8344C1045.63 18.8344 1045.82 15.3638 1043.8 13.3414C1041.78 11.3189 1038.31 11.5101 1038.31 11.5101C1038.31 11.5101 1038.12 14.9806 1040.14 17.0031Z" fill="#006838"/>
<path d="M1044.67 21.8907C1045.73 20.8314 1045.63 19.0139 1045.63 19.0139C1045.63 19.0139 1043.82 18.9138 1042.76 19.9731C1041.7 21.0323 1041.8 22.8499 1041.8 22.8499C1041.8 22.8499 1043.62 22.9499 1044.67 21.8907Z" fill="#00A14B"/>
<path d="M1042.76 17.7597C1043.82 18.8189 1045.63 18.718 1045.63 18.718C1045.63 18.718 1045.73 16.9005 1044.67 15.8412C1043.62 14.782 1041.8 14.882 1041.8 14.882C1041.8 14.882 1041.7 16.6996 1042.76 17.7588L1042.76 17.7597Z" fill="#00A14B"/>
<path d="M1038.24 18.839L1028.61 11.505L1018.98 18.839L1028.61 26.173L1038.24 18.839Z" fill="white"/>
<path d="M1030.19 18.8391L1024.58 14.5682L1018.98 18.8391L1024.58 23.1091L1030.19 18.8391Z" fill="#F7941D"/>
<path d="M1074.73 18.3504H1057.2V19.3282H1074.73V18.3504Z" fill="#00A14B"/>
<path d="M1072.9 24.3371C1074.92 22.3138 1074.73 18.8432 1074.73 18.8432C1074.73 18.8432 1071.26 18.652 1069.24 20.6745C1067.21 22.697 1067.41 26.1675 1067.41 26.1675C1067.41 26.1675 1070.88 26.3587 1072.9 24.3362V24.3371Z" fill="#006838"/>
<path d="M1069.24 17.003C1071.26 19.0255 1074.73 18.8343 1074.73 18.8343C1074.73 18.8343 1074.92 15.3637 1072.9 13.3412C1070.87 11.3188 1067.4 11.51 1067.4 11.51C1067.4 11.51 1067.21 14.9805 1069.24 17.003Z" fill="#006838"/>
<path d="M1073.77 21.8909C1074.83 20.8316 1074.73 19.0141 1074.73 19.0141C1074.73 19.0141 1072.91 18.914 1071.85 19.9733C1070.79 21.0325 1070.89 22.8501 1070.89 22.8501C1070.89 22.8501 1072.71 22.9501 1073.77 21.8909H1073.77Z" fill="#00A14B"/>
<path d="M1071.85 17.7597C1072.91 18.819 1074.73 18.7181 1074.73 18.7181C1074.73 18.7181 1074.83 16.9006 1073.77 15.8413C1072.71 14.7821 1070.9 14.8821 1070.9 14.8821C1070.9 14.8821 1070.8 16.6997 1071.86 17.7589L1071.85 17.7597Z" fill="#00A14B"/>
<path d="M1067.34 18.8394L1057.71 11.5054L1048.07 18.8394L1057.71 26.1734L1067.34 18.8394Z" fill="white"/>
<path d="M1059.29 18.8393L1053.68 14.5685L1048.07 18.8393L1053.68 23.1094L1059.29 18.8393Z" fill="#F7941D"/>
<path d="M1103.83 18.3502H1086.3V19.328H1103.83V18.3502Z" fill="#00A14B"/>
<path d="M1102 24.3369C1104.02 22.3137 1103.83 18.8431 1103.83 18.8431C1103.83 18.8431 1100.36 18.6519 1098.34 20.6744C1096.31 22.6968 1096.51 26.1674 1096.51 26.1674C1096.51 26.1674 1099.98 26.3586 1102 24.3361V24.3369Z" fill="#006838"/>
<path d="M1098.34 17.0029C1100.36 19.0254 1103.83 18.8342 1103.83 18.8342C1103.83 18.8342 1104.02 15.3636 1102 13.3411C1099.97 11.3186 1096.5 11.5098 1096.5 11.5098C1096.5 11.5098 1096.31 14.9804 1098.34 17.0029Z" fill="#006838"/>
<path d="M1102.87 21.8907C1103.93 20.8315 1103.83 19.0139 1103.83 19.0139C1103.83 19.0139 1102.01 18.9139 1100.95 19.9731C1099.89 21.0324 1099.99 22.8499 1099.99 22.8499C1099.99 22.8499 1101.81 22.95 1102.87 21.8907H1102.87Z" fill="#00A14B"/>
<path d="M1100.95 17.7597C1102.01 18.8189 1103.83 18.718 1103.83 18.718C1103.83 18.718 1103.93 16.9005 1102.87 15.8412C1101.81 14.782 1099.99 14.882 1099.99 14.882C1099.99 14.882 1099.89 16.6996 1100.95 17.7588V17.7597Z" fill="#00A14B"/>
<path d="M1096.44 18.8391L1086.81 11.5051L1077.17 18.8391L1086.81 26.1731L1096.44 18.8391Z" fill="white"/>
<path d="M1088.39 18.8392L1082.78 14.5684L1077.17 18.8392L1082.78 23.1093L1088.39 18.8392Z" fill="#F7941D"/>
<path d="M1132.93 18.3502H1115.4V19.328H1132.93V18.3502Z" fill="#00A14B"/>
<path d="M1131.09 24.3371C1133.12 22.3138 1132.93 18.8432 1132.93 18.8432C1132.93 18.8432 1129.46 18.652 1127.43 20.6745C1125.41 22.697 1125.6 26.1675 1125.6 26.1675C1125.6 26.1675 1129.07 26.3587 1131.09 24.3362V24.3371Z" fill="#006838"/>
<path d="M1127.43 17.0031C1129.46 19.0256 1132.93 18.8344 1132.93 18.8344C1132.93 18.8344 1133.12 15.3638 1131.09 13.3414C1129.07 11.3189 1125.6 11.5101 1125.6 11.5101C1125.6 11.5101 1125.41 14.9806 1127.43 17.0031Z" fill="#006838"/>
<path d="M1131.97 21.8907C1133.03 20.8314 1132.93 19.0139 1132.93 19.0139C1132.93 19.0139 1131.11 18.9138 1130.05 19.9731C1128.99 21.0323 1129.09 22.8499 1129.09 22.8499C1129.09 22.8499 1130.91 22.9499 1131.97 21.8907Z" fill="#00A14B"/>
<path d="M1130.05 17.7597C1131.11 18.8189 1132.93 18.718 1132.93 18.718C1132.93 18.718 1133.03 16.9005 1131.97 15.8412C1130.91 14.782 1129.09 14.882 1129.09 14.882C1129.09 14.882 1128.99 16.6996 1130.05 17.7588V17.7597Z" fill="#00A14B"/>
<path d="M1125.54 18.839L1115.9 11.505L1106.27 18.839L1115.9 26.173L1125.54 18.839Z" fill="white"/>
<path d="M1117.49 18.8391L1111.88 14.5682L1106.27 18.8391L1111.88 23.1091L1117.49 18.8391Z" fill="#F7941D"/>
<path d="M1162.02 18.3503H1144.49V19.328H1162.02V18.3503Z" fill="#00A14B"/>
<path d="M1160.19 24.3371C1162.22 22.3138 1162.02 18.8432 1162.02 18.8432C1162.02 18.8432 1158.55 18.652 1156.53 20.6745C1154.51 22.697 1154.7 26.1675 1154.7 26.1675C1154.7 26.1675 1158.17 26.3587 1160.19 24.3362L1160.19 24.3371Z" fill="#006838"/>
<path d="M1156.53 17.003C1158.55 19.0255 1162.02 18.8343 1162.02 18.8343C1162.02 18.8343 1162.22 15.3637 1160.19 13.3412C1158.17 11.3188 1154.7 11.51 1154.7 11.51C1154.7 11.51 1154.51 14.9805 1156.53 17.003H1156.53Z" fill="#006838"/>
<path d="M1161.07 21.8907C1162.13 20.8314 1162.03 19.0139 1162.03 19.0139C1162.03 19.0139 1160.21 18.9138 1159.15 19.9731C1158.09 21.0323 1158.19 22.8499 1158.19 22.8499C1158.19 22.8499 1160.01 22.9499 1161.07 21.8907Z" fill="#00A14B"/>
<path d="M1159.15 17.7597C1160.21 18.8189 1162.03 18.718 1162.03 18.718C1162.03 18.718 1162.13 16.9005 1161.07 15.8412C1160.01 14.782 1158.19 14.882 1158.19 14.882C1158.19 14.882 1158.09 16.6996 1159.15 17.7588V17.7597Z" fill="#00A14B"/>
<path d="M1154.63 18.839L1145 11.505L1135.37 18.839L1145 26.173L1154.63 18.839Z" fill="white"/>
<path d="M1146.59 18.8391L1140.98 14.5682L1135.37 18.8391L1140.98 23.1091L1146.59 18.8391Z" fill="#F7941D"/>
<path d="M1191.09 18.3503H1173.56V19.328H1191.09V18.3503Z" fill="#00A14B"/>
<path d="M1189.26 24.3371C1191.28 22.3138 1191.09 18.8432 1191.09 18.8432C1191.09 18.8432 1187.62 18.652 1185.6 20.6745C1183.58 22.697 1183.77 26.1675 1183.77 26.1675C1183.77 26.1675 1187.24 26.3587 1189.26 24.3362V24.3371Z" fill="#006838"/>
<path d="M1185.6 17.0031C1187.62 19.0256 1191.09 18.8344 1191.09 18.8344C1191.09 18.8344 1191.28 15.3638 1189.26 13.3414C1187.24 11.3189 1183.77 11.5101 1183.77 11.5101C1183.77 11.5101 1183.58 14.9806 1185.6 17.0031Z" fill="#006838"/>
<path d="M1190.14 21.8907C1191.19 20.8314 1191.09 19.0139 1191.09 19.0139C1191.09 19.0139 1189.28 18.9138 1188.22 19.9731C1187.16 21.0323 1187.26 22.8499 1187.26 22.8499C1187.26 22.8499 1189.08 22.9499 1190.14 21.8907H1190.14Z" fill="#00A14B"/>
<path d="M1188.22 17.7597C1189.28 18.8189 1191.09 18.718 1191.09 18.718C1191.09 18.718 1191.19 16.9005 1190.14 15.8412C1189.08 14.782 1187.26 14.882 1187.26 14.882C1187.26 14.882 1187.16 16.6996 1188.22 17.7588L1188.22 17.7597Z" fill="#00A14B"/>
<path d="M1183.7 18.839L1174.07 11.505L1164.44 18.839L1174.07 26.173L1183.7 18.839Z" fill="white"/>
<path d="M1175.65 18.8391L1170.05 14.5682L1164.44 18.8391L1170.05 23.1091L1175.65 18.8391Z" fill="#F7941D"/>
<path d="M1220.19 18.3503H1202.66V19.328H1220.19V18.3503Z" fill="#00A14B"/>
<path d="M1218.36 24.3369C1220.38 22.3137 1220.19 18.8431 1220.19 18.8431C1220.19 18.8431 1216.72 18.6519 1214.7 20.6744C1212.68 22.6968 1212.87 26.1674 1212.87 26.1674C1212.87 26.1674 1216.34 26.3586 1218.36 24.3361L1218.36 24.3369Z" fill="#006838"/>
<path d="M1214.7 17.0029C1216.72 19.0254 1220.19 18.8342 1220.19 18.8342C1220.19 18.8342 1220.38 15.3636 1218.36 13.3411C1216.34 11.3186 1212.87 11.5098 1212.87 11.5098C1212.87 11.5098 1212.68 14.9804 1214.7 17.0029H1214.7Z" fill="#006838"/>
<path d="M1219.23 21.8907C1220.29 20.8315 1220.19 19.0139 1220.19 19.0139C1220.19 19.0139 1218.37 18.9139 1217.32 19.9731C1216.26 21.0324 1216.36 22.8499 1216.36 22.8499C1216.36 22.8499 1218.17 22.95 1219.23 21.8907H1219.23Z" fill="#00A14B"/>
<path d="M1217.32 17.7597C1218.37 18.8189 1220.19 18.718 1220.19 18.718C1220.19 18.718 1220.29 16.9005 1219.23 15.8412C1218.17 14.782 1216.36 14.882 1216.36 14.882C1216.36 14.882 1216.26 16.6996 1217.32 17.7588V17.7597Z" fill="#00A14B"/>
<path d="M1212.8 18.8392L1203.17 11.5052L1193.54 18.8392L1203.17 26.1732L1212.8 18.8392Z" fill="white"/>
<path d="M1204.75 18.8392L1199.14 14.5684L1193.54 18.8392L1199.14 23.1093L1204.75 18.8392Z" fill="#F7941D"/>
<path d="M1249.29 18.3503H1231.76V19.3281H1249.29V18.3503Z" fill="#00A14B"/>
<path d="M1247.46 24.3371C1249.48 22.3138 1249.29 18.8432 1249.29 18.8432C1249.29 18.8432 1245.82 18.652 1243.8 20.6745C1241.77 22.697 1241.97 26.1675 1241.97 26.1675C1241.97 26.1675 1245.44 26.3587 1247.46 24.3362V24.3371Z" fill="#006838"/>
<path d="M1243.8 17.003C1245.82 19.0255 1249.29 18.8343 1249.29 18.8343C1249.29 18.8343 1249.48 15.3637 1247.46 13.3412C1245.44 11.3188 1241.97 11.51 1241.97 11.51C1241.97 11.51 1241.77 14.9805 1243.8 17.003Z" fill="#006838"/>
<path d="M1248.33 21.8909C1249.39 20.8316 1249.29 19.0141 1249.29 19.0141C1249.29 19.0141 1247.47 18.914 1246.41 19.9733C1245.36 21.0325 1245.46 22.8501 1245.46 22.8501C1245.46 22.8501 1247.27 22.9501 1248.33 21.8909Z" fill="#00A14B"/>
<path d="M1246.41 17.7598C1247.47 18.819 1249.29 18.7182 1249.29 18.7182C1249.29 18.7182 1249.39 16.9006 1248.33 15.8414C1247.27 14.7821 1245.46 14.8822 1245.46 14.8822C1245.46 14.8822 1245.36 16.6997 1246.41 17.759V17.7598Z" fill="#00A14B"/>
<path d="M1241.9 18.839L1232.26 11.505L1222.63 18.839L1232.26 26.173L1241.9 18.839Z" fill="white"/>
<path d="M1233.85 18.8392L1228.24 14.5683L1222.63 18.8392L1228.24 23.1092L1233.85 18.8392Z" fill="#F7941D"/>
<path d="M1278.39 18.3502H1260.86V19.328H1278.39V18.3502Z" fill="#00A14B"/>
<path d="M1276.56 24.3371C1278.58 22.3138 1278.39 18.8432 1278.39 18.8432C1278.39 18.8432 1274.92 18.652 1272.89 20.6745C1270.87 22.697 1271.06 26.1675 1271.06 26.1675C1271.06 26.1675 1274.53 26.3587 1276.56 24.3362V24.3371Z" fill="#006838"/>
<path d="M1272.89 17.0031C1274.92 19.0256 1278.39 18.8344 1278.39 18.8344C1278.39 18.8344 1278.58 15.3638 1276.56 13.3414C1274.53 11.3189 1271.06 11.5101 1271.06 11.5101C1271.06 11.5101 1270.87 14.9806 1272.89 17.0031Z" fill="#006838"/>
<path d="M1277.43 21.8907C1278.49 20.8314 1278.39 19.0139 1278.39 19.0139C1278.39 19.0139 1276.57 18.9138 1275.51 19.9731C1274.45 21.0323 1274.55 22.8499 1274.55 22.8499C1274.55 22.8499 1276.37 22.9499 1277.43 21.8907H1277.43Z" fill="#00A14B"/>
<path d="M1275.51 17.7597C1276.57 18.8189 1278.39 18.718 1278.39 18.718C1278.39 18.718 1278.49 16.9005 1277.43 15.8412C1276.37 14.782 1274.55 14.882 1274.55 14.882C1274.55 14.882 1274.45 16.6996 1275.51 17.7588V17.7597Z" fill="#00A14B"/>
<path d="M1271 18.839L1261.36 11.505L1251.73 18.839L1261.36 26.173L1271 18.839Z" fill="white"/>
<path d="M1262.95 18.8391L1257.34 14.5682L1251.73 18.8391L1257.34 23.1091L1262.95 18.8391Z" fill="#F7941D"/>
<path d="M1279.61 28.7344H959.56V33.0101H1279.61V28.7344Z" fill="white"/>
<path d="M959.56 3.53026H961.395C961.668 4.87347 962.853 5.88349 964.274 5.88349H964.286C965.707 5.88349 966.893 4.87266 967.165 3.53026H970.814C971.087 4.87347 972.278 5.88349 973.699 5.88349C975.12 5.88349 976.305 4.87266 976.578 3.53026H980.222C980.494 4.87347 981.68 5.88349 983.101 5.88349H983.113C984.535 5.88349 985.72 4.87266 985.992 3.53026H989.635C989.907 4.87347 991.093 5.88349 992.515 5.88349H992.526C993.948 5.88349 995.133 4.87266 995.405 3.53026H999.049C999.322 4.87347 1000.51 5.88349 1001.93 5.88349H1001.94C1003.36 5.88349 1004.55 4.87266 1004.82 3.53026H1008.46C1008.73 4.87347 1009.92 5.88349 1011.34 5.88349H1011.35C1012.77 5.88349 1013.96 4.87266 1014.23 3.53026H1017.88C1018.15 4.87347 1019.34 5.88349 1020.77 5.88349C1022.19 5.88349 1023.37 4.87266 1023.65 3.53026H1027.29C1027.56 4.87347 1028.75 5.88349 1030.17 5.88349H1030.18C1031.6 5.88349 1032.79 4.87266 1033.06 3.53026H1036.7C1036.97 4.87347 1038.16 5.88349 1039.58 5.88349H1039.59C1041.01 5.88349 1042.2 4.87266 1042.47 3.53026H1046.11C1046.39 4.87347 1047.57 5.88349 1048.99 5.88349H1049C1050.43 5.88349 1051.61 4.87266 1051.88 3.53026H1055.53C1055.8 4.87347 1056.99 5.88349 1058.41 5.88349H1058.42C1059.84 5.88349 1061.03 4.87266 1061.3 3.53026H1064.95C1065.22 4.87347 1066.41 5.88349 1067.83 5.88349C1069.25 5.88349 1070.44 4.87266 1070.71 3.53026H1074.35C1074.63 4.87347 1075.81 5.88349 1077.23 5.88349H1077.25C1078.67 5.88349 1079.85 4.87266 1080.13 3.53026H1083.77C1084.04 4.87347 1085.23 5.88349 1086.65 5.88349H1086.66C1088.08 5.88349 1089.27 4.87266 1089.54 3.53026H1093.18C1093.45 4.87347 1094.64 5.88349 1096.06 5.88349H1096.07C1097.49 5.88349 1098.68 4.87266 1098.95 3.53026H1102.6C1102.87 4.87347 1104.05 5.88349 1105.48 5.88349H1105.49C1106.91 5.88349 1108.09 4.87266 1108.37 3.53026H1112.02C1112.29 4.87347 1113.48 5.88349 1114.9 5.88349C1116.32 5.88349 1117.51 4.87266 1117.78 3.53026H1121.42C1121.7 4.87347 1122.88 5.88349 1124.3 5.88349H1124.31C1125.74 5.88349 1126.92 4.87266 1127.19 3.53026H1130.84C1131.12 4.87347 1132.31 5.88349 1133.73 5.88349C1135.15 5.88349 1136.33 4.87266 1136.61 3.53026H1140.25C1140.52 4.87347 1141.71 5.88349 1143.13 5.88349H1143.14C1144.56 5.88349 1145.75 4.87266 1146.02 3.53026H1149.67C1149.94 4.87347 1151.13 5.88349 1152.55 5.88349C1153.97 5.88349 1155.16 4.87266 1155.43 3.53026H1159.08C1159.35 4.87347 1160.55 5.88349 1161.97 5.88349C1163.39 5.88349 1164.57 4.87266 1164.85 3.53026H1168.5C1168.77 4.87347 1169.96 5.88349 1171.38 5.88349C1172.8 5.88349 1173.99 4.87266 1174.26 3.53026H1177.9C1178.18 4.87347 1179.36 5.88349 1180.78 5.88349H1180.79C1182.22 5.88349 1183.4 4.87266 1183.67 3.53026H1187.32C1187.6 4.87347 1188.79 5.88349 1190.21 5.88349C1191.63 5.88349 1192.81 4.87266 1193.09 3.53026H1196.74C1197.01 4.87347 1198.2 5.88349 1199.62 5.88349C1201.04 5.88349 1202.23 4.87266 1202.5 3.53026H1206.15C1206.42 4.87347 1207.61 5.88349 1209.03 5.88349C1210.46 5.88349 1211.64 4.87266 1211.91 3.53026H1215.56C1215.83 4.87347 1217.01 5.88349 1218.44 5.88349H1218.45C1219.87 5.88349 1221.06 4.87266 1221.33 3.53026H1224.97C1225.24 4.87347 1226.43 5.88349 1227.85 5.88349H1227.86C1229.28 5.88349 1230.47 4.87266 1230.74 3.53026H1234.39C1234.66 4.87347 1235.85 5.88349 1237.27 5.88349C1238.7 5.88349 1239.88 4.87266 1240.15 3.53026H1243.8C1244.08 4.87347 1245.27 5.88349 1246.69 5.88349C1248.11 5.88349 1249.29 4.87266 1249.57 3.53026H1253.21C1253.48 4.87347 1254.67 5.88349 1256.09 5.88349H1256.1C1257.52 5.88349 1258.71 4.87266 1258.98 3.53026H1262.62C1262.9 4.87347 1264.08 5.88349 1265.5 5.88349H1265.51C1266.94 5.88349 1268.12 4.87266 1268.39 3.53026H1272.04C1272.32 4.87347 1273.51 5.88349 1274.93 5.88349C1276.35 5.88349 1277.54 4.87266 1277.81 3.53026H1279.61V2.35324H1277.81C1277.53 1.01003 1276.35 0 1274.93 0H1274.92C1273.49 0 1272.31 1.01083 1272.04 2.35324H1268.39C1268.12 1.01003 1266.94 0 1265.51 0H1265.5C1264.08 0 1262.9 1.01083 1262.62 2.35324H1258.98C1258.71 1.01003 1257.52 0 1256.1 0H1256.09C1254.67 0 1253.48 1.01083 1253.21 2.35324H1249.57C1249.29 1.01003 1248.11 0 1246.69 0H1246.68C1245.25 0 1244.07 1.01083 1243.8 2.35324H1240.15C1239.88 1.01003 1238.69 0 1237.27 0H1237.26C1235.84 0 1234.66 1.01083 1234.39 2.35324H1230.74C1230.47 1.01003 1229.28 0 1227.86 0H1227.85C1226.43 0 1225.24 1.01083 1224.97 2.35324H1221.33C1221.05 1.01003 1219.87 0 1218.45 0H1218.44C1217.01 0 1215.83 1.01083 1215.56 2.35324H1211.91C1211.64 1.01083 1210.46 0 1209.03 0H1209.02C1207.6 0 1206.42 1.01083 1206.15 2.35324H1202.5C1202.23 1.01083 1201.04 0 1199.62 0H1199.61C1198.19 0 1197.01 1.01083 1196.74 2.35324H1193.09C1192.81 1.01083 1191.63 0 1190.21 0H1190.2C1188.78 0 1187.59 1.01083 1187.32 2.35324H1183.68C1183.4 1.01083 1182.22 0 1180.8 0H1180.78C1179.36 0 1178.18 1.01083 1177.9 2.35404H1174.26C1173.99 1.01083 1172.8 0 1171.38 0H1171.37C1169.95 0 1168.77 1.01083 1168.5 2.35404H1164.85C1164.58 1.01083 1163.39 0 1161.97 0H1161.96C1160.54 0 1159.35 1.01083 1159.08 2.35404H1155.43C1155.16 1.01083 1153.98 0 1152.56 0H1152.54C1151.12 0 1149.94 1.01083 1149.67 2.35404H1146.02C1145.75 1.01083 1144.56 0 1143.14 0H1143.13C1141.71 0 1140.52 1.01083 1140.25 2.35404H1136.61C1136.33 1.01083 1135.15 0 1133.73 0H1133.72C1132.3 0 1131.11 1.01083 1130.84 2.35404H1127.19C1126.92 1.01083 1125.74 0 1124.32 0H1124.3C1122.88 0 1121.7 1.01083 1121.43 2.35404H1117.78C1117.51 1.01083 1116.32 0 1114.9 0H1114.89C1113.47 0 1112.29 1.01083 1112.02 2.35404H1108.37C1108.1 1.01083 1106.91 0 1105.49 0H1105.48C1104.06 0 1102.87 1.01083 1102.6 2.35404H1098.96C1098.68 1.01083 1097.5 0 1096.08 0H1096.06C1094.64 0 1093.46 1.01083 1093.18 2.35404H1089.54C1089.27 1.01164 1088.08 0 1086.66 0H1086.65C1085.23 0 1084.04 1.01083 1083.77 2.35404H1080.13C1079.86 1.01164 1078.67 0 1077.25 0H1077.24C1075.81 0 1074.63 1.01083 1074.36 2.35404H1070.71C1070.44 1.01164 1069.26 0 1067.83 0H1067.82C1066.4 0 1065.22 1.01083 1064.95 2.35404H1061.3C1061.03 1.01164 1059.84 0 1058.42 0H1058.41C1056.99 0 1055.8 1.01083 1055.53 2.35404H1051.89C1051.61 1.01164 1050.43 0 1049.01 0H1049C1047.57 0 1046.39 1.01083 1046.12 2.35404H1042.47C1042.2 1.01164 1041.02 0 1039.59 0H1039.58C1038.16 0 1036.97 1.01083 1036.7 2.35404H1033.06C1032.79 1.01164 1031.6 0 1030.18 0H1030.17C1028.75 0 1027.56 1.01083 1027.29 2.35404H1023.65C1023.38 1.01164 1022.19 0 1020.77 0H1020.76C1019.33 0 1018.15 1.01083 1017.88 2.35404H1014.23C1013.96 1.01164 1012.78 0 1011.35 0H1011.34C1009.92 0 1008.74 1.01083 1008.46 2.35404H1004.82C1004.55 1.01164 1003.36 0 1001.94 0H1001.93C1000.51 0 999.323 1.01083 999.051 2.35404H995.407C995.135 1.01164 993.95 0 992.528 0H992.516C991.095 0 989.909 1.01083 989.636 2.35404H985.994C985.721 1.01164 984.536 0 983.114 0H983.102C981.681 0 980.496 1.01083 980.223 2.35404H976.58C976.308 1.01164 975.122 0 973.7 0H973.688C972.266 0 971.086 1.01083 970.815 2.35404H967.165C966.894 1.01164 965.708 0 964.286 0H964.274C962.853 0 961.668 1.01083 961.395 2.35404H959.56V3.53026Z" fill="#680018"/>
</svg>
