<svg width="209" height="495" viewBox="0 0 209 495" fill="none" xmlns="http://www.w3.org/2000/svg">
<path d="M112.62 103.216C112.62 103.216 120.363 416.184 29.0762 502.541" stroke="#244F28" stroke-width="4.72868" stroke-miterlimit="10"/>
<path d="M101.543 9.57574C101.839 11.9874 112.987 117.059 110.575 117.354C108.164 117.65 93.1264 13.0632 92.8309 10.6634C92.5353 8.25173 93.623 1.13507 96.0346 0.839524C98.4462 0.543981 101.248 7.17594 101.555 9.57574H101.543Z" fill="#206321"/>
<path d="M118.532 9.49337C118.449 11.9168 112.999 117.437 110.564 117.366C108.141 117.284 109.666 11.6331 109.748 9.20967C109.831 6.78622 112.018 -0.070384 114.454 0.000546219C116.877 0.0832982 118.615 7.06992 118.532 9.49337Z" fill="#206321"/>
<path d="M135.342 12.0703C134.881 14.4465 112.964 117.815 110.576 117.354C108.199 116.893 126.251 12.7915 126.712 10.4035C127.173 8.02732 130.412 1.5963 132.8 2.04553C135.177 2.50657 135.803 9.68235 135.342 12.0585V12.0703Z" fill="#206321"/>
<path d="M151.525 17.2486C150.697 19.5302 112.856 118.182 110.574 117.355C108.293 116.527 142.434 16.5274 143.261 14.2577C144.089 11.9761 148.297 6.13618 150.579 6.9637C152.861 7.79122 152.352 14.9788 151.525 17.2604V17.2486Z" fill="#206321"/>
<path d="M166.704 24.8971C165.534 27.025 112.703 118.525 110.575 117.355C108.447 116.184 157.838 22.7692 159.008 20.6413C160.179 18.5134 165.25 13.4064 167.378 14.5768C169.506 15.7471 167.874 22.7692 166.692 24.8853L166.704 24.8971Z" fill="#206321"/>
<path d="M180.488 34.8271C178.999 36.7422 112.49 118.844 110.575 117.354C108.66 115.865 172.071 31.3397 173.561 29.4246C175.05 27.5095 180.867 23.2537 182.782 24.7432C184.697 26.2327 181.99 32.912 180.488 34.8153V34.8271Z" fill="#206321"/>
<path d="M192.558 46.8029C190.785 48.458 112.23 119.128 110.575 117.355C108.919 115.582 184.791 42.0388 186.564 40.3837C188.338 38.7287 194.745 35.4304 196.4 37.2037C198.055 38.977 194.331 45.1479 192.558 46.8029Z" fill="#206321"/>
<path d="M151.525 17.2486C150.697 19.5302 112.856 118.182 110.574 117.355C108.293 116.527 142.434 16.5274 143.261 14.2577C144.089 11.9761 148.297 6.13618 150.579 6.9637C152.861 7.79122 152.352 14.9788 151.525 17.2604V17.2486Z" fill="#206321"/>
<path d="M202.595 60.5157C200.585 61.8752 111.934 119.364 110.574 117.354C109.215 115.345 195.667 54.593 197.677 53.2335C199.686 51.874 206.531 49.6279 207.891 51.6376C209.25 53.6473 204.604 59.1562 202.595 60.5157Z" fill="#206321"/>
<path d="M166.704 24.8971C165.534 27.025 112.703 118.525 110.575 117.355C108.447 116.184 157.838 22.7692 159.008 20.6413C160.179 18.5134 165.25 13.4064 167.378 14.5768C169.506 15.7471 167.874 22.7692 166.692 24.8853L166.704 24.8971Z" fill="#206321"/>
<path d="M180.488 34.8271C178.999 36.7422 112.49 118.844 110.575 117.354C108.66 115.865 172.071 31.3397 173.561 29.4246C175.05 27.5095 180.867 23.2537 182.782 24.7432C184.697 26.2327 181.99 32.912 180.488 34.8153V34.8271Z" fill="#206321"/>
<path d="M192.558 46.8029C190.785 48.458 112.23 119.128 110.575 117.355C108.919 115.582 184.791 42.0388 186.564 40.3837C188.338 38.7287 194.745 35.4304 196.4 37.2037C198.055 38.977 194.331 45.1479 192.558 46.8029Z" fill="#206321"/>
<path d="M202.595 60.5157C200.585 61.8752 111.934 119.364 110.574 117.354C109.215 115.345 195.667 54.593 197.677 53.2335C199.686 51.874 206.531 49.6279 207.891 51.6376C209.25 53.6473 204.604 59.1562 202.595 60.5157Z" fill="#206321"/>
<path d="M76.3278 14.7659C77.0016 17.0948 108.246 118.04 110.575 117.367C112.904 116.693 85.4423 14.6595 84.7684 12.3306C84.0946 10.0018 80.2762 3.88993 77.9474 4.56377C75.6185 5.2376 75.6539 12.437 76.3278 14.7659Z" fill="#206321"/>
<path d="M60.6752 21.3977C61.7037 23.5966 108.376 118.395 110.575 117.366C112.774 116.338 69.6598 19.8609 68.6313 17.6739C67.6028 15.4751 62.8741 10.0371 60.6752 11.0774C58.4764 12.1059 59.6467 19.2107 60.6752 21.4096V21.3977Z" fill="#206321"/>
<path d="M46.2658 30.3943C47.6253 32.4039 108.566 118.726 110.576 117.355C112.586 115.995 54.8957 27.4624 53.5362 25.4528C52.1767 23.4431 46.6559 18.8208 44.6462 20.1803C42.6365 21.5398 44.9063 28.3846 46.2658 30.3824V30.3943Z" fill="#206321"/>
<path d="M33.439 41.5421C35.094 43.3154 108.814 119.022 110.576 117.355C112.349 115.7 41.5014 37.2981 39.8464 35.5249C38.1913 33.7516 32.0086 30.0514 30.2471 31.7064C28.4739 33.3615 31.784 39.7688 33.439 41.5303V41.5421Z" fill="#206321"/>
<path d="M22.5153 54.5578C24.4304 56.0473 109.097 119.27 110.575 117.355C112.065 115.44 29.8093 49.1079 27.8942 47.6184C25.979 46.1289 19.2998 43.4335 17.8103 45.3487C16.3208 47.2638 20.5884 53.0682 22.5035 54.5578H22.5153Z" fill="#206321"/>
<path d="M13.7551 69.1338C15.8831 70.3042 109.405 119.482 110.575 117.355C111.745 115.227 20.1153 62.5964 17.9992 61.4261C15.8713 60.2557 8.84921 58.6362 7.69068 60.7641C6.52033 62.892 11.6509 67.9517 13.767 69.122L13.7551 69.1338Z" fill="#206321"/>
<path d="M46.2658 30.3943C47.6253 32.4039 108.566 118.726 110.576 117.355C112.586 115.995 54.8957 27.4624 53.5362 25.4528C52.1767 23.4431 46.6559 18.8208 44.6462 20.1803C42.6365 21.5398 44.9063 28.3846 46.2658 30.3824V30.3943Z" fill="#206321"/>
<path d="M7.39501 84.8921C9.6766 85.7078 109.747 119.636 110.563 117.355C111.379 115.073 12.6438 77.4445 10.3622 76.6288C8.08061 75.8131 0.893068 75.3166 0.0773703 77.5982C-0.738327 79.8797 5.11342 84.0764 7.39501 84.904V84.8921Z" fill="#206321"/>
<path d="M33.439 41.5421C35.094 43.3154 108.814 119.022 110.576 117.355C112.349 115.7 41.5014 37.2981 39.8464 35.5249C38.1913 33.7516 32.0086 30.0514 30.2471 31.7064C28.4739 33.3615 31.784 39.7688 33.439 41.5303V41.5421Z" fill="#206321"/>
<path d="M22.5153 54.5578C24.4304 56.0473 109.097 119.27 110.575 117.355C112.065 115.44 29.8093 49.1079 27.8942 47.6184C25.979 46.1289 19.2998 43.4335 17.8103 45.3487C16.3208 47.2638 20.5884 53.0682 22.5035 54.5578H22.5153Z" fill="#206321"/>
<path d="M13.7551 69.1338C15.8831 70.3042 109.405 119.482 110.575 117.355C111.745 115.227 20.1153 62.5964 17.9992 61.4261C15.8713 60.2557 8.84921 58.6362 7.69068 60.7641C6.52033 62.892 11.6509 67.9517 13.767 69.122L13.7551 69.1338Z" fill="#206321"/>
<path d="M7.39501 84.8921C9.6766 85.7078 109.747 119.636 110.563 117.355C111.379 115.073 12.6438 77.4445 10.3622 76.6288C8.08061 75.8131 0.893068 75.3166 0.0773703 77.5982C-0.738327 79.8797 5.11342 84.0764 7.39501 84.904V84.8921Z" fill="#206321"/>
</svg>
