<svg width="308" height="72" viewBox="0 0 308 72" fill="none" xmlns="http://www.w3.org/2000/svg">
<path d="M17.0879 71.7918H12.9951V61.7246H17.0879V71.7918ZM56.3 61.7195H52.2072V71.7866H56.3V61.7195ZM95.5122 61.7195H91.4193V71.7866H95.5122V61.7195ZM134.724 61.7195H130.631V71.7866H134.724V61.7195ZM173.931 61.7195H169.838V71.7866H173.931V61.7195ZM213.143 61.7195H209.051V71.7866H213.143V61.7195ZM252.355 61.7195H248.263V71.7866H252.355V61.7195ZM291.568 61.7195H287.475V71.7866H291.568V61.7195Z" fill="#AE712F"/>
<path d="M307.545 0H0V61.7195H307.545V0Z" fill="#9973F6"/>
<path d="M293.647 55.3871H13.8969V54.2703C13.8969 50.7148 11.0027 47.8201 7.44774 47.8201H6.33105V13.8993H7.44774C11.0027 13.8993 13.8969 11.0047 13.8969 7.44913V6.33228H293.647V7.44913C293.647 11.0047 296.542 13.8993 300.097 13.8993H301.213V47.8201H300.097C296.542 47.8201 293.647 50.7148 293.647 54.2703V55.3871ZM16.0585 53.1534H291.481C291.983 49.2547 295.077 46.1602 298.975 45.6581V16.0664C295.077 15.5643 291.983 12.4699 291.481 8.57112H16.0585C15.5565 12.4699 12.4626 15.5643 8.56442 16.0664V45.6581C12.4626 46.1602 15.5565 49.2547 16.0585 53.1534Z" fill="#AF96FF"/>
</svg>
