<svg width="249" height="153" viewBox="0 0 249 153" fill="none" xmlns="http://www.w3.org/2000/svg">
<path d="M28.9308 152.841C40.2102 152.841 49.354 143.696 49.354 132.415C49.354 121.134 40.2102 111.989 28.9308 111.989C17.6515 111.989 8.50781 121.134 8.50781 132.415C8.50781 143.696 17.6515 152.841 28.9308 152.841Z" fill="#1A1B1F"/>
<path d="M33.9658 144.58C40.683 141.797 43.8727 134.095 41.0904 127.376C38.3081 120.658 30.6072 117.468 23.89 120.251C17.1729 123.033 13.9831 130.735 16.7654 137.454C19.5478 144.172 27.2486 147.362 33.9658 144.58Z" fill="#525355"/>
<path d="M37.8565 133.897C38.6516 128.998 35.3255 124.382 30.4275 123.587C25.5294 122.791 20.9143 126.118 20.1193 131.017C19.3242 135.916 22.6503 140.532 27.5483 141.327C32.4463 142.122 37.0615 138.795 37.8565 133.897Z" fill="white"/>
<path d="M34.1948 133.626C34.8875 130.69 33.0697 127.749 30.1346 127.056C27.1995 126.363 24.2586 128.181 23.5658 131.117C22.8731 134.052 24.6909 136.994 27.626 137.687C30.5611 138.38 33.502 136.561 34.1948 133.626Z" fill="#525355"/>
<path d="M165.3 92.9661H162.304V117.373H165.3V92.9661Z" fill="black"/>
<path d="M96.5415 92.9661H93.5449V117.373H96.5415V92.9661Z" fill="black"/>
<path d="M169.285 96.9006H133.956V90.886H172.907L169.285 96.9006Z" fill="black"/>
<path d="M97.0432 96.9006H61.7139V90.886H100.665L97.0432 96.9006Z" fill="black"/>
<path d="M178.147 112.229H141.332V117.25H178.147V112.229Z" fill="#525355"/>
<path d="M64.6191 76.833H94.8823C99.1544 76.833 102.627 80.3014 102.627 84.5793V90.8246H64.6191V76.8381V76.833Z" fill="#6C4196"/>
<mask id="mask0_70_11949" style="mask-type:luminance" maskUnits="userSpaceOnUse" x="64" y="76" width="39" height="15">
<path d="M64.6191 76.833H94.8823C99.1544 76.833 102.627 80.3014 102.627 84.5793V90.8246H64.6191V76.8381V76.833Z" fill="white"/>
</mask>
<g mask="url(#mask0_70_11949)">
<path d="M105.491 83.145H54.0518V93.8935H105.491V83.145Z" fill="#452976"/>
</g>
<path d="M212.022 67.7751H219.05V114.74H209.911L200.261 84.2873L212.022 67.7751Z" fill="black"/>
<path d="M6.95628 61.9397L1.90039 117.25H144.883V97.4129C144.883 94.9589 142.895 92.971 140.441 92.971H125.325V72.7343H118.697V102.331C118.697 106.102 115.639 109.16 111.869 109.16H88.1671C84.4534 109.16 81.4208 106.194 81.3389 102.48L80.755 70.8285C80.6628 65.8948 76.6416 61.9448 71.7036 61.9448H6.95628V61.9397Z" fill="#4349CE"/>
<mask id="mask1_70_11949" style="mask-type:luminance" maskUnits="userSpaceOnUse" x="1" y="61" width="144" height="57">
<path d="M6.95628 61.9397L1.90039 117.25H144.883V97.4129C144.883 94.9589 142.895 92.971 140.441 92.971H125.325V72.7343H118.697V102.331C118.697 106.102 115.639 109.16 111.869 109.16H88.1671C84.4534 109.16 81.4208 106.194 81.3389 102.48L80.755 70.8285C80.6628 65.8948 76.6416 61.9448 71.7036 61.9448H6.95628V61.9397Z" fill="white"/>
</mask>
<g mask="url(#mask1_70_11949)">
<path d="M0.00976562 99.9079L7.76518 94.7693C9.097 93.8881 10.6592 93.4167 12.2574 93.4167H46.8031C49.2465 93.4167 51.5617 94.5182 53.1087 96.4138L62.406 107.813C63.8095 109.534 65.9097 110.533 68.1328 110.533H133.725C135.4 110.533 137.034 110.047 138.433 109.125L149.323 101.983V123.577H0.00976562V99.9079Z" fill="#1A2289"/>
<path d="M70.1151 76.2488H1.8179V74.9629H70.1151V76.2488ZM70.1151 81.9561H-2.22363V83.242H70.1151V81.9561ZM70.1151 88.9544H-2.22363V90.2404H70.1151V88.9544Z" fill="#EECB54"/>
</g>
<path d="M121.519 7.50049H118.691V72.7345H121.519V7.50049Z" fill="#4349CE"/>
<path d="M228.06 152.841C239.339 152.841 248.483 143.696 248.483 132.415C248.483 121.134 239.339 111.989 228.06 111.989C216.78 111.989 207.637 121.134 207.637 132.415C207.637 143.696 216.78 152.841 228.06 152.841Z" fill="#1A1B1F"/>
<path d="M240.81 135.393C242.48 128.316 238.098 121.225 231.022 119.554C223.946 117.884 216.855 122.267 215.185 129.344C213.515 136.422 217.897 143.513 224.974 145.183C232.05 146.854 239.14 142.471 240.81 135.393Z" fill="#525355"/>
<path d="M236.742 134.433C237.882 129.603 234.891 124.763 230.062 123.623C225.232 122.483 220.393 125.474 219.253 130.305C218.113 135.135 221.104 139.975 225.934 141.115C230.763 142.255 235.602 139.263 236.742 134.433Z" fill="white"/>
<path d="M233.313 133.623C234.006 130.688 232.188 127.746 229.253 127.054C226.318 126.361 223.377 128.179 222.684 131.114C221.991 134.05 223.809 136.991 226.744 137.684C229.679 138.377 232.62 136.559 233.313 133.623Z" fill="#525355"/>
<path d="M177.203 117.373H203.789L217.491 78.2675C221.492 66.853 220.114 54.2396 213.747 43.9573L188.887 3.81678C187.417 1.44472 184.825 0 182.039 0H177.203V117.368V117.373Z" fill="#4349CE"/>
<mask id="mask2_70_11949" style="mask-type:luminance" maskUnits="userSpaceOnUse" x="177" y="0" width="43" height="118">
<path d="M177.203 117.373H203.789L217.491 78.2675C221.492 66.853 220.114 54.2396 213.747 43.9573L188.887 3.81678C187.417 1.44472 184.825 0 182.039 0H177.203V117.368V117.373Z" fill="white"/>
</mask>
<g mask="url(#mask2_70_11949)">
<path d="M194.476 9.41138H187.223C183.607 9.41138 180.866 12.6851 181.512 16.2457L186.567 44.3159C187.064 47.0824 189.472 49.0907 192.279 49.0907H220.283L194.476 9.41138Z" fill="#C8EAFD"/>
<mask id="mask3_70_11949" style="mask-type:luminance" maskUnits="userSpaceOnUse" x="181" y="9" width="40" height="41">
<path d="M194.476 9.41089H187.223C183.607 9.41089 180.866 12.6846 181.512 16.2453L186.567 44.3154C187.064 47.082 189.472 49.0902 192.279 49.0902H220.283L194.476 9.41089Z" fill="white"/>
</mask>
<g mask="url(#mask3_70_11949)">
<path d="M196.402 18.4177L190.271 53.2915H196.402L202.011 18.4177H196.402Z" fill="white"/>
<path d="M206.268 19.5857L200.137 54.4595H206.268L211.877 19.5857H206.268Z" fill="white"/>
<path d="M200.331 18.4177L185.738 26.3638L187.228 49.9306C187.228 49.9306 180.354 26.1538 180.323 25.831C180.298 25.5134 199.701 16.3992 199.701 16.3992L200.331 18.4177Z" fill="#3C30B1"/>
</g>
<path d="M208.594 49.0956L190.553 19.176L192.976 17.7363L211.632 49.0956H208.594Z" fill="#B1C8FC"/>
<path d="M191.644 19.176L193.257 18.2128L192.976 17.7363L190.553 19.176L208.594 49.0956H209.685L191.644 19.176Z" fill="#77769D"/>
<path d="M174.939 108.049H192.084C197.125 108.049 201.766 105.297 204.189 100.876L223.818 65.0442V122.322H174.939V108.043V108.049Z" fill="#1A2289"/>
</g>
<path d="M216.627 48.1531H192.28C189.924 48.1531 187.911 46.4676 187.491 44.1519L183.869 24.0432C183.285 24.3455 182.701 24.6477 182.117 24.95L185.636 44.4848C186.215 47.7022 189.007 50.0384 192.275 50.0384H216.622C217.144 50.0384 217.564 49.6183 217.564 49.0957C217.564 48.5732 217.144 48.1531 216.622 48.1531H216.627Z" fill="#B1C8FC"/>
<path d="M6.95557 61.9397L16.7649 31.1132C19.7052 21.876 25.6165 13.8736 33.5819 8.35076C40.9274 3.25828 49.6561 0.527588 58.5947 0.527588H177.199V10.7177H93.089C83.0439 10.7177 74.7097 18.4947 74.0131 28.5158L71.6926 61.9397H6.94531H6.95557Z" fill="#F761E8"/>
<mask id="mask4_70_11949" style="mask-type:luminance" maskUnits="userSpaceOnUse" x="6" y="0" width="172" height="62">
<path d="M6.95557 61.9397L16.7649 31.1132C19.7052 21.876 25.6165 13.8736 33.5819 8.35076C40.9274 3.25828 49.6561 0.527588 58.5947 0.527588H177.199V10.7177H93.089C83.0439 10.7177 74.7097 18.4947 74.0131 28.5158L71.6926 61.9397H6.94531H6.95557Z" fill="white"/>
</mask>
<g mask="url(#mask4_70_11949)">
<path d="M48.8728 70.6493L17.667 63.0463L52.986 54.926L59.3277 30.6676C62.6777 17.8544 73.2657 9.04248 85.3034 9.04248H181.513V18.3513H96.6649L89.9187 71.1974L48.8728 70.6493Z" fill="#CC36C5"/>
</g>
<path d="M200.993 122.322H3.80566V115.027H12.0118L20.7148 110.636L35.58 110.529L50.6657 115.027H200.993C203.006 115.027 204.64 116.661 204.64 118.675C204.64 120.688 203.006 122.322 200.993 122.322Z" fill="black"/>
<path d="M206.008 123.578C206.008 123.578 209.168 103.679 223.818 101.343C244.692 98.0178 246.618 113.772 246.618 113.772L233.346 113.9C229.976 113.931 226.646 114.638 223.557 115.98L206.013 123.578H206.008Z" fill="#4349CE"/>
<mask id="mask5_70_11949" style="mask-type:luminance" maskUnits="userSpaceOnUse" x="206" y="100" width="41" height="24">
<path d="M206.008 123.578C206.008 123.578 209.168 103.679 223.818 101.343C244.692 98.0183 246.618 113.772 246.618 113.772L233.346 113.9C229.976 113.931 226.646 114.638 223.557 115.98L206.013 123.578H206.008Z" fill="white"/>
</mask>
<g mask="url(#mask5_70_11949)">
<path d="M206.007 117.373C206.765 116.969 217.517 112.122 223.28 109.53C225.662 108.459 228.167 107.69 230.738 107.24L246.618 104.473L251.32 117.814L203.723 129.239L206.007 117.373Z" fill="#1A2289"/>
</g>
<path d="M206.007 124.945C205.48 124.945 204.978 124.638 204.752 124.12C204.45 123.429 204.773 122.624 205.464 122.322L223.009 114.724C226.287 113.305 229.76 112.568 233.33 112.532L246.602 112.404H246.618C247.366 112.404 247.975 113.008 247.985 113.756C247.991 114.509 247.386 115.129 246.633 115.134L233.361 115.262C230.154 115.293 227.04 115.954 224.1 117.23L206.555 124.827C206.376 124.904 206.192 124.94 206.012 124.94L206.007 124.945Z" fill="#EECB54"/>
<path d="M241.624 87.7095C228.818 88.1706 223.793 95.548 223.814 101.317H241.624V87.7095Z" fill="#525355"/>
<path d="M242.848 86.2803H240.604V101.983H242.848V86.2803Z" fill="#EECB54"/>
<path d="M220.444 60.9458H177.466C176.64 60.9458 175.971 61.6156 175.971 62.4418V62.4982C175.971 63.3244 176.64 63.9942 177.466 63.9942H220.444C221.27 63.9942 221.939 63.3244 221.939 62.4982V62.4418C221.939 61.6156 221.27 60.9458 220.444 60.9458Z" fill="#EECB54"/>
<path d="M220.449 62.4675H177.466C176.908 62.4675 176.427 62.1601 176.17 61.7041C176.047 61.9193 175.971 62.1703 175.971 62.4368V62.4982C175.971 63.3231 176.642 63.9942 177.466 63.9942H220.449C221.273 63.9942 221.944 63.3231 221.944 62.4982V62.4368C221.944 62.1703 221.868 61.9244 221.745 61.7041C221.489 62.1549 221.007 62.4675 220.449 62.4675Z" fill="#E18D4E"/>
<path d="M182.645 24.2893L203.734 13.9352L195.922 9.57537C194.662 8.87349 193.243 8.50464 191.799 8.50464H185.447C182.158 8.50464 179.72 11.5632 180.458 14.7703L182.645 24.2944V24.2893Z" fill="#4BBC7A"/>
<mask id="mask6_70_11949" style="mask-type:luminance" maskUnits="userSpaceOnUse" x="180" y="8" width="24" height="17">
<path d="M182.645 24.2893L203.734 13.9352L195.922 9.57537C194.662 8.87349 193.243 8.50464 191.799 8.50464H185.447C182.158 8.50464 179.72 11.5632 180.458 14.7703L182.645 24.2944V24.2893Z" fill="white"/>
</mask>
<g mask="url(#mask6_70_11949)">
<path d="M183.5 7.03955L188.873 17.3116L203.974 12.5573L204.994 16.3997L180.847 28.6032L174.94 10.0315L183.5 7.03955Z" fill="#2E8953"/>
</g>
<path d="M198.678 72.7293H192.275C190.267 72.7293 188.638 71.1001 188.638 69.0918C188.638 67.0835 190.267 65.4543 192.275 65.4543H198.678C200.686 65.4543 202.315 67.0835 202.315 69.0918C202.315 71.1001 200.686 72.7293 198.678 72.7293Z" fill="#EECB54"/>
<path d="M199.057 71.6484H193.233C191.824 71.6484 190.682 70.5059 190.682 69.097C190.682 67.6881 191.824 66.5457 193.233 66.5457H199.057C200.466 66.5457 201.608 67.6881 201.608 69.097C201.608 70.5059 200.466 71.6484 199.057 71.6484Z" fill="white"/>
<path d="M22.3177 111.164H36.2506C40.1846 111.164 43.9087 113.233 46.5621 116.804C47.2024 117.665 48.2268 118.152 49.2974 118.152H56.4637C58.2667 118.152 59.3323 116.133 58.3232 114.642L52.9036 106.66C49.5638 101.747 44.0111 98.8013 38.0691 98.8013H20.4275C14.3626 98.8013 8.70738 101.865 5.39829 106.952L0.368045 114.678C-0.605215 116.174 0.465456 118.147 2.24806 118.147H9.26062C10.3312 118.147 11.3556 117.66 11.9959 116.799C14.6442 113.233 18.3631 111.158 22.3074 111.158L22.3177 111.164Z" fill="#4349CE"/>
<mask id="mask7_70_11949" style="mask-type:luminance" maskUnits="userSpaceOnUse" x="0" y="98" width="59" height="21">
<path d="M22.3177 111.164H36.2506C40.1846 111.164 43.9087 113.233 46.5621 116.804C47.2024 117.665 48.2268 118.152 49.2974 118.152H56.4637C58.2667 118.152 59.3323 116.133 58.3232 114.642L52.9036 106.66C49.5638 101.747 44.0111 98.8013 38.0691 98.8013H20.4275C14.3626 98.8013 8.70738 101.865 5.39829 106.952L0.368045 114.678C-0.605215 116.174 0.465456 118.147 2.24806 118.147H9.26062C10.3312 118.147 11.3556 117.66 11.9959 116.799C14.6442 113.233 18.3631 111.158 22.3074 111.158L22.3177 111.164Z" fill="white"/>
</mask>
<g mask="url(#mask7_70_11949)">
<path d="M-2.93057 111.988C-2.61811 111.814 3.77974 111.891 7.38592 111.947C8.94826 111.973 10.4697 111.42 11.6478 110.395L15.8738 106.727C17.0315 105.723 18.5119 105.169 20.0435 105.169H39.519C41.1735 105.169 42.7614 105.815 43.9498 106.968L48.8161 111.696C50.0045 112.849 51.5924 113.495 53.2469 113.495H62.3086V121.067H-4.24707L-2.9357 111.988H-2.93057Z" fill="#1A2289"/>
</g>
<path d="M49.2974 119.525C47.7811 119.525 46.3469 118.813 45.4658 117.624C43.0634 114.391 39.7031 112.537 36.2506 112.537H22.3176C18.8651 112.537 15.5099 114.391 13.1075 117.624C12.2214 118.813 10.7871 119.525 9.27597 119.525C8.52298 119.525 7.9082 118.915 7.9082 118.157C7.9082 117.399 8.52298 116.789 9.27597 116.789C9.93164 116.789 10.5463 116.492 10.9151 115.99C13.84 112.055 17.9994 109.796 22.3228 109.796H36.2557C40.579 109.796 44.7384 112.055 47.6633 115.99C48.0322 116.487 48.6468 116.789 49.3025 116.789C50.0555 116.789 50.6701 117.399 50.6701 118.157C50.6701 118.915 50.0555 119.525 49.3025 119.525H49.2974Z" fill="#EECB54"/>
<path d="M128.034 19.868L123.296 34.0901C122.727 35.8013 122.548 37.6149 122.768 39.408L128.439 84.9534C128.869 88.4218 131.814 91.0245 135.308 91.0245H175.975V88.4065C175.975 84.2618 172.594 80.9164 168.455 80.9625C158.2 81.0701 141.117 81.2032 141.337 80.8753C149.205 69.1022 141.337 43.855 134.37 39.0801L136.711 29.1257C137.69 24.9605 135.917 20.6262 132.296 18.3464C130.718 17.3525 128.623 18.1005 128.034 19.868Z" fill="#6C4196"/>
<mask id="mask8_70_11949" style="mask-type:luminance" maskUnits="userSpaceOnUse" x="122" y="17" width="54" height="75">
<path d="M128.034 19.8685L123.296 34.0906C122.727 35.8017 122.548 37.6154 122.768 39.4085L128.439 84.9539C128.869 88.4223 131.814 91.025 135.308 91.025H175.975V88.4069C175.975 84.2623 172.594 80.9168 168.455 80.963C158.2 81.0705 141.117 81.2037 141.337 80.8758C149.205 69.1027 141.337 43.8554 134.37 39.0806L136.711 29.1261C137.69 24.961 135.917 20.6267 132.296 18.3469C130.718 17.353 128.623 18.101 128.034 19.8685Z" fill="white"/>
</mask>
<g mask="url(#mask8_70_11949)">
<path d="M128.259 16.3999L126.523 37.5127L135.036 84.2672H181.261V92.9665H125.319L118.69 36.4676L128.259 16.3999Z" fill="#452976"/>
</g>
<path d="M176.764 13.7405H173.111C171.982 13.7405 171.067 14.6557 171.067 15.7846V32.804C171.067 33.933 171.982 34.8482 173.111 34.8482H176.764C177.892 34.8482 178.807 33.933 178.807 32.804V15.7846C178.807 14.6557 177.892 13.7405 176.764 13.7405Z" fill="black"/>
<path d="M180.202 24.2945H176.708C176.073 24.2945 175.556 23.777 175.556 23.1417C175.556 22.5065 176.073 21.989 176.708 21.989H180.202C180.837 21.989 181.354 22.5065 181.354 23.1417C181.354 23.777 180.837 24.2945 180.202 24.2945Z" fill="#525355"/>
<path d="M219.894 65.7207H218.209C217.68 65.7207 217.251 66.1496 217.251 66.6787V72.5141C217.251 73.0432 217.68 73.4721 218.209 73.4721H219.894C220.423 73.4721 220.852 73.0432 220.852 72.5141V66.6787C220.852 66.1496 220.423 65.7207 219.894 65.7207Z" fill="#EECB54"/>
<path d="M182.645 25.4215C182.225 25.4215 181.825 25.1909 181.631 24.7913C181.354 24.2329 181.585 23.5514 182.148 23.2799L204.902 12.1062C205.46 11.8347 206.141 12.0601 206.413 12.6236C206.689 13.1821 206.459 13.8634 205.895 14.135L183.142 25.3088C182.983 25.3856 182.814 25.4266 182.645 25.4266V25.4215Z" fill="#F1CE30"/>
<path d="M78.388 7.91011V0.527588H77.256V7.91011H60.4493C55.7264 7.91011 51.8385 9.11408 48.6831 10.8713L47.4793 2.03379L46.3575 2.18751L47.6227 11.4964C46.0092 12.5056 44.6108 13.6532 43.3967 14.8316L37.2345 6.01454L36.3074 6.66007L42.5926 15.6514C41.8447 16.4506 41.1736 17.2497 40.5897 18.0285C40.354 18.341 40.1287 18.6535 39.9085 18.9661L25.5401 15.1595L25.248 16.2507L39.2374 19.9599C36.4969 24.202 35.4571 27.9368 35.411 28.111L25.8116 61.7859L26.8975 62.0933L36.4969 28.4133C36.5122 28.3671 37.8697 23.4847 41.5066 18.6791C46.3473 12.2802 52.7195 9.03726 60.439 9.03726H177.194V7.90504H78.3778L78.388 7.91011Z" fill="white"/>
<path d="M220.535 59.2144L218.604 52.5081C218.497 52.1392 218.159 51.8831 217.775 51.8831H213.272C212.698 51.8831 212.278 52.4364 212.442 52.9897L214.373 59.696C214.481 60.0648 214.819 60.321 215.203 60.321H219.706C220.279 60.321 220.699 59.7677 220.535 59.2144Z" fill="black"/>
<path d="M221.907 59.2141L219.976 52.5078C219.869 52.139 219.531 51.8828 219.147 51.8828H214.644C214.07 51.8828 213.65 52.4361 213.814 52.9894L215.745 59.6957C215.853 60.0646 216.191 60.3207 216.575 60.3207H221.078C221.651 60.3207 222.071 59.7674 221.907 59.2141Z" fill="#EECB54"/>
<path d="M70.2131 66.7606H8.53911C7.1202 66.7606 5.96777 65.6079 5.96777 64.1888C5.96777 62.7697 7.1202 61.6169 8.53911 61.6169H70.2131C71.632 61.6169 72.7846 62.7697 72.7846 64.1888C72.7846 65.6079 71.632 66.7606 70.2131 66.7606Z" fill="black"/>
<path d="M70.2131 65.0446H8.53911C7.1202 65.0446 5.96777 63.8918 5.96777 62.4727C5.96777 61.0536 7.1202 59.9009 8.53911 59.9009H70.2131C71.632 59.9009 72.7846 61.0536 72.7846 62.4727C72.7846 63.8918 71.632 65.0446 70.2131 65.0446Z" fill="#79C98B"/>
<path d="M11.5096 62.488C11.5096 63.4255 10.7465 64.1889 9.80908 64.1889C8.87167 64.1889 8.1084 63.4255 8.1084 62.488C8.1084 61.5504 8.87167 60.7871 9.80908 60.7871C10.7465 60.7871 11.5096 61.5504 11.5096 62.488ZM19.3675 60.7871C18.4301 60.7871 17.6668 61.5504 17.6668 62.488C17.6668 63.4255 18.4301 64.1889 19.3675 64.1889C20.3049 64.1889 21.0681 63.4255 21.0681 62.488C21.0681 61.5504 20.3049 60.7871 19.3675 60.7871ZM28.931 60.7871C27.9936 60.7871 27.2304 61.5504 27.2304 62.488C27.2304 63.4255 27.9936 64.1889 28.931 64.1889C29.8684 64.1889 30.6317 63.4255 30.6317 62.488C30.6317 61.5504 29.8684 60.7871 28.931 60.7871ZM38.4946 60.7871C37.5572 60.7871 36.7939 61.5504 36.7939 62.488C36.7939 63.4255 37.5572 64.1889 38.4946 64.1889C39.432 64.1889 40.1952 63.4255 40.1952 62.488C40.1952 61.5504 39.432 60.7871 38.4946 60.7871ZM48.0581 60.7871C47.1207 60.7871 46.3575 61.5504 46.3575 62.488C46.3575 63.4255 47.1207 64.1889 48.0581 64.1889C48.9955 64.1889 49.7588 63.4255 49.7588 62.488C49.7588 61.5504 48.9955 60.7871 48.0581 60.7871ZM57.6216 60.7871C56.6842 60.7871 55.921 61.5504 55.921 62.488C55.921 63.4255 56.6842 64.1889 57.6216 64.1889C58.559 64.1889 59.3223 63.4255 59.3223 62.488C59.3223 61.5504 58.559 60.7871 57.6216 60.7871ZM67.1853 60.7871C66.2479 60.7871 65.4846 61.5504 65.4846 62.488C65.4846 63.4255 66.2479 64.1889 67.1853 64.1889C68.1227 64.1889 68.8858 63.4255 68.8858 62.488C68.8858 61.5504 68.1227 60.7871 67.1853 60.7871Z" fill="white"/>
<path d="M177.302 32.0149C175.899 29.7248 174.439 31.7895 174.116 33.6287C172.82 41.0471 172.42 49.0445 171.98 56.5859C171.632 62.5544 171.55 68.5435 170.899 74.4762C170.51 78.0163 169.685 81.9612 169.91 85.5321C172.385 85.5884 174.854 85.9112 177.333 86.0905C178.163 86.152 180.54 86.7822 181.262 85.9573C181.923 85.2042 181.292 80.1681 181.292 79.2459C181.292 71.8429 181.83 64.4757 181.871 57.088C181.892 53.4864 183.5 30.3089 177.307 32.0149H177.302Z" fill="#AAE2B5"/>
<mask id="mask9_70_11949" style="mask-type:luminance" maskUnits="userSpaceOnUse" x="169" y="31" width="14" height="56">
<path d="M177.302 32.0149C175.899 29.7248 174.439 31.7895 174.116 33.6287C172.82 41.0471 172.42 49.0445 171.98 56.5859C171.632 62.5544 171.55 68.5435 170.899 74.4762C170.51 78.0163 169.685 81.9612 169.91 85.5321C172.385 85.5884 174.854 85.9112 177.333 86.0905C178.163 86.152 180.54 86.7822 181.262 85.9573C181.923 85.2042 181.292 80.1681 181.292 79.2459C181.292 71.8429 181.83 64.4757 181.871 57.088C181.892 53.4864 183.5 30.3089 177.307 32.0149H177.302Z" fill="white"/>
</mask>
<g mask="url(#mask9_70_11949)">
<path d="M178.808 31.0005C180.381 45.5914 177.205 82.3045 177.205 82.3045L165.295 86.859L183.531 90.8859L184.755 42.9683L182.066 31.0005H178.803H178.808Z" fill="#4BBC7A"/>
<path d="M171.605 80.6034L173.542 75.9721L176.856 31.5947C174.049 36.3798 171.605 80.6034 171.605 80.6034Z" fill="white"/>
</g>
<path d="M173.306 4.31367H143.033C142.351 4.31367 141.798 3.76034 141.798 3.07895C141.798 2.39756 142.351 1.84424 143.033 1.84424H173.306C173.987 1.84424 174.541 2.39756 174.541 3.07895C174.541 3.76034 173.987 4.31367 173.306 4.31367ZM129.637 1.84424H113.133C112.452 1.84424 111.898 2.39756 111.898 3.07895C111.898 3.76034 112.452 4.31367 113.133 4.31367H129.637C130.319 4.31367 130.872 3.76034 130.872 3.07895C130.872 2.39756 130.319 1.84424 129.637 1.84424Z" fill="white"/>
</svg>
