<svg width="208" height="118" viewBox="0 0 208 118" fill="none" xmlns="http://www.w3.org/2000/svg">
<path d="M104.954 14.0135C107.393 11.5746 107.393 7.62031 104.954 5.1814C102.516 2.7425 98.562 2.7425 96.1235 5.1814C93.685 7.62031 93.685 11.5746 96.1235 14.0135C98.5621 16.4524 102.516 16.4524 104.954 14.0135Z" fill="#DA405B"/>
<path d="M101.942 5.76362C101.942 6.53723 101.312 7.16738 100.538 7.16738C99.765 7.16738 99.1349 6.53723 99.1349 5.76362C99.1349 4.99001 99.765 4.35986 100.538 4.35986C101.312 4.35986 101.942 4.99001 101.942 5.76362Z" fill="#EDAFAF"/>
<path d="M69.8907 14.009C72.3293 11.5701 72.3293 7.61591 69.8907 5.17701C67.4522 2.7381 63.4986 2.73806 61.0601 5.17696C58.6215 7.61587 58.6215 11.5702 61.0601 14.0091C63.4986 16.448 67.4522 16.4479 69.8907 14.009Z" fill="#DA405B"/>
<path d="M79.2133 11.558C79.9285 8.18389 77.7735 4.86867 74.3999 4.15332C71.0263 3.43797 67.7116 5.59338 66.9964 8.96752C66.2811 12.3417 68.4362 15.6568 71.8098 16.3722C75.1834 17.0875 78.4981 14.9322 79.2133 11.558Z" fill="#E16A79"/>
<path d="M88.6553 14.9846C90.7599 12.2523 90.2513 8.3309 87.5194 6.22595C84.7875 4.121 80.8667 4.6296 78.7621 7.36195C76.6575 10.0943 77.166 14.0157 79.8979 16.1207C82.6298 18.2256 86.5506 17.717 88.6553 14.9846Z" fill="#DC4670"/>
<path d="M100.331 13.3947C101.128 10.0388 99.053 6.67268 95.6975 5.87627C92.3421 5.07987 88.9765 7.15475 88.1802 10.5107C87.384 13.8666 89.4586 17.2328 92.814 18.0292C96.1694 18.8256 99.535 16.7506 100.331 13.3947Z" fill="#E16A79"/>
<path d="M62.1691 11.5932C62.9654 8.23726 60.8908 4.87115 57.5354 4.07475C54.18 3.27835 50.8144 5.35323 50.0181 8.70916C49.2219 12.0651 51.2964 15.4312 54.6518 16.2276C58.0072 17.0241 61.3728 14.9491 62.1691 11.5932Z" fill="#DC4670"/>
<path d="M47.4484 20.7339C48.3787 17.4126 46.4409 13.966 43.1201 13.0355C39.7994 12.1051 36.3532 14.0432 35.4229 17.3645C34.4926 20.6857 36.4305 24.1325 39.7512 25.0629C43.072 25.9933 46.5181 24.0551 47.4484 20.7339Z" fill="#E16A79"/>
<path d="M56.8031 17.6339C57.6805 14.2983 55.6882 10.8828 52.3531 10.0052C49.018 9.12765 45.6031 11.1203 44.7256 14.456C43.8482 17.7916 45.8405 21.207 49.1756 22.0846C52.5107 22.9622 55.9256 20.9696 56.8031 17.6339Z" fill="#E68781"/>
<path d="M74.5567 23.4033C76.9953 20.9644 76.9953 17.0102 74.5567 14.5713C72.1182 12.1324 68.1646 12.1323 65.7261 14.5713C63.2876 17.0102 63.2876 20.9645 65.7261 23.4034C68.1646 25.8423 72.1182 25.8422 74.5567 23.4033Z" fill="#DE597C"/>
<path d="M95.4336 23.0864C97.7065 20.4925 97.4466 16.5468 94.853 14.2735C92.2594 12.0002 88.3143 12.2602 86.0414 14.8542C83.7685 17.4482 84.0285 21.3939 86.6221 23.6672C89.2157 25.9404 93.1607 25.6804 95.4336 23.0864Z" fill="#DE597C"/>
<path d="M104.543 21.3219C106.426 18.4329 105.612 14.5635 102.723 12.6794C99.8346 10.7953 95.9658 11.61 94.082 14.4991C92.1982 17.3881 93.0128 21.2576 95.9014 23.1417C98.79 25.0258 102.659 24.211 104.543 21.3219Z" fill="#E68781"/>
<path d="M87.505 19.373C88.2931 16.0152 86.2103 12.6541 82.853 11.8659C79.4957 11.0777 76.1351 13.1608 75.347 16.5187C74.5589 19.8766 76.6418 23.2376 79.9991 24.0258C83.3565 24.814 86.7169 22.7309 87.505 19.373Z" fill="#E68781"/>
<path d="M64.9796 22.3919C67.4181 19.953 67.4181 15.9987 64.9796 13.5598C62.5411 11.1209 58.5874 11.1209 56.1489 13.5598C53.7104 15.9987 53.7104 19.953 56.1489 22.3919C58.5874 24.8308 62.541 24.8308 64.9796 22.3919Z" fill="#E16A79"/>
<path d="M97.05 8.51996C97.05 9.2782 96.4353 9.89814 95.672 9.89814C94.9088 9.89814 94.2941 9.28332 94.2941 8.51996C94.2941 7.7566 94.9088 7.14185 95.672 7.14185C96.4353 7.14185 97.05 7.7566 97.05 8.51996Z" fill="#EDAFAF"/>
<path d="M85.437 7.34682C85.437 7.99747 84.9094 8.52 84.264 8.52C83.6186 8.52 83.091 7.99235 83.091 7.34682C83.091 6.7013 83.6186 6.17358 84.264 6.17358C84.9094 6.17358 85.437 6.7013 85.437 7.34682Z" fill="#EDAFAF"/>
<path d="M83.0866 17.0553C83.8646 17.0553 84.4952 16.4245 84.4952 15.6464C84.4952 14.8683 83.8646 14.2375 83.0866 14.2375C82.3086 14.2375 81.6779 14.8683 81.6779 15.6464C81.6779 16.4245 82.3086 17.0553 83.0866 17.0553Z" fill="#EDAFAF"/>
<path d="M62.2323 17.3782C63.1518 17.3782 63.8971 16.6327 63.8971 15.7131C63.8971 14.7936 63.1518 14.0481 62.2323 14.0481C61.3129 14.0481 60.5676 14.7936 60.5676 15.7131C60.5676 16.6327 61.3129 17.3782 62.2323 17.3782Z" fill="#EDAFAF"/>
<path d="M52.0388 14.4833C52.8989 14.4833 53.596 13.786 53.596 12.9259C53.596 12.0657 52.8989 11.3684 52.0388 11.3684C51.1788 11.3684 50.4816 12.0657 50.4816 12.9259C50.4816 13.786 51.1788 14.4833 52.0388 14.4833Z" fill="#EDAFAF"/>
<path d="M75.2076 6.31709C75.2076 7.09069 74.5776 7.72085 73.8041 7.72085C73.0306 7.72085 72.4006 7.09069 72.4006 6.31709C72.4006 5.54348 73.0306 4.91333 73.8041 4.91333C74.5776 4.91333 75.2076 5.54348 75.2076 6.31709Z" fill="#EDAFAF"/>
<path d="M66.8785 5.76362C66.8785 6.53723 66.2485 7.16738 65.475 7.16738C64.7015 7.16738 64.0715 6.53723 64.0715 5.76362C64.0715 4.99001 64.7015 4.35986 65.475 4.35986C66.2485 4.35986 66.8785 4.99001 66.8785 5.76362Z" fill="#EDAFAF"/>
<path d="M72.6571 16.7222C72.6571 17.419 72.0936 17.9826 71.397 17.9826C70.7003 17.9826 70.1369 17.419 70.1369 16.7222C70.1369 16.0254 70.7003 15.4619 71.397 15.4619C72.0936 15.4619 72.6571 16.0254 72.6571 16.7222Z" fill="#EDAFAF"/>
<path d="M59.2313 7.31602C59.2313 8.1716 58.5346 8.86838 57.6792 8.86838C56.8237 8.86838 56.1271 8.1716 56.1271 7.31602C56.1271 6.46045 56.8237 5.76367 57.6792 5.76367C58.5346 5.76367 59.2313 6.46045 59.2313 7.31602Z" fill="#EDAFAF"/>
<path d="M42.1635 15.0625C42.1635 15.6209 41.7076 16.0769 41.1492 16.0769C40.5909 16.0769 40.1349 15.6209 40.1349 15.0625C40.1349 14.5041 40.5909 14.0481 41.1492 14.0481C41.7076 14.0481 42.1635 14.5041 42.1635 15.0625Z" fill="#EDAFAF"/>
<path d="M92.4297 15.4825C92.4297 16.169 91.8764 16.7223 91.19 16.7223C90.5036 16.7223 89.9504 16.169 89.9504 15.4825C89.9504 14.796 90.5036 14.2427 91.19 14.2427C91.8764 14.2427 92.4297 14.796 92.4297 15.4825Z" fill="#EDAFAF"/>
<path d="M101.045 16.133C101.701 16.133 102.233 15.6009 102.233 14.9444C102.233 14.288 101.701 13.7559 101.045 13.7559C100.389 13.7559 99.8566 14.288 99.8566 14.9444C99.8566 15.6009 100.389 16.133 101.045 16.133Z" fill="#EDAFAF"/>
<path d="M167.119 4.2011C166.299 5.33334 165.654 7.58752 164.558 9.0374C162.181 12.1165 158.068 13.1667 154.4 13.7764C153.411 13.9147 152.413 13.9967 151.414 14.0018C149.093 14.0479 146.64 13.469 145.031 13.9045C141.445 14.8984 143.971 18.8074 146.302 19.8013C151.255 21.9633 157.632 22.4859 162.565 20.16C166.002 18.4539 168.769 15.3954 170.428 11.9679C171.489 9.72396 171.755 6.80367 170.413 4.74413C169.409 3.20716 168.046 2.83829 167.15 4.16008L167.119 4.2011Z" fill="#E5A150"/>
<path d="M172.564 5.23601C171.745 6.36825 171.099 8.62244 170.003 10.0723C167.626 13.1514 163.513 14.2016 159.845 14.8113C158.857 14.9496 157.858 15.0316 156.859 15.0367C154.539 15.0829 152.085 14.5039 150.476 14.9394C146.891 15.9333 149.416 19.8423 151.747 20.8362C156.7 22.9982 163.078 23.5208 168.011 21.1948C171.448 19.4888 174.214 16.4302 175.873 13.0028C176.934 10.7588 177.2 7.83858 175.858 5.77904C174.854 4.24208 173.492 3.8732 172.595 5.19499L172.564 5.23601Z" fill="#E9B752"/>
<path d="M177.969 7.74139C177.149 8.87362 176.504 11.1278 175.407 12.5777C173.031 15.6567 168.917 16.707 165.25 17.3167C164.261 17.455 163.262 17.5369 162.263 17.5421C159.943 17.5882 157.489 17.0093 155.881 17.4447C152.295 18.4386 154.82 22.3477 157.151 23.3416C162.105 25.5036 168.482 26.0261 173.415 23.7002C176.852 21.9941 179.618 18.9356 181.278 15.5081C182.338 13.2642 182.604 10.344 181.262 8.28442C180.258 6.74745 178.896 6.37857 177.999 7.70036L177.969 7.74139Z" fill="#EECB54"/>
<path d="M117.165 29.2638C124.787 29.2638 130.965 23.0845 130.965 15.4619C130.965 7.83929 124.787 1.65991 117.165 1.65991C109.544 1.65991 103.365 7.83929 103.365 15.4619C103.365 23.0845 109.544 29.2638 117.165 29.2638Z" fill="#3A7295"/>
<mask id="mask0_70_12332" style="mask-type:luminance" maskUnits="userSpaceOnUse" x="103" y="1" width="28" height="29">
<path d="M117.165 29.2638C124.787 29.2638 130.965 23.0845 130.965 15.4619C130.965 7.83929 124.787 1.65991 117.165 1.65991C109.544 1.65991 103.365 7.83929 103.365 15.4619C103.365 23.0845 109.544 29.2638 117.165 29.2638Z" fill="white"/>
</mask>
<g mask="url(#mask0_70_12332)">
<path d="M115.219 1.01966C115.424 0.98892 115.531 1.19901 115.659 1.31172C115.89 1.5064 116.069 1.51153 116.371 1.5064C116.848 1.5064 117.324 1.52177 117.801 1.5064C118.057 1.50128 118.262 1.39369 118.507 1.37319C117.565 1.45004 116.617 1.93673 116.494 2.95625C116.392 3.78622 116.643 4.38564 117.176 5.01067C117.293 5.149 117.611 5.38466 117.601 5.58447C117.104 5.79452 116.443 5.76382 115.916 5.81505C115.357 5.87141 114.666 5.815 114.476 6.47078C114.322 6.99335 114.538 7.6799 114.712 8.18198C114.871 8.64819 115.449 9.24761 115.301 9.78555C115.173 10.2415 114.42 10.3337 114.051 10.426C113.626 10.5335 113.313 10.5796 113.155 11.0356C112.883 11.8143 113.421 12.5316 113.81 13.1464C114.025 13.5203 114.281 13.8687 114.568 14.1864C114.732 14.3247 114.835 14.4989 114.876 14.6987C114.952 15.2315 114.481 15.3545 114.041 15.5184C113.477 15.7233 112.883 15.7797 112.765 16.4662C112.642 17.1783 112.929 18.0083 113.139 18.6846C113.339 19.2379 113.564 19.7758 113.82 20.2984C113.959 20.5596 114.01 20.8363 113.974 21.1283C113.841 21.4511 113.108 21.569 112.847 21.7483C112.273 22.1428 112.156 22.609 112.135 23.2801C112.104 24.1511 112.212 25.063 112.816 25.7392C113.047 25.9698 113.303 26.1696 113.585 26.3335C113.692 26.3489 113.764 26.4002 113.805 26.4872C113.406 26.7178 112.832 26.7844 112.545 27.1686C112.217 27.6092 112.345 28.5673 112.54 29.0489C112.827 29.7456 113.334 30.5602 114.184 30.5602C113.769 30.5448 113.344 30.3706 112.98 30.1862C111.69 29.5458 110.66 28.5109 109.758 27.4094C109.139 26.6512 108.524 25.8469 107.971 25.0323C107.689 24.6122 107.474 24.233 107.458 23.7207C107.443 23.111 107.653 22.071 108.314 21.8251C108.191 21.6766 107.96 21.5689 107.817 21.3999C107.274 20.7646 107.064 19.7655 106.915 18.9561C106.7 17.7624 107.033 15.8104 108.293 15.2417C108.78 15.0214 108.626 14.9344 108.411 14.5091C108.129 13.961 108.001 13.1822 108.073 12.5726C108.165 11.7887 108.524 11.4045 109.031 10.8614C109.215 10.6616 109.272 10.5438 109.287 10.2825C109.333 9.39105 108.657 8.41761 109.251 7.57228C109.502 7.21366 109.958 7.03433 110.363 6.9165C110.849 6.77305 111.546 6.87555 111.971 6.57328C112.248 6.3786 112.156 6.34786 112.058 6.06608C111.797 5.31297 111.869 4.36515 112.079 3.61204C112.284 2.89479 112.647 2.32612 113.119 1.76769C113.262 1.5935 113.411 1.42957 113.564 1.26563C113.969 1.11705 114.389 1.07607 114.819 1.14267C115.352 1.02484 115.285 1.02478 115.219 1.01966ZM122.047 1.87013C122.482 2.1724 122.539 2.70009 122.549 3.20729C122.57 4.12434 122.226 4.97995 121.832 5.79454C121.77 5.92262 121.294 6.6091 121.294 6.85502C121.299 7.25975 121.796 7.32635 122.037 7.5569C122.908 8.38686 121.432 9.59599 121.32 10.426C121.233 11.0459 121.591 11.0049 121.97 11.3123C122.385 11.6453 122.344 12.1422 122.283 12.6135C122.201 13.2744 121.791 13.756 121.596 14.3708C121.437 14.878 121.745 14.9959 122.021 15.3596C122.262 15.6773 122.36 16.1383 122.401 16.5174C122.467 16.9836 122.411 17.4293 122.242 17.8648C122.088 18.1876 121.945 18.5104 121.806 18.8382C121.755 19.2071 121.919 19.2584 122.196 19.4428C122.585 19.7092 122.677 20.0268 122.698 20.5136C122.749 21.8046 122.032 23.1418 121.325 24.1715C121.038 24.607 120.7 25.0015 120.316 25.3601C120.172 25.4523 120.075 25.5702 120.024 25.7188C121.048 25.6163 120.474 27.599 120.362 27.9422C120.08 28.7978 119.675 29.4997 119.045 30.1452C118.548 30.6524 117.98 31.2159 117.396 31.6361C117.632 31.5131 117.908 31.467 118.164 31.3953C119.394 31.0571 120.628 30.8778 121.837 30.4372C122.482 30.2016 123.169 29.9505 123.62 29.4126C123.973 28.9874 124.029 28.5416 123.978 27.9986C123.927 27.4658 123.758 26.9996 123.445 26.5641C123.312 26.3745 123.01 26.0876 122.99 25.8417C123.681 25.2628 124.68 24.8222 125.141 24.0076C125.3 23.7258 125.556 23.2648 125.418 22.9164C125.295 22.6039 124.854 22.4143 124.588 22.2452C125.684 21.615 126.401 20.7134 126.683 19.4582C126.888 18.5411 126.98 17.5165 126.708 16.6045C126.601 16.2408 126.114 15.5491 126.145 15.1342C127.277 14.8012 127.702 13.7151 127.349 12.6085C127.046 11.6504 126.422 10.7897 125.858 9.96998C125.684 9.71894 125.336 9.45765 125.592 9.26297C125.73 9.23736 125.868 9.21687 126.007 9.20662C126.304 9.14515 126.55 8.99658 126.744 8.76603C127.113 8.31519 127.041 7.62867 126.98 7.09586C126.934 6.80896 126.888 6.52203 126.847 6.23513C126.744 5.78429 126.632 5.33857 126.514 4.89285C126.514 4.68792 126.539 4.65717 126.596 4.43687C127.062 2.66424 124.88 1.32195 123.399 1.04017C122.713 0.906968 122.375 1.23487 121.817 1.56788C121.811 1.51152 121.847 1.48588 122.047 1.85475V1.87013Z" fill="#415C7C"/>
</g>
<path d="M154.328 29.2638C161.95 29.2638 168.128 23.0845 168.128 15.4619C168.128 7.83929 161.95 1.65991 154.328 1.65991C146.707 1.65991 140.528 7.83929 140.528 15.4619C140.528 23.0845 146.707 29.2638 154.328 29.2638Z" fill="#3A7295"/>
<mask id="mask1_70_12332" style="mask-type:luminance" maskUnits="userSpaceOnUse" x="140" y="1" width="29" height="29">
<path d="M154.328 29.2638C161.95 29.2638 168.128 23.0845 168.128 15.4619C168.128 7.83929 161.95 1.65991 154.328 1.65991C146.707 1.65991 140.528 7.83929 140.528 15.4619C140.528 23.0845 146.707 29.2638 154.328 29.2638Z" fill="white"/>
</mask>
<g mask="url(#mask1_70_12332)">
<path d="M152.039 29.8838C152.146 29.853 152.259 29.8274 152.367 29.8069C152.305 29.8376 152.239 29.8735 152.177 29.9042C152.07 29.9555 151.358 30.3858 151.081 30.2936C151.137 30.063 151.834 29.9453 152.044 29.8889L152.039 29.8838ZM154.595 25.4676C154.703 25.4368 154.815 25.4009 154.928 25.3548C154.79 25.3343 154.61 25.3446 154.595 25.4676ZM165.301 12.598C165.762 12.4802 165.844 11.9064 165.905 11.517C166.059 10.5744 165.752 9.73409 165.07 9.09369C164.912 8.94511 164.717 8.80683 164.599 8.62239C164.384 8.28938 164.492 7.93585 164.538 7.56698C164.666 6.58844 164.748 5.58433 164.676 4.59554C164.543 2.78192 163.4 1.51645 161.787 0.840182C161.305 0.640376 160.747 0.619903 160.296 0.348373C159.835 0.0768418 159.333 -0.0871314 158.79 -0.0666385C158.109 -0.0358992 157.52 0.384263 156.88 0.440618C156.849 0.512343 156.844 0.589132 156.26 1.14756C156.91 0.973373 157.643 0.952881 158.211 1.40372C158.954 1.99289 158.995 3.20715 159.041 4.07809C159.082 4.73899 159.005 5.3794 158.795 6.00443C158.678 6.32719 158.555 6.65503 158.432 6.97779C158.391 7.23396 158.432 7.35693 158.652 7.5055C159.308 7.94098 160.076 7.84878 160.46 8.67874C160.747 9.29865 160.578 10.021 160.394 10.6409C160.255 11.0918 159.789 11.4811 160.194 11.8602C160.66 12.3008 161.177 12.5827 161.485 13.1769C161.848 13.8839 161.848 14.6832 161.556 15.4209C161.362 15.9127 160.849 16.3329 160.727 16.8298C160.66 17.0911 160.737 17.2755 160.834 17.5112C161.111 18.1977 161.141 18.7049 160.89 19.4221C160.153 21.5688 158.38 23.3363 156.49 24.5198C156.029 24.8067 155.461 25.155 154.923 25.3599C154.948 25.3599 154.974 25.3702 154.995 25.3753C155.271 25.4573 155.425 25.7596 155.491 26.0157C155.753 27.0506 154.841 28.1163 154.103 28.7413C153.596 29.1768 152.961 29.5046 152.362 29.8069C153.468 29.561 154.615 29.6583 155.707 29.3253C156.516 29.0794 157.279 28.7208 158.032 28.3468C158.698 28.0189 159.436 27.7115 159.989 27.2043C160.26 26.9584 160.465 26.6715 160.573 26.318C160.66 26.0208 160.573 25.7852 160.588 25.4983C161.618 25.2831 162.688 24.7964 163.206 23.8076C163.477 23.2902 163.636 22.8393 163.283 22.3219C163.114 22.0452 162.909 21.7993 162.673 21.5739C162.519 21.4561 162.422 21.3126 162.381 21.1384C162.371 20.8771 162.514 20.8925 162.745 20.8105C163.329 20.6107 164.056 20.2111 164.43 19.7039C165.234 18.6076 164.814 17.5265 164.23 16.4558C164.85 16.3021 165.424 15.3235 165.562 14.7497C165.752 13.9761 165.613 12.6646 164.589 12.5826C164.804 12.598 165.081 12.6493 165.291 12.598H165.301ZM148.955 17.3882C148.673 16.4917 148.817 15.6104 149.647 15.0623C150.179 14.7088 150.876 14.5858 151.475 14.3758C151.557 13.9761 151.091 13.1667 150.979 12.8285C150.82 12.3008 150.641 11.7783 150.451 11.2609C150.251 10.7485 150.092 10.2208 149.98 9.68287C149.964 8.96562 150.605 8.53016 151.24 8.35085C151.45 8.28937 152.408 8.3355 152.536 8.12033C152.7 7.84879 152.111 6.60381 152.044 6.41425C151.798 5.79434 151.537 5.17443 151.271 4.55965C151.096 4.22664 151.025 3.8783 151.066 3.51455C151.306 2.27473 152.761 1.8546 153.709 1.37302C153.355 1.40376 153.176 1.26543 152.843 1.17833C152.587 1.11173 152.075 0.706981 151.45 0.778706C151.009 0.75309 150.584 0.814561 150.174 0.963135C149.985 0.963135 149.877 1.0605 149.852 1.24494C149.734 1.46524 149.616 1.86994 149.611 2.11586C149.596 2.64355 149.918 3.03292 150.318 3.33519C150.446 3.43253 150.774 3.56066 150.733 3.77071C150.282 3.85268 149.893 3.87827 149.452 4.05758C148.771 4.33424 148.151 4.73897 147.705 5.33326C147.167 6.06076 147.004 6.81387 147.167 7.70019C147.198 8.02295 147.301 8.32522 147.475 8.60188C147.582 8.71459 147.669 8.83754 147.736 8.97586C147.746 9.24227 147.444 9.4011 147.26 9.56505C146.158 10.5436 145.149 11.4914 144.914 13.0181C144.76 14.012 144.606 15.2518 145.165 16.1484C145.513 16.7068 146.051 17.0142 146.655 17.1269C146.199 17.1884 145.702 17.5573 145.436 17.7673C144.171 18.7561 143.382 20.0421 143.126 21.6303C142.875 23.2031 143.008 24.904 144.417 25.8774C145.021 26.2924 145.564 26.487 146.266 26.3282C146.281 26.4256 146.256 26.5127 146.251 26.61C146.23 27.1019 146.384 27.4964 146.65 27.9113C147.152 28.7054 147.787 29.4329 148.668 29.8018C148.745 29.5815 148.269 28.9308 148.202 28.7618C147.664 27.4451 147.577 25.9901 147.495 24.5914C147.465 23.8588 147.424 23.1262 147.367 22.3936C147.285 21.9786 147.311 21.579 147.449 21.1897C147.813 20.7849 148.884 21.0206 149.355 21.0052C149.8 20.9898 150.328 21.0974 150.354 20.5288C150.302 20.0523 150.144 19.6117 149.877 19.2069C149.524 18.6178 149.216 18.0081 148.955 17.3728V17.3882Z" fill="#415C7C"/>
</g>
<path d="M139.509 29.2638C147.13 29.2638 153.309 23.0845 153.309 15.4619C153.309 7.83929 147.13 1.65991 139.509 1.65991C131.888 1.65991 125.709 7.83929 125.709 15.4619C125.709 23.0845 131.888 29.2638 139.509 29.2638Z" fill="#4DC7C9"/>
<mask id="mask2_70_12332" style="mask-type:luminance" maskUnits="userSpaceOnUse" x="125" y="1" width="29" height="29">
<path d="M139.509 29.2638C147.13 29.2638 153.309 23.0845 153.309 15.4619C153.309 7.83929 147.13 1.65991 139.509 1.65991C131.888 1.65991 125.709 7.83929 125.709 15.4619C125.709 23.0845 131.888 29.2638 139.509 29.2638Z" fill="white"/>
</mask>
<g mask="url(#mask2_70_12332)">
<path d="M137.378 0.558533C137.573 0.635381 139.043 0.671244 138.951 0.302372C138.49 0.230646 138.249 1.18866 138.208 1.49093C138.142 1.97764 138.3 2.51556 138.526 2.94591C138.608 3.09961 138.756 3.27892 138.756 3.45823C137.711 3.96543 136.523 4.22164 136.195 5.48707C136.006 6.20945 136.077 6.93695 136.441 7.60297C136.625 7.95647 136.876 8.24333 137.209 8.46363C137.378 8.52511 137.517 8.62756 137.619 8.77101C137.045 9.36018 136 9.35512 135.509 10.0468C135.16 10.5386 135.401 11.348 135.56 11.886C135.77 12.6032 136.246 13.1002 136.559 13.756C136.615 13.8892 136.677 14.0223 136.733 14.1504C136.784 14.3297 136.733 14.4476 136.574 14.5091C136.338 14.7857 135.79 14.8421 135.452 14.9445C135.124 15.0419 134.797 15.1033 134.607 15.4005C134.387 15.7489 134.525 16.1997 134.638 16.5635C134.802 16.9016 134.966 17.2397 135.135 17.5779C135.278 17.834 135.391 18.1055 135.478 18.3873C135.473 18.582 135.514 18.5923 135.299 18.6742C135.022 18.7818 134.694 18.6947 134.412 18.7306C133.962 18.7869 133.649 18.956 133.403 19.3505C133.029 19.9397 133.157 20.5596 133.25 21.2102C133.408 22.3424 133.762 23.8026 134.387 24.7965C134.715 25.3139 135.089 25.8109 135.544 26.2207C135.278 26.067 135.042 25.9389 134.791 25.7443C133.603 24.8374 132.323 23.8436 131.436 22.6294C130.755 21.6969 130.161 20.6313 129.802 19.5247C129.551 18.7357 129.526 17.7828 130.023 17.0655C130.268 16.7069 130.607 16.3176 131.037 16.1741C131.303 16.087 131.523 16.2253 131.774 16.169C131.616 15.9384 131.221 15.7693 131.006 15.5644C130.519 15.0982 130.386 14.4834 130.366 13.843C130.345 13.1463 130.432 12.4956 130.832 11.9116C131.083 11.5478 131.416 11.4044 131.764 11.1944C131.764 11.1021 131.718 11.0253 131.626 10.974C131.431 10.723 131.329 10.4361 131.324 10.1082C131.231 9.41147 131.334 8.30481 131.723 7.69515C132.23 6.90105 133.116 6.83445 133.962 6.74224C133.716 6.49632 133.501 6.25044 133.337 5.94305C132.855 5.03624 133.229 3.9347 133.639 3.08425C134.003 2.33113 134.638 1.65491 135.283 1.13746C135.852 0.681493 136.169 0.732675 136.943 0.701935C137.445 0.537992 137.409 0.558518 137.373 0.543148L137.378 0.558533ZM142.777 1.24503C143.397 1.31163 144.043 1.31161 144.304 1.993C144.632 2.84345 144.068 3.81691 143.587 4.47268C143.351 4.79545 143.115 5.11309 142.88 5.43585C142.66 5.71251 142.521 6.01987 142.465 6.36312C142.526 6.84983 143.341 7.15724 143.612 7.53636C143.981 8.05381 143.858 8.46878 143.566 9.0016C143.305 9.43707 142.998 9.8418 142.654 10.2158C142.47 10.3951 142.301 10.5898 142.152 10.7999C142.065 11.1021 142.49 11.3173 142.66 11.512C143.172 12.1217 143.131 13.0438 143.023 13.7867C142.952 14.2734 142.813 14.7396 142.608 15.1904C142.496 15.3236 142.45 15.4671 142.465 15.6259C142.531 15.7796 142.644 15.7386 142.777 15.8411C142.916 16.0204 142.998 16.2253 143.023 16.4558C143.167 16.9579 143.233 17.4754 143.223 17.9979C143.131 19.0277 142.721 20.0319 142.229 20.9336C141.825 21.6765 141.415 22.2092 140.739 22.6806C140.498 22.8496 140.585 22.7984 140.559 23.0494C140.493 23.7923 140.18 24.4225 139.76 25.0372C139.525 25.3805 139.171 25.9082 138.761 26.0721C139.074 25.9697 139.535 26.0261 139.863 25.9697C140.831 25.7955 141.609 25.2986 142.414 24.7555C143.274 24.1715 144.437 23.321 144.376 22.1273C144.36 21.8199 144.104 20.9438 143.735 20.8414C143.971 20.9387 144.447 20.7696 144.627 20.6928C145.277 20.4212 146.112 19.6835 146.44 19.0739C146.757 18.4847 146.865 17.9467 146.522 17.3166C146.281 16.8657 145.948 16.5327 145.559 16.2151C145.748 16.1433 145.969 16.2407 146.184 16.1792C146.619 16.0512 146.886 15.7438 147.07 15.3441C147.495 14.422 146.86 13.6894 146.168 13.1207C146.409 13.1053 146.614 13.1668 146.855 13.095C147.208 12.9977 147.567 12.6698 147.638 12.3009C147.751 11.7322 147.495 11.1892 147.172 10.7332C147.039 10.5437 146.737 10.2926 146.686 10.0672C147.336 9.97499 147.9 8.92473 147.961 8.34581C148.048 7.48511 147.736 6.4912 147.27 5.77907C147.162 5.62025 146.978 5.20525 146.716 5.37944C146.957 5.47678 147.172 5.11306 147.239 4.95424C147.598 4.09353 147.162 2.98181 146.793 2.21332C146.419 1.43459 145.882 0.322854 144.893 0.292115C144.591 0.281869 144.488 0.317749 144.263 0.502185C144.201 0.579033 144.13 0.64558 144.048 0.701935C143.976 0.727552 143.904 0.727562 143.827 0.712192C143.699 0.748054 143.674 0.865909 142.772 1.24503H142.777Z" fill="#3E8C98"/>
</g>
<path d="M29.9607 9.8315H13.7175L8.52849 0H35.1497L29.9607 9.8315Z" fill="#8E85CB"/>
<path d="M31.9692 14.1812H11.71L5.2404 26.0363H38.4388L31.9692 14.1812Z" fill="#902CCC"/>
<path d="M16.7859 14.1812H14.9572V9.83154H16.7859V14.1812ZM28.7211 9.83154H26.8924V14.1812H28.7211V9.83154Z" fill="black"/>
<path d="M85.6516 70.7928L85.462 69.717L52.489 75.5318L81.4819 58.7891L80.9389 57.8413L51.9409 74.584L73.4602 48.932L72.6252 48.2301L51.1059 73.8821L62.5545 42.4153L61.5301 42.0413L50.0763 73.5082V40.0227H48.9853V73.5082L37.5315 42.0413L36.507 42.4153L47.9556 73.8821L26.4364 48.2301L25.6014 48.932L47.1207 74.584L18.1278 57.8413L17.5797 58.7891L46.5726 75.5318L13.6047 69.717L13.4152 70.7928L46.3831 76.6077L13.4152 82.4225L13.6047 83.4984L46.5726 77.6835L17.5797 94.4263L18.1278 95.374L47.1207 78.6314L25.6014 104.283L26.4364 104.985L47.9556 79.3333L36.507 110.8L37.5315 111.174L48.9853 79.7072V113.193H50.0763V79.7072L61.5301 111.174L62.5545 110.8L51.1059 79.3333L72.6252 104.985L73.4602 104.283L51.9409 78.6314L80.9389 95.374L81.4819 94.4263L52.489 77.6835L85.462 83.4984L85.6516 82.4225L52.6786 76.6077L85.6516 70.7928Z" fill="#DDDDDD"/>
<path d="M49.534 35.6272C26.9031 35.6272 8.55974 53.9735 8.55974 76.6079C8.55974 99.2423 26.9031 117.583 49.534 117.583C72.1648 117.583 90.5031 99.2371 90.5031 76.6079C90.5031 53.9786 72.1597 35.6272 49.534 35.6272ZM49.534 110.288C30.9345 110.288 15.8592 95.2052 15.8592 76.6079C15.8592 58.0106 30.9345 42.9278 49.534 42.9278C68.1335 42.9278 83.2087 58.0054 83.2087 76.6079C83.2087 95.2103 68.1283 110.288 49.534 110.288Z" fill="#492D0F"/>
<path d="M49.5342 41.6365C30.2226 41.6365 14.5685 57.2931 14.5685 76.6076C14.5685 95.9222 30.2226 111.574 49.5342 111.574C68.8457 111.574 84.4947 95.917 84.4947 76.6076C84.4947 57.2982 68.8405 41.6365 49.5342 41.6365ZM49.5342 110.288C30.9347 110.288 15.8594 95.2049 15.8594 76.6076C15.8594 58.0103 30.9347 42.9275 49.5342 42.9275C68.1337 42.9275 83.2089 58.0052 83.2089 76.6076C83.2089 95.21 68.1285 110.288 49.5342 110.288Z" fill="#DDDDDD"/>
<path d="M49.5341 83.2013C53.1751 83.2013 56.1267 80.2493 56.1267 76.6077C56.1267 72.9662 53.1751 70.0142 49.5341 70.0142C45.8932 70.0142 42.9416 72.9662 42.9416 76.6077C42.9416 80.2493 45.8932 83.2013 49.5341 83.2013Z" fill="#492D0F"/>
<path d="M53.4069 76.6077C53.4069 78.7493 51.6704 80.4861 49.5292 80.4861C47.3881 80.4861 45.6515 78.7493 45.6515 76.6077C45.6515 74.4662 47.3881 72.7295 49.5292 72.7295C51.6704 72.7295 53.4069 74.4662 53.4069 76.6077Z" fill="#826726"/>
<path d="M172.78 70.7928L172.585 69.717L139.617 75.5318L168.61 58.7891L168.062 57.8413L139.069 74.584L160.588 48.932L159.753 48.2301L138.234 73.8821L149.683 42.4153L148.658 42.0413L137.205 73.5082V40.0227H136.113V73.5082L124.66 42.0413L123.635 42.4153L135.084 73.8821L113.565 48.2301L112.73 48.932L134.249 74.584L105.256 57.8413L104.708 58.7891L133.701 75.5318L100.728 69.717L100.538 70.7928L133.511 76.6077L100.538 82.4225L100.728 83.4984L133.701 77.6835L104.708 94.4263L105.256 95.374L134.249 78.6314L112.73 104.283L113.565 104.985L135.084 79.3333L123.635 110.8L124.66 111.174L136.113 79.7072V113.193H137.205V79.7072L148.658 111.174L149.683 110.8L138.234 79.3333L159.753 104.985L160.588 104.283L139.069 78.6314L168.062 95.374L168.61 94.4263L139.617 77.6835L172.585 83.4984L172.78 82.4225L139.807 76.6077L172.78 70.7928Z" fill="#DDDDDD"/>
<path d="M136.661 35.627C114.03 35.627 95.6867 53.9732 95.6867 76.6076C95.6867 99.242 114.03 117.583 136.661 117.583C159.292 117.583 177.63 99.2369 177.63 76.6076C177.63 53.9783 159.287 35.627 136.661 35.627ZM136.661 110.288C118.061 110.288 102.986 95.2049 102.986 76.6076C102.986 58.0103 118.061 42.9275 136.661 42.9275C155.26 42.9275 170.336 58.0052 170.336 76.6076C170.336 95.21 155.255 110.288 136.661 110.288Z" fill="#492D0F"/>
<path d="M136.661 41.6365C117.35 41.6365 101.695 57.2931 101.695 76.6076C101.695 95.9222 117.35 111.574 136.661 111.574C155.973 111.574 171.622 95.917 171.622 76.6076C171.622 57.2982 155.968 41.6365 136.661 41.6365ZM136.661 110.288C118.062 110.288 102.986 95.2049 102.986 76.6076C102.986 58.0103 118.062 42.9275 136.661 42.9275C155.261 42.9275 170.336 58.0052 170.336 76.6076C170.336 95.21 155.255 110.288 136.661 110.288Z" fill="#DDDDDD"/>
<path d="M136.655 83.2013C140.296 83.2013 143.248 80.2493 143.248 76.6077C143.248 72.9662 140.296 70.0142 136.655 70.0142C133.014 70.0142 130.063 72.9662 130.063 76.6077C130.063 80.2493 133.014 83.2013 136.655 83.2013Z" fill="#492D0F"/>
<path d="M136.656 80.4861C138.798 80.4861 140.534 78.7497 140.534 76.6077C140.534 74.4658 138.798 72.7295 136.656 72.7295C134.515 72.7295 132.778 74.4658 132.778 76.6077C132.778 78.7497 134.515 80.4861 136.656 80.4861Z" fill="#826726"/>
<path d="M141.082 24.7505V62.1346C141.082 70.0346 134.653 76.4643 126.754 76.4643H95.2822V20.406H90.9179V76.4643H59.4458C51.547 76.4643 45.1184 70.0346 45.1184 62.1346V23.5055H40.7541V62.1346C40.7541 72.4426 49.1395 80.8293 59.4458 80.8293H126.759C137.066 80.8293 145.451 72.4426 145.451 62.1346V24.7505H141.087H141.082Z" fill="#C68D47"/>
<mask id="mask3_70_12332" style="mask-type:luminance" maskUnits="userSpaceOnUse" x="40" y="20" width="106" height="61">
<path d="M141.082 24.7507V62.1349C141.082 70.0349 134.653 76.4645 126.754 76.4645H95.2822V20.4062H90.9179V76.4645H59.4458C51.547 76.4645 45.1184 70.0349 45.1184 62.1349V23.5058H40.7541V62.1349C40.7541 72.4428 49.1395 80.8295 59.4458 80.8295H126.759C137.066 80.8295 145.451 72.4428 145.451 62.1349V24.7507H141.087H141.082Z" fill="white"/>
</mask>
<g mask="url(#mask3_70_12332)">
<path d="M149.8 30.1763H34.5509V47.626H149.8V30.1763Z" fill="black"/>
</g>
<path d="M182.394 17.9775H3.79607V34.0849H182.394V17.9775Z" fill="#DBB640"/>
<path d="M182.394 24.2227H3.79607V34.0849H182.394V24.2227Z" fill="black"/>
<path d="M186.149 26.0364H0.0363007V34.0901H186.149V26.0364Z" fill="#F4EC5B"/>
<path d="M182.117 32.0048L179.92 30.0016C179.146 29.2997 179.146 28.0855 179.915 27.3785L204.948 4.34451C205.629 3.71947 206.669 3.71947 207.35 4.34451C208.078 5.0054 208.129 6.13247 207.463 6.85997L184.627 31.8972C183.967 32.6247 182.84 32.6759 182.112 32.015L182.117 32.0048Z" fill="#DBB640"/>
<path d="M4.22104 40.0228H0.000167847L0.758276 37.0513L0.000167847 34.0798H4.22104L3.46293 37.0513L4.22104 40.0228ZM9.52785 37.0513L10.286 34.0798H6.06516L6.82326 37.0513L6.06516 40.0228H10.286L9.52785 37.0513ZM15.5928 37.0513L16.351 34.0798H12.1301L12.8882 37.0513L12.1301 40.0228H16.351L15.5928 37.0513ZM21.6578 37.0513L22.4159 34.0798H18.195L18.9531 37.0513L18.195 40.0228H22.4159L21.6578 37.0513ZM27.7227 37.0513L28.4808 34.0798H24.2599L25.0181 37.0513L24.2599 40.0228H28.4808L27.7227 37.0513ZM33.7927 37.0513L34.5509 34.0798H30.33L31.0882 37.0513L30.33 40.0228H34.5509L33.7927 37.0513ZM39.8577 37.0513L40.6158 34.0798H36.395L37.1531 37.0513L36.395 40.0228H40.6158L39.8577 37.0513ZM45.9227 37.0513L46.6808 34.0798H42.4599L43.218 37.0513L42.4599 40.0228H46.6808L45.9227 37.0513ZM51.9876 37.0513L52.7457 34.0798H48.5248L49.283 37.0513L48.5248 40.0228H52.7457L51.9876 37.0513ZM58.0526 37.0513L58.8107 34.0798H54.5898L55.3479 37.0513L54.5898 40.0228H58.8107L58.0526 37.0513ZM64.1175 37.0513L64.8756 34.0798H60.6547L61.4128 37.0513L60.6547 40.0228H64.8756L64.1175 37.0513ZM70.1824 37.0513L70.9405 34.0798H66.7197L67.4778 37.0513L66.7197 40.0228H70.9405L70.1824 37.0513ZM76.2525 37.0513L77.0107 34.0798H72.7897L73.5479 37.0513L72.7897 40.0228H77.0107L76.2525 37.0513ZM82.3175 37.0513L83.0756 34.0798H78.8547L79.6128 37.0513L78.8547 40.0228H83.0756L82.3175 37.0513ZM88.3824 37.0513L89.1405 34.0798H84.9196L85.6777 37.0513L84.9196 40.0228H89.1405L88.3824 37.0513ZM94.4473 37.0513L95.2054 34.0798H90.9846L91.7427 37.0513L90.9846 40.0228H95.2054L94.4473 37.0513ZM100.512 37.0513L101.27 34.0798H97.0496L97.8077 37.0513L97.0496 40.0228H101.27L100.512 37.0513ZM106.577 37.0513L107.335 34.0798H103.114L103.873 37.0513L103.114 40.0228H107.335L106.577 37.0513ZM112.642 37.0513L113.4 34.0798H109.179L109.938 37.0513L109.179 40.0228H113.4L112.642 37.0513ZM118.712 37.0513L119.47 34.0798H115.249L116.008 37.0513L115.249 40.0228H119.47L118.712 37.0513ZM124.777 37.0513L125.535 34.0798H121.314L122.073 37.0513L121.314 40.0228H125.535L124.777 37.0513ZM130.842 37.0513L131.6 34.0798H127.379L128.137 37.0513L127.379 40.0228H131.6L130.842 37.0513ZM136.907 37.0513L137.665 34.0798H133.444L134.202 37.0513L133.444 40.0228H137.665L136.907 37.0513ZM142.972 37.0513L143.73 34.0798H139.509L140.267 37.0513L139.509 40.0228H143.73L142.972 37.0513ZM149.037 37.0513L149.795 34.0798H145.574L146.332 37.0513L145.574 40.0228H149.795L149.037 37.0513ZM155.102 37.0513L155.86 34.0798H151.639L152.397 37.0513L151.639 40.0228H155.86L155.102 37.0513ZM161.172 37.0513L161.93 34.0798H157.709L158.467 37.0513L157.709 40.0228H161.93L161.172 37.0513ZM167.237 37.0513L167.995 34.0798H163.774L164.532 37.0513L163.774 40.0228H167.995L167.237 37.0513ZM173.302 37.0513L174.06 34.0798H169.839L170.597 37.0513L169.839 40.0228H174.06L173.302 37.0513ZM179.367 37.0513L180.125 34.0798H175.904L176.662 37.0513L175.904 40.0228H180.125L179.367 37.0513ZM185.432 37.0513L186.19 34.0798H181.969L182.727 37.0513L181.969 40.0228H186.19L185.432 37.0513Z" fill="#E8A336"/>
<mask id="mask4_70_12332" style="mask-type:luminance" maskUnits="userSpaceOnUse" x="0" y="34" width="187" height="7">
<path d="M4.22104 40.0228H0.000167847L0.758276 37.0513L0.000167847 34.0798H4.22104L3.46293 37.0513L4.22104 40.0228ZM9.52785 37.0513L10.286 34.0798H6.06516L6.82326 37.0513L6.06516 40.0228H10.286L9.52785 37.0513ZM15.5928 37.0513L16.351 34.0798H12.1301L12.8882 37.0513L12.1301 40.0228H16.351L15.5928 37.0513ZM21.6578 37.0513L22.4159 34.0798H18.195L18.9531 37.0513L18.195 40.0228H22.4159L21.6578 37.0513ZM27.7227 37.0513L28.4808 34.0798H24.2599L25.0181 37.0513L24.2599 40.0228H28.4808L27.7227 37.0513ZM33.7927 37.0513L34.5509 34.0798H30.33L31.0882 37.0513L30.33 40.0228H34.5509L33.7927 37.0513ZM39.8577 37.0513L40.6158 34.0798H36.395L37.1531 37.0513L36.395 40.0228H40.6158L39.8577 37.0513ZM45.9227 37.0513L46.6808 34.0798H42.4599L43.218 37.0513L42.4599 40.0228H46.6808L45.9227 37.0513ZM51.9876 37.0513L52.7457 34.0798H48.5248L49.283 37.0513L48.5248 40.0228H52.7457L51.9876 37.0513ZM58.0526 37.0513L58.8107 34.0798H54.5898L55.3479 37.0513L54.5898 40.0228H58.8107L58.0526 37.0513ZM64.1175 37.0513L64.8756 34.0798H60.6547L61.4128 37.0513L60.6547 40.0228H64.8756L64.1175 37.0513ZM70.1824 37.0513L70.9405 34.0798H66.7197L67.4778 37.0513L66.7197 40.0228H70.9405L70.1824 37.0513ZM76.2525 37.0513L77.0107 34.0798H72.7897L73.5479 37.0513L72.7897 40.0228H77.0107L76.2525 37.0513ZM82.3175 37.0513L83.0756 34.0798H78.8547L79.6128 37.0513L78.8547 40.0228H83.0756L82.3175 37.0513ZM88.3824 37.0513L89.1405 34.0798H84.9196L85.6777 37.0513L84.9196 40.0228H89.1405L88.3824 37.0513ZM94.4473 37.0513L95.2054 34.0798H90.9846L91.7427 37.0513L90.9846 40.0228H95.2054L94.4473 37.0513ZM100.512 37.0513L101.27 34.0798H97.0496L97.8077 37.0513L97.0496 40.0228H101.27L100.512 37.0513ZM106.577 37.0513L107.335 34.0798H103.114L103.873 37.0513L103.114 40.0228H107.335L106.577 37.0513ZM112.642 37.0513L113.4 34.0798H109.179L109.938 37.0513L109.179 40.0228H113.4L112.642 37.0513ZM118.712 37.0513L119.47 34.0798H115.249L116.008 37.0513L115.249 40.0228H119.47L118.712 37.0513ZM124.777 37.0513L125.535 34.0798H121.314L122.073 37.0513L121.314 40.0228H125.535L124.777 37.0513ZM130.842 37.0513L131.6 34.0798H127.379L128.137 37.0513L127.379 40.0228H131.6L130.842 37.0513ZM136.907 37.0513L137.665 34.0798H133.444L134.202 37.0513L133.444 40.0228H137.665L136.907 37.0513ZM142.972 37.0513L143.73 34.0798H139.509L140.267 37.0513L139.509 40.0228H143.73L142.972 37.0513ZM149.037 37.0513L149.795 34.0798H145.574L146.332 37.0513L145.574 40.0228H149.795L149.037 37.0513ZM155.102 37.0513L155.86 34.0798H151.639L152.397 37.0513L151.639 40.0228H155.86L155.102 37.0513ZM161.172 37.0513L161.93 34.0798H157.709L158.467 37.0513L157.709 40.0228H161.93L161.172 37.0513ZM167.237 37.0513L167.995 34.0798H163.774L164.532 37.0513L163.774 40.0228H167.995L167.237 37.0513ZM173.302 37.0513L174.06 34.0798H169.839L170.597 37.0513L169.839 40.0228H174.06L173.302 37.0513ZM179.367 37.0513L180.125 34.0798H175.904L176.662 37.0513L175.904 40.0228H180.125L179.367 37.0513ZM185.432 37.0513L186.19 34.0798H181.969L182.727 37.0513L181.969 40.0228H186.19L185.432 37.0513Z" fill="white"/>
</mask>
<g mask="url(#mask4_70_12332)">
<path d="M188.305 30.176H-3.73909V35.6271H188.305V30.176Z" fill="black"/>
</g>
</svg>
