<svg width="189" height="141" viewBox="0 0 189 141" fill="none" xmlns="http://www.w3.org/2000/svg">
<path d="M26.8158 87.0234C12.0069 87.0234 0 99.0323 0 113.844C0 128.655 12.0069 140.664 26.8158 140.664C41.6248 140.664 53.6317 128.655 53.6317 113.844C53.6317 99.0323 41.6248 87.0234 26.8158 87.0234ZM26.8158 134.967C15.1521 134.967 5.70125 125.509 5.70125 113.849C5.70125 102.188 15.1572 92.7307 26.8158 92.7307C38.4745 92.7307 47.9304 102.188 47.9304 113.849C47.9304 125.509 38.4745 134.967 26.8158 134.967Z" fill="#13203D"/>
<path d="M26.8157 89.8872C13.5845 89.8872 2.86328 100.61 2.86328 113.843C2.86328 127.077 13.5845 137.8 26.8157 137.8C40.0469 137.8 50.7681 127.072 50.7681 113.843C50.7681 100.615 40.0418 89.8872 26.8157 89.8872ZM26.8157 134.966C15.152 134.966 5.70112 125.509 5.70112 113.849C5.70112 102.188 15.1571 92.7306 26.8157 92.7306C38.4743 92.7306 47.9303 102.188 47.9303 113.849C47.9303 125.509 38.4743 134.966 26.8157 134.966Z" fill="#C1D4DB"/>
<path d="M47.6591 110.467L47.5567 109.883L28.4245 113.259L45.2516 103.54L44.9546 103.028L28.1274 112.742L40.6158 97.8588L40.1599 97.4746L27.6715 112.363L34.3153 94.0983L33.7569 93.8986L27.1131 112.158V92.7253H26.5138V112.158L19.87 93.8986L19.3117 94.0983L25.9555 112.363L13.467 97.4746L13.0111 97.8588L25.4996 112.742L8.67243 103.028L8.37535 103.54L25.2025 113.259L6.07026 109.883L5.96777 110.467L25.1001 113.843L5.96777 117.219L6.07026 117.803L25.2025 114.427L8.37535 124.146L8.67243 124.664L25.4996 114.945L13.0111 129.833L13.467 130.212L25.9555 115.329L19.3117 133.588L19.87 133.793L26.5138 115.529V134.966H27.1131V115.529L33.7569 133.793L34.3153 133.588L27.6715 115.329L40.1599 130.212L40.6158 129.833L28.1274 114.945L44.9546 124.664L45.2516 124.146L28.4245 114.427L47.5567 117.803L47.6591 117.219L28.5269 113.843L47.6591 110.467Z" fill="#DDDDDD"/>
<path d="M28.1937 113.961L26.9336 111.773C27.0156 111.722 35.4009 106.886 38.2541 104.821C39.3093 104.058 41.7272 98.4223 43.8017 88.2835L43.8376 88.1451L49.5747 70.4444L48.1916 68.682L49.9845 64.1633L56.0597 62.5188L67.0985 63.9226L66.7809 66.4278L56.2389 65.0855L51.8696 66.269L51.0807 68.2619L52.4022 69.9423L46.2707 88.8573C46.158 89.4003 45.3999 92.9763 44.3447 96.7316C42.1882 104.391 40.6873 106.184 39.7448 106.865C36.784 109.007 28.5523 113.756 28.2039 113.961H28.1937Z" fill="#4349CE"/>
<path d="M95.8256 75.5061L96.051 74.7684L97.0908 71.6996L94.2377 71.551L93.8432 73.1545L48.5355 76.7255L48.7352 79.2409L93.1107 75.7469L92.5421 77.6118L47.2241 81.1775L47.4239 83.6982L91.7482 80.2092L81.7902 112.757L47.1883 83.6418L45.5645 85.5784L83.0862 117.153L95.047 78.0524L106.316 114.955H111.075L95.8256 75.5061Z" fill="#4349CE"/>
<mask id="mask0_70_12333" style="mask-type:luminance" maskUnits="userSpaceOnUse" x="45" y="71" width="67" height="47">
<path d="M95.8256 75.5061L96.051 74.7684L97.0908 71.6996L94.2377 71.551L93.8432 73.1545L48.5355 76.7255L48.7352 79.2409L93.1107 75.7469L92.5421 77.6118L47.2241 81.1775L47.4239 83.6982L91.7482 80.2092L81.7902 112.757L47.1883 83.6418L45.5645 85.5784L83.0862 117.153L95.047 78.0524L106.316 114.955H111.075L95.8256 75.5061Z" fill="white"/>
</mask>
<g mask="url(#mask0_70_12333)">
<path d="M95.6057 98.5453C95.9847 98.3404 105.938 94.3545 105.938 94.3545L113.975 116.369L101.343 117.255L95.6006 98.5453H95.6057Z" fill="#5EC8F0"/>
</g>
<path d="M81.9384 123.552L81.877 122.717L159.348 116.533V112.808L81.877 107.224L81.9333 106.384L160.153 112.019V117.317L81.9384 123.552Z" fill="black"/>
<path d="M82.4355 114.955H158.514V112.414L83.0758 112.87L82.4355 114.955Z" fill="#5EC8F0"/>
<mask id="mask1_70_12333" style="mask-type:luminance" maskUnits="userSpaceOnUse" x="82" y="112" width="77" height="3">
<path d="M82.4355 114.955H158.514V112.414L83.0758 112.87L82.4355 114.955Z" fill="white"/>
</mask>
<g mask="url(#mask1_70_12333)">
<path d="M117.493 110.646V117.778L160.803 119.479L161.116 105.979L117.606 106.907L117.493 110.646Z" fill="#4349CE"/>
</g>
<path d="M93.864 68.9179C95.749 68.9998 100.38 65.3009 102.669 66.6022C104.959 67.9035 104.032 71.6997 104.032 71.6997H84.2747C84.2747 71.6997 83.7267 68.4875 93.8691 68.9179H93.864Z" fill="#F761E8"/>
<mask id="mask2_70_12333" style="mask-type:luminance" maskUnits="userSpaceOnUse" x="84" y="66" width="21" height="6">
<path d="M93.864 68.9179C95.749 68.9998 100.38 65.3009 102.669 66.6022C104.959 67.9035 104.032 71.6997 104.032 71.6997H84.2747C84.2747 71.6997 83.7267 68.4875 93.8691 68.9179H93.864Z" fill="white"/>
</mask>
<g mask="url(#mask2_70_12333)">
<path d="M83.1473 70.9927L106.377 68.385L106.454 74.2101H81.877L83.1473 70.9927Z" fill="#A52998"/>
</g>
<path d="M54.3435 128.772L52.1256 127.568C54.3999 123.383 55.5985 118.639 55.5985 113.843C55.5985 97.9663 42.6849 85.0507 26.8105 85.0507V82.5249C44.0782 82.5249 58.1239 96.5728 58.1239 113.843C58.1239 119.059 56.8177 124.218 54.3435 128.772Z" fill="#EFF283"/>
<path d="M159.072 87.0232C144.263 87.0232 132.256 99.032 132.256 113.843C132.256 128.654 144.263 140.663 159.072 140.663C173.881 140.663 185.888 128.654 185.888 113.843C185.888 99.032 173.881 87.0232 159.072 87.0232ZM159.072 134.966C147.408 134.966 137.957 125.509 137.957 113.848C137.957 102.188 147.413 92.7305 159.072 92.7305C170.73 92.7305 180.186 102.188 180.186 113.848C180.186 125.509 170.73 134.966 159.072 134.966Z" fill="#13203D"/>
<path d="M159.073 89.8872C145.841 89.8872 135.12 100.61 135.12 113.843C135.12 127.077 145.841 137.8 159.073 137.8C172.304 137.8 183.025 127.072 183.025 113.843C183.025 100.615 172.299 89.8872 159.073 89.8872ZM159.073 134.966C147.409 134.966 137.958 125.509 137.958 113.849C137.958 102.188 147.414 92.7306 159.073 92.7306C170.731 92.7306 180.187 102.188 180.187 113.849C180.187 125.509 170.731 134.966 159.073 134.966Z" fill="#C1D4DB"/>
<path d="M179.919 110.467L179.812 109.883L160.679 113.259L177.507 103.54L177.209 103.028L160.382 112.742L172.871 97.8588L172.415 97.4746L159.926 112.363L166.57 94.0983L166.012 93.8986L159.368 112.158V92.7253H158.774V112.158L152.125 93.8986L151.567 94.0983L158.215 112.363L145.722 97.4746L145.266 97.8588L157.76 112.742L140.932 103.028L140.635 103.54L157.462 113.259L138.325 109.883L138.223 110.467L157.36 113.843L138.223 117.219L138.325 117.803L157.462 114.427L140.635 124.146L140.932 124.664L157.76 114.945L145.266 129.833L145.722 130.212L158.215 115.329L151.567 133.588L152.125 133.793L158.774 115.529V134.966H159.368V115.529L166.012 133.793L166.57 133.588L159.926 115.329L172.415 130.212L172.871 129.833L160.382 114.945L177.209 124.664L177.507 124.146L160.679 114.427L179.812 117.803L179.919 117.219L160.782 113.843L179.919 110.467Z" fill="#DDDDDD"/>
<path d="M81.9075 105.979C76.9439 105.979 72.9229 110.006 72.9229 114.965C72.9229 119.925 76.949 123.957 81.9075 123.957C86.866 123.957 90.8923 119.93 90.8923 114.965C90.8923 110.001 86.866 105.979 81.9075 105.979ZM81.9075 121.795C78.1374 121.795 75.0845 118.741 75.0845 114.971C75.0845 111.2 78.1374 108.146 81.9075 108.146C85.6776 108.146 88.7306 111.2 88.7306 114.971C88.7306 118.741 85.6776 121.795 81.9075 121.795Z" fill="#EFF283"/>
<path d="M84.0231 114.97C84.0231 116.138 83.0755 117.086 81.9076 117.086C80.7396 117.086 79.792 116.138 79.792 114.97C79.792 113.802 80.7396 112.854 81.9076 112.854C83.0755 112.854 84.0231 113.802 84.0231 114.97Z" fill="#F761E8"/>
<path d="M81.1069 114.634L75.9375 127.834L77.5067 128.449L82.676 115.249L81.1069 114.634Z" fill="black"/>
<path d="M163.543 62.7442L160.593 62.3856L163.205 40.9039L166.156 41.2625L163.543 62.7442ZM162.002 40.2584L159.051 39.8793L155.926 64.189L158.877 64.5681L162.002 40.2584ZM154.497 38.9161L151.526 38.7368L149.821 66.6635L152.792 66.8428L154.497 38.9161ZM147.649 68.7077L146.721 38.7778L143.75 38.87L144.678 68.7999L147.649 68.7077ZM143.494 70.1934L140.103 41.4777L137.148 41.8261L140.539 70.5418L143.494 70.1934ZM140.057 71.259L131.856 43.6961L129.003 44.5465L137.204 72.1095L140.057 71.259Z" fill="#BD4B89"/>
<mask id="mask3_70_12333" style="mask-type:luminance" maskUnits="userSpaceOnUse" x="129" y="38" width="38" height="35">
<path d="M163.543 62.7442L160.593 62.3856L163.205 40.9039L166.156 41.2625L163.543 62.7442ZM162.002 40.2584L159.051 39.8793L155.926 64.189L158.877 64.5681L162.002 40.2584ZM154.497 38.9161L151.526 38.7368L149.821 66.6635L152.792 66.8428L154.497 38.9161ZM147.649 68.7077L146.721 38.7778L143.75 38.87L144.678 68.7999L147.649 68.7077ZM143.494 70.1934L140.103 41.4777L137.148 41.8261L140.539 70.5418L143.494 70.1934ZM140.057 71.259L131.856 43.6961L129.003 44.5465L137.204 72.1095L140.057 71.259Z" fill="white"/>
</mask>
<g mask="url(#mask3_70_12333)">
<path d="M128.471 48.8959C141.338 43.9981 154.38 42.3433 167.585 43.701L167.252 38.7366C167.252 38.7366 140.206 34.5816 127.805 44.1518L128.471 48.8959Z" fill="black"/>
</g>
<path d="M107.986 94.042L114.256 102.511C115.475 104.155 117.698 104.683 119.527 103.761L163.938 81.3467C165.788 80.4143 166.925 78.488 166.848 76.4182L166.156 57.908L136.8 70.4086C134.413 71.423 132.927 73.8411 133.106 76.4335L133.485 82.0537C133.634 84.2208 132.717 86.3213 131.032 87.6943L119.655 96.952C117.842 98.4275 115.173 98.1406 113.713 96.3116L110.419 92.1771C109.928 91.5624 109.046 91.4138 108.386 91.8442C107.643 92.3258 107.459 93.335 107.986 94.0471V94.042Z" fill="#F761E8"/>
<mask id="mask4_70_12333" style="mask-type:luminance" maskUnits="userSpaceOnUse" x="107" y="57" width="60" height="48">
<path d="M107.986 94.0418L114.256 102.51C115.475 104.155 117.698 104.683 119.527 103.761L163.938 81.3465C165.788 80.414 166.925 78.4877 166.848 76.4179L166.156 57.9077L136.8 70.4083C134.413 71.4227 132.927 73.8409 133.106 76.4332L133.485 82.0535C133.634 84.2206 132.717 86.3211 131.032 87.6941L119.655 96.9518C117.842 98.4273 115.173 98.1404 113.713 96.3114L110.419 92.1769C109.928 91.5621 109.046 91.4136 108.386 91.8439C107.643 92.3255 107.459 93.3348 107.986 94.0469V94.0418Z" fill="white"/>
</mask>
<g mask="url(#mask4_70_12333)">
<path d="M165.377 56.0122L155.66 77.1506C155.66 77.1506 133.839 79.866 126.539 100.221L129.894 107.572L174.951 84.9021L173.22 56.0122H165.377Z" fill="#A52998"/>
<path d="M130.653 56.13C131.841 58.6609 130.54 61.1815 129.47 63.4306C131.964 62.1447 134.915 59.2911 134.049 56.1711C133.726 55.1925 130.699 54.9107 130.212 55.6997C130.289 55.7202 130.341 55.6638 130.658 56.1249L130.653 56.13Z" fill="#FF97FF"/>
<path d="M120.813 57.0266C119.461 59.2962 121.986 62.9849 124.004 64.1786C124.019 63.3333 123.441 62.5443 123.236 61.7246C122.242 60.0493 124.424 57.3903 122.698 56.2735C122.088 56.1454 121.008 55.6894 120.762 56.5245C120.7 56.627 120.536 56.7602 120.818 57.0266H120.813Z" fill="#FF97FF"/>
<path d="M111.716 59.4139C111.542 61.5196 113.36 63.4613 114.605 65.0034C116.054 63.6918 116.633 61.7296 116.874 59.8442C116.244 57.8513 113.186 58.3226 111.716 59.1424C111.752 59.1885 111.803 59.1834 111.716 59.419V59.4139Z" fill="#FF97FF"/>
<path d="M148.238 92.1821C144.068 86.2699 135.704 88.145 130.591 84.0618C130.212 88.1706 131.022 92.3102 131.467 96.419C131.524 104.949 140.503 106.824 147.014 109.084C147.183 109.084 151.768 103.028 152.024 103.668C152.905 99.5749 150.815 95.2765 148.238 92.1821Z" fill="#703EFC"/>
<path d="M145.236 93.8779C142.316 91.1473 137.911 91.7364 134.863 89.5334C134.879 92.9404 134.863 96.8392 136.395 99.9695C137.947 102.28 141 102.08 143.013 103.72C144.222 104.56 148.1 107.106 148.617 104.637C148.279 101.015 148.12 96.4754 145.231 93.8831L145.236 93.8779Z" fill="#FDD3FF"/>
<path d="M143.096 95.9578C141.82 94.759 139.884 95.0152 138.547 94.052C138.649 97.8534 138.373 98.832 142.122 100.272C142.691 100.651 144.294 101.752 144.581 100.676C144.433 99.0882 144.361 97.0952 143.096 95.9578Z" fill="#E0CC4E"/>
<path d="M143.213 111.148C142.378 111.661 141.774 110.211 142.732 109.996C143.403 109.832 143.802 110.805 143.213 111.148ZM141.415 110.385C141.687 108.735 139.12 109.868 140.575 110.749L140.821 110.17L140.601 110.764C140.929 110.887 141.292 110.718 141.41 110.39L141.415 110.385ZM139.402 109.663C139.735 108.899 138.49 108.387 138.193 109.171C137.876 109.929 139.1 110.426 139.402 109.663ZM137.41 108.822C137.717 108.074 136.518 107.572 136.221 108.341C135.898 109.099 137.123 109.601 137.41 108.822ZM135.458 107.941C135.965 107.316 134.976 106.486 134.459 107.132C133.926 107.762 134.956 108.607 135.458 107.941ZM133.87 106.512C134.444 105.938 133.532 105.016 132.958 105.61C132.369 106.189 133.312 107.122 133.87 106.512ZM132.354 105.031C133.383 103.725 130.602 103.464 131.437 104.939L131.939 104.555L131.462 104.97C131.693 105.236 132.098 105.257 132.354 105.031ZM130.981 103.387C132.139 102.183 129.388 101.655 130.085 103.207L130.622 102.869L130.105 103.233C130.305 103.52 130.704 103.586 130.986 103.387H130.981ZM130.069 100.738C129.716 99.9644 128.522 100.579 128.947 101.317C129.301 102.06 130.443 101.46 130.069 100.738ZM129.46 98.868C129.321 98.0227 128.005 98.3147 128.225 99.1396C128.379 99.9388 129.618 99.657 129.46 98.868ZM129.137 96.8341V96.7931C129.055 95.9785 127.774 96.1271 127.882 96.9417L128.512 96.911L127.887 96.9826C127.969 97.7972 129.244 97.6538 129.142 96.8341H129.137ZM128.968 94.7234C128.963 93.8678 127.616 93.9446 127.708 94.7951L128.338 94.7694L127.708 94.8155C127.759 95.6301 129.04 95.5379 128.968 94.7182V94.7234ZM128.804 92.6279C128.845 91.7775 127.503 91.7723 127.539 92.6279L128.169 92.6433L127.539 92.6587C127.549 93.4784 128.83 93.4527 128.799 92.6279H128.804ZM128.773 90.5018C128.835 89.6514 127.493 89.6155 127.508 90.4659L128.138 90.5018H127.508C127.493 91.3164 128.778 91.3267 128.768 90.5018H128.773ZM128.814 88.3961C128.922 87.5508 127.585 87.4432 127.554 88.2937L128.184 88.3603L127.554 88.3244C127.498 89.139 128.778 89.2159 128.814 88.3911V88.3961ZM128.999 86.3213C129.173 85.4913 127.856 85.2658 127.754 86.1112L128.374 86.2341L127.749 86.1471C127.626 86.9565 128.896 87.1358 128.999 86.3213ZM129.239 84.1593C129.367 83.3139 128.036 83.1705 127.984 84.0209L128.609 84.1029L127.979 84.0516C127.897 84.8662 129.178 84.9739 129.239 84.1593ZM129.111 81.8384C128.983 81.0136 127.697 81.2646 127.872 82.0792C128 82.8938 129.26 82.6428 129.111 81.8384ZM128.87 80.2605C129.424 79.6611 128.466 78.7901 127.923 79.3946C127.324 80.0094 128.317 80.8907 128.87 80.2605ZM154.677 98.6221C154.565 97.7768 153.253 98.0483 153.438 98.868C153.586 99.6724 154.846 99.4316 154.677 98.6221ZM154.18 96.5114C153.976 95.6865 152.705 96.0861 152.977 96.8853C153.207 97.6692 154.437 97.2952 154.18 96.5114ZM153.243 94.4774C152.849 93.7243 151.711 94.4159 152.157 95.128C152.567 95.835 153.673 95.1793 153.243 94.4774ZM152.131 92.6945C151.737 91.9414 150.6 92.633 151.045 93.3452C151.455 94.0522 152.562 93.3964 152.131 92.6945ZM150.728 91.8338C150.984 91.5982 150.999 91.1986 150.759 90.9424L150.267 91.342L150.738 90.9168C149.36 89.9126 149.314 92.715 150.728 91.8338ZM149.324 90.2712C149.575 90.0304 149.581 89.6308 149.34 89.3798L148.858 89.7897L149.314 89.3542C147.916 88.3962 147.936 91.1832 149.324 90.2764V90.2712ZM147.854 88.7702C148.074 88.4986 148.028 88.099 147.757 87.8838L147.332 88.35L147.736 87.8685C146.23 87.0641 146.579 89.8563 147.854 88.7753V88.7702ZM146.184 87.5047C146.666 86.8335 145.575 86.0702 145.124 86.7824C144.668 87.4535 145.733 88.1861 146.184 87.5047ZM144.422 86.3622C144.786 85.6245 143.597 85.0456 143.265 85.8141C142.916 86.5467 144.084 87.1102 144.422 86.3622ZM142.491 85.5528C142.583 85.2146 142.384 84.8714 142.045 84.7792L141.84 85.3786L142.02 84.774C140.319 84.6408 141.753 87.059 142.491 85.5579V85.5528ZM140.468 84.9841C140.775 84.2207 139.54 83.734 139.269 84.5281C138.982 85.2864 140.186 85.7526 140.468 84.9841ZM138.511 84.2156C138.613 83.8826 138.434 83.5291 138.101 83.4215L137.871 84.0107L138.081 83.4164C136.385 83.1961 137.707 85.6911 138.511 84.2156ZM136.513 83.5855C136.795 82.817 135.56 82.3661 135.304 83.1602C135.033 83.9236 136.252 84.3693 136.513 83.5855ZM134.546 82.8426C134.864 82.0792 133.629 81.5822 133.353 82.3763C133.061 83.1294 134.259 83.6059 134.546 82.8426ZM132.589 82.0895C132.707 81.7616 132.538 81.3979 132.21 81.28L131.954 81.8589L132.19 81.2749C130.505 80.9829 131.724 83.5291 132.589 82.0946V82.0895ZM130.648 81.2953C130.791 80.9777 130.648 80.6037 130.325 80.4603L130.033 81.0187L130.3 80.4449C128.64 80.0658 129.7 82.6632 130.648 81.2902V81.2953ZM154.273 101.204C154.918 100.671 154.032 99.6929 153.427 100.267C152.818 100.805 153.678 101.742 154.273 101.204Z" fill="#FDD3FF"/>
<path d="M125.265 105.502C124.455 100.446 118.559 99.0319 116.582 94.8462C115.061 97.3361 114.287 100.22 113.288 102.972C110.671 108.407 115.788 112.398 119.22 115.857C119.328 115.913 124.122 113.49 124.086 113.976C125.92 111.65 125.93 108.269 125.259 105.502H125.265Z" fill="#703EFC"/>
<path d="M122.836 105.646C121.832 103.002 118.851 102.003 117.601 99.6567C116.551 101.824 115.321 104.298 115.321 106.763C115.588 108.715 117.59 109.539 118.359 111.204C118.866 112.116 120.536 114.939 121.637 113.536C122.549 111.128 123.866 108.197 122.836 105.651V105.646Z" fill="#FDD3FF"/>
<path d="M120.823 106.302C120.382 105.144 119.076 104.703 118.528 103.673C117.411 106.117 116.93 106.655 118.861 108.74C119.102 109.16 119.778 110.359 120.295 109.76C120.695 108.704 121.274 107.418 120.823 106.302Z" fill="#E0CC4E"/>
<path d="M116.166 115.984C115.475 116.051 115.541 114.939 116.223 115.103C116.699 115.211 116.648 115.949 116.166 115.984ZM115.265 114.939C115.951 113.976 113.969 113.894 114.619 114.909L114.957 114.617L114.635 114.924C114.804 115.103 115.091 115.108 115.265 114.939ZM114.21 113.853C114.66 113.469 114.03 112.762 113.595 113.162C113.16 113.546 113.779 114.237 114.21 113.853ZM113.206 112.7C113.631 112.321 113.026 111.63 112.601 112.024C112.161 112.408 112.78 113.105 113.206 112.7ZM112.243 111.532C112.76 111.292 112.391 110.457 111.864 110.708C111.326 110.943 111.72 111.799 112.243 111.532ZM111.679 110.129C112.222 109.939 111.93 109.073 111.382 109.273C110.829 109.457 111.136 110.344 111.679 110.129ZM111.177 108.715C112.237 108.207 110.552 107.173 110.624 108.371L111.064 108.284L110.634 108.397C110.696 108.638 110.947 108.776 111.182 108.715H111.177ZM110.813 107.249C111.925 106.845 110.342 105.651 110.301 106.855L110.747 106.809L110.306 106.881C110.342 107.126 110.578 107.29 110.819 107.254L110.813 107.249ZM111.064 105.277C111.08 104.672 110.132 104.693 110.173 105.297C110.173 105.881 111.08 105.856 111.064 105.277ZM111.254 103.904C111.428 103.325 110.501 103.1 110.388 103.694C110.24 104.247 111.111 104.457 111.254 103.904ZM111.684 102.505L111.695 102.48C111.894 101.937 111.039 101.634 110.854 102.182L111.264 102.357L110.844 102.208C110.644 102.751 111.5 103.059 111.684 102.505ZM112.232 101.117C112.494 100.569 111.613 100.2 111.408 100.768L111.817 100.953L111.403 100.789C111.182 101.322 112.022 101.66 112.232 101.122V101.117ZM112.78 99.7336C113.072 99.2059 112.217 98.7858 111.981 99.3391L112.376 99.5491L111.971 99.3596C111.72 99.8822 112.545 100.266 112.78 99.7336ZM113.426 98.3708C113.728 97.8483 112.888 97.4076 112.637 97.9558L113.026 98.1762L112.627 97.9763C112.366 98.4938 113.175 98.8934 113.426 98.3708ZM114.107 97.049C114.44 96.5469 113.626 96.0602 113.339 96.593L113.718 96.8339L113.329 96.6135C113.037 97.1156 113.831 97.5613 114.107 97.049ZM114.87 95.7887C115.239 95.3174 114.471 94.7641 114.143 95.2661L114.496 95.5377L114.128 95.2866C113.795 95.7631 114.553 96.2703 114.87 95.7836V95.7887ZM115.695 94.4874C116.038 93.9904 115.239 93.4833 114.942 94.011L115.316 94.2569L114.932 94.0264C114.63 94.5182 115.408 94.9895 115.7 94.4874H115.695ZM116.335 92.9761C116.515 92.4125 115.618 92.1717 115.475 92.7404C115.301 93.2989 116.182 93.5294 116.335 92.9761ZM116.679 91.9002C117.216 91.6902 116.884 90.8397 116.346 91.0549C115.772 91.2598 116.131 92.1256 116.679 91.9002ZM127.354 111.599C127.543 111.025 126.631 110.79 126.493 111.368C126.334 111.927 127.21 112.163 127.354 111.599ZM127.692 110.108C127.82 109.519 126.888 109.381 126.811 109.97C126.714 110.539 127.61 110.682 127.692 110.108ZM127.733 108.52C127.717 107.915 126.78 108.002 126.841 108.592C126.882 109.171 127.789 109.094 127.733 108.52ZM127.579 107.044C127.564 106.44 126.626 106.527 126.688 107.116C126.729 107.695 127.636 107.618 127.579 107.044ZM126.959 106.061C127.195 105.989 127.328 105.738 127.256 105.502L126.821 105.605L127.251 105.482C126.688 104.416 125.786 106.184 126.959 106.061ZM126.55 104.631C126.785 104.555 126.913 104.304 126.836 104.068L126.401 104.175L126.826 104.042C126.237 102.997 125.382 104.775 126.544 104.631H126.55ZM126.083 103.217C126.309 103.115 126.401 102.848 126.299 102.623L125.884 102.787L126.293 102.608C125.587 101.624 124.941 103.509 126.088 103.217H126.083ZM125.417 101.896C125.93 101.619 125.479 100.794 124.972 101.107C124.475 101.388 124.921 102.188 125.417 101.896ZM124.654 100.62C125.115 100.266 124.542 99.5287 124.091 99.9078C123.64 100.266 124.209 100.989 124.654 100.62ZM123.681 99.5031C123.845 99.3186 123.824 99.0368 123.64 98.8729L123.322 99.1905L123.625 98.8626C122.585 98.2479 122.744 100.231 123.681 99.5082V99.5031ZM122.569 98.5092C123.005 98.1198 122.37 97.4282 121.95 97.8483C121.53 98.2376 122.149 98.9139 122.569 98.5092ZM121.57 97.4128C121.74 97.2335 121.735 96.9517 121.555 96.7827L121.227 97.0849L121.545 96.7724C120.536 96.1064 120.597 98.0993 121.57 97.4128ZM120.495 96.3882C120.915 95.9885 120.269 95.3174 119.86 95.7426C119.45 96.1422 120.085 96.8083 120.495 96.3882ZM119.481 95.3072C119.921 94.9229 119.291 94.221 118.866 94.6411C118.446 95.0305 119.055 95.7068 119.481 95.3072ZM118.471 94.2159C118.651 94.0468 118.656 93.7599 118.482 93.5857L118.139 93.8726L118.471 93.5755C117.488 92.8634 117.473 94.8614 118.471 94.221V94.2159ZM117.483 93.1093C117.672 92.9505 117.698 92.6687 117.539 92.4791L117.181 92.7455L117.529 92.4637C116.592 91.7055 116.458 93.6831 117.488 93.1093H117.483ZM126.288 113.115C126.867 112.977 126.606 112.081 126.042 112.255C125.489 112.408 125.74 113.269 126.288 113.115Z" fill="#FDD3FF"/>
<path d="M171.735 85.686C171.12 78.4776 162.955 75.8698 160.604 69.7629C158.201 73.1187 156.813 77.0994 155.123 80.8752C150.866 88.2681 157.669 94.4211 162.151 99.657C162.299 99.7441 169.307 96.829 169.209 97.5155C172.037 94.4262 172.401 89.6616 171.74 85.686H171.735Z" fill="#703EFC"/>
<path d="M167.934 85.2556C167.58 81.1109 162.883 79.6098 161.536 76.1003C159.943 79.1845 156.27 84.2873 158.206 87.725C158.975 89.9433 164.502 99.1292 166.3 93.714C167.765 91.178 168.451 88.1656 167.934 85.2505V85.2556Z" fill="#FDD3FF"/>
<path d="M165.142 85.527C164.983 83.6468 162.857 82.9705 162.242 81.3823C161.387 83.032 159.753 85.1581 160.89 87.0076C161.448 88.0323 162.626 90.3736 163.974 90.0406C164.947 88.852 165.393 87.0742 165.142 85.527Z" fill="#E0CC4E"/>
<path d="M157.822 99.5185C156.843 99.5441 157.054 97.9815 157.991 98.2837C158.652 98.4835 158.508 99.5185 157.822 99.5185ZM156.654 97.9507C157.725 96.6648 154.933 96.342 155.747 97.838L156.254 97.464L155.768 97.8637C155.988 98.1352 156.388 98.171 156.654 97.9507ZM155.281 96.3113C155.957 95.8195 155.138 94.7538 154.487 95.2764C153.831 95.7734 154.636 96.8134 155.281 96.3113ZM153.99 94.5797C154.631 94.0878 153.852 93.0478 153.207 93.5653C152.546 94.0571 153.35 95.1125 153.99 94.5797ZM152.751 92.8377C153.509 92.5508 153.068 91.3418 152.3 91.6338C151.521 91.9105 151.987 93.1554 152.751 92.8377ZM152.095 90.8038C152.879 90.5938 152.556 89.3386 151.762 89.564C150.963 89.7638 151.301 91.0446 152.095 90.8038ZM151.537 88.7546C153.084 88.1449 150.814 86.5208 150.794 88.2115L151.424 88.1347L150.804 88.2525C150.866 88.5957 151.204 88.8212 151.542 88.7546H151.537ZM151.178 86.6489C152.787 86.1981 150.676 84.3486 150.492 86.0392L151.122 86.0188L150.492 86.07C150.517 86.4184 150.83 86.6745 151.173 86.6489H151.178ZM151.731 83.8977C151.818 83.0524 150.476 82.9807 150.471 83.8311C150.405 84.6509 151.69 84.7123 151.731 83.8977ZM152.146 81.9765C152.443 81.2132 151.24 80.7623 150.963 81.5359C150.62 82.3147 151.865 82.7758 152.146 81.9765ZM152.894 80.0553L152.91 80.0143C153.248 79.2663 152.069 78.754 151.752 79.5071L152.315 79.7992L151.736 79.5481C151.398 80.291 152.571 80.8136 152.894 80.0553ZM153.816 78.1546C154.241 77.4117 153.043 76.7969 152.689 77.5808L153.248 77.878L152.679 77.6013C152.31 78.3339 153.463 78.8974 153.816 78.1546ZM154.733 76.259C155.199 75.5418 154.042 74.8655 153.642 75.6186L154.18 75.9516L153.627 75.6442C153.222 76.3564 154.339 76.9814 154.733 76.2539V76.259ZM155.778 74.4095C156.26 73.7076 155.122 72.9955 154.707 73.7384L155.235 74.0868L154.692 73.7691C154.267 74.4659 155.373 75.1217 155.783 74.4095H155.778ZM156.879 72.6113C157.397 71.935 156.301 71.1665 155.845 71.8889L156.352 72.2629L155.824 71.9145C155.363 72.5908 156.434 73.3029 156.879 72.6113ZM158.088 70.9104C158.662 70.2802 157.632 69.4246 157.12 70.1009L157.591 70.521L157.095 70.1316C156.577 70.7669 157.586 71.5662 158.088 70.9104ZM159.379 69.1685C159.917 68.5076 158.836 67.7083 158.365 68.4153L158.862 68.8047L158.344 68.441C157.863 69.1019 158.913 69.8447 159.379 69.1685ZM160.445 67.1038C160.747 66.3456 159.548 65.8947 159.261 66.6581C158.928 67.4266 160.158 67.8825 160.445 67.1038ZM161.034 65.6181C161.817 65.3773 161.428 64.1426 160.649 64.3936C159.82 64.6241 160.235 65.8845 161.034 65.6181ZM174.045 94.4977C174.372 93.7087 173.107 93.2835 172.851 94.0827C172.574 94.8512 173.783 95.2764 174.045 94.4977ZM174.675 92.4279C174.915 91.6133 173.614 91.3162 173.445 92.141C173.251 92.9351 174.501 93.2271 174.675 92.4279ZM174.895 90.1941C174.936 89.3437 173.604 89.3642 173.63 90.2044C173.63 91.0241 174.91 91.0139 174.895 90.1941ZM174.839 88.0988C174.88 87.2483 173.548 87.2688 173.573 88.109C173.573 88.9287 174.854 88.9185 174.839 88.0988ZM174.06 86.6438C174.398 86.5669 174.613 86.2288 174.536 85.8907L173.911 85.988L174.531 85.8599C173.85 84.2973 172.395 86.695 174.06 86.6438ZM173.635 84.5894C173.973 84.5074 174.183 84.1641 174.096 83.826L173.471 83.9336L174.086 83.785C173.363 82.2531 171.975 84.6713 173.63 84.5842L173.635 84.5894ZM173.123 82.5503C173.45 82.4274 173.609 82.0585 173.486 81.7357L172.882 81.9253L173.476 81.7152C172.585 80.2603 171.473 82.8424 173.123 82.5555V82.5503ZM172.318 80.6137C173.071 80.2756 172.518 79.0716 171.77 79.4559C171.038 79.8043 171.586 80.9724 172.318 80.6137ZM171.381 78.7386C172.067 78.2878 171.335 77.1863 170.659 77.6781C169.988 78.1341 170.71 79.21 171.381 78.7386ZM170.116 77.0583C170.367 76.8123 170.367 76.4127 170.121 76.1668L169.644 76.5818L170.105 76.1463C168.707 75.1729 168.722 77.9856 170.121 77.0583H170.116ZM168.661 75.552C169.312 75.0499 168.492 74.0048 167.857 74.553C167.227 75.0602 168.031 76.0746 168.661 75.552ZM167.36 73.8972C167.616 73.6615 167.637 73.2619 167.406 73.0058L166.909 73.4003L167.391 72.9904C166.038 71.9452 165.92 74.763 167.36 73.8972ZM165.951 72.3449C166.586 71.8223 165.741 70.8079 165.121 71.3663C164.501 71.8889 165.331 72.8879 165.951 72.3449ZM164.63 70.7157C165.285 70.2188 164.476 69.1633 163.83 69.7115C163.2 70.2136 163.989 71.2331 164.63 70.7157ZM163.323 69.0762C163.59 68.8559 163.631 68.4563 163.405 68.1848L162.893 68.5537L163.39 68.1643C162.079 67.0628 161.848 69.8755 163.318 69.0711L163.323 69.0762ZM162.048 67.4061C162.33 67.2011 162.396 66.8067 162.191 66.5249L161.653 66.863L162.171 66.5044C160.931 65.3363 160.532 68.1131 162.048 67.4112V67.4061ZM172.39 96.5214C173.22 96.3882 172.948 95.0971 172.134 95.2867C171.34 95.4455 171.601 96.6853 172.39 96.5214Z" fill="#FDD3FF"/>
<path d="M145.8 84.907C144.432 84.574 143.879 82.9243 142.522 82.4376C138.301 80.1783 132.215 79.9477 129.849 75.2087C129.147 74.0099 129.562 70.5773 131.447 71.6378C132.082 72.6113 132.871 73.4258 133.516 74.3839C133.942 75.3266 134.577 76.2488 135.627 76.5254C135.945 76.4127 135.427 75.9516 135.402 75.7159C134.746 73.8357 137.307 73.5232 138.106 74.927C138.424 75.9055 137.681 76.9711 137.988 77.9599C138.239 78.5952 139.11 78.3851 139.653 78.4056C142.885 78.8616 143.715 83.0319 145.805 84.9121L145.8 84.907Z" fill="#D9DB83"/>
<path d="M125.484 97.4744C125.797 96.1013 124.572 94.8666 124.736 93.4373C124.603 88.6522 127.113 83.1037 123.932 78.8668C123.174 77.7038 119.916 76.5409 120.024 78.7029C120.608 79.707 120.987 80.7778 121.555 81.7819C122.206 82.5863 122.749 83.5648 122.529 84.6253C122.283 84.861 122.109 84.1898 121.904 84.0617C120.515 82.6324 119.091 84.7841 119.988 86.1264C120.725 86.8488 122.006 86.6592 122.754 87.3713C123.21 87.8785 122.631 88.5651 122.406 89.0569C121.371 92.1513 124.726 94.7591 125.479 97.4641L125.484 97.4744Z" fill="#D9DB83"/>
<path d="M149.38 79.9172C150.379 78.9284 150 77.2275 150.906 76.1055C153.35 71.9916 158.436 68.6461 158.011 63.3589C157.996 61.9705 155.86 59.2501 154.799 61.1303C154.758 62.2882 154.502 63.3948 154.451 64.5527C154.574 65.5773 154.507 66.6993 153.754 67.478C153.421 67.5446 153.632 66.8837 153.529 66.6686C153.16 64.7422 150.722 65.7873 150.809 67.3909C151.045 68.395 152.233 68.9176 152.479 69.9218C152.597 70.5981 151.736 70.8696 151.285 71.1616C148.76 73.2263 150.205 77.2224 149.39 79.9121L149.38 79.9172Z" fill="#D9DB83"/>
<path d="M133.639 69.9474C132.61 71.136 134.551 72.9035 135.673 71.7867C136.544 70.5776 135.022 68.682 133.639 69.9474Z" fill="#D9DB83"/>
<path d="M139.089 72.8418C137.901 73.8511 139.883 76.095 140.697 74.3788C141.025 73.431 140.277 72.0579 139.089 72.8418Z" fill="#D9DB83"/>
<path d="M152.572 60.7971C151.107 60.2233 150.088 62.6364 151.512 63.328C152.941 63.743 154.221 61.6834 152.572 60.7971Z" fill="#D9DB83"/>
<path d="M150.103 67.9185C148.755 67.1346 147.301 69.7526 149.191 69.9473C150.19 69.9371 151.24 68.7792 150.103 67.9185Z" fill="#D9DB83"/>
<path d="M117.385 79.5841C115.864 79.9837 116.468 82.535 118.026 82.2533C119.424 81.7461 119.245 79.3228 117.385 79.5841Z" fill="#D9DB83"/>
<path d="M119.599 86.7874C118.052 86.9513 118.416 89.9228 120.06 88.9647C120.865 88.3653 121.023 86.813 119.599 86.7874Z" fill="#D9DB83"/>
<path d="M118.825 69.8091C118.149 74.2817 124.255 75.2807 126.279 78.3546C125.843 75.4702 126.565 72.2323 124.772 69.6349C123.804 67.3704 120.347 67.9442 119.015 69.5324C119.035 69.5888 119.076 69.6144 118.825 69.8091Z" fill="#FF97FF"/>
<path d="M148.171 57.0061C149.242 59.4397 148.699 62.0935 148.453 64.6448C149.549 62.9798 150.758 61.1764 151.485 59.2911C151.921 58.0564 151.88 56.4733 151.101 55.3872C150.287 55.1156 148.683 56.335 148.166 57.0113L148.171 57.0061Z" fill="#FF97FF"/>
<path d="M131.468 62.6006C131.252 62.621 130.93 62.7901 131.022 63.0207C131.022 66.817 135.478 68.7638 138.767 68.7536C138.07 67.3344 136.503 66.6121 135.56 65.3722C133.65 62.6621 136.144 60.1773 131.468 62.6006Z" fill="#FF97FF"/>
<path d="M146.461 75.5112C145.431 72.9957 147.562 72.7293 148.53 75.0091C149.257 76.7356 146.609 77.4631 146.548 79.1026C146.471 81.1365 146.691 84.1079 148.812 85.0147C147.393 83.4931 147.014 81.7717 148.023 79.8812C148.581 77.7756 149.744 75.3934 148.991 73.216C148.325 72.1708 146.297 72.2425 145.615 73.2364C145.18 74.1023 145.072 75.6649 146.466 75.5163L146.461 75.5112Z" fill="#FF97FF"/>
<path d="M139.484 70.183C140.826 71.3357 142.517 73.1647 142.399 75.05C141.943 75.7621 141.349 76.5255 141.175 77.3862C141.211 78.3237 142.281 79.0717 143.08 79.3894C144.32 79.5226 145.693 77.8729 144.643 76.8329C143.521 76.09 143.377 77.8114 142.624 77.5502C141.769 76.5767 143.68 75.5726 143.71 74.5992C143.531 73.4823 140.627 68.7126 139.484 70.1881V70.183Z" fill="#FF97FF"/>
</g>
<path d="M129.234 113.843H125.448C125.448 95.2971 140.534 80.2092 159.077 80.2092C171.268 80.2092 182.532 86.8336 188.469 97.495L185.16 99.3394C179.889 89.8768 169.896 84.0004 159.077 84.0004C142.624 84.0004 129.239 97.3874 129.239 113.843H129.234Z" fill="#EFF283"/>
<path d="M127.61 46.3242C127.61 46.3242 143.002 39.7306 167.821 42.369L170.208 4.26762C170.208 4.26762 159.195 4.28303 156.008 1.61383C156.008 1.61383 147.172 3.14054 143.361 0C143.361 0 132.65 3.48893 128.936 1.61383C128.936 1.61383 120.843 5.37424 117.124 4.26762L127.61 46.3293V46.3242Z" fill="#F761E8"/>
<mask id="mask5_70_12333" style="mask-type:luminance" maskUnits="userSpaceOnUse" x="117" y="0" width="54" height="47">
<path d="M127.61 46.3242C127.61 46.3242 143.002 39.7306 167.821 42.369L170.208 4.26762C170.208 4.26762 159.195 4.28303 156.008 1.61383C156.008 1.61383 147.172 3.14054 143.361 0C143.361 0 132.65 3.48893 128.936 1.61383C128.936 1.61383 120.843 5.37424 117.124 4.26762L127.61 46.3293V46.3242Z" fill="white"/>
</mask>
<g mask="url(#mask5_70_12333)">
<path d="M127.61 46.3239C127.61 46.3239 143.002 39.7303 167.821 42.3688L170.208 4.26738C170.208 4.26738 159.195 4.28278 156.008 1.61358C156.008 1.61358 147.172 3.14029 143.361 -0.000244141C143.361 -0.000244141 132.65 3.48868 128.936 1.61358C128.936 1.61358 120.843 5.37399 117.124 4.26738L127.61 46.329V46.3239Z" fill="#CD6AAD"/>
<path d="M150.092 -0.54331C147.623 4.27764 153.821 5.44064 151.208 18.7559C152.525 12.0342 156.233 12.485 160.377 7.44891C162.898 4.88217 162.677 -0.384478 158.451 -0.850691C155.767 -0.804582 152.776 -1.86506 150.251 -0.82505C150.307 -0.753325 150.23 -0.722628 150.092 -0.548439V-0.54331Z" fill="#FF97FF"/>
<path d="M145.446 32.9883C145.005 25.7645 136.907 22.9621 134.709 16.7988C132.225 20.0931 130.74 24.038 128.957 27.7728C124.521 35.058 131.17 41.3749 135.519 46.7185C135.662 46.8107 142.741 44.0698 142.629 44.746C145.533 41.7285 146.015 36.9741 145.451 32.9831L145.446 32.9883Z" fill="#703EFC"/>
<path d="M142.009 32.8551C140.964 28.9974 136.902 27.1786 135.473 23.7051C133.696 26.6099 131.626 29.9196 131.288 33.3829C131.391 36.1648 134.095 37.6043 134.945 40.0532C135.529 41.4058 137.491 45.6068 139.233 43.783C140.852 40.5246 143.1 36.5797 142.009 32.8551Z" fill="#FDD3FF"/>
<path d="M139.089 33.5005C138.633 31.8099 136.85 31.0106 136.225 29.489C134.315 32.773 133.567 33.4595 135.995 36.6615C136.277 37.2866 137.06 39.0644 137.875 38.2959C138.582 36.8665 139.57 35.1349 139.094 33.5057L139.089 33.5005Z" fill="#E0CC4E"/>
<path d="M131.201 46.4777C130.223 46.4777 130.469 44.9254 131.401 45.2481C132.057 45.4633 131.887 46.4982 131.201 46.4777ZM130.074 44.8844C131.175 43.6241 128.394 43.2347 129.167 44.7512L129.685 44.3875L129.188 44.7768C129.403 45.0535 129.803 45.0996 130.074 44.8895V44.8844ZM128.742 43.2091C129.429 42.7326 128.64 41.6465 127.974 42.1537C127.308 42.6302 128.087 43.6958 128.742 43.2091ZM127.492 41.4467C128.148 40.9703 127.39 39.9149 126.734 40.4118C126.063 40.8883 126.842 41.959 127.492 41.4467ZM126.294 39.6689C127.057 39.4025 126.647 38.1781 125.874 38.4547C125.085 38.7109 125.52 39.9712 126.294 39.6689ZM125.694 37.6196C126.483 37.4301 126.191 36.1647 125.392 36.3696C124.588 36.5489 124.895 37.8399 125.694 37.6196ZM125.182 35.5652C126.745 34.9965 124.516 33.311 124.45 35.0068L125.08 34.9453L124.455 35.0478C124.511 35.3962 124.844 35.6267 125.177 35.5703L125.182 35.5652ZM124.88 33.4443C126.499 33.0293 124.434 31.1336 124.209 32.8192H124.839L124.209 32.8499C124.229 33.1983 124.532 33.4647 124.875 33.4443H124.88ZM125.5 30.7084C125.607 29.8631 124.27 29.7606 124.24 30.6111C124.153 31.4308 125.433 31.523 125.5 30.7084ZM125.961 28.8026C126.289 28.0085 125.013 27.5628 124.767 28.3825C124.481 29.1459 125.679 29.5557 125.961 28.8026ZM126.755 26.8968L126.77 26.8609C127.129 26.1231 125.961 25.5801 125.628 26.3281L126.181 26.6355L125.607 26.3691C125.249 27.1068 126.412 27.655 126.75 26.9019L126.755 26.8968ZM127.723 25.0165C128.169 24.2839 126.98 23.6384 126.611 24.412L127.16 24.7245L126.601 24.4325C126.217 25.1548 127.354 25.7491 127.723 25.0114V25.0165ZM128.686 23.1465C129.167 22.4446 128.025 21.7326 127.615 22.4805L128.143 22.8289L127.6 22.5112C127.175 23.2131 128.281 23.8638 128.691 23.1517L128.686 23.1465ZM129.772 21.3227C130.269 20.6311 129.152 19.8933 128.717 20.6259L129.234 20.9897L128.696 20.6566C128.256 21.3432 129.342 22.0246 129.767 21.3227H129.772ZM130.919 19.5551C131.452 18.8942 130.376 18.095 129.905 18.8072L130.402 19.1965L129.885 18.8379C129.408 19.504 130.458 20.2417 130.919 19.5603V19.5551ZM132.169 17.885C132.758 17.2702 131.749 16.389 131.222 17.0499L131.683 17.4803L131.196 17.0755C130.663 17.7005 131.657 18.5203 132.169 17.8799V17.885ZM133.506 16.1738C134.059 15.5232 132.999 14.6983 132.507 15.3951L132.994 15.7947L132.487 15.4207C131.99 16.0714 133.019 16.8398 133.501 16.1738H133.506ZM134.618 14.1348C134.946 13.3663 133.721 12.9052 133.44 13.6839C133.122 14.4422 134.326 14.893 134.618 14.1348ZM135.243 12.6644C136.032 12.4441 135.673 11.1992 134.889 11.4297C134.054 11.6398 134.438 12.9052 135.243 12.6644ZM147.542 41.8514C147.89 41.0727 146.635 40.6167 146.358 41.4108C146.061 42.1691 147.26 42.6301 147.542 41.8514ZM148.223 39.8021C148.484 38.9927 147.193 38.6648 146.999 39.4896C146.783 40.2786 148.023 40.6014 148.223 39.8021ZM148.499 37.5735C148.561 36.7231 147.229 36.7128 147.239 37.553C147.214 38.3727 148.499 38.3933 148.499 37.5735ZM148.494 35.4782C148.556 34.6277 147.224 34.6174 147.234 35.4576C147.209 36.2774 148.494 36.2979 148.494 35.4782ZM147.752 34.0027C148.095 33.9361 148.315 33.603 148.248 33.2598L147.624 33.3418L148.243 33.2291C147.603 31.6511 146.087 34.0129 147.752 34.0027ZM147.378 31.938C147.721 31.8611 147.936 31.5281 147.859 31.1849L147.234 31.2771L147.854 31.1439C147.168 29.5915 145.723 31.9739 147.378 31.9329V31.938ZM146.917 29.8887C147.245 29.7709 147.419 29.4123 147.301 29.0844L146.691 29.2586L147.291 29.0639C146.435 27.5833 145.262 30.1449 146.917 29.8938V29.8887ZM146.158 27.9317C146.922 27.614 146.394 26.3947 145.636 26.7584C144.898 27.0863 145.416 28.2749 146.158 27.9317ZM145.267 26.036C145.964 25.6006 145.262 24.4837 144.571 24.9602C143.889 25.4008 144.586 26.492 145.267 26.036ZM144.043 24.3249C144.299 24.0841 144.309 23.6845 144.074 23.4335L143.587 23.8331L144.058 23.4129C142.68 22.4088 142.634 25.2163 144.048 24.3249H144.043ZM142.624 22.7828C143.285 22.2961 142.491 21.2356 141.845 21.7633C141.205 22.2551 141.979 23.29 142.624 22.7828ZM141.364 21.0972C141.63 20.8718 141.656 20.4722 141.43 20.2058L140.923 20.5849L141.415 20.1905C140.089 19.1095 139.904 21.9272 141.364 21.0972ZM139.996 19.509C140.642 19.0018 139.827 17.967 139.192 18.51C138.557 19.0172 139.366 20.0367 139.996 19.509ZM138.716 17.8491C139.387 17.3675 138.598 16.2968 137.942 16.8245C137.302 17.3112 138.065 18.3461 138.716 17.8491ZM137.445 16.1738C137.717 15.9586 137.768 15.559 137.548 15.2875L137.025 15.6461L137.532 15.2721C136.252 14.1399 135.95 16.9423 137.44 16.179L137.445 16.1738ZM136.216 14.4781C136.503 14.2834 136.575 13.8889 136.38 13.602L135.837 13.9247L136.364 13.5764C135.156 12.3775 134.689 15.1441 136.216 14.4781ZM145.836 43.8392C146.666 43.7265 146.43 42.4253 145.61 42.5943C144.811 42.7326 145.047 43.9827 145.836 43.8392Z" fill="#FDD3FF"/>
<path d="M168.845 39.8277C172.113 33.3724 166.54 26.8608 167.749 20.4312C163.943 22.0194 160.665 24.6732 157.243 26.9991C149.739 31.0464 152.284 39.8584 153.34 46.6672C153.417 46.8209 160.916 48.03 160.47 48.5577C164.496 47.4203 167.314 43.5574 168.845 39.8277Z" fill="#703EFC"/>
<path d="M165.843 37.4609C167.723 33.7517 164.516 30.0066 165.213 26.3076C162.237 28.0905 156.428 30.4984 156.269 34.4433C155.757 36.7385 155.629 47.4512 160.004 43.7983C162.58 42.4099 164.752 40.2121 165.843 37.4609Z" fill="#FDD3FF"/>
<path d="M163.323 36.2209C164.173 34.5405 162.724 32.8447 163.036 31.1694C161.438 32.1224 158.933 33.0752 158.928 35.2424C158.862 36.4105 158.636 39.0182 159.953 39.4435C161.407 38.9465 162.724 37.6657 163.323 36.2209Z" fill="#E0CC4E"/>
<path d="M149.744 44.2746C148.898 43.7776 149.897 42.5634 150.538 43.3114C150.999 43.8289 150.327 44.6332 149.744 44.2746ZM149.569 42.3278C151.152 41.795 148.955 40.0531 148.857 41.754L149.487 41.7028L148.862 41.7847C148.909 42.1331 149.226 42.3739 149.569 42.3278ZM149.267 40.2119C150.097 40.1504 149.964 38.8132 149.139 38.9157C148.32 38.9926 148.458 40.3041 149.267 40.2119ZM149.078 38.0601C149.882 37.9781 149.764 36.6871 148.945 36.7844C148.125 36.8562 148.253 38.1728 149.078 38.0601ZM148.939 35.9186C149.733 36.0723 150 34.812 149.185 34.6583C148.376 34.4842 148.115 35.7854 148.939 35.9186ZM149.457 33.8488C150.23 34.0845 150.62 32.8447 149.826 32.6193C149.042 32.3682 148.658 33.6388 149.457 33.8488ZM150.056 31.8149C151.69 32.1121 150.62 29.5351 149.708 30.9645L150.281 31.2309L149.692 31.0055C149.564 31.3334 149.733 31.7022 150.056 31.8201V31.8149ZM150.86 29.8322C152.464 30.2933 151.644 27.6139 150.599 28.9562L151.147 29.2738L150.584 28.9869C150.425 29.2994 150.553 29.6786 150.86 29.8374V29.8322ZM152.776 27.783C153.293 27.1067 152.192 26.3433 151.736 27.0657C151.25 27.7266 152.31 28.4541 152.776 27.783ZM154.139 26.3689C154.794 25.8771 154.005 24.8576 153.365 25.3699C152.663 25.8515 153.483 26.8966 154.139 26.3689ZM155.788 25.1291L155.824 25.1035C156.505 24.6476 155.773 23.587 155.107 24.0635L155.429 24.6066L155.071 24.0891C154.39 24.5451 155.117 25.6004 155.788 25.1291ZM157.571 23.9918C158.324 23.5819 157.627 22.4292 156.915 22.9108L157.233 23.4589L156.895 22.9262C156.198 23.3514 156.879 24.4426 157.571 23.9918ZM159.348 22.8647C160.116 22.5009 159.492 21.3123 158.759 21.7478L159.041 22.3165L158.733 21.7683C158.016 22.1577 158.641 23.2797 159.353 22.8698L159.348 22.8647ZM161.208 21.84C161.986 21.4968 161.392 20.2928 160.649 20.7078L160.916 21.2816L160.619 20.7231C159.891 21.0971 160.485 22.2345 161.208 21.84ZM163.087 20.8922C163.881 20.59 163.354 19.3604 162.591 19.7293L162.826 20.3184L162.56 19.7446C161.812 20.0776 162.35 21.2458 163.087 20.8922ZM165.008 20.0827C165.823 19.8471 165.403 18.5765 164.609 18.8839L164.788 19.4884L164.573 18.8942C163.8 19.1657 164.24 20.3696 165.008 20.0827ZM167.027 19.2784C167.831 18.9966 167.334 17.7517 166.56 18.1052L166.781 18.6995L166.535 18.1206C165.777 18.4331 166.279 19.6166 167.032 19.2835L167.027 19.2784ZM169.019 18.0795C169.68 17.5928 168.891 16.5785 168.246 17.0805C167.554 17.557 168.364 18.597 169.019 18.0795ZM170.3 17.1318C171.089 17.3418 171.411 16.0867 170.617 15.8868C169.793 15.6461 169.48 16.932 170.3 17.1318ZM166.176 48.532C166.868 48.0351 166.017 47.0053 165.377 47.5535C164.737 48.0607 165.541 49.0597 166.176 48.532ZM167.805 47.1077C168.44 46.5391 167.488 45.6066 166.909 46.2163C166.325 46.7901 167.231 47.6969 167.805 47.1077ZM169.168 45.3249C169.649 44.623 168.507 43.9416 168.087 44.6691C167.652 45.3658 168.753 46.0319 169.168 45.3249ZM170.223 43.5061C170.705 42.8042 169.562 42.1229 169.142 42.8504C168.707 43.5471 169.808 44.2131 170.223 43.5061ZM170.32 41.8616C170.648 41.9743 171.012 41.8001 171.125 41.4722L170.541 41.2263L171.135 41.4415C171.375 39.756 168.876 41.0265 170.32 41.8616ZM171.043 39.8943C171.376 40.0019 171.729 39.8225 171.837 39.4895L171.248 39.2539L171.847 39.4537C172.036 37.7681 169.588 39.095 171.037 39.8943H171.043ZM171.678 37.8911C172.021 37.9577 172.349 37.7323 172.415 37.389L171.806 37.2302L172.42 37.3634C172.426 35.6522 170.126 37.2712 171.678 37.8911ZM172.016 35.8213C172.835 35.9289 172.994 34.6122 172.159 34.5456C171.355 34.4585 171.201 35.7393 172.016 35.8213ZM172.2 33.731C173.02 33.7105 172.979 32.3887 172.144 32.4502C171.335 32.4861 171.381 33.7822 172.2 33.731ZM172.011 31.6408C172.349 31.5639 172.564 31.2258 172.487 30.8825L171.862 30.985L172.482 30.8569C171.801 29.2943 170.341 31.692 172.011 31.6408ZM171.56 29.5863C172.38 29.4992 172.231 28.1826 171.401 28.3107C170.597 28.4131 170.745 29.6991 171.56 29.5863ZM171.324 27.5012C171.668 27.4397 171.893 27.1118 171.831 26.7686L171.201 26.8403L171.826 26.7481C171.222 25.1445 169.644 27.4807 171.324 27.5063V27.5012ZM170.945 25.4365C171.755 25.329 171.575 24.0225 170.756 24.1659C169.951 24.2838 170.136 25.5697 170.945 25.4365ZM170.679 23.3565C171.498 23.2796 171.36 21.9579 170.53 22.0808C169.731 22.1782 169.87 23.459 170.679 23.3565ZM170.428 21.2714C170.771 21.2253 171.012 20.9025 170.966 20.5592L170.336 20.6053L170.966 20.5387C170.433 18.9095 168.753 21.1791 170.428 21.2714ZM170.223 19.1862C170.571 19.1606 170.833 18.8583 170.807 18.5099H170.177L170.807 18.4792C170.366 16.8346 168.569 18.9864 170.223 19.1862ZM163.707 49.3876C164.481 49.7104 164.932 48.4654 164.143 48.199C163.379 47.9172 162.954 49.111 163.707 49.3876Z" fill="#FDD3FF"/>
<path d="M147.203 25.5185C146.214 24.5195 146.609 22.8186 145.712 21.6915C143.31 17.5519 138.259 14.1552 138.736 8.87318C138.766 7.48478 140.928 4.78483 141.973 6.68042C142.004 7.83827 142.245 8.95004 142.291 10.1079C142.157 11.1325 142.209 12.2494 142.956 13.0384C143.289 13.1101 143.085 12.4492 143.192 12.234C143.622 10.2872 145.963 11.3682 145.907 12.9871C145.661 13.9862 144.468 14.4985 144.212 15.5027C144.089 16.1738 144.944 16.4556 145.395 16.7578C147.9 18.843 146.419 22.8288 147.203 25.5288V25.5185Z" fill="#D9DB83"/>
<path d="M123.312 25.5185C124.301 24.5195 123.907 22.8186 124.803 21.6915C127.205 17.5519 132.256 14.1552 131.78 8.87318C131.749 7.48478 129.587 4.78483 128.542 6.68042C128.512 7.83827 128.271 8.95004 128.225 10.1079C128.358 11.1325 128.307 12.2494 127.559 13.0384C127.226 13.1101 127.431 12.4492 127.323 12.234C126.893 10.2872 124.552 11.3682 124.608 12.9871C124.854 13.9862 126.048 14.4985 126.304 15.5027C126.427 16.1738 125.572 16.4556 125.121 16.7578C122.616 18.843 124.096 22.8288 123.312 25.5288V25.5185Z" fill="#D9DB83"/>
<path d="M152.874 23.1619C154.242 22.8442 154.815 21.1997 156.178 20.7232C160.419 18.5048 166.505 18.3409 168.923 13.6173C169.64 12.4287 169.256 8.99102 167.36 10.031C166.715 10.9942 165.916 11.8037 165.265 12.7566C164.83 13.6942 164.189 14.6112 163.134 14.8776C162.817 14.7598 163.339 14.3089 163.365 14.0733C164.061 12.2392 161.439 11.8498 160.67 13.2587C160.342 14.2372 161.075 15.3079 160.757 16.2916C160.501 16.9269 159.631 16.7066 159.088 16.722C155.855 17.1472 154.979 21.3073 152.874 23.167V23.1619Z" fill="#D9DB83"/>
<path d="M144.723 6.40387C143.223 6.87521 143.945 9.39585 145.487 9.04235C146.86 8.47367 146.568 6.06062 144.723 6.40387Z" fill="#D9DB83"/>
<path d="M147.839 11.7269C146.297 11.9625 146.804 14.9135 148.402 13.8786C149.176 13.2433 149.263 11.6859 147.839 11.7269Z" fill="#D9DB83"/>
<path d="M165.639 8.57607C164.697 7.31575 162.561 8.83735 163.406 10.1745C164.4 11.2811 166.576 10.2001 165.639 8.57607Z" fill="#D9DB83"/>
<path d="M159.795 13.3355C159.062 11.9624 156.444 13.4174 157.95 14.5804C158.806 15.0978 160.307 14.6624 159.795 13.3355Z" fill="#D9DB83"/>
<path d="M125.832 6.04503C124.326 5.58907 123.496 8.07387 124.972 8.6528C126.426 8.96019 127.548 6.80327 125.832 6.04503Z" fill="#D9DB83"/>
<path d="M123.927 13.3355C122.523 12.6592 121.273 15.3796 123.174 15.4309C124.173 15.3438 125.125 14.104 123.927 13.3355Z" fill="#D9DB83"/>
<path d="M132.194 -1.51167C129.264 1.93626 133.935 5.9939 134.038 9.6775C135.185 6.99805 137.501 4.62086 137.342 1.46495C137.711 -0.968578 134.468 -2.30059 132.501 -1.64994C132.491 -1.59359 132.511 -1.54753 132.194 -1.51167Z" fill="#FF97FF"/>
<path d="M163.886 3.03783C163.518 5.67117 161.658 7.64366 160.111 9.6827C161.92 8.84249 163.897 7.94592 165.51 6.72146C166.53 5.90175 167.329 4.53385 167.242 3.20181C166.694 2.54092 164.691 2.73556 163.892 3.03783H163.886Z" fill="#FF97FF"/>
<path d="M146.738 -0.988887C146.543 -1.0811 146.185 -1.11185 146.138 -0.865934C144.146 2.36682 146.907 6.36298 149.709 8.08438C149.862 6.51155 148.91 5.07191 148.761 3.51958C148.561 0.209973 151.988 -0.594403 146.738 -0.994015V-0.988887Z" fill="#FF97FF"/>
<path d="M138.459 -1.36286C139.647 1.16801 138.346 3.68864 137.275 5.93774C139.77 4.65181 142.72 1.79815 141.855 -1.32189C141.532 -2.30043 138.505 -2.58217 138.018 -1.79319C138.095 -1.7727 138.146 -1.82908 138.464 -1.36799L138.459 -1.36286Z" fill="#FF97FF"/>
<path d="M128.619 -0.466342C127.266 1.80325 129.792 5.49195 131.81 6.68566C131.825 5.84033 131.246 5.05139 131.042 4.23168C130.048 2.55638 132.23 -0.102578 130.504 -1.21944C129.894 -1.34752 128.813 -1.80349 128.567 -0.968408C128.506 -0.865944 128.342 -0.73275 128.624 -0.466342H128.619Z" fill="#FF97FF"/>
<path d="M119.521 1.92099C119.347 4.02663 121.166 5.96835 122.41 7.50532C123.86 6.19377 124.439 4.23154 124.68 2.34619C124.05 0.35326 120.992 0.824599 119.521 1.64432C119.557 1.69042 119.608 1.68532 119.521 1.92099Z" fill="#FF97FF"/>
<path d="M152.705 17.8799C153.155 15.1953 155.107 16.0918 154.728 18.5407C154.441 20.3953 151.803 19.6166 150.886 20.9794C149.749 22.6649 148.376 25.3085 149.703 27.199C149.298 25.1599 149.882 23.4949 151.737 22.419C153.319 20.923 155.563 19.5039 156.065 17.2548C156.05 16.015 154.288 15.0108 153.181 15.4924C152.356 16.0047 151.445 17.2753 152.705 17.8799Z" fill="#FF97FF"/>
<path d="M149.57 9.67764C150.108 11.3632 150.584 13.8069 149.493 15.349C148.73 15.7179 147.823 16.0509 147.224 16.6913C146.763 17.5059 147.28 18.7047 147.792 19.3964C148.776 20.1597 150.815 19.4783 150.466 18.0387C149.903 16.8143 148.878 18.2027 148.371 17.5879C148.156 16.3071 150.307 16.4607 150.85 15.6513C151.286 14.6061 151.322 9.02186 149.575 9.67764H149.57Z" fill="#FF97FF"/>
<g opacity="0.41" style="mix-blend-mode:multiply">
<path d="M167.539 -0.000128031L159.728 32.6758L123.087 40.9037L125.443 52.226L173.394 47.3948L177.902 -1.87012L167.539 -0.000128031Z" fill="#CD6A99"/>
</g>
</g>
<path d="M26.0632 115.16L25.6431 115.145C25.848 108.392 25.6585 101.973 25.4229 96.0451C25.1668 89.6308 25.7456 84.5743 27.2362 80.1324C29.4286 73.6208 33.1526 70.1728 38.6182 69.5888C40.6928 69.3634 45.2876 71.0541 47.4903 73.2622C48.4687 74.2458 48.9143 75.2295 48.8067 76.1926L48.3867 76.1465C48.4789 75.3166 48.0742 74.4456 47.1881 73.5593C45.0571 71.4229 40.6467 69.7989 38.6592 70.0038C33.3729 70.5674 29.7616 73.9231 27.6306 80.2605C26.1554 84.6511 25.5817 89.6616 25.8378 96.0195C26.0734 101.957 26.263 108.382 26.0581 115.145L26.0632 115.16Z" fill="black"/>
<path d="M26.8892 113.441L26.748 114.27L56.3743 119.319L56.5154 118.49L26.8892 113.441Z" fill="#EFF283"/>
<path d="M29.485 113.843C29.485 115.319 28.2915 116.512 26.8163 116.512C25.341 116.512 24.1475 115.319 24.1475 113.843C24.1475 112.368 25.341 111.174 26.8163 111.174C28.2915 111.174 29.485 112.368 29.485 113.843Z" fill="#4349CE"/>
<path d="M58.0212 62.5239L57.4834 65.5569L67.7385 66.8787L68.2353 63.815L58.0212 62.5239Z" fill="#BD4B89"/>
<path d="M162.743 117.517C164.772 115.489 164.771 112.199 162.743 110.171C160.715 108.142 157.426 108.142 155.397 110.171C153.369 112.199 153.369 115.489 155.397 117.517C157.426 119.546 160.715 119.546 162.743 117.517Z" fill="black"/>
<path d="M162.483 113.843C162.483 115.729 160.957 117.255 159.072 117.255C157.187 117.255 155.66 115.729 155.66 113.843C155.66 111.958 157.187 110.431 159.072 110.431C160.957 110.431 162.483 111.958 162.483 113.843Z" fill="#152D71"/>
<path d="M129.388 1.45223L128.558 1.58032L133.241 31.9401L134.071 31.812L129.388 1.45223Z" fill="#F0C7DB"/>
<path d="M143.752 0.0479689L142.912 0.0786133L144.017 30.3675L144.857 30.3368L143.752 0.0479689Z" fill="#F0C7DB"/>
<path d="M156.434 1.61401H155.594V28.4802H156.434V1.61401Z" fill="#F0C7DB"/>
<path d="M51.4649 82.1305C51.4649 82.5762 51.1063 82.9349 50.6606 82.9349C50.215 82.9349 49.8564 82.5762 49.8564 82.1305C49.8564 81.6848 50.215 81.3262 50.6606 81.3262C51.1063 81.3262 51.4649 81.6848 51.4649 82.1305Z" fill="#5EC8F0"/>
<path d="M53.3809 81.977C53.3809 82.4227 53.0223 82.7813 52.5767 82.7813C52.131 82.7813 51.7725 82.4227 51.7725 81.977C51.7725 81.5313 52.131 81.1726 52.5767 81.1726C53.0223 81.1726 53.3809 81.5313 53.3809 81.977Z" fill="#5EC8F0"/>
<path d="M55.292 81.8231C55.292 82.2688 54.9335 82.6275 54.4878 82.6275C54.0422 82.6275 53.6836 82.2688 53.6836 81.8231C53.6836 81.3774 54.0422 81.0188 54.4878 81.0188C54.9335 81.0188 55.292 81.3774 55.292 81.8231Z" fill="#5EC8F0"/>
<path d="M57.2012 81.6747C57.2012 82.1204 56.8427 82.4791 56.397 82.4791C55.9514 82.4791 55.5928 82.1204 55.5928 81.6747C55.5928 81.229 55.9514 80.8704 56.397 80.8704C56.8427 80.8704 57.2012 81.229 57.2012 81.6747Z" fill="#5EC8F0"/>
<path d="M59.1123 81.5209C59.1123 81.9667 58.7537 82.3253 58.3081 82.3253C57.8624 82.3253 57.5039 81.9667 57.5039 81.5209C57.5039 81.0752 57.8624 80.7166 58.3081 80.7166C58.7537 80.7166 59.1123 81.0752 59.1123 81.5209Z" fill="#5EC8F0"/>
<path d="M61.0283 81.3673C61.0283 81.813 60.6698 82.1717 60.2241 82.1717C59.7785 82.1717 59.4199 81.813 59.4199 81.3673C59.4199 80.9216 59.7785 80.563 60.2241 80.563C60.6698 80.563 61.0283 80.9216 61.0283 81.3673Z" fill="#5EC8F0"/>
<path d="M62.9385 81.2136C62.9385 81.6593 62.5799 82.0179 62.1343 82.0179C61.6886 82.0179 61.3301 81.6593 61.3301 81.2136C61.3301 80.7678 61.6886 80.4092 62.1343 80.4092C62.5799 80.4092 62.9385 80.7678 62.9385 81.2136Z" fill="#5EC8F0"/>
<path d="M64.8497 81.0599C64.8497 81.5057 64.4911 81.8643 64.0454 81.8643C63.5998 81.8643 63.2412 81.5057 63.2412 81.0599C63.2412 80.6142 63.5998 80.2556 64.0454 80.2556C64.4911 80.2556 64.8497 80.6142 64.8497 81.0599Z" fill="#5EC8F0"/>
<path d="M66.7657 80.9061C66.7657 81.3518 66.4071 81.7105 65.9614 81.7105C65.5158 81.7105 65.1572 81.3518 65.1572 80.9061C65.1572 80.4604 65.5158 80.1018 65.9614 80.1018C66.4071 80.1018 66.7657 80.4604 66.7657 80.9061Z" fill="#5EC8F0"/>
<path d="M68.6768 80.7524C68.6768 81.1981 68.3183 81.5567 67.8726 81.5567C67.427 81.5567 67.0684 81.1981 67.0684 80.7524C67.0684 80.3067 67.427 79.948 67.8726 79.948C68.3183 79.948 68.6768 80.3067 68.6768 80.7524Z" fill="#5EC8F0"/>
<path d="M70.587 80.5988C70.587 81.0445 70.2284 81.4031 69.7828 81.4031C69.3371 81.4031 68.9785 81.0445 68.9785 80.5988C68.9785 80.153 69.3371 79.7944 69.7828 79.7944C70.2284 79.7944 70.587 80.153 70.587 80.5988Z" fill="#5EC8F0"/>
<path d="M72.4981 80.445C72.4981 80.8907 72.1396 81.2493 71.6939 81.2493C71.2483 81.2493 70.8896 80.8907 70.8896 80.445C70.8896 79.9993 71.2483 79.6406 71.6939 79.6406C72.1396 79.6406 72.4981 79.9993 72.4981 80.445Z" fill="#5EC8F0"/>
<path d="M74.4131 80.2914C74.4131 80.7371 74.0545 81.0957 73.6089 81.0957C73.1632 81.0957 72.8047 80.7371 72.8047 80.2914C72.8047 79.8457 73.1632 79.4871 73.6089 79.4871C74.0545 79.4871 74.4131 79.8457 74.4131 80.2914Z" fill="#5EC8F0"/>
<path d="M76.3243 80.1376C76.3243 80.5833 75.9657 80.942 75.52 80.942C75.0744 80.942 74.7158 80.5833 74.7158 80.1376C74.7158 79.6919 75.0744 79.3333 75.52 79.3333C75.9657 79.3333 76.3243 79.6919 76.3243 80.1376Z" fill="#5EC8F0"/>
<path d="M78.2344 79.9841C78.2344 80.4298 77.8758 80.7884 77.4302 80.7884C76.9845 80.7884 76.626 80.4298 76.626 79.9841C76.626 79.5383 76.9845 79.1797 77.4302 79.1797C77.8758 79.1797 78.2344 79.5383 78.2344 79.9841Z" fill="#5EC8F0"/>
<path d="M80.1456 79.8302C80.1456 80.2759 79.787 80.6346 79.3413 80.6346C78.8957 80.6346 78.5371 80.2759 78.5371 79.8302C78.5371 79.3845 78.8957 79.0259 79.3413 79.0259C79.787 79.0259 80.1456 79.3845 80.1456 79.8302Z" fill="#5EC8F0"/>
<path d="M82.0616 79.6765C82.0616 80.1222 81.703 80.4808 81.2574 80.4808C80.8117 80.4808 80.4531 80.1222 80.4531 79.6765C80.4531 79.2307 80.8117 78.8721 81.2574 78.8721C81.703 78.8721 82.0616 79.2307 82.0616 79.6765Z" fill="#5EC8F0"/>
<path d="M83.9717 79.5228C83.9717 79.9685 83.6132 80.3271 83.1675 80.3271C82.7219 80.3271 82.3633 79.9685 82.3633 79.5228C82.3633 79.0771 82.7219 78.7185 83.1675 78.7185C83.6132 78.7185 83.9717 79.0771 83.9717 79.5228Z" fill="#5EC8F0"/>
<path d="M85.8819 79.369C85.8819 79.8147 85.5233 80.1734 85.0777 80.1734C84.632 80.1734 84.2734 79.8147 84.2734 79.369C84.2734 78.9233 84.632 78.5647 85.0777 78.5647C85.5233 78.5647 85.8819 78.9233 85.8819 79.369Z" fill="#5EC8F0"/>
<path d="M87.7978 79.2155C87.7978 79.6612 87.4393 80.0198 86.9936 80.0198C86.548 80.0198 86.1895 79.6612 86.1895 79.2155C86.1895 78.7698 86.548 78.4111 86.9936 78.4111C87.4393 78.4111 87.7978 78.7698 87.7978 79.2155Z" fill="#5EC8F0"/>
<path d="M89.709 79.0616C89.709 79.5074 89.3504 79.866 88.9048 79.866C88.4591 79.866 88.1006 79.5074 88.1006 79.0616C88.1006 78.6159 88.4591 78.2573 88.9048 78.2573C89.3504 78.2573 89.709 78.6159 89.709 79.0616Z" fill="#5EC8F0"/>
<path d="M91.6202 78.9133C91.6202 79.359 91.2616 79.7176 90.8159 79.7176C90.3703 79.7176 90.0117 79.359 90.0117 78.9133C90.0117 78.4675 90.3703 78.1089 90.8159 78.1089C91.2616 78.1089 91.6202 78.4675 91.6202 78.9133Z" fill="#5EC8F0"/>
<path d="M48.1196 85.8449C47.8071 86.1574 47.2949 86.1574 46.9824 85.8449C46.6699 85.5324 46.6699 85.02 46.9824 84.7075C47.2949 84.395 47.8071 84.395 48.1196 84.7075C48.432 85.02 48.432 85.5324 48.1196 85.8449Z" fill="#5EC8F0"/>
<path d="M49.5746 87.0897C49.2622 87.4023 48.7499 87.4023 48.4375 87.0897C48.125 86.7772 48.125 86.2649 48.4375 85.9524C48.7499 85.6399 49.2622 85.6399 49.5746 85.9524C49.8871 86.2649 49.8871 86.7772 49.5746 87.0897Z" fill="#5EC8F0"/>
<path d="M51.0347 88.3346C50.7222 88.6471 50.2099 88.6471 49.8974 88.3346C49.585 88.017 49.585 87.5098 49.8974 87.1973C50.2099 86.8848 50.7222 86.8848 51.0347 87.1973C51.3471 87.5149 51.3471 88.0221 51.0347 88.3346Z" fill="#5EC8F0"/>
<path d="M52.4946 89.5846C52.1821 89.8971 51.6699 89.8971 51.3574 89.5846C51.0449 89.2721 51.0449 88.7598 51.3574 88.4473C51.6699 88.1348 52.1821 88.1348 52.4946 88.4473C52.807 88.7598 52.807 89.2721 52.4946 89.5846Z" fill="#5EC8F0"/>
<path d="M53.9487 90.8297C53.6362 91.1423 53.124 91.1423 52.8115 90.8297C52.499 90.5172 52.499 90.0049 52.8115 89.6924C53.124 89.3799 53.6362 89.3799 53.9487 89.6924C54.2611 90.0049 54.2611 90.5172 53.9487 90.8297Z" fill="#5EC8F0"/>
<path d="M55.4086 92.0746C55.0962 92.3871 54.5839 92.3871 54.2715 92.0746C53.959 91.7621 53.959 91.2498 54.2715 90.9373C54.5839 90.6248 55.0962 90.6248 55.4086 90.9373C55.7211 91.2498 55.7211 91.7621 55.4086 92.0746Z" fill="#5EC8F0"/>
<path d="M56.8686 93.3247C56.5561 93.6372 56.0439 93.6372 55.7314 93.3247C55.419 93.0122 55.419 92.4998 55.7314 92.1873C56.0439 91.8748 56.5561 91.8748 56.8686 92.1873C57.1811 92.4998 57.1811 93.0122 56.8686 93.3247Z" fill="#5EC8F0"/>
<path d="M58.3237 94.5697C58.0113 94.8822 57.499 94.8822 57.1865 94.5697C56.874 94.2572 56.874 93.7449 57.1865 93.4324C57.499 93.1199 58.0113 93.1199 58.3237 93.4324C58.6362 93.7449 58.6362 94.2572 58.3237 94.5697Z" fill="#5EC8F0"/>
<path d="M59.7836 95.8147C59.4712 96.1272 58.9589 96.1272 58.6465 95.8147C58.334 95.497 58.334 94.9898 58.6465 94.6773C58.9589 94.3647 59.4712 94.3647 59.7836 94.6773C60.0961 94.9898 60.0961 95.5021 59.7836 95.8147Z" fill="#5EC8F0"/>
<path d="M61.2387 97.0646C60.9262 97.3771 60.414 97.3771 60.1015 97.0646C59.7891 96.7521 59.7891 96.2398 60.1015 95.9273C60.414 95.6147 60.9262 95.6147 61.2387 95.9273C61.5512 96.2398 61.5512 96.7521 61.2387 97.0646Z" fill="#5EC8F0"/>
<path d="M62.6987 98.3095C62.3862 98.6221 61.874 98.6221 61.5615 98.3095C61.249 97.997 61.249 97.4846 61.5615 97.1721C61.874 96.8596 62.3862 96.8596 62.6987 97.1721C63.0111 97.4846 63.0111 97.997 62.6987 98.3095Z" fill="#5EC8F0"/>
<path d="M64.1577 99.5546C63.8452 99.8671 63.333 99.8671 63.0205 99.5546C62.708 99.2421 62.708 98.7298 63.0205 98.4172C63.333 98.1047 63.8452 98.1047 64.1577 98.4172C64.4702 98.7298 64.4702 99.2421 64.1577 99.5546Z" fill="#5EC8F0"/>
<path d="M65.6127 100.805C65.3003 101.117 64.788 101.117 64.4756 100.805C64.1631 100.492 64.1631 99.9798 64.4756 99.6672C64.788 99.3547 65.3003 99.3547 65.6127 99.6672C65.9252 99.9849 65.9252 100.492 65.6127 100.805Z" fill="#5EC8F0"/>
<path d="M67.0727 102.049C66.7602 102.362 66.248 102.362 65.9355 102.049C65.6231 101.737 65.6231 101.225 65.9355 100.912C66.248 100.6 66.7602 100.6 67.0727 100.912C67.3852 101.225 67.3852 101.737 67.0727 102.049Z" fill="#5EC8F0"/>
<path d="M68.5326 103.295C68.2202 103.607 67.708 103.607 67.3955 103.295C67.083 102.982 67.083 102.47 67.3955 102.157C67.708 101.845 68.2202 101.845 68.5326 102.157C68.8451 102.47 68.8451 102.982 68.5326 103.295Z" fill="#5EC8F0"/>
<path d="M69.9878 104.545C69.6753 104.857 69.163 104.857 68.8506 104.545C68.5381 104.232 68.5381 103.72 68.8506 103.407C69.163 103.095 69.6753 103.095 69.9878 103.407C70.3003 103.72 70.3003 104.232 69.9878 104.545Z" fill="#5EC8F0"/>
<path d="M71.4467 105.789C71.1342 106.102 70.622 106.102 70.3095 105.789C69.9971 105.477 69.9971 104.965 70.3095 104.652C70.622 104.34 71.1342 104.34 71.4467 104.652C71.7592 104.965 71.7592 105.477 71.4467 105.789Z" fill="#5EC8F0"/>
<path d="M72.9067 107.034C72.5942 107.347 72.082 107.347 71.7695 107.034C71.457 106.722 71.457 106.21 71.7695 105.897C72.082 105.584 72.5942 105.584 72.9067 105.897C73.2191 106.21 73.2191 106.722 72.9067 107.034Z" fill="#5EC8F0"/>
<path d="M74.3617 108.285C74.0493 108.597 73.5371 108.597 73.2246 108.285C72.9121 107.972 72.9121 107.46 73.2246 107.147C73.5422 106.835 74.0493 106.835 74.3617 107.147C74.6742 107.46 74.6742 107.972 74.3617 108.285Z" fill="#5EC8F0"/>
<path d="M75.8217 109.529C75.5092 109.842 74.997 109.842 74.6845 109.529C74.3721 109.217 74.3721 108.705 74.6845 108.392C74.997 108.08 75.5092 108.08 75.8217 108.392C76.1342 108.705 76.1342 109.217 75.8217 109.529Z" fill="#5EC8F0"/>
<path d="M77.2817 110.774C76.9693 111.087 76.457 111.087 76.1445 110.774C75.832 110.462 75.832 109.949 76.1445 109.637C76.457 109.324 76.9693 109.324 77.2817 109.637C77.5942 109.949 77.5942 110.462 77.2817 110.774Z" fill="#5EC8F0"/>
<path d="M78.7358 112.024C78.4233 112.337 77.9111 112.337 77.5986 112.024C77.2861 111.712 77.2861 111.199 77.5986 110.887C77.9111 110.574 78.4233 110.574 78.7358 110.887C79.0482 111.199 79.0482 111.712 78.7358 112.024Z" fill="#5EC8F0"/>
<path d="M51.8702 77.7604C51.8702 78.2062 51.5116 78.5648 51.0659 78.5648C50.6203 78.5648 50.2617 78.2062 50.2617 77.7604C50.2617 77.3147 50.6203 76.9561 51.0659 76.9561C51.5116 76.9561 51.8702 77.3147 51.8702 77.7604Z" fill="#BD4B89"/>
<path d="M53.7862 77.6066C53.7862 78.0523 53.4276 78.4109 52.9819 78.4109C52.5363 78.4109 52.1777 78.0523 52.1777 77.6066C52.1777 77.1608 52.5363 76.8022 52.9819 76.8022C53.4276 76.8022 53.7862 77.1608 53.7862 77.6066Z" fill="#BD4B89"/>
<path d="M55.6963 77.453C55.6963 77.8987 55.3377 78.2574 54.8921 78.2574C54.4464 78.2574 54.0879 77.8987 54.0879 77.453C54.0879 77.0073 54.4464 76.6487 54.8921 76.6487C55.3377 76.6487 55.6963 77.0073 55.6963 77.453Z" fill="#BD4B89"/>
<path d="M57.6065 77.2993C57.6065 77.745 57.2479 78.1036 56.8022 78.1036C56.3566 78.1036 55.998 77.745 55.998 77.2993C55.998 76.8535 56.3566 76.4949 56.8022 76.4949C57.2479 76.4949 57.6065 76.8535 57.6065 77.2993Z" fill="#BD4B89"/>
<path d="M59.5176 77.1456C59.5176 77.5913 59.1591 77.95 58.7134 77.95C58.2678 77.95 57.9092 77.5913 57.9092 77.1456C57.9092 76.6999 58.2678 76.3413 58.7134 76.3413C59.1591 76.3413 59.5176 76.6999 59.5176 77.1456Z" fill="#BD4B89"/>
<path d="M61.4336 76.9919C61.4336 77.4376 61.0751 77.7962 60.6294 77.7962C60.1838 77.7962 59.8252 77.4376 59.8252 76.9919C59.8252 76.5462 60.1838 76.1875 60.6294 76.1875C61.0751 76.1875 61.4336 76.5462 61.4336 76.9919Z" fill="#BD4B89"/>
<path d="M63.3438 76.8383C63.3438 77.284 62.9853 77.6426 62.5396 77.6426C62.094 77.6426 61.7354 77.284 61.7354 76.8383C61.7354 76.3925 62.094 76.0339 62.5396 76.0339C62.9853 76.0339 63.3438 76.3925 63.3438 76.8383Z" fill="#BD4B89"/>
<path d="M65.2549 76.6844C65.2549 77.1302 64.8963 77.4888 64.4507 77.4888C64.005 77.4888 63.6465 77.1302 63.6465 76.6844C63.6465 76.2387 64.005 75.8801 64.4507 75.8801C64.8963 75.8801 65.2549 76.2387 65.2549 76.6844Z" fill="#BD4B89"/>
<path d="M67.1709 76.5307C67.1709 76.9764 66.8123 77.335 66.3667 77.335C65.921 77.335 65.5625 76.9764 65.5625 76.5307C65.5625 76.085 65.921 75.7263 66.3667 75.7263C66.8123 75.7263 67.1709 76.085 67.1709 76.5307Z" fill="#BD4B89"/>
<path d="M69.0811 76.3822C69.0811 76.8279 68.7225 77.1866 68.2768 77.1866C67.8312 77.1866 67.4727 76.8279 67.4727 76.3822C67.4727 75.9365 67.8312 75.5779 68.2768 75.5779C68.7225 75.5779 69.0811 75.9365 69.0811 76.3822Z" fill="#BD4B89"/>
<path d="M70.9922 76.2284C70.9922 76.6741 70.6336 77.0328 70.188 77.0328C69.7423 77.0328 69.3838 76.6741 69.3838 76.2284C69.3838 75.7827 69.7423 75.4241 70.188 75.4241C70.6336 75.4241 70.9922 75.7827 70.9922 76.2284Z" fill="#BD4B89"/>
<path d="M72.9024 76.0749C72.9024 76.5206 72.5439 76.8792 72.0982 76.8792C71.6525 76.8792 71.2939 76.5206 71.2939 76.0749C71.2939 75.6292 71.6525 75.2705 72.0982 75.2705C72.5439 75.2705 72.9024 75.6292 72.9024 76.0749Z" fill="#BD4B89"/>
<path d="M74.8184 75.921C74.8184 76.3667 74.4599 76.7254 74.0142 76.7254C73.5686 76.7254 73.21 76.3667 73.21 75.921C73.21 75.4753 73.5686 75.1167 74.0142 75.1167C74.4599 75.1167 74.8184 75.4753 74.8184 75.921Z" fill="#BD4B89"/>
<path d="M76.7295 75.7675C76.7295 76.2132 76.371 76.5718 75.9253 76.5718C75.4797 76.5718 75.1211 76.2132 75.1211 75.7675C75.1211 75.3218 75.4797 74.9631 75.9253 74.9631C76.371 74.9631 76.7295 75.3218 76.7295 75.7675Z" fill="#BD4B89"/>
<path d="M78.6396 75.6136C78.6396 76.0594 78.2811 76.418 77.8354 76.418C77.3898 76.418 77.0312 76.0594 77.0312 75.6136C77.0312 75.1679 77.3898 74.8093 77.8354 74.8093C78.2811 74.8093 78.6396 75.1679 78.6396 75.6136Z" fill="#BD4B89"/>
<path d="M80.5508 75.4598C80.5508 75.9056 80.1922 76.2642 79.7466 76.2642C79.3009 76.2642 78.9424 75.9056 78.9424 75.4598C78.9424 75.0141 79.3009 74.6555 79.7466 74.6555C80.1922 74.6555 80.5508 75.0141 80.5508 75.4598Z" fill="#BD4B89"/>
<path d="M82.4668 75.3063C82.4668 75.7521 82.1082 76.1107 81.6626 76.1107C81.2169 76.1107 80.8584 75.7521 80.8584 75.3063C80.8584 74.8606 81.2169 74.502 81.6626 74.502C82.1082 74.502 82.4668 74.8606 82.4668 75.3063Z" fill="#BD4B89"/>
<path d="M84.377 75.1527C84.377 75.5984 84.0184 75.9571 83.5727 75.9571C83.1271 75.9571 82.7686 75.5984 82.7686 75.1527C82.7686 74.707 83.1271 74.3484 83.5727 74.3484C84.0184 74.3484 84.377 74.707 84.377 75.1527Z" fill="#BD4B89"/>
<path d="M86.2872 74.999C86.2872 75.4447 85.9286 75.8033 85.483 75.8033C85.0373 75.8033 84.6787 75.4447 84.6787 74.999C84.6787 74.5532 85.0373 74.1946 85.483 74.1946C85.9286 74.1946 86.2872 74.5532 86.2872 74.999Z" fill="#BD4B89"/>
<path d="M88.2032 74.8453C88.2032 75.2911 87.8446 75.6497 87.399 75.6497C86.9533 75.6497 86.5947 75.2911 86.5947 74.8453C86.5947 74.3996 86.9533 74.041 87.399 74.041C87.8446 74.041 88.2032 74.3996 88.2032 74.8453Z" fill="#BD4B89"/>
<path d="M90.1143 74.6915C90.1143 75.1372 89.7558 75.4959 89.3101 75.4959C88.8645 75.4959 88.5059 75.1372 88.5059 74.6915C88.5059 74.2458 88.8645 73.8872 89.3101 73.8872C89.7558 73.8872 90.1143 74.2458 90.1143 74.6915Z" fill="#BD4B89"/>
<path d="M92.0244 74.5378C92.0244 74.9835 91.6659 75.3421 91.2202 75.3421C90.7746 75.3421 90.416 74.9835 90.416 74.5378C90.416 74.0921 90.7746 73.7334 91.2202 73.7334C91.6659 73.7334 92.0244 74.0921 92.0244 74.5378Z" fill="#BD4B89"/>
<path d="M95.6048 74.6917C95.6048 75.1989 95.195 75.6139 94.6828 75.6139C94.1706 75.6139 93.7607 75.204 93.7607 74.6917C93.7607 74.1794 94.1706 73.7695 94.6828 73.7695C95.195 73.7695 95.6048 74.1794 95.6048 74.6917Z" fill="#5EC8F0"/>
<path d="M94.0275 77.7657C94.5367 77.7657 94.9495 77.3529 94.9495 76.8436C94.9495 76.3343 94.5367 75.9214 94.0275 75.9214C93.5182 75.9214 93.1055 76.3343 93.1055 76.8436C93.1055 77.3529 93.5182 77.7657 94.0275 77.7657Z" fill="#5EC8F0"/>
<path d="M93.3663 79.9173C93.8756 79.9173 94.2884 79.5044 94.2884 78.9951C94.2884 78.4858 93.8756 78.073 93.3663 78.073C92.8571 78.073 92.4443 78.4858 92.4443 78.9951C92.4443 79.5044 92.8571 79.9173 93.3663 79.9173Z" fill="#5EC8F0"/>
<path d="M93.6331 81.1471C93.6331 81.6543 93.2234 82.0692 92.7111 82.0692C92.1989 82.0692 91.7891 81.6594 91.7891 81.1471C91.7891 80.6347 92.1989 80.2249 92.7111 80.2249C93.2234 80.2249 93.6331 80.6347 93.6331 81.1471Z" fill="#5EC8F0"/>
<path d="M92.9769 83.2987C92.9769 83.8059 92.5671 84.2209 92.0549 84.2209C91.5426 84.2209 91.1328 83.811 91.1328 83.2987C91.1328 82.7863 91.5426 82.3765 92.0549 82.3765C92.5671 82.3765 92.9769 82.7863 92.9769 83.2987Z" fill="#5EC8F0"/>
<path d="M91.3995 86.3727C91.9088 86.3727 92.3216 85.9598 92.3216 85.4505C92.3216 84.9412 91.9088 84.5283 91.3995 84.5283C90.8903 84.5283 90.4775 84.9412 90.4775 85.4505C90.4775 85.9598 90.8903 86.3727 91.3995 86.3727Z" fill="#5EC8F0"/>
<path d="M91.6605 87.6021C91.6605 88.1093 91.2506 88.5243 90.7384 88.5243C90.2262 88.5243 89.8164 88.1145 89.8164 87.6021C89.8164 87.0898 90.2262 86.6799 90.7384 86.6799C91.2506 86.6799 91.6605 87.0898 91.6605 87.6021Z" fill="#5EC8F0"/>
<path d="M91.0052 89.7539C91.0052 90.2611 90.5954 90.6761 90.0832 90.6761C89.571 90.6761 89.1611 90.2663 89.1611 89.7539C89.1611 89.2416 89.571 88.8318 90.0832 88.8318C90.5954 88.8318 91.0052 89.2416 91.0052 89.7539Z" fill="#5EC8F0"/>
<path d="M90.3441 91.9058C90.3441 92.413 89.9343 92.828 89.4221 92.828C88.9098 92.828 88.5 92.4182 88.5 91.9058C88.5 91.3935 88.9098 90.9836 89.4221 90.9836C89.9343 90.9836 90.3441 91.3935 90.3441 91.9058Z" fill="#5EC8F0"/>
<path d="M88.7716 94.9797C89.2808 94.9797 89.6937 94.5668 89.6937 94.0575C89.6937 93.5482 89.2808 93.1353 88.7716 93.1353C88.2624 93.1353 87.8496 93.5482 87.8496 94.0575C87.8496 94.5668 88.2624 94.9797 88.7716 94.9797Z" fill="#5EC8F0"/>
<path d="M89.0325 96.2093C89.0325 96.7165 88.6228 97.1315 88.1105 97.1315C87.5983 97.1315 87.1885 96.7216 87.1885 96.2093C87.1885 95.6969 87.5983 95.2871 88.1105 95.2871C88.6228 95.2871 89.0325 95.6969 89.0325 96.2093Z" fill="#5EC8F0"/>
<path d="M88.3773 98.3609C88.3773 98.8681 87.9675 99.2831 87.4553 99.2831C86.943 99.2831 86.5332 98.8732 86.5332 98.3609C86.5332 97.8486 86.943 97.4387 87.4553 97.4387C87.9675 97.4387 88.3773 97.8486 88.3773 98.3609Z" fill="#5EC8F0"/>
<path d="M87.7162 100.513C87.7162 101.02 87.3064 101.435 86.7941 101.435C86.2819 101.435 85.8721 101.025 85.8721 100.513C85.8721 100 86.2819 99.5906 86.7941 99.5906C87.3064 99.5906 87.7162 100 87.7162 100.513Z" fill="#5EC8F0"/>
<path d="M87.0609 102.664C87.0609 103.172 86.651 103.587 86.1388 103.587C85.6266 103.587 85.2168 103.177 85.2168 102.664C85.2168 102.152 85.6266 101.742 86.1388 101.742C86.651 101.742 87.0609 102.152 87.0609 102.664Z" fill="#5EC8F0"/>
<path d="M86.4056 104.816C86.4056 105.323 85.9958 105.738 85.4836 105.738C84.9713 105.738 84.5615 105.329 84.5615 104.816C84.5615 104.304 84.9713 103.894 85.4836 103.894C85.9958 103.894 86.4056 104.304 86.4056 104.816Z" fill="#5EC8F0"/>
<path d="M80.2179 126.943H73.1592V129.546H80.2179V126.943Z" fill="#A52998"/>
</svg>
