<svg width="64" height="16" viewBox="0 0 64 16" fill="none" xmlns="http://www.w3.org/2000/svg">
<g clip-path="url(#clip0_55_46909)">
<path d="M0.77729 7.63125C1.21479 2.7425 5.73604 0.5 8.23604 0.5C11.5685 0.5 15.0223 3.25125 15.231 8C15.5873 12.1262 12.3785 15.5 8.23604 15.5C4.09354 15.5 0.33104 12.6275 0.77729 7.63125Z" fill="#1851ED"/>
<path opacity="0.77" d="M14.6887 6.73378C14.485 6.04628 13.8912 5.34503 13.1312 5.37003C12.2862 5.43753 11.6475 6.03503 10.9787 6.49253C8.98496 7.85378 6.69496 8.77878 4.31621 9.18628C3.79371 9.27628 2.07871 9.55378 1.85621 10.5413C1.70871 11.1963 1.97121 12.0125 2.48371 12.5188C3.59121 13.6113 4.48746 14.0475 4.99371 14.22C5.14746 14.2725 5.27871 14.1 5.18996 13.965C5.03621 13.7325 4.87746 13.4613 4.91246 13.3788C5.12121 12.89 6.27246 13.6238 6.95246 13.7438C8.48246 14.0125 9.06996 13.7513 10.0812 13.4388C10.3662 13.3513 10.9012 13.1 11.1562 13.24C11.4525 13.4025 10.8525 14.07 10.4637 14.4575C10.3762 14.545 10.47 14.6888 10.5862 14.6475C11.7625 14.2275 14.285 12.3813 14.7662 9.36503C14.9025 8.52628 14.9575 7.56253 14.6887 6.73378Z" fill="#002691"/>
<path d="M3.8877 8.11497C3.8877 5.76872 5.8702 3.46997 7.9027 3.46997C9.9352 3.46997 11.7664 5.40747 12.0902 8.11497C12.3702 10.46 10.1314 12.7887 7.56145 12.5062C4.9577 12.22 3.8877 10.4625 3.8877 8.11497Z" fill="#F5F5F5"/>
<path d="M7.99988 10.585C9.37783 10.585 10.4949 9.4277 10.4949 8.00004C10.4949 6.57238 9.37783 5.41504 7.99988 5.41504C6.62193 5.41504 5.50488 6.57238 5.50488 8.00004C5.50488 9.4277 6.62193 10.585 7.99988 10.585Z" fill="#5AC7F0"/>
<path d="M8.95849 8.46546C9.23477 7.89664 9.02933 7.22695 8.49964 6.96968C7.96994 6.7124 7.31656 6.96496 7.04028 7.53378C6.76401 8.1026 6.96944 8.77228 7.49914 9.02956C8.02884 9.28684 8.68222 9.03428 8.95849 8.46546Z" fill="#212121"/>
<path opacity="0.55" d="M3.36618 4.3863C3.08993 4.33005 2.63243 3.79505 3.61243 2.96505C4.69368 2.0488 5.37743 2.1038 5.53243 2.23505C5.78118 2.4438 5.60368 2.7538 5.09368 3.12005C4.26368 3.7138 4.11368 4.53755 3.36618 4.3863ZM2.72493 4.55255C3.39618 4.6438 2.72618 5.59505 2.48118 5.8088C2.43493 5.8488 2.20993 5.99005 2.01993 5.9188C1.82993 5.84755 1.88618 5.4663 1.91743 5.3238C1.99743 4.96505 2.27368 4.4913 2.72493 4.55255Z" fill="#00CFFF"/>
</g>
<g clip-path="url(#clip1_55_46909)">
<path d="M24.7773 7.63125C25.2148 2.7425 29.736 0.5 32.236 0.5C35.5685 0.5 39.0223 3.25125 39.231 8C39.5873 12.1262 36.3785 15.5 32.236 15.5C28.0935 15.5 24.331 12.6275 24.7773 7.63125Z" fill="#1851ED"/>
<path opacity="0.77" d="M38.6887 6.73378C38.485 6.04628 37.8912 5.34503 37.1312 5.37003C36.2862 5.43753 35.6475 6.03503 34.9787 6.49253C32.985 7.85378 30.695 8.77878 28.3162 9.18628C27.7937 9.27628 26.0787 9.55378 25.8562 10.5413C25.7087 11.1963 25.9712 12.0125 26.4837 12.5188C27.5912 13.6113 28.4875 14.0475 28.9937 14.22C29.1475 14.2725 29.2787 14.1 29.19 13.965C29.0362 13.7325 28.8775 13.4613 28.9125 13.3788C29.1212 12.89 30.2725 13.6238 30.9525 13.7438C32.4825 14.0125 33.07 13.7513 34.0812 13.4388C34.3662 13.3513 34.9012 13.1 35.1562 13.24C35.4525 13.4025 34.8525 14.07 34.4637 14.4575C34.3762 14.545 34.47 14.6888 34.5862 14.6475C35.7625 14.2275 38.285 12.3813 38.7662 9.36503C38.9025 8.52628 38.9575 7.56253 38.6887 6.73378Z" fill="#002691"/>
<path d="M27.8877 8.11497C27.8877 5.76872 29.8702 3.46997 31.9027 3.46997C33.9352 3.46997 35.7664 5.40747 36.0902 8.11497C36.3702 10.46 34.1314 12.7887 31.5614 12.5062C28.9577 12.22 27.8877 10.4625 27.8877 8.11497Z" fill="#F5F5F5"/>
<path d="M31.9999 10.585C33.3778 10.585 34.4949 9.4277 34.4949 8.00004C34.4949 6.57238 33.3778 5.41504 31.9999 5.41504C30.6219 5.41504 29.5049 6.57238 29.5049 8.00004C29.5049 9.4277 30.6219 10.585 31.9999 10.585Z" fill="#5AC7F0"/>
<path d="M32.9585 8.46546C33.2348 7.89664 33.0293 7.22695 32.4996 6.96968C31.9699 6.7124 31.3166 6.96496 31.0403 7.53378C30.764 8.1026 30.9694 8.77228 31.4991 9.02956C32.0288 9.28684 32.6822 9.03428 32.9585 8.46546Z" fill="#212121"/>
<path opacity="0.55" d="M27.3662 4.3863C27.0899 4.33005 26.6324 3.79505 27.6124 2.96505C28.6937 2.0488 29.3774 2.1038 29.5324 2.23505C29.7812 2.4438 29.6037 2.7538 29.0937 3.12005C28.2637 3.7138 28.1137 4.53755 27.3662 4.3863ZM26.7249 4.55255C27.3962 4.6438 26.7262 5.59505 26.4812 5.8088C26.4349 5.8488 26.2099 5.99005 26.0199 5.9188C25.8299 5.84755 25.8862 5.4663 25.9174 5.3238C25.9974 4.96505 26.2737 4.4913 26.7249 4.55255Z" fill="#00CFFF"/>
</g>
<g clip-path="url(#clip2_55_46909)">
<path d="M48.7773 7.63125C49.2148 2.7425 53.736 0.5 56.236 0.5C59.5685 0.5 63.0223 3.25125 63.231 8C63.5873 12.1262 60.3785 15.5 56.236 15.5C52.0935 15.5 48.331 12.6275 48.7773 7.63125Z" fill="#1851ED"/>
<path opacity="0.77" d="M62.6887 6.73378C62.485 6.04628 61.8912 5.34503 61.1312 5.37003C60.2862 5.43753 59.6475 6.03503 58.9787 6.49253C56.985 7.85378 54.695 8.77878 52.3162 9.18628C51.7937 9.27628 50.0787 9.55378 49.8562 10.5413C49.7087 11.1963 49.9712 12.0125 50.4837 12.5188C51.5912 13.6113 52.4875 14.0475 52.9937 14.22C53.1475 14.2725 53.2787 14.1 53.19 13.965C53.0362 13.7325 52.8775 13.4613 52.9125 13.3788C53.1212 12.89 54.2725 13.6238 54.9525 13.7438C56.4825 14.0125 57.07 13.7513 58.0812 13.4388C58.3662 13.3513 58.9012 13.1 59.1562 13.24C59.4525 13.4025 58.8525 14.07 58.4637 14.4575C58.3762 14.545 58.47 14.6888 58.5862 14.6475C59.7625 14.2275 62.285 12.3813 62.7662 9.36503C62.9025 8.52628 62.9575 7.56253 62.6887 6.73378Z" fill="#002691"/>
<path d="M51.8877 8.11497C51.8877 5.76872 53.8702 3.46997 55.9027 3.46997C57.9352 3.46997 59.7664 5.40747 60.0902 8.11497C60.3702 10.46 58.1314 12.7887 55.5614 12.5062C52.9577 12.22 51.8877 10.4625 51.8877 8.11497Z" fill="#F5F5F5"/>
<path d="M55.9999 10.585C57.3778 10.585 58.4949 9.4277 58.4949 8.00004C58.4949 6.57238 57.3778 5.41504 55.9999 5.41504C54.6219 5.41504 53.5049 6.57238 53.5049 8.00004C53.5049 9.4277 54.6219 10.585 55.9999 10.585Z" fill="#5AC7F0"/>
<path d="M56.9585 8.46546C57.2348 7.89664 57.0293 7.22695 56.4996 6.96968C55.9699 6.7124 55.3166 6.96496 55.0403 7.53378C54.764 8.1026 54.9694 8.77228 55.4991 9.02956C56.0288 9.28684 56.6822 9.03428 56.9585 8.46546Z" fill="#212121"/>
<path opacity="0.55" d="M51.3662 4.3863C51.0899 4.33005 50.6324 3.79505 51.6124 2.96505C52.6937 2.0488 53.3774 2.1038 53.5324 2.23505C53.7812 2.4438 53.6037 2.7538 53.0937 3.12005C52.2637 3.7138 52.1137 4.53755 51.3662 4.3863ZM50.7249 4.55255C51.3962 4.6438 50.7262 5.59505 50.4812 5.8088C50.4349 5.8488 50.2099 5.99005 50.0199 5.9188C49.8299 5.84755 49.8862 5.4663 49.9174 5.3238C49.9974 4.96505 50.2737 4.4913 50.7249 4.55255Z" fill="#00CFFF"/>
</g>
<defs>
<clipPath id="clip0_55_46909">
<rect width="16" height="16" fill="white"/>
</clipPath>
<clipPath id="clip1_55_46909">
<rect width="16" height="16" fill="white" transform="translate(24)"/>
</clipPath>
<clipPath id="clip2_55_46909">
<rect width="16" height="16" fill="white" transform="translate(48)"/>
</clipPath>
</defs>
</svg>
