<svg width="203" height="82" viewBox="0 0 203 82" fill="none" xmlns="http://www.w3.org/2000/svg">
<path d="M194.336 56.651C193.721 54.2072 195.872 52.1272 195.801 49.7142C195.862 46.1382 189.869 45.4824 187.139 45.7539C187.011 45.7693 186.893 45.7847 186.801 45.7847C186.15 45.8257 186.585 45.0982 186.698 44.76C187.917 41.7476 187.769 38.0435 186.534 35.0618C182.482 25.5531 169.149 34.9798 163.294 38.7658C162.515 39.3089 162.31 38.7095 162.274 38.0127C162.11 35.1796 161.578 32.8998 160.466 30.415C160.307 30.1383 160.133 29.9232 159.872 29.7746C159.309 29.3852 158.346 29.7746 157.982 29.1291C157.772 28.709 157.879 27.7202 157.915 27.0132C157.915 24.7948 158.791 21.5877 156.942 19.9687C154.806 18.1602 150.667 19.4513 147.532 19.5742C146.538 19.6767 147.291 20.4606 146.82 20.5272C139.813 17.3508 139.265 28.5655 139.008 34.1293C138.978 34.4162 138.993 34.6878 138.763 34.7902C138.517 34.8466 138.02 34.2011 137.584 33.6119C136.847 32.6077 136.104 31.4499 135.228 30.6097C133.215 28.4067 130.382 29.9744 128.968 31.9878C126.756 35.1284 127.939 41.2404 126.592 45.0981C126.079 46.5839 125.798 45.3031 125.291 44.3809C122.893 40.7229 117.914 43.2589 115.327 45.5336C114.825 45.882 114.318 45.6207 114.047 45.1238C112.438 42.4341 113.468 38.1972 113.678 34.6775C113.806 33.576 113.135 33.1866 112.1 33.2737C107.459 33.494 104.401 33.5094 101.092 30.0359C100.652 29.5902 100.226 28.9651 100.252 28.3862C100.252 27.9763 100.426 27.5716 100.626 27.2079C102.009 24.6975 102.818 22.1717 102.721 19.4257C102.706 18.9902 102.608 18.401 102.096 18.4318C101.461 18.3754 100.344 19.4052 99.7501 18.7392C99.5862 18.5547 99.4633 18.1961 99.3711 17.9246C98.6539 15.7113 97.3938 13.0729 95.519 13.16C95.0068 13.1907 94.4946 13.1395 94.6892 12.4735C94.9607 11.5205 95.2937 10.6547 95.4525 9.60447C97.2146 0.0189142 83.7426 8.08797 82.38 1.58148C82.1956 1.04354 81.7705 0.941078 81.248 1.03842C80.5104 1.15625 79.7062 1.37656 78.9532 1.30484C78.3385 1.2536 78.0004 0.807889 77.3089 0.541481C74.7733 -0.344836 71.2439 -0.0425735 68.6724 0.72591C64.5079 1.74543 64.9279 9.05115 63.6525 13.0524C63.4578 13.6672 63.0993 13.5903 62.5461 13.1549C56.6963 7.43734 51.1692 16.4542 46.5539 13.037C44.8635 11.874 42.9118 13.9643 42.4149 15.5115C42.2561 16.029 42.3022 16.5311 42.3944 17.0588C42.6403 18.2832 42.922 19.9329 43.2806 21.3161C43.7621 23.2271 44.2847 25.0664 43.5061 25.7426C42.9682 26.1678 42.1537 26.0449 41.1907 25.7887C40.7143 25.6709 40.3455 25.4967 39.9255 25.6401C39.2596 26.0244 38.9317 27.1259 38.4297 27.7509C35.7763 31.5831 32.4672 29.2315 28.2361 29.7797C27.8519 29.8258 27.3704 29.9539 27.1655 30.2101C26.9094 30.5226 27.0323 31.0093 27.2116 31.3782C28.6459 34.4214 30.0903 36.9522 30.075 40.8971C30.1057 41.8808 29.8804 42.7005 28.733 42.3316C26.1974 41.7578 22.2172 41.9576 20.4961 44.2477C19.7789 45.1596 19.3743 46.5992 19.7431 47.6598C20.03 48.4385 20.7214 48.8893 21.2439 49.5861C22.0277 50.5749 22.079 51.9479 21.9817 53.198C21.4643 60.2168 14.9793 53.0494 11.1119 51.328C10.3743 51.2153 10.3845 51.9377 10.3025 52.6549C10.2615 53.198 10.2462 53.7769 10.2155 54.3456C10.113 55.6366 10.1181 57.0763 9.16536 58.0343C7.77206 59.2998 5.00082 59.9965 3.26432 60.7804C2.88014 60.9648 2.62399 61.2363 2.59325 61.6667C2.79815 63.7313 3.92514 65.7294 4.82668 67.4969C4.95474 67.7787 5.07256 68.0963 4.95474 68.3781C4.84205 68.7469 4.26316 69.0441 3.87386 69.2439C-0.23432 71.3086 -0.920694 75.1151 1.08729 79.6031C1.34342 80.2076 1.81459 80.8531 2.40879 81.0478C6.7065 80.0539 69.0055 80.7763 124.691 80.5714C151.973 80.597 176.817 80.5509 195.473 80.5714C195.488 80.5765 195.509 80.6072 195.56 80.6841C195.662 80.848 196.052 81.2835 196.743 81.2732C197.916 81.1554 199.386 80.5252 200.109 79.5211C200.575 78.7577 200.18 77.7741 200.057 76.8519C199.745 75.6377 199.945 73.9726 198.92 73.0965C198.787 72.9685 198.659 72.8711 198.587 72.7226C198.485 72.4818 198.715 72.2871 198.977 72.0258C208.043 64.0694 197.138 64.5869 194.351 56.7074L194.331 56.6306L194.336 56.651Z" fill="#4BBC9E"/>
<mask id="mask0_72_13284" style="mask-type:luminance" maskUnits="userSpaceOnUse" x="0" y="0" width="203" height="82">
<path d="M194.336 56.651C193.721 54.2072 195.872 52.1272 195.801 49.7142C195.862 46.1382 189.869 45.4824 187.139 45.7539C187.011 45.7693 186.893 45.7847 186.801 45.7847C186.15 45.8257 186.585 45.0982 186.698 44.76C187.917 41.7476 187.769 38.0435 186.534 35.0618C182.482 25.5531 169.149 34.9798 163.294 38.7658C162.515 39.3089 162.31 38.7095 162.274 38.0127C162.11 35.1796 161.578 32.8998 160.466 30.415C160.307 30.1383 160.133 29.9232 159.872 29.7746C159.309 29.3852 158.346 29.7746 157.982 29.1291C157.772 28.709 157.879 27.7202 157.915 27.0132C157.915 24.7948 158.791 21.5877 156.942 19.9687C154.806 18.1602 150.667 19.4513 147.532 19.5742C146.538 19.6767 147.291 20.4606 146.82 20.5272C139.813 17.3508 139.265 28.5655 139.008 34.1293C138.978 34.4162 138.993 34.6878 138.763 34.7902C138.517 34.8466 138.02 34.2011 137.584 33.6119C136.847 32.6077 136.104 31.4499 135.228 30.6097C133.215 28.4067 130.382 29.9744 128.968 31.9878C126.756 35.1284 127.939 41.2404 126.592 45.0981C126.079 46.5839 125.798 45.3031 125.291 44.3809C122.893 40.7229 117.914 43.2589 115.327 45.5336C114.825 45.882 114.318 45.6207 114.047 45.1238C112.438 42.4341 113.468 38.1972 113.678 34.6775C113.806 33.576 113.135 33.1866 112.1 33.2737C107.459 33.494 104.401 33.5094 101.092 30.0359C100.652 29.5902 100.226 28.9651 100.252 28.3862C100.252 27.9763 100.426 27.5716 100.626 27.2079C102.009 24.6975 102.818 22.1717 102.721 19.4257C102.706 18.9902 102.608 18.401 102.096 18.4318C101.461 18.3754 100.344 19.4052 99.7501 18.7392C99.5862 18.5547 99.4633 18.1961 99.3711 17.9246C98.6539 15.7113 97.3938 13.0729 95.519 13.16C95.0068 13.1907 94.4946 13.1395 94.6892 12.4735C94.9607 11.5205 95.2937 10.6547 95.4525 9.60447C97.2146 0.0189142 83.7426 8.08797 82.38 1.58148C82.1956 1.04354 81.7705 0.941078 81.248 1.03842C80.5104 1.15625 79.7062 1.37656 78.9532 1.30484C78.3385 1.2536 78.0004 0.807889 77.3089 0.541481C74.7733 -0.344836 71.2439 -0.0425735 68.6724 0.72591C64.5079 1.74543 64.9279 9.05115 63.6525 13.0524C63.4578 13.6672 63.0993 13.5903 62.5461 13.1549C56.6963 7.43734 51.1692 16.4542 46.5539 13.037C44.8635 11.874 42.9118 13.9643 42.4149 15.5115C42.2561 16.029 42.3022 16.5311 42.3944 17.0588C42.6403 18.2832 42.922 19.9329 43.2806 21.3161C43.7621 23.2271 44.2847 25.0664 43.5061 25.7426C42.9682 26.1678 42.1537 26.0449 41.1907 25.7887C40.7143 25.6709 40.3455 25.4967 39.9255 25.6401C39.2596 26.0244 38.9317 27.1259 38.4297 27.7509C35.7763 31.5831 32.4672 29.2315 28.2361 29.7797C27.8519 29.8258 27.3704 29.9539 27.1655 30.2101C26.9094 30.5226 27.0323 31.0093 27.2116 31.3782C28.6459 34.4214 30.0903 36.9522 30.075 40.8971C30.1057 41.8808 29.8804 42.7005 28.733 42.3316C26.1974 41.7578 22.2172 41.9576 20.4961 44.2477C19.7789 45.1596 19.3743 46.5992 19.7431 47.6598C20.03 48.4385 20.7214 48.8893 21.2439 49.5861C22.0277 50.5749 22.079 51.9479 21.9817 53.198C21.4643 60.2168 14.9793 53.0494 11.1119 51.328C10.3743 51.2153 10.3845 51.9377 10.3025 52.6549C10.2615 53.198 10.2462 53.7769 10.2155 54.3456C10.113 55.6366 10.1181 57.0763 9.16536 58.0343C7.77206 59.2998 5.00082 59.9965 3.26432 60.7804C2.88014 60.9648 2.62399 61.2363 2.59325 61.6667C2.79815 63.7313 3.92514 65.7294 4.82668 67.4969C4.95474 67.7787 5.07256 68.0963 4.95474 68.3781C4.84205 68.7469 4.26316 69.0441 3.87386 69.2439C-0.23432 71.3086 -0.920694 75.1151 1.08729 79.6031C1.34342 80.2076 1.81459 80.8531 2.40879 81.0478C6.7065 80.0539 69.0055 80.7763 124.691 80.5714C151.973 80.597 176.817 80.5509 195.473 80.5714C195.488 80.5765 195.509 80.6072 195.56 80.6841C195.662 80.848 196.052 81.2835 196.743 81.2732C197.916 81.1554 199.386 80.5252 200.109 79.5211C200.575 78.7577 200.18 77.7741 200.057 76.8519C199.745 75.6377 199.945 73.9726 198.92 73.0965C198.787 72.9685 198.659 72.8711 198.587 72.7226C198.485 72.4818 198.715 72.2871 198.977 72.0258C208.043 64.0694 197.138 64.5869 194.351 56.7074L194.331 56.6306L194.336 56.651Z" fill="white"/>
</mask>
<g mask="url(#mask0_72_13284)">
<path d="M206.301 83.8402C206.271 81.3708 206.286 78.9013 206.291 76.4319C206.296 73.9216 206.373 71.4061 206.255 68.9008C206.184 67.3126 205.897 65.7552 205.846 64.167C205.758 61.4517 206.107 58.7773 205.789 56.0569C205.369 52.4655 203.981 48.6948 201.773 45.8053C197.496 40.2005 191.657 36.0251 186.913 30.8558C185.499 29.3137 183.404 27.4129 183.071 25.2048C182.738 25.9067 182.221 26.3319 181.658 26.8699C180.146 28.3095 178.599 29.7184 177.134 31.2041C175.505 32.8589 174.886 33.2381 175.859 35.3642C176.919 37.6696 176.704 40.2005 173.959 40.7334C174.266 41.717 175.48 42.7365 176.038 43.6587C176.822 44.9549 178.845 47.1732 178.569 48.8844C177.713 48.121 174.957 47.6497 174.788 49.3557C175.721 49.8014 176.11 50.821 176.684 51.6253C177.078 52.1786 178.61 53.2648 178.507 54.0537C178.031 54.0537 177.785 53.7156 177.314 53.7156C177.191 54.2843 177.852 54.5711 178.133 54.9708C178.748 55.8519 179.091 57.1892 178.656 58.2292C178.2 59.3204 176.325 60.9752 175.172 61.2826C174.061 61.5798 170.608 61.1187 169.384 60.0121C169.256 61.3441 168.083 63.875 167.904 64.1772C167.468 64.9201 166.956 66.3341 165.927 65.7295C165.491 65.4734 164.789 64.0338 164.523 63.6956C163.785 62.7632 162.915 61.882 161.926 61.2263C160.328 60.1606 159.524 60.4219 157.925 61.2263C156.568 61.9076 156.691 63.4548 155.543 64.336C154.089 65.4478 151.476 65.1148 149.786 65.0738C147.906 65.0277 146.4 64.7305 145.529 62.9937C144.658 61.257 144.945 59.1923 144.039 57.4607C142.661 57.4812 141.549 58.5519 140.232 58.6902C139.403 58.7824 138.916 58.3521 138.271 57.8808C137.139 57.0559 135.981 56.2977 134.772 55.5651C133.988 55.0886 133.21 54.7658 132.38 54.4072C132.088 54.2791 131.366 53.8078 131.053 53.7412C130.5 53.6285 129.814 53.9718 129.265 54.0998C128.328 54.3253 127.36 54.4072 126.412 54.5865C126.422 55.0374 126.827 55.4678 127.053 55.852C127.652 56.8766 128.092 57.9832 128.538 59.0847C128.897 59.9608 129.542 61.1238 129.373 62.1177C129.245 62.8708 129.532 62.5788 128.892 62.9016C128.318 63.1885 127.094 63.0655 126.448 63.1475C125.239 63.3012 123.79 63.0859 122.642 63.4292C122.489 64.0081 122.816 63.8852 122.939 64.4437C123.072 65.0584 123.021 65.7091 123.139 66.329C123.39 67.6149 123.836 68.0862 122.196 67.9786C118.093 67.7122 114.595 64.9508 110.62 64.254C109.816 64.1157 108.31 64.2438 107.572 63.6854C106.988 63.2396 106.87 62.3072 106.645 61.6566C105.994 59.7815 104.75 58.5519 103.285 57.2762C102.824 56.8766 100.175 55.4319 99.5708 55.8366C99.3659 55.9749 99.0842 57.4607 99.0637 57.6707C98.9766 58.4187 99.3044 59.2897 99.0175 60.0069C98.3209 61.7335 95.9389 61.2467 94.4841 61.2467C93.2906 61.2467 92.092 61.2518 90.8984 61.2467C90.3811 61.2467 89.4847 61.0418 89.1261 61.3953C89.6588 62.6659 90.0942 63.4907 89.7459 64.956C89.5615 65.7245 89.3617 66.5903 88.5933 66.0933C87.6662 65.499 86.8569 63.7674 86.4676 62.8144C85.9093 61.4312 85.2433 60.6064 83.8602 59.9608C83.1431 59.6278 78.4459 58.014 78.4203 59.9813C78.4101 60.8625 80.1158 62.3584 80.5512 63.1064C81.1966 64.2284 82.3339 66.2111 81.796 67.5432C80.7203 67.8813 79.1682 66.9079 78.0515 66.7798C76.9655 66.6569 75.8027 67.0924 74.7014 67.1333C73.6974 67.1692 73.4413 67.1641 72.7703 66.2983C71.8124 65.0687 71.1874 63.7366 70.419 62.3944C69.3075 60.4527 67.2535 59.2077 64.9996 59.0847C64.1749 59.0386 61.6802 58.7415 61.6444 59.72C61.6085 60.6371 65.4196 65.4427 63.6166 65.4529C63.1094 65.4529 62.1975 64.8074 61.7007 64.6127C60.9272 64.3053 59.9949 63.7878 59.16 63.8134C58.0023 63.8544 56.5117 64.6844 55.8355 65.6014C54.7188 67.1077 54.9237 69.1672 54.9391 70.9245C54.9391 71.5598 55.3591 74.2956 54.7035 74.7106C53.5202 75.4585 51.2356 73.1121 50.5288 72.4973C48.8588 71.0475 47.6909 69.7154 45.6727 71.3651C43.5162 73.1275 43.5469 75.5867 43.5776 78.0817C43.5878 79.1678 43.5468 80.2949 43.6851 81.381C43.9618 83.5737 45.3192 85.1312 46.5384 86.8885C48.6027 87.3086 49.0688 87.0832 49.9242 87.2881C50.6516 87.4623 50.9078 87.7338 51.794 87.7287C53.93 87.7133 55.9637 87.324 58.0997 87.3035C60.164 87.283 62.1156 87.7492 64.1492 88.0412C68.0934 88.6099 71.7611 88.3844 75.7259 87.8875C80.6076 87.2727 85.397 86.243 90.3145 85.8741C95.0425 85.5206 99.7602 85.5974 104.498 85.6282C116.029 85.6999 127.375 84.9109 138.86 83.958C150.698 82.9743 162.52 84.0195 174.363 84.4601C181.821 84.7367 189.162 85.6384 196.625 85.6282C198.669 85.6282 200.713 85.6332 202.752 85.6435C203.52 85.6435 205.415 85.9816 206.01 85.3361C206.491 84.8084 206.327 84.8443 206.312 83.835L206.301 83.8402Z" fill="#2C8781"/>
</g>
</svg>
