<svg width="209" height="65" viewBox="0 0 209 65" fill="none" xmlns="http://www.w3.org/2000/svg">
<path d="M200.503 63.6268C204.493 62.9352 207.449 59.3079 201.041 58.8622C199.955 58.6163 196.062 59.728 198.653 58.1552C203.008 55.3118 210.891 50.3218 208.314 45.9415C206.388 42.4167 201.476 43.5182 198.285 43.8358C198.264 43.8256 198.254 43.8102 198.254 43.7948C198.587 43.3337 201.645 41.6789 202.229 40.8695C205.436 38.2156 205.016 34.3784 201.235 33.2666C198.346 32.3649 193.741 34.2605 190.842 34.9778C190.729 34.6652 191.564 33.8404 192.312 32.8926C194.013 30.8433 196.01 28.3637 197.204 25.9609C201.338 16.3036 186.816 21.3141 182.979 24.9567C181.913 25.9045 181.939 25.7611 182.615 24.7467C185.494 20.1204 192.578 11.0369 188.419 6.75906C184.751 4.24868 178.036 11.2572 174.281 13.9674C173.154 14.7 173.789 13.117 174.045 11.8259C174.501 9.377 175.802 5.04275 172.842 3.84904C169.963 3.20351 167.381 10.0635 164.451 13.035C162.51 15.0484 163.683 11.872 163.826 10.8884C165.501 2.87565 162.366 -1.1717 158.801 4.79685C157.546 6.6822 156.87 9.34114 155.958 11.1599C155.712 11.3802 155.63 10.125 155.451 9.5717C154.888 7.53778 153.966 2.75781 151.092 3.48531C148.31 4.83272 150.057 12.6149 149.335 16.1448C148.31 14.4336 147.87 11.1138 146.968 9.10547C146.579 7.589 145.283 6.29283 144.023 7.6761C142.03 9.73564 143.849 14.1006 144.51 17.4512C144.837 18.7474 144.366 19.731 143.101 18.6244C140.063 16.0167 141.175 8.67512 138.096 7.05105C132.574 5.34502 141.892 21.0938 136.17 24.1012C135.719 24.4598 134.521 25.3461 134.362 24.3983C135.079 20.187 135.233 14.9306 133.609 10.8371C133.148 9.23355 131.683 9.12086 130.474 10.0892C125.183 13.6344 127.641 20.7096 127.262 26.258C125.28 23.2558 124.614 19.2085 122.97 16.0526C122.78 15.653 122.458 15.1765 122.073 15.0689C119.435 15.5915 119.456 21.4371 118.984 23.7425C118.913 24.1575 118.805 24.4957 118.657 23.9167C117.832 19.7823 115.942 10.9601 111.265 11.9847C104.934 13.7471 110.025 21.5805 112.336 26.9292C112.356 27.1392 112.08 26.9445 111.598 26.5859C110.492 25.6893 108.939 25.0131 107.654 25.8021C103.161 28.4303 114.917 43.0366 111.608 39.5989C108.648 35.9563 104.591 32.0883 100.344 36.5711C99.0225 38.0722 97.5729 40.9617 95.9081 41.8634C98.7664 38.0671 101.922 30.2285 101.476 24.8901C101.159 20.3971 93.5979 27.4517 91.7897 29.0553C89.167 31.5247 90.3195 30.3259 91.4874 28.0819C92.8448 25.6842 97.8905 15.9245 91.5592 17.5947C88.7162 19.024 86.0525 25.8021 84.6899 29.3627C83.1942 33.7687 85.6069 19.2546 82.5437 15.7554C82.0161 14.7462 80.8021 14.4592 80.0132 15.3558C77.6979 17.6561 77.5903 22.1595 77.5134 25.7047C77.5083 26.2171 77.493 28.0102 77.0371 26.6218C75.8589 23.2302 74.3171 10.7398 69.8759 14.531C68.0063 17.8764 68.8361 23.3122 68.8514 26.8831C68.8514 26.6935 68.6312 25.9148 68.6005 25.551C68.2521 23.7425 66.0393 16.7084 64.1286 16.5188C63.7239 16.5598 63.2731 16.9594 62.9658 17.2975C60.1433 20.3971 57.8382 24.6032 54.4677 27.2468C53.5456 28.0256 52.8336 28.0102 53.3356 26.5603C54.4626 23.0202 56.5782 19.2495 56.8343 15.6632C57.0904 14.3209 55.9788 13.4449 54.7084 13.8291C51.1893 14.4695 47.7881 17.6357 45.693 20.5508C44.9195 21.5191 45.6879 19.8642 45.7954 19.5159C46.8097 16.7493 49.6372 10.4939 47.1528 8.20378C45.0731 7.87077 43.0447 10.5195 42.22 12.287C41.5592 13.8342 41.2262 12.7327 41.0675 11.8823C40.3196 8.378 40.3964 4.44335 39.1722 1.07739C38.9007 0.0373745 37.7686 -0.34175 37.0976 0.590676C35.1511 2.77317 35.5916 6.90761 35.653 10.1967C35.6838 10.6322 35.6838 12.4458 35.4072 11.0728C34.7003 7.23551 33.6962 0.928825 30.131 0.0630006C28.9119 -0.254639 28.1385 0.667547 28.1385 1.9586C28.0565 3.66463 28.036 5.44238 28.2768 7.13304C28.3587 7.91177 28.5124 8.51119 28.1692 8.32163C24.1225 2.88589 14.5692 -2.19124 16.4901 6.53873C17.1509 9.34626 18.3547 11.831 19.6814 14.2953C19.8863 14.7769 20.3729 15.4173 20.46 15.822C17.781 12.9428 10.84 7.27138 7.72559 9.70491C4.79557 12.8352 9.63111 16.693 11.675 18.9933C12.8531 20.2331 14.436 21.3141 12.0387 21.2014C9.55438 21.1861 6.40401 20.684 4.14502 22.0519C2.95662 22.8152 2.74661 24.6186 3.63791 25.6893C4.82119 27.0572 6.77282 27.2724 8.49908 27.3903C9.03693 27.544 11.9824 27.1341 11.8953 27.421C11.8185 27.4825 11.6443 27.5644 11.3984 27.6772C8.97554 28.21 -1.70476 36.3456 3.39717 36.8324C6.63454 37.1193 9.77459 36.817 13.012 36.7197C13.4064 36.7402 14.3592 36.5967 14.4514 37.0014C11.6392 39.189 7.18268 38.1183 3.95043 39.1429C-5.42359 42.6319 4.19629 46.6587 9.05747 47.9139C10.753 48.4518 12.5407 48.6209 10.1639 49.2203C8.13027 49.8556 5.55373 51.1671 4.44729 52.7502C3.27426 54.4255 3.92477 56.7463 6.33231 56.3979C7.72048 56.3211 9.30338 55.819 10.6301 55.3477C11.378 55.112 13.0991 54.2974 12.5151 54.8815C10.0256 56.7463 7.42346 60.9013 10.6352 63.2323C12.8686 64.6105 17.5914 64.0264 18.749 63.8061C23.641 63.5244 196 64.0162 200.451 63.6371L200.498 63.6268H200.503Z" fill="#32817E"/>
<mask id="mask0_72_13200" style="mask-type:luminance" maskUnits="userSpaceOnUse" x="0" y="0" width="209" height="65">
<path d="M200.503 63.6268C204.493 62.9352 207.449 59.3079 201.041 58.8622C199.955 58.6163 196.062 59.728 198.653 58.1552C203.008 55.3118 210.891 50.3218 208.314 45.9415C206.388 42.4167 201.476 43.5182 198.285 43.8358C198.264 43.8256 198.254 43.8102 198.254 43.7948C198.587 43.3337 201.645 41.6789 202.229 40.8695C205.436 38.2156 205.016 34.3784 201.235 33.2666C198.346 32.3649 193.741 34.2605 190.842 34.9778C190.729 34.6652 191.564 33.8404 192.312 32.8926C194.013 30.8433 196.01 28.3637 197.204 25.9609C201.338 16.3036 186.816 21.3141 182.979 24.9567C181.913 25.9045 181.939 25.7611 182.615 24.7467C185.494 20.1204 192.578 11.0369 188.419 6.75906C184.751 4.24868 178.036 11.2572 174.281 13.9674C173.154 14.7 173.789 13.117 174.045 11.8259C174.501 9.377 175.802 5.04275 172.842 3.84904C169.963 3.20351 167.381 10.0635 164.451 13.035C162.51 15.0484 163.683 11.872 163.826 10.8884C165.501 2.87565 162.366 -1.1717 158.801 4.79685C157.546 6.6822 156.87 9.34114 155.958 11.1599C155.712 11.3802 155.63 10.125 155.451 9.5717C154.888 7.53778 153.966 2.75781 151.092 3.48531C148.31 4.83272 150.057 12.6149 149.335 16.1448C148.31 14.4336 147.87 11.1138 146.968 9.10547C146.579 7.589 145.283 6.29283 144.023 7.6761C142.03 9.73564 143.849 14.1006 144.51 17.4512C144.837 18.7474 144.366 19.731 143.101 18.6244C140.063 16.0167 141.175 8.67512 138.096 7.05105C132.574 5.34502 141.892 21.0938 136.17 24.1012C135.719 24.4598 134.521 25.3461 134.362 24.3983C135.079 20.187 135.233 14.9306 133.609 10.8371C133.148 9.23355 131.683 9.12086 130.474 10.0892C125.183 13.6344 127.641 20.7096 127.262 26.258C125.28 23.2558 124.614 19.2085 122.97 16.0526C122.78 15.653 122.458 15.1765 122.073 15.0689C119.435 15.5915 119.456 21.4371 118.984 23.7425C118.913 24.1575 118.805 24.4957 118.657 23.9167C117.832 19.7823 115.942 10.9601 111.265 11.9847C104.934 13.7471 110.025 21.5805 112.336 26.9292C112.356 27.1392 112.08 26.9445 111.598 26.5859C110.492 25.6893 108.939 25.0131 107.654 25.8021C103.161 28.4303 114.917 43.0366 111.608 39.5989C108.648 35.9563 104.591 32.0883 100.344 36.5711C99.0225 38.0722 97.5729 40.9617 95.9081 41.8634C98.7664 38.0671 101.922 30.2285 101.476 24.8901C101.159 20.3971 93.5979 27.4517 91.7897 29.0553C89.167 31.5247 90.3195 30.3259 91.4874 28.0819C92.8448 25.6842 97.8905 15.9245 91.5592 17.5947C88.7162 19.024 86.0525 25.8021 84.6899 29.3627C83.1942 33.7687 85.6069 19.2546 82.5437 15.7554C82.0161 14.7462 80.8021 14.4592 80.0132 15.3558C77.6979 17.6561 77.5903 22.1595 77.5134 25.7047C77.5083 26.2171 77.493 28.0102 77.0371 26.6218C75.8589 23.2302 74.3171 10.7398 69.8759 14.531C68.0063 17.8764 68.8361 23.3122 68.8514 26.8831C68.8514 26.6935 68.6312 25.9148 68.6005 25.551C68.2521 23.7425 66.0393 16.7084 64.1286 16.5188C63.7239 16.5598 63.2731 16.9594 62.9658 17.2975C60.1433 20.3971 57.8382 24.6032 54.4677 27.2468C53.5456 28.0256 52.8336 28.0102 53.3356 26.5603C54.4626 23.0202 56.5782 19.2495 56.8343 15.6632C57.0904 14.3209 55.9788 13.4449 54.7084 13.8291C51.1893 14.4695 47.7881 17.6357 45.693 20.5508C44.9195 21.5191 45.6879 19.8642 45.7954 19.5159C46.8097 16.7493 49.6372 10.4939 47.1528 8.20378C45.0731 7.87077 43.0447 10.5195 42.22 12.287C41.5592 13.8342 41.2262 12.7327 41.0675 11.8823C40.3196 8.378 40.3964 4.44335 39.1722 1.07739C38.9007 0.0373745 37.7686 -0.34175 37.0976 0.590676C35.1511 2.77317 35.5916 6.90761 35.653 10.1967C35.6838 10.6322 35.6838 12.4458 35.4072 11.0728C34.7003 7.23551 33.6962 0.928825 30.131 0.0630006C28.9119 -0.254639 28.1385 0.667547 28.1385 1.9586C28.0565 3.66463 28.036 5.44238 28.2768 7.13304C28.3587 7.91177 28.5124 8.51119 28.1692 8.32163C24.1225 2.88589 14.5692 -2.19124 16.4901 6.53873C17.1509 9.34626 18.3547 11.831 19.6814 14.2953C19.8863 14.7769 20.3729 15.4173 20.46 15.822C17.781 12.9428 10.84 7.27138 7.72559 9.70491C4.79557 12.8352 9.63111 16.693 11.675 18.9933C12.8531 20.2331 14.436 21.3141 12.0387 21.2014C9.55438 21.1861 6.40401 20.684 4.14502 22.0519C2.95662 22.8152 2.74661 24.6186 3.63791 25.6893C4.82119 27.0572 6.77282 27.2724 8.49908 27.3903C9.03693 27.544 11.9824 27.1341 11.8953 27.421C11.8185 27.4825 11.6443 27.5644 11.3984 27.6772C8.97554 28.21 -1.70476 36.3456 3.39717 36.8324C6.63454 37.1193 9.77459 36.817 13.012 36.7197C13.4064 36.7402 14.3592 36.5967 14.4514 37.0014C11.6392 39.189 7.18268 38.1183 3.95043 39.1429C-5.42359 42.6319 4.19629 46.6587 9.05747 47.9139C10.753 48.4518 12.5407 48.6209 10.1639 49.2203C8.13027 49.8556 5.55373 51.1671 4.44729 52.7502C3.27426 54.4255 3.92477 56.7463 6.33231 56.3979C7.72048 56.3211 9.30338 55.819 10.6301 55.3477C11.378 55.112 13.0991 54.2974 12.5151 54.8815C10.0256 56.7463 7.42346 60.9013 10.6352 63.2323C12.8686 64.6105 17.5914 64.0264 18.749 63.8061C23.641 63.5244 196 64.0162 200.451 63.6371L200.498 63.6268H200.503Z" fill="white"/>
</mask>
<g mask="url(#mask0_72_13200)">
<path d="M216.526 65.046C215.86 65.087 215.219 65.5635 214.579 65.4969C216.474 63.9036 218.636 62.7764 219.845 60.4659C221.392 57.5046 219.983 55.855 217.391 54.3283C214.81 52.8118 212.279 52.2585 209.37 52.8835C208.509 53.0679 207.715 53.5957 206.906 53.7647C207.428 51.987 208.929 50.3065 209.841 48.7081C210.84 46.956 211.813 43.7539 209.446 42.6678C206.875 41.4895 203.003 42.8113 200.754 45.0501C201.358 43.5695 201.881 41.9044 201.983 41.5561C202.429 39.9474 202.982 36.9964 200.877 36.2996C199.555 35.8642 197.516 36.6121 196.287 37.0989C195.15 37.5497 194.228 38.1184 193.444 39.0713C192.343 40.4136 191.81 42.0479 191.072 43.6002C191.298 42.8112 191.743 42.094 191.994 41.3102C192.558 39.5683 192.553 37.729 192.368 35.9256C192.112 33.4409 191.641 29.8649 188.537 29.6753C187.108 29.5882 185.638 30.9715 184.797 31.9398C183.102 33.902 182.344 36.566 181.719 39.0559C181.207 41.1052 180.828 43.2109 180.858 45.3216C180.868 45.921 181.053 46.7971 180.868 47.3863C180.361 47.0225 180.295 45.378 180.177 44.7632C179.772 42.6883 179.731 40.5724 179.337 38.4924C179.014 36.812 178.374 31.9244 175.72 32.8158C174.322 33.2872 172.872 35.3006 172.176 36.4328C171.192 38.0262 170.434 39.6246 170.393 41.5356C170.352 43.2058 170.506 44.8708 170.573 46.541C170.593 47.0379 170.757 48.0267 170.588 48.58C169.384 46.1209 168.923 43.6156 167.156 41.3921C165.788 39.6656 163.57 38.8305 161.572 40.0447C158.791 41.7354 158.827 44.6966 158.899 47.6168C158.945 49.4817 158.996 51.3722 159.298 53.2114C159.39 53.7852 159.667 54.5178 159.508 55.1019C158.77 54.9482 158.038 53.3958 157.777 52.9655C156.993 51.6693 156.235 50.3526 155.246 49.1897C153.863 47.5553 152.542 45.9006 150.411 47.0021C147.317 48.6005 147.23 53.0167 147.578 56.0394C146.989 54.7842 146.497 53.0833 145.596 52.074C143.977 50.2707 140.893 49.6149 138.537 49.7584C136.437 49.8864 133.87 50.952 133.466 53.2626C133.256 54.4563 133.845 55.7884 133.522 56.9565C133.163 56.854 132.779 55.7371 132.615 55.3836C132.037 54.1028 131.985 52.6068 131.36 51.367C130.218 49.0923 127.723 48.7696 125.567 49.6303C123.011 50.6498 120.947 52.8425 119.61 55.1787C119.072 56.1163 118.734 57.643 117.919 58.4012C118.595 56.4903 119.133 54.3385 119.374 52.3353C119.466 51.5668 119.589 49.8454 118.969 49.1794C118.411 48.58 117.468 48.7747 116.756 48.8362C114.549 49.0411 113.304 49.8813 112.469 51.1058C112.684 50.3731 112.863 49.6354 112.991 48.913C113.263 47.3709 113.263 45.9979 113.079 44.4507C113.012 43.9025 113.002 41.7712 112.382 41.2589C108.781 42.3143 105.154 45.3524 103.674 48.7798C103.325 49.579 103.11 50.3424 102.977 51.1109C102.926 49.7635 102.588 48.3956 102.367 47.0635C102.127 45.588 102.076 43.1442 101.041 41.9864C100.252 41.1052 99.7039 41.2026 98.6077 41.72C96.7738 42.5858 94.8427 44.4507 94.2485 46.459C93.7721 48.0677 93.9667 49.4509 94.3458 51.0596C94.6634 52.4019 94.8887 53.7493 95.0936 55.1121C95.1602 55.5681 95.3548 56.1675 95.1602 56.6081C94.5916 56.644 94.2433 55.3017 94.0538 54.8867C93.0908 52.7862 92.1585 50.5832 90.9035 48.6312C90.3964 47.8371 89.7304 46.3412 89.0235 45.7827C88.4344 45.3216 88.2706 45.6137 87.7174 46.2028C86.4675 47.5349 85.817 49.0411 86.0167 50.8701C86.1345 51.9613 86.4163 53.0884 86.6878 54.1438C86.9644 55.2146 87.2512 56.3417 87.7378 57.3407C87.8915 57.6584 88.7777 58.6728 88.5831 59.1287C86.6109 58.0426 84.9615 56.3519 83.3223 54.8355C82.2978 53.8877 81.2017 52.7401 79.916 53.9491C78.0514 55.7013 79.6034 59.0775 80.5767 60.8142C81.0172 61.6032 81.4526 62.5101 82.1185 63.1453C82.5488 63.5501 83.0969 63.837 83.5477 64.2263C82.7537 63.6167 81.55 63.2017 80.6587 62.7047C79.1169 61.844 76.9245 60.5376 75.1521 61.4649C72.7548 62.7201 74.7884 66.7265 75.7565 68.202C76.2534 68.9602 76.7144 69.7902 77.2676 70.5023C78.4714 72.0444 80.4333 72.8077 82.1339 73.7248L218.477 72.0136C218.472 71.9522 218.462 71.8958 218.457 71.8343C220.337 71.4757 220.839 68.0995 220.065 66.6496C219.42 65.4354 217.837 64.9538 216.536 65.0358L216.526 65.046Z" fill="#1F6B6F"/>
</g>
</svg>
