<svg width="471" height="471" viewBox="0 0 471 471" fill="none" xmlns="http://www.w3.org/2000/svg">
<path d="M206.94 399.344C212.524 394.508 217.66 389.391 222.326 384.055C226.032 390.097 230.239 395.998 234.922 401.707C225.557 401.707 216.183 400.923 206.94 399.341V399.344Z" fill="white"/>
<path d="M179.75 392.254C186.079 388.443 192.012 384.277 197.515 379.814C200.137 386.398 203.279 392.927 206.939 399.344C197.696 397.766 188.587 395.392 179.75 392.257V392.254Z" fill="white"/>
<path d="M154.549 380.842C161.428 378.146 167.979 375.039 174.155 371.564C175.631 378.493 177.628 385.461 180.155 392.401C171.307 389.288 162.732 385.417 154.546 380.842H154.549Z" fill="white"/>
<path d="M131.289 365.105C138.524 363.612 145.506 361.658 152.185 359.287C152.463 366.367 153.245 373.571 154.549 380.842C146.365 376.27 138.577 370.997 131.289 365.105Z" fill="white"/>
<path d="M111.028 345.669C118.411 345.416 125.624 344.671 132.609 343.459C131.685 350.486 131.238 357.72 131.291 365.102C124.003 359.213 117.218 352.703 111.028 345.669Z" fill="white"/>
<path d="M94.3359 323.092C101.657 324.092 108.89 324.573 115.98 324.559C113.884 331.33 112.221 338.384 111.028 345.669C104.838 338.634 99.2465 331.074 94.3359 323.092Z" fill="white"/>
<path d="M81.877 298.403C88.9258 300.618 95.9774 302.302 102.968 303.472C99.7701 309.795 96.9506 316.474 94.562 323.462C89.6293 315.493 85.3777 307.099 81.877 298.405V298.403Z" fill="white"/>
<path d="M73.6562 271.542C80.2212 274.931 86.8808 277.796 93.5709 280.139C89.3388 285.823 85.4237 291.921 81.8785 298.402C78.3749 289.709 75.6221 280.709 73.6562 271.542Z" fill="white"/>
<path d="M70.1357 243.691C76.0306 248.138 82.1062 252.095 88.2986 255.545C83.1601 260.425 78.2579 265.764 73.656 271.543C71.6901 262.376 70.5167 253.046 70.1357 243.688V243.691Z" fill="white"/>
<path d="M71.3502 215.655C76.4165 221.03 81.7441 225.944 87.2691 230.385C81.3854 234.338 75.6518 238.779 70.1407 243.688C69.7569 234.335 70.1574 224.949 71.353 215.652L71.3502 215.655Z" fill="white"/>
<path d="M77.1713 188.62C81.2616 194.771 85.6883 200.51 90.3958 205.808C83.9337 208.718 77.5467 212.147 71.2959 216.083C72.4665 206.786 74.4324 197.583 77.1741 188.62H77.1713Z" fill="white"/>
<path d="M87.6536 162.56C90.6344 169.317 94.0128 175.729 97.7444 181.755C90.8791 183.517 83.9999 185.804 77.168 188.62C79.9069 179.654 83.4215 170.926 87.6536 162.563V162.56Z" fill="white"/>
<path d="M102.422 138.674C104.213 145.837 106.454 152.733 109.104 159.303C102.038 159.873 94.8701 160.954 87.6572 162.561C91.8893 154.197 96.836 146.198 102.422 138.674Z" fill="white"/>
<path d="M121.01 117.637C121.566 125 122.609 132.171 124.108 139.1C117.045 138.469 109.799 138.319 102.419 138.677C108.005 131.156 114.234 124.111 121.01 117.637Z" fill="white"/>
<path d="M142.53 100.277C141.851 107.631 141.69 114.874 142.015 121.954C135.156 120.158 128.034 118.807 120.699 117.935C127.459 111.448 134.769 105.53 142.53 100.277Z" fill="white"/>
<path d="M167.046 86.5667C165.127 93.6986 163.737 100.811 162.858 107.843C156.404 104.913 149.611 102.376 142.529 100.277C150.29 95.0216 158.501 90.4273 167.046 86.5667Z" fill="white"/>
<path d="M193.551 77.2335C190.439 83.9318 187.853 90.7024 185.79 97.4813C179.931 93.4929 173.672 89.838 167.046 86.5667C175.591 82.7061 184.469 79.5765 193.551 77.2335Z" fill="white"/>
<path d="M221.251 72.5587C217.05 78.6316 213.343 84.8602 210.154 91.1888C205.062 86.2582 199.521 81.5861 193.551 77.2336C202.629 74.8878 211.911 73.3258 221.251 72.5587Z" fill="white"/>
<path d="M248.894 72.5832C243.747 77.8779 239.068 83.4145 234.863 89.1233C230.656 83.42 225.974 77.8863 220.821 72.5943C230.161 71.805 239.551 71.8022 248.891 72.5832H248.894Z" fill="white"/>
<path d="M276.588 77.3085C270.613 81.6499 265.06 86.3137 259.96 91.2332C256.782 84.9018 253.09 78.6648 248.896 72.5836C258.237 73.3646 267.513 74.946 276.588 77.3085Z" fill="white"/>
<path d="M303.072 86.6917C296.44 89.9491 290.173 93.5929 284.309 97.5702C282.259 90.7885 279.687 84.0123 276.587 77.3085C285.663 79.6709 294.536 82.8144 303.072 86.6917Z" fill="white"/>
<path d="M327.564 100.447C320.476 102.532 313.68 105.055 307.221 107.974C306.359 100.942 304.98 93.8265 303.075 86.689C311.612 90.5663 319.814 95.1745 327.567 100.444L327.564 100.447Z" fill="white"/>
<path d="M349.049 117.849C341.717 118.727 334.593 120.083 327.736 121.884C328.059 114.805 327.889 107.559 327.205 100.208C334.971 105.455 342.284 111.367 349.049 117.849Z" fill="white"/>
<path d="M367.601 138.919C360.221 138.547 352.975 138.683 345.912 139.303C347.422 132.379 348.481 125.208 349.049 117.849C355.814 124.333 362.028 131.387 367.601 138.922V138.919Z" fill="white"/>
<path d="M382.325 162.833C375.118 161.212 367.949 160.12 360.884 159.536C363.545 152.969 365.797 146.081 367.602 138.919C373.177 146.451 378.11 154.458 382.325 162.833Z" fill="white"/>
<path d="M392.762 188.909C385.935 186.082 379.059 183.784 372.196 182.008C375.939 175.99 379.331 169.584 382.323 162.833C386.539 171.204 390.037 179.94 392.762 188.909Z" fill="white"/>
<path d="M398.535 215.955C392.279 212.025 385.891 208.601 379.424 205.694C384.126 200.391 388.55 194.648 392.634 188.495C395.382 197.458 397.356 206.658 398.532 215.955H398.535Z" fill="white"/>
<path d="M399.692 243.993C394.187 239.074 388.464 234.624 382.586 230.658C388.119 226.225 393.455 221.319 398.533 215.955C399.709 225.252 400.093 234.638 399.692 243.993Z" fill="white"/>
<path d="M396.121 271.84C391.53 266.053 386.639 260.703 381.509 255.814C387.707 252.373 393.788 248.427 399.691 243.994C399.294 253.349 398.103 262.679 396.121 271.84Z" fill="white"/>
<path d="M387.85 298.683C384.316 292.196 380.412 286.09 376.191 280.398C382.884 278.069 389.549 275.214 396.123 271.84C394.143 281.001 391.371 289.995 387.85 298.683Z" fill="white"/>
<path d="M375.345 323.351C372.948 316.366 370.126 309.69 366.923 303.37C373.913 302.197 380.962 300.507 388.011 298.286C384.516 306.986 380.27 315.379 375.345 323.353V323.351Z" fill="white"/>
<path d="M358.613 345.899C357.434 338.612 355.782 331.552 353.699 324.779C360.79 324.807 368.022 324.34 375.346 323.35C370.422 331.324 364.816 338.873 358.613 345.897V345.899Z" fill="white"/>
<path d="M338.554 365.105C338.607 357.72 338.159 350.488 337.236 343.462C344.221 344.674 351.434 345.419 358.817 345.672C352.63 352.706 345.842 359.215 338.554 365.105Z" fill="white"/>
<path d="M315.292 380.842C316.596 373.574 317.377 366.369 317.656 359.287C324.334 361.661 331.317 363.612 338.552 365.105C331.264 370.997 323.475 376.267 315.292 380.842Z" fill="white"/>
<path d="M289.685 392.399C292.212 385.458 294.209 378.49 295.685 371.561C301.861 375.036 308.412 378.143 315.291 380.839C307.108 385.411 298.53 389.286 289.685 392.399Z" fill="white"/>
<path d="M262.902 399.344C266.561 392.927 269.704 386.398 272.326 379.814C277.828 384.28 283.762 388.443 290.091 392.254C281.251 395.389 272.142 397.763 262.899 399.341L262.902 399.344Z" fill="white"/>
<path d="M234.92 401.707C239.602 395.998 243.81 390.097 247.516 384.055C252.182 389.389 257.318 394.505 262.901 399.344C253.658 400.926 244.285 401.707 234.92 401.71V401.707Z" fill="white"/>
<path d="M432.175 271.185C429.036 270.627 426.384 269.054 424.495 267.665C422.605 266.274 421.485 265.048 421.487 265.048C421.487 265.048 422.924 264.212 425.14 263.45C427.359 262.692 430.364 261.986 433.525 262.394C436.686 262.801 439.403 264.299 441.309 265.743C443.218 267.182 444.313 268.548 444.313 268.548C444.313 268.548 442.857 269.52 440.607 270.322C438.357 271.129 435.316 271.744 432.178 271.188L432.175 271.185Z" fill="#50B848"/>
<path d="M425.075 260.748C422.157 262.692 418.61 263.343 415.804 263.525C412.998 263.704 410.93 263.424 410.93 263.427C410.93 263.427 411.248 261.779 412.246 259.664C413.252 257.549 414.921 254.954 417.752 252.998C420.583 251.046 424.057 250.104 426.847 249.668C429.63 249.23 431.715 249.308 431.715 249.311C431.715 249.311 431.542 251.177 430.614 253.554C429.692 255.929 427.993 258.804 425.075 260.748Z" fill="#50B848"/>
<path d="M423.62 270.222C421.42 267.492 418.229 265.808 415.607 264.793C412.983 263.782 410.926 263.427 410.926 263.427C410.926 263.427 410.733 265.095 411.054 267.411C411.378 269.73 412.194 272.702 414.31 275.418C416.42 278.128 419.461 280.069 421.985 281.321C424.512 282.575 426.524 283.128 426.524 283.125C426.524 283.125 426.924 281.293 426.747 278.745C426.58 276.2 425.82 272.948 423.62 270.222Z" fill="#50B848"/>
<path d="M433.285 259.863C432.217 259.737 431.446 258.857 431.549 257.901C431.653 256.946 432.597 256.253 433.665 256.359C434.736 256.466 435.521 257.343 435.415 258.323C435.308 259.301 434.35 259.991 433.282 259.863H433.285Z" fill="#50B848"/>
<path d="M430.502 276.982C429.451 276.761 428.758 275.82 428.946 274.876C429.133 273.931 430.133 273.328 431.19 273.523C432.246 273.722 432.953 274.666 432.763 275.633C432.571 276.599 431.556 277.203 430.505 276.982H430.502Z" fill="#50B848"/>
<path d="M414.453 325.031C411.599 323.609 409.5 321.349 408.08 319.483C406.663 317.614 405.937 316.122 405.937 316.119C405.937 316.119 407.552 315.725 409.894 315.619C412.236 315.518 415.319 315.689 418.234 316.974C421.152 318.259 423.335 320.463 424.752 322.388C426.174 324.307 426.84 325.927 426.84 325.927C426.84 325.927 425.168 326.45 422.781 326.581C420.395 326.721 417.303 326.45 414.453 325.028V325.031Z" fill="#50B848"/>
<path d="M410.589 313.013C407.241 314.055 403.652 313.678 400.911 313.057C398.169 312.437 396.263 311.582 396.263 311.585C396.263 311.585 397.034 310.093 398.591 308.35C400.153 306.607 402.487 304.59 405.754 303.514C409.019 302.442 412.624 302.52 415.419 302.886C418.214 303.249 420.193 303.914 420.193 303.914C420.193 303.914 419.502 305.654 417.937 307.674C416.38 309.694 413.938 311.971 410.589 313.01V313.013Z" fill="#50B848"/>
<path d="M406.516 321.69C405.181 318.449 402.592 315.932 400.368 314.22C398.137 312.507 396.265 311.588 396.265 311.585C396.265 311.585 395.608 313.13 395.261 315.443C394.915 317.757 394.859 320.846 396.117 324.042C397.377 327.241 399.739 329.959 401.81 331.873C403.875 333.787 405.65 334.887 405.653 334.885C405.653 334.885 406.55 333.239 407.106 330.747C407.662 328.258 407.858 324.928 406.519 321.687L406.516 321.69Z" fill="#50B848"/>
<path d="M418.714 314.484C417.728 314.06 417.236 313.001 417.605 312.113C417.974 311.224 419.078 310.828 420.07 311.23C421.068 311.632 421.574 312.699 421.196 313.607C420.816 314.515 419.701 314.906 418.714 314.482V314.484Z" fill="#50B848"/>
<path d="M411.207 330.118C410.259 329.61 409.862 328.512 410.307 327.66C410.754 326.807 411.883 326.509 412.842 326.997C413.798 327.484 414.211 328.593 413.753 329.464C413.297 330.336 412.151 330.626 411.204 330.121L411.207 330.118Z" fill="#50B848"/>
<path d="M390.53 295.801C393.342 288.49 395.628 280.981 397.367 273.343C401.559 278.316 405.533 283.615 409.253 289.228C403.037 291.817 396.782 294.008 390.53 295.801Z" fill="#50B848"/>
<path d="M421.48 298.047C420.046 297.569 417.027 295.293 414.327 293.214C411.628 291.127 409.252 289.23 409.252 289.23C409.252 289.23 412.282 288.976 415.686 288.747C419.087 288.526 422.863 288.314 424.319 288.716C425.775 289.119 426.949 290.013 427.656 291.152C428.361 292.289 428.598 293.67 428.196 294.994C427.79 296.321 426.826 297.332 425.605 297.885C424.383 298.436 422.913 298.528 421.477 298.05L421.48 298.047Z" fill="white"/>
<path d="M382.274 371.679C379.935 369.514 378.554 366.757 377.713 364.569C376.877 362.376 376.598 360.742 376.598 360.742C376.598 360.742 378.258 360.814 380.536 361.373C382.814 361.935 385.72 362.963 388.16 365.016C390.6 367.069 392.073 369.796 392.895 372.039C393.722 374.28 393.906 376.02 393.906 376.02C393.906 376.02 392.157 376.051 389.829 375.509C387.501 374.973 384.608 373.847 382.269 371.682L382.274 371.679Z" fill="#50B848"/>
<path d="M381.942 359.063C378.437 359.124 375.097 357.75 372.641 356.389C370.181 355.023 368.594 353.671 368.591 353.671C368.591 353.671 369.748 352.453 371.735 351.218C373.725 349.98 376.537 348.704 379.972 348.586C383.409 348.475 386.844 349.561 389.421 350.704C392.001 351.841 393.714 353.034 393.711 353.034C393.711 353.031 392.557 354.509 390.489 356.006C388.426 357.507 385.444 359.004 381.936 359.06L381.942 359.063Z" fill="#50B848"/>
<path d="M375.597 366.248C375.222 362.762 373.447 359.622 371.79 357.353C370.13 355.085 368.59 353.674 368.593 353.674C368.593 353.674 367.528 354.973 366.544 357.096C365.563 359.222 364.641 362.17 364.951 365.592C365.264 369.014 366.773 372.288 368.221 374.705C369.669 377.121 371.066 378.672 371.066 378.672C371.066 378.672 372.388 377.345 373.618 375.107C374.85 372.878 375.968 369.732 375.594 366.248H375.597Z" fill="#50B848"/>
<path d="M389.327 362.759C388.497 362.075 388.324 360.921 388.928 360.172C389.534 359.424 390.7 359.354 391.544 360.022C392.388 360.689 392.572 361.854 391.954 362.62C391.337 363.385 390.155 363.447 389.327 362.762V362.759Z" fill="#50B848"/>
<path d="M377.735 375.652C376.969 374.901 376.894 373.733 377.562 373.04C378.229 372.347 379.398 372.378 380.18 373.115C380.963 373.85 381.047 375.029 380.365 375.739C379.683 376.448 378.503 376.406 377.735 375.652Z" fill="#50B848"/>
<path d="M367.537 336.904C372.3 330.671 376.621 324.103 380.452 317.264C383.066 323.22 385.377 329.431 387.361 335.865C380.665 336.596 374.046 336.94 367.537 336.907V336.904Z" fill="#50B848"/>
<path d="M396.602 347.771C395.361 346.908 393.109 343.871 391.105 341.116C389.104 338.353 387.362 335.861 387.362 335.861C387.362 335.861 390.342 336.473 393.673 337.214C396.999 337.959 400.68 338.825 401.966 339.622C403.248 340.421 404.12 341.608 404.478 342.901C404.833 344.189 404.674 345.581 403.911 346.737C403.151 347.894 401.938 348.595 400.613 348.779C399.285 348.964 397.846 348.637 396.605 347.774L396.602 347.771Z" fill="white"/>
<path d="M338.375 407.435C336.734 404.703 336.181 401.669 335.985 399.334C335.795 396.995 335.985 395.347 335.985 395.347C335.985 395.347 337.558 395.881 339.59 397.054C341.617 398.227 344.124 400.029 345.893 402.681C347.662 405.332 348.313 408.366 348.475 410.749C348.64 413.132 348.333 414.855 348.333 414.855C348.333 414.855 346.645 414.394 344.56 413.227C342.475 412.059 340.012 410.173 338.372 407.438L338.375 407.435Z" fill="#50B848"/>
<path d="M341.585 395.23C338.201 394.308 335.381 392.059 333.402 390.065C331.423 388.067 330.277 386.324 330.274 386.324C330.274 386.324 331.728 385.48 333.978 384.846C336.233 384.215 339.291 383.773 342.622 384.62C345.954 385.472 348.947 387.475 351.105 389.291C353.262 391.101 354.573 392.724 354.573 392.727C354.573 392.727 353.053 393.822 350.649 394.682C348.248 395.546 344.967 396.152 341.585 395.227V395.23Z" fill="#50B848"/>
<path d="M333.481 400.354C334.096 396.903 333.272 393.392 332.316 390.749C331.357 388.106 330.273 386.324 330.273 386.324C330.273 386.324 328.887 387.274 327.349 389.036C325.812 390.805 324.105 393.375 323.445 396.747C322.788 400.122 323.319 403.684 324.035 406.41C324.747 409.137 325.653 411.014 325.656 411.014C325.656 411.014 327.296 410.109 329.107 408.307C330.916 406.511 332.872 403.804 333.484 400.354H333.481Z" fill="#50B848"/>
<path d="M347.644 400.84C347.041 399.952 347.194 398.792 347.985 398.245C348.776 397.697 349.917 397.951 350.54 398.829C351.163 399.703 351.018 400.876 350.207 401.438C349.399 401.999 348.248 401.728 347.644 400.84Z" fill="#50B848"/>
<path d="M332.899 409.984C332.374 409.045 332.631 407.905 333.464 407.427C334.299 406.95 335.414 407.307 335.957 408.232C336.502 409.159 336.253 410.313 335.398 410.802C334.542 411.291 333.422 410.922 332.896 409.984H332.899Z" fill="#50B848"/>
<path d="M333.942 369.931C340.256 365.274 346.246 360.173 351.844 354.672C352.682 361.123 353.163 367.733 353.269 374.465C346.637 373.3 340.183 371.781 333.942 369.931Z" fill="#50B848"/>
<path d="M358.812 388.481C357.861 387.304 356.548 383.762 355.391 380.555C354.245 377.345 353.267 374.465 353.267 374.465C353.267 374.465 355.958 375.887 358.949 377.524C361.934 379.169 365.226 381.03 366.238 382.153C367.247 383.276 367.753 384.664 367.733 386.003C367.716 387.341 367.171 388.629 366.118 389.528C365.064 390.428 363.706 390.76 362.381 390.567C361.056 390.375 359.765 389.657 358.814 388.483L358.812 388.481Z" fill="white"/>
<path d="M286.115 429.447C285.313 426.363 285.64 423.296 286.115 420.999C286.593 418.706 287.242 417.175 287.245 417.175C287.245 417.175 288.6 418.13 290.221 419.829C291.834 421.527 293.729 423.961 294.679 427.006C295.627 430.048 295.397 433.141 294.877 435.476C294.363 437.809 293.581 439.373 293.581 439.373C293.581 439.373 292.088 438.457 290.422 436.744C288.748 435.037 286.92 432.532 286.121 429.447H286.115Z" fill="#50B848"/>
<path d="M292.647 418.644C289.662 416.806 287.588 413.85 286.255 411.381C284.922 408.906 284.312 406.911 284.312 406.911C284.312 406.911 285.945 406.511 288.281 406.539C290.623 406.57 293.678 407.009 296.635 408.76C299.592 410.515 301.898 413.281 303.458 415.63C305.02 417.977 305.819 419.902 305.819 419.902C305.819 419.902 304.05 420.525 301.501 420.675C298.955 420.829 295.632 420.485 292.647 418.644Z" fill="#50B848"/>
<path d="M283.425 421.273C284.99 418.136 285.191 414.535 285.021 411.73C284.848 408.928 284.311 406.908 284.314 406.908C284.314 406.908 282.718 407.43 280.745 408.685C278.772 409.948 276.407 411.928 274.82 414.979C273.235 418.03 272.735 421.597 272.651 424.413C272.561 427.229 272.9 429.288 272.902 429.288C272.902 429.288 274.733 428.886 276.977 427.668C279.222 426.455 281.863 424.41 283.425 421.273Z" fill="#50B848"/>
<path d="M296.876 425.737C296.546 424.715 297.024 423.645 297.935 423.34C298.849 423.036 299.869 423.606 300.221 424.62C300.571 425.634 300.101 426.718 299.168 427.028C298.231 427.338 297.206 426.757 296.876 425.735V425.737Z" fill="#50B848"/>
<path d="M280.147 430.347C279.909 429.302 280.477 428.277 281.413 428.053C282.349 427.83 283.316 428.486 283.579 429.528C283.839 430.57 283.274 431.607 282.316 431.836C281.357 432.062 280.387 431.392 280.147 430.344V430.347Z" fill="#50B848"/>
<path d="M292.445 392.222C299.804 389.534 306.973 386.324 313.882 382.617C312.882 389.043 311.493 395.521 309.704 402.011C303.667 399.027 297.904 395.753 292.445 392.222Z" fill="#50B848"/>
<path d="M311.088 417.018C310.506 415.624 310.241 411.853 310.034 408.453C309.836 405.05 309.707 402.011 309.707 402.011C309.707 402.011 311.89 404.131 314.299 406.542C316.703 408.961 319.341 411.669 319.995 413.029C320.649 414.392 320.744 415.865 320.35 417.144C319.956 418.424 319.073 419.508 317.807 420.075C316.541 420.642 315.143 420.58 313.927 420.022C312.709 419.466 311.672 418.412 311.09 417.018H311.088Z" fill="white"/>
<path d="M229.796 435.833C229.891 432.648 231.059 429.796 232.158 427.723C233.262 425.656 234.312 424.368 234.312 424.368C234.312 424.368 235.347 425.667 236.425 427.748C237.496 429.832 238.631 432.702 238.684 435.886C238.737 439.074 237.65 441.977 236.498 444.069C235.352 446.164 234.164 447.447 234.167 447.447C234.167 447.447 232.996 446.147 231.875 444.038C230.752 441.932 229.698 439.015 229.793 435.828L229.796 435.833Z" fill="#50B848"/>
<path d="M239.088 427.293C236.741 424.689 235.581 421.275 234.994 418.526C234.407 415.777 234.385 413.69 234.382 413.69C234.382 413.688 236.062 413.766 238.303 414.445C240.545 415.132 243.356 416.412 245.701 418.926C248.043 421.443 249.477 424.745 250.31 427.441C251.146 430.131 251.369 432.204 251.369 432.204C251.369 432.204 249.499 432.302 247.012 431.729C244.527 431.159 241.439 429.894 239.091 427.29L239.088 427.293Z" fill="#50B848"/>
<path d="M229.503 427.231C231.884 424.656 233.086 421.258 233.709 418.518C234.329 415.777 234.38 413.69 234.382 413.69C234.382 413.688 232.7 413.743 230.453 414.397C228.203 415.056 225.375 416.3 222.999 418.786C220.623 421.275 219.15 424.558 218.281 427.242C217.412 429.919 217.16 431.992 217.163 431.992C217.163 431.992 219.033 432.115 221.529 431.573C224.022 431.033 227.127 429.81 229.505 427.234L229.503 427.231Z" fill="#50B848"/>
<path d="M241.152 435.286C241.124 434.213 241.879 433.322 242.84 433.286C243.802 433.249 244.621 434.085 244.671 435.158C244.721 436.23 243.964 437.135 242.983 437.172C241.999 437.208 241.18 436.359 241.152 435.286Z" fill="#50B848"/>
<path d="M223.82 435.026C223.885 433.956 224.715 433.129 225.673 433.177C226.635 433.224 227.378 434.124 227.339 435.199C227.297 436.272 226.467 437.11 225.483 437.063C224.499 437.013 223.756 436.099 223.82 435.026Z" fill="#50B848"/>
<path d="M246.347 401.88C254.184 401.374 261.973 400.324 269.645 398.72C266.872 404.601 263.703 410.423 260.151 416.142C255.204 411.574 250.601 406.808 246.347 401.88Z" fill="#50B848"/>
<path d="M257.233 430.928C257.071 429.428 257.881 425.735 258.644 422.413C259.416 419.091 260.151 416.141 260.151 416.141C260.151 416.141 261.646 418.79 263.275 421.787C264.896 424.788 266.66 428.129 266.903 429.618C267.146 431.11 266.819 432.548 266.079 433.666C265.341 434.781 264.184 435.574 262.811 435.758C261.436 435.943 260.114 435.493 259.105 434.61C258.094 433.733 257.398 432.428 257.233 430.928Z" fill="white"/>
<path d="M173.923 426.232C174.909 423.201 176.838 420.792 178.473 419.113C180.113 417.437 181.483 416.499 181.483 416.499C181.483 416.499 182.112 418.035 182.562 420.337C183.006 422.639 183.291 425.709 182.45 428.785C181.609 431.858 179.747 434.342 178.054 436.026C176.363 437.717 174.859 438.613 174.859 438.613C174.859 438.613 174.096 437.038 173.612 434.699C173.123 432.358 172.933 429.263 173.92 426.235L173.923 426.232Z" fill="#50B848"/>
<path d="M185.248 420.645C183.722 417.488 183.568 413.884 183.778 411.082C183.988 408.28 184.552 406.268 184.549 406.268C184.549 406.268 186.14 406.81 188.093 408.093C190.05 409.38 192.389 411.392 193.935 414.462C195.48 417.532 195.933 421.105 195.98 423.924C196.031 426.74 195.667 428.796 195.667 428.796C195.667 428.796 193.842 428.369 191.612 427.123C189.385 425.883 186.768 423.804 185.248 420.647V420.645Z" fill="#50B848"/>
<path d="M176.061 417.895C179.069 416.099 181.182 413.168 182.545 410.716C183.909 408.257 184.544 406.268 184.547 406.271C184.547 406.271 182.92 405.849 180.583 405.849C178.241 405.849 175.181 406.249 172.202 407.961C169.222 409.679 166.88 412.414 165.29 414.741C163.7 417.066 162.872 418.982 162.875 418.982C162.875 418.982 164.636 419.627 167.182 419.812C169.728 419.996 173.054 419.697 176.061 417.895Z" fill="#50B848"/>
<path d="M184.988 428.898C185.262 427.858 186.237 427.216 187.171 427.45C188.104 427.685 188.661 428.716 188.406 429.758C188.155 430.803 187.174 431.459 186.218 431.219C185.262 430.979 184.711 429.934 184.985 428.895L184.988 428.898Z" fill="#50B848"/>
<path d="M168.408 423.774C168.772 422.763 169.8 422.21 170.711 422.522C171.62 422.838 172.081 423.914 171.74 424.931C171.399 425.95 170.365 426.52 169.434 426.196C168.503 425.875 168.048 424.783 168.411 423.774H168.408Z" fill="#50B848"/>
<path d="M199.315 398.272C206.965 399.974 214.74 401.125 222.566 401.731C218.254 406.606 213.589 411.31 208.583 415.814C205.104 410.05 202.013 404.189 199.315 398.272Z" fill="#50B848"/>
<path d="M201.66 429.201C201.923 427.712 203.731 424.396 205.388 421.418C207.054 418.443 208.583 415.814 208.583 415.814C208.583 415.814 209.279 418.775 210.011 422.105C210.732 425.435 211.495 429.137 211.313 430.637C211.129 432.134 210.416 433.431 209.393 434.294C208.373 435.16 207.043 435.596 205.673 435.392C204.301 435.188 203.158 434.383 202.431 433.258C201.705 432.132 201.4 430.69 201.66 429.201Z" fill="white"/>
<path d="M123.066 401.276C124.869 398.647 127.396 396.876 129.439 395.728C131.487 394.58 133.064 394.066 133.066 394.066C133.066 394.066 133.237 395.717 133.019 398.052C132.795 400.385 132.203 403.413 130.529 406.123C128.855 408.836 126.37 410.691 124.268 411.831C122.172 412.976 120.475 413.412 120.475 413.415C120.475 413.415 120.19 411.688 120.386 409.308C120.579 406.925 121.269 403.902 123.069 401.273L123.066 401.276Z" fill="#50B848"/>
<path d="M135.507 399.106C134.937 395.647 135.803 392.146 136.793 389.518C137.785 386.889 138.892 385.12 138.889 385.118C138.889 385.118 140.261 386.087 141.776 387.867C143.291 389.655 144.968 392.244 145.583 395.627C146.197 399.008 145.622 402.564 144.873 405.282C144.126 408.001 143.196 409.867 143.196 409.867C143.196 409.867 141.566 408.942 139.78 407.118C137.994 405.299 136.074 402.564 135.504 399.108L135.507 399.106Z" fill="#50B848"/>
<path d="M127.467 393.878C130.86 393.001 133.711 390.785 135.715 388.816C137.719 386.844 138.887 385.114 138.89 385.117C138.89 385.117 137.447 384.254 135.203 383.592C132.956 382.932 129.904 382.452 126.561 383.259C123.219 384.069 120.203 386.033 118.02 387.824C115.84 389.607 114.51 391.216 114.51 391.216C114.51 391.216 116.016 392.328 118.409 393.222C120.798 394.113 124.074 394.764 127.467 393.881V393.878Z" fill="#50B848"/>
<path d="M132.93 406.948C133.486 406.029 134.604 405.688 135.434 406.177C136.264 406.666 136.504 407.811 135.968 408.742C135.431 409.672 134.305 410.027 133.455 409.529C132.608 409.029 132.373 407.873 132.93 406.951V406.948Z" fill="#50B848"/>
<path d="M118.471 397.368C119.106 396.499 120.249 396.256 121.031 396.815C121.814 397.374 121.954 398.536 121.339 399.416C120.724 400.296 119.573 400.553 118.77 399.98C117.968 399.411 117.84 398.234 118.471 397.368Z" fill="#50B848"/>
<path d="M155.326 381.617C162.188 385.411 169.317 388.713 176.643 391.492C171.137 394.954 165.335 398.155 159.261 401.061C157.554 394.549 156.246 388.056 155.329 381.617H155.326Z" fill="#50B848"/>
<path d="M148.831 411.948C149.504 410.596 152.176 407.922 154.608 405.534C157.048 403.153 159.259 401.061 159.259 401.061C159.259 401.061 159.091 404.098 158.848 407.498C158.596 410.897 158.283 414.663 157.685 416.052C157.084 417.437 156.036 418.477 154.809 419.019C153.585 419.561 152.185 419.605 150.927 419.021C149.669 418.438 148.797 417.345 148.42 416.06C148.04 414.778 148.157 413.303 148.825 411.951L148.831 411.948Z" fill="white"/>
<path d="M81.2414 363.045C83.7065 361.022 86.6271 360.033 88.9106 359.497C91.1968 358.969 92.857 358.916 92.857 358.916C92.857 358.916 92.5579 360.55 91.6943 362.729C90.8279 364.908 89.4109 367.646 87.0436 369.783C84.6763 371.918 81.7696 373.007 79.4359 373.513C77.1021 374.027 75.3525 373.971 75.3525 373.971C75.3525 373.971 75.5622 372.236 76.4146 370.004C77.2642 367.772 78.7735 365.062 81.2386 363.042L81.2414 363.045Z" fill="#50B848"/>
<path d="M93.7905 364.436C94.2098 360.958 96.0236 357.838 97.7089 355.591C99.3971 353.343 100.957 351.954 100.954 351.954C100.954 351.954 102.002 353.267 102.958 355.401C103.914 357.539 104.797 360.497 104.442 363.919C104.084 367.339 102.536 370.591 101.054 372.988C99.5759 375.387 98.1589 376.921 98.1589 376.918C98.1617 376.918 96.8537 375.575 95.6519 373.323C94.4473 371.077 93.3685 367.917 93.7905 364.439V364.436Z" fill="#50B848"/>
<path d="M87.5356 357.172C91.0404 357.276 94.3971 355.949 96.8706 354.616C99.3469 353.281 100.954 351.948 100.954 351.951C100.954 351.951 99.8108 350.719 97.8404 349.456C95.8672 348.194 93.0723 346.878 89.6374 346.721C86.2025 346.565 82.7536 347.61 80.1627 348.716C77.569 349.82 75.8418 350.99 75.8418 350.993C75.8418 350.993 76.9765 352.485 79.0252 354.007C81.0683 355.533 84.0336 357.069 87.5356 357.172Z" fill="#50B848"/>
<path d="M89.1207 371.247C89.9117 370.52 91.08 370.504 91.7396 371.205C92.3992 371.906 92.3069 373.071 91.5327 373.814C90.7558 374.557 89.5763 374.582 88.9027 373.867C88.2292 373.149 88.3298 371.973 89.1207 371.247Z" fill="#50B848"/>
<path d="M77.923 358.008C78.7726 357.351 79.9409 357.438 80.5362 358.195C81.1315 358.949 80.9415 360.103 80.1058 360.776C79.2701 361.449 78.0907 361.374 77.4814 360.603C76.8721 359.829 77.0733 358.667 77.9258 358.01L77.923 358.008Z" fill="#50B848"/>
<path d="M117.719 353.197C123.25 358.764 129.173 363.944 135.428 368.679C129.164 370.447 122.694 371.886 116.045 372.97C116.235 366.24 116.797 359.636 117.716 353.197H117.719Z" fill="#50B848"/>
<path d="M102.981 380.494C104.007 379.382 107.322 377.566 110.326 375.957C113.336 374.353 116.044 372.967 116.044 372.967C116.044 372.967 115.03 375.837 113.842 379.032C112.646 382.223 111.288 385.748 110.323 386.913C109.356 388.076 108.059 388.777 106.729 388.953C105.404 389.129 104.049 388.78 103.006 387.869C101.964 386.955 101.436 385.662 101.436 384.324C101.436 382.986 101.955 381.605 102.978 380.494H102.981Z" fill="white"/>
<path d="M51.8109 314.669C54.7455 313.421 57.8283 313.292 60.1676 313.421C62.5097 313.555 64.1168 313.971 64.1196 313.971C64.1196 313.971 63.3734 315.454 61.9312 317.307C60.489 319.153 58.3593 321.385 55.489 322.774C52.6186 324.159 49.5247 324.389 47.1378 324.221C44.7566 324.059 43.088 323.514 43.0908 323.514C43.0908 323.514 43.7784 321.905 45.2233 320.003C46.6655 318.097 48.8735 315.918 51.8081 314.672L51.8109 314.669Z" fill="#50B848"/>
<path d="M63.4673 319.528C64.8424 316.307 67.464 313.82 69.7111 312.136C71.9638 310.451 73.8475 309.557 73.8475 309.554C73.8475 309.554 74.4848 311.108 74.8034 313.423C75.122 315.742 75.136 318.829 73.8391 322.011C72.5367 325.193 70.1415 327.881 68.0481 329.769C65.9575 331.658 64.1688 332.733 64.1688 332.731C64.1688 332.731 63.2912 331.074 62.7658 328.576C62.2403 326.079 62.0866 322.746 63.4701 319.525L63.4673 319.528Z" fill="#50B848"/>
<path d="M59.5015 310.8C62.8386 311.884 66.43 311.552 69.1774 310.968C71.9248 310.381 73.8449 309.554 73.8449 309.554C73.8449 309.554 73.0931 308.051 71.5587 306.288C70.0187 304.526 67.7101 302.478 64.4568 301.36C61.2064 300.243 57.601 300.279 54.8033 300.609C52.0028 300.938 50.0156 301.575 50.0156 301.578C50.0156 301.578 50.6836 303.33 52.2208 305.369C53.7524 307.409 56.1672 309.716 59.5015 310.8Z" fill="#50B848"/>
<path d="M57.0746 324.758C58.0388 324.28 59.1652 324.596 59.6012 325.453C60.0344 326.311 59.6263 327.406 58.6705 327.901C57.7202 328.395 56.5743 328.091 56.1327 327.213C55.6855 326.336 56.1131 325.233 57.0746 324.758Z" fill="#50B848"/>
<path d="M50.0441 308.901C51.0447 308.51 52.1403 308.92 52.5008 309.814C52.8613 310.708 52.3527 311.762 51.3605 312.172C50.3683 312.583 49.2587 312.181 48.8898 311.264C48.5237 310.351 49.0435 309.292 50.0441 308.901Z" fill="#50B848"/>
<path d="M89.5852 315.435C93.3303 322.322 97.5674 328.943 102.252 335.237C95.7423 335.189 89.1268 334.762 82.4414 333.946C84.504 327.537 86.8937 321.358 89.5824 315.435H89.5852Z" fill="#50B848"/>
<path d="M67.792 337.519C69.0861 336.739 72.7781 335.924 76.1152 335.217C79.4551 334.521 82.4429 333.946 82.4429 333.946C82.4429 333.946 80.6681 336.415 78.6334 339.153C76.5931 341.883 74.3041 344.889 73.052 345.738C71.7999 346.584 70.3577 346.894 69.033 346.693C67.7082 346.492 66.5064 345.777 65.7601 344.612C65.0111 343.447 64.8714 342.053 65.2431 340.768C65.6148 339.48 66.5036 338.304 67.7976 337.522L67.792 337.519Z" fill="white"/>
<path d="M37.254 260.26C40.4206 259.886 43.4167 260.626 45.6275 261.406C47.8354 262.193 49.2636 263.043 49.2636 263.043C49.2636 263.043 48.1289 264.255 46.2284 265.627C44.325 266.993 41.6531 268.538 38.5089 269.063C35.3646 269.588 32.3293 268.937 30.0878 268.108C27.8463 267.281 26.3986 266.292 26.4014 266.295C26.4014 266.295 27.5138 264.942 29.4366 263.523C31.3567 262.101 34.0873 260.632 37.2568 260.257L37.254 260.26Z" fill="#50B848"/>
<path d="M47.0752 268.197C49.3028 265.49 52.5141 263.841 55.1441 262.855C57.7797 261.872 59.8395 261.542 59.8395 261.539C59.8395 261.539 60.0156 263.21 59.669 265.523C59.3225 267.836 58.47 270.803 56.3291 273.494C54.1855 276.181 51.1306 278.089 48.5901 279.313C46.0523 280.539 44.0344 281.07 44.0344 281.067C44.0344 281.067 43.6571 279.232 43.8555 276.687C44.0512 274.144 44.8449 270.901 47.0752 268.197Z" fill="#50B848"/>
<path d="M45.7286 258.707C48.6241 260.682 52.1681 261.372 54.9686 261.584C57.7718 261.794 59.8456 261.537 59.8456 261.54C59.8456 261.54 59.5466 259.886 58.5684 257.763C57.5902 255.637 55.9412 253.025 53.1351 251.038C50.3262 249.055 46.8578 248.077 44.0769 247.613C41.2959 247.147 39.2109 247.2 39.2109 247.203C39.2109 247.203 39.3647 249.069 40.2646 251.457C41.1646 253.843 42.8303 256.735 45.7286 258.71V258.707Z" fill="#50B848"/>
<path d="M39.4728 271.418C40.532 271.231 41.527 271.848 41.7031 272.792C41.8792 273.74 41.1777 274.673 40.124 274.882C39.0703 275.092 38.0585 274.477 37.8797 273.508C37.698 272.541 38.4163 271.602 39.4756 271.418H39.4728Z" fill="#50B848"/>
<path d="M37.1766 254.229C38.2498 254.134 39.1833 254.835 39.2783 255.793C39.3705 256.751 38.5908 257.62 37.5203 257.735C36.4527 257.852 35.4996 257.151 35.4046 256.173C35.3068 255.195 36.1061 254.324 37.1766 254.229Z" fill="#50B848"/>
<path d="M73.2916 271.599C74.9517 279.253 77.1541 286.791 79.8847 294.129C73.6521 292.269 67.4223 290.009 61.2344 287.352C65.0131 281.781 69.0461 276.524 73.2916 271.599Z" fill="#50B848"/>
<path d="M46.1741 286.676C47.6358 286.291 51.4089 286.542 54.8075 286.802C58.2061 287.07 61.2385 287.355 61.2385 287.355C61.2385 287.355 58.8405 289.227 56.1211 291.286C53.3961 293.336 50.3552 295.58 48.9159 296.044C47.4765 296.504 46.0036 296.398 44.7878 295.834C43.5748 295.27 42.6189 294.247 42.2305 292.915C41.842 291.585 42.0907 290.208 42.8118 289.079C43.5273 287.95 44.7151 287.065 46.1741 286.679V286.676Z" fill="white"/>
<path d="M38.8737 201.435C42.0124 201.994 44.6675 203.567 46.5569 204.955C48.4434 206.347 49.5642 207.573 49.5642 207.573C49.5642 207.573 48.1276 208.408 45.9113 209.171C43.6921 209.928 40.6876 210.635 37.5266 210.227C34.3628 209.819 31.6461 208.319 29.7428 206.877C27.8339 205.439 26.7383 204.075 26.7383 204.075C26.7383 204.075 28.1944 203.103 30.4443 202.301C32.6942 201.494 35.735 200.877 38.8737 201.435Z" fill="#50B848"/>
<path d="M45.9756 211.873C48.8935 209.928 52.4402 209.274 55.2463 209.096C58.0524 208.917 60.1206 209.196 60.1206 209.193C60.1206 209.193 59.802 210.842 58.8042 212.957C57.798 215.071 56.1267 217.667 53.2983 219.622C50.467 221.575 46.993 222.516 44.2037 222.952C41.4199 223.391 39.335 223.313 39.335 223.31C39.335 223.31 39.5082 221.446 40.4362 219.066C41.3585 216.692 43.0578 213.817 45.9756 211.873Z" fill="#50B848"/>
<path d="M47.4271 202.396C49.6267 205.126 52.8185 206.81 55.4401 207.824C58.0645 208.836 60.1216 209.19 60.1216 209.19C60.1216 209.19 60.3144 207.523 59.993 205.207C59.6688 202.888 58.8527 199.913 56.7369 197.2C54.6268 194.49 51.5859 192.549 49.0621 191.297C46.5384 190.043 44.5232 189.492 44.5232 189.492C44.5232 189.492 44.1264 191.322 44.2997 193.873C44.4673 196.418 45.2276 199.67 47.4271 202.396Z" fill="#50B848"/>
<path d="M37.7632 212.756C38.8309 212.881 39.6023 213.761 39.4989 214.717C39.3954 215.672 38.4508 216.362 37.3803 216.259C36.3099 216.153 35.5245 215.275 35.6307 214.295C35.7369 213.317 36.6956 212.627 37.7632 212.756Z" fill="#50B848"/>
<path d="M40.544 195.639C41.5949 195.859 42.2881 196.801 42.1008 197.745C41.9135 198.689 40.913 199.296 39.8593 199.097C38.8028 198.899 38.0957 197.955 38.2858 196.988C38.4786 196.021 39.4932 195.418 40.544 195.639Z" fill="#50B848"/>
<path d="M56.595 147.592C59.4486 149.014 61.5475 151.274 62.9673 153.14C64.3843 155.009 65.111 156.501 65.111 156.504C65.111 156.504 63.4984 156.898 61.1535 157.004C58.8113 157.104 55.7286 156.934 52.8135 155.649C49.8956 154.364 47.7128 152.159 46.2958 150.235C44.8732 148.315 44.208 146.695 44.208 146.698C44.208 146.698 45.8794 146.175 48.2662 146.044C50.653 145.907 53.7442 146.175 56.5978 147.597L56.595 147.592Z" fill="#50B848"/>
<path d="M60.4568 159.61C63.8051 158.568 67.3937 158.948 70.1355 159.565C72.8773 160.186 74.7834 161.04 74.7834 161.038C74.7834 161.038 74.012 162.53 72.458 164.276C70.8957 166.019 68.5592 168.036 65.2919 169.111C62.0275 170.187 58.4221 170.106 55.6272 169.74C52.8323 169.374 50.8535 168.712 50.8535 168.712C50.8535 168.712 51.5439 166.969 53.109 164.949C54.6658 162.929 57.1085 160.652 60.4568 159.613V159.61Z" fill="#50B848"/>
<path d="M64.5319 150.933C65.8679 154.173 68.456 156.691 70.6807 158.403C72.911 160.116 74.7864 161.035 74.7836 161.038C74.7836 161.038 75.4404 159.493 75.787 157.179C76.1335 154.866 76.1894 151.779 74.9317 148.581C73.6712 145.382 71.3096 142.664 69.2385 140.75C67.1731 138.836 65.3983 137.735 65.3956 137.738C65.3956 137.738 64.4984 139.384 63.9422 141.876C63.386 144.365 63.1904 147.695 64.5319 150.936V150.933Z" fill="#50B848"/>
<path d="M52.331 158.137C53.3176 158.562 53.8095 159.62 53.4406 160.509C53.0717 161.397 51.9677 161.794 50.9727 161.392C49.9749 160.989 49.4691 159.922 49.8492 159.014C50.2293 158.106 51.3444 157.715 52.331 158.14V158.137Z" fill="#50B848"/>
<path d="M59.8408 142.501C60.7882 143.009 61.1851 144.107 60.7407 144.962C60.2935 145.814 59.1644 146.113 58.2057 145.624C57.2499 145.135 56.8362 144.029 57.2946 143.157C57.7502 142.286 58.8961 141.995 59.8435 142.501H59.8408Z" fill="#50B848"/>
<path d="M80.5171 176.818C77.7054 184.129 75.4192 191.638 73.6808 199.276C69.4884 194.306 65.5141 189.004 61.7969 183.391C68.0127 180.802 74.2677 178.611 80.5199 176.818H80.5171Z" fill="#50B848"/>
<path d="M49.5649 174.572C50.9987 175.05 54.0172 177.329 56.717 179.408C59.4169 181.495 61.7925 183.392 61.7925 183.392C61.7925 183.392 58.7601 183.646 55.3559 183.875C51.9545 184.098 48.1786 184.308 46.7225 183.906C45.2663 183.503 44.0925 182.609 43.3854 181.47C42.6811 180.332 42.4435 178.955 42.846 177.628C43.2512 176.301 44.2155 175.29 45.4368 174.737C46.6582 174.186 48.1311 174.094 49.5649 174.572Z" fill="white"/>
<path d="M69.9457 224.506C64.4928 228.057 59.149 231.985 53.9561 236.276C59.149 240.567 64.4928 244.562 69.9457 248.112C69.6746 244.249 69.5376 240.036 69.5348 236.147C69.5404 232.258 69.6746 228.375 69.9457 224.503V224.506Z" fill="#50B848"/>
<path d="M53.9142 236.276H53.9561C53.9561 236.276 51.1305 235.117 47.9415 233.904C44.7525 232.703 41.2002 231.404 39.691 231.365C38.1789 231.326 36.7983 231.843 35.7893 232.725C34.7831 233.605 34.1543 234.854 34.1543 236.237C34.1543 237.62 34.7831 238.944 35.7893 239.824C36.7955 240.707 38.1789 241.221 39.691 241.185C41.203 241.145 44.7525 239.846 47.9415 238.645C51.1305 237.435 53.9589 236.273 53.9561 236.273H53.9142V236.276Z" fill="white"/>
<path d="M88.7759 100.941C91.1152 103.106 92.4959 105.864 93.3372 108.054C94.1728 110.244 94.4523 111.881 94.4523 111.881C94.4523 111.881 92.7922 111.806 90.5143 111.25C88.2365 110.688 85.3298 109.658 82.8899 107.607C80.4499 105.554 78.977 102.827 78.1553 100.584C77.328 98.3431 77.1436 96.6027 77.1436 96.6027C77.1436 96.6027 78.8931 96.5719 81.2213 97.1139C83.5494 97.6503 86.4422 98.7762 88.7815 100.941H88.7759Z" fill="#50B848"/>
<path d="M89.1062 113.558C92.611 113.496 95.9509 114.871 98.4076 116.231C100.867 117.597 102.455 118.949 102.457 118.949C102.457 118.949 101.3 120.168 99.3132 121.405C97.326 122.643 94.5115 123.919 91.0766 124.037C87.6389 124.149 84.2068 123.059 81.6271 121.919C79.0474 120.782 77.3341 119.589 77.3369 119.586C77.3369 119.589 78.4912 118.111 80.5594 116.614C82.6221 115.114 85.6042 113.616 89.1118 113.558H89.1062Z" fill="#50B848"/>
<path d="M95.4522 106.372C95.8268 109.859 97.6015 112.999 99.2561 115.267C100.916 117.536 102.456 118.947 102.453 118.947C102.453 118.947 103.518 117.648 104.502 115.524C105.483 113.398 106.405 110.451 106.092 107.026C105.779 103.604 104.273 100.332 102.822 97.9159C101.375 95.4993 99.9772 93.9461 99.9772 93.9489C99.9772 93.9489 98.6552 95.2759 97.4254 97.5108C96.1929 99.7429 95.0749 102.886 95.4495 106.37L95.4522 106.372Z" fill="#50B848"/>
<path d="M81.72 109.859C82.5501 110.543 82.7234 111.697 82.1197 112.446C81.516 113.194 80.3478 113.264 79.5037 112.596C78.6596 111.929 78.4752 110.764 79.0928 109.998C79.7105 109.233 80.8928 109.174 81.72 109.856V109.859Z" fill="#50B848"/>
<path d="M93.3142 96.9665C94.08 97.718 94.1555 98.8858 93.4875 99.5786C92.8195 100.271 91.6513 100.241 90.8687 99.5032C90.0861 98.7656 90.0023 97.5895 90.6842 96.8799C91.3662 96.1731 92.5456 96.2122 93.3142 96.9665Z" fill="#50B848"/>
<path d="M103.513 135.714C98.7502 141.946 94.4293 148.517 90.5975 155.353C87.9842 149.397 85.6729 143.187 83.6885 136.753C90.385 136.021 97.0034 135.677 103.513 135.711V135.714Z" fill="#50B848"/>
<path d="M74.4441 124.846C75.685 125.71 77.9377 128.746 79.9444 131.501C81.9456 134.264 83.6868 136.756 83.6868 136.756C83.6868 136.756 80.7074 136.144 77.3759 135.406C74.05 134.661 70.3691 133.794 69.0835 132.998C67.7978 132.199 66.9286 131.012 66.5709 129.719C66.2159 128.431 66.3752 127.039 67.1382 125.883C67.9012 124.726 69.1114 124.025 70.4362 123.841C71.7638 123.656 73.2003 123.983 74.4441 124.846Z" fill="white"/>
<path d="M132.676 65.1854C134.316 67.9176 134.87 70.9515 135.065 73.287C135.256 75.6254 135.065 77.2736 135.065 77.2736C135.065 77.2736 133.492 76.74 131.46 75.5667C129.431 74.3905 126.927 72.5914 125.158 69.9402C123.388 67.289 122.737 64.2579 122.575 61.8721C122.407 59.4891 122.718 57.7682 122.718 57.7682C122.718 57.7682 124.406 58.2292 126.491 59.3997C128.579 60.5675 131.038 62.4532 132.679 65.1882L132.676 65.1854Z" fill="#50B848"/>
<path d="M129.463 77.3915C132.848 78.3134 135.668 80.5623 137.647 82.557C139.626 84.5545 140.772 86.2977 140.774 86.2949C140.774 86.2977 139.321 87.1386 137.071 87.7728C134.816 88.4041 131.758 88.8455 128.427 87.999C125.095 87.147 122.102 85.1439 119.944 83.328C117.786 81.5177 116.476 79.8946 116.476 79.8918C116.476 79.8918 117.996 78.7967 120.4 77.9362C122.8 77.073 126.082 76.4668 129.463 77.3915Z" fill="#50B848"/>
<path d="M137.566 72.2652C136.951 75.7154 137.775 79.227 138.731 81.8698C139.69 84.5127 140.774 86.295 140.774 86.295C140.777 86.295 142.16 85.3452 143.698 83.5824C145.235 81.814 146.942 79.2438 147.602 75.8718C148.259 72.4999 147.731 68.9379 147.015 66.2085C146.302 63.4819 145.397 61.6046 145.394 61.6046C145.394 61.6046 143.753 62.5097 141.942 64.3116C140.134 66.108 138.178 68.8178 137.566 72.2652Z" fill="#50B848"/>
<path d="M123.404 71.7793C124.008 72.6677 123.854 73.8271 123.063 74.3746C122.272 74.9222 121.132 74.6652 120.511 73.7907C119.888 72.9163 120.033 71.743 120.844 71.1815C121.652 70.6199 122.8 70.8909 123.407 71.7793H123.404Z" fill="#50B848"/>
<path d="M138.144 62.6379C138.67 63.5766 138.413 64.7164 137.58 65.1941C136.744 65.6746 135.632 65.317 135.087 64.3895C134.542 63.462 134.79 62.3082 135.646 61.8194C136.501 61.3305 137.622 61.6992 138.147 62.6379H138.144Z" fill="#50B848"/>
<path d="M137.104 102.69C130.79 107.347 124.801 112.451 119.203 117.949C118.364 111.499 117.884 104.889 117.777 98.1562C124.41 99.3211 130.863 100.841 137.104 102.69Z" fill="#50B848"/>
<path d="M112.231 84.1402C113.182 85.3163 114.495 88.8587 115.652 92.0658C116.798 95.2758 117.776 98.156 117.776 98.156C117.776 98.156 115.085 96.734 112.094 95.097C109.11 93.4515 105.817 91.5937 104.805 90.4706C103.796 89.3476 103.291 87.9591 103.31 86.621C103.327 85.2828 103.872 83.9949 104.926 83.0954C105.979 82.1958 107.338 81.8633 108.662 82.0561C109.987 82.2489 111.278 82.9668 112.229 84.1402H112.231Z" fill="white"/>
<path d="M184.932 43.1707C185.734 46.2549 185.407 49.3224 184.932 51.6188C184.454 53.9124 183.805 55.4433 183.803 55.4433C183.803 55.4433 182.444 54.4879 180.826 52.7893C179.213 51.0908 177.316 48.6575 176.368 45.6124C175.421 42.5701 175.65 39.4775 176.17 37.142C176.684 34.8093 177.467 33.242 177.467 33.2448C177.467 33.2448 178.959 34.1611 180.628 35.8737C182.302 37.5806 184.13 40.0865 184.929 43.1707H184.932Z" fill="#50B848"/>
<path d="M178.4 53.9768C181.385 55.8123 183.459 58.7708 184.792 61.2404C186.125 63.7156 186.734 65.7103 186.734 65.7103C186.734 65.7103 185.105 66.1098 182.766 66.0818C180.424 66.0511 177.369 65.6125 174.412 63.8609C171.458 62.1064 169.149 59.3407 167.589 56.9912C166.027 54.6445 165.228 52.7197 165.23 52.7197C165.23 52.7197 166.997 52.0967 169.549 51.9459C172.095 51.7922 175.418 52.1358 178.403 53.9768H178.4Z" fill="#50B848"/>
<path d="M187.621 51.3454C186.056 54.4827 185.854 58.0838 186.025 60.8886C186.198 63.6935 186.735 65.7105 186.735 65.7105C186.735 65.7105 188.331 65.1881 190.304 63.9337C192.277 62.671 194.641 60.6903 196.229 57.6396C197.814 54.5889 198.314 51.0242 198.398 48.2053C198.487 45.3893 198.149 43.3304 198.146 43.3304C198.146 43.3304 196.316 43.7327 194.071 44.9507C191.827 46.1632 189.186 48.2081 187.623 51.3454H187.621Z" fill="#50B848"/>
<path d="M174.171 46.8833C174.501 47.9058 174.026 48.9757 173.112 49.2775C172.198 49.582 171.178 49.0121 170.825 47.998C170.476 46.9839 170.946 45.8999 171.879 45.5898C172.815 45.2797 173.841 45.8608 174.171 46.8833Z" fill="#50B848"/>
<path d="M190.903 42.2742C191.14 43.3218 190.573 44.3443 189.637 44.5678C188.7 44.7913 187.733 44.1348 187.473 43.0927C187.213 42.0507 187.778 41.0114 188.737 40.7851C189.695 40.5589 190.668 41.2266 190.906 42.277L190.903 42.2742Z" fill="#50B848"/>
<path d="M178.601 80.3999C171.242 83.0846 164.073 86.2974 157.164 90.0046C158.165 83.5791 159.554 77.1006 161.342 70.6109C167.379 73.5945 173.14 76.8659 178.601 80.3999Z" fill="#50B848"/>
<path d="M159.96 55.603C160.541 56.9971 160.807 60.7686 161.014 64.1685C161.212 67.5711 161.344 70.6107 161.344 70.6107C161.344 70.6107 159.161 68.4903 156.752 66.0793C154.348 63.66 151.71 60.9557 151.056 59.5924C150.402 58.2291 150.306 56.7568 150.701 55.4773C151.095 54.1978 151.978 53.1139 153.244 52.5468C154.51 51.9797 155.907 52.0411 157.123 52.5998C158.342 53.1558 159.379 54.209 159.96 55.603Z" fill="white"/>
<path d="M241.249 36.7872C241.154 39.972 239.983 42.8271 238.885 44.8973C237.781 46.9674 236.733 48.2525 236.73 48.2525C236.73 48.2525 235.696 46.9534 234.62 44.8721C233.549 42.788 232.415 39.9189 232.361 36.7342C232.306 33.5466 233.396 30.644 234.544 28.5515C235.69 26.4562 236.878 25.1739 236.875 25.1711C236.875 25.1711 238.046 26.4702 239.164 28.5794C240.288 30.6859 241.341 33.6025 241.246 36.79L241.249 36.7872Z" fill="#50B848"/>
<path d="M231.957 45.3273C234.304 47.9338 235.464 51.3449 236.054 54.0939C236.638 56.8429 236.663 58.9297 236.666 58.9297C236.666 58.9325 234.984 58.8543 232.745 58.1754C230.503 57.4882 227.692 56.2087 225.347 53.6944C223.005 51.1745 221.571 47.8752 220.738 45.1793C219.902 42.489 219.679 40.4161 219.679 40.4161C219.679 40.4161 221.551 40.3183 224.039 40.891C226.523 41.4609 229.612 42.7264 231.957 45.3301V45.3273Z" fill="#50B848"/>
<path d="M241.546 45.3861C239.165 47.9619 237.963 51.359 237.34 54.0996C236.719 56.8401 236.669 58.927 236.666 58.927C236.666 58.9298 238.349 58.8739 240.596 58.2202C242.846 57.5609 245.674 56.3177 248.05 53.8314C250.422 51.3422 251.898 48.0596 252.767 45.3749C253.637 42.6958 253.888 40.6257 253.885 40.6257C253.885 40.6257 252.016 40.5028 249.52 41.0447C247.027 41.5839 243.922 42.8103 241.543 45.3833L241.546 45.3861Z" fill="#50B848"/>
<path d="M229.897 37.3347C229.925 38.4075 229.168 39.2987 228.209 39.335C227.248 39.3713 226.429 38.536 226.378 37.4632C226.328 36.3905 227.085 35.4853 228.066 35.449C229.05 35.4127 229.869 36.262 229.897 37.3347Z" fill="#50B848"/>
<path d="M247.227 37.5919C247.163 38.6646 246.333 39.4888 245.371 39.4413C244.41 39.3938 243.666 38.4942 243.706 37.4215C243.748 36.3487 244.578 35.5106 245.561 35.5581C246.545 35.6056 247.289 36.5219 247.224 37.5947L247.227 37.5919Z" fill="#50B848"/>
<path d="M224.699 70.7394C216.862 71.245 209.072 72.2954 201.4 73.899C204.176 68.0183 207.342 62.1963 210.895 56.4805C215.842 61.0481 220.448 65.8141 224.699 70.7422V70.7394Z" fill="#50B848"/>
<path d="M213.815 41.6911C213.977 43.1941 213.167 46.8845 212.404 50.2062C211.632 53.525 210.897 56.478 210.897 56.478C210.897 56.478 209.402 53.8296 207.775 50.832C206.154 47.8316 204.391 44.4903 204.148 43.0013C203.907 41.5095 204.231 40.0707 204.972 38.9533C205.71 37.8386 206.864 37.048 208.239 36.8608C209.612 36.6764 210.936 37.1262 211.945 38.0062C212.957 38.8834 213.653 40.1881 213.818 41.6883L213.815 41.6911Z" fill="white"/>
<path d="M297.121 46.3869C296.135 49.418 294.206 51.8261 292.571 53.5051C290.93 55.1813 289.561 56.12 289.561 56.12C289.561 56.12 288.932 54.5835 288.482 52.2815C288.038 49.9795 287.753 46.9093 288.594 43.8363C289.435 40.7632 291.297 38.2796 292.99 36.5951C294.681 34.9049 296.185 34.0081 296.185 34.0081C296.185 34.0081 296.948 35.5838 297.431 37.9221C297.92 40.2632 298.111 43.3585 297.124 46.3869H297.121Z" fill="#50B848"/>
<path d="M285.801 51.9773C287.324 55.1342 287.48 58.738 287.271 61.5401C287.061 64.3421 286.497 66.3536 286.499 66.3536C286.499 66.3536 284.909 65.8116 282.955 64.5321C280.999 63.2442 278.66 61.2328 277.114 58.1625C275.569 55.0895 275.116 51.5192 275.068 48.7004C275.018 45.8843 275.381 43.8282 275.381 43.8282C275.381 43.8282 277.206 44.2556 279.437 45.5016C281.664 46.742 284.277 48.8205 285.801 51.9773Z" fill="#50B848"/>
<path d="M294.985 54.7259C291.975 56.5222 289.865 59.4527 288.501 61.9056C287.134 64.364 286.503 66.3503 286.5 66.3503C286.5 66.3503 288.127 66.7721 290.463 66.7749C292.805 66.7749 295.866 66.3754 298.845 64.6629C301.822 62.9448 304.167 60.2098 305.757 57.8827C307.347 55.5584 308.174 53.6419 308.172 53.6419C308.172 53.6419 306.411 52.9966 303.865 52.8122C301.319 52.6278 297.993 52.9267 294.985 54.7286V54.7259Z" fill="#50B848"/>
<path d="M286.055 43.7242C285.781 44.7634 284.806 45.406 283.872 45.1713C282.939 44.9367 282.385 43.9058 282.637 42.8637C282.888 41.8189 283.869 41.1624 284.825 41.4027C285.781 41.6429 286.332 42.6877 286.058 43.727L286.055 43.7242Z" fill="#50B848"/>
<path d="M302.637 48.8453C302.274 49.8566 301.246 50.4097 300.334 50.0968C299.426 49.7812 298.962 48.7056 299.306 47.6887C299.647 46.6718 300.681 46.1019 301.612 46.4232C302.542 46.7444 303.001 47.8367 302.637 48.8453Z" fill="#50B848"/>
<path d="M271.731 74.3487C264.082 72.6473 256.309 71.4963 248.48 70.8901C252.793 66.0151 257.458 61.3106 262.463 56.8072C265.943 62.5705 269.034 68.4317 271.731 74.3487Z" fill="#50B848"/>
<path d="M269.39 43.4164C269.127 44.9055 267.319 48.2215 265.661 51.1996C263.993 54.1749 262.464 56.8037 262.464 56.8037C262.464 56.8037 261.765 53.8424 261.039 50.5124C260.317 47.1823 259.554 43.4807 259.736 41.9805C259.921 40.4803 260.633 39.1868 261.656 38.3236C262.676 37.4575 264.007 37.0217 265.379 37.2257C266.751 37.4268 267.894 38.2342 268.618 39.36C269.345 40.4859 269.65 41.9274 269.39 43.4164Z" fill="white"/>
<path d="M347.979 71.3451C346.176 73.9739 343.649 75.7451 341.606 76.8933C339.561 78.0387 337.981 78.5556 337.981 78.5556C337.981 78.5556 337.811 76.9045 338.029 74.569C338.253 72.2363 338.845 69.2079 340.519 66.4981C342.193 63.7854 344.678 61.9276 346.78 60.7878C348.876 59.6424 350.572 59.2066 350.572 59.2038C350.572 59.2038 350.858 60.9303 350.662 63.3105C350.469 65.6935 349.779 68.7163 347.979 71.3451Z" fill="#50B848"/>
<path d="M335.541 73.5132C336.111 76.9718 335.245 80.4723 334.255 83.1011C333.263 85.73 332.156 87.4983 332.156 87.5011C332.156 87.5011 330.784 86.5317 329.269 84.7522C327.754 82.9642 326.08 80.3745 325.463 76.9913C324.848 73.611 325.423 70.0547 326.172 67.3364C326.919 64.6182 327.847 62.752 327.849 62.752C327.849 62.752 329.479 63.6767 331.265 65.501C333.051 67.3197 334.971 70.0547 335.541 73.5104V73.5132Z" fill="#50B848"/>
<path d="M343.576 78.7402C340.183 79.6174 337.332 81.8328 335.328 83.8023C333.324 85.7747 332.156 87.504 332.153 87.5012C332.153 87.5012 333.595 88.3644 335.84 89.0265C338.087 89.6858 341.139 90.1663 344.482 89.3618C347.824 88.5516 350.84 86.5848 353.023 84.7969C355.203 83.0145 356.533 81.4082 356.533 81.4054C356.533 81.4054 355.027 80.2907 352.634 79.3995C350.245 78.5083 346.972 77.8574 343.576 78.7402Z" fill="#50B848"/>
<path d="M338.119 65.6712C337.563 66.5903 336.445 66.9312 335.615 66.4423C334.785 65.9534 334.545 64.8108 335.081 63.8777C335.618 62.9474 336.744 62.5926 337.594 63.0927C338.441 63.5927 338.675 64.7493 338.119 65.6712Z" fill="#50B848"/>
<path d="M352.572 75.2535C351.937 76.1223 350.794 76.3626 350.011 75.8066C349.229 75.2479 349.089 74.0857 349.704 73.2057C350.319 72.3257 351.47 72.0687 352.273 72.6414C353.075 73.2113 353.203 74.3874 352.572 75.2535Z" fill="#50B848"/>
<path d="M315.717 91.0041C308.856 87.2103 301.726 83.9082 294.4 81.1285C299.906 77.6671 305.709 74.4656 311.782 71.5602C313.49 78.0722 314.798 84.5675 315.714 91.0041H315.717Z" fill="#50B848"/>
<path d="M322.214 60.6728C321.54 62.0249 318.868 64.6985 316.437 67.0871C313.997 69.4673 311.786 71.5597 311.786 71.5597C311.786 71.5597 311.954 68.523 312.197 65.1231C312.449 61.7232 312.762 57.9573 313.36 56.5717C313.961 55.186 315.011 54.1468 316.236 53.6048C317.46 53.0628 318.857 53.0181 320.115 53.602C321.373 54.1859 322.245 55.2782 322.622 56.5633C323.002 57.8456 322.885 59.3207 322.217 60.6728H322.214Z" fill="white"/>
<path d="M389.803 109.577C387.338 111.596 384.417 112.588 382.134 113.122C379.848 113.65 378.188 113.703 378.188 113.703C378.188 113.703 378.487 112.069 379.35 109.89C380.219 107.71 381.634 104.973 384.001 102.835C386.368 100.701 389.272 99.6116 391.609 99.1059C393.942 98.5947 395.692 98.645 395.692 98.645C395.692 98.645 395.482 100.383 394.627 102.612C393.777 104.844 392.268 107.554 389.803 109.577Z" fill="#50B848"/>
<path d="M377.256 108.182C376.837 111.661 375.023 114.781 373.337 117.027C371.649 119.276 370.09 120.665 370.093 120.667C370.093 120.667 369.045 119.354 368.089 117.217C367.133 115.08 366.25 112.121 366.605 108.702C366.962 105.283 368.511 102.031 369.992 99.6338C371.47 97.234 372.888 95.7031 372.89 95.7031C372.888 95.7031 374.196 97.0468 375.397 99.2985C376.602 101.545 377.681 104.704 377.259 108.182H377.256Z" fill="#50B848"/>
<path d="M383.509 115.446C380.004 115.34 376.648 116.67 374.174 117.999C371.698 119.335 370.091 120.667 370.091 120.665C370.091 120.665 371.234 121.897 373.204 123.159C375.177 124.422 377.972 125.735 381.407 125.894C384.842 126.051 388.291 125.006 390.885 123.9C393.478 122.796 395.206 121.626 395.206 121.623C395.206 121.623 394.071 120.131 392.022 118.608C389.979 117.083 387.014 115.547 383.512 115.443L383.509 115.446Z" fill="#50B848"/>
<path d="M381.927 101.374C381.136 102.101 379.968 102.118 379.308 101.416C378.649 100.715 378.741 99.5501 379.515 98.807C380.292 98.0639 381.472 98.0387 382.145 98.7539C382.819 99.4719 382.718 100.648 381.927 101.374Z" fill="#50B848"/>
<path d="M393.124 114.614C392.274 115.27 391.106 115.184 390.511 114.429C389.915 113.672 390.105 112.521 390.941 111.848C391.777 111.175 392.956 111.25 393.565 112.024C394.175 112.798 393.973 113.96 393.121 114.616L393.124 114.614Z" fill="#50B848"/>
<path d="M353.329 119.425C347.797 113.857 341.875 108.678 335.62 103.942C341.883 102.171 348.354 100.735 355.003 99.6512C354.813 106.381 354.251 112.985 353.331 119.425H353.329Z" fill="#50B848"/>
<path d="M368.065 92.1248C367.039 93.2366 363.722 95.0525 360.717 96.6617C357.707 98.2653 354.999 99.6509 354.999 99.6509C354.999 99.6509 356.014 96.7846 357.201 93.5886C358.398 90.3955 359.756 86.8699 360.72 85.7077C361.687 84.5455 362.984 83.8443 364.314 83.6683C365.639 83.4923 366.997 83.8415 368.037 84.7551C369.08 85.6686 369.608 86.9621 369.608 88.3002C369.608 89.6384 369.088 91.0185 368.065 92.1303V92.1248Z" fill="white"/>
<path d="M419.236 157.953C416.302 159.199 413.219 159.333 410.877 159.201C408.535 159.067 406.928 158.651 406.928 158.651C406.928 158.651 407.674 157.168 409.116 155.315C410.558 153.469 412.688 151.237 415.558 149.848C418.429 148.462 421.523 148.233 423.91 148.401C426.294 148.566 427.959 149.108 427.959 149.108C427.959 149.108 427.272 150.717 425.827 152.619C424.385 154.525 422.177 156.704 419.242 157.95L419.236 157.953Z" fill="#50B848"/>
<path d="M407.579 153.092C406.204 156.313 403.585 158.799 401.336 160.484C399.083 162.168 397.199 163.065 397.199 163.065C397.199 163.065 396.562 161.512 396.243 159.196C395.925 156.877 395.911 153.79 397.208 150.608C398.51 147.426 400.905 144.739 402.999 142.85C405.089 140.962 406.878 139.886 406.878 139.886C406.878 139.886 407.755 141.543 408.281 144.04C408.806 146.538 408.96 149.871 407.577 153.092H407.579Z" fill="#50B848"/>
<path d="M411.545 161.819C408.21 160.735 404.616 161.067 401.866 161.651C399.118 162.238 397.198 163.068 397.201 163.065C397.201 163.065 397.953 164.568 399.485 166.331C401.025 168.093 403.333 170.138 406.589 171.256C409.84 172.371 413.445 172.337 416.243 172.007C419.043 171.678 421.03 171.041 421.03 171.038C421.03 171.038 420.362 169.286 418.822 167.247C417.291 165.208 414.876 162.9 411.545 161.816V161.819Z" fill="#50B848"/>
<path d="M413.974 147.864C413.009 148.342 411.883 148.029 411.447 147.171C411.014 146.314 411.422 145.221 412.378 144.724C413.328 144.23 414.474 144.531 414.918 145.411C415.366 146.289 414.938 147.389 413.976 147.867L413.974 147.864Z" fill="#50B848"/>
<path d="M421.007 163.721C420.007 164.112 418.911 163.701 418.55 162.807C418.19 161.914 418.699 160.86 419.691 160.45C420.683 160.039 421.793 160.441 422.161 161.355C422.528 162.268 422.008 163.33 421.007 163.718V163.721Z" fill="#50B848"/>
<path d="M381.463 157.187C377.718 150.3 373.481 143.679 368.797 137.385C375.306 137.433 381.919 137.86 388.604 138.676C386.542 145.084 384.152 151.264 381.463 157.187Z" fill="#50B848"/>
<path d="M403.252 135.102C401.957 135.882 398.265 136.698 394.931 137.404C391.591 138.103 388.604 138.676 388.604 138.676C388.604 138.676 390.378 136.206 392.413 133.468C394.453 130.739 396.745 127.733 397.997 126.883C399.249 126.037 400.691 125.727 402.016 125.928C403.341 126.129 404.543 126.844 405.289 128.012C406.038 129.177 406.181 130.571 405.809 131.856C405.437 133.141 404.551 134.32 403.254 135.102H403.252Z" fill="white"/>
<path d="M417.089 236.275C411.896 231.984 406.552 228.056 401.1 224.506C401.368 228.336 401.505 232.632 401.51 236.496C401.505 240.377 401.368 244.251 401.1 248.115C406.552 244.564 411.896 240.569 417.089 236.278V236.275Z" fill="#50B848"/>
<path d="M435.257 232.761C434.25 231.878 432.867 231.364 431.355 231.4C429.843 231.439 426.293 232.738 423.102 233.939C419.913 235.149 417.084 236.311 417.087 236.311C417.087 236.311 417.101 236.311 417.126 236.311C417.104 236.311 417.087 236.311 417.087 236.311C417.087 236.311 419.913 237.471 423.102 238.683C426.291 239.884 429.843 241.184 431.355 241.223C432.867 241.262 434.25 240.745 435.257 239.862C436.263 238.982 436.889 237.658 436.892 236.275C436.892 234.892 436.263 233.643 435.257 232.763V232.761Z" fill="white"/>
<path d="M433.789 212.361C430.622 212.735 427.626 211.995 425.415 211.216C423.205 210.428 421.779 209.579 421.779 209.579C421.779 209.579 422.911 208.363 424.815 206.992C426.721 205.625 429.39 204.081 432.534 203.555C435.678 203.03 438.714 203.681 440.955 204.511C443.197 205.338 444.644 206.324 444.642 206.324C444.642 206.324 443.529 207.676 441.606 209.095C439.686 210.517 436.956 211.987 433.789 212.361Z" fill="#50B848"/>
<path d="M423.973 204.424C421.745 207.128 418.534 208.779 415.904 209.763C413.268 210.746 411.208 211.076 411.208 211.079C411.208 211.079 411.032 209.408 411.382 207.098C411.728 204.782 412.581 201.818 414.722 199.127C416.862 196.44 419.92 194.532 422.461 193.308C424.998 192.082 427.016 191.551 427.016 191.554C427.016 191.554 427.394 193.389 427.192 195.934C426.997 198.476 426.203 201.72 423.973 204.424Z" fill="#50B848"/>
<path d="M425.32 213.914C422.425 211.936 418.881 211.249 416.08 211.037C413.277 210.827 411.203 211.084 411.203 211.081C411.203 211.081 411.499 212.735 412.48 214.858C413.459 216.984 415.108 219.596 417.914 221.583C420.723 223.566 424.188 224.544 426.972 225.008C429.753 225.474 431.838 225.421 431.838 225.418C431.838 225.418 431.684 223.552 430.784 221.164C429.884 218.778 428.218 215.886 425.32 213.911V213.914Z" fill="#50B848"/>
<path d="M431.574 201.203C430.517 201.39 429.522 200.773 429.346 199.829C429.17 198.882 429.872 197.949 430.925 197.739C431.979 197.53 432.988 198.144 433.17 199.114C433.351 200.08 432.633 201.019 431.574 201.206V201.203Z" fill="#50B848"/>
<path d="M433.866 218.393C432.796 218.488 431.859 217.787 431.764 216.828C431.672 215.87 432.452 215.001 433.522 214.887C434.587 214.772 435.543 215.471 435.638 216.448C435.736 217.426 434.936 218.298 433.866 218.393Z" fill="#50B848"/>
<path d="M397.756 201.019C396.096 193.365 393.894 185.827 391.163 178.488C397.396 180.349 403.626 182.606 409.813 185.266C406.035 190.836 402.002 196.094 397.756 201.019Z" fill="#50B848"/>
<path d="M424.874 185.945C423.412 186.33 419.639 186.079 416.241 185.819C412.842 185.551 409.812 185.266 409.812 185.266C409.812 185.266 412.211 183.394 414.93 181.335C417.655 179.285 420.696 177.041 422.135 176.578C423.577 176.117 425.047 176.223 426.263 176.787C427.476 177.351 428.432 178.374 428.821 179.706C429.209 181.036 428.96 182.414 428.239 183.542C427.521 184.674 426.336 185.556 424.877 185.942L424.874 185.945Z" fill="white"/>
<path d="M234.927 2.29211C106.446 2.29211 2.29199 106.447 2.29199 234.927C2.29199 363.408 106.446 467.562 234.927 467.562C363.408 467.562 467.562 363.408 467.562 234.927C467.562 106.447 363.408 2.29211 234.927 2.29211ZM234.927 451.468C119.132 451.468 18.3884 350.722 18.3884 234.93C18.3884 119.138 119.135 18.3912 234.927 18.3912C350.719 18.3912 451.466 119.138 451.466 234.93C451.466 350.722 350.719 451.468 234.927 451.468Z" fill="#50B848"/>
<path d="M267.637 23.5657C261.376 28.3997 255.517 33.5052 250.079 38.8343C245.504 32.7465 240.479 26.8159 235.02 21.0928C240.476 15.3671 246.364 9.84635 252.673 4.5838C258.116 10.7381 263.112 17.0813 267.637 23.5657Z" fill="white"/>
<path d="M263.454 22.9666C258.879 26.6454 254.53 30.4678 250.413 34.4154C246.935 29.8929 243.209 25.4608 239.244 21.1326C243.375 16.9641 247.742 12.9153 252.338 9.00238C256.293 13.5622 260.003 18.2258 263.457 22.9666H263.454Z" fill="#FF00A8"/>
<path d="M299.491 30.9898C292.562 34.8043 285.989 38.9541 279.806 43.3915C276.221 36.6782 272.163 30.0528 267.636 23.5658C273.897 18.7345 280.562 14.1747 287.606 9.93695C292.051 16.8499 296.013 23.8852 299.488 30.9898H299.491Z" fill="white"/>
<path d="M295.453 29.7571C290.369 32.6878 285.485 35.7996 280.814 39.0737C278.074 34.072 275.07 29.1236 271.808 24.247C276.524 20.7546 281.459 17.4139 286.604 14.2543C289.818 19.3651 292.768 24.5398 295.453 29.7571Z" fill="#FF00A8"/>
<path d="M329.826 43.2181C322.391 45.9226 315.259 49.013 308.466 52.4469C305.957 45.2624 302.966 38.0913 299.491 30.9894C306.42 27.1749 313.709 23.6959 321.323 20.5921C324.652 28.1066 327.483 35.6664 329.826 43.2208V43.2181Z" fill="white"/>
<path d="M326.025 41.3814C320.549 43.4976 315.247 45.8215 310.126 48.337C308.187 42.9733 305.98 37.6229 303.506 32.3018C308.701 29.576 314.094 27.0339 319.663 24.7021C322.054 30.2468 324.171 35.8128 326.022 41.3814H326.025Z" fill="#FF00A8"/>
<path d="M357.93 59.9537C350.169 61.4896 342.649 63.4514 335.406 65.8045C334.026 58.3193 332.173 50.7729 329.829 43.2211C337.264 40.5166 344.998 38.1954 352.995 36.2949C355.128 44.2299 356.769 52.1331 357.932 59.9537H357.93Z" fill="white"/>
<path d="M354.453 57.5547C348.717 58.8112 343.122 60.2938 337.676 61.9948C336.582 56.3968 335.221 50.7696 333.594 45.1344C339.146 43.2391 344.864 41.5542 350.725 40.1008C352.238 45.9436 353.476 51.7705 354.453 57.5547Z" fill="#FF00A8"/>
<path d="M383.156 80.7697C375.252 81.1131 367.519 81.9063 360.001 83.1254C359.777 75.5151 359.093 67.777 357.932 59.9537C365.692 58.4152 373.689 57.2998 381.88 56.637C382.778 64.8037 383.196 72.8639 383.156 80.7697Z" fill="white"/>
<path d="M380.084 77.8708C374.228 78.2381 368.465 78.8557 362.825 79.7075C362.593 74.0111 362.109 68.2374 361.36 62.4212C367.139 61.3911 373.043 60.6032 379.059 60.0548C379.658 66.0627 380.002 72.004 380.084 77.8735V77.8708Z" fill="#FF00A8"/>
<path d="M404.925 105.171C397.061 104.309 389.298 103.92 381.682 103.987C382.614 96.4323 383.114 88.6756 383.154 80.7698C391.058 80.4264 399.13 80.5382 407.329 81.1264C406.978 89.333 406.168 97.3639 404.927 105.174L404.925 105.171Z" fill="white"/>
<path d="M402.327 101.839C396.479 101.317 390.695 101.048 384.988 101.035C385.625 95.365 386.022 89.5914 386.168 83.7246C392.035 83.5861 397.992 83.6979 404.018 84.0706C403.704 90.0971 403.134 96.0251 402.327 101.836V101.839Z" fill="#FF00A8"/>
<path d="M422.73 132.599C415.09 130.549 407.476 128.984 399.939 127.893C402.011 120.567 403.684 112.981 404.925 105.171C412.789 106.034 420.754 107.367 428.767 109.196C427.172 117.256 425.148 125.071 422.73 132.599Z" fill="white"/>
<path d="M420.673 128.912C414.976 127.501 409.296 126.362 403.661 125.481C405.152 119.976 406.425 114.328 407.456 108.554C413.28 109.307 419.147 110.324 425.048 111.61C423.818 117.522 422.356 123.293 420.673 128.915V128.912Z" fill="#FF00A8"/>
<path d="M436.123 162.426C428.887 159.229 421.601 156.516 414.323 154.288C417.495 147.37 420.31 140.127 422.725 132.597C430.365 134.646 438.032 137.186 445.673 140.218C442.863 147.942 439.668 155.356 436.123 162.423V162.426Z" fill="white"/>
<path d="M434.657 158.467C429.243 156.202 423.807 154.206 418.372 152.475C420.692 147.263 422.806 141.878 424.713 136.328C430.348 137.963 435.999 139.863 441.631 142.038C439.511 147.692 437.181 153.173 434.657 158.47V158.467Z" fill="#FF00A8"/>
<path d="M444.775 193.958C438.118 189.686 431.338 185.888 424.488 182.568C428.685 176.22 432.579 169.496 436.126 162.428C443.359 165.625 450.546 169.312 457.63 173.486C453.667 180.686 449.364 187.519 444.775 193.958Z" fill="white"/>
<path d="M443.93 189.819C438.929 186.747 433.867 183.939 428.762 181.394C431.856 176.603 434.775 171.606 437.512 166.413C442.831 168.891 448.119 171.638 453.352 174.654C450.391 179.914 447.243 184.974 443.933 189.819H443.93Z" fill="#FF00A8"/>
<path d="M448.49 226.441C442.562 221.205 436.443 216.411 430.185 212.078C435.306 206.445 440.184 200.397 444.775 193.958C451.433 198.231 457.968 202.977 464.325 208.181C459.302 214.684 454.008 220.777 448.49 226.444V226.441Z" fill="white"/>
<path d="M448.288 222.225C443.812 218.426 439.239 214.875 434.587 211.575C438.376 207.31 442.03 202.822 445.532 198.111C450.405 201.377 455.21 204.904 459.918 208.681C456.182 213.425 452.296 217.939 448.288 222.222V222.225Z" fill="#FF00A8"/>
<path d="M447.254 259.116C442.184 253.047 436.855 247.39 431.321 242.157C437.233 237.355 442.975 232.108 448.49 226.444C454.418 231.68 460.159 237.352 465.661 243.451C459.717 249.118 453.563 254.348 447.254 259.119V259.116Z" fill="white"/>
<path d="M447.691 254.915C443.84 250.486 439.854 246.288 435.75 242.322C440.139 238.675 444.432 234.786 448.607 230.663C452.929 234.632 457.142 238.84 461.227 243.283C456.82 247.406 452.298 251.287 447.688 254.918L447.691 254.915Z" fill="#FF00A8"/>
<path d="M441.057 291.218C436.977 284.444 432.575 278.042 427.901 272.034C434.474 268.196 440.942 263.886 447.251 259.113C452.322 265.182 457.136 271.664 461.642 278.537C454.902 283.243 448.021 287.47 441.054 291.218H441.057Z" fill="white"/>
<path d="M442.135 287.134C439.011 282.17 435.706 277.411 432.258 272.872C437.152 269.941 441.981 266.75 446.734 263.303C450.407 267.878 453.935 272.68 457.293 277.695C452.305 281.103 447.251 284.252 442.135 287.132V287.134Z" fill="#FF00A8"/>
<path d="M430.002 321.99C427.011 314.67 423.65 307.663 419.954 301.011C427.04 298.23 434.092 294.966 441.059 291.218C445.139 297.993 448.899 305.137 452.297 312.623C444.912 316.237 437.461 319.357 430.002 321.987V321.99Z" fill="white"/>
<path d="M431.694 318.119C429.369 312.734 426.839 307.522 424.128 302.51C429.411 300.365 434.679 297.956 439.901 295.28C442.831 300.367 445.573 305.651 448.125 311.127C442.673 313.727 437.193 316.059 431.694 318.122V318.119Z" fill="#FF00A8"/>
<path d="M414.351 350.701C412.516 343.008 410.268 335.57 407.64 328.429C415.07 326.765 422.539 324.622 430.001 321.992C432.992 329.312 435.61 336.952 437.817 344.866C429.967 347.301 422.127 349.244 414.353 350.703L414.351 350.701Z" fill="white"/>
<path d="M416.615 347.134C415.143 341.456 413.444 335.919 411.534 330.547C417.087 329.238 422.66 327.664 428.234 325.822C430.343 331.298 432.245 336.941 433.925 342.741C428.141 344.474 422.365 345.938 416.618 347.134H416.615Z" fill="#FF00A8"/>
<path d="M394.504 376.689C393.862 368.807 392.773 361.114 391.266 353.65C398.863 353.136 406.575 352.159 414.352 350.698C416.186 358.391 417.603 366.337 418.581 374.493C410.453 375.701 402.41 376.428 394.501 376.686L394.504 376.689Z" fill="white"/>
<path d="M397.285 373.511C396.691 367.673 395.86 361.945 394.792 356.341C400.48 355.894 406.23 355.189 412.019 354.22C413.266 359.954 414.285 365.82 415.06 371.807C409.079 372.638 403.149 373.202 397.287 373.511H397.285Z" fill="#FF00A8"/>
<path d="M370.938 399.365C371.499 391.478 371.59 383.708 371.236 376.103C378.825 376.747 386.594 376.949 394.503 376.688C395.145 384.57 395.344 392.638 395.067 400.848C386.849 400.808 378.791 400.305 370.938 399.362V399.365Z" fill="white"/>
<path d="M374.168 396.645C374.469 390.786 374.514 384.996 374.312 379.295C380.003 379.715 385.792 379.891 391.662 379.814C392.024 385.67 392.136 391.624 391.994 397.656C385.957 397.568 380.011 397.228 374.168 396.645Z" fill="#FF00A8"/>
<path d="M344.199 418.195C345.957 410.486 347.23 402.82 348.031 395.249C355.432 397.038 363.083 398.42 370.939 399.362C370.377 407.249 369.346 415.253 367.826 423.327C359.709 422.041 351.818 420.319 344.199 418.192V418.195Z" fill="white"/>
<path d="M347.809 415.999C348.999 410.252 349.923 404.54 350.586 398.875C356.147 400.155 361.843 401.207 367.656 402.021C367.124 407.864 366.333 413.766 365.273 419.71C359.318 418.709 353.489 417.466 347.809 416.002V415.999Z" fill="#FF00A8"/>
<path d="M314.896 432.724C317.814 425.374 320.243 417.996 322.192 410.638C329.231 413.54 336.581 416.068 344.2 418.195C342.442 425.904 340.202 433.661 337.465 441.41C329.635 438.899 322.102 435.993 314.898 432.724H314.896Z" fill="white"/>
<path d="M318.795 431.105C320.851 425.611 322.637 420.104 324.158 414.607C329.455 416.721 334.925 418.632 340.544 420.319C339.127 426.013 337.444 431.726 335.487 437.438C329.753 435.537 324.185 433.424 318.792 431.103L318.795 431.105Z" fill="#FF00A8"/>
<path d="M283.707 442.581C287.72 435.767 291.257 428.849 294.311 421.88C300.82 425.827 307.69 429.458 314.894 432.724C311.975 440.076 308.569 447.397 304.671 454.632C297.318 450.95 290.322 446.917 283.707 442.581Z" fill="white"/>
<path d="M287.811 441.58C290.689 436.467 293.299 431.3 295.648 426.104C300.559 429.008 305.666 431.731 310.96 434.266C308.686 439.672 306.146 445.062 303.333 450.405C297.959 447.647 292.782 444.703 287.811 441.58Z" fill="#FF00A8"/>
<path d="M251.376 447.535C256.385 441.415 260.944 435.12 265.035 428.702C270.862 433.602 277.093 438.245 283.708 442.581C279.695 449.395 275.2 456.103 270.238 462.657C263.543 457.892 257.248 452.834 251.376 447.537V447.535Z" fill="white"/>
<path d="M255.584 447.176C259.211 442.56 262.585 437.856 265.706 433.084C270.114 436.704 274.742 440.185 279.583 443.5C276.505 448.496 273.163 453.426 269.568 458.276C264.684 454.725 260.018 451.019 255.584 447.176Z" fill="#FF00A8"/>
<path d="M218.664 447.535C224.539 442.238 229.993 436.701 235.02 430.978C240.048 436.704 245.502 442.238 251.377 447.535C246.368 453.655 240.908 459.601 235.02 465.327C229.135 459.601 223.673 453.657 218.664 447.535Z" fill="white"/>
<path d="M222.881 447.815C227.16 443.798 231.208 439.658 235.022 435.41C238.835 439.656 242.883 443.798 247.163 447.815C243.357 452.281 239.307 456.649 235.022 460.898C230.737 456.649 226.686 452.281 222.881 447.815Z" fill="#FF00A8"/>
<path d="M186.333 442.581C192.948 438.245 199.18 433.602 205.006 428.702C209.097 435.12 213.656 441.415 218.665 447.535C212.79 452.832 206.498 457.889 199.803 462.654C194.841 456.103 190.349 449.393 186.333 442.578V442.581Z" fill="white"/>
<path d="M190.456 443.5C195.3 440.185 199.929 436.704 204.333 433.084C207.452 437.859 210.828 442.563 214.455 447.176C210.021 451.017 205.358 454.725 200.472 458.276C196.874 453.426 193.535 448.496 190.456 443.5Z" fill="#FF00A8"/>
<path d="M155.144 432.724C162.347 429.456 169.218 425.827 175.726 421.88C178.781 428.849 182.317 435.767 186.331 442.581C179.716 446.918 172.717 450.95 165.367 454.632C161.468 447.397 158.062 440.076 155.144 432.724Z" fill="white"/>
<path d="M159.078 434.266C164.375 431.731 169.483 429.008 174.391 426.104C176.737 431.3 179.349 436.467 182.228 441.58C177.256 444.703 172.079 447.647 166.705 450.405C163.893 445.062 161.352 439.672 159.078 434.266Z" fill="#FF00A8"/>
<path d="M125.841 418.195C133.46 416.068 140.81 413.54 147.848 410.638C149.798 417.996 152.226 425.374 155.145 432.724C147.941 435.993 140.408 438.899 132.578 441.41C129.841 433.661 127.598 425.904 125.841 418.195Z" fill="white"/>
<path d="M129.494 420.322C135.116 418.634 140.583 416.723 145.88 414.61C147.4 420.104 149.187 425.611 151.243 431.105C145.85 433.424 140.282 435.54 134.548 437.438C132.594 431.726 130.908 426.013 129.491 420.319L129.494 420.322Z" fill="#FF00A8"/>
<path d="M99.1035 399.365C106.96 398.423 114.608 397.041 122.011 395.253C122.815 402.823 124.088 410.487 125.843 418.198C118.224 420.325 110.334 422.047 102.217 423.333C100.696 415.259 99.6654 407.255 99.1035 399.368V399.365Z" fill="white"/>
<path d="M102.387 402.019C108.2 401.207 113.894 400.153 119.457 398.873C120.123 404.537 121.047 410.252 122.234 415.997C116.551 417.461 110.722 418.704 104.77 419.705C103.71 413.763 102.919 407.859 102.387 402.017V402.019Z" fill="#FF00A8"/>
<path d="M75.5375 376.689C83.4441 376.95 91.2149 376.747 98.8045 376.1C98.4504 383.705 98.5409 391.475 99.1028 399.363C91.2495 400.305 83.1911 400.808 74.9729 400.848C74.6986 392.639 74.8957 384.568 75.5375 376.689Z" fill="white"/>
<path d="M78.3785 379.814C84.2479 379.891 90.0373 379.716 95.7283 379.295C95.5259 384.997 95.5685 390.786 95.8721 396.645C90.032 397.231 84.0828 397.569 78.0456 397.657C77.9018 391.622 78.0163 385.67 78.3785 379.814Z" fill="#FF00A8"/>
<path d="M55.6859 350.701C63.462 352.159 71.1742 353.136 78.7719 353.653C77.2646 361.117 76.1754 368.809 75.5337 376.691C67.6271 376.43 59.5847 375.706 51.457 374.498C52.4344 366.339 53.8511 358.396 55.6859 350.703V350.701Z" fill="white"/>
<path d="M58.0219 354.22C63.8114 355.189 69.5583 355.894 75.2492 356.342C74.1813 361.945 73.3478 367.673 72.7566 373.511C66.8979 373.202 60.9619 372.638 54.9834 371.807C55.7583 365.821 56.7756 359.954 58.0246 354.22H58.0219Z" fill="#FF00A8"/>
<path d="M40.039 321.99C47.4982 324.62 54.968 326.765 62.4006 328.429C59.7722 335.571 57.5246 343.008 55.6897 350.701C47.9163 349.242 40.0763 347.299 32.2256 344.863C34.4333 336.949 37.051 329.31 40.0416 321.99H40.039Z" fill="white"/>
<path d="M41.8074 325.826C47.3812 327.668 52.9549 329.241 58.5074 330.55C56.598 335.925 54.899 341.459 53.4263 347.137C47.6794 345.941 41.9033 344.477 36.1191 342.745C37.7969 336.944 39.6983 331.301 41.8101 325.826H41.8074Z" fill="#FF00A8"/>
<path d="M28.9822 291.218C35.9488 294.964 43.0005 298.23 50.0869 301.011C46.3932 307.663 43.0298 314.667 40.0392 321.99C32.58 319.357 25.1288 316.237 17.7441 312.625C21.1395 305.14 24.8998 297.995 28.9822 291.221V291.218Z" fill="white"/>
<path d="M30.1405 295.28C35.3627 297.956 40.6303 300.365 45.9137 302.51C43.2028 307.525 40.6729 312.734 38.348 318.119C32.8515 316.059 27.3709 313.727 21.917 311.124C24.4682 305.648 27.2111 300.365 30.1378 295.278L30.1405 295.28Z" fill="#FF00A8"/>
<path d="M22.7856 259.116C29.0944 263.886 35.563 268.195 42.138 272.034C37.4644 278.042 33.0624 284.443 28.9826 291.218C22.016 287.47 15.1347 283.243 8.39453 278.537C12.9004 271.664 17.7152 265.182 22.7856 259.113V259.116Z" fill="white"/>
<path d="M23.308 263.305C28.0616 266.753 32.8897 269.942 37.7844 272.875C34.333 277.413 31.0309 282.173 27.9071 287.137C22.7914 284.254 17.7369 281.108 12.749 277.701C16.1071 272.686 19.6383 267.884 23.308 263.308V263.305Z" fill="#FF00A8"/>
<path d="M21.5486 226.441C27.0664 232.106 32.8053 237.352 38.7199 242.154C33.1861 247.388 27.8573 253.044 22.7869 259.113C16.4781 254.343 10.3265 249.115 4.37988 243.446C9.88174 237.347 15.6206 231.675 21.5512 226.439L21.5486 226.441Z" fill="white"/>
<path d="M21.4315 230.663C25.6071 234.786 29.8999 238.675 34.2887 242.322C30.1849 246.288 26.1983 250.486 22.3475 254.915C17.7378 251.285 13.2186 247.404 8.80859 243.283C12.8937 238.84 17.1093 234.634 21.4315 230.663Z" fill="#FF00A8"/>
<path d="M25.2633 193.958C29.8544 200.398 34.7358 206.445 39.8568 212.078C33.596 216.411 27.479 221.208 21.5484 226.441C16.0305 220.774 10.7364 214.684 5.71387 208.178C12.0732 202.974 18.6083 198.228 25.2633 193.956V193.958Z" fill="white"/>
<path d="M24.5059 198.111C28.0078 202.82 31.6615 207.31 35.451 211.575C30.7987 214.875 26.2236 218.426 21.7497 222.225C17.7391 217.942 13.8564 213.425 10.1201 208.684C14.8311 204.904 19.6325 201.38 24.5059 198.114V198.111Z" fill="#FF00A8"/>
<path d="M33.9133 162.426C37.4578 169.496 41.3539 176.22 45.5508 182.566C38.7015 185.885 31.9213 189.683 25.2637 193.956C20.6726 187.517 16.3718 180.684 12.4092 173.483C19.4929 169.309 26.6778 165.623 33.9133 162.426Z" fill="white"/>
<path d="M32.5256 166.416C35.2606 171.607 38.182 176.603 41.2764 181.397C36.1714 183.942 31.1089 186.75 26.1077 189.822C22.7975 184.977 19.6498 179.917 16.6885 174.657C21.9214 171.641 27.2102 168.897 32.5283 166.416H32.5256Z" fill="#FF00A8"/>
<path d="M47.3108 132.6C49.7288 140.127 52.5437 147.37 55.7127 154.291C48.4346 156.519 41.1485 159.229 33.913 162.429C30.3685 155.361 27.1701 147.945 24.3633 140.223C32.0036 137.189 39.6705 134.652 47.3108 132.602V132.6Z" fill="white"/>
<path d="M45.3266 136.326C47.2333 141.876 49.3478 147.264 51.6699 152.473C46.232 154.203 40.7994 156.2 35.3827 158.465C32.8582 153.168 30.5253 147.687 28.4082 142.033C34.0406 139.859 39.6916 137.958 45.3266 136.324V136.326Z" fill="#FF00A8"/>
<path d="M65.1167 105.171C66.3577 112.981 68.0301 120.567 70.1019 127.893C62.5655 128.984 54.9518 130.549 47.3116 132.599C44.8935 125.071 42.8696 117.256 41.2744 109.196C49.2875 107.37 57.2527 106.033 65.1167 105.171Z" fill="white"/>
<path d="M62.5875 108.551C63.6208 114.325 64.8937 119.976 66.385 125.478C60.75 126.359 55.0697 127.499 49.3734 128.909C47.6877 123.287 46.2284 117.517 44.998 111.604C50.8994 110.321 56.7687 109.302 62.5902 108.549L62.5875 108.551Z" fill="#FF00A8"/>
<path d="M86.8873 80.7699C86.9273 88.6757 87.4279 96.4325 88.36 103.987C80.7437 103.92 72.9782 104.309 65.1169 105.171C63.8759 97.3615 63.0637 89.3305 62.7148 81.124C70.9117 80.5383 78.9834 80.4266 86.89 80.7673L86.8873 80.7699Z" fill="white"/>
<path d="M83.8748 83.7274C84.0213 89.5942 84.4154 95.3678 85.0546 101.038C79.3477 101.051 73.5635 101.317 67.7155 101.842C66.9112 96.0306 66.3413 90.0999 66.0244 84.0761C72.0509 83.7034 78.0081 83.5916 83.8748 83.7301V83.7274Z" fill="#FF00A8"/>
<path d="M112.111 59.9537C110.949 67.7744 110.265 75.5151 110.039 83.1254C102.521 81.9063 94.7874 81.1131 86.8835 80.7697C86.8435 72.8639 87.2616 64.801 88.1591 56.637C96.3506 57.3025 104.348 58.4178 112.108 59.9537H112.111Z" fill="white"/>
<path d="M108.682 62.4186C107.934 68.2375 107.452 74.0084 107.217 79.7049C101.577 78.8531 95.8141 78.2355 89.958 77.8682C90.0432 72.0014 90.3841 66.0574 90.9833 60.0495C96.9991 60.5978 102.9 61.3884 108.682 62.4159V62.4186Z" fill="#FF00A8"/>
<path d="M140.211 43.2211C137.867 50.7729 136.014 58.3193 134.634 65.8045C127.391 63.4541 119.87 61.4923 112.11 59.9537C113.271 52.1304 114.912 44.2273 117.045 36.2949C125.042 38.1981 132.776 40.5166 140.211 43.2211Z" fill="white"/>
<path d="M136.445 45.1317C134.818 50.7696 133.459 56.3968 132.362 61.9948C126.916 60.2912 121.319 58.8112 115.585 57.5547C116.562 51.7705 117.801 45.9436 119.313 40.1008C125.175 41.5542 130.89 43.2391 136.445 45.1344V45.1317Z" fill="#FF00A8"/>
<path d="M170.547 30.9894C167.069 38.0913 164.078 45.2624 161.572 52.4469C154.779 49.013 147.647 45.9253 140.212 43.2208C142.555 35.669 145.386 28.1093 148.715 20.5921C156.329 23.6959 163.617 27.1749 170.547 30.9894Z" fill="white"/>
<path d="M166.533 32.3018C164.059 37.6255 161.854 42.9733 159.915 48.337C154.797 45.8215 149.492 43.495 144.017 41.3814C145.865 35.8128 147.985 30.2468 150.376 24.7021C155.944 27.0339 161.337 29.576 166.533 32.3018Z" fill="#FF00A8"/>
<path d="M202.401 23.5658C197.874 30.0501 193.816 36.6756 190.231 43.3915C184.048 38.9541 177.475 34.8069 170.546 30.9898C174.024 23.8879 177.984 16.8525 182.431 9.93695C189.478 14.1747 196.14 18.7318 202.404 23.5658H202.401Z" fill="white"/>
<path d="M198.232 24.247C194.97 29.1262 191.966 34.072 189.226 39.0737C184.555 35.7996 179.671 32.6878 174.587 29.7571C177.271 24.5371 180.222 19.3624 183.436 14.2543C188.581 17.4139 193.516 20.7573 198.232 24.247Z" fill="#FF00A8"/>
<path d="M235.017 21.0928C229.561 26.8185 224.533 32.7465 219.958 38.8343C214.52 33.5052 208.661 28.397 202.4 23.5657C206.928 17.0813 211.921 10.7354 217.364 4.5838C223.673 9.84901 229.561 15.3671 235.017 21.0928Z" fill="white"/>
<path d="M230.795 21.1326C226.829 25.4582 223.104 29.8929 219.626 34.4154C215.506 30.4678 211.157 26.6454 206.585 22.9666C210.039 18.2232 213.746 13.5622 217.703 9.00238C222.3 12.9153 226.667 16.9667 230.797 21.1326H230.795Z" fill="#FF00A8"/>
<path d="M235.5 0C105.437 0 0 105.437 0 235.5C0 365.563 105.437 471 235.5 471C365.563 471 471 365.563 471 235.5C471 105.437 365.563 0 235.5 0ZM235.5 466.599C107.868 466.599 4.40058 363.133 4.40058 235.5C4.40058 107.868 107.868 4.40059 235.5 4.40059C363.133 4.40059 466.599 107.868 466.599 235.5C466.599 363.133 363.133 466.599 235.5 466.599Z" fill="white"/>
</svg>
