<svg width="165" height="164" viewBox="0 0 165 164" fill="none" xmlns="http://www.w3.org/2000/svg">
<path d="M98.0547 95.6489C76.4025 64.125 34.198 65.9439 22.6033 67.1053C48.8801 104.058 87.6129 98.0695 98.0547 95.6489Z" fill="#00A2F8"/>
<path d="M68.6568 100.056C44.0167 95.8789 27.0415 72.7621 30.7419 48.4228C34.4422 24.0836 57.4168 7.73873 82.0569 11.9154C106.697 16.0921 123.672 39.2088 119.972 63.548C116.272 87.8873 93.2969 104.232 68.6568 100.056Z" fill="#FF00A8"/>
<path d="M85.0271 98.9421C72.8227 96.8733 64.4472 85.2134 66.3194 72.8988C68.1916 60.5842 79.6026 52.2782 91.807 54.3469C104.011 56.4157 112.388 68.0757 110.515 80.3903C108.643 92.7049 97.2316 101.011 85.0271 98.9421Z" fill="#FF00A8"/>
<path d="M97.7638 88.4993C96.3061 86.0087 94.9283 83.4902 93.7755 80.9576C92.5829 78.4251 91.523 75.8925 90.5954 73.3739C89.6811 70.8274 89.5219 68.2808 88.422 65.8322C87.4149 63.3417 86.4742 60.9071 84.9106 58.1787L84.3406 58.1228C83.5985 59.3541 83.0551 60.6692 82.9094 62.0124C82.6311 63.3697 82.7242 64.7269 82.8699 66.0982C83.2012 68.8546 84.8975 71.4851 86.3153 74.0457C87.7464 76.6342 89.3759 79.1386 91.2178 81.5872C93.0995 84.0078 95.0346 86.4005 97.3005 88.6672L97.7773 88.4853L97.7638 88.4993Z" fill="white"/>
<path d="M100.467 62.572C100.997 62.0263 101.5 61.4665 102.043 60.9348C102.56 60.4031 103.078 59.8714 103.594 59.3677C104.111 58.864 104.8 58.5423 105.145 57.8987C105.516 57.269 105.794 56.6254 106.006 55.618L105.873 55.4081C105.383 55.3241 104.919 55.408 104.522 55.5339C104.098 55.6599 103.753 55.8698 103.422 56.1077C102.733 56.5694 102.481 57.409 102.084 58.0946C101.686 58.7802 101.354 59.4938 101.05 60.2214C100.771 60.963 100.467 61.6905 100.268 62.4601L100.48 62.586L100.467 62.572Z" fill="white"/>
<path d="M98.0285 58.6128C98.4923 57.9972 98.9425 57.3815 99.4196 56.7938C99.8834 56.2061 100.334 55.6185 100.798 55.0448C101.262 54.4711 101.911 54.0655 102.176 53.4078C102.467 52.7502 102.68 52.0645 102.772 51.0291L102.613 50.8332C102.11 50.8192 101.672 50.9313 101.288 51.1272C100.891 51.2951 100.56 51.5469 100.255 51.8267C99.6188 52.3584 99.4594 53.2398 99.1414 53.9674C98.8233 54.695 98.5721 55.4507 98.3468 56.2062C98.1481 56.9758 97.9355 57.7312 97.8163 58.5148L98.0414 58.6128H98.0285Z" fill="white"/>
<path d="M95.0075 56.6813C95.2593 55.9397 95.484 55.212 95.749 54.4844C96.0008 53.7709 96.2397 53.0574 96.5047 52.3578C96.7697 51.6582 97.2466 51.0565 97.2863 50.3289C97.3658 49.6013 97.3527 48.8737 97.1142 47.8803L96.902 47.7544C96.4249 47.9083 96.0408 48.1742 95.736 48.482C95.4048 48.7898 95.1797 49.1396 94.981 49.5034C94.5437 50.231 94.6629 51.1124 94.5966 51.91C94.5304 52.7075 94.5171 53.505 94.5436 54.3025C94.5966 55.1001 94.6226 55.8837 94.7552 56.6673H94.9939L95.0075 56.6813Z" fill="white"/>
<path d="M90.7537 55.7298C90.8995 54.9603 91.0055 54.1907 91.1646 53.4351C91.3103 52.6795 91.4432 51.938 91.589 51.2104C91.7348 50.4829 92.1321 49.7972 92.0659 49.0836C92.0261 48.356 91.907 47.6425 91.5359 46.6911L91.3108 46.593C90.8602 46.8309 90.5286 47.1527 90.2768 47.5165C89.9986 47.8663 89.8267 48.2582 89.6809 48.65C89.3629 49.4335 89.6143 50.287 89.6673 51.0846C89.7203 51.8821 89.8263 52.6796 89.9721 53.4491C90.1443 54.2327 90.2903 55.0023 90.5421 55.7578L90.7802 55.7298H90.7537Z" fill="white"/>
<path d="M84.8698 54.4989C85.0155 53.7294 85.1349 52.9738 85.3072 52.2182C85.4529 51.4627 85.5988 50.7211 85.7711 49.9936C85.9301 49.266 86.3275 48.5943 86.2745 47.8668C86.248 47.1392 86.1421 46.4256 85.7711 45.4602L85.5459 45.3623C85.0954 45.5862 84.7508 45.9078 84.499 46.2576C84.2208 46.6074 84.0353 46.9853 83.8895 47.3771C83.5583 48.1606 83.7967 49.0141 83.8365 49.8117C83.8762 50.6092 83.9693 51.4067 84.1018 52.1902C84.2608 52.9738 84.3932 53.7434 84.6317 54.4989H84.8698Z" fill="white"/>
<path d="M70.6387 72.2964C70.0026 71.8486 69.3398 71.5127 68.664 71.1489C67.9882 70.8131 67.2857 70.5053 66.5702 70.2534C65.8546 70.0016 65.1391 69.54 64.3308 69.6659C63.9333 69.7218 63.5359 69.8058 63.1384 70.0017C62.7541 70.1696 62.3697 70.4354 62.0384 70.8412L62.065 71.0929C62.8468 71.7086 63.4696 72.0165 64.1322 72.2263C64.7815 72.4642 65.4975 72.2404 66.213 72.2684C66.9153 72.2964 67.6304 72.3383 68.3592 72.3802C69.088 72.4082 69.817 72.4782 70.5591 72.5341L70.6387 72.2964Z" fill="white"/>
<path d="M70.1211 68.7847C69.6043 68.197 69.0345 67.6933 68.4647 67.1616C67.8817 66.6579 67.2723 66.1822 66.6362 65.7624C66.0002 65.3426 65.4038 64.6989 64.5955 64.629C64.198 64.573 63.8002 64.559 63.3629 64.643C62.9521 64.7129 62.5152 64.8668 62.1045 65.1747L62.0779 65.4266C62.6875 66.2241 63.2309 66.6718 63.8139 67.0636C64.3837 67.4693 65.1387 67.4274 65.8145 67.6373C66.4903 67.8471 67.1797 68.071 67.8688 68.2949C68.5711 68.5047 69.26 68.7706 69.9755 69.0085L70.1082 68.7987L70.1211 68.7847Z" fill="white"/>
<path d="M70.4414 65.2447C70.0836 64.5451 69.6461 63.9014 69.2088 63.2438C68.7583 62.6002 68.2811 61.9846 67.7511 61.4109C67.221 60.8373 66.7973 60.0677 66.0287 59.7878C65.6577 59.6339 65.2735 59.508 64.8362 59.494C64.4122 59.4521 63.9613 59.4941 63.4975 59.6899L63.405 59.9277C63.8158 60.8652 64.2262 61.4389 64.7165 61.9566C65.1803 62.4883 65.9093 62.6423 66.5321 63.02C67.1416 63.3978 67.7514 63.7895 68.3742 64.1813C69.0102 64.5591 69.6197 64.9928 70.2557 65.3986L70.4278 65.2307L70.4414 65.2447Z" fill="white"/>
<path d="M71.5381 61.8863C71.3526 61.1167 71.0749 60.3892 70.7966 59.6336C70.5051 58.906 70.187 58.1784 69.8028 57.4928C69.4317 56.8072 69.1932 55.9538 68.5042 55.478C68.1729 55.2402 67.828 55.0162 67.4172 54.8903C67.0197 54.7364 66.5691 54.6665 66.0656 54.7364L65.92 54.9463C66.1055 55.9538 66.3703 56.6254 66.7281 57.255C67.0594 57.8987 67.7354 58.2344 68.2389 58.7521C68.7425 59.2698 69.2459 59.8155 69.7627 60.3612C70.2927 60.8929 70.7832 61.4665 71.3 62.0262L71.5122 61.9003L71.5381 61.8863Z" fill="white"/>
<path d="M73.3945 58.9061C73.3945 58.1085 73.288 57.325 73.1952 56.5275C73.076 55.7439 72.9304 54.9603 72.7184 54.1908C72.5064 53.4212 72.4797 52.5397 71.9232 51.9101C71.6582 51.5883 71.3803 51.2944 70.996 51.0566C70.6382 50.8187 70.2143 50.6229 69.724 50.5669L69.5383 50.7348C69.4853 51.7702 69.6048 52.4698 69.8035 53.1834C69.9758 53.883 70.5583 54.3866 70.9294 55.0162C71.3004 55.6459 71.6719 56.3035 72.0429 56.9611C72.4272 57.6188 72.7715 58.2905 73.1558 58.9761L73.3945 58.9061Z" fill="white"/>
<path d="M75.8581 56.4997C76.0303 55.7161 76.1095 54.9325 76.2023 54.149C76.2685 53.3514 76.3084 52.5679 76.2819 51.7564C76.2553 50.9589 76.4277 50.0914 76.0302 49.3358C75.8446 48.958 75.6329 48.5942 75.3281 48.2724C75.0366 47.9506 74.6787 47.6568 74.2017 47.4609L73.9894 47.5728C73.6979 48.5662 73.6449 49.2798 73.6847 50.0074C73.6847 50.735 74.1356 51.3646 74.3608 52.0782C74.5729 52.7918 74.7848 53.5194 74.9969 54.247C75.2221 54.9746 75.4073 55.7301 75.6193 56.4857H75.8581V56.4997Z" fill="white"/>
<path d="M78.8134 54.7787C79.1579 54.0651 79.4231 53.3234 79.6882 52.5818C79.9399 51.8263 80.1516 51.0707 80.3106 50.2871C80.4696 49.5036 80.8277 48.7061 80.6289 47.8806C80.5362 47.4748 80.4168 47.055 80.1916 46.6633C79.9928 46.2715 79.701 45.8937 79.2903 45.5999L79.0521 45.6559C78.5486 46.5374 78.3361 47.223 78.1903 47.9366C78.0313 48.6362 78.3233 49.3637 78.3631 50.1192C78.4161 50.8608 78.4424 51.6164 78.4821 52.3859C78.5351 53.1555 78.5349 53.9251 78.5746 54.7086L78.8134 54.7647V54.7787Z" fill="white"/>
<path d="M98.0547 95.6491C99.7906 95.2434 100.731 94.9355 100.731 94.9355C76.4423 54.4568 20.1783 63.5236 20.1783 63.5236C20.9733 64.7549 21.7818 65.9581 22.6033 67.0915C34.198 65.9301 76.4157 64.1112 98.0547 95.6351V95.6491Z" fill="#FF9F00"/>
<path d="M99.4736 95.229C107.225 88.1071 134.576 60.2492 128.414 25.8569C120.57 31.4117 92.8083 54.2886 99.4736 95.229Z" fill="#00A2F8"/>
<path d="M97.4591 96.9925C97.4591 96.9925 98.2015 96.3769 99.4603 95.2295C92.795 54.289 120.569 31.4122 128.4 25.8574C128.202 24.822 127.99 23.7586 127.738 22.7092C127.738 22.7092 87.1368 47.0552 97.4461 96.9925H97.4591Z" fill="#FF9F00"/>
<path d="M117.931 113.713C117.732 113.657 117.454 113.601 117.215 113.517C116.963 113.419 116.725 113.335 116.486 113.209L116.142 113.041L115.797 112.831C115.572 112.691 115.36 112.565 115.148 112.398L114.525 111.922L113.929 111.39L113.637 111.138C113.544 111.04 113.451 110.942 113.359 110.844L112.802 110.271C112.617 110.089 112.445 109.879 112.259 109.669L111.742 109.053L111.477 108.76C111.398 108.662 111.305 108.536 111.225 108.438L110.735 107.78L110.245 107.151L109.768 106.479L108.827 105.15C108.522 104.674 108.257 104.184 108.019 103.667C107.767 103.163 107.542 102.645 107.303 102.113C107.065 101.596 106.787 101.12 106.442 100.7C106.27 100.49 106.084 100.294 105.886 100.113C105.687 99.9166 105.488 99.7349 105.263 99.553C104.825 99.2032 104.348 98.8813 103.831 98.6014C103.315 98.3076 102.758 98.0418 102.162 97.79C100.969 97.2863 99.6307 96.8665 97.8418 96.7266L97.0602 97.3003C96.6097 99.1052 96.6226 100.63 96.7684 102.071C96.8346 102.799 96.9941 103.471 97.1928 104.114C97.3916 104.758 97.6166 105.388 97.8949 105.975C98.0274 106.269 98.1868 106.563 98.3458 106.829C98.5181 107.095 98.7168 107.346 98.9288 107.598C99.3396 108.088 99.8296 108.494 100.346 108.886C100.85 109.277 101.433 109.599 101.99 109.949C102.546 110.285 103.076 110.649 103.58 111.026L105.183 112.104C105.448 112.286 105.713 112.454 105.991 112.621L106.853 113.097C107.979 113.727 109.198 114.244 110.43 114.678L111.371 114.958C111.53 115 111.676 115.056 111.835 115.098L112.325 115.196L113.293 115.378C113.624 115.42 113.969 115.448 114.287 115.462C114.605 115.49 114.949 115.476 115.28 115.462L115.771 115.434L116.274 115.364C116.605 115.322 116.936 115.224 117.254 115.126C117.586 115.014 117.878 114.902 118.235 114.692L117.917 113.741L117.931 113.713Z" fill="#297F34"/>
<path d="M100.134 98.8816C99.4712 97.7622 98.7692 96.6848 98.0536 95.6494C87.6118 98.07 48.8658 104.059 22.6022 67.1057C20.6676 67.3016 19.5806 67.4695 19.5806 67.4695C50.0315 114.93 100.134 98.8816 100.134 98.8816Z" fill="#297F34"/>
<path d="M98.0547 95.6489C76.4025 64.125 34.198 65.9439 22.6033 67.1053C48.8801 104.058 87.6129 98.0695 98.0547 95.6489Z" fill="#00A2F8"/>
<path d="M100.135 98.7691C100.135 98.7691 140.273 65.944 130.414 24.4998C130.414 24.4998 129.659 24.9474 128.4 25.8429C134.562 60.2352 107.212 88.0931 99.4598 95.215C99.6586 96.3764 99.8836 97.5657 100.135 98.7551V98.7691Z" fill="#297F34"/>
<path d="M99.4736 95.229C107.225 88.1071 134.576 60.2492 128.414 25.8569C120.57 31.4117 92.8083 54.2886 99.4736 95.229Z" fill="#00A2F8"/>
<path d="M103.394 39.1636C104.521 38.0023 105.581 36.813 106.721 35.7217C107.82 34.6023 108.907 33.483 110.007 32.4056C111.107 31.3282 112.551 30.6425 113.266 29.3132C114.035 27.998 114.645 26.6128 115.082 24.4861L114.79 24.0382C113.743 23.8703 112.789 24.0103 111.941 24.3042C111.054 24.57 110.312 25.0037 109.61 25.5075C108.152 26.4729 107.621 28.2639 106.787 29.705C105.952 31.1602 105.236 32.6573 104.6 34.1964C104.004 35.7635 103.381 37.2886 102.944 38.9117L103.394 39.1776V39.1636Z" fill="white"/>
<path d="M98.2125 30.7967C99.2063 29.5094 100.134 28.1942 101.141 26.9629C102.122 25.7036 103.076 24.4723 104.043 23.269C105.023 22.0657 106.388 21.2122 106.945 19.799C107.568 18.3998 108.018 16.9585 108.217 14.7758L107.886 14.3561C106.839 14.3141 105.884 14.5659 105.076 14.9577C104.228 15.3215 103.526 15.8532 102.89 16.4269C101.551 17.5603 101.207 19.4072 100.544 20.9323C99.8818 22.4714 99.3253 24.0525 98.8615 25.6616C98.4374 27.2846 97.9868 28.8797 97.735 30.5448L98.2125 30.7547V30.7967Z" fill="white"/>
<path d="M91.8523 26.7247C92.3956 25.1576 92.8593 23.6046 93.4291 22.0934C93.9591 20.5683 94.4762 19.071 95.0195 17.6019C95.576 16.1327 96.5967 14.8456 96.6895 13.3204C96.8485 11.7813 96.8219 10.2561 96.3316 8.1433L95.8943 7.86353C94.8872 8.19933 94.0784 8.75899 93.4291 9.41661C92.74 10.0602 92.2498 10.8019 91.8258 11.5714C90.9115 13.1105 91.1634 14.9715 91.0176 16.6365C90.8719 18.3295 90.8456 20.0086 90.8986 21.6876C91.0046 23.3666 91.0706 25.0316 91.3489 26.6967L91.8659 26.7387L91.8523 26.7247Z" fill="white"/>
<path d="M82.8564 24.7239C83.1479 23.0869 83.3737 21.4777 83.7182 19.8826C84.0098 18.2875 84.3009 16.7204 84.6189 15.1813C84.9369 13.6282 85.7585 12.2011 85.6127 10.6759C85.5332 9.12283 85.2816 7.63971 84.4733 5.62486L83.9965 5.42896C83.0556 5.91867 82.3399 6.61829 81.7966 7.37386C81.2135 8.11543 80.8422 8.92691 80.5375 9.76643C79.8749 11.4315 80.4052 13.2365 80.498 14.9156C80.604 16.6086 80.8292 18.2736 81.134 19.9246C81.4918 21.5757 81.81 23.1987 82.3401 24.7938L82.8564 24.7518V24.7239Z" fill="white"/>
<path d="M70.4389 22.0933C70.7569 20.4703 71.0083 18.8611 71.3661 17.266C71.6841 15.6849 71.9888 14.1038 72.3334 12.5787C72.6779 11.0396 73.5128 9.61247 73.4068 8.08735C73.3538 6.53424 73.1155 5.03709 72.347 3.00825L71.8695 2.79834C70.9154 3.27407 70.187 3.95965 69.6437 4.70123C69.0474 5.4428 68.6631 6.24026 68.3451 7.06579C67.6561 8.71684 68.1592 10.5219 68.2254 12.2149C68.3049 13.9079 68.5042 15.5729 68.7825 17.224C69.1138 18.875 69.4048 20.5121 69.9083 22.1072L70.4253 22.0653L70.4389 22.0933Z" fill="white"/>
<path d="M40.3604 59.7178C39.0221 58.7803 37.6043 58.0528 36.1865 57.2832C34.7554 56.5696 33.2844 55.912 31.7473 55.3943C30.2366 54.8766 28.713 53.8832 27.0169 54.163C26.182 54.275 25.347 54.4429 24.5122 54.8626C23.6907 55.2264 22.8824 55.7861 22.1933 56.6256L22.2593 57.1713C23.9024 58.4866 25.2143 59.1162 26.6189 59.5779C27.9838 60.0956 29.4945 59.62 31.0051 59.6619C32.5025 59.7179 34.0133 59.8158 35.5505 59.9137C37.1008 59.9697 38.6376 60.1375 40.2013 60.2355L40.374 59.7178H40.3604Z" fill="white"/>
<path d="M39.2861 52.2878C38.1995 51.0425 36.9939 49.9792 35.8013 48.8598C34.5689 47.7964 33.2969 46.7888 31.9321 45.8933C30.5805 44.9979 29.3349 43.6547 27.6255 43.4868C26.7907 43.3748 25.9294 43.3329 25.0283 43.5288C24.1537 43.6687 23.2258 44.0046 22.3645 44.6482L22.2985 45.1937C23.5971 46.8868 24.7235 47.8384 25.9691 48.6499C27.1749 49.5034 28.7517 49.4194 30.1961 49.8532C31.6272 50.2869 33.0845 50.7766 34.5422 51.2524C36.0263 51.7001 37.484 52.2457 38.9814 52.7494L39.2596 52.2878H39.2861Z" fill="white"/>
<path d="M39.9365 44.8024C39.168 43.3192 38.2404 41.976 37.3394 40.5908C36.3853 39.2475 35.3778 37.9463 34.2647 36.729C33.1516 35.5117 32.2509 33.8885 30.6343 33.3008C29.8524 32.979 29.0307 32.7272 28.1031 32.6713C27.2153 32.5873 26.2478 32.6713 25.2672 33.0771L25.0821 33.5808C25.9567 35.5536 26.8308 36.7569 27.8644 37.8622C28.8449 38.9956 30.3955 39.3175 31.6941 40.1151C32.9794 40.8986 34.278 41.738 35.5898 42.5775C36.9282 43.389 38.2138 44.2987 39.5522 45.1662L39.9229 44.8024H39.9365Z" fill="white"/>
<path d="M42.2803 37.708C41.8827 36.071 41.2862 34.5318 40.7164 32.9507C40.1069 31.3976 39.4177 29.8865 38.6226 28.4173C37.8276 26.9622 37.324 25.1573 35.8929 24.1639C35.2038 23.6462 34.4621 23.1984 33.5875 22.9186C32.7527 22.6108 31.7855 22.4429 30.7387 22.5968L30.4469 23.0445C30.8444 25.1852 31.4142 26.5844 32.1563 27.9137C32.8453 29.2569 34.2767 29.9705 35.35 31.0759C36.4233 32.1672 37.483 33.3146 38.5696 34.462C39.6827 35.5953 40.7162 36.7987 41.8293 37.988L42.2803 37.722V37.708Z" fill="white"/>
<path d="M46.1765 31.4262C46.1633 29.7332 45.9376 28.0962 45.7521 26.4172C45.5135 24.7521 45.1955 23.101 44.7582 21.478C44.321 19.8549 44.2414 17.98 43.0753 16.6508C42.5188 15.9792 41.9096 15.3495 41.1278 14.8458C40.3857 14.3281 39.4843 13.9363 38.4375 13.7964L38.0538 14.1462C37.9478 16.3289 38.1858 17.826 38.5966 19.3091C38.9544 20.7923 40.1739 21.8557 40.9822 23.1989C41.7773 24.5422 42.5459 25.9135 43.3277 27.3127C44.1492 28.6979 44.8778 30.1389 45.6861 31.5661L46.1895 31.4262H46.1765Z" fill="white"/>
<path d="M51.4103 26.3191C51.7814 24.6681 51.9537 23.0171 52.1525 21.3521C52.2982 19.687 52.3779 17.994 52.3116 16.301C52.2586 14.622 52.6162 12.775 51.7947 11.1799C51.4104 10.3823 50.9736 9.6128 50.311 8.92719C49.7147 8.24159 48.9329 7.62598 47.939 7.22021L47.4751 7.47197C46.8656 9.55678 46.7593 11.068 46.8255 12.6211C46.8255 14.1462 47.78 15.4895 48.2438 17.0006C48.7076 18.4977 49.1313 20.0367 49.5818 21.5898C50.0721 23.1429 50.4435 24.724 50.894 26.3191H51.4103Z" fill="white"/>
<path d="M57.6504 22.7093C58.3925 21.2121 58.923 19.6451 59.5061 18.078C60.0361 16.4969 60.4863 14.8877 60.8176 13.2227C61.1489 11.5716 61.9174 9.87856 61.4801 8.12956C61.2946 7.26206 61.03 6.39462 60.553 5.56909C60.1289 4.74357 59.5056 3.94604 58.6442 3.31641L58.1409 3.44229C57.0808 5.31721 56.6168 6.74449 56.3253 8.26962C55.9808 9.75277 56.5907 11.3058 56.6967 12.8869C56.8027 14.454 56.8692 16.0631 56.9354 17.6862C57.0547 19.3093 57.0542 20.9463 57.1205 22.6114L57.6239 22.7373L57.6504 22.7093Z" fill="white"/>
<path d="M127.711 110.005C128.334 107.612 129.09 105.22 129.885 102.869C130.68 100.504 131.515 98.1677 132.442 95.859C134.271 91.2277 136.351 86.6942 138.723 82.3567C139.081 81.7131 139.267 81.3772 139.624 80.7336C139.995 80.09 140.181 79.7681 140.552 79.1385C141.188 78.0751 141.81 77.0257 142.486 75.9903C143.811 73.9195 145.216 71.9188 146.74 70.0159C147.137 69.5541 147.509 69.0784 147.906 68.6167C148.397 68.071 148.635 67.805 149.125 67.2593C149.629 66.6996 149.894 66.4058 150.397 65.8461C150.503 65.7342 150.609 65.6083 150.715 65.4963C150.834 65.3424 150.901 65.2724 151.02 65.1325C151.259 64.8387 151.378 64.6989 151.63 64.4051C151.868 64.1112 151.988 63.9713 152.239 63.6775C152.465 63.3696 152.584 63.2297 152.809 62.9218C153.034 62.614 153.154 62.474 153.379 62.1662C153.498 62.0123 153.551 61.9425 153.671 61.7886L153.935 61.3968C154.373 60.7671 154.584 60.4593 155.022 59.8297C155.432 59.186 155.631 58.8642 156.029 58.2206C156.135 58.0667 156.188 57.9826 156.281 57.8147C156.373 57.6468 156.427 57.563 156.519 57.4091C156.718 57.0873 156.81 56.9193 157.009 56.5975C157.182 56.3316 157.341 56.0518 157.513 55.786C157.672 55.5061 157.831 55.2263 158.003 54.9605C158.162 54.6807 158.335 54.4147 158.507 54.1348C158.587 53.9949 158.679 53.8551 158.772 53.7292C158.865 53.5613 158.918 53.4773 159.01 53.3094C159.329 52.7497 159.659 52.1901 159.991 51.6164C160.296 51.0427 160.587 50.4551 160.892 49.8674C160.985 49.6855 161.024 49.6015 161.117 49.4196C161.197 49.2377 161.236 49.1538 161.316 48.9719C161.448 48.6641 161.581 48.3702 161.7 48.0624C161.833 47.7546 161.952 47.4467 162.072 47.1389C162.204 46.7611 162.257 46.5793 162.389 46.2015C162.522 45.8237 162.588 45.6278 162.708 45.25C162.774 45.0541 162.801 44.9702 162.867 44.7743C162.92 44.5784 162.946 44.4805 163.012 44.2986C163.251 43.5291 163.357 43.1373 163.595 42.3537C163.794 41.5562 163.887 41.1643 164.086 40.3668C164.139 40.1709 164.165 40.073 164.205 39.8631C164.245 39.6672 164.258 39.5553 164.297 39.3594C164.377 38.9537 164.417 38.7438 164.483 38.338C164.549 38.0022 164.616 37.6525 164.669 37.3166C164.708 36.9668 164.761 36.6309 164.788 36.2811C164.828 35.9313 164.867 35.5815 164.894 35.2457C164.907 35.0358 164.92 34.9379 164.947 34.728C164.947 34.5601 164.96 34.3782 164.973 34.1963C164.973 33.7765 164.987 33.5667 165 33.1469C165 32.7271 165 32.5172 165 32.0835C164.973 31.3979 164.934 30.7403 164.881 30.0687C164.854 29.7329 164.828 29.3972 164.801 29.0613C164.788 28.8655 164.775 28.7535 164.748 28.5577C164.722 28.3618 164.708 28.2637 164.682 28.0538C164.589 27.3962 164.497 26.7247 164.391 26.067C164.337 25.7312 164.298 25.4095 164.231 25.0737C164.152 24.6819 164.112 24.4859 164.033 24.0941C163.953 23.7024 163.913 23.5065 163.82 23.1148C163.728 22.723 163.688 22.527 163.595 22.1352C163.436 21.4916 163.251 20.848 163.065 20.2043C162.694 18.9171 162.231 17.6578 161.74 16.4126C161.674 16.2586 161.621 16.1048 161.555 15.9509C161.475 15.769 161.435 15.6709 161.356 15.489C161.223 15.1812 161.091 14.8735 160.945 14.5657C160.667 13.95 160.402 13.3483 160.097 12.7467C159.739 12.0331 159.554 11.6693 159.183 10.9697C158.878 10.382 158.547 9.79433 158.215 9.22066C157.884 8.64699 157.526 8.07336 157.168 7.51368C156.983 7.23384 156.797 6.95404 156.612 6.6742C156.426 6.39436 156.215 6.1284 156.029 5.86255C155.234 4.78517 154.386 3.73582 153.445 2.75638C152.504 1.77694 151.51 0.825526 150.344 0C150.198 0.0699598 150.132 0.111943 149.986 0.181902C149.894 1.5811 149.92 2.91034 149.947 4.2116C149.987 5.51285 150.066 6.78611 150.159 8.04538C150.212 8.67502 150.265 9.29061 150.318 9.90625C150.384 10.5219 150.45 11.1376 150.516 11.7393C150.583 12.3549 150.676 12.9565 150.755 13.5581C150.848 14.2857 150.888 14.6356 150.98 15.3632C151.272 17.7698 151.577 20.1343 151.961 22.457C152.027 22.8068 152.054 22.9749 152.107 23.3247C152.16 23.6185 152.226 23.8983 152.266 24.1922C152.332 24.542 152.358 24.7099 152.412 25.0597C152.478 25.4095 152.504 25.5774 152.571 25.9272C152.637 26.277 152.677 26.4448 152.743 26.7807C152.809 27.1304 152.836 27.2983 152.902 27.6341C153.008 28.2078 153.114 28.7815 153.233 29.3551C153.273 29.523 153.286 29.6071 153.326 29.789C153.352 29.9569 153.365 30.0407 153.392 30.2226C153.431 30.5025 153.498 30.7963 153.551 31.0761C153.657 31.6498 153.789 32.2234 153.909 32.7831C153.975 33.1049 154.002 33.2729 154.068 33.5947C154.134 33.9165 154.174 34.0844 154.24 34.4062C154.266 34.5461 154.307 34.6721 154.333 34.812C154.36 34.9799 154.372 35.0499 154.412 35.2178C154.465 35.4837 154.518 35.7635 154.571 36.0433C154.624 36.3232 154.69 36.589 154.743 36.8688C154.783 37.1486 154.836 37.4285 154.876 37.7083C154.929 38.0441 154.969 38.212 155.022 38.5478C155.048 38.7157 155.062 38.7997 155.088 38.9676C155.115 39.1355 155.115 39.2195 155.141 39.3874C155.221 40.073 155.26 40.4088 155.34 41.0944C155.38 41.78 155.393 42.1298 155.432 42.8154C155.432 42.9833 155.433 43.0813 155.446 43.2492C155.446 43.4171 155.446 43.501 155.446 43.6829C155.446 44.0327 155.446 44.2006 155.42 44.5504C155.42 44.9002 155.406 45.0681 155.393 45.4179C155.366 45.7117 155.34 45.9915 155.327 46.2854C155.3 46.5792 155.287 46.873 155.274 47.1669C155.274 47.3488 155.261 47.4328 155.247 47.6147C155.234 47.7826 155.221 47.8805 155.194 48.0484C155.128 48.762 155.088 49.1118 155.022 49.8114C154.929 50.399 154.849 50.9867 154.743 51.5744C154.717 51.7563 154.704 51.8402 154.664 52.022C154.638 52.162 154.598 52.316 154.571 52.4559C154.505 52.7497 154.439 53.0295 154.359 53.3234C154.28 53.6172 154.214 53.897 154.121 54.1909C154.028 54.4707 153.922 54.7505 153.829 55.0304C153.617 55.59 153.432 56.1498 153.167 56.6815C152.862 57.3251 152.703 57.647 152.398 58.2906C152.053 58.9202 151.882 59.2281 151.524 59.8577C151.431 60.0116 151.391 60.0954 151.299 60.2493C151.206 60.4032 151.153 60.4732 151.06 60.6271C150.861 60.935 150.769 61.0749 150.583 61.3828C150.384 61.6906 150.291 61.8306 150.093 62.1384C149.881 62.4322 149.775 62.572 149.563 62.8658C149.351 63.1597 149.245 63.2996 149.033 63.5934C148.927 63.7334 148.873 63.8173 148.767 63.9572C148.675 64.0692 148.582 64.1951 148.476 64.307C148.012 64.8667 147.787 65.1466 147.323 65.7062C146.926 66.182 146.502 66.6717 146.091 67.1475C145.68 67.6372 145.296 68.1408 144.898 68.6305C141.771 72.6322 139.121 76.9698 136.895 81.5172C134.695 86.0646 132.84 90.7519 131.236 95.5092C129.633 100.266 128.281 105.08 127.301 109.977C127.46 110.005 127.539 110.019 127.698 110.047L127.711 110.005Z" fill="url(#paint0_linear_55_43588)"/>
<path d="M128.467 124.333C129.063 122.234 129.924 120.205 130.878 118.218C131.845 116.245 132.919 114.314 134.098 112.467C135.278 110.62 136.642 108.871 138.14 107.248C139.637 105.625 141.201 104.114 142.711 102.631C143.467 101.889 144.301 101.218 145.162 100.602C146.024 99.9866 146.938 99.4408 147.813 98.8951C148.687 98.3634 149.549 97.8458 150.317 97.2721C151.099 96.7125 151.802 96.1107 152.464 95.4671C153.776 94.1519 154.955 92.7527 156.148 91.1016C156.744 90.2901 157.341 89.3945 157.977 88.4151C158.136 88.1633 158.295 87.9255 158.454 87.6597C158.546 87.5057 158.599 87.4217 158.692 87.2538C158.771 87.1139 158.864 87.0019 158.944 86.848C159.05 86.6801 159.103 86.5963 159.196 86.4284C159.275 86.2744 159.368 86.1344 159.46 85.9945C159.633 85.7007 159.818 85.393 159.99 85.0432C159.95 84.8893 159.924 84.8053 159.871 84.6513C159.182 84.2456 158.493 83.9657 157.818 83.7558C157.128 83.532 156.439 83.3921 155.75 83.2942C154.372 83.1123 153.021 83.1682 151.722 83.378C150.41 83.5879 149.165 83.9798 147.985 84.4975C146.806 85.0152 145.693 85.6588 144.686 86.4144C143.678 87.1699 142.764 88.0374 141.982 89.0028C141.2 89.9683 140.538 91.0317 139.968 92.137C139.398 93.2424 138.895 94.3617 138.405 95.4671C137.915 96.5725 137.424 97.6638 136.921 98.7132C136.417 99.7626 135.966 100.84 135.542 101.931C135.132 103.023 134.761 104.114 134.403 105.205C133.979 106.507 133.767 107.15 133.343 108.452C132.985 109.529 132.627 110.593 132.256 111.642C130.772 115.853 129.46 120.051 128.056 124.221C128.215 124.263 128.294 124.277 128.44 124.319L128.467 124.333Z" fill="url(#paint1_linear_55_43588)"/>
<path d="M131.329 134.057C131.448 132.756 131.806 131.441 132.243 130.195C132.694 128.95 133.277 127.747 133.94 126.614C134.602 125.48 135.437 124.445 136.338 123.507C137.239 122.57 138.154 121.702 139.055 120.849C139.187 120.723 139.254 120.653 139.399 120.527C139.545 120.401 139.611 120.345 139.757 120.219C139.996 120.023 140.22 119.814 140.472 119.632C140.764 119.408 140.91 119.296 141.201 119.072C141.321 118.974 141.44 118.89 141.572 118.792C141.718 118.68 141.798 118.624 141.944 118.526C142.182 118.344 142.42 118.148 142.672 117.966C142.911 117.785 143.149 117.589 143.375 117.393C143.613 117.211 143.852 117.015 144.077 116.805C144.196 116.707 144.302 116.609 144.421 116.497C144.54 116.399 144.66 116.301 144.779 116.203C145.017 116.008 145.243 115.798 145.481 115.588C145.72 115.378 145.959 115.182 146.197 114.972C146.436 114.762 146.674 114.538 146.913 114.329C147.164 114.119 147.403 113.895 147.655 113.671C147.774 113.559 147.893 113.433 148.026 113.335C148.145 113.223 148.277 113.111 148.396 112.999C148.648 112.776 148.9 112.538 149.152 112.286C149.656 111.81 150.172 111.32 150.676 110.733C150.623 110.579 150.596 110.509 150.543 110.355C150.159 110.285 149.788 110.243 149.404 110.229C149.033 110.201 148.648 110.187 148.277 110.201C147.906 110.215 147.535 110.243 147.164 110.285C146.793 110.313 146.422 110.369 146.064 110.439C145.336 110.579 144.62 110.747 143.918 110.999C143.56 111.11 143.215 111.236 142.871 111.376C142.526 111.53 142.195 111.684 141.85 111.838C141.678 111.922 141.519 112.006 141.347 112.09C141.188 112.174 141.029 112.272 140.857 112.37C140.539 112.566 140.221 112.762 139.903 112.971C139.307 113.419 138.71 113.867 138.18 114.413C137.106 115.462 136.193 116.665 135.345 117.883C134.907 118.484 134.536 119.128 134.192 119.786C134.033 120.121 133.874 120.457 133.715 120.793C133.569 121.129 133.436 121.478 133.304 121.814C132.8 123.185 132.403 124.571 132.032 125.928C131.303 128.656 130.905 131.371 130.892 134.099C131.051 134.099 131.13 134.099 131.303 134.099L131.329 134.057Z" fill="url(#paint2_linear_55_43588)"/>
<path d="M134.76 143.362C135.356 141.459 136.191 139.654 137.184 138.003C137.436 137.597 137.688 137.192 137.967 136.8C138.245 136.408 138.51 136.03 138.801 135.666C138.881 135.554 138.934 135.499 139.014 135.387C139.106 135.275 139.146 135.233 139.239 135.121C139.384 134.939 139.53 134.771 139.689 134.603C139.848 134.435 139.994 134.253 140.153 134.099C140.352 133.903 140.444 133.805 140.63 133.61C141.279 132.98 142.061 132.49 142.816 132.028C143.2 131.805 143.558 131.567 143.916 131.329C144.261 131.063 144.605 130.825 144.936 130.517C145.109 130.377 145.281 130.237 145.44 130.084C145.519 130.014 145.613 129.93 145.692 129.86C145.798 129.776 145.851 129.734 145.957 129.636C146.129 129.482 146.301 129.328 146.474 129.16C146.646 129.006 146.831 128.852 147.004 128.684C147.348 128.335 147.733 128.013 148.104 127.635C148.475 127.257 148.872 126.879 149.27 126.39C149.217 126.194 149.19 126.096 149.15 125.914C147.984 125.48 146.818 125.368 145.666 125.466C145.374 125.494 145.082 125.522 144.804 125.564C144.525 125.62 144.234 125.676 143.956 125.76C143.81 125.788 143.677 125.83 143.532 125.872C143.399 125.914 143.253 125.97 143.121 126.012C142.843 126.11 142.578 126.208 142.313 126.334C141.253 126.81 140.299 127.523 139.543 128.405C138.788 129.286 138.152 130.252 137.516 131.175C136.893 132.112 136.35 133.078 135.912 134.085C135.687 134.589 135.502 135.093 135.316 135.597C135.144 136.114 134.985 136.618 134.853 137.136C134.588 138.171 134.402 139.206 134.296 140.242C134.19 141.277 134.163 142.313 134.256 143.348C134.455 143.348 134.561 143.348 134.76 143.376V143.362Z" fill="url(#paint3_linear_55_43588)"/>
<path d="M136.337 152.106C136.947 150.833 137.649 149.602 138.417 148.511C138.616 148.231 138.802 147.965 139.014 147.713C139.213 147.461 139.424 147.195 139.636 146.957C139.742 146.832 139.849 146.72 139.955 146.608C140.061 146.496 140.166 146.37 140.272 146.272C140.378 146.16 140.485 146.048 140.604 145.95C140.736 145.824 140.803 145.768 140.935 145.642C141.386 145.25 141.942 144.984 142.446 144.761C142.578 144.705 142.698 144.649 142.804 144.579C142.923 144.523 143.029 144.467 143.135 144.383C143.241 144.313 143.347 144.243 143.44 144.159C143.493 144.117 143.532 144.075 143.585 144.033C143.638 143.991 143.678 143.949 143.731 143.907C143.784 143.851 143.811 143.823 143.877 143.767C143.93 143.711 143.97 143.669 144.023 143.627C144.129 143.529 144.221 143.445 144.327 143.333C144.433 143.235 144.54 143.138 144.646 143.026C144.752 142.914 144.857 142.788 144.99 142.69C145.109 142.578 145.229 142.452 145.361 142.312C145.494 142.186 145.626 142.06 145.759 141.92C146.037 141.626 146.342 141.361 146.673 140.969C146.673 140.773 146.673 140.675 146.673 140.479C146.58 140.395 146.487 140.325 146.395 140.241C146.302 140.171 146.196 140.101 146.103 140.031C145.997 139.961 145.904 139.905 145.798 139.849C145.692 139.793 145.586 139.751 145.48 139.696C145.268 139.612 145.056 139.528 144.831 139.458C144.725 139.43 144.606 139.402 144.499 139.374C144.393 139.346 144.274 139.332 144.168 139.318C143.267 139.178 142.313 139.276 141.438 139.57C140.564 139.863 139.769 140.395 139.213 141.095C138.643 141.794 138.219 142.55 137.781 143.25C137.357 143.963 137.013 144.691 136.722 145.418C136.589 145.782 136.47 146.16 136.364 146.524C136.258 146.901 136.178 147.265 136.099 147.643C135.953 148.385 135.847 149.126 135.82 149.868C135.794 150.231 135.794 150.609 135.794 150.973C135.794 151.337 135.82 151.701 135.86 152.078C136.059 152.106 136.165 152.106 136.364 152.134L136.337 152.106Z" fill="url(#paint4_linear_55_43588)"/>
<path d="M140.856 160.628C141.28 159.438 141.784 158.305 142.367 157.284C142.659 156.766 142.964 156.276 143.295 155.829C143.454 155.605 143.613 155.381 143.798 155.171C143.878 155.059 143.971 154.961 144.05 154.863C144.143 154.765 144.223 154.667 144.315 154.569C144.66 154.191 145.137 153.926 145.561 153.702C145.985 153.478 146.303 153.212 146.581 152.848C146.714 152.652 146.859 152.484 147.005 152.247C147.164 152.051 147.297 151.799 147.469 151.561C147.8 151.029 148.185 150.484 148.648 149.672C148.609 149.476 148.595 149.378 148.555 149.196C147.787 148.651 146.965 148.399 146.13 148.371C145.706 148.343 145.295 148.399 144.885 148.469C144.487 148.567 144.077 148.679 143.706 148.861C143.322 149.028 142.977 149.266 142.672 149.532C142.367 149.812 142.102 150.12 141.89 150.47C141.665 150.805 141.506 151.169 141.334 151.533C141.254 151.715 141.175 151.883 141.095 152.065C141.029 152.247 140.949 152.414 140.87 152.582C140.79 152.75 140.724 152.932 140.658 153.1C140.591 153.268 140.525 153.436 140.472 153.618C140.353 153.968 140.274 154.303 140.181 154.653C140.141 154.821 140.114 155.003 140.075 155.171C140.048 155.381 140.022 155.479 139.995 155.689C139.955 156.038 139.929 156.374 139.903 156.71C139.876 157.382 139.889 158.053 139.969 158.711C140.008 159.033 140.048 159.369 140.114 159.69C140.18 160.012 140.247 160.32 140.34 160.656C140.539 160.656 140.645 160.656 140.843 160.642L140.856 160.628Z" fill="url(#paint5_linear_55_43588)"/>
<path d="M101.278 124.711C98.9988 124.067 96.6799 123.535 94.3477 123.06C92.0155 122.584 89.683 122.164 87.3243 121.814C82.6202 121.129 77.8766 120.709 73.1195 120.667C72.404 120.667 72.0457 120.667 71.3434 120.667C70.6279 120.667 70.2703 120.681 69.568 120.695C68.3887 120.737 67.1958 120.765 66.0165 120.849C63.6578 121.003 61.299 121.269 58.9801 121.688C58.3971 121.814 57.8146 121.912 57.2448 122.038C56.5557 122.206 56.2108 122.29 55.5218 122.458C54.8062 122.64 54.4354 122.724 53.7198 122.906C53.574 122.948 53.4152 122.976 53.2695 123.018C53.084 123.046 53.004 123.074 52.8185 123.102C52.4607 123.172 52.2756 123.214 51.9178 123.284C51.5601 123.353 51.3743 123.395 51.0165 123.465C50.6588 123.521 50.473 123.549 50.1152 123.605C49.7575 123.661 49.572 123.689 49.201 123.745C49.0155 123.773 48.9229 123.787 48.7507 123.815C48.5651 123.829 48.4726 123.843 48.3003 123.857C47.5715 123.927 47.2 123.969 46.4712 124.053C45.7424 124.095 45.3715 124.109 44.6427 124.151C44.4572 124.151 44.3643 124.165 44.1788 124.179C43.9933 124.179 43.9007 124.179 43.7285 124.179C43.3574 124.179 43.1852 124.193 42.8142 124.207C42.5094 124.221 42.2047 124.235 41.9 124.263C41.5952 124.263 41.2902 124.263 40.9721 124.291C40.6674 124.291 40.3497 124.319 40.0449 124.333C39.8859 124.333 39.74 124.347 39.581 124.361C39.3955 124.361 39.3026 124.361 39.1171 124.361C38.4943 124.361 37.8716 124.375 37.2356 124.389C36.6128 124.361 35.9768 124.347 35.354 124.319C35.1685 124.319 35.0753 124.305 34.8765 124.291C34.691 124.277 34.5988 124.263 34.4133 124.235C34.0952 124.207 33.7899 124.165 33.4718 124.123C33.1538 124.081 32.8491 124.039 32.5311 123.997C32.16 123.927 31.9749 123.885 31.6039 123.815C31.2328 123.745 31.0474 123.703 30.6631 123.633C30.4776 123.591 30.3844 123.577 30.1856 123.535C30.0001 123.493 29.9078 123.465 29.7223 123.423C28.967 123.241 28.5954 123.144 27.8401 122.962C27.0981 122.738 26.7142 122.626 25.9722 122.402C25.7867 122.346 25.6934 122.318 25.4947 122.262C25.3092 122.192 25.2169 122.164 25.0314 122.094C24.6604 121.954 24.4746 121.884 24.1036 121.744C23.7988 121.632 23.4805 121.521 23.1757 121.395C22.871 121.255 22.5666 121.129 22.2751 120.975C21.9703 120.835 21.6653 120.695 21.3738 120.541C21.1883 120.457 21.109 120.401 20.9234 120.317C20.7777 120.233 20.6318 120.149 20.4861 120.065C20.1415 119.855 19.9691 119.757 19.6113 119.548C19.2668 119.338 19.0946 119.226 18.7501 119.016C18.2068 118.652 17.6901 118.274 17.1733 117.883C16.9083 117.687 16.6567 117.491 16.3917 117.295C16.2327 117.169 16.1664 117.113 16.0074 117.001C15.8616 116.875 15.7817 116.819 15.636 116.693C15.1457 116.274 14.6556 115.84 14.1653 115.42C13.9268 115.21 13.6753 115 13.4367 114.762C13.1585 114.497 13.0123 114.357 12.7341 114.077C12.4558 113.797 12.3103 113.657 12.032 113.391C11.7538 113.111 11.6212 112.971 11.343 112.692C10.8924 112.216 10.4681 111.712 10.0308 111.222C9.16949 110.229 8.37431 109.166 7.60576 108.088C7.513 107.948 7.40735 107.822 7.3146 107.682C7.20859 107.515 7.15563 107.431 7.03638 107.263C6.85086 106.983 6.67839 106.703 6.49287 106.423C6.13509 105.863 5.77727 105.304 5.44599 104.73C5.04846 104.031 4.84969 103.695 4.45216 102.995C4.12089 102.421 3.81616 101.82 3.51139 101.232C3.20661 100.644 2.92816 100.029 2.66314 99.4131C2.53063 99.1053 2.39838 98.7976 2.26587 98.4898C2.13335 98.182 2.01438 97.8601 1.89512 97.5382C1.41808 96.265 0.99382 94.9638 0.662544 93.6066C0.331268 92.2494 0.066246 90.8641 -7.62939e-06 89.381C0.1325 89.283 0.198753 89.241 0.331268 89.1431C1.52386 89.7727 2.58395 90.4724 3.64403 91.158C4.69086 91.8576 5.6844 92.5711 6.66499 93.2986C7.14202 93.6624 7.63275 94.0263 8.10979 94.4041C8.58682 94.7679 9.03744 95.1457 9.51447 95.5235C9.97826 95.9013 10.4285 96.279 10.8791 96.6567C11.4223 97.1045 11.7003 97.3284 12.2436 97.7762C14.059 99.2593 15.835 100.742 17.5311 102.268C17.7829 102.505 17.9154 102.617 18.1671 102.841C18.3791 103.037 18.5782 103.233 18.7902 103.429C19.042 103.653 19.1609 103.779 19.4127 104.003C19.6644 104.24 19.784 104.352 20.0357 104.59C20.2743 104.828 20.4067 104.954 20.6452 105.192C20.897 105.43 21.0159 105.542 21.2677 105.766C21.6785 106.143 22.0895 106.549 22.5002 106.941C22.6195 107.067 22.6857 107.123 22.805 107.235C22.9243 107.347 22.9908 107.403 23.1233 107.515C23.3354 107.696 23.5338 107.892 23.7458 108.088C24.1565 108.466 24.5543 108.886 24.9518 109.278C25.1771 109.501 25.2963 109.613 25.5348 109.823C25.7601 110.047 25.8795 110.173 26.1048 110.397C26.1976 110.495 26.2903 110.593 26.383 110.691C26.5023 110.803 26.5549 110.859 26.6742 110.971C26.873 111.152 27.0717 111.348 27.2572 111.53C27.4559 111.712 27.6414 111.922 27.8401 112.104C28.0389 112.286 28.2515 112.468 28.4503 112.65C28.6888 112.874 28.8213 112.985 29.0598 113.209C29.179 113.321 29.2453 113.377 29.3645 113.489C29.497 113.587 29.5497 113.643 29.6822 113.755C30.199 114.175 30.464 114.385 30.9808 114.804C31.5241 115.182 31.8027 115.378 32.346 115.77C32.4785 115.868 32.5577 115.91 32.6902 116.008C32.836 116.092 32.9023 116.134 33.048 116.217C33.3396 116.385 33.4721 116.469 33.7636 116.637C34.0552 116.805 34.2007 116.889 34.4922 117.057C34.744 117.183 34.9826 117.309 35.2343 117.435C35.4861 117.561 35.7247 117.701 35.9765 117.827C36.1222 117.911 36.2021 117.953 36.3479 118.023C36.4936 118.092 36.5732 118.134 36.7322 118.204C37.3417 118.498 37.6461 118.652 38.2689 118.946C38.7857 119.156 39.3156 119.38 39.8457 119.59C40.0047 119.66 40.0846 119.688 40.2436 119.743C40.3761 119.785 40.5087 119.828 40.6544 119.87C40.9195 119.953 41.1972 120.037 41.4755 120.121C41.7538 120.205 42.019 120.275 42.2972 120.345C42.5755 120.401 42.8536 120.457 43.1319 120.499C43.6884 120.583 44.2583 120.709 44.8148 120.737C45.5039 120.779 45.8352 120.807 46.5242 120.849C47.2133 120.849 47.5582 120.849 48.2473 120.849C48.4195 120.849 48.5117 120.849 48.684 120.849C48.8563 120.849 48.9491 120.835 49.1214 120.821C49.4659 120.793 49.6387 120.793 49.9832 120.765C50.3278 120.737 50.4999 120.737 50.8444 120.709C51.189 120.667 51.3611 120.639 51.7056 120.597C52.0501 120.555 52.2223 120.527 52.5668 120.485C52.7391 120.457 52.8319 120.443 53.0042 120.429C53.15 120.401 53.2955 120.373 53.428 120.345C54.117 120.205 54.462 120.135 55.151 120.009C55.7473 119.884 56.3567 119.758 56.953 119.632C57.5625 119.506 58.159 119.408 58.7685 119.31C63.6184 118.498 68.5213 118.288 73.3447 118.582C78.1681 118.89 82.9382 119.59 87.629 120.541C92.3199 121.507 96.9444 122.724 101.437 124.305C101.384 124.459 101.344 124.543 101.291 124.697L101.278 124.711Z" fill="url(#paint6_linear_55_43588)"/>
<path d="M112.581 132.672C110.567 132.154 108.474 131.902 106.367 131.762C104.26 131.637 102.153 131.637 100.032 131.762C97.9254 131.902 95.8056 132.252 93.7252 132.798C91.6448 133.33 89.6172 133.987 87.6296 134.617C86.6357 134.939 85.6685 135.344 84.7277 135.82C83.7868 136.296 82.8724 136.842 81.9979 137.359C81.11 137.891 80.262 138.409 79.4007 138.814C78.5526 139.234 77.6914 139.57 76.8301 139.85C75.0942 140.381 73.3449 140.731 71.397 140.983C70.4297 141.109 69.3963 141.193 68.27 141.277C67.9917 141.291 67.7003 141.319 67.4088 141.333C67.2233 141.333 67.1433 141.333 66.9578 141.347C66.812 141.347 66.6665 141.375 66.5075 141.375C66.3219 141.375 66.2294 141.375 66.0306 141.389C65.8716 141.389 65.6992 141.389 65.5402 141.389C65.2089 141.389 64.8643 141.403 64.4933 141.389C64.3873 141.263 64.3343 141.207 64.2416 141.095C64.2681 140.269 64.3744 139.5 64.5599 138.758C64.7322 138.017 64.9571 137.317 65.2354 136.646C65.792 135.302 66.5073 134.099 67.3421 133.022C68.1769 131.93 69.1312 131.007 70.1515 130.181C71.1718 129.356 72.2583 128.698 73.3847 128.152C74.511 127.607 75.677 127.229 76.8696 127.005C78.0621 126.781 79.255 126.725 80.4476 126.767C81.6402 126.809 82.8062 126.921 83.959 127.033C85.1118 127.145 86.2386 127.257 87.3649 127.341C88.478 127.411 89.5908 127.551 90.6906 127.719C91.7905 127.901 92.8641 128.11 93.9374 128.334C95.2095 128.614 95.8451 128.754 97.1305 129.02C98.1905 129.244 99.2379 129.454 100.285 129.65C104.472 130.447 108.566 131.371 112.688 132.224C112.648 132.392 112.621 132.462 112.568 132.63L112.581 132.672Z" fill="url(#paint7_linear_55_43588)"/>
<path d="M119.072 140.228C117.946 139.668 116.7 139.332 115.454 139.095C114.209 138.871 112.937 138.787 111.665 138.815C110.393 138.843 109.134 139.081 107.902 139.416C106.683 139.752 105.503 140.158 104.35 140.536C104.178 140.592 104.085 140.62 103.913 140.676C103.74 140.746 103.661 140.774 103.489 140.844C103.211 140.955 102.919 141.067 102.641 141.193C102.309 141.347 102.137 141.417 101.806 141.571C101.674 141.627 101.528 141.697 101.395 141.767C101.236 141.851 101.143 141.879 100.984 141.963C100.706 142.089 100.441 142.201 100.163 142.341C99.8843 142.467 99.6195 142.578 99.3279 142.69C99.0497 142.816 98.7715 142.928 98.4933 143.04C98.3475 143.096 98.2146 143.152 98.0688 143.194C97.9231 143.25 97.7908 143.306 97.645 143.362C97.3668 143.474 97.0754 143.586 96.7838 143.684C96.4923 143.796 96.2138 143.922 95.9091 144.02C95.6175 144.131 95.3129 144.23 95.0213 144.356C94.7298 144.481 94.4248 144.579 94.12 144.691C93.9743 144.747 93.8025 144.789 93.6568 144.859C93.4978 144.915 93.3519 144.985 93.1929 145.027C92.8748 145.139 92.5565 145.251 92.2385 145.349C91.5892 145.559 90.9266 145.797 90.1978 145.95C90.105 145.825 90.0524 145.769 89.9597 145.643C90.1054 145.265 90.2643 144.901 90.4365 144.537C90.6088 144.187 90.781 143.824 90.993 143.502C91.1917 143.18 91.4037 142.844 91.629 142.536C91.841 142.215 92.0663 141.907 92.3181 141.613C92.7951 141.025 93.2989 140.452 93.8554 139.948C94.1337 139.682 94.4118 139.43 94.6901 139.192C94.9816 138.955 95.2863 138.731 95.5778 138.507C95.7235 138.395 95.883 138.283 96.0288 138.171C96.1878 138.073 96.3466 137.975 96.5056 137.877C96.8236 137.681 97.1416 137.485 97.4729 137.318C98.1355 136.996 98.811 136.688 99.5266 136.492C100.931 136.044 102.376 135.834 103.794 135.68C104.509 135.596 105.225 135.583 105.927 135.597C106.285 135.611 106.629 135.652 106.987 135.68C107.331 135.708 107.689 135.778 108.034 135.834C109.412 136.072 110.737 136.408 112.035 136.772C114.633 137.485 117.044 138.507 119.271 139.892C119.191 140.032 119.138 140.116 119.059 140.256L119.072 140.228Z" fill="url(#paint8_linear_55_43588)"/>
<path d="M124.916 148.077C123.061 147.657 121.166 147.504 119.311 147.56C118.847 147.574 118.384 147.602 117.933 147.658C117.483 147.714 117.032 147.756 116.581 147.839C116.449 147.867 116.383 147.867 116.25 147.895C116.118 147.923 116.051 147.937 115.919 147.965C115.694 148.007 115.482 148.049 115.256 148.105C115.044 148.161 114.819 148.203 114.607 148.273C114.355 148.343 114.223 148.385 113.971 148.469C113.123 148.749 112.328 149.197 111.573 149.658C111.202 149.896 110.817 150.092 110.446 150.302C110.062 150.484 109.678 150.666 109.267 150.82C109.068 150.904 108.869 150.988 108.657 151.058C108.551 151.099 108.445 151.128 108.339 151.17C108.22 151.226 108.154 151.239 108.021 151.295C107.809 151.379 107.597 151.449 107.372 151.519C107.16 151.603 106.934 151.687 106.709 151.757C106.245 151.897 105.795 152.079 105.292 152.219C104.788 152.359 104.285 152.541 103.688 152.639C103.556 152.499 103.489 152.429 103.357 152.289C103.595 151.016 104.099 149.882 104.762 148.889C104.934 148.637 105.093 148.385 105.279 148.147C105.464 147.923 105.663 147.7 105.862 147.476C105.968 147.364 106.06 147.252 106.166 147.154C106.272 147.056 106.378 146.958 106.498 146.846C106.723 146.65 106.935 146.454 107.173 146.272C108.101 145.545 109.161 145.055 110.261 144.803C111.374 144.565 112.474 144.481 113.547 144.369C114.62 144.271 115.693 144.285 116.727 144.383C117.244 144.439 117.761 144.523 118.264 144.607C118.768 144.705 119.271 144.831 119.762 144.971C120.742 145.251 121.683 145.615 122.584 146.048C123.485 146.482 124.333 146.986 125.142 147.602C125.049 147.783 124.996 147.881 124.903 148.077H124.916Z" fill="url(#paint9_linear_55_43588)"/>
<path d="M131.251 153.94C129.899 153.842 128.548 153.856 127.249 154.01C126.931 154.052 126.613 154.094 126.295 154.15C125.977 154.206 125.672 154.262 125.367 154.332C125.222 154.359 125.063 154.402 124.917 154.444C124.771 154.486 124.625 154.513 124.48 154.569C124.334 154.611 124.188 154.653 124.042 154.695C123.87 154.751 123.791 154.779 123.618 154.849C123.062 155.059 122.571 155.423 122.134 155.773C122.028 155.857 121.909 155.941 121.803 156.011C121.697 156.095 121.591 156.165 121.485 156.221C121.366 156.277 121.273 156.346 121.154 156.388C121.101 156.416 121.034 156.43 120.981 156.458C120.928 156.486 120.862 156.5 120.809 156.528C120.73 156.556 120.703 156.57 120.623 156.584C120.557 156.598 120.491 156.612 120.438 156.64C120.319 156.682 120.186 156.724 120.04 156.766C119.908 156.808 119.775 156.85 119.63 156.892C119.484 156.934 119.325 156.976 119.179 157.032C119.02 157.088 118.861 157.13 118.689 157.172C118.53 157.228 118.344 157.284 118.159 157.34C117.775 157.438 117.404 157.592 116.913 157.69C116.754 157.592 116.675 157.536 116.516 157.424C116.49 157.298 116.476 157.172 116.463 157.046C116.463 156.92 116.463 156.794 116.449 156.668C116.449 156.542 116.449 156.416 116.449 156.29C116.449 156.164 116.476 156.053 116.49 155.927C116.529 155.689 116.569 155.451 116.622 155.213C116.648 155.101 116.688 154.989 116.728 154.877C116.767 154.765 116.808 154.653 116.847 154.541C117.192 153.646 117.748 152.834 118.437 152.191C119.113 151.533 119.961 151.099 120.809 150.946C121.67 150.778 122.505 150.778 123.3 150.736C124.095 150.708 124.864 150.764 125.606 150.876C125.977 150.932 126.335 151.016 126.692 151.113C127.05 151.211 127.395 151.323 127.739 151.435C128.415 151.673 129.078 151.967 129.7 152.303C130.019 152.471 130.31 152.653 130.615 152.834C130.906 153.03 131.198 153.226 131.477 153.45C131.397 153.646 131.357 153.744 131.264 153.94H131.251Z" fill="url(#paint10_linear_55_43588)"/>
<path d="M135.902 162.39C134.723 162.167 133.543 162.055 132.404 162.055C131.834 162.055 131.277 162.097 130.747 162.167C130.482 162.195 130.218 162.237 129.966 162.293C129.833 162.321 129.714 162.335 129.582 162.376C129.462 162.404 129.329 162.433 129.21 162.475C128.72 162.6 128.27 162.894 127.872 163.174C127.475 163.44 127.103 163.608 126.666 163.664C126.441 163.692 126.216 163.734 125.964 163.748C125.725 163.79 125.447 163.79 125.169 163.818C124.573 163.846 123.923 163.93 123.022 163.93C122.889 163.804 122.81 163.734 122.678 163.608C122.612 162.628 122.837 161.747 123.234 160.977C123.42 160.572 123.685 160.236 123.95 159.9C124.228 159.592 124.532 159.27 124.877 159.033C125.208 158.767 125.579 158.585 125.95 158.431C126.335 158.305 126.719 158.221 127.117 158.207C127.501 158.179 127.885 158.207 128.256 158.235C128.442 158.249 128.627 158.277 128.813 158.291C128.998 158.319 129.171 158.333 129.356 158.347C129.529 158.347 129.714 158.389 129.886 158.417C130.059 158.445 130.231 158.473 130.403 158.515C130.748 158.585 131.066 158.683 131.397 158.781C131.556 158.837 131.715 158.893 131.874 158.949C132.059 159.018 132.152 159.06 132.338 159.144C132.643 159.284 132.934 159.424 133.212 159.592C133.782 159.914 134.312 160.264 134.815 160.669C135.067 160.865 135.306 161.075 135.544 161.285C135.77 161.509 135.995 161.733 136.207 161.985C136.101 162.167 136.048 162.251 135.942 162.432L135.902 162.39Z" fill="url(#paint11_linear_55_43588)"/>
<defs>
<linearGradient id="paint0_linear_55_43588" x1="127.314" y1="-1780.32" x2="164.987" y2="-1780.32" gradientUnits="userSpaceOnUse">
<stop stop-color="#236B2F"/>
<stop offset="0.25" stop-color="#216E32"/>
<stop offset="0.51" stop-color="#1B7A3E"/>
<stop offset="0.76" stop-color="#118E51"/>
<stop offset="1" stop-color="#04A96A"/>
</linearGradient>
<linearGradient id="paint1_linear_55_43588" x1="128.082" y1="103.764" x2="160.017" y2="103.764" gradientUnits="userSpaceOnUse">
<stop stop-color="#236B2F"/>
<stop offset="0.25" stop-color="#216E32"/>
<stop offset="0.51" stop-color="#1B7A3E"/>
<stop offset="0.76" stop-color="#118E51"/>
<stop offset="1" stop-color="#04A96A"/>
</linearGradient>
<linearGradient id="paint2_linear_55_43588" x1="130.931" y1="122.122" x2="150.676" y2="122.122" gradientUnits="userSpaceOnUse">
<stop stop-color="#236B2F"/>
<stop offset="0.25" stop-color="#216E32"/>
<stop offset="0.51" stop-color="#1B7A3E"/>
<stop offset="0.76" stop-color="#118E51"/>
<stop offset="1" stop-color="#04A96A"/>
</linearGradient>
<linearGradient id="paint3_linear_55_43588" x1="134.203" y1="134.393" x2="149.283" y2="134.393" gradientUnits="userSpaceOnUse">
<stop stop-color="#236B2F"/>
<stop offset="0.25" stop-color="#216E32"/>
<stop offset="0.51" stop-color="#1B7A3E"/>
<stop offset="0.76" stop-color="#118E51"/>
<stop offset="1" stop-color="#04A96A"/>
</linearGradient>
<linearGradient id="paint4_linear_55_43588" x1="135.767" y1="145.67" x2="146.66" y2="145.67" gradientUnits="userSpaceOnUse">
<stop stop-color="#236B2F"/>
<stop offset="0.25" stop-color="#216E32"/>
<stop offset="0.51" stop-color="#1B7A3E"/>
<stop offset="0.76" stop-color="#118E51"/>
<stop offset="1" stop-color="#04A96A"/>
</linearGradient>
<linearGradient id="paint5_linear_55_43588" x1="139.916" y1="154.513" x2="148.648" y2="154.513" gradientUnits="userSpaceOnUse">
<stop stop-color="#236B2F"/>
<stop offset="0.25" stop-color="#216E32"/>
<stop offset="0.51" stop-color="#1B7A3E"/>
<stop offset="0.76" stop-color="#118E51"/>
<stop offset="1" stop-color="#04A96A"/>
</linearGradient>
<linearGradient id="paint6_linear_55_43588" x1="0.0397548" y1="106.913" x2="101.423" y2="106.913" gradientUnits="userSpaceOnUse">
<stop stop-color="#236B2F"/>
<stop offset="0.25" stop-color="#216E32"/>
<stop offset="0.51" stop-color="#1B7A3E"/>
<stop offset="0.76" stop-color="#118E51"/>
<stop offset="1" stop-color="#04A96A"/>
</linearGradient>
<linearGradient id="paint7_linear_55_43588" x1="64.2681" y1="134.099" x2="112.701" y2="134.099" gradientUnits="userSpaceOnUse">
<stop stop-color="#236B2F"/>
<stop offset="0.25" stop-color="#216E32"/>
<stop offset="0.51" stop-color="#1B7A3E"/>
<stop offset="0.76" stop-color="#118E51"/>
<stop offset="1" stop-color="#04A96A"/>
</linearGradient>
<linearGradient id="paint8_linear_55_43588" x1="89.9729" y1="140.773" x2="119.284" y2="140.773" gradientUnits="userSpaceOnUse">
<stop stop-color="#236B2F"/>
<stop offset="0.25" stop-color="#216E32"/>
<stop offset="0.51" stop-color="#1B7A3E"/>
<stop offset="0.76" stop-color="#118E51"/>
<stop offset="1" stop-color="#04A96A"/>
</linearGradient>
<linearGradient id="paint9_linear_55_43588" x1="103.37" y1="148.469" x2="125.155" y2="148.469" gradientUnits="userSpaceOnUse">
<stop stop-color="#236B2F"/>
<stop offset="0.25" stop-color="#216E32"/>
<stop offset="0.51" stop-color="#1B7A3E"/>
<stop offset="0.76" stop-color="#118E51"/>
<stop offset="1" stop-color="#04A96A"/>
</linearGradient>
<linearGradient id="paint10_linear_55_43588" x1="116.423" y1="154.192" x2="131.463" y2="154.192" gradientUnits="userSpaceOnUse">
<stop stop-color="#236B2F"/>
<stop offset="0.25" stop-color="#216E32"/>
<stop offset="0.51" stop-color="#1B7A3E"/>
<stop offset="0.76" stop-color="#118E51"/>
<stop offset="1" stop-color="#04A96A"/>
</linearGradient>
<linearGradient id="paint11_linear_55_43588" x1="122.678" y1="161.033" x2="136.167" y2="161.033" gradientUnits="userSpaceOnUse">
<stop stop-color="#236B2F"/>
<stop offset="0.25" stop-color="#216E32"/>
<stop offset="0.51" stop-color="#1B7A3E"/>
<stop offset="0.76" stop-color="#118E51"/>
<stop offset="1" stop-color="#04A96A"/>
</linearGradient>
</defs>
</svg>
