<svg width="165" height="164" viewBox="0 0 165 164" fill="none" xmlns="http://www.w3.org/2000/svg">
<path d="M98.0547 68.2808C76.4025 99.8047 34.198 97.9858 22.6033 96.8244C48.8801 59.8716 87.6129 65.8602 98.0547 68.2808Z" fill="#00A2F8"/>
<path d="M68.6568 63.8741C44.0167 68.0508 27.0415 91.1676 30.7419 115.507C34.4422 139.846 57.4168 156.191 82.0569 152.014C106.697 147.838 123.672 124.721 119.972 100.382C116.272 76.0424 93.2969 59.6974 68.6568 63.8741Z" fill="#FF00A8"/>
<path d="M85.0271 64.9876C72.8227 67.0564 64.4472 78.7163 66.3194 91.0309C68.1916 103.346 79.6026 111.652 91.807 109.583C104.011 107.514 112.388 95.854 110.515 83.5394C108.643 71.2248 97.2316 62.9189 85.0271 64.9876Z" fill="#FF00A8"/>
<path d="M97.7638 75.4304C96.3061 77.921 94.9283 80.4395 93.7755 82.9721C92.5829 85.5046 91.523 88.0372 90.5954 90.5558C89.6811 93.1023 89.5219 95.6489 88.422 98.0975C87.4149 100.588 86.4742 103.023 84.9106 105.751L84.3406 105.807C83.5985 104.576 83.0551 103.26 82.9094 101.917C82.6311 100.56 82.7242 99.2028 82.8699 97.8315C83.2012 95.0751 84.8975 92.4446 86.3153 89.884C87.7464 87.2955 89.3759 84.7911 91.2178 82.3425C93.0995 79.9219 95.0346 77.5292 97.3005 75.2625L97.7773 75.4444L97.7638 75.4304Z" fill="white"/>
<path d="M100.467 101.358C100.997 101.903 101.5 102.463 102.043 102.995C102.56 103.527 103.078 104.058 103.594 104.562C104.111 105.066 104.8 105.387 105.145 106.031C105.516 106.661 105.794 107.304 106.006 108.312L105.873 108.522C105.383 108.606 104.919 108.522 104.522 108.396C104.098 108.27 103.753 108.06 103.422 107.822C102.733 107.36 102.481 106.521 102.084 105.835C101.686 105.15 101.354 104.436 101.05 103.708C100.771 102.967 100.467 102.239 100.268 101.47L100.48 101.344L100.467 101.358Z" fill="white"/>
<path d="M98.0285 105.317C98.4923 105.933 98.9425 106.548 99.4196 107.136C99.8834 107.724 100.334 108.311 100.798 108.885C101.262 109.459 101.911 109.864 102.176 110.522C102.467 111.179 102.68 111.865 102.772 112.901L102.613 113.096C102.11 113.11 101.672 112.998 101.288 112.803C100.891 112.635 100.56 112.383 100.255 112.103C99.6188 111.571 99.4594 110.69 99.1414 109.962C98.8233 109.235 98.5721 108.479 98.3468 107.723C98.1481 106.954 97.9355 106.198 97.8163 105.415L98.0414 105.317H98.0285Z" fill="white"/>
<path d="M95.0075 107.248C95.2593 107.99 95.484 108.718 95.749 109.445C96.0008 110.159 96.2397 110.872 96.5047 111.572C96.7697 112.271 97.2466 112.873 97.2863 113.601C97.3658 114.328 97.3527 115.056 97.1142 116.049L96.902 116.175C96.4249 116.021 96.0408 115.756 95.736 115.448C95.4048 115.14 95.1797 114.79 94.981 114.426C94.5437 113.699 94.6629 112.817 94.5966 112.02C94.5304 111.222 94.5171 110.425 94.5436 109.627C94.5966 108.83 94.6226 108.046 94.7552 107.262H94.9939L95.0075 107.248Z" fill="white"/>
<path d="M90.7537 108.2C90.8995 108.969 91.0055 109.739 91.1646 110.495C91.3103 111.25 91.4432 111.992 91.589 112.719C91.7348 113.447 92.1321 114.132 92.0659 114.846C92.0261 115.574 91.907 116.287 91.5359 117.239L91.3108 117.337C90.8602 117.099 90.5286 116.777 90.2768 116.413C89.9986 116.063 89.8267 115.672 89.6809 115.28C89.3629 114.496 89.6143 113.643 89.6673 112.845C89.7203 112.048 89.8263 111.25 89.9721 110.481C90.1443 109.697 90.2903 108.927 90.5421 108.172L90.7802 108.2H90.7537Z" fill="white"/>
<path d="M84.8698 109.431C85.0155 110.2 85.1349 110.956 85.3072 111.711C85.4529 112.467 85.5988 113.209 85.7711 113.936C85.9301 114.664 86.3275 115.335 86.2745 116.063C86.248 116.791 86.1421 117.504 85.7711 118.47L85.5459 118.567C85.0954 118.344 84.7508 118.022 84.499 117.672C84.2208 117.322 84.0353 116.944 83.8895 116.553C83.5583 115.769 83.7967 114.916 83.8365 114.118C83.8762 113.321 83.9693 112.523 84.1018 111.739C84.2608 110.956 84.3932 110.186 84.6317 109.431H84.8698Z" fill="white"/>
<path d="M70.6387 91.6333C70.0026 92.0811 69.3398 92.417 68.664 92.7808C67.9882 93.1166 67.2857 93.4244 66.5702 93.6763C65.8546 93.9281 65.1391 94.3898 64.3308 94.2638C63.9333 94.2079 63.5359 94.1239 63.1384 93.928C62.7541 93.7601 62.3697 93.4943 62.0384 93.0885L62.065 92.8368C62.8468 92.2211 63.4696 91.9132 64.1322 91.7034C64.7815 91.4655 65.4975 91.6893 66.213 91.6613C66.9153 91.6334 67.6304 91.5914 68.3592 91.5495C69.088 91.5215 69.817 91.4515 70.5591 91.3956L70.6387 91.6333Z" fill="white"/>
<path d="M70.1211 95.145C69.6043 95.7327 69.0345 96.2364 68.4647 96.7681C67.8817 97.2718 67.2723 97.7475 66.6362 98.1673C66.0002 98.5871 65.4038 99.2308 64.5955 99.3007C64.198 99.3567 63.8002 99.3707 63.3629 99.2867C62.9521 99.2168 62.5152 99.0629 62.1045 98.755L62.0779 98.5031C62.6875 97.7056 63.2309 97.2579 63.8139 96.8662C64.3837 96.4604 65.1387 96.5023 65.8145 96.2924C66.4903 96.0826 67.1797 95.8587 67.8688 95.6349C68.5711 95.425 69.26 95.1591 69.9755 94.9212L70.1082 95.131L70.1211 95.145Z" fill="white"/>
<path d="M70.4414 98.685C70.0836 99.3846 69.6461 100.028 69.2088 100.686C68.7583 101.33 68.2811 101.945 67.7511 102.519C67.221 103.092 66.7973 103.862 66.0287 104.142C65.6577 104.296 65.2735 104.422 64.8362 104.436C64.4122 104.478 63.9613 104.436 63.4975 104.24L63.405 104.002C63.8158 103.065 64.2262 102.491 64.7165 101.973C65.1803 101.441 65.9093 101.287 66.5321 100.91C67.1416 100.532 67.7514 100.14 68.3742 99.7484C69.0102 99.3706 69.6197 98.9369 70.2557 98.5311L70.4278 98.699L70.4414 98.685Z" fill="white"/>
<path d="M71.5381 102.043C71.3526 102.813 71.0749 103.541 70.7966 104.296C70.5051 105.024 70.187 105.751 69.8028 106.437C69.4317 107.123 69.1932 107.976 68.5042 108.452C68.1729 108.69 67.828 108.913 67.4172 109.039C67.0197 109.193 66.5691 109.263 66.0656 109.193L65.92 108.983C66.1055 107.976 66.3703 107.304 66.7281 106.675C67.0594 106.031 67.7354 105.695 68.2389 105.178C68.7425 104.66 69.2459 104.114 69.7627 103.568C70.2927 103.037 70.7832 102.463 71.3 101.904L71.5122 102.029L71.5381 102.043Z" fill="white"/>
<path d="M73.3945 105.024C73.3945 105.821 73.288 106.605 73.1952 107.402C73.076 108.186 72.9304 108.969 72.7184 109.739C72.5064 110.508 72.4797 111.39 71.9232 112.02C71.6582 112.341 71.3803 112.635 70.996 112.873C70.6382 113.111 70.2143 113.307 69.724 113.363L69.5383 113.195C69.4853 112.16 69.6048 111.46 69.8035 110.746C69.9758 110.047 70.5583 109.543 70.9294 108.913C71.3004 108.284 71.6719 107.626 72.0429 106.969C72.4272 106.311 72.7715 105.639 73.1558 104.954L73.3945 105.024Z" fill="white"/>
<path d="M75.8581 107.43C76.0303 108.214 76.1095 108.997 76.2023 109.781C76.2685 110.578 76.3084 111.362 76.2819 112.173C76.2553 112.971 76.4277 113.838 76.0302 114.594C75.8446 114.972 75.6329 115.335 75.3281 115.657C75.0366 115.979 74.6787 116.273 74.2017 116.469L73.9894 116.357C73.6979 115.363 73.6449 114.65 73.6847 113.922C73.6847 113.195 74.1356 112.565 74.3608 111.852C74.5729 111.138 74.7848 110.41 74.9969 109.683C75.2221 108.955 75.4073 108.2 75.6193 107.444H75.8581V107.43Z" fill="white"/>
<path d="M78.8134 109.151C79.1579 109.865 79.4231 110.606 79.6882 111.348C79.9399 112.103 80.1516 112.859 80.3106 113.643C80.4696 114.426 80.8277 115.224 80.6289 116.049C80.5362 116.455 80.4168 116.875 80.1916 117.266C79.9928 117.658 79.701 118.036 79.2903 118.33L79.0521 118.274C78.5486 117.392 78.3361 116.707 78.1903 115.993C78.0313 115.294 78.3233 114.566 78.3631 113.81C78.4161 113.069 78.4424 112.313 78.4821 111.544C78.5351 110.774 78.5349 110.005 78.5746 109.221L78.8134 109.165V109.151Z" fill="white"/>
<path d="M98.0547 68.2806C99.7906 68.6863 100.731 68.9942 100.731 68.9942C76.4423 109.473 20.1783 100.406 20.1783 100.406C20.9733 99.1748 21.7818 97.9716 22.6033 96.8382C34.198 97.9996 76.4157 99.8185 98.0547 68.2946V68.2806Z" fill="#FF9F00"/>
<path d="M99.4736 68.7007C107.225 75.8226 134.576 103.681 128.414 138.073C120.57 132.518 92.8083 109.641 99.4736 68.7007Z" fill="#00A2F8"/>
<path d="M97.4591 66.9372C97.4591 66.9372 98.2015 67.5528 99.4603 68.7002C92.795 109.641 120.569 132.517 128.4 138.072C128.202 139.108 127.99 140.171 127.738 141.22C127.738 141.22 87.1368 116.874 97.4461 66.9372H97.4591Z" fill="#FF9F00"/>
<path d="M117.931 50.2169C117.732 50.2728 117.454 50.3288 117.215 50.4128C116.963 50.5107 116.725 50.5946 116.486 50.7206L116.142 50.8885L115.797 51.0984C115.572 51.2383 115.36 51.3643 115.148 51.5322L114.525 52.0079L113.929 52.5396L113.637 52.7915C113.544 52.8895 113.451 52.9873 113.359 53.0853L112.802 53.659C112.617 53.8409 112.445 54.0507 112.259 54.2606L111.742 54.8763L111.477 55.1701C111.398 55.268 111.305 55.3939 111.225 55.4919L110.735 56.1495L110.245 56.7792L109.768 57.4508L108.827 58.7799C108.522 59.2557 108.257 59.7455 108.019 60.2632C107.767 60.7669 107.542 61.2846 107.303 61.8163C107.065 62.334 106.787 62.8097 106.442 63.2295C106.27 63.4393 106.084 63.6353 105.886 63.8172C105.687 64.0131 105.488 64.1948 105.263 64.3767C104.825 64.7265 104.348 65.0484 103.831 65.3283C103.315 65.6221 102.758 65.8879 102.162 66.1397C100.969 66.6434 99.6307 67.0632 97.8418 67.2031L97.0602 66.6294C96.6097 64.8245 96.6226 63.2995 96.7684 61.8583C96.8346 61.1307 96.9941 60.459 97.1928 59.8153C97.3916 59.1717 97.6166 58.5421 97.8949 57.9545C98.0274 57.6606 98.1868 57.3668 98.3458 57.101C98.5181 56.8351 98.7168 56.5832 98.9288 56.3314C99.3396 55.8416 99.8296 55.436 100.346 55.0442C100.85 54.6524 101.433 54.3306 101.99 53.9808C102.546 53.645 103.076 53.2812 103.58 52.9034L105.183 51.826C105.448 51.6441 105.713 51.4762 105.991 51.3083L106.853 50.8326C107.979 50.203 109.198 49.6853 110.43 49.2515L111.371 48.9716C111.53 48.9296 111.676 48.8737 111.835 48.8317L112.325 48.7338L113.293 48.5519C113.624 48.5099 113.969 48.4819 114.287 48.4679C114.605 48.4399 114.949 48.4539 115.28 48.4679L115.771 48.4959L116.274 48.5659C116.605 48.6079 116.936 48.7057 117.254 48.8037C117.586 48.9156 117.878 49.0276 118.235 49.2375L117.917 50.1889L117.931 50.2169Z" fill="#297F34"/>
<path d="M100.134 65.0481C99.4712 66.1675 98.7692 67.2449 98.0536 68.2803C87.6118 65.8597 48.8658 59.8712 22.6022 96.824C20.6676 96.6281 19.5806 96.4602 19.5806 96.4602C50.0315 48.9994 100.134 65.0481 100.134 65.0481Z" fill="#297F34"/>
<path d="M98.0547 68.2808C76.4025 99.8047 34.198 97.9858 22.6033 96.8244C48.8801 59.8716 87.6129 65.8602 98.0547 68.2808Z" fill="#00A2F8"/>
<path d="M100.135 65.1606C100.135 65.1606 140.273 97.9857 130.414 139.43C130.414 139.43 129.659 138.982 128.4 138.087C134.562 103.695 107.212 75.8366 99.4598 68.7147C99.6586 67.5533 99.8836 66.364 100.135 65.1746V65.1606Z" fill="#297F34"/>
<path d="M99.4736 68.7007C107.225 75.8226 134.576 103.681 128.414 138.073C120.57 132.518 92.8083 109.641 99.4736 68.7007Z" fill="#00A2F8"/>
<path d="M103.394 124.766C104.521 125.927 105.581 127.117 106.721 128.208C107.82 129.327 108.907 130.447 110.007 131.524C111.107 132.602 112.551 133.287 113.266 134.616C114.035 135.932 114.645 137.317 115.082 139.444L114.79 139.891C113.743 140.059 112.789 139.919 111.941 139.626C111.054 139.36 110.312 138.926 109.61 138.422C108.152 137.457 107.621 135.666 106.787 134.225C105.952 132.769 105.236 131.272 104.6 129.733C104.004 128.166 103.381 126.641 102.944 125.018L103.394 124.752V124.766Z" fill="white"/>
<path d="M98.2125 133.133C99.2063 134.42 100.134 135.736 101.141 136.967C102.122 138.226 103.076 139.457 104.043 140.661C105.023 141.864 106.388 142.717 106.945 144.131C107.568 145.53 108.018 146.971 108.217 149.154L107.886 149.574C106.839 149.616 105.884 149.364 105.076 148.972C104.228 148.608 103.526 148.076 102.89 147.503C101.551 146.369 101.207 144.523 100.544 142.997C99.8818 141.458 99.3253 139.877 98.8615 138.268C98.4374 136.645 97.9868 135.05 97.735 133.385L98.2125 133.175V133.133Z" fill="white"/>
<path d="M91.8523 137.205C92.3956 138.772 92.8593 140.325 93.4291 141.836C93.9591 143.361 94.4762 144.859 95.0195 146.328C95.576 147.797 96.5967 149.084 96.6895 150.609C96.8485 152.148 96.8219 153.674 96.3316 155.786L95.8943 156.066C94.8872 155.73 94.0784 155.171 93.4291 154.513C92.74 153.869 92.2498 153.128 91.8258 152.358C90.9115 150.819 91.1634 148.958 91.0176 147.293C90.8719 145.6 90.8456 143.921 90.8986 142.242C91.0046 140.563 91.0706 138.898 91.3489 137.233L91.8659 137.191L91.8523 137.205Z" fill="white"/>
<path d="M82.8564 139.206C83.1479 140.843 83.3737 142.452 83.7182 144.047C84.0098 145.642 84.3009 147.209 84.6189 148.748C84.9369 150.301 85.7585 151.729 85.6127 153.254C85.5332 154.807 85.2816 156.29 84.4733 158.305L83.9965 158.501C83.0556 158.011 82.3399 157.311 81.7966 156.556C81.2135 155.814 80.8422 155.003 80.5375 154.163C79.8749 152.498 80.4052 150.693 80.498 149.014C80.604 147.321 80.8292 145.656 81.134 144.005C81.4918 142.354 81.81 140.731 82.3401 139.136L82.8564 139.178V139.206Z" fill="white"/>
<path d="M70.4389 141.836C70.7569 143.459 71.0083 145.069 71.3661 146.664C71.6841 148.245 71.9888 149.826 72.3334 151.351C72.6779 152.89 73.5128 154.317 73.4068 155.842C73.3538 157.395 73.1155 158.893 72.347 160.921L71.8695 161.131C70.9154 160.656 70.187 159.97 69.6437 159.228C69.0474 158.487 68.6631 157.689 68.3451 156.864C67.6561 155.213 68.1592 153.408 68.2254 151.715C68.3049 150.022 68.5042 148.357 68.7825 146.706C69.1138 145.055 69.4048 143.418 69.9083 141.823L70.4253 141.864L70.4389 141.836Z" fill="white"/>
<path d="M40.3604 104.212C39.0221 105.149 37.6043 105.877 36.1865 106.647C34.7554 107.36 33.2844 108.018 31.7473 108.535C30.2366 109.053 28.713 110.047 27.0169 109.767C26.182 109.655 25.347 109.487 24.5122 109.067C23.6907 108.703 22.8824 108.144 22.1933 107.304L22.2593 106.758C23.9024 105.443 25.2143 104.814 26.6189 104.352C27.9838 103.834 29.4945 104.31 31.0051 104.268C32.5025 104.212 34.0133 104.114 35.5505 104.016C37.1008 103.96 38.6376 103.792 40.2013 103.694L40.374 104.212H40.3604Z" fill="white"/>
<path d="M39.2861 111.642C38.1995 112.887 36.9939 113.951 35.8013 115.07C34.5689 116.133 33.2969 117.141 31.9321 118.036C30.5805 118.932 29.3349 120.275 27.6255 120.443C26.7907 120.555 25.9294 120.597 25.0283 120.401C24.1537 120.261 23.2258 119.925 22.3645 119.282L22.2985 118.736C23.5971 117.043 24.7235 116.091 25.9691 115.28C27.1749 114.426 28.7517 114.51 30.1961 114.077C31.6272 113.643 33.0845 113.153 34.5422 112.677C36.0263 112.23 37.484 111.684 38.9814 111.18L39.2596 111.642H39.2861Z" fill="white"/>
<path d="M39.9365 119.127C39.168 120.61 38.2404 121.954 37.3394 123.339C36.3853 124.682 35.3778 125.983 34.2647 127.201C33.1516 128.418 32.2509 130.041 30.6343 130.629C29.8524 130.951 29.0307 131.202 28.1031 131.258C27.2153 131.342 26.2478 131.258 25.2672 130.853L25.0821 130.349C25.9567 128.376 26.8308 127.173 27.8644 126.067C28.8449 124.934 30.3955 124.612 31.6941 123.815C32.9794 123.031 34.278 122.192 35.5898 121.352C36.9282 120.541 38.2138 119.631 39.5522 118.764L39.9229 119.127H39.9365Z" fill="white"/>
<path d="M42.2803 126.222C41.8827 127.859 41.2862 129.398 40.7164 130.979C40.1069 132.532 39.4177 134.043 38.6226 135.512C37.8276 136.968 37.324 138.772 35.8929 139.766C35.2038 140.284 34.4621 140.731 33.5875 141.011C32.7527 141.319 31.7855 141.487 30.7387 141.333L30.4469 140.885C30.8444 138.744 31.4142 137.345 32.1563 136.016C32.8453 134.673 34.2767 133.959 35.35 132.854C36.4233 131.762 37.483 130.615 38.5696 129.468C39.6827 128.334 40.7162 127.131 41.8293 125.942L42.2803 126.208V126.222Z" fill="white"/>
<path d="M46.1765 132.503C46.1633 134.196 45.9376 135.833 45.7521 137.513C45.5135 139.178 45.1955 140.829 44.7582 142.452C44.321 144.075 44.2414 145.95 43.0753 147.279C42.5188 147.951 41.9096 148.58 41.1278 149.084C40.3857 149.602 39.4843 149.993 38.4375 150.133L38.0538 149.784C37.9478 147.601 38.1858 146.104 38.5966 144.621C38.9544 143.137 40.1739 142.074 40.9822 140.731C41.7773 139.388 42.5459 138.016 43.3277 136.617C44.1492 135.232 44.8778 133.791 45.6861 132.364L46.1895 132.503H46.1765Z" fill="white"/>
<path d="M51.4103 137.611C51.7814 139.262 51.9537 140.913 52.1525 142.578C52.2982 144.243 52.3779 145.936 52.3116 147.629C52.2586 149.308 52.6162 151.155 51.7947 152.75C51.4104 153.547 50.9736 154.317 50.311 155.003C49.7147 155.688 48.9329 156.304 47.939 156.709L47.4751 156.458C46.8656 154.373 46.7593 152.862 46.8255 151.309C46.8255 149.783 47.78 148.44 48.2438 146.929C48.7076 145.432 49.1313 143.893 49.5818 142.34C50.0721 140.787 50.4435 139.206 50.894 137.611H51.4103Z" fill="white"/>
<path d="M57.6504 141.22C58.3925 142.718 58.923 144.285 59.5061 145.852C60.0361 147.433 60.4863 149.042 60.8176 150.707C61.1489 152.358 61.9174 154.051 61.4801 155.8C61.2946 156.668 61.03 157.535 60.553 158.361C60.1289 159.186 59.5056 159.984 58.6442 160.613L58.1409 160.487C57.0808 158.612 56.6168 157.185 56.3253 155.66C55.9808 154.177 56.5907 152.624 56.6967 151.043C56.8027 149.476 56.8692 147.867 56.9354 146.244C57.0547 144.62 57.0542 142.983 57.1205 141.318L57.6239 141.192L57.6504 141.22Z" fill="white"/>
<path d="M127.711 53.9248C128.334 56.3175 129.09 58.7101 129.885 61.0607C130.68 63.4254 131.515 65.762 132.442 68.0707C134.271 72.702 136.351 77.2355 138.723 81.573C139.081 82.2166 139.267 82.5525 139.624 83.1961C139.995 83.8397 140.181 84.1616 140.552 84.7912C141.188 85.8546 141.81 86.904 142.486 87.9394C143.811 90.0102 145.216 92.0109 146.74 93.9138C147.137 94.3756 147.509 94.8513 147.906 95.313C148.397 95.8587 148.635 96.1247 149.125 96.6704C149.629 97.2301 149.894 97.5239 150.397 98.0836C150.503 98.1955 150.609 98.3214 150.715 98.4334C150.834 98.5873 150.901 98.6573 151.02 98.7972C151.259 99.091 151.378 99.2308 151.63 99.5246C151.868 99.8185 151.988 99.9584 152.239 100.252C152.465 100.56 152.584 100.7 152.809 101.008C153.034 101.316 153.154 101.456 153.379 101.763C153.498 101.917 153.551 101.987 153.671 102.141L153.935 102.533C154.373 103.163 154.584 103.47 155.022 104.1C155.432 104.744 155.631 105.066 156.029 105.709C156.135 105.863 156.188 105.947 156.281 106.115C156.373 106.283 156.427 106.367 156.519 106.521C156.718 106.842 156.81 107.01 157.009 107.332C157.182 107.598 157.341 107.878 157.513 108.144C157.672 108.424 157.831 108.703 158.003 108.969C158.162 109.249 158.335 109.515 158.507 109.795C158.587 109.935 158.679 110.075 158.772 110.201C158.865 110.368 158.918 110.452 159.01 110.62C159.329 111.18 159.659 111.74 159.991 112.313C160.296 112.887 160.587 113.475 160.892 114.062C160.985 114.244 161.024 114.328 161.117 114.51C161.197 114.692 161.236 114.776 161.316 114.958C161.448 115.266 161.581 115.559 161.7 115.867C161.833 116.175 161.952 116.483 162.072 116.791C162.204 117.169 162.257 117.35 162.389 117.728C162.522 118.106 162.588 118.302 162.708 118.68C162.774 118.876 162.801 118.96 162.867 119.155C162.92 119.351 162.946 119.449 163.012 119.631C163.251 120.401 163.357 120.792 163.595 121.576C163.794 122.374 163.887 122.765 164.086 123.563C164.139 123.759 164.165 123.857 164.205 124.067C164.245 124.262 164.258 124.374 164.297 124.57C164.377 124.976 164.417 125.186 164.483 125.592C164.549 125.927 164.616 126.277 164.669 126.613C164.708 126.963 164.761 127.299 164.788 127.649C164.828 127.998 164.867 128.348 164.894 128.684C164.907 128.894 164.92 128.992 164.947 129.202C164.947 129.37 164.96 129.552 164.973 129.733C164.973 130.153 164.987 130.363 165 130.783C165 131.203 165 131.412 165 131.846C164.973 132.532 164.934 133.189 164.881 133.861C164.854 134.197 164.828 134.533 164.801 134.868C164.788 135.064 164.775 135.176 164.748 135.372C164.722 135.568 164.708 135.666 164.682 135.876C164.589 136.534 164.497 137.205 164.391 137.863C164.337 138.198 164.298 138.52 164.231 138.856C164.152 139.248 164.112 139.444 164.033 139.836C163.953 140.227 163.913 140.423 163.82 140.815C163.728 141.207 163.688 141.403 163.595 141.794C163.436 142.438 163.251 143.082 163.065 143.725C162.694 145.013 162.231 146.272 161.74 147.517C161.674 147.671 161.621 147.825 161.555 147.979C161.475 148.161 161.435 148.259 161.356 148.441C161.223 148.748 161.091 149.056 160.945 149.364C160.667 149.98 160.402 150.581 160.097 151.183C159.739 151.897 159.554 152.26 159.183 152.96C158.878 153.548 158.547 154.135 158.215 154.709C157.884 155.283 157.526 155.856 157.168 156.416C156.983 156.696 156.797 156.976 156.612 157.256C156.426 157.535 156.215 157.801 156.029 158.067C155.234 159.145 154.386 160.194 153.445 161.173C152.504 162.153 151.51 163.104 150.344 163.93C150.198 163.86 150.132 163.818 149.986 163.748C149.894 162.349 149.92 161.019 149.947 159.718C149.987 158.417 150.066 157.144 150.159 155.884C150.212 155.255 150.265 154.639 150.318 154.023C150.384 153.408 150.45 152.792 150.516 152.19C150.583 151.575 150.676 150.973 150.755 150.372C150.848 149.644 150.888 149.294 150.98 148.567C151.272 146.16 151.577 143.795 151.961 141.473C152.027 141.123 152.054 140.955 152.107 140.605C152.16 140.311 152.226 140.031 152.266 139.738C152.332 139.388 152.358 139.22 152.412 138.87C152.478 138.52 152.504 138.352 152.571 138.003C152.637 137.653 152.677 137.485 152.743 137.149C152.809 136.799 152.836 136.631 152.902 136.296C153.008 135.722 153.114 135.148 153.233 134.575C153.273 134.407 153.286 134.323 153.326 134.141C153.352 133.973 153.365 133.889 153.392 133.707C153.431 133.427 153.498 133.133 153.551 132.854C153.657 132.28 153.789 131.706 153.909 131.147C153.975 130.825 154.002 130.657 154.068 130.335C154.134 130.013 154.174 129.845 154.24 129.523C154.266 129.384 154.307 129.258 154.333 129.118C154.36 128.95 154.372 128.88 154.412 128.712C154.465 128.446 154.518 128.166 154.571 127.886C154.624 127.607 154.69 127.341 154.743 127.061C154.783 126.781 154.836 126.501 154.876 126.221C154.929 125.886 154.969 125.718 155.022 125.382C155.048 125.214 155.062 125.13 155.088 124.962C155.115 124.794 155.115 124.71 155.141 124.542C155.221 123.857 155.26 123.521 155.34 122.835C155.38 122.15 155.393 121.8 155.432 121.114C155.432 120.946 155.433 120.848 155.446 120.68C155.446 120.513 155.446 120.429 155.446 120.247C155.446 119.897 155.446 119.729 155.42 119.379C155.42 119.03 155.406 118.862 155.393 118.512C155.366 118.218 155.34 117.938 155.327 117.644C155.3 117.35 155.287 117.057 155.274 116.763C155.274 116.581 155.261 116.497 155.247 116.315C155.234 116.147 155.221 116.049 155.194 115.881C155.128 115.168 155.088 114.818 155.022 114.118C154.929 113.531 154.849 112.943 154.743 112.355C154.717 112.173 154.704 112.09 154.664 111.908C154.638 111.768 154.598 111.614 154.571 111.474C154.505 111.18 154.439 110.9 154.359 110.606C154.28 110.312 154.214 110.033 154.121 109.739C154.028 109.459 153.922 109.179 153.829 108.899C153.617 108.34 153.432 107.78 153.167 107.248C152.862 106.605 152.703 106.283 152.398 105.639C152.053 105.009 151.882 104.702 151.524 104.072C151.431 103.918 151.391 103.834 151.299 103.68C151.206 103.526 151.153 103.456 151.06 103.303C150.861 102.995 150.769 102.855 150.583 102.547C150.384 102.239 150.291 102.099 150.093 101.791C149.881 101.497 149.775 101.358 149.563 101.064C149.351 100.77 149.245 100.63 149.033 100.336C148.927 100.196 148.873 100.112 148.767 99.9725C148.675 99.8605 148.582 99.7346 148.476 99.6227C148.012 99.063 147.787 98.7831 147.323 98.2235C146.926 97.7477 146.502 97.258 146.091 96.7822C145.68 96.2925 145.296 95.7889 144.898 95.2992C141.771 91.2975 139.121 86.9599 136.895 82.4125C134.695 77.8651 132.84 73.1778 131.236 68.4205C129.633 63.6632 128.281 58.85 127.301 53.9529C127.46 53.9249 127.539 53.9108 127.698 53.8828L127.711 53.9248Z" fill="url(#paint0_linear_55_43698)"/>
<path d="M128.467 39.5971C129.063 41.6959 129.924 43.7248 130.878 45.7116C131.845 47.6845 132.919 49.6154 134.098 51.4623C135.278 53.3093 136.642 55.0582 138.14 56.6813C139.637 58.3044 141.201 59.8156 142.711 61.2987C143.467 62.0403 144.301 62.7118 145.162 63.3275C146.024 63.9431 146.938 64.4889 147.813 65.0346C148.687 65.5663 149.549 66.0839 150.317 66.6576C151.099 67.2172 151.802 67.819 152.464 68.4626C153.776 69.7778 154.955 71.177 156.148 72.8281C156.744 73.6396 157.341 74.5352 157.977 75.5146C158.136 75.7665 158.295 76.0042 158.454 76.27C158.546 76.424 158.599 76.508 158.692 76.6759C158.771 76.8158 158.864 76.9278 158.944 77.0817C159.05 77.2496 159.103 77.3334 159.196 77.5013C159.275 77.6553 159.368 77.7953 159.46 77.9352C159.633 78.229 159.818 78.5367 159.99 78.8865C159.95 79.0404 159.924 79.1244 159.871 79.2784C159.182 79.6841 158.493 79.964 157.818 80.1739C157.128 80.3977 156.439 80.5376 155.75 80.6355C154.372 80.8174 153.021 80.7615 151.722 80.5517C150.41 80.3418 149.165 79.9499 147.985 79.4322C146.806 78.9145 145.693 78.2709 144.686 77.5154C143.678 76.7598 142.764 75.8923 141.982 74.9269C141.2 73.9614 140.538 72.898 139.968 71.7927C139.398 70.6873 138.895 69.568 138.405 68.4626C137.915 67.3572 137.424 66.2659 136.921 65.2165C136.417 64.1671 135.966 63.0897 135.542 61.9983C135.132 60.9069 134.761 59.8156 134.403 58.7242C133.979 57.423 133.767 56.7793 133.343 55.478C132.985 54.4006 132.627 53.3372 132.256 52.2878C130.772 48.0762 129.46 43.8786 128.056 39.709C128.215 39.667 128.294 39.6531 128.44 39.6112L128.467 39.5971Z" fill="url(#paint1_linear_55_43698)"/>
<path d="M131.329 29.8725C131.448 31.1737 131.806 32.489 132.243 33.7343C132.694 34.9795 133.277 36.1828 133.94 37.3161C134.602 38.4495 135.437 39.4848 136.338 40.4223C137.239 41.3597 138.154 42.2273 139.055 43.0808C139.187 43.2067 139.254 43.2767 139.399 43.4026C139.545 43.5285 139.611 43.5844 139.757 43.7104C139.996 43.9063 140.22 44.1162 140.472 44.2981C140.764 44.522 140.91 44.6339 141.201 44.8578C141.321 44.9557 141.44 45.0396 141.572 45.1376C141.718 45.2495 141.798 45.3056 141.944 45.4035C142.182 45.5854 142.42 45.7813 142.672 45.9632C142.911 46.1451 143.149 46.3409 143.375 46.5368C143.613 46.7187 143.852 46.9146 144.077 47.1245C144.196 47.2224 144.302 47.3203 144.421 47.4323C144.54 47.5302 144.66 47.6283 144.779 47.7262C145.017 47.9221 145.243 48.1319 145.481 48.3418C145.72 48.5517 145.959 48.7475 146.197 48.9574C146.436 49.1672 146.674 49.3912 146.913 49.6011C147.164 49.811 147.403 50.0348 147.655 50.2587C147.774 50.3706 147.893 50.4965 148.026 50.5945C148.145 50.7064 148.277 50.8183 148.396 50.9303C148.648 51.1541 148.9 51.392 149.152 51.6439C149.656 52.1196 150.172 52.6093 150.676 53.197C150.623 53.3509 150.596 53.4209 150.543 53.5748C150.159 53.6447 149.788 53.6867 149.404 53.7007C149.033 53.7286 148.648 53.7427 148.277 53.7287C147.906 53.7147 147.535 53.6868 147.164 53.6448C146.793 53.6168 146.422 53.5609 146.064 53.4909C145.336 53.351 144.62 53.1831 143.918 52.9312C143.56 52.8193 143.215 52.6933 142.871 52.5534C142.526 52.3995 142.195 52.2456 141.85 52.0917C141.678 52.0078 141.519 51.9237 141.347 51.8398C141.188 51.7558 141.029 51.658 140.857 51.56C140.539 51.3641 140.221 51.1682 139.903 50.9583C139.307 50.5105 138.71 50.0628 138.18 49.5171C137.106 48.4677 136.193 47.2644 135.345 46.0471C134.907 45.4454 134.536 44.8018 134.192 44.1442C134.033 43.8084 133.874 43.4726 133.715 43.1368C133.569 42.801 133.436 42.4512 133.304 42.1154C132.8 40.7442 132.403 39.3589 132.032 38.0017C131.303 35.2733 130.905 32.5589 130.892 29.8304C131.051 29.8304 131.13 29.8304 131.303 29.8304L131.329 29.8725Z" fill="url(#paint2_linear_55_43698)"/>
<path d="M134.76 20.5678C135.356 22.4707 136.191 24.2756 137.184 25.9266C137.436 26.3324 137.688 26.7381 137.967 27.1299C138.245 27.5217 138.51 27.8995 138.801 28.2633C138.881 28.3753 138.934 28.4312 139.014 28.5431C139.106 28.655 139.146 28.6971 139.239 28.809C139.384 28.9909 139.53 29.1588 139.689 29.3267C139.848 29.4946 139.994 29.6765 140.153 29.8304C140.352 30.0263 140.444 30.1242 140.63 30.3201C141.279 30.9498 142.061 31.4395 142.816 31.9012C143.2 32.1251 143.558 32.363 143.916 32.6008C144.261 32.8667 144.605 33.1045 144.936 33.4123C145.109 33.5522 145.281 33.6922 145.44 33.8461C145.519 33.9161 145.613 34.0001 145.692 34.07C145.798 34.154 145.851 34.1958 145.957 34.2938C146.129 34.4477 146.301 34.6017 146.474 34.7696C146.646 34.9235 146.831 35.0774 147.004 35.2453C147.348 35.5951 147.733 35.9169 148.104 36.2947C148.475 36.6725 148.872 37.0503 149.27 37.54C149.217 37.7359 149.19 37.8338 149.15 38.0157C147.984 38.4495 146.818 38.5613 145.666 38.4634C145.374 38.4354 145.082 38.4075 144.804 38.3655C144.525 38.3095 144.234 38.2535 143.956 38.1696C143.81 38.1416 143.677 38.0997 143.532 38.0577C143.399 38.0157 143.253 37.9598 143.121 37.9178C142.843 37.8199 142.578 37.7218 142.313 37.5959C141.253 37.1201 140.299 36.4066 139.543 35.5251C138.788 34.6436 138.152 33.6782 137.516 32.7547C136.893 31.8172 136.35 30.8519 135.912 29.8444C135.687 29.3407 135.502 28.8369 135.316 28.3332C135.144 27.8155 134.985 27.3118 134.853 26.7941C134.588 25.7587 134.402 24.7233 134.296 23.6879C134.19 22.6525 134.163 21.6172 134.256 20.5818C134.455 20.5818 134.561 20.5817 134.76 20.5538V20.5678Z" fill="url(#paint3_linear_55_43698)"/>
<path d="M136.337 11.8233C136.947 13.0966 137.649 14.3278 138.417 15.4192C138.616 15.699 138.802 15.965 139.014 16.2168C139.213 16.4687 139.424 16.7344 139.636 16.9723C139.742 17.0982 139.849 17.2101 139.955 17.3221C140.061 17.434 140.166 17.5599 140.272 17.6579C140.378 17.7698 140.485 17.8819 140.604 17.9798C140.736 18.1057 140.803 18.1617 140.935 18.2876C141.386 18.6794 141.942 18.9452 142.446 19.1691C142.578 19.2251 142.698 19.281 142.804 19.351C142.923 19.407 143.029 19.463 143.135 19.5469C143.241 19.6169 143.347 19.6867 143.44 19.7707C143.493 19.8126 143.532 19.8547 143.585 19.8967C143.638 19.9387 143.678 19.9806 143.731 20.0226C143.784 20.0786 143.811 20.1065 143.877 20.1625C143.93 20.2184 143.97 20.2604 144.023 20.3024C144.129 20.4003 144.221 20.4844 144.327 20.5963C144.433 20.6943 144.54 20.7922 144.646 20.9041C144.752 21.016 144.857 21.1419 144.99 21.2399C145.109 21.3518 145.229 21.4778 145.361 21.6177C145.494 21.7436 145.626 21.8696 145.759 22.0095C146.037 22.3033 146.342 22.5691 146.673 22.9609C146.673 23.1568 146.673 23.2547 146.673 23.4506C146.58 23.5345 146.487 23.6045 146.395 23.6885C146.302 23.7584 146.196 23.8284 146.103 23.8984C145.997 23.9684 145.904 24.0243 145.798 24.0803C145.692 24.1363 145.586 24.1782 145.48 24.2342C145.268 24.3181 145.056 24.402 144.831 24.4719C144.725 24.4999 144.606 24.528 144.499 24.556C144.393 24.584 144.274 24.598 144.168 24.612C143.267 24.7519 142.313 24.6539 141.438 24.3601C140.564 24.0662 139.769 23.5346 139.213 22.835C138.643 22.1354 138.219 21.3798 137.781 20.6802C137.357 19.9666 137.013 19.2391 136.722 18.5115C136.589 18.1477 136.47 17.7699 136.364 17.4061C136.258 17.0283 136.178 16.6645 136.099 16.2867C135.953 15.5451 135.847 14.8036 135.82 14.062C135.794 13.6982 135.794 13.3204 135.794 12.9566C135.794 12.5928 135.82 12.2291 135.86 11.8513C136.059 11.8233 136.165 11.8233 136.364 11.7953L136.337 11.8233Z" fill="url(#paint4_linear_55_43698)"/>
<path d="M140.856 3.302C141.28 4.49132 141.784 5.62452 142.367 6.64593C142.659 7.16364 142.964 7.65341 143.295 8.10115C143.454 8.32503 143.613 8.54886 143.798 8.75874C143.878 8.87067 143.971 8.96874 144.05 9.06669C144.143 9.16463 144.223 9.26252 144.315 9.36047C144.66 9.73825 145.137 10.0041 145.561 10.228C145.985 10.4518 146.303 10.7177 146.581 11.0814C146.714 11.2773 146.859 11.4453 147.005 11.6832C147.164 11.8791 147.297 12.1309 147.469 12.3688C147.8 12.9005 148.185 13.4461 148.648 14.2577C148.609 14.4535 148.595 14.5514 148.555 14.7333C147.787 15.279 146.965 15.5308 146.13 15.5588C145.706 15.5868 145.295 15.5309 144.885 15.4609C144.487 15.363 144.077 15.251 143.706 15.0691C143.322 14.9012 142.977 14.6634 142.672 14.3975C142.367 14.1177 142.102 13.8098 141.89 13.46C141.665 13.1242 141.506 12.7606 141.334 12.3968C141.254 12.2149 141.175 12.047 141.095 11.8651C141.029 11.6832 140.949 11.5153 140.87 11.3474C140.79 11.1795 140.724 10.9974 140.658 10.8295C140.591 10.6616 140.525 10.4937 140.472 10.3118C140.353 9.96202 140.274 9.62623 140.181 9.27643C140.141 9.10853 140.114 8.92664 140.075 8.75874C140.048 8.54886 140.022 8.45092 139.995 8.24104C139.955 7.89124 139.929 7.55546 139.903 7.21965C139.876 6.54804 139.889 5.87652 139.969 5.2189C140.008 4.89708 140.048 4.56117 140.114 4.23936C140.18 3.91754 140.247 3.6098 140.34 3.27399C140.539 3.27399 140.645 3.27401 140.843 3.288L140.856 3.302Z" fill="url(#paint5_linear_55_43698)"/>
<path d="M101.278 39.219C98.9988 39.8626 96.6799 40.3944 94.3477 40.8701C92.0155 41.3458 89.683 41.7656 87.3243 42.1154C82.6202 42.801 77.8766 43.2207 73.1195 43.2627C72.404 43.2627 72.0457 43.2627 71.3434 43.2627C70.6279 43.2627 70.2703 43.2487 69.568 43.2347C68.3887 43.1927 67.1958 43.1647 66.0165 43.0808C63.6578 42.9269 61.299 42.6611 58.9801 42.2413C58.3971 42.1154 57.8146 42.0174 57.2448 41.8915C56.5557 41.7236 56.2108 41.6396 55.5218 41.4717C54.8062 41.2898 54.4354 41.2059 53.7198 41.024C53.574 40.982 53.4152 40.9539 53.2695 40.912C53.084 40.884 53.004 40.8561 52.8185 40.8281C52.4607 40.7581 52.2756 40.7162 51.9178 40.6462C51.5601 40.5762 51.3743 40.5343 51.0165 40.4643C50.6588 40.4083 50.473 40.3804 50.1152 40.3244C49.7575 40.2684 49.572 40.2405 49.201 40.1845C49.0155 40.1565 48.9229 40.1425 48.7507 40.1145C48.5651 40.1005 48.4726 40.0865 48.3003 40.0725C47.5715 40.0025 47.2 39.9605 46.4712 39.8766C45.7424 39.8346 45.3715 39.8207 44.6427 39.7787C44.4572 39.7787 44.3643 39.7647 44.1788 39.7507C43.9933 39.7507 43.9007 39.7507 43.7285 39.7507C43.3574 39.7507 43.1852 39.7367 42.8142 39.7227C42.5094 39.7087 42.2047 39.6948 41.9 39.6668C41.5952 39.6668 41.2902 39.6668 40.9721 39.6388C40.6674 39.6388 40.3497 39.6108 40.0449 39.5968C39.8859 39.5968 39.74 39.5828 39.581 39.5688C39.3955 39.5688 39.3026 39.5688 39.1171 39.5688C38.4943 39.5688 37.8716 39.5548 37.2356 39.5408C36.6128 39.5688 35.9768 39.5828 35.354 39.6108C35.1685 39.6108 35.0753 39.6248 34.8765 39.6388C34.691 39.6528 34.5988 39.6667 34.4133 39.6947C34.0952 39.7227 33.7899 39.7647 33.4718 39.8067C33.1538 39.8487 32.8491 39.8906 32.5311 39.9326C32.16 40.0026 31.9749 40.0445 31.6039 40.1145C31.2328 40.1845 31.0474 40.2264 30.6631 40.2964C30.4776 40.3384 30.3844 40.3523 30.1856 40.3943C30.0001 40.4362 29.9078 40.4643 29.7223 40.5063C28.967 40.6882 28.5954 40.7861 27.8401 40.968C27.0981 41.1919 26.7142 41.3038 25.9722 41.5277C25.7867 41.5837 25.6934 41.6116 25.4947 41.6676C25.3092 41.7375 25.2169 41.7655 25.0314 41.8355C24.6604 41.9754 24.4746 42.0454 24.1036 42.1853C23.7988 42.2972 23.4805 42.4092 23.1757 42.5351C22.871 42.675 22.5666 42.801 22.2751 42.9549C21.9703 43.0948 21.6653 43.2347 21.3738 43.3886C21.1883 43.4725 21.109 43.5285 20.9234 43.6125C20.7777 43.6964 20.6318 43.7805 20.4861 43.8644C20.1415 44.0743 19.9691 44.1722 19.6113 44.3821C19.2668 44.592 19.0946 44.7039 18.7501 44.9138C18.2068 45.2776 17.6901 45.6553 17.1733 46.0471C16.9083 46.243 16.6567 46.4389 16.3917 46.6348C16.2327 46.7607 16.1664 46.8166 16.0074 46.9286C15.8616 47.0545 15.7817 47.1104 15.636 47.2364C15.1457 47.6561 14.6556 48.0899 14.1653 48.5097C13.9268 48.7196 13.6753 48.9294 13.4367 49.1673C13.1585 49.4331 13.0123 49.573 12.7341 49.8529C12.4558 50.1327 12.3103 50.2726 12.032 50.5384C11.7538 50.8183 11.6212 50.9582 11.343 51.238C10.8924 51.7138 10.4681 52.2176 10.0308 52.7073C9.16949 53.7007 8.37431 54.7641 7.60576 55.8415C7.513 55.9814 7.40735 56.1074 7.3146 56.2473C7.20859 56.4152 7.15563 56.499 7.03638 56.6669C6.85086 56.9468 6.67839 57.2267 6.49287 57.5066C6.13509 58.0663 5.77727 58.6259 5.44599 59.1996C5.04846 59.8992 4.84969 60.235 4.45216 60.9346C4.12089 61.5082 3.81616 62.1099 3.51139 62.6976C3.20661 63.2852 2.92816 63.9009 2.66314 64.5166C2.53063 64.8244 2.39838 65.1321 2.26587 65.4399C2.13335 65.7477 2.01438 66.0696 1.89512 66.3915C1.41808 67.6647 0.99382 68.9659 0.662544 70.3231C0.331268 71.6803 0.066246 73.0656 -7.62939e-06 74.5487C0.1325 74.6467 0.198753 74.6887 0.331268 74.7866C1.52386 74.157 2.58395 73.4573 3.64403 72.7717C4.69086 72.0721 5.6844 71.3586 6.66499 70.6311C7.14202 70.2673 7.63275 69.9034 8.10979 69.5256C8.58682 69.1619 9.03744 68.784 9.51447 68.4062C9.97826 68.0284 10.4285 67.6507 10.8791 67.273C11.4223 66.8252 11.7003 66.6013 12.2436 66.1535C14.059 64.6704 15.835 63.1873 17.5311 61.6622C17.7829 61.4243 17.9154 61.3123 18.1671 61.0884C18.3791 60.8926 18.5782 60.6966 18.7902 60.5007C19.042 60.2768 19.1609 60.151 19.4127 59.9272C19.6644 59.6893 19.784 59.5773 20.0357 59.3394C20.2743 59.1016 20.4067 58.9758 20.6452 58.7379C20.897 58.5 21.0159 58.388 21.2677 58.1642C21.6785 57.7864 22.0895 57.3807 22.5002 56.9889C22.6195 56.863 22.6857 56.8069 22.805 56.6949C22.9243 56.583 22.9908 56.5271 23.1233 56.4152C23.3354 56.2333 23.5338 56.0373 23.7458 55.8415C24.1565 55.4637 24.5543 55.0439 24.9518 54.6522C25.1771 54.4283 25.2963 54.3163 25.5348 54.1065C25.7601 53.8826 25.8795 53.7566 26.1048 53.5327C26.1976 53.4348 26.2903 53.3369 26.383 53.239C26.5023 53.127 26.5549 53.0711 26.6742 52.9592C26.873 52.7773 27.0717 52.5814 27.2572 52.3995C27.4559 52.2176 27.6414 52.0077 27.8401 51.8258C28.0389 51.6439 28.2515 51.462 28.4503 51.2801C28.6888 51.0562 28.8213 50.9442 29.0598 50.7203C29.179 50.6084 29.2453 50.5525 29.3645 50.4406C29.497 50.3426 29.5497 50.2867 29.6822 50.1748C30.199 49.7551 30.464 49.5452 30.9808 49.1254C31.5241 48.7476 31.8027 48.5517 32.346 48.1599C32.4785 48.0619 32.5577 48.0199 32.6902 47.922C32.836 47.838 32.9023 47.7962 33.048 47.7122C33.3396 47.5443 33.4721 47.4603 33.7636 47.2924C34.0552 47.1245 34.2007 47.0405 34.4922 46.8726C34.744 46.7466 34.9826 46.6208 35.2343 46.4949C35.4861 46.369 35.7247 46.229 35.9765 46.1031C36.1222 46.0191 36.2021 45.9772 36.3479 45.9072C36.4936 45.8372 36.5732 45.7952 36.7322 45.7253C37.3417 45.4315 37.6461 45.2775 38.2689 44.9837C38.7857 44.7738 39.3156 44.55 39.8457 44.3401C40.0047 44.2701 40.0846 44.2422 40.2436 44.1862C40.3761 44.1442 40.5087 44.1021 40.6544 44.0602C40.9195 43.9762 41.1972 43.8923 41.4755 43.8084C41.7538 43.7244 42.019 43.6544 42.2972 43.5845C42.5755 43.5285 42.8536 43.4726 43.1319 43.4306C43.6884 43.3466 44.2583 43.2206 44.8148 43.1927C45.5039 43.1507 45.8352 43.1228 46.5242 43.0808C47.2133 43.0808 47.5582 43.0808 48.2473 43.0808C48.4195 43.0808 48.5117 43.0808 48.684 43.0808C48.8563 43.0808 48.9491 43.0948 49.1214 43.1088C49.4659 43.1368 49.6387 43.1368 49.9832 43.1648C50.3278 43.1928 50.4999 43.1927 50.8444 43.2207C51.189 43.2626 51.3611 43.2907 51.7056 43.3327C52.0501 43.3747 52.2223 43.4026 52.5668 43.4446C52.7391 43.4726 52.8319 43.4866 53.0042 43.5006C53.15 43.5286 53.2955 43.5565 53.428 43.5845C54.117 43.7244 54.462 43.7943 55.151 43.9203C55.7473 44.0462 56.3567 44.1722 56.953 44.2981C57.5625 44.424 58.159 44.5219 58.7685 44.6199C63.6184 45.4314 68.5213 45.6413 73.3447 45.3475C78.1681 45.0397 82.9382 44.34 87.629 43.3886C92.3199 42.4231 96.9444 41.2059 101.437 39.6248C101.384 39.4709 101.344 39.3869 101.291 39.233L101.278 39.219Z" fill="url(#paint6_linear_55_43698)"/>
<path d="M112.581 31.2579C110.567 31.7756 108.474 32.0273 106.367 32.1672C104.26 32.2931 102.153 32.2931 100.032 32.1672C97.9254 32.0273 95.8056 31.6775 93.7252 31.1318C91.6448 30.6001 89.6172 29.9426 87.6296 29.313C86.6357 28.9912 85.6685 28.5854 84.7277 28.1097C83.7868 27.634 82.8724 27.0881 81.9979 26.5704C81.11 26.0387 80.262 25.5211 79.4007 25.1154C78.5526 24.6956 77.6914 24.3598 76.8301 24.08C75.0942 23.5483 73.3449 23.1984 71.397 22.9466C70.4297 22.8206 69.3963 22.7367 68.27 22.6528C67.9917 22.6388 67.7003 22.6107 67.4088 22.5968C67.2233 22.5968 67.1433 22.5967 66.9578 22.5827C66.812 22.5827 66.6665 22.5547 66.5075 22.5547C66.3219 22.5547 66.2294 22.5549 66.0306 22.5409C65.8716 22.5409 65.6992 22.5409 65.5402 22.5409C65.2089 22.5409 64.8643 22.5269 64.4933 22.5409C64.3873 22.6668 64.3343 22.7227 64.2416 22.8347C64.2681 23.6602 64.3744 24.4297 64.5599 25.1712C64.7322 25.9128 64.9571 26.6124 65.2354 27.284C65.792 28.6273 66.5073 29.8307 67.3421 30.9081C68.1769 31.9994 69.1312 32.9228 70.1515 33.7483C71.1718 34.5738 72.2583 35.2316 73.3847 35.7773C74.511 36.3229 75.677 36.7006 76.8696 36.9245C78.0621 37.1484 79.255 37.2044 80.4476 37.1624C81.6402 37.1205 82.8062 37.0084 83.959 36.8965C85.1118 36.7846 86.2386 36.6727 87.3649 36.5887C88.478 36.5188 89.5908 36.3788 90.6906 36.2109C91.7905 36.029 92.8641 35.8192 93.9374 35.5953C95.2095 35.3155 95.8451 35.1756 97.1305 34.9098C98.1905 34.6859 99.2379 34.4759 100.285 34.28C104.472 33.4825 108.566 32.5591 112.688 31.7055C112.648 31.5376 112.621 31.4676 112.568 31.2997L112.581 31.2579Z" fill="url(#paint7_linear_55_43698)"/>
<path d="M119.072 23.7019C117.946 24.2616 116.7 24.5973 115.454 24.8352C114.209 25.059 112.937 25.1431 111.665 25.1151C110.393 25.0871 109.134 24.8492 107.902 24.5134C106.683 24.1776 105.503 23.7719 104.35 23.3941C104.178 23.3382 104.085 23.31 103.913 23.2541C103.74 23.1841 103.661 23.1561 103.489 23.0862C103.211 22.9742 102.919 22.8623 102.641 22.7364C102.309 22.5825 102.137 22.5127 101.806 22.3587C101.674 22.3028 101.528 22.2328 101.395 22.1628C101.236 22.0789 101.143 22.0509 100.984 21.9669C100.706 21.841 100.441 21.729 100.163 21.5891C99.8843 21.4632 99.6195 21.3513 99.3279 21.2393C99.0497 21.1134 98.7715 21.0015 98.4933 20.8895C98.3475 20.8335 98.2146 20.7776 98.0688 20.7356C97.9231 20.6797 97.7908 20.6237 97.645 20.5677C97.3668 20.4558 97.0754 20.3439 96.7838 20.2459C96.4923 20.134 96.2138 20.0081 95.9091 19.9101C95.6175 19.7982 95.3129 19.7001 95.0213 19.5742C94.7298 19.4483 94.4248 19.3503 94.12 19.2384C93.9743 19.1824 93.8025 19.1405 93.6568 19.0705C93.4978 19.0145 93.3519 18.9446 93.1929 18.9026C92.8748 18.7907 92.5565 18.6788 92.2385 18.5808C91.5892 18.3709 90.9266 18.1332 90.1978 17.9792C90.105 18.1052 90.0524 18.1611 89.9597 18.287C90.1054 18.6648 90.2643 19.0287 90.4365 19.3924C90.6088 19.7422 90.781 20.106 90.993 20.4278C91.1917 20.7497 91.4037 21.0854 91.629 21.3932C91.841 21.715 92.0663 22.0229 92.3181 22.3167C92.7951 22.9044 93.2989 23.478 93.8554 23.9817C94.1337 24.2475 94.4118 24.4994 94.6901 24.7373C94.9816 24.9752 95.2863 25.199 95.5778 25.4229C95.7235 25.5348 95.883 25.6468 96.0288 25.7587C96.1878 25.8566 96.3466 25.9545 96.5056 26.0525C96.8236 26.2484 97.1416 26.4443 97.4729 26.6122C98.1355 26.934 98.811 27.2419 99.5266 27.4378C100.931 27.8856 102.376 28.0954 103.794 28.2493C104.509 28.3333 105.225 28.3472 105.927 28.3332C106.285 28.3192 106.629 28.2773 106.987 28.2493C107.331 28.2213 107.689 28.1514 108.034 28.0954C109.412 27.8576 110.737 27.5217 112.035 27.1579C114.633 26.4443 117.044 25.4229 119.271 24.0377C119.191 23.8978 119.138 23.8138 119.059 23.6739L119.072 23.7019Z" fill="url(#paint8_linear_55_43698)"/>
<path d="M124.916 15.8525C123.061 16.2722 121.166 16.4261 119.311 16.3702C118.847 16.3562 118.384 16.3281 117.933 16.2721C117.483 16.2162 117.032 16.1742 116.581 16.0902C116.449 16.0622 116.383 16.0624 116.25 16.0344C116.118 16.0064 116.051 15.9923 115.919 15.9644C115.694 15.9224 115.482 15.8804 115.256 15.8245C115.044 15.7685 114.819 15.7265 114.607 15.6566C114.355 15.5866 114.223 15.5446 113.971 15.4607C113.123 15.1808 112.328 14.7331 111.573 14.2714C111.202 14.0335 110.817 13.8375 110.446 13.6276C110.062 13.4457 109.678 13.2638 109.267 13.1099C109.068 13.026 108.869 12.9421 108.657 12.8722C108.551 12.8302 108.445 12.8021 108.339 12.7601C108.22 12.7042 108.154 12.6902 108.021 12.6343C107.809 12.5503 107.597 12.4803 107.372 12.4103C107.16 12.3264 106.934 12.2425 106.709 12.1726C106.245 12.0327 105.795 11.8507 105.292 11.7107C104.788 11.5708 104.285 11.389 103.688 11.2911C103.556 11.431 103.489 11.501 103.357 11.6409C103.595 12.9142 104.099 14.0474 104.762 15.0408C104.934 15.2927 105.093 15.5446 105.279 15.7824C105.464 16.0063 105.663 16.2302 105.862 16.454C105.968 16.566 106.06 16.6779 106.166 16.7758C106.272 16.8738 106.378 16.9718 106.498 17.0838C106.723 17.2797 106.935 17.4754 107.173 17.6573C108.101 18.3849 109.161 18.8747 110.261 19.1266C111.374 19.3644 112.474 19.4484 113.547 19.5604C114.62 19.6583 115.693 19.6443 116.727 19.5464C117.244 19.4904 117.761 19.4064 118.264 19.3225C118.768 19.2245 119.271 19.0986 119.762 18.9587C120.742 18.6788 121.683 18.315 122.584 17.8812C123.485 17.4475 124.333 16.9438 125.142 16.3282C125.049 16.1463 124.996 16.0484 124.903 15.8525H124.916Z" fill="url(#paint9_linear_55_43698)"/>
<path d="M131.251 9.98984C129.899 10.0878 128.548 10.0739 127.249 9.91998C126.931 9.878 126.613 9.83589 126.295 9.77992C125.977 9.72396 125.672 9.66815 125.367 9.59819C125.222 9.57021 125.063 9.52812 124.917 9.48615C124.771 9.44417 124.625 9.41623 124.48 9.36027C124.334 9.31829 124.188 9.27636 124.042 9.23439C123.87 9.17842 123.791 9.15029 123.618 9.08033C123.062 8.87045 122.571 8.50678 122.134 8.15698C122.028 8.07303 121.909 7.98901 121.803 7.91905C121.697 7.8351 121.591 7.76511 121.485 7.70914C121.366 7.65317 121.273 7.58322 121.154 7.54124C121.101 7.51326 121.034 7.49937 120.981 7.47139C120.928 7.4434 120.862 7.42934 120.809 7.40136C120.73 7.37337 120.703 7.35933 120.623 7.34533C120.557 7.33134 120.491 7.31747 120.438 7.28948C120.319 7.24751 120.186 7.20541 120.04 7.16343C119.908 7.12146 119.775 7.07953 119.63 7.03755C119.484 6.99558 119.325 6.95363 119.179 6.89767C119.02 6.8417 118.861 6.79976 118.689 6.75778C118.53 6.70181 118.344 6.64585 118.159 6.58988C117.775 6.49194 117.404 6.33803 116.913 6.24008C116.754 6.33803 116.675 6.39391 116.516 6.50585C116.49 6.63178 116.476 6.75773 116.463 6.88366C116.463 7.00959 116.463 7.13554 116.449 7.26147C116.449 7.3874 116.449 7.51335 116.449 7.63928C116.449 7.76521 116.476 7.87716 116.49 8.00309C116.529 8.24095 116.569 8.47883 116.622 8.71669C116.648 8.82863 116.688 8.94055 116.728 9.05248C116.767 9.16442 116.808 9.27634 116.847 9.38828C117.192 10.2838 117.748 11.0952 118.437 11.7388C119.113 12.3965 119.961 12.8302 120.809 12.9841C121.67 13.152 122.505 13.1521 123.3 13.1941C124.095 13.222 124.864 13.1661 125.606 13.0542C125.977 12.9982 126.335 12.9142 126.692 12.8162C127.05 12.7183 127.395 12.6064 127.739 12.4945C128.415 12.2566 129.078 11.9628 129.7 11.627C130.019 11.4591 130.31 11.2772 130.615 11.0953C130.906 10.8994 131.198 10.7034 131.477 10.4795C131.397 10.2836 131.357 10.1857 131.264 9.98984H131.251Z" fill="url(#paint10_linear_55_43698)"/>
<path d="M135.902 1.53922C134.723 1.76309 133.543 1.87501 132.404 1.87501C131.834 1.87501 131.277 1.83293 130.747 1.76297C130.482 1.73498 130.218 1.69306 129.966 1.63709C129.833 1.6091 129.714 1.5952 129.582 1.55323C129.462 1.52524 129.329 1.49716 129.21 1.45519C128.72 1.32926 128.27 1.03543 127.872 0.755587C127.475 0.48974 127.103 0.32187 126.666 0.265903C126.441 0.237919 126.216 0.195861 125.964 0.181869C125.725 0.139893 125.447 0.139996 125.169 0.112011C124.573 0.0840273 123.923 -3.38554e-05 123.022 -3.38554e-05C122.889 0.125894 122.81 0.195997 122.678 0.321925C122.612 1.30136 122.837 2.18286 123.234 2.95242C123.42 3.35819 123.685 3.69385 123.95 4.02966C124.228 4.33748 124.532 4.65929 124.877 4.89716C125.208 5.163 125.579 5.34497 125.95 5.49889C126.335 5.62481 126.719 5.70881 127.117 5.7228C127.501 5.75079 127.885 5.72278 128.256 5.69479C128.442 5.6808 128.627 5.65276 128.813 5.63877C128.998 5.61079 129.171 5.59674 129.356 5.58275C129.529 5.58275 129.714 5.54087 129.886 5.51289C130.059 5.48491 130.231 5.45683 130.403 5.41485C130.748 5.34489 131.066 5.24703 131.397 5.14909C131.556 5.09312 131.715 5.03716 131.874 4.98119C132.059 4.91123 132.152 4.86923 132.338 4.78528C132.643 4.64536 132.934 4.50552 133.212 4.33761C133.782 4.0158 134.312 3.66597 134.815 3.2602C135.067 3.06432 135.306 2.85435 135.544 2.64447C135.77 2.4206 135.995 2.19673 136.207 1.94487C136.101 1.76297 136.048 1.6791 135.942 1.4972L135.902 1.53922Z" fill="url(#paint11_linear_55_43698)"/>
<defs>
<linearGradient id="paint0_linear_55_43698" x1="127.314" y1="1944.25" x2="164.987" y2="1944.25" gradientUnits="userSpaceOnUse">
<stop stop-color="#236B2F"/>
<stop offset="0.25" stop-color="#216E32"/>
<stop offset="0.51" stop-color="#1B7A3E"/>
<stop offset="0.76" stop-color="#118E51"/>
<stop offset="1" stop-color="#04A96A"/>
</linearGradient>
<linearGradient id="paint1_linear_55_43698" x1="128.082" y1="60.1653" x2="160.017" y2="60.1653" gradientUnits="userSpaceOnUse">
<stop stop-color="#236B2F"/>
<stop offset="0.25" stop-color="#216E32"/>
<stop offset="0.51" stop-color="#1B7A3E"/>
<stop offset="0.76" stop-color="#118E51"/>
<stop offset="1" stop-color="#04A96A"/>
</linearGradient>
<linearGradient id="paint2_linear_55_43698" x1="130.931" y1="41.8075" x2="150.676" y2="41.8075" gradientUnits="userSpaceOnUse">
<stop stop-color="#236B2F"/>
<stop offset="0.25" stop-color="#216E32"/>
<stop offset="0.51" stop-color="#1B7A3E"/>
<stop offset="0.76" stop-color="#118E51"/>
<stop offset="1" stop-color="#04A96A"/>
</linearGradient>
<linearGradient id="paint3_linear_55_43698" x1="134.203" y1="29.5365" x2="149.283" y2="29.5365" gradientUnits="userSpaceOnUse">
<stop stop-color="#236B2F"/>
<stop offset="0.25" stop-color="#216E32"/>
<stop offset="0.51" stop-color="#1B7A3E"/>
<stop offset="0.76" stop-color="#118E51"/>
<stop offset="1" stop-color="#04A96A"/>
</linearGradient>
<linearGradient id="paint4_linear_55_43698" x1="135.767" y1="18.2596" x2="146.66" y2="18.2596" gradientUnits="userSpaceOnUse">
<stop stop-color="#236B2F"/>
<stop offset="0.25" stop-color="#216E32"/>
<stop offset="0.51" stop-color="#1B7A3E"/>
<stop offset="0.76" stop-color="#118E51"/>
<stop offset="1" stop-color="#04A96A"/>
</linearGradient>
<linearGradient id="paint5_linear_55_43698" x1="139.916" y1="9.41641" x2="148.648" y2="9.41641" gradientUnits="userSpaceOnUse">
<stop stop-color="#236B2F"/>
<stop offset="0.25" stop-color="#216E32"/>
<stop offset="0.51" stop-color="#1B7A3E"/>
<stop offset="0.76" stop-color="#118E51"/>
<stop offset="1" stop-color="#04A96A"/>
</linearGradient>
<linearGradient id="paint6_linear_55_43698" x1="0.0397548" y1="57.0168" x2="101.423" y2="57.0168" gradientUnits="userSpaceOnUse">
<stop stop-color="#236B2F"/>
<stop offset="0.25" stop-color="#216E32"/>
<stop offset="0.51" stop-color="#1B7A3E"/>
<stop offset="0.76" stop-color="#118E51"/>
<stop offset="1" stop-color="#04A96A"/>
</linearGradient>
<linearGradient id="paint7_linear_55_43698" x1="64.2681" y1="29.8307" x2="112.701" y2="29.8307" gradientUnits="userSpaceOnUse">
<stop stop-color="#236B2F"/>
<stop offset="0.25" stop-color="#216E32"/>
<stop offset="0.51" stop-color="#1B7A3E"/>
<stop offset="0.76" stop-color="#118E51"/>
<stop offset="1" stop-color="#04A96A"/>
</linearGradient>
<linearGradient id="paint8_linear_55_43698" x1="89.9729" y1="23.1562" x2="119.284" y2="23.1562" gradientUnits="userSpaceOnUse">
<stop stop-color="#236B2F"/>
<stop offset="0.25" stop-color="#216E32"/>
<stop offset="0.51" stop-color="#1B7A3E"/>
<stop offset="0.76" stop-color="#118E51"/>
<stop offset="1" stop-color="#04A96A"/>
</linearGradient>
<linearGradient id="paint9_linear_55_43698" x1="103.37" y1="15.4607" x2="125.155" y2="15.4607" gradientUnits="userSpaceOnUse">
<stop stop-color="#236B2F"/>
<stop offset="0.25" stop-color="#216E32"/>
<stop offset="0.51" stop-color="#1B7A3E"/>
<stop offset="0.76" stop-color="#118E51"/>
<stop offset="1" stop-color="#04A96A"/>
</linearGradient>
<linearGradient id="paint10_linear_55_43698" x1="116.423" y1="9.73806" x2="131.463" y2="9.73806" gradientUnits="userSpaceOnUse">
<stop stop-color="#236B2F"/>
<stop offset="0.25" stop-color="#216E32"/>
<stop offset="0.51" stop-color="#1B7A3E"/>
<stop offset="0.76" stop-color="#118E51"/>
<stop offset="1" stop-color="#04A96A"/>
</linearGradient>
<linearGradient id="paint11_linear_55_43698" x1="122.678" y1="2.89636" x2="136.167" y2="2.89636" gradientUnits="userSpaceOnUse">
<stop stop-color="#236B2F"/>
<stop offset="0.25" stop-color="#216E32"/>
<stop offset="0.51" stop-color="#1B7A3E"/>
<stop offset="0.76" stop-color="#118E51"/>
<stop offset="1" stop-color="#04A96A"/>
</linearGradient>
</defs>
</svg>
