<svg width="165" height="164" viewBox="0 0 165 164" fill="none" xmlns="http://www.w3.org/2000/svg">
<path d="M66.9453 68.2808C88.5975 99.8047 130.802 97.9858 142.397 96.8244C116.12 59.8716 77.3871 65.8602 66.9453 68.2808Z" fill="#00A2F8"/>
<path d="M96.3432 63.8741C120.983 68.0508 137.958 91.1676 134.258 115.507C130.558 139.846 107.583 156.191 82.9431 152.014C58.303 147.838 41.3278 124.721 45.0281 100.382C48.7285 76.0424 71.7031 59.6974 96.3432 63.8741Z" fill="#FF00A8"/>
<path d="M79.9729 64.9876C92.1773 67.0564 100.553 78.7163 98.6806 91.0309C96.8084 103.346 85.3974 111.652 73.193 109.583C60.9886 107.514 52.6125 95.854 54.4847 83.5394C56.3569 71.2248 67.7684 62.9189 79.9729 64.9876Z" fill="#FF00A8"/>
<path d="M67.2362 75.4304C68.6939 77.921 70.0717 80.4395 71.2245 82.9721C72.4171 85.5046 73.477 88.0372 74.4046 90.5558C75.3189 93.1023 75.4781 95.6489 76.578 98.0975C77.5851 100.588 78.5258 103.023 80.0894 105.751L80.6594 105.807C81.4015 104.576 81.9449 103.26 82.0906 101.917C82.3689 100.56 82.2758 99.2028 82.1301 97.8315C81.7988 95.0751 80.1025 92.4446 78.6847 89.884C77.2536 87.2955 75.6241 84.7911 73.7822 82.3425C71.9005 79.9219 69.9654 77.5292 67.6995 75.2625L67.2227 75.4444L67.2362 75.4304Z" fill="white"/>
<path d="M64.5333 101.358C64.0033 101.903 63.4998 102.463 62.9565 102.995C62.4397 103.527 61.9224 104.058 61.4056 104.562C60.8888 105.066 60.1999 105.387 59.8553 106.031C59.4843 106.661 59.2062 107.304 58.9941 108.312L59.1268 108.522C59.6171 108.606 60.0809 108.522 60.4784 108.396C60.9024 108.27 61.2471 108.06 61.5784 107.822C62.2674 107.36 62.5189 106.521 62.9164 105.835C63.3139 105.15 63.6456 104.436 63.9503 103.708C64.2286 102.967 64.5332 102.239 64.7319 101.47L64.5197 101.344L64.5333 101.358Z" fill="white"/>
<path d="M66.9715 105.317C66.5077 105.933 66.0575 106.548 65.5804 107.136C65.1166 107.724 64.666 108.311 64.2023 108.885C63.7385 109.459 63.0891 109.864 62.8241 110.522C62.5326 111.179 62.3203 111.865 62.2275 112.901L62.3867 113.096C62.8902 113.11 63.3275 112.998 63.7118 112.803C64.1093 112.635 64.4403 112.383 64.7451 112.103C65.3812 111.571 65.5406 110.69 65.8586 109.962C66.1767 109.235 66.4279 108.479 66.6532 107.723C66.8519 106.954 67.0645 106.198 67.1837 105.415L66.9586 105.317H66.9715Z" fill="white"/>
<path d="M69.9925 107.248C69.7407 107.99 69.516 108.718 69.251 109.445C68.9992 110.159 68.7603 110.872 68.4953 111.572C68.2303 112.271 67.7534 112.873 67.7137 113.601C67.6342 114.328 67.6473 115.056 67.8858 116.049L68.098 116.175C68.5751 116.021 68.9592 115.756 69.264 115.448C69.5952 115.14 69.8203 114.79 70.019 114.426C70.4563 113.699 70.3371 112.817 70.4034 112.02C70.4696 111.222 70.4829 110.425 70.4564 109.627C70.4034 108.83 70.3774 108.046 70.2448 107.262H70.0061L69.9925 107.248Z" fill="white"/>
<path d="M74.2463 108.2C74.1005 108.969 73.9945 109.739 73.8354 110.495C73.6897 111.25 73.5568 111.992 73.411 112.719C73.2652 113.447 72.8679 114.132 72.9341 114.846C72.9739 115.574 73.093 116.287 73.4641 117.239L73.6892 117.337C74.1398 117.099 74.4714 116.777 74.7232 116.413C75.0014 116.063 75.1733 115.672 75.3191 115.28C75.6371 114.496 75.3857 113.643 75.3327 112.845C75.2797 112.048 75.1737 111.25 75.0279 110.481C74.8557 109.697 74.7097 108.927 74.4579 108.172L74.2198 108.2H74.2463Z" fill="white"/>
<path d="M80.1302 109.431C79.9845 110.2 79.8651 110.956 79.6928 111.711C79.5471 112.467 79.4012 113.209 79.2289 113.936C79.0699 114.664 78.6725 115.335 78.7255 116.063C78.752 116.791 78.8579 117.504 79.2289 118.47L79.4541 118.567C79.9046 118.344 80.2492 118.022 80.501 117.672C80.7792 117.322 80.9647 116.944 81.1105 116.553C81.4417 115.769 81.2033 114.916 81.1635 114.118C81.1238 113.321 81.0307 112.523 80.8982 111.739C80.7392 110.956 80.6068 110.186 80.3683 109.431H80.1302Z" fill="white"/>
<path d="M94.3613 91.6333C94.9974 92.0811 95.6602 92.417 96.336 92.7808C97.0118 93.1166 97.7143 93.4244 98.4298 93.6763C99.1454 93.9281 99.8609 94.3898 100.669 94.2638C101.067 94.2079 101.464 94.1239 101.862 93.928C102.246 93.7601 102.63 93.4943 102.962 93.0885L102.935 92.8368C102.153 92.2211 101.53 91.9132 100.868 91.7034C100.218 91.4655 99.5025 91.6893 98.787 91.6613C98.0847 91.6334 97.3696 91.5914 96.6408 91.5495C95.912 91.5215 95.183 91.4515 94.4409 91.3956L94.3613 91.6333Z" fill="white"/>
<path d="M94.8789 95.145C95.3957 95.7327 95.9655 96.2364 96.5353 96.7681C97.1183 97.2718 97.7277 97.7475 98.3638 98.1673C98.9998 98.5871 99.5962 99.2308 100.404 99.3007C100.802 99.3567 101.2 99.3707 101.637 99.2867C102.048 99.2168 102.485 99.0629 102.896 98.755L102.922 98.5031C102.313 97.7056 101.769 97.2579 101.186 96.8662C100.616 96.4604 99.8613 96.5023 99.1855 96.2924C98.5097 96.0826 97.8203 95.8587 97.1312 95.6349C96.4289 95.425 95.74 95.1591 95.0245 94.9212L94.8918 95.131L94.8789 95.145Z" fill="white"/>
<path d="M94.5586 98.685C94.9164 99.3846 95.3539 100.028 95.7912 100.686C96.2417 101.33 96.7189 101.945 97.2489 102.519C97.779 103.092 98.2027 103.862 98.9713 104.142C99.3423 104.296 99.7265 104.422 100.164 104.436C100.588 104.478 101.039 104.436 101.502 104.24L101.595 104.002C101.184 103.065 100.774 102.491 100.283 101.973C99.8197 101.441 99.0907 101.287 98.4679 100.91C97.8584 100.532 97.2486 100.14 96.6258 99.7484C95.9898 99.3706 95.3803 98.9369 94.7443 98.5311L94.5722 98.699L94.5586 98.685Z" fill="white"/>
<path d="M93.4619 102.043C93.6474 102.813 93.9251 103.541 94.2034 104.296C94.4949 105.024 94.813 105.751 95.1972 106.437C95.5683 107.123 95.8068 107.976 96.4958 108.452C96.8271 108.69 97.172 108.913 97.5828 109.039C97.9803 109.193 98.4309 109.263 98.9344 109.193L99.08 108.983C98.8945 107.976 98.6297 107.304 98.2719 106.675C97.9406 106.031 97.2646 105.695 96.7611 105.178C96.2575 104.66 95.7541 104.114 95.2373 103.568C94.7073 103.037 94.2168 102.463 93.7 101.904L93.4878 102.029L93.4619 102.043Z" fill="white"/>
<path d="M91.6055 105.024C91.6055 105.821 91.712 106.605 91.8048 107.402C91.924 108.186 92.0696 108.969 92.2816 109.739C92.4936 110.508 92.5203 111.39 93.0768 112.02C93.3418 112.341 93.6197 112.635 94.004 112.873C94.3618 113.111 94.7857 113.307 95.276 113.363L95.4617 113.195C95.5147 112.16 95.3952 111.46 95.1965 110.746C95.0242 110.047 94.4417 109.543 94.0706 108.913C93.6996 108.284 93.3281 107.626 92.9571 106.969C92.5728 106.311 92.2285 105.639 91.8442 104.954L91.6055 105.024Z" fill="white"/>
<path d="M89.1419 107.43C88.9697 108.214 88.8905 108.997 88.7977 109.781C88.7315 110.578 88.6916 111.362 88.7181 112.173C88.7447 112.971 88.5723 113.838 88.9698 114.594C89.1554 114.972 89.3671 115.335 89.6719 115.657C89.9634 115.979 90.3213 116.273 90.7983 116.469L91.0106 116.357C91.3021 115.363 91.3551 114.65 91.3153 113.922C91.3153 113.195 90.8644 112.565 90.6392 111.852C90.4271 111.138 90.2152 110.41 90.0031 109.683C89.7779 108.955 89.5927 108.2 89.3807 107.444H89.1419V107.43Z" fill="white"/>
<path d="M86.1866 109.151C85.8421 109.865 85.5769 110.606 85.3118 111.348C85.0601 112.103 84.8484 112.859 84.6894 113.643C84.5304 114.426 84.1723 115.224 84.3711 116.049C84.4638 116.455 84.5832 116.875 84.8084 117.266C85.0072 117.658 85.299 118.036 85.7097 118.33L85.9479 118.274C86.4514 117.392 86.6639 116.707 86.8097 115.993C86.9687 115.294 86.6767 114.566 86.6369 113.81C86.5839 113.069 86.5576 112.313 86.5179 111.544C86.4649 110.774 86.4651 110.005 86.4254 109.221L86.1866 109.165V109.151Z" fill="white"/>
<path d="M66.9453 68.2806C65.2094 68.6863 64.2686 68.9942 64.2686 68.9942C88.5577 109.473 144.822 100.406 144.822 100.406C144.027 99.1748 143.218 97.9716 142.397 96.8382C130.802 97.9996 88.5843 99.8185 66.9453 68.2946V68.2806Z" fill="#FF9F00"/>
<path d="M65.5264 68.7007C57.7746 75.8226 30.424 103.681 36.5857 138.073C44.4303 132.518 72.1917 109.641 65.5264 68.7007Z" fill="#00A2F8"/>
<path d="M67.5409 66.9372C67.5409 66.9372 66.7985 67.5528 65.5397 68.7002C72.205 109.641 44.431 132.517 36.5996 138.072C36.7984 139.108 37.0104 140.171 37.2622 141.22C37.2622 141.22 77.8632 116.874 67.5539 66.9372H67.5409Z" fill="#FF9F00"/>
<path d="M47.0694 50.2169C47.2682 50.2728 47.5465 50.3288 47.785 50.4128C48.0368 50.5107 48.275 50.5946 48.5136 50.7206L48.8584 50.8885L49.2026 51.0984C49.4279 51.2383 49.6402 51.3643 49.8522 51.5322L50.4747 52.0079L51.0712 52.5396L51.363 52.7915C51.4558 52.8895 51.5485 52.9873 51.6413 53.0853L52.1977 53.659C52.3832 53.8409 52.555 54.0507 52.7406 54.2606L53.2575 54.8763L53.5228 55.1701C53.6023 55.268 53.695 55.3939 53.7745 55.4919L54.2649 56.1495L54.7547 56.7792L55.2323 57.4508L56.173 58.7799C56.4778 59.2557 56.7426 59.7455 56.9812 60.2632C57.2329 60.7669 57.4582 61.2846 57.6968 61.8163C57.9353 62.334 58.2134 62.8097 58.558 63.2295C58.7302 63.4393 58.9156 63.6353 59.1144 63.8172C59.3132 64.0131 59.5122 64.1948 59.7375 64.3767C60.1748 64.7265 60.6519 65.0484 61.1687 65.3283C61.6855 65.6221 62.2417 65.8879 62.838 66.1397C64.0306 66.6434 65.3693 67.0632 67.1582 67.2031L67.9398 66.6294C68.3903 64.8245 68.3774 63.2995 68.2316 61.8583C68.1654 61.1307 68.0059 60.459 67.8072 59.8153C67.6084 59.1717 67.3834 58.5421 67.1051 57.9545C66.9726 57.6606 66.8132 57.3668 66.6542 57.101C66.4819 56.8351 66.2832 56.5832 66.0712 56.3314C65.6604 55.8416 65.1704 55.436 64.6536 55.0442C64.15 54.6524 63.5667 54.3306 63.0101 53.9808C62.4536 53.645 61.9239 53.2812 61.4204 52.9034L59.8171 51.826C59.552 51.6441 59.2872 51.4762 59.0089 51.3083L58.1471 50.8326C57.0208 50.203 55.802 49.6853 54.5697 49.2515L53.6289 48.9716C53.4699 48.9296 53.324 48.8737 53.165 48.8317L52.6746 48.7338L51.7073 48.5519C51.376 48.5099 51.0315 48.4819 50.7134 48.4679C50.3954 48.4399 50.0509 48.4539 49.7196 48.4679L49.2292 48.4959L48.7258 48.5659C48.3945 48.6079 48.0636 48.7057 47.7455 48.8037C47.4143 48.9156 47.1224 49.0276 46.7646 49.2375L47.083 50.1889L47.0694 50.2169Z" fill="#297F34"/>
<path d="M64.8662 65.0481C65.5288 66.1675 66.2308 67.2449 66.9464 68.2803C77.3882 65.8597 116.134 59.8712 142.398 96.824C144.332 96.6281 145.419 96.4602 145.419 96.4602C114.968 48.9994 64.8662 65.0481 64.8662 65.0481Z" fill="#297F34"/>
<path d="M66.9453 68.2808C88.5975 99.8047 130.802 97.9858 142.397 96.8244C116.12 59.8716 77.3871 65.8602 66.9453 68.2808Z" fill="#00A2F8"/>
<path d="M64.8647 65.1606C64.8647 65.1606 24.7271 97.9857 34.5859 139.43C34.5859 139.43 35.3412 138.982 36.6001 138.087C30.4383 103.695 57.7883 75.8366 65.5402 68.7147C65.3414 67.5533 65.1164 66.364 64.8647 65.1746V65.1606Z" fill="#297F34"/>
<path d="M65.5264 68.7007C57.7746 75.8226 30.424 103.681 36.5857 138.073C44.4303 132.518 72.1917 109.641 65.5264 68.7007Z" fill="#00A2F8"/>
<path d="M61.6058 124.766C60.4795 125.927 59.4191 127.117 58.2795 128.208C57.1796 129.327 56.0931 130.447 54.9932 131.524C53.8934 132.602 52.4491 133.287 51.7335 134.616C50.965 135.932 50.3553 137.317 49.918 139.444L50.2098 139.891C51.2566 140.059 52.2106 139.919 53.0586 139.626C53.9464 139.36 54.6882 138.926 55.3905 138.422C56.8481 137.457 57.3786 135.666 58.2135 134.225C59.0483 132.769 59.7637 131.272 60.3998 129.733C60.9961 128.166 61.6189 126.641 62.0561 125.018L61.6058 124.752V124.766Z" fill="white"/>
<path d="M66.7875 133.133C65.7937 134.42 64.8661 135.736 63.8591 136.967C62.8785 138.226 61.9245 139.457 60.9572 140.661C59.9766 141.864 58.6118 142.717 58.0553 144.131C57.4325 145.53 56.982 146.971 56.7832 149.154L57.1145 149.574C58.1613 149.616 59.1155 149.364 59.9239 148.972C60.7719 148.608 61.4741 148.076 62.1102 147.503C63.4485 146.369 63.7931 144.523 64.4556 142.997C65.1182 141.458 65.6747 139.877 66.1385 138.268C66.5626 136.645 67.0132 135.05 67.265 133.385L66.7875 133.175V133.133Z" fill="white"/>
<path d="M73.1477 137.205C72.6044 138.772 72.1407 140.325 71.5709 141.836C71.0409 143.361 70.5238 144.859 69.9805 146.328C69.424 147.797 68.4033 149.084 68.3105 150.609C68.1515 152.148 68.1781 153.674 68.6684 155.786L69.1057 156.066C70.1128 155.73 70.9216 155.171 71.5709 154.513C72.26 153.869 72.7502 153.128 73.1742 152.358C74.0885 150.819 73.8366 148.958 73.9824 147.293C74.1281 145.6 74.1544 143.921 74.1014 142.242C73.9954 140.563 73.9294 138.898 73.6511 137.233L73.1341 137.191L73.1477 137.205Z" fill="white"/>
<path d="M82.1436 139.206C81.8521 140.843 81.6263 142.452 81.2818 144.047C80.9902 145.642 80.6991 147.209 80.3811 148.748C80.0631 150.301 79.2415 151.729 79.3873 153.254C79.4668 154.807 79.7184 156.29 80.5267 158.305L81.0035 158.501C81.9444 158.011 82.6601 157.311 83.2034 156.556C83.7865 155.814 84.1578 155.003 84.4625 154.163C85.1251 152.498 84.5948 150.693 84.502 149.014C84.396 147.321 84.1708 145.656 83.866 144.005C83.5082 142.354 83.19 140.731 82.6599 139.136L82.1436 139.178V139.206Z" fill="white"/>
<path d="M94.5611 141.836C94.2431 143.459 93.9917 145.069 93.6339 146.664C93.3159 148.245 93.0112 149.826 92.6666 151.351C92.3221 152.89 91.4872 154.317 91.5932 155.842C91.6462 157.395 91.8845 158.893 92.653 160.921L93.1305 161.131C94.0846 160.656 94.813 159.97 95.3563 159.228C95.9526 158.487 96.3369 157.689 96.6549 156.864C97.3439 155.213 96.8408 153.408 96.7746 151.715C96.6951 150.022 96.4958 148.357 96.2175 146.706C95.8862 145.055 95.5952 143.418 95.0917 141.823L94.5747 141.864L94.5611 141.836Z" fill="white"/>
<path d="M124.64 104.212C125.978 105.149 127.396 105.877 128.814 106.647C130.245 107.36 131.716 108.018 133.253 108.535C134.763 109.053 136.287 110.047 137.983 109.767C138.818 109.655 139.653 109.487 140.488 109.067C141.309 108.703 142.118 108.144 142.807 107.304L142.741 106.758C141.098 105.443 139.786 104.814 138.381 104.352C137.016 103.834 135.506 104.31 133.995 104.268C132.498 104.212 130.987 104.114 129.45 104.016C127.899 103.96 126.362 103.792 124.799 103.694L124.626 104.212H124.64Z" fill="white"/>
<path d="M125.714 111.642C126.8 112.887 128.006 113.951 129.199 115.07C130.431 116.133 131.703 117.141 133.068 118.036C134.42 118.932 135.665 120.275 137.375 120.443C138.209 120.555 139.071 120.597 139.972 120.401C140.846 120.261 141.774 119.925 142.635 119.282L142.701 118.736C141.403 117.043 140.277 116.091 139.031 115.28C137.825 114.426 136.248 114.51 134.804 114.077C133.373 113.643 131.915 113.153 130.458 112.677C128.974 112.23 127.516 111.684 126.019 111.18L125.74 111.642H125.714Z" fill="white"/>
<path d="M125.063 119.127C125.832 120.61 126.76 121.954 127.661 123.339C128.615 124.682 129.622 125.983 130.735 127.201C131.848 128.418 132.749 130.041 134.366 130.629C135.148 130.951 135.969 131.202 136.897 131.258C137.785 131.342 138.752 131.258 139.733 130.853L139.918 130.349C139.043 128.376 138.169 127.173 137.136 126.067C136.155 124.934 134.605 124.612 133.306 123.815C132.021 123.031 130.722 122.192 129.41 121.352C128.072 120.541 126.786 119.631 125.448 118.764L125.077 119.127H125.063Z" fill="white"/>
<path d="M122.72 126.222C123.117 127.859 123.714 129.398 124.284 130.979C124.893 132.532 125.582 134.043 126.377 135.512C127.172 136.968 127.676 138.772 129.107 139.766C129.796 140.284 130.538 140.731 131.412 141.011C132.247 141.319 133.215 141.487 134.261 141.333L134.553 140.885C134.156 138.744 133.586 137.345 132.844 136.016C132.155 134.673 130.723 133.959 129.65 132.854C128.577 131.762 127.517 130.615 126.43 129.468C125.317 128.334 124.284 127.131 123.171 125.942L122.72 126.208V126.222Z" fill="white"/>
<path d="M118.823 132.503C118.837 134.196 119.062 135.833 119.248 137.513C119.486 139.178 119.804 140.829 120.242 142.452C120.679 144.075 120.759 145.95 121.925 147.279C122.481 147.951 123.09 148.58 123.872 149.084C124.614 149.602 125.516 149.993 126.563 150.133L126.946 149.784C127.052 147.601 126.814 146.104 126.403 144.621C126.046 143.137 124.826 142.074 124.018 140.731C123.223 139.388 122.454 138.016 121.672 136.617C120.851 135.232 120.122 133.791 119.314 132.364L118.811 132.503H118.823Z" fill="white"/>
<path d="M113.59 137.611C113.219 139.262 113.046 140.913 112.848 142.578C112.702 144.243 112.622 145.936 112.688 147.629C112.741 149.308 112.384 151.155 113.205 152.75C113.59 153.547 114.026 154.317 114.689 155.003C115.285 155.688 116.067 156.304 117.061 156.709L117.525 156.458C118.134 154.373 118.241 152.862 118.174 151.309C118.174 149.783 117.22 148.44 116.756 146.929C116.292 145.432 115.869 143.893 115.418 142.34C114.928 140.787 114.557 139.206 114.106 137.611H113.59Z" fill="white"/>
<path d="M107.35 141.22C106.608 142.718 106.077 144.285 105.494 145.852C104.964 147.433 104.514 149.042 104.182 150.707C103.851 152.358 103.083 154.051 103.52 155.8C103.705 156.668 103.97 157.535 104.447 158.361C104.871 159.186 105.494 159.984 106.356 160.613L106.859 160.487C107.919 158.612 108.383 157.185 108.675 155.66C109.019 154.177 108.409 152.624 108.303 151.043C108.197 149.476 108.131 147.867 108.065 146.244C107.945 144.62 107.946 142.983 107.88 141.318L107.376 141.192L107.35 141.22Z" fill="white"/>
<path d="M37.2886 53.9248C36.6658 56.3175 35.9103 58.7101 35.1153 61.0607C34.3202 63.4254 33.4852 65.762 32.5576 68.0707C30.729 72.702 28.6489 77.2355 26.2769 81.573C25.9192 82.2166 25.7334 82.5525 25.3756 83.1961C25.0046 83.8397 24.8195 84.1616 24.4484 84.7912C23.8124 85.8546 23.1896 86.904 22.5138 87.9394C21.1887 90.0102 19.7842 92.0109 18.2603 93.9138C17.8628 94.3756 17.4913 94.8513 17.0937 95.313C16.6034 95.8587 16.365 96.1247 15.8747 96.6704C15.3712 97.2301 15.1062 97.5239 14.6027 98.0836C14.4967 98.1955 14.391 98.3214 14.285 98.4334C14.1657 98.5873 14.0989 98.6573 13.9796 98.7972C13.7411 99.091 13.6219 99.2308 13.3701 99.5246C13.1316 99.8185 13.0124 99.9584 12.7606 100.252C12.5353 100.56 12.4165 100.7 12.1912 101.008C11.966 101.316 11.8465 101.456 11.6212 101.763C11.5019 101.917 11.4486 101.987 11.3294 102.141L11.0648 102.533C10.6275 103.163 10.4157 103.47 9.9784 104.1C9.56762 104.744 9.36852 105.066 8.97099 105.709C8.86498 105.863 8.81205 105.947 8.71929 106.115C8.62654 106.283 8.5733 106.367 8.48054 106.521C8.28178 106.842 8.18951 107.01 7.99075 107.332C7.81848 107.598 7.65898 107.878 7.48671 108.144C7.3277 108.424 7.16918 108.703 6.99692 108.969C6.8379 109.249 6.66515 109.515 6.49289 109.795C6.41338 109.935 6.32101 110.075 6.22825 110.201C6.1355 110.368 6.08226 110.452 5.9895 110.62C5.67148 111.18 5.34054 111.74 5.00926 112.313C4.70449 112.887 4.41273 113.475 4.10795 114.062C4.0152 114.244 3.97555 114.328 3.88279 114.51C3.80328 114.692 3.76366 114.776 3.68415 114.958C3.55164 115.266 3.41908 115.559 3.29982 115.867C3.16731 116.175 3.04769 116.483 2.92843 116.791C2.79592 117.169 2.74325 117.35 2.61074 117.728C2.47823 118.106 2.41167 118.302 2.29241 118.68C2.22615 118.876 2.19949 118.96 2.13324 119.155C2.08023 119.351 2.05391 119.449 1.98766 119.631C1.74914 120.401 1.64321 120.792 1.40469 121.576C1.20592 122.374 1.11301 122.765 0.914245 123.563C0.861241 123.759 0.834946 123.857 0.795192 124.067C0.755439 124.262 0.742421 124.374 0.702668 124.57C0.623162 124.976 0.583227 125.186 0.516972 125.592C0.450717 125.927 0.38428 126.277 0.331276 126.613C0.291523 126.963 0.238726 127.299 0.212224 127.649C0.172471 127.998 0.132614 128.348 0.106112 128.684C0.0928609 128.894 0.0795581 128.992 0.053056 129.202C0.053056 129.37 0.039779 129.552 0.026528 129.733C0.026528 130.153 0.0132511 130.363 0 130.783C0 131.203 0 131.412 0 131.846C0.0265021 132.532 0.0660482 133.189 0.119052 133.861C0.145555 134.197 0.172134 134.533 0.198636 134.868C0.211887 135.064 0.22519 135.176 0.251692 135.372C0.278194 135.568 0.291834 135.666 0.318336 135.876C0.411093 136.534 0.503488 137.205 0.609497 137.863C0.662501 138.198 0.702409 138.52 0.768664 138.856C0.848171 139.248 0.887794 139.444 0.967301 139.836C1.04681 140.227 1.08677 140.423 1.17952 140.815C1.27228 141.207 1.31193 141.403 1.40469 141.794C1.5637 142.438 1.74909 143.082 1.9346 143.725C2.30563 145.013 2.76942 146.272 3.25971 147.517C3.32596 147.671 3.37915 147.825 3.4454 147.979C3.52491 148.161 3.56453 148.259 3.64404 148.441C3.77655 148.748 3.90914 149.056 4.0549 149.364C4.33317 149.98 4.59837 150.581 4.90315 151.183C5.26093 151.897 5.44636 152.26 5.81739 152.96C6.12217 153.548 6.45342 154.135 6.78469 154.709C7.11597 155.283 7.4738 155.856 7.83158 156.416C8.01709 156.696 8.2025 156.976 8.38802 157.256C8.57353 157.535 8.78547 157.801 8.97099 158.067C9.76605 159.145 10.6144 160.194 11.5552 161.173C12.496 162.153 13.4896 163.104 14.6557 163.93C14.8015 163.86 14.8678 163.818 15.0135 163.748C15.1063 162.349 15.0795 161.019 15.053 159.718C15.0133 158.417 14.9342 157.144 14.8414 155.884C14.7884 155.255 14.7353 154.639 14.6823 154.023C14.616 153.408 14.5499 152.792 14.4836 152.19C14.4174 151.575 14.3244 150.973 14.2449 150.372C14.1521 149.644 14.1125 149.294 14.0197 148.567C13.7282 146.16 13.4231 143.795 13.0388 141.473C12.9726 141.123 12.9463 140.955 12.8932 140.605C12.8402 140.311 12.7738 140.031 12.7341 139.738C12.6678 139.388 12.6415 139.22 12.5885 138.87C12.5222 138.52 12.4956 138.352 12.4293 138.003C12.3631 137.653 12.3235 137.485 12.2572 137.149C12.191 136.799 12.1643 136.631 12.0981 136.296C11.992 135.722 11.886 135.148 11.7668 134.575C11.727 134.407 11.714 134.323 11.6743 134.141C11.6478 133.973 11.6348 133.889 11.6083 133.707C11.5685 133.427 11.5021 133.133 11.4491 132.854C11.3431 132.28 11.2105 131.706 11.0913 131.147C11.025 130.825 10.9984 130.657 10.9321 130.335C10.8659 130.013 10.8263 129.845 10.76 129.523C10.7335 129.384 10.6933 129.258 10.6668 129.118C10.6403 128.95 10.6277 128.88 10.5879 128.712C10.5349 128.446 10.4817 128.166 10.4287 127.886C10.3757 127.607 10.3096 127.341 10.2566 127.061C10.2169 126.781 10.1637 126.501 10.124 126.221C10.071 125.886 10.0314 125.718 9.9784 125.382C9.9519 125.214 9.93826 125.13 9.91176 124.962C9.88526 124.794 9.88521 124.71 9.8587 124.542C9.7792 123.857 9.73957 123.521 9.66007 122.835C9.62031 122.15 9.6073 121.8 9.56754 121.114C9.56754 120.946 9.56721 120.848 9.55396 120.68C9.55396 120.513 9.55396 120.429 9.55396 120.247C9.55396 119.897 9.55398 119.729 9.58048 119.379C9.58048 119.03 9.59376 118.862 9.60701 118.512C9.63351 118.218 9.65976 117.938 9.67301 117.644C9.69951 117.35 9.71281 117.057 9.72606 116.763C9.72606 116.581 9.73934 116.497 9.75259 116.315C9.76584 116.147 9.77915 116.049 9.80565 115.881C9.8719 115.168 9.91215 114.818 9.9784 114.118C10.0712 113.531 10.1506 112.943 10.2566 112.355C10.2831 112.173 10.2958 112.09 10.3356 111.908C10.3621 111.768 10.4022 111.614 10.4287 111.474C10.495 111.18 10.5615 110.9 10.641 110.606C10.7205 110.312 10.7863 110.033 10.8791 109.739C10.9718 109.459 11.0781 109.179 11.1709 108.899C11.3829 108.34 11.5684 107.78 11.8334 107.248C12.1382 106.605 12.2973 106.283 12.6021 105.639C12.9466 105.009 13.1184 104.702 13.4762 104.072C13.569 103.918 13.6086 103.834 13.7014 103.68C13.7941 103.526 13.8474 103.456 13.9401 103.303C14.1389 102.995 14.2315 102.855 14.417 102.547C14.6158 102.239 14.7087 102.099 14.9074 101.791C15.1194 101.497 15.2253 101.358 15.4373 101.064C15.6494 100.77 15.7552 100.63 15.9673 100.336C16.0733 100.196 16.1265 100.112 16.2325 99.9725C16.3253 99.8605 16.4183 99.7346 16.5243 99.6227C16.9881 99.063 17.2129 98.7831 17.6767 98.2235C18.0742 97.7477 18.4985 97.258 18.9093 96.7822C19.3201 96.2925 19.7042 95.7889 20.1017 95.2992C23.229 91.2975 25.8792 86.9599 28.1054 82.4125C30.3051 77.8651 32.1603 73.1778 33.7637 68.4205C35.367 63.6632 36.7189 58.85 37.6995 53.9529C37.5405 53.9249 37.4606 53.9108 37.3016 53.8828L37.2886 53.9248Z" fill="url(#paint0_linear_55_43643)"/>
<path d="M36.5334 39.5971C35.9371 41.6959 35.076 43.7248 34.122 45.7116C33.1546 47.6845 32.0811 49.6154 30.9017 51.4623C29.7224 53.3093 28.3578 55.0582 26.8604 56.6813C25.363 58.3044 23.7992 59.8156 22.2885 61.2987C21.5332 62.0403 20.6989 62.7118 19.8376 63.3275C18.9763 63.9431 18.062 64.4889 17.1874 65.0346C16.3128 65.5663 15.4513 66.0839 14.6828 66.6576C13.901 67.2172 13.1985 67.819 12.5359 68.4626C11.2241 69.7778 10.045 71.177 8.85244 72.8281C8.25614 73.6396 7.65935 74.5352 7.0233 75.5146C6.86429 75.7665 6.70546 76.0042 6.54645 76.27C6.45369 76.424 6.4011 76.508 6.30834 76.6759C6.22884 76.8158 6.13551 76.9278 6.056 77.0817C5.94999 77.2496 5.89707 77.3334 5.80431 77.5013C5.7248 77.6553 5.63244 77.7953 5.53968 77.9352C5.36741 78.229 5.18203 78.5367 5.00977 78.8865C5.04952 79.0404 5.07581 79.1244 5.12882 79.2784C5.81787 79.6841 6.50667 79.964 7.18247 80.1739C7.87153 80.3977 8.56066 80.5376 9.24971 80.6355C10.6278 80.8174 11.9795 80.7615 13.2781 80.5517C14.5899 80.3418 15.8353 79.9499 17.0146 79.4322C18.194 78.9145 19.3074 78.2709 20.3145 77.5154C21.3215 76.7598 22.2359 75.8923 23.0177 74.9269C23.7995 73.9614 24.4621 72.898 25.0319 71.7927C25.6017 70.6873 26.1048 69.568 26.5951 68.4626C27.0854 67.3572 27.5759 66.2659 28.0794 65.2165C28.5829 64.1671 29.0335 63.0897 29.4576 61.9983C29.8683 60.9069 30.2392 59.8156 30.597 58.7242C31.021 57.423 31.2334 56.7793 31.6574 55.478C32.0152 54.4006 32.3728 53.3372 32.7438 52.2878C34.2279 48.0762 35.5397 43.8786 36.9443 39.709C36.7853 39.667 36.7057 39.6531 36.5599 39.6112L36.5334 39.5971Z" fill="url(#paint1_linear_55_43643)"/>
<path d="M33.6709 29.8725C33.5516 31.1737 33.1939 32.489 32.7566 33.7343C32.3061 34.9795 31.7227 36.1828 31.0601 37.3161C30.3976 38.4495 29.5627 39.4848 28.6616 40.4223C27.7606 41.3597 26.8465 42.2273 25.9454 43.0808C25.8129 43.2067 25.7463 43.2767 25.6006 43.4026C25.4548 43.5285 25.3885 43.5844 25.2427 43.7104C25.0042 43.9063 24.7796 44.1162 24.5278 44.2981C24.2363 44.522 24.0901 44.6339 23.7986 44.8578C23.6793 44.9557 23.5604 45.0396 23.4278 45.1376C23.2821 45.2495 23.2022 45.3056 23.0565 45.4035C22.8179 45.5854 22.5797 45.7813 22.3279 45.9632C22.0894 46.1451 21.8505 46.3409 21.6252 46.5368C21.3867 46.7187 21.1485 46.9146 20.9232 47.1245C20.804 47.2224 20.6983 47.3203 20.579 47.4323C20.4597 47.5302 20.3405 47.6283 20.2212 47.7262C19.9827 47.9221 19.757 48.1319 19.5185 48.3418C19.28 48.5517 19.0414 48.7475 18.8029 48.9574C18.5644 49.1672 18.3258 49.3912 18.0873 49.6011C17.8355 49.811 17.5969 50.0348 17.3452 50.2587C17.2259 50.3706 17.1069 50.4965 16.9744 50.5945C16.8552 50.7064 16.7229 50.8183 16.6037 50.9303C16.3519 51.1541 16.0997 51.392 15.848 51.6439C15.3444 52.1196 14.8278 52.6093 14.3242 53.197C14.3772 53.3509 14.4039 53.4209 14.4569 53.5748C14.8411 53.6447 15.212 53.6867 15.5963 53.7007C15.9673 53.7286 16.3517 53.7427 16.7227 53.7287C17.0938 53.7147 17.4646 53.6868 17.8356 53.6448C18.2066 53.6168 18.5778 53.5609 18.9356 53.4909C19.6644 53.351 20.3801 53.1831 21.0824 52.9312C21.4402 52.8193 21.7847 52.6933 22.1293 52.5534C22.4738 52.3995 22.8051 52.2456 23.1496 52.0917C23.3219 52.0078 23.4807 51.9237 23.653 51.8398C23.812 51.7558 23.9712 51.658 24.1435 51.56C24.4615 51.3641 24.7791 51.1682 25.0972 50.9583C25.6935 50.5105 26.2902 50.0628 26.8202 49.5171C27.8935 48.4677 28.8074 47.2644 29.6555 46.0471C30.0927 45.4454 30.4639 44.8018 30.8084 44.1442C30.9675 43.8084 31.1263 43.4726 31.2853 43.1368C31.4311 42.801 31.5637 42.4512 31.6962 42.1154C32.1997 40.7442 32.5972 39.3589 32.9682 38.0017C33.697 35.2733 34.095 32.5589 34.1083 29.8304C33.9493 29.8304 33.8697 29.8304 33.6974 29.8304L33.6709 29.8725Z" fill="url(#paint2_linear_55_43643)"/>
<path d="M30.24 20.5678C29.6437 22.4707 28.8094 24.2756 27.8156 25.9266C27.5638 26.3324 27.3116 26.7381 27.0333 27.1299C26.7551 27.5217 26.4902 27.8995 26.1987 28.2633C26.1192 28.3753 26.066 28.4312 25.9864 28.5431C25.8937 28.655 25.854 28.6971 25.7613 28.809C25.6155 28.9909 25.47 29.1588 25.311 29.3267C25.1519 29.4946 25.006 29.6765 24.847 29.8304C24.6483 30.0263 24.5557 30.1242 24.3702 30.3201C23.7209 30.9498 22.9392 31.4395 22.1839 31.9012C21.7996 32.1251 21.4417 32.363 21.0839 32.6008C20.7394 32.8667 20.3949 33.1045 20.0636 33.4123C19.8913 33.5522 19.7192 33.6922 19.5602 33.8461C19.4807 33.9161 19.3874 34.0001 19.3079 34.07C19.2019 34.154 19.1492 34.1958 19.0432 34.2938C18.871 34.4477 18.6985 34.6017 18.5263 34.7696C18.354 34.9235 18.1686 35.0774 17.9963 35.2453C17.6518 35.5951 17.2674 35.9169 16.8964 36.2947C16.5254 36.6725 16.128 37.0503 15.7305 37.54C15.7835 37.7359 15.8098 37.8338 15.8495 38.0157C17.0156 38.4495 18.1816 38.5613 19.3344 38.4634C19.6259 38.4354 19.918 38.4075 20.1962 38.3655C20.4745 38.3095 20.7656 38.2535 21.0438 38.1696C21.1896 38.1416 21.3225 38.0997 21.4683 38.0577C21.6008 38.0157 21.7466 37.9598 21.8791 37.9178C22.1574 37.8199 22.4222 37.7218 22.6873 37.5959C23.7474 37.1201 24.7012 36.4066 25.4565 35.5251C26.2118 34.6436 26.8483 33.6782 27.4843 32.7547C28.1071 31.8172 28.6503 30.8519 29.0876 29.8444C29.3129 29.3407 29.498 28.8369 29.6835 28.3332C29.8558 27.8155 30.0149 27.3118 30.1475 26.7941C30.4125 25.7587 30.5979 24.7233 30.7039 23.6879C30.8099 22.6525 30.8368 21.6172 30.744 20.5818C30.5452 20.5818 30.4387 20.5817 30.24 20.5538V20.5678Z" fill="url(#paint3_linear_55_43643)"/>
<path d="M28.6627 11.8233C28.0532 13.0966 27.3511 14.3278 26.5825 15.4192C26.3838 15.699 26.198 15.965 25.986 16.2168C25.7872 16.4687 25.5756 16.7344 25.3635 16.9723C25.2575 17.0982 25.1512 17.2101 25.0452 17.3221C24.9392 17.434 24.8335 17.5599 24.7275 17.6579C24.6215 17.7698 24.5155 17.8819 24.3962 17.9798C24.2637 18.1057 24.1975 18.1617 24.065 18.2876C23.6144 18.6794 23.0577 18.9452 22.5542 19.1691C22.4216 19.2251 22.3024 19.281 22.1964 19.351C22.0771 19.407 21.9711 19.463 21.8651 19.5469C21.7591 19.6169 21.6531 19.6867 21.5603 19.7707C21.5073 19.8126 21.4678 19.8547 21.4147 19.8967C21.3617 19.9387 21.3215 19.9806 21.2685 20.0226C21.2155 20.0786 21.1892 20.1065 21.1229 20.1625C21.0699 20.2184 21.0304 20.2604 20.9774 20.3024C20.8714 20.4003 20.7786 20.4844 20.6726 20.5963C20.5666 20.6943 20.4603 20.7922 20.3543 20.9041C20.2483 21.016 20.1426 21.1419 20.0101 21.2399C19.8908 21.3518 19.7712 21.4778 19.6387 21.6177C19.5062 21.7436 19.3739 21.8696 19.2414 22.0095C18.9631 22.3033 18.6584 22.5691 18.3271 22.9609C18.3271 23.1568 18.3271 23.2547 18.3271 23.4506C18.4199 23.5345 18.5126 23.6045 18.6054 23.6885C18.6981 23.7584 18.8044 23.8284 18.8972 23.8984C19.0032 23.9684 19.0959 24.0243 19.2019 24.0803C19.3079 24.1363 19.4136 24.1782 19.5196 24.2342C19.7316 24.3181 19.944 24.402 20.1692 24.4719C20.2752 24.4999 20.3945 24.528 20.5005 24.556C20.6065 24.584 20.7258 24.598 20.8318 24.612C21.7328 24.7519 22.687 24.6539 23.5616 24.3601C24.4361 24.0662 25.2308 23.5346 25.7873 22.835C26.3571 22.1354 26.7813 21.3798 27.2186 20.6802C27.6426 19.9666 27.9869 19.2391 28.2784 18.5115C28.4109 18.1477 28.5302 17.7699 28.6362 17.4061C28.7422 17.0283 28.822 16.6645 28.9015 16.2867C29.0472 15.5451 29.1532 14.8036 29.1797 14.062C29.2062 13.6982 29.2062 13.3204 29.2062 12.9566C29.2062 12.5928 29.18 12.2291 29.1402 11.8513C28.9414 11.8233 28.8349 11.8233 28.6362 11.7953L28.6627 11.8233Z" fill="url(#paint4_linear_55_43643)"/>
<path d="M24.1437 3.302C23.7196 4.49132 23.2159 5.62452 22.6329 6.64593C22.3413 7.16364 22.0363 7.65341 21.705 8.10115C21.546 8.32503 21.3872 8.54886 21.2017 8.75874C21.1221 8.87067 21.0295 8.96874 20.95 9.06669C20.8572 9.16463 20.7774 9.26252 20.6847 9.36047C20.3402 9.73825 19.8632 10.0041 19.4392 10.228C19.0151 10.4518 18.6971 10.7177 18.4188 11.0814C18.2863 11.2773 18.1408 11.4453 17.995 11.6832C17.836 11.8791 17.7034 12.1309 17.5311 12.3688C17.1998 12.9005 16.8153 13.4461 16.3516 14.2577C16.3913 14.4535 16.405 14.5514 16.4447 14.7333C17.2133 15.279 18.035 15.5308 18.8698 15.5588C19.2938 15.5868 19.7045 15.5309 20.1153 15.4609C20.5128 15.363 20.9231 15.251 21.2942 15.0691C21.6785 14.9012 22.0233 14.6634 22.3281 14.3975C22.6329 14.1177 22.8977 13.8098 23.1097 13.46C23.335 13.1242 23.4939 12.7606 23.6662 12.3968C23.7457 12.2149 23.8254 12.047 23.9049 11.8651C23.9712 11.6832 24.0506 11.5153 24.1301 11.3474C24.2096 11.1795 24.2761 10.9974 24.3423 10.8295C24.4086 10.6616 24.475 10.4937 24.528 10.3118C24.6473 9.96202 24.7264 9.62623 24.8192 9.27643C24.8589 9.10853 24.8855 8.92664 24.9253 8.75874C24.9518 8.54886 24.9784 8.45092 25.0049 8.24104C25.0446 7.89124 25.0709 7.55546 25.0974 7.21965C25.1239 6.54804 25.1109 5.87652 25.0314 5.2189C24.9916 4.89708 24.9521 4.56117 24.8858 4.23936C24.8196 3.91754 24.7528 3.6098 24.66 3.27399C24.4612 3.27399 24.3554 3.27401 24.1566 3.288L24.1437 3.302Z" fill="url(#paint5_linear_55_43643)"/>
<path d="M63.722 39.219C66.0012 39.8626 68.3201 40.3944 70.6523 40.8701C72.9845 41.3458 75.317 41.7656 77.6757 42.1154C82.3798 42.801 87.1234 43.2207 91.8805 43.2627C92.596 43.2627 92.9543 43.2627 93.6566 43.2627C94.3721 43.2627 94.7297 43.2487 95.432 43.2347C96.6113 43.1927 97.8042 43.1647 98.9835 43.0808C101.342 42.9269 103.701 42.6611 106.02 42.2413C106.603 42.1154 107.185 42.0174 107.755 41.8915C108.444 41.7236 108.789 41.6396 109.478 41.4717C110.194 41.2898 110.565 41.2059 111.28 41.024C111.426 40.982 111.585 40.9539 111.731 40.912C111.916 40.884 111.996 40.8561 112.182 40.8281C112.539 40.7581 112.724 40.7162 113.082 40.6462C113.44 40.5762 113.626 40.5343 113.983 40.4643C114.341 40.4083 114.527 40.3804 114.885 40.3244C115.243 40.2684 115.428 40.2405 115.799 40.1845C115.985 40.1565 116.077 40.1425 116.249 40.1145C116.435 40.1005 116.527 40.0865 116.7 40.0725C117.428 40.0025 117.8 39.9605 118.529 39.8766C119.258 39.8346 119.628 39.8207 120.357 39.7787C120.543 39.7787 120.636 39.7647 120.821 39.7507C121.007 39.7507 121.099 39.7507 121.272 39.7507C121.643 39.7507 121.815 39.7367 122.186 39.7227C122.491 39.7087 122.795 39.6948 123.1 39.6668C123.405 39.6668 123.71 39.6668 124.028 39.6388C124.333 39.6388 124.65 39.6108 124.955 39.5968C125.114 39.5968 125.26 39.5828 125.419 39.5688C125.604 39.5688 125.697 39.5688 125.883 39.5688C126.506 39.5688 127.128 39.5548 127.764 39.5408C128.387 39.5688 129.023 39.5828 129.646 39.6108C129.831 39.6108 129.925 39.6248 130.123 39.6388C130.309 39.6528 130.401 39.6667 130.587 39.6947C130.905 39.7227 131.21 39.7647 131.528 39.8067C131.846 39.8487 132.151 39.8906 132.469 39.9326C132.84 40.0026 133.025 40.0445 133.396 40.1145C133.767 40.1845 133.953 40.2264 134.337 40.2964C134.522 40.3384 134.616 40.3523 134.814 40.3943C135 40.4362 135.092 40.4643 135.278 40.5063C136.033 40.6882 136.405 40.7861 137.16 40.968C137.902 41.1919 138.286 41.3038 139.028 41.5277C139.213 41.5837 139.307 41.6116 139.505 41.6676C139.691 41.7375 139.783 41.7655 139.969 41.8355C140.34 41.9754 140.525 42.0454 140.896 42.1853C141.201 42.2972 141.519 42.4092 141.824 42.5351C142.129 42.675 142.433 42.801 142.725 42.9549C143.03 43.0948 143.335 43.2347 143.626 43.3886C143.812 43.4725 143.891 43.5285 144.077 43.6125C144.222 43.6964 144.368 43.7805 144.514 43.8644C144.858 44.0743 145.031 44.1722 145.389 44.3821C145.733 44.592 145.905 44.7039 146.25 44.9138C146.793 45.2776 147.31 45.6553 147.827 46.0471C148.092 46.243 148.343 46.4389 148.608 46.6348C148.767 46.7607 148.834 46.8166 148.993 46.9286C149.138 47.0545 149.218 47.1104 149.364 47.2364C149.854 47.6561 150.344 48.0899 150.835 48.5097C151.073 48.7196 151.325 48.9294 151.563 49.1673C151.842 49.4331 151.988 49.573 152.266 49.8529C152.544 50.1327 152.69 50.2726 152.968 50.5384C153.246 50.8183 153.379 50.9582 153.657 51.238C154.108 51.7138 154.532 52.2176 154.969 52.7073C155.831 53.7007 156.626 54.7641 157.394 55.8415C157.487 55.9814 157.593 56.1074 157.685 56.2473C157.791 56.4152 157.844 56.499 157.964 56.6669C158.149 56.9468 158.322 57.2267 158.507 57.5066C158.865 58.0663 159.223 58.6259 159.554 59.1996C159.952 59.8992 160.15 60.235 160.548 60.9346C160.879 61.5082 161.184 62.1099 161.489 62.6976C161.793 63.2852 162.072 63.9009 162.337 64.5166C162.469 64.8244 162.602 65.1321 162.734 65.4399C162.867 65.7477 162.986 66.0696 163.105 66.3915C163.582 67.6647 164.006 68.9659 164.337 70.3231C164.669 71.6803 164.934 73.0656 165 74.5487C164.868 74.6467 164.801 74.6887 164.669 74.7866C163.476 74.157 162.416 73.4573 161.356 72.7717C160.309 72.0721 159.316 71.3586 158.335 70.6311C157.858 70.2673 157.367 69.9034 156.89 69.5256C156.413 69.1619 155.963 68.784 155.486 68.4062C155.022 68.0284 154.571 67.6507 154.121 67.273C153.578 66.8252 153.3 66.6013 152.756 66.1535C150.941 64.6704 149.165 63.1873 147.469 61.6622C147.217 61.4243 147.085 61.3123 146.833 61.0884C146.621 60.8926 146.422 60.6966 146.21 60.5007C145.958 60.2768 145.839 60.151 145.587 59.9272C145.336 59.6893 145.216 59.5773 144.964 59.3394C144.726 59.1016 144.593 58.9758 144.355 58.7379C144.103 58.5 143.984 58.388 143.732 58.1642C143.322 57.7864 142.911 57.3807 142.5 56.9889C142.38 56.863 142.314 56.8069 142.195 56.6949C142.076 56.583 142.009 56.5271 141.877 56.4152C141.665 56.2333 141.466 56.0373 141.254 55.8415C140.843 55.4637 140.446 55.0439 140.048 54.6522C139.823 54.4283 139.704 54.3163 139.465 54.1065C139.24 53.8826 139.12 53.7566 138.895 53.5327C138.802 53.4348 138.71 53.3369 138.617 53.239C138.498 53.127 138.445 53.0711 138.326 52.9592C138.127 52.7773 137.928 52.5814 137.743 52.3995C137.544 52.2176 137.359 52.0077 137.16 51.8258C136.961 51.6439 136.748 51.462 136.55 51.2801C136.311 51.0562 136.179 50.9442 135.94 50.7203C135.821 50.6084 135.755 50.5525 135.635 50.4406C135.503 50.3426 135.45 50.2867 135.318 50.1748C134.801 49.7551 134.536 49.5452 134.019 49.1254C133.476 48.7476 133.197 48.5517 132.654 48.1599C132.521 48.0619 132.442 48.0199 132.31 47.922C132.164 47.838 132.098 47.7962 131.952 47.7122C131.66 47.5443 131.528 47.4603 131.236 47.2924C130.945 47.1245 130.799 47.0405 130.508 46.8726C130.256 46.7466 130.017 46.6208 129.766 46.4949C129.514 46.369 129.275 46.229 129.024 46.1031C128.878 46.0191 128.798 45.9772 128.652 45.9072C128.506 45.8372 128.427 45.7952 128.268 45.7253C127.658 45.4315 127.354 45.2775 126.731 44.9837C126.214 44.7738 125.684 44.55 125.154 44.3401C124.995 44.2701 124.915 44.2422 124.756 44.1862C124.624 44.1442 124.491 44.1021 124.346 44.0602C124.081 43.9762 123.803 43.8923 123.524 43.8084C123.246 43.7244 122.981 43.6544 122.703 43.5845C122.424 43.5285 122.146 43.4726 121.868 43.4306C121.312 43.3466 120.742 43.2206 120.185 43.1927C119.496 43.1507 119.165 43.1228 118.476 43.0808C117.787 43.0808 117.442 43.0808 116.753 43.0808C116.58 43.0808 116.488 43.0808 116.316 43.0808C116.144 43.0808 116.051 43.0948 115.879 43.1088C115.534 43.1368 115.361 43.1368 115.017 43.1648C114.672 43.1928 114.5 43.1927 114.156 43.2207C113.811 43.2626 113.639 43.2907 113.294 43.3327C112.95 43.3747 112.778 43.4026 112.433 43.4446C112.261 43.4726 112.168 43.4866 111.996 43.5006C111.85 43.5286 111.705 43.5565 111.572 43.5845C110.883 43.7244 110.538 43.7943 109.849 43.9203C109.253 44.0462 108.643 44.1722 108.047 44.2981C107.437 44.424 106.841 44.5219 106.231 44.6199C101.382 45.4314 96.4787 45.6413 91.6553 45.3475C86.8319 45.0397 82.0618 44.34 77.371 43.3886C72.6801 42.4231 68.0556 41.2059 63.5635 39.6248C63.6165 39.4709 63.6561 39.3869 63.7091 39.233L63.722 39.219Z" fill="url(#paint6_linear_55_43643)"/>
<path d="M52.4186 31.2579C54.4328 31.7756 56.5264 32.0273 58.6333 32.1672C60.7402 32.2931 62.8475 32.2931 64.9676 32.1672C67.0746 32.0273 69.1944 31.6775 71.2748 31.1318C73.3552 30.6001 75.3828 29.9426 77.3704 29.313C78.3643 28.9912 79.3315 28.5854 80.2723 28.1097C81.2132 27.634 82.1276 27.0881 83.0021 26.5704C83.89 26.0387 84.738 25.5211 85.5993 25.1154C86.4474 24.6956 87.3086 24.3598 88.1699 24.08C89.9058 23.5483 91.6551 23.1984 93.603 22.9466C94.5703 22.8206 95.6037 22.7367 96.73 22.6528C97.0083 22.6388 97.2997 22.6107 97.5912 22.5968C97.7767 22.5968 97.8567 22.5967 98.0422 22.5827C98.188 22.5827 98.3335 22.5547 98.4925 22.5547C98.6781 22.5547 98.7706 22.5549 98.9694 22.5409C99.1284 22.5409 99.3008 22.5409 99.4598 22.5409C99.7911 22.5409 100.136 22.5269 100.507 22.5409C100.613 22.6668 100.666 22.7227 100.758 22.8347C100.732 23.6602 100.626 24.4297 100.44 25.1712C100.268 25.9128 100.043 26.6124 99.7646 27.284C99.208 28.6273 98.4927 29.8307 97.6579 30.9081C96.8231 31.9994 95.8688 32.9228 94.8485 33.7483C93.8282 34.5738 92.7417 35.2316 91.6153 35.7773C90.489 36.3229 89.323 36.7006 88.1304 36.9245C86.9379 37.1484 85.745 37.2044 84.5524 37.1624C83.3598 37.1205 82.1938 37.0084 81.041 36.8965C79.8882 36.7846 78.7614 36.6727 77.6351 36.5887C76.522 36.5188 75.4092 36.3788 74.3094 36.2109C73.2095 36.029 72.1359 35.8192 71.0626 35.5953C69.7905 35.3155 69.1549 35.1756 67.8695 34.9098C66.8095 34.6859 65.7621 34.4759 64.7153 34.28C60.528 33.4825 56.4336 32.5591 52.3125 31.7055C52.3523 31.5376 52.3785 31.4676 52.4316 31.2997L52.4186 31.2579Z" fill="url(#paint7_linear_55_43643)"/>
<path d="M45.9281 23.7019C47.0545 24.2616 48.3 24.5973 49.5456 24.8352C50.7912 25.059 52.0632 25.1431 53.3353 25.1151C54.6074 25.0871 55.866 24.8492 57.0983 24.5134C58.3174 24.1776 59.497 23.7719 60.6499 23.3941C60.8221 23.3382 60.915 23.31 61.0873 23.2541C61.2595 23.1841 61.3388 23.1561 61.5111 23.0862C61.7893 22.9742 62.081 22.8623 62.3593 22.7364C62.6906 22.5825 62.8627 22.5127 63.194 22.3587C63.3265 22.3028 63.4723 22.2328 63.6048 22.1628C63.7638 22.0789 63.8567 22.0509 64.0157 21.9669C64.294 21.841 64.5591 21.729 64.8374 21.5891C65.1157 21.4632 65.3805 21.3513 65.6721 21.2393C65.9503 21.1134 66.2285 21.0015 66.5067 20.8895C66.6525 20.8335 66.7854 20.7776 66.9312 20.7356C67.0769 20.6797 67.2092 20.6237 67.355 20.5677C67.6332 20.4558 67.9246 20.3439 68.2162 20.2459C68.5077 20.134 68.7862 20.0081 69.0909 19.9101C69.3825 19.7982 69.6871 19.7001 69.9787 19.5742C70.2702 19.4483 70.5752 19.3503 70.88 19.2384C71.0257 19.1824 71.1975 19.1405 71.3432 19.0705C71.5022 19.0145 71.6481 18.9446 71.8071 18.9026C72.1252 18.7907 72.4435 18.6788 72.7615 18.5808C73.4108 18.3709 74.0734 18.1332 74.8022 17.9792C74.895 18.1052 74.9476 18.1611 75.0403 18.287C74.8946 18.6648 74.7357 19.0287 74.5635 19.3924C74.3912 19.7422 74.219 20.106 74.007 20.4278C73.8083 20.7497 73.5963 21.0854 73.371 21.3932C73.159 21.715 72.9337 22.0229 72.6819 22.3167C72.2049 22.9044 71.7011 23.478 71.1446 23.9817C70.8663 24.2475 70.5882 24.4994 70.3099 24.7373C70.0184 24.9752 69.7137 25.199 69.4222 25.4229C69.2765 25.5348 69.117 25.6468 68.9712 25.7587C68.8122 25.8566 68.6534 25.9545 68.4944 26.0525C68.1764 26.2484 67.8584 26.4443 67.5271 26.6122C66.8645 26.934 66.189 27.2419 65.4734 27.4378C64.0688 27.8856 62.6242 28.0954 61.2063 28.2493C60.4907 28.3333 59.7754 28.3472 59.0731 28.3332C58.7153 28.3192 58.371 28.2773 58.0132 28.2493C57.6687 28.2213 57.3109 28.1514 56.9664 28.0954C55.5882 27.8576 54.2631 27.5217 52.9645 27.1579C50.3673 26.4443 47.9557 25.4229 45.7295 24.0377C45.809 23.8978 45.8616 23.8138 45.9411 23.6739L45.9281 23.7019Z" fill="url(#paint8_linear_55_43643)"/>
<path d="M40.0836 15.8525C41.9387 16.2722 43.8336 16.4261 45.6887 16.3702C46.1525 16.3562 46.6164 16.3281 47.0669 16.2721C47.5174 16.2162 47.968 16.1742 48.4185 16.0902C48.551 16.0622 48.6173 16.0624 48.7498 16.0344C48.8823 16.0064 48.9486 15.9923 49.0811 15.9644C49.3063 15.9224 49.5184 15.8804 49.7436 15.8245C49.9556 15.7685 50.1812 15.7265 50.3932 15.6566C50.645 15.5866 50.7775 15.5446 51.0293 15.4607C51.8773 15.1808 52.6718 14.7331 53.4271 14.2714C53.7982 14.0335 54.1826 13.8375 54.5536 13.6276C54.9379 13.4457 55.3223 13.2638 55.7331 13.1099C55.9319 13.026 56.1306 12.9421 56.3426 12.8722C56.4486 12.8302 56.555 12.8021 56.661 12.7601C56.7802 12.7042 56.8461 12.6902 56.9787 12.6343C57.1907 12.5503 57.403 12.4803 57.6283 12.4103C57.8403 12.3264 58.0655 12.2425 58.2908 12.1726C58.7546 12.0327 59.2049 11.8507 59.7084 11.7107C60.212 11.5708 60.7155 11.389 61.3118 11.2911C61.4443 11.431 61.5105 11.501 61.643 11.6409C61.4045 12.9142 60.9009 14.0474 60.2384 15.0408C60.0661 15.2927 59.9069 15.5446 59.7214 15.7824C59.5359 16.0063 59.3372 16.2302 59.1384 16.454C59.0324 16.566 58.9397 16.6779 58.8337 16.7758C58.7277 16.8738 58.6217 16.9718 58.5024 17.0838C58.2771 17.2797 58.0654 17.4754 57.8269 17.6573C56.8993 18.3849 55.8391 18.8747 54.7393 19.1266C53.6262 19.3644 52.5264 19.4484 51.4531 19.5604C50.3797 19.6583 49.3065 19.6443 48.2729 19.5464C47.7562 19.4904 47.2392 19.4064 46.7356 19.3225C46.2321 19.2245 45.7287 19.0986 45.2384 18.9587C44.2578 18.6788 43.3172 18.315 42.4161 17.8812C41.515 17.4475 40.6667 16.9438 39.8584 16.3282C39.9512 16.1463 40.0044 16.0484 40.0972 15.8525H40.0836Z" fill="url(#paint9_linear_55_43643)"/>
<path d="M33.7492 9.98984C35.1009 10.0878 36.4525 10.0739 37.7511 9.91998C38.0691 9.878 38.3868 9.83589 38.7048 9.77992C39.0228 9.72396 39.3279 9.66815 39.6326 9.59819C39.7784 9.57021 39.9372 9.52812 40.083 9.48615C40.2287 9.44417 40.3746 9.41623 40.5204 9.36027C40.6661 9.31829 40.812 9.27636 40.9577 9.23439C41.13 9.17842 41.2093 9.15029 41.3815 9.08033C41.9381 8.87045 42.4285 8.50678 42.8658 8.15698C42.9718 8.07303 43.0911 7.98901 43.1971 7.91905C43.3031 7.8351 43.4088 7.76511 43.5148 7.70914C43.634 7.65317 43.7268 7.58322 43.8461 7.54124C43.8991 7.51326 43.9658 7.49937 44.0188 7.47139C44.0718 7.4434 44.1379 7.42934 44.1909 7.40136C44.2704 7.37337 44.2971 7.35933 44.3766 7.34533C44.4429 7.33134 44.5087 7.31747 44.5617 7.28948C44.6809 7.24751 44.8138 7.20541 44.9596 7.16343C45.0921 7.12146 45.2247 7.07953 45.3704 7.03755C45.5162 6.99558 45.675 6.95363 45.8208 6.89767C45.9798 6.8417 46.139 6.79976 46.3112 6.75778C46.4702 6.70181 46.6556 6.64585 46.8411 6.58988C47.2254 6.49194 47.5964 6.33803 48.0867 6.24008C48.2457 6.33803 48.3249 6.39391 48.4839 6.50585C48.5104 6.63178 48.5237 6.75773 48.537 6.88366C48.537 7.00959 48.5373 7.13554 48.5506 7.26147C48.5506 7.3874 48.5506 7.51335 48.5506 7.63928C48.5506 7.76521 48.5237 7.87716 48.5105 8.00309C48.4707 8.24095 48.4315 8.47883 48.3785 8.71669C48.352 8.82863 48.3121 8.94055 48.2723 9.05248C48.2326 9.16442 48.1924 9.27634 48.1526 9.38828C47.8081 10.2838 47.252 11.0952 46.5629 11.7388C45.8871 12.3965 45.039 12.8302 44.1909 12.9841C43.3296 13.152 42.4949 13.1521 41.6999 13.1941C40.9048 13.222 40.1359 13.1661 39.3939 13.0542C39.0229 12.9982 38.6653 12.9142 38.3075 12.8162C37.9498 12.7183 37.6052 12.6064 37.2606 12.4945C36.5848 12.2566 35.9223 11.9628 35.2995 11.627C34.9815 11.4591 34.69 11.2772 34.3853 11.0953C34.0938 10.8994 33.8017 10.7034 33.5234 10.4795C33.6029 10.2836 33.6429 10.1857 33.7357 9.98984H33.7492Z" fill="url(#paint10_linear_55_43643)"/>
<path d="M29.0977 1.53922C30.2771 1.76309 31.4566 1.87501 32.5962 1.87501C33.166 1.87501 33.7225 1.83293 34.2526 1.76297C34.5176 1.73498 34.7824 1.69306 35.0342 1.63709C35.1667 1.6091 35.286 1.5952 35.4185 1.55323C35.5378 1.52524 35.6706 1.49716 35.7899 1.45519C36.2802 1.32926 36.7304 1.03543 37.1279 0.755587C37.5255 0.48974 37.8967 0.32187 38.334 0.265903C38.5593 0.237919 38.7842 0.195861 39.036 0.181869C39.2745 0.139893 39.5529 0.139996 39.8312 0.112011C40.4275 0.0840273 41.077 -3.38554e-05 41.978 -3.38554e-05C42.1105 0.125894 42.1897 0.195997 42.3222 0.321925C42.3885 1.30136 42.1633 2.18286 41.7658 2.95242C41.5803 3.35819 41.3152 3.69385 41.0502 4.02966C40.7719 4.33748 40.4675 4.65929 40.123 4.89716C39.7917 5.163 39.4206 5.34497 39.0496 5.49889C38.6653 5.62481 38.2805 5.70881 37.883 5.7228C37.4987 5.75079 37.1146 5.72278 36.7436 5.69479C36.5581 5.6808 36.3727 5.65276 36.1872 5.63877C36.0016 5.61079 35.8292 5.59674 35.6437 5.58275C35.4714 5.58275 35.286 5.54087 35.1137 5.51289C34.9415 5.48491 34.769 5.45683 34.5968 5.41485C34.2522 5.34489 33.9342 5.24703 33.6029 5.14909C33.4439 5.09312 33.2851 5.03716 33.1261 4.98119C32.9406 4.91123 32.8477 4.86923 32.6622 4.78528C32.3574 4.64536 32.0663 4.50552 31.788 4.33761C31.2182 4.0158 30.6883 3.66597 30.1847 3.2602C29.9329 3.06432 29.694 2.85435 29.4555 2.64447C29.2303 2.4206 29.005 2.19673 28.793 1.94487C28.899 1.76297 28.9522 1.6791 29.0582 1.4972L29.0977 1.53922Z" fill="url(#paint11_linear_55_43643)"/>
<defs>
<linearGradient id="paint0_linear_55_43643" x1="37.6862" y1="1944.25" x2="0.0132529" y2="1944.25" gradientUnits="userSpaceOnUse">
<stop stop-color="#236B2F"/>
<stop offset="0.25" stop-color="#216E32"/>
<stop offset="0.51" stop-color="#1B7A3E"/>
<stop offset="0.76" stop-color="#118E51"/>
<stop offset="1" stop-color="#04A96A"/>
</linearGradient>
<linearGradient id="paint1_linear_55_43643" x1="36.9178" y1="60.1653" x2="4.98326" y2="60.1653" gradientUnits="userSpaceOnUse">
<stop stop-color="#236B2F"/>
<stop offset="0.25" stop-color="#216E32"/>
<stop offset="0.51" stop-color="#1B7A3E"/>
<stop offset="0.76" stop-color="#118E51"/>
<stop offset="1" stop-color="#04A96A"/>
</linearGradient>
<linearGradient id="paint2_linear_55_43643" x1="34.0685" y1="41.8075" x2="14.3242" y2="41.8075" gradientUnits="userSpaceOnUse">
<stop stop-color="#236B2F"/>
<stop offset="0.25" stop-color="#216E32"/>
<stop offset="0.51" stop-color="#1B7A3E"/>
<stop offset="0.76" stop-color="#118E51"/>
<stop offset="1" stop-color="#04A96A"/>
</linearGradient>
<linearGradient id="paint3_linear_55_43643" x1="30.7969" y1="29.5365" x2="15.7172" y2="29.5365" gradientUnits="userSpaceOnUse">
<stop stop-color="#236B2F"/>
<stop offset="0.25" stop-color="#216E32"/>
<stop offset="0.51" stop-color="#1B7A3E"/>
<stop offset="0.76" stop-color="#118E51"/>
<stop offset="1" stop-color="#04A96A"/>
</linearGradient>
<linearGradient id="paint4_linear_55_43643" x1="29.2327" y1="18.2596" x2="18.3404" y2="18.2596" gradientUnits="userSpaceOnUse">
<stop stop-color="#236B2F"/>
<stop offset="0.25" stop-color="#216E32"/>
<stop offset="0.51" stop-color="#1B7A3E"/>
<stop offset="0.76" stop-color="#118E51"/>
<stop offset="1" stop-color="#04A96A"/>
</linearGradient>
<linearGradient id="paint5_linear_55_43643" x1="25.0842" y1="9.41641" x2="16.3516" y2="9.41641" gradientUnits="userSpaceOnUse">
<stop stop-color="#236B2F"/>
<stop offset="0.25" stop-color="#216E32"/>
<stop offset="0.51" stop-color="#1B7A3E"/>
<stop offset="0.76" stop-color="#118E51"/>
<stop offset="1" stop-color="#04A96A"/>
</linearGradient>
<linearGradient id="paint6_linear_55_43643" x1="164.96" y1="57.0168" x2="63.5767" y2="57.0168" gradientUnits="userSpaceOnUse">
<stop stop-color="#236B2F"/>
<stop offset="0.25" stop-color="#216E32"/>
<stop offset="0.51" stop-color="#1B7A3E"/>
<stop offset="0.76" stop-color="#118E51"/>
<stop offset="1" stop-color="#04A96A"/>
</linearGradient>
<linearGradient id="paint7_linear_55_43643" x1="100.732" y1="29.8307" x2="52.2992" y2="29.8307" gradientUnits="userSpaceOnUse">
<stop stop-color="#236B2F"/>
<stop offset="0.25" stop-color="#216E32"/>
<stop offset="0.51" stop-color="#1B7A3E"/>
<stop offset="0.76" stop-color="#118E51"/>
<stop offset="1" stop-color="#04A96A"/>
</linearGradient>
<linearGradient id="paint8_linear_55_43643" x1="75.0271" y1="23.1562" x2="45.7162" y2="23.1562" gradientUnits="userSpaceOnUse">
<stop stop-color="#236B2F"/>
<stop offset="0.25" stop-color="#216E32"/>
<stop offset="0.51" stop-color="#1B7A3E"/>
<stop offset="0.76" stop-color="#118E51"/>
<stop offset="1" stop-color="#04A96A"/>
</linearGradient>
<linearGradient id="paint9_linear_55_43643" x1="61.6298" y1="15.4607" x2="39.8451" y2="15.4607" gradientUnits="userSpaceOnUse">
<stop stop-color="#236B2F"/>
<stop offset="0.25" stop-color="#216E32"/>
<stop offset="0.51" stop-color="#1B7A3E"/>
<stop offset="0.76" stop-color="#118E51"/>
<stop offset="1" stop-color="#04A96A"/>
</linearGradient>
<linearGradient id="paint10_linear_55_43643" x1="48.5771" y1="9.73806" x2="33.5367" y2="9.73806" gradientUnits="userSpaceOnUse">
<stop stop-color="#236B2F"/>
<stop offset="0.25" stop-color="#216E32"/>
<stop offset="0.51" stop-color="#1B7A3E"/>
<stop offset="0.76" stop-color="#118E51"/>
<stop offset="1" stop-color="#04A96A"/>
</linearGradient>
<linearGradient id="paint11_linear_55_43643" x1="42.3222" y1="2.89636" x2="28.8327" y2="2.89636" gradientUnits="userSpaceOnUse">
<stop stop-color="#236B2F"/>
<stop offset="0.25" stop-color="#216E32"/>
<stop offset="0.51" stop-color="#1B7A3E"/>
<stop offset="0.76" stop-color="#118E51"/>
<stop offset="1" stop-color="#04A96A"/>
</linearGradient>
</defs>
</svg>
