<svg width="165" height="164" viewBox="0 0 165 164" fill="none" xmlns="http://www.w3.org/2000/svg">
<path d="M66.9453 95.6489C88.5975 64.125 130.802 65.9439 142.397 67.1053C116.12 104.058 77.3871 98.0695 66.9453 95.6489Z" fill="#00A2F8"/>
<path d="M96.3432 100.056C120.983 95.8789 137.958 72.7621 134.258 48.4228C130.558 24.0836 107.583 7.73873 82.9431 11.9154C58.303 16.0921 41.3278 39.2088 45.0281 63.548C48.7285 87.8873 71.7031 104.232 96.3432 100.056Z" fill="#FF00A8"/>
<path d="M79.9729 98.9421C92.1773 96.8733 100.553 85.2134 98.6806 72.8988C96.8084 60.5842 85.3974 52.2782 73.193 54.3469C60.9886 56.4157 52.6125 68.0757 54.4847 80.3903C56.3569 92.7049 67.7684 101.011 79.9729 98.9421Z" fill="#FF00A8"/>
<path d="M67.2362 88.4993C68.6939 86.0087 70.0717 83.4902 71.2245 80.9576C72.4171 78.4251 73.477 75.8925 74.4046 73.3739C75.3189 70.8274 75.4781 68.2808 76.578 65.8322C77.5851 63.3417 78.5258 60.9071 80.0894 58.1787L80.6594 58.1228C81.4015 59.3541 81.9449 60.6692 82.0906 62.0124C82.3689 63.3697 82.2758 64.7269 82.1301 66.0982C81.7988 68.8546 80.1025 71.4851 78.6847 74.0457C77.2536 76.6342 75.6241 79.1386 73.7822 81.5872C71.9005 84.0078 69.9654 86.4005 67.6995 88.6672L67.2227 88.4853L67.2362 88.4993Z" fill="white"/>
<path d="M64.5333 62.572C64.0033 62.0263 63.4998 61.4665 62.9565 60.9348C62.4397 60.4031 61.9224 59.8714 61.4056 59.3677C60.8888 58.864 60.1999 58.5423 59.8553 57.8987C59.4843 57.269 59.2062 56.6254 58.9941 55.618L59.1268 55.4081C59.6171 55.3241 60.0809 55.408 60.4784 55.5339C60.9024 55.6599 61.2471 55.8698 61.5784 56.1077C62.2674 56.5694 62.5189 57.409 62.9164 58.0946C63.3139 58.7802 63.6456 59.4938 63.9503 60.2214C64.2286 60.963 64.5332 61.6905 64.7319 62.4601L64.5197 62.586L64.5333 62.572Z" fill="white"/>
<path d="M66.9715 58.6128C66.5077 57.9972 66.0575 57.3815 65.5804 56.7938C65.1166 56.2061 64.666 55.6185 64.2023 55.0448C63.7385 54.4711 63.0891 54.0655 62.8241 53.4078C62.5326 52.7502 62.3203 52.0645 62.2275 51.0291L62.3867 50.8332C62.8902 50.8192 63.3275 50.9313 63.7118 51.1272C64.1093 51.2951 64.4403 51.5469 64.7451 51.8267C65.3812 52.3584 65.5406 53.2398 65.8586 53.9674C66.1767 54.695 66.4279 55.4507 66.6532 56.2062C66.8519 56.9758 67.0645 57.7312 67.1837 58.5148L66.9586 58.6128H66.9715Z" fill="white"/>
<path d="M69.9925 56.6813C69.7407 55.9397 69.516 55.212 69.251 54.4844C68.9992 53.7709 68.7603 53.0574 68.4953 52.3578C68.2303 51.6582 67.7534 51.0565 67.7137 50.3289C67.6342 49.6013 67.6473 48.8737 67.8858 47.8803L68.098 47.7544C68.5751 47.9083 68.9592 48.1742 69.264 48.482C69.5952 48.7898 69.8203 49.1396 70.019 49.5034C70.4563 50.231 70.3371 51.1124 70.4034 51.91C70.4696 52.7075 70.4829 53.505 70.4564 54.3025C70.4034 55.1001 70.3774 55.8837 70.2448 56.6673H70.0061L69.9925 56.6813Z" fill="white"/>
<path d="M74.2463 55.7298C74.1005 54.9603 73.9945 54.1907 73.8354 53.4351C73.6897 52.6795 73.5568 51.938 73.411 51.2104C73.2652 50.4829 72.8679 49.7972 72.9341 49.0836C72.9739 48.356 73.093 47.6425 73.4641 46.6911L73.6892 46.593C74.1398 46.8309 74.4714 47.1527 74.7232 47.5165C75.0014 47.8663 75.1733 48.2582 75.3191 48.65C75.6371 49.4335 75.3857 50.287 75.3327 51.0846C75.2797 51.8821 75.1737 52.6796 75.0279 53.4491C74.8557 54.2327 74.7097 55.0023 74.4579 55.7578L74.2198 55.7298H74.2463Z" fill="white"/>
<path d="M80.1302 54.4989C79.9845 53.7294 79.8651 52.9738 79.6928 52.2182C79.5471 51.4627 79.4012 50.7211 79.2289 49.9936C79.0699 49.266 78.6725 48.5943 78.7255 47.8668C78.752 47.1392 78.8579 46.4256 79.2289 45.4602L79.4541 45.3623C79.9046 45.5862 80.2492 45.9078 80.501 46.2576C80.7792 46.6074 80.9647 46.9853 81.1105 47.3771C81.4417 48.1606 81.2033 49.0141 81.1635 49.8117C81.1238 50.6092 81.0307 51.4067 80.8982 52.1902C80.7392 52.9738 80.6068 53.7434 80.3683 54.4989H80.1302Z" fill="white"/>
<path d="M94.3613 72.2964C94.9974 71.8486 95.6602 71.5127 96.336 71.1489C97.0118 70.8131 97.7143 70.5053 98.4298 70.2534C99.1454 70.0016 99.8609 69.54 100.669 69.6659C101.067 69.7218 101.464 69.8058 101.862 70.0017C102.246 70.1696 102.63 70.4354 102.962 70.8412L102.935 71.0929C102.153 71.7086 101.53 72.0165 100.868 72.2263C100.218 72.4642 99.5025 72.2404 98.787 72.2684C98.0847 72.2964 97.3696 72.3383 96.6408 72.3802C95.912 72.4082 95.183 72.4782 94.4409 72.5341L94.3613 72.2964Z" fill="white"/>
<path d="M94.8789 68.7847C95.3957 68.197 95.9655 67.6933 96.5353 67.1616C97.1183 66.6579 97.7277 66.1822 98.3638 65.7624C98.9998 65.3426 99.5962 64.6989 100.404 64.629C100.802 64.573 101.2 64.559 101.637 64.643C102.048 64.7129 102.485 64.8668 102.896 65.1747L102.922 65.4266C102.313 66.2241 101.769 66.6718 101.186 67.0636C100.616 67.4693 99.8613 67.4274 99.1855 67.6373C98.5097 67.8471 97.8203 68.071 97.1312 68.2949C96.4289 68.5047 95.74 68.7706 95.0245 69.0085L94.8918 68.7987L94.8789 68.7847Z" fill="white"/>
<path d="M94.5586 65.2447C94.9164 64.5451 95.3539 63.9014 95.7912 63.2438C96.2417 62.6002 96.7189 61.9846 97.2489 61.4109C97.779 60.8373 98.2027 60.0677 98.9713 59.7878C99.3423 59.6339 99.7265 59.508 100.164 59.494C100.588 59.4521 101.039 59.4941 101.502 59.6899L101.595 59.9277C101.184 60.8652 100.774 61.4389 100.283 61.9566C99.8197 62.4883 99.0907 62.6423 98.4679 63.02C97.8584 63.3978 97.2486 63.7895 96.6258 64.1813C95.9898 64.5591 95.3803 64.9928 94.7443 65.3986L94.5722 65.2307L94.5586 65.2447Z" fill="white"/>
<path d="M93.4619 61.8863C93.6474 61.1167 93.9251 60.3892 94.2034 59.6336C94.4949 58.906 94.813 58.1784 95.1972 57.4928C95.5683 56.8072 95.8068 55.9538 96.4958 55.478C96.8271 55.2402 97.172 55.0162 97.5828 54.8903C97.9803 54.7364 98.4309 54.6665 98.9344 54.7364L99.08 54.9463C98.8945 55.9538 98.6297 56.6254 98.2719 57.255C97.9406 57.8987 97.2646 58.2344 96.7611 58.7521C96.2575 59.2698 95.7541 59.8155 95.2373 60.3612C94.7073 60.8929 94.2168 61.4665 93.7 62.0262L93.4878 61.9003L93.4619 61.8863Z" fill="white"/>
<path d="M91.6055 58.9061C91.6055 58.1085 91.712 57.325 91.8048 56.5275C91.924 55.7439 92.0696 54.9603 92.2816 54.1908C92.4936 53.4212 92.5203 52.5397 93.0768 51.9101C93.3418 51.5883 93.6197 51.2944 94.004 51.0566C94.3618 50.8187 94.7857 50.6229 95.276 50.5669L95.4617 50.7348C95.5147 51.7702 95.3952 52.4698 95.1965 53.1834C95.0242 53.883 94.4417 54.3866 94.0706 55.0162C93.6996 55.6459 93.3281 56.3035 92.9571 56.9611C92.5728 57.6188 92.2285 58.2905 91.8442 58.9761L91.6055 58.9061Z" fill="white"/>
<path d="M89.1419 56.4997C88.9697 55.7161 88.8905 54.9325 88.7977 54.149C88.7315 53.3514 88.6916 52.5679 88.7181 51.7564C88.7447 50.9589 88.5723 50.0914 88.9698 49.3358C89.1554 48.958 89.3671 48.5942 89.6719 48.2724C89.9634 47.9506 90.3213 47.6568 90.7983 47.4609L91.0106 47.5728C91.3021 48.5662 91.3551 49.2798 91.3153 50.0074C91.3153 50.735 90.8644 51.3646 90.6392 52.0782C90.4271 52.7918 90.2152 53.5194 90.0031 54.247C89.7779 54.9746 89.5927 55.7301 89.3807 56.4857H89.1419V56.4997Z" fill="white"/>
<path d="M86.1866 54.7787C85.8421 54.0651 85.5769 53.3234 85.3118 52.5818C85.0601 51.8263 84.8484 51.0707 84.6894 50.2871C84.5304 49.5036 84.1723 48.7061 84.3711 47.8806C84.4638 47.4748 84.5832 47.055 84.8084 46.6633C85.0072 46.2715 85.299 45.8937 85.7097 45.5999L85.9479 45.6559C86.4514 46.5374 86.6639 47.223 86.8097 47.9366C86.9687 48.6362 86.6767 49.3637 86.6369 50.1192C86.5839 50.8608 86.5576 51.6164 86.5179 52.3859C86.4649 53.1555 86.4651 53.9251 86.4254 54.7086L86.1866 54.7647V54.7787Z" fill="white"/>
<path d="M66.9453 95.6491C65.2094 95.2434 64.2686 94.9355 64.2686 94.9355C88.5577 54.4568 144.822 63.5236 144.822 63.5236C144.027 64.7549 143.218 65.9581 142.397 67.0915C130.802 65.9301 88.5843 64.1112 66.9453 95.6351V95.6491Z" fill="#FF9F00"/>
<path d="M65.5264 95.229C57.7746 88.1071 30.424 60.2492 36.5857 25.8569C44.4303 31.4117 72.1917 54.2886 65.5264 95.229Z" fill="#00A2F8"/>
<path d="M67.5409 96.9925C67.5409 96.9925 66.7985 96.3769 65.5397 95.2295C72.205 54.289 44.431 31.4122 36.5996 25.8574C36.7984 24.822 37.0104 23.7586 37.2622 22.7092C37.2622 22.7092 77.8632 47.0552 67.5539 96.9925H67.5409Z" fill="#FF9F00"/>
<path d="M47.0694 113.713C47.2682 113.657 47.5465 113.601 47.785 113.517C48.0368 113.419 48.275 113.335 48.5136 113.209L48.8584 113.041L49.2026 112.831C49.4279 112.691 49.6402 112.565 49.8522 112.398L50.4747 111.922L51.0712 111.39L51.363 111.138C51.4558 111.04 51.5485 110.942 51.6413 110.844L52.1977 110.271C52.3832 110.089 52.555 109.879 52.7406 109.669L53.2575 109.053L53.5228 108.76C53.6023 108.662 53.695 108.536 53.7745 108.438L54.2649 107.78L54.7547 107.151L55.2323 106.479L56.173 105.15C56.4778 104.674 56.7426 104.184 56.9812 103.667C57.2329 103.163 57.4582 102.645 57.6968 102.113C57.9353 101.596 58.2134 101.12 58.558 100.7C58.7302 100.49 58.9156 100.294 59.1144 100.113C59.3132 99.9166 59.5122 99.7349 59.7375 99.553C60.1748 99.2032 60.6519 98.8813 61.1687 98.6014C61.6855 98.3076 62.2417 98.0418 62.838 97.79C64.0306 97.2863 65.3693 96.8665 67.1582 96.7266L67.9398 97.3003C68.3903 99.1052 68.3774 100.63 68.2316 102.071C68.1654 102.799 68.0059 103.471 67.8072 104.114C67.6084 104.758 67.3834 105.388 67.1051 105.975C66.9726 106.269 66.8132 106.563 66.6542 106.829C66.4819 107.095 66.2832 107.346 66.0712 107.598C65.6604 108.088 65.1704 108.494 64.6536 108.886C64.15 109.277 63.5667 109.599 63.0101 109.949C62.4536 110.285 61.9239 110.649 61.4204 111.026L59.8171 112.104C59.552 112.286 59.2872 112.454 59.0089 112.621L58.1471 113.097C57.0208 113.727 55.802 114.244 54.5697 114.678L53.6289 114.958C53.4699 115 53.324 115.056 53.165 115.098L52.6746 115.196L51.7073 115.378C51.376 115.42 51.0315 115.448 50.7134 115.462C50.3954 115.49 50.0509 115.476 49.7196 115.462L49.2292 115.434L48.7258 115.364C48.3945 115.322 48.0636 115.224 47.7455 115.126C47.4143 115.014 47.1224 114.902 46.7646 114.692L47.083 113.741L47.0694 113.713Z" fill="#297F34"/>
<path d="M64.8662 98.8816C65.5288 97.7622 66.2308 96.6848 66.9464 95.6494C77.3882 98.07 116.134 104.059 142.398 67.1057C144.332 67.3016 145.419 67.4695 145.419 67.4695C114.968 114.93 64.8662 98.8816 64.8662 98.8816Z" fill="#297F34"/>
<path d="M66.9453 95.6489C88.5975 64.125 130.802 65.9439 142.397 67.1053C116.12 104.058 77.3871 98.0695 66.9453 95.6489Z" fill="#00A2F8"/>
<path d="M64.8647 98.7691C64.8647 98.7691 24.7271 65.944 34.5859 24.4998C34.5859 24.4998 35.3412 24.9474 36.6001 25.8429C30.4383 60.2352 57.7883 88.0931 65.5402 95.215C65.3414 96.3764 65.1164 97.5657 64.8647 98.7551V98.7691Z" fill="#297F34"/>
<path d="M65.5264 95.229C57.7746 88.1071 30.424 60.2492 36.5857 25.8569C44.4303 31.4117 72.1917 54.2886 65.5264 95.229Z" fill="#00A2F8"/>
<path d="M61.6058 39.1636C60.4795 38.0023 59.4191 36.813 58.2795 35.7217C57.1796 34.6023 56.0931 33.483 54.9932 32.4056C53.8934 31.3282 52.4491 30.6425 51.7335 29.3132C50.965 27.998 50.3553 26.6128 49.918 24.4861L50.2098 24.0382C51.2566 23.8703 52.2106 24.0103 53.0586 24.3042C53.9464 24.57 54.6882 25.0037 55.3905 25.5075C56.8481 26.4729 57.3786 28.2639 58.2135 29.705C59.0483 31.1602 59.7637 32.6573 60.3998 34.1964C60.9961 35.7635 61.6189 37.2886 62.0561 38.9117L61.6058 39.1776V39.1636Z" fill="white"/>
<path d="M66.7875 30.7967C65.7937 29.5094 64.8661 28.1942 63.8591 26.9629C62.8785 25.7036 61.9245 24.4723 60.9572 23.269C59.9766 22.0657 58.6118 21.2122 58.0553 19.799C57.4325 18.3998 56.982 16.9585 56.7832 14.7758L57.1145 14.3561C58.1613 14.3141 59.1155 14.5659 59.9239 14.9577C60.7719 15.3215 61.4741 15.8532 62.1102 16.4269C63.4485 17.5603 63.7931 19.4072 64.4556 20.9323C65.1182 22.4714 65.6747 24.0525 66.1385 25.6616C66.5626 27.2846 67.0132 28.8797 67.265 30.5448L66.7875 30.7547V30.7967Z" fill="white"/>
<path d="M73.1477 26.7247C72.6044 25.1576 72.1407 23.6046 71.5709 22.0934C71.0409 20.5683 70.5238 19.071 69.9805 17.6019C69.424 16.1327 68.4033 14.8456 68.3105 13.3204C68.1515 11.7813 68.1781 10.2561 68.6684 8.1433L69.1057 7.86353C70.1128 8.19933 70.9216 8.75899 71.5709 9.41661C72.26 10.0602 72.7502 10.8019 73.1742 11.5714C74.0885 13.1105 73.8366 14.9715 73.9824 16.6365C74.1281 18.3295 74.1544 20.0086 74.1014 21.6876C73.9954 23.3666 73.9294 25.0316 73.6511 26.6967L73.1341 26.7387L73.1477 26.7247Z" fill="white"/>
<path d="M82.1436 24.7239C81.8521 23.0869 81.6263 21.4777 81.2818 19.8826C80.9902 18.2875 80.6991 16.7204 80.3811 15.1813C80.0631 13.6282 79.2415 12.2011 79.3873 10.6759C79.4668 9.12283 79.7184 7.63971 80.5267 5.62486L81.0035 5.42896C81.9444 5.91867 82.6601 6.61829 83.2034 7.37386C83.7865 8.11543 84.1578 8.92691 84.4625 9.76643C85.1251 11.4315 84.5948 13.2365 84.502 14.9156C84.396 16.6086 84.1708 18.2736 83.866 19.9246C83.5082 21.5757 83.19 23.1987 82.6599 24.7938L82.1436 24.7518V24.7239Z" fill="white"/>
<path d="M94.5611 22.0933C94.2431 20.4703 93.9917 18.8611 93.6339 17.266C93.3159 15.6849 93.0112 14.1038 92.6666 12.5787C92.3221 11.0396 91.4872 9.61247 91.5932 8.08735C91.6462 6.53424 91.8845 5.03709 92.653 3.00825L93.1305 2.79834C94.0846 3.27407 94.813 3.95965 95.3563 4.70123C95.9526 5.4428 96.3369 6.24026 96.6549 7.06579C97.3439 8.71684 96.8408 10.5219 96.7746 12.2149C96.6951 13.9079 96.4958 15.5729 96.2175 17.224C95.8862 18.875 95.5952 20.5121 95.0917 22.1072L94.5747 22.0653L94.5611 22.0933Z" fill="white"/>
<path d="M124.64 59.7178C125.978 58.7803 127.396 58.0528 128.814 57.2832C130.245 56.5696 131.716 55.912 133.253 55.3943C134.763 54.8766 136.287 53.8832 137.983 54.163C138.818 54.275 139.653 54.4429 140.488 54.8626C141.309 55.2264 142.118 55.7861 142.807 56.6256L142.741 57.1713C141.098 58.4866 139.786 59.1162 138.381 59.5779C137.016 60.0956 135.506 59.62 133.995 59.6619C132.498 59.7179 130.987 59.8158 129.45 59.9137C127.899 59.9697 126.362 60.1375 124.799 60.2355L124.626 59.7178H124.64Z" fill="white"/>
<path d="M125.714 52.2878C126.8 51.0425 128.006 49.9792 129.199 48.8598C130.431 47.7964 131.703 46.7888 133.068 45.8933C134.42 44.9979 135.665 43.6547 137.375 43.4868C138.209 43.3748 139.071 43.3329 139.972 43.5288C140.846 43.6687 141.774 44.0046 142.635 44.6482L142.701 45.1937C141.403 46.8868 140.277 47.8384 139.031 48.6499C137.825 49.5034 136.248 49.4194 134.804 49.8532C133.373 50.2869 131.915 50.7766 130.458 51.2524C128.974 51.7001 127.516 52.2457 126.019 52.7494L125.74 52.2878H125.714Z" fill="white"/>
<path d="M125.063 44.8024C125.832 43.3192 126.76 41.976 127.661 40.5908C128.615 39.2475 129.622 37.9463 130.735 36.729C131.848 35.5117 132.749 33.8885 134.366 33.3008C135.148 32.979 135.969 32.7272 136.897 32.6713C137.785 32.5873 138.752 32.6713 139.733 33.0771L139.918 33.5808C139.043 35.5536 138.169 36.7569 137.136 37.8622C136.155 38.9956 134.605 39.3175 133.306 40.1151C132.021 40.8986 130.722 41.738 129.41 42.5775C128.072 43.389 126.786 44.2987 125.448 45.1662L125.077 44.8024H125.063Z" fill="white"/>
<path d="M122.72 37.708C123.117 36.071 123.714 34.5318 124.284 32.9507C124.893 31.3976 125.582 29.8865 126.377 28.4173C127.172 26.9622 127.676 25.1573 129.107 24.1639C129.796 23.6462 130.538 23.1984 131.412 22.9186C132.247 22.6108 133.215 22.4429 134.261 22.5968L134.553 23.0445C134.156 25.1852 133.586 26.5844 132.844 27.9137C132.155 29.2569 130.723 29.9705 129.65 31.0759C128.577 32.1672 127.517 33.3146 126.43 34.462C125.317 35.5953 124.284 36.7987 123.171 37.988L122.72 37.722V37.708Z" fill="white"/>
<path d="M118.823 31.4262C118.837 29.7332 119.062 28.0962 119.248 26.4172C119.486 24.7521 119.804 23.101 120.242 21.478C120.679 19.8549 120.759 17.98 121.925 16.6508C122.481 15.9792 123.09 15.3495 123.872 14.8458C124.614 14.3281 125.516 13.9363 126.563 13.7964L126.946 14.1462C127.052 16.3289 126.814 17.826 126.403 19.3091C126.046 20.7923 124.826 21.8557 124.018 23.1989C123.223 24.5422 122.454 25.9135 121.672 27.3127C120.851 28.6979 120.122 30.1389 119.314 31.5661L118.811 31.4262H118.823Z" fill="white"/>
<path d="M113.59 26.3191C113.219 24.6681 113.046 23.0171 112.848 21.3521C112.702 19.687 112.622 17.994 112.688 16.301C112.741 14.622 112.384 12.775 113.205 11.1799C113.59 10.3823 114.026 9.6128 114.689 8.92719C115.285 8.24159 116.067 7.62598 117.061 7.22021L117.525 7.47197C118.134 9.55678 118.241 11.068 118.174 12.6211C118.174 14.1462 117.22 15.4895 116.756 17.0006C116.292 18.4977 115.869 20.0367 115.418 21.5898C114.928 23.1429 114.557 24.724 114.106 26.3191H113.59Z" fill="white"/>
<path d="M107.35 22.7093C106.608 21.2121 106.077 19.6451 105.494 18.078C104.964 16.4969 104.514 14.8877 104.182 13.2227C103.851 11.5716 103.083 9.87856 103.52 8.12956C103.705 7.26206 103.97 6.39462 104.447 5.56909C104.871 4.74357 105.494 3.94604 106.356 3.31641L106.859 3.44229C107.919 5.31721 108.383 6.74449 108.675 8.26962C109.019 9.75277 108.409 11.3058 108.303 12.8869C108.197 14.454 108.131 16.0631 108.065 17.6862C107.945 19.3093 107.946 20.9463 107.88 22.6114L107.376 22.7373L107.35 22.7093Z" fill="white"/>
<path d="M37.2886 110.005C36.6658 107.612 35.9103 105.22 35.1153 102.869C34.3202 100.504 33.4852 98.1677 32.5576 95.859C30.729 91.2277 28.6489 86.6942 26.2769 82.3567C25.9192 81.7131 25.7334 81.3772 25.3756 80.7336C25.0046 80.09 24.8195 79.7681 24.4484 79.1385C23.8124 78.0751 23.1896 77.0257 22.5138 75.9903C21.1887 73.9195 19.7842 71.9188 18.2603 70.0159C17.8628 69.5541 17.4913 69.0784 17.0937 68.6167C16.6034 68.071 16.365 67.805 15.8747 67.2593C15.3712 66.6996 15.1062 66.4058 14.6027 65.8461C14.4967 65.7342 14.391 65.6083 14.285 65.4963C14.1657 65.3424 14.0989 65.2724 13.9796 65.1325C13.7411 64.8387 13.6219 64.6989 13.3701 64.4051C13.1316 64.1112 13.0124 63.9713 12.7606 63.6775C12.5353 63.3696 12.4165 63.2297 12.1912 62.9218C11.966 62.614 11.8465 62.474 11.6212 62.1662C11.5019 62.0123 11.4486 61.9425 11.3294 61.7886L11.0648 61.3968C10.6275 60.7671 10.4157 60.4593 9.9784 59.8297C9.56762 59.186 9.36852 58.8642 8.97099 58.2206C8.86498 58.0667 8.81205 57.9826 8.71929 57.8147C8.62654 57.6468 8.5733 57.563 8.48054 57.4091C8.28178 57.0873 8.18951 56.9193 7.99075 56.5975C7.81848 56.3316 7.65898 56.0518 7.48671 55.786C7.3277 55.5061 7.16918 55.2263 6.99692 54.9605C6.8379 54.6807 6.66515 54.4147 6.49289 54.1348C6.41338 53.9949 6.32101 53.8551 6.22825 53.7292C6.1355 53.5613 6.08226 53.4773 5.9895 53.3094C5.67148 52.7497 5.34054 52.1901 5.00926 51.6164C4.70449 51.0427 4.41273 50.4551 4.10795 49.8674C4.0152 49.6855 3.97555 49.6015 3.88279 49.4196C3.80328 49.2377 3.76366 49.1538 3.68415 48.9719C3.55164 48.6641 3.41908 48.3702 3.29982 48.0624C3.16731 47.7546 3.04769 47.4467 2.92843 47.1389C2.79592 46.7611 2.74325 46.5793 2.61074 46.2015C2.47823 45.8237 2.41167 45.6278 2.29241 45.25C2.22615 45.0541 2.19949 44.9702 2.13324 44.7743C2.08023 44.5784 2.05391 44.4805 1.98766 44.2986C1.74914 43.5291 1.64321 43.1373 1.40469 42.3537C1.20592 41.5562 1.11301 41.1643 0.914245 40.3668C0.861241 40.1709 0.834946 40.073 0.795192 39.8631C0.755439 39.6672 0.742421 39.5553 0.702668 39.3594C0.623162 38.9537 0.583227 38.7438 0.516972 38.338C0.450717 38.0022 0.38428 37.6525 0.331276 37.3166C0.291523 36.9668 0.238726 36.6309 0.212224 36.2811C0.172471 35.9313 0.132614 35.5815 0.106112 35.2457C0.0928609 35.0358 0.0795581 34.9379 0.053056 34.728C0.053056 34.5601 0.039779 34.3782 0.026528 34.1963C0.026528 33.7765 0.0132511 33.5667 0 33.1469C0 32.7271 0 32.5172 0 32.0835C0.0265021 31.3979 0.0660482 30.7403 0.119052 30.0687C0.145555 29.7329 0.172134 29.3972 0.198636 29.0613C0.211887 28.8655 0.22519 28.7535 0.251692 28.5577C0.278194 28.3618 0.291834 28.2637 0.318336 28.0538C0.411093 27.3962 0.503488 26.7247 0.609497 26.067C0.662501 25.7312 0.702409 25.4095 0.768664 25.0737C0.848171 24.6819 0.887794 24.4859 0.967301 24.0941C1.04681 23.7024 1.08677 23.5065 1.17952 23.1148C1.27228 22.723 1.31193 22.527 1.40469 22.1352C1.5637 21.4916 1.74909 20.848 1.9346 20.2043C2.30563 18.9171 2.76942 17.6578 3.25971 16.4126C3.32596 16.2586 3.37915 16.1048 3.4454 15.9509C3.52491 15.769 3.56453 15.6709 3.64404 15.489C3.77655 15.1812 3.90914 14.8735 4.0549 14.5657C4.33317 13.95 4.59837 13.3483 4.90315 12.7467C5.26093 12.0331 5.44636 11.6693 5.81739 10.9697C6.12217 10.382 6.45342 9.79433 6.78469 9.22066C7.11597 8.64699 7.4738 8.07336 7.83158 7.51368C8.01709 7.23384 8.2025 6.95404 8.38802 6.6742C8.57353 6.39436 8.78547 6.1284 8.97099 5.86255C9.76605 4.78517 10.6144 3.73582 11.5552 2.75638C12.496 1.77694 13.4896 0.825526 14.6557 0C14.8015 0.0699598 14.8678 0.111943 15.0135 0.181902C15.1063 1.5811 15.0795 2.91034 15.053 4.2116C15.0133 5.51285 14.9342 6.78611 14.8414 8.04538C14.7884 8.67502 14.7353 9.29061 14.6823 9.90625C14.616 10.5219 14.5499 11.1376 14.4836 11.7393C14.4174 12.3549 14.3244 12.9565 14.2449 13.5581C14.1521 14.2857 14.1125 14.6356 14.0197 15.3632C13.7282 17.7698 13.4231 20.1343 13.0388 22.457C12.9726 22.8068 12.9463 22.9749 12.8932 23.3247C12.8402 23.6185 12.7738 23.8983 12.7341 24.1922C12.6678 24.542 12.6415 24.7099 12.5885 25.0597C12.5222 25.4095 12.4956 25.5774 12.4293 25.9272C12.3631 26.277 12.3235 26.4448 12.2572 26.7807C12.191 27.1304 12.1643 27.2983 12.0981 27.6341C11.992 28.2078 11.886 28.7815 11.7668 29.3551C11.727 29.523 11.714 29.6071 11.6743 29.789C11.6478 29.9569 11.6348 30.0407 11.6083 30.2226C11.5685 30.5025 11.5021 30.7963 11.4491 31.0761C11.3431 31.6498 11.2105 32.2234 11.0913 32.7831C11.025 33.1049 10.9984 33.2729 10.9321 33.5947C10.8659 33.9165 10.8263 34.0844 10.76 34.4062C10.7335 34.5461 10.6933 34.6721 10.6668 34.812C10.6403 34.9799 10.6277 35.0499 10.5879 35.2178C10.5349 35.4837 10.4817 35.7635 10.4287 36.0433C10.3757 36.3232 10.3096 36.589 10.2566 36.8688C10.2169 37.1486 10.1637 37.4285 10.124 37.7083C10.071 38.0441 10.0314 38.212 9.9784 38.5478C9.9519 38.7157 9.93826 38.7997 9.91176 38.9676C9.88526 39.1355 9.88521 39.2195 9.8587 39.3874C9.7792 40.073 9.73957 40.4088 9.66007 41.0944C9.62031 41.78 9.6073 42.1298 9.56754 42.8154C9.56754 42.9833 9.56721 43.0813 9.55396 43.2492C9.55396 43.4171 9.55396 43.501 9.55396 43.6829C9.55396 44.0327 9.55398 44.2006 9.58048 44.5504C9.58048 44.9002 9.59376 45.0681 9.60701 45.4179C9.63351 45.7117 9.65976 45.9915 9.67301 46.2854C9.69951 46.5792 9.71281 46.873 9.72606 47.1669C9.72606 47.3488 9.73934 47.4328 9.75259 47.6147C9.76584 47.7826 9.77915 47.8805 9.80565 48.0484C9.8719 48.762 9.91215 49.1118 9.9784 49.8114C10.0712 50.399 10.1506 50.9867 10.2566 51.5744C10.2831 51.7563 10.2958 51.8402 10.3356 52.022C10.3621 52.162 10.4022 52.316 10.4287 52.4559C10.495 52.7497 10.5615 53.0295 10.641 53.3234C10.7205 53.6172 10.7863 53.897 10.8791 54.1909C10.9718 54.4707 11.0781 54.7505 11.1709 55.0304C11.3829 55.59 11.5684 56.1498 11.8334 56.6815C12.1382 57.3251 12.2973 57.647 12.6021 58.2906C12.9466 58.9202 13.1184 59.2281 13.4762 59.8577C13.569 60.0116 13.6086 60.0954 13.7014 60.2493C13.7941 60.4032 13.8474 60.4732 13.9401 60.6271C14.1389 60.935 14.2315 61.0749 14.417 61.3828C14.6158 61.6906 14.7087 61.8306 14.9074 62.1384C15.1194 62.4322 15.2253 62.572 15.4373 62.8658C15.6494 63.1597 15.7552 63.2996 15.9673 63.5934C16.0733 63.7334 16.1265 63.8173 16.2325 63.9572C16.3253 64.0692 16.4183 64.1951 16.5243 64.307C16.9881 64.8667 17.2129 65.1466 17.6767 65.7062C18.0742 66.182 18.4985 66.6717 18.9093 67.1475C19.3201 67.6372 19.7042 68.1408 20.1017 68.6305C23.229 72.6322 25.8792 76.9698 28.1054 81.5172C30.3051 86.0646 32.1603 90.7519 33.7637 95.5092C35.367 100.266 36.7189 105.08 37.6995 109.977C37.5405 110.005 37.4606 110.019 37.3016 110.047L37.2886 110.005Z" fill="url(#paint0_linear_55_43475)"/>
<path d="M36.5334 124.333C35.9371 122.234 35.076 120.205 34.122 118.218C33.1546 116.245 32.0811 114.314 30.9017 112.467C29.7224 110.62 28.3578 108.871 26.8604 107.248C25.363 105.625 23.7992 104.114 22.2885 102.631C21.5332 101.889 20.6989 101.218 19.8376 100.602C18.9763 99.9866 18.062 99.4408 17.1874 98.8951C16.3128 98.3634 15.4513 97.8458 14.6828 97.2721C13.901 96.7125 13.1985 96.1107 12.5359 95.4671C11.2241 94.1519 10.045 92.7527 8.85244 91.1016C8.25614 90.2901 7.65935 89.3945 7.0233 88.4151C6.86429 88.1633 6.70546 87.9255 6.54645 87.6597C6.45369 87.5057 6.4011 87.4217 6.30834 87.2538C6.22884 87.1139 6.13551 87.0019 6.056 86.848C5.94999 86.6801 5.89707 86.5963 5.80431 86.4284C5.7248 86.2744 5.63244 86.1344 5.53968 85.9945C5.36741 85.7007 5.18203 85.393 5.00977 85.0432C5.04952 84.8893 5.07581 84.8053 5.12882 84.6513C5.81787 84.2456 6.50667 83.9657 7.18247 83.7558C7.87153 83.532 8.56066 83.3921 9.24971 83.2942C10.6278 83.1123 11.9795 83.1682 13.2781 83.378C14.5899 83.5879 15.8353 83.9798 17.0146 84.4975C18.194 85.0152 19.3074 85.6588 20.3145 86.4144C21.3215 87.1699 22.2359 88.0374 23.0177 89.0028C23.7995 89.9683 24.4621 91.0317 25.0319 92.137C25.6017 93.2424 26.1048 94.3617 26.5951 95.4671C27.0854 96.5725 27.5759 97.6638 28.0794 98.7132C28.5829 99.7626 29.0335 100.84 29.4576 101.931C29.8683 103.023 30.2392 104.114 30.597 105.205C31.021 106.507 31.2334 107.15 31.6574 108.452C32.0152 109.529 32.3728 110.593 32.7438 111.642C34.2279 115.853 35.5397 120.051 36.9443 124.221C36.7853 124.263 36.7057 124.277 36.5599 124.319L36.5334 124.333Z" fill="url(#paint1_linear_55_43475)"/>
<path d="M33.6709 134.057C33.5516 132.756 33.1939 131.441 32.7566 130.195C32.3061 128.95 31.7227 127.747 31.0601 126.614C30.3976 125.48 29.5627 124.445 28.6616 123.507C27.7606 122.57 26.8465 121.702 25.9454 120.849C25.8129 120.723 25.7463 120.653 25.6006 120.527C25.4548 120.401 25.3885 120.345 25.2427 120.219C25.0042 120.023 24.7796 119.814 24.5278 119.632C24.2363 119.408 24.0901 119.296 23.7986 119.072C23.6793 118.974 23.5604 118.89 23.4278 118.792C23.2821 118.68 23.2022 118.624 23.0565 118.526C22.8179 118.344 22.5797 118.148 22.3279 117.966C22.0894 117.785 21.8505 117.589 21.6252 117.393C21.3867 117.211 21.1485 117.015 20.9232 116.805C20.804 116.707 20.6983 116.609 20.579 116.497C20.4597 116.399 20.3405 116.301 20.2212 116.203C19.9827 116.008 19.757 115.798 19.5185 115.588C19.28 115.378 19.0414 115.182 18.8029 114.972C18.5644 114.762 18.3258 114.538 18.0873 114.329C17.8355 114.119 17.5969 113.895 17.3452 113.671C17.2259 113.559 17.1069 113.433 16.9744 113.335C16.8552 113.223 16.7229 113.111 16.6037 112.999C16.3519 112.776 16.0997 112.538 15.848 112.286C15.3444 111.81 14.8278 111.32 14.3242 110.733C14.3772 110.579 14.4039 110.509 14.4569 110.355C14.8411 110.285 15.212 110.243 15.5963 110.229C15.9673 110.201 16.3517 110.187 16.7227 110.201C17.0938 110.215 17.4646 110.243 17.8356 110.285C18.2066 110.313 18.5778 110.369 18.9356 110.439C19.6644 110.579 20.3801 110.747 21.0824 110.999C21.4402 111.11 21.7847 111.236 22.1293 111.376C22.4738 111.53 22.8051 111.684 23.1496 111.838C23.3219 111.922 23.4807 112.006 23.653 112.09C23.812 112.174 23.9712 112.272 24.1435 112.37C24.4615 112.566 24.7791 112.762 25.0972 112.971C25.6935 113.419 26.2902 113.867 26.8202 114.413C27.8935 115.462 28.8074 116.665 29.6555 117.883C30.0927 118.484 30.4639 119.128 30.8084 119.786C30.9675 120.121 31.1263 120.457 31.2853 120.793C31.4311 121.129 31.5637 121.478 31.6962 121.814C32.1997 123.185 32.5972 124.571 32.9682 125.928C33.697 128.656 34.095 131.371 34.1083 134.099C33.9493 134.099 33.8697 134.099 33.6974 134.099L33.6709 134.057Z" fill="url(#paint2_linear_55_43475)"/>
<path d="M30.24 143.362C29.6437 141.459 28.8094 139.654 27.8156 138.003C27.5638 137.597 27.3116 137.192 27.0333 136.8C26.7551 136.408 26.4902 136.03 26.1987 135.666C26.1192 135.554 26.066 135.499 25.9864 135.387C25.8937 135.275 25.854 135.233 25.7613 135.121C25.6155 134.939 25.47 134.771 25.311 134.603C25.1519 134.435 25.006 134.253 24.847 134.099C24.6483 133.903 24.5557 133.805 24.3702 133.61C23.7209 132.98 22.9392 132.49 22.1839 132.028C21.7996 131.805 21.4417 131.567 21.0839 131.329C20.7394 131.063 20.3949 130.825 20.0636 130.517C19.8913 130.377 19.7192 130.237 19.5602 130.084C19.4807 130.014 19.3874 129.93 19.3079 129.86C19.2019 129.776 19.1492 129.734 19.0432 129.636C18.871 129.482 18.6985 129.328 18.5263 129.16C18.354 129.006 18.1686 128.852 17.9963 128.684C17.6518 128.335 17.2674 128.013 16.8964 127.635C16.5254 127.257 16.128 126.879 15.7305 126.39C15.7835 126.194 15.8098 126.096 15.8495 125.914C17.0156 125.48 18.1816 125.368 19.3344 125.466C19.6259 125.494 19.918 125.522 20.1962 125.564C20.4745 125.62 20.7656 125.676 21.0438 125.76C21.1896 125.788 21.3225 125.83 21.4683 125.872C21.6008 125.914 21.7466 125.97 21.8791 126.012C22.1574 126.11 22.4222 126.208 22.6873 126.334C23.7474 126.81 24.7012 127.523 25.4565 128.405C26.2118 129.286 26.8483 130.252 27.4843 131.175C28.1071 132.112 28.6503 133.078 29.0876 134.085C29.3129 134.589 29.498 135.093 29.6835 135.597C29.8558 136.114 30.0149 136.618 30.1475 137.136C30.4125 138.171 30.5979 139.206 30.7039 140.242C30.8099 141.277 30.8368 142.313 30.744 143.348C30.5452 143.348 30.4387 143.348 30.24 143.376V143.362Z" fill="url(#paint3_linear_55_43475)"/>
<path d="M28.6627 152.106C28.0532 150.833 27.3511 149.602 26.5825 148.511C26.3838 148.231 26.198 147.965 25.986 147.713C25.7872 147.461 25.5756 147.195 25.3635 146.957C25.2575 146.832 25.1512 146.72 25.0452 146.608C24.9392 146.496 24.8335 146.37 24.7275 146.272C24.6215 146.16 24.5155 146.048 24.3962 145.95C24.2637 145.824 24.1975 145.768 24.065 145.642C23.6144 145.25 23.0577 144.984 22.5542 144.761C22.4216 144.705 22.3024 144.649 22.1964 144.579C22.0771 144.523 21.9711 144.467 21.8651 144.383C21.7591 144.313 21.6531 144.243 21.5603 144.159C21.5073 144.117 21.4678 144.075 21.4147 144.033C21.3617 143.991 21.3215 143.949 21.2685 143.907C21.2155 143.851 21.1892 143.823 21.1229 143.767C21.0699 143.711 21.0304 143.669 20.9774 143.627C20.8714 143.529 20.7786 143.445 20.6726 143.333C20.5666 143.235 20.4603 143.138 20.3543 143.026C20.2483 142.914 20.1426 142.788 20.0101 142.69C19.8908 142.578 19.7712 142.452 19.6387 142.312C19.5062 142.186 19.3739 142.06 19.2414 141.92C18.9631 141.626 18.6584 141.361 18.3271 140.969C18.3271 140.773 18.3271 140.675 18.3271 140.479C18.4199 140.395 18.5126 140.325 18.6054 140.241C18.6981 140.171 18.8044 140.101 18.8972 140.031C19.0032 139.961 19.0959 139.905 19.2019 139.849C19.3079 139.793 19.4136 139.751 19.5196 139.696C19.7316 139.612 19.944 139.528 20.1692 139.458C20.2752 139.43 20.3945 139.402 20.5005 139.374C20.6065 139.346 20.7258 139.332 20.8318 139.318C21.7328 139.178 22.687 139.276 23.5616 139.57C24.4361 139.863 25.2308 140.395 25.7873 141.095C26.3571 141.794 26.7813 142.55 27.2186 143.25C27.6426 143.963 27.9869 144.691 28.2784 145.418C28.4109 145.782 28.5302 146.16 28.6362 146.524C28.7422 146.901 28.822 147.265 28.9015 147.643C29.0472 148.385 29.1532 149.126 29.1797 149.868C29.2062 150.231 29.2062 150.609 29.2062 150.973C29.2062 151.337 29.18 151.701 29.1402 152.078C28.9414 152.106 28.8349 152.106 28.6362 152.134L28.6627 152.106Z" fill="url(#paint4_linear_55_43475)"/>
<path d="M24.1437 160.628C23.7196 159.438 23.2159 158.305 22.6329 157.284C22.3413 156.766 22.0363 156.276 21.705 155.829C21.546 155.605 21.3872 155.381 21.2017 155.171C21.1221 155.059 21.0295 154.961 20.95 154.863C20.8572 154.765 20.7774 154.667 20.6847 154.569C20.3402 154.191 19.8632 153.926 19.4392 153.702C19.0151 153.478 18.6971 153.212 18.4188 152.848C18.2863 152.652 18.1408 152.484 17.995 152.247C17.836 152.051 17.7034 151.799 17.5311 151.561C17.1998 151.029 16.8153 150.484 16.3516 149.672C16.3913 149.476 16.405 149.378 16.4447 149.196C17.2133 148.651 18.035 148.399 18.8698 148.371C19.2938 148.343 19.7045 148.399 20.1153 148.469C20.5128 148.567 20.9231 148.679 21.2942 148.861C21.6785 149.028 22.0233 149.266 22.3281 149.532C22.6329 149.812 22.8977 150.12 23.1097 150.47C23.335 150.805 23.4939 151.169 23.6662 151.533C23.7457 151.715 23.8254 151.883 23.9049 152.065C23.9712 152.247 24.0506 152.414 24.1301 152.582C24.2096 152.75 24.2761 152.932 24.3423 153.1C24.4086 153.268 24.475 153.436 24.528 153.618C24.6473 153.968 24.7264 154.303 24.8192 154.653C24.8589 154.821 24.8855 155.003 24.9253 155.171C24.9518 155.381 24.9784 155.479 25.0049 155.689C25.0446 156.038 25.0709 156.374 25.0974 156.71C25.1239 157.382 25.1109 158.053 25.0314 158.711C24.9916 159.033 24.9521 159.369 24.8858 159.69C24.8196 160.012 24.7528 160.32 24.66 160.656C24.4612 160.656 24.3554 160.656 24.1566 160.642L24.1437 160.628Z" fill="url(#paint5_linear_55_43475)"/>
<path d="M63.722 124.711C66.0012 124.067 68.3201 123.535 70.6523 123.06C72.9845 122.584 75.317 122.164 77.6757 121.814C82.3798 121.129 87.1234 120.709 91.8805 120.667C92.596 120.667 92.9543 120.667 93.6566 120.667C94.3721 120.667 94.7297 120.681 95.432 120.695C96.6113 120.737 97.8042 120.765 98.9835 120.849C101.342 121.003 103.701 121.269 106.02 121.688C106.603 121.814 107.185 121.912 107.755 122.038C108.444 122.206 108.789 122.29 109.478 122.458C110.194 122.64 110.565 122.724 111.28 122.906C111.426 122.948 111.585 122.976 111.731 123.018C111.916 123.046 111.996 123.074 112.182 123.102C112.539 123.172 112.724 123.214 113.082 123.284C113.44 123.353 113.626 123.395 113.983 123.465C114.341 123.521 114.527 123.549 114.885 123.605C115.243 123.661 115.428 123.689 115.799 123.745C115.985 123.773 116.077 123.787 116.249 123.815C116.435 123.829 116.527 123.843 116.7 123.857C117.428 123.927 117.8 123.969 118.529 124.053C119.258 124.095 119.628 124.109 120.357 124.151C120.543 124.151 120.636 124.165 120.821 124.179C121.007 124.179 121.099 124.179 121.272 124.179C121.643 124.179 121.815 124.193 122.186 124.207C122.491 124.221 122.795 124.235 123.1 124.263C123.405 124.263 123.71 124.263 124.028 124.291C124.333 124.291 124.65 124.319 124.955 124.333C125.114 124.333 125.26 124.347 125.419 124.361C125.604 124.361 125.697 124.361 125.883 124.361C126.506 124.361 127.128 124.375 127.764 124.389C128.387 124.361 129.023 124.347 129.646 124.319C129.831 124.319 129.925 124.305 130.123 124.291C130.309 124.277 130.401 124.263 130.587 124.235C130.905 124.207 131.21 124.165 131.528 124.123C131.846 124.081 132.151 124.039 132.469 123.997C132.84 123.927 133.025 123.885 133.396 123.815C133.767 123.745 133.953 123.703 134.337 123.633C134.522 123.591 134.616 123.577 134.814 123.535C135 123.493 135.092 123.465 135.278 123.423C136.033 123.241 136.405 123.144 137.16 122.962C137.902 122.738 138.286 122.626 139.028 122.402C139.213 122.346 139.307 122.318 139.505 122.262C139.691 122.192 139.783 122.164 139.969 122.094C140.34 121.954 140.525 121.884 140.896 121.744C141.201 121.632 141.519 121.521 141.824 121.395C142.129 121.255 142.433 121.129 142.725 120.975C143.03 120.835 143.335 120.695 143.626 120.541C143.812 120.457 143.891 120.401 144.077 120.317C144.222 120.233 144.368 120.149 144.514 120.065C144.858 119.855 145.031 119.757 145.389 119.548C145.733 119.338 145.905 119.226 146.25 119.016C146.793 118.652 147.31 118.274 147.827 117.883C148.092 117.687 148.343 117.491 148.608 117.295C148.767 117.169 148.834 117.113 148.993 117.001C149.138 116.875 149.218 116.819 149.364 116.693C149.854 116.274 150.344 115.84 150.835 115.42C151.073 115.21 151.325 115 151.563 114.762C151.842 114.497 151.988 114.357 152.266 114.077C152.544 113.797 152.69 113.657 152.968 113.391C153.246 113.111 153.379 112.971 153.657 112.692C154.108 112.216 154.532 111.712 154.969 111.222C155.831 110.229 156.626 109.166 157.394 108.088C157.487 107.948 157.593 107.822 157.685 107.682C157.791 107.515 157.844 107.431 157.964 107.263C158.149 106.983 158.322 106.703 158.507 106.423C158.865 105.863 159.223 105.304 159.554 104.73C159.952 104.031 160.15 103.695 160.548 102.995C160.879 102.421 161.184 101.82 161.489 101.232C161.793 100.644 162.072 100.029 162.337 99.4131C162.469 99.1053 162.602 98.7976 162.734 98.4898C162.867 98.182 162.986 97.8601 163.105 97.5382C163.582 96.265 164.006 94.9638 164.337 93.6066C164.669 92.2494 164.934 90.8641 165 89.381C164.868 89.283 164.801 89.241 164.669 89.1431C163.476 89.7727 162.416 90.4724 161.356 91.158C160.309 91.8576 159.316 92.5711 158.335 93.2986C157.858 93.6624 157.367 94.0263 156.89 94.4041C156.413 94.7679 155.963 95.1457 155.486 95.5235C155.022 95.9013 154.571 96.279 154.121 96.6567C153.578 97.1045 153.3 97.3284 152.756 97.7762C150.941 99.2593 149.165 100.742 147.469 102.268C147.217 102.505 147.085 102.617 146.833 102.841C146.621 103.037 146.422 103.233 146.21 103.429C145.958 103.653 145.839 103.779 145.587 104.003C145.336 104.24 145.216 104.352 144.964 104.59C144.726 104.828 144.593 104.954 144.355 105.192C144.103 105.43 143.984 105.542 143.732 105.766C143.322 106.143 142.911 106.549 142.5 106.941C142.38 107.067 142.314 107.123 142.195 107.235C142.076 107.347 142.009 107.403 141.877 107.515C141.665 107.696 141.466 107.892 141.254 108.088C140.843 108.466 140.446 108.886 140.048 109.278C139.823 109.501 139.704 109.613 139.465 109.823C139.24 110.047 139.12 110.173 138.895 110.397C138.802 110.495 138.71 110.593 138.617 110.691C138.498 110.803 138.445 110.859 138.326 110.971C138.127 111.152 137.928 111.348 137.743 111.53C137.544 111.712 137.359 111.922 137.16 112.104C136.961 112.286 136.748 112.468 136.55 112.65C136.311 112.874 136.179 112.985 135.94 113.209C135.821 113.321 135.755 113.377 135.635 113.489C135.503 113.587 135.45 113.643 135.318 113.755C134.801 114.175 134.536 114.385 134.019 114.804C133.476 115.182 133.197 115.378 132.654 115.77C132.521 115.868 132.442 115.91 132.31 116.008C132.164 116.092 132.098 116.134 131.952 116.217C131.66 116.385 131.528 116.469 131.236 116.637C130.945 116.805 130.799 116.889 130.508 117.057C130.256 117.183 130.017 117.309 129.766 117.435C129.514 117.561 129.275 117.701 129.024 117.827C128.878 117.911 128.798 117.953 128.652 118.023C128.506 118.092 128.427 118.134 128.268 118.204C127.658 118.498 127.354 118.652 126.731 118.946C126.214 119.156 125.684 119.38 125.154 119.59C124.995 119.66 124.915 119.688 124.756 119.743C124.624 119.785 124.491 119.828 124.346 119.87C124.081 119.953 123.803 120.037 123.524 120.121C123.246 120.205 122.981 120.275 122.703 120.345C122.424 120.401 122.146 120.457 121.868 120.499C121.312 120.583 120.742 120.709 120.185 120.737C119.496 120.779 119.165 120.807 118.476 120.849C117.787 120.849 117.442 120.849 116.753 120.849C116.58 120.849 116.488 120.849 116.316 120.849C116.144 120.849 116.051 120.835 115.879 120.821C115.534 120.793 115.361 120.793 115.017 120.765C114.672 120.737 114.5 120.737 114.156 120.709C113.811 120.667 113.639 120.639 113.294 120.597C112.95 120.555 112.778 120.527 112.433 120.485C112.261 120.457 112.168 120.443 111.996 120.429C111.85 120.401 111.705 120.373 111.572 120.345C110.883 120.205 110.538 120.135 109.849 120.009C109.253 119.884 108.643 119.758 108.047 119.632C107.437 119.506 106.841 119.408 106.231 119.31C101.382 118.498 96.4787 118.288 91.6553 118.582C86.8319 118.89 82.0618 119.59 77.371 120.541C72.6801 121.507 68.0556 122.724 63.5635 124.305C63.6165 124.459 63.6561 124.543 63.7091 124.697L63.722 124.711Z" fill="url(#paint6_linear_55_43475)"/>
<path d="M52.4186 132.672C54.4328 132.154 56.5264 131.902 58.6333 131.762C60.7402 131.637 62.8475 131.637 64.9676 131.762C67.0746 131.902 69.1944 132.252 71.2748 132.798C73.3552 133.33 75.3828 133.987 77.3704 134.617C78.3643 134.939 79.3315 135.344 80.2723 135.82C81.2132 136.296 82.1276 136.842 83.0021 137.359C83.89 137.891 84.738 138.409 85.5993 138.814C86.4474 139.234 87.3086 139.57 88.1699 139.85C89.9058 140.381 91.6551 140.731 93.603 140.983C94.5703 141.109 95.6037 141.193 96.73 141.277C97.0083 141.291 97.2997 141.319 97.5912 141.333C97.7767 141.333 97.8567 141.333 98.0422 141.347C98.188 141.347 98.3335 141.375 98.4925 141.375C98.6781 141.375 98.7706 141.375 98.9694 141.389C99.1284 141.389 99.3008 141.389 99.4598 141.389C99.7911 141.389 100.136 141.403 100.507 141.389C100.613 141.263 100.666 141.207 100.758 141.095C100.732 140.269 100.626 139.5 100.44 138.758C100.268 138.017 100.043 137.317 99.7646 136.646C99.208 135.302 98.4927 134.099 97.6579 133.022C96.8231 131.93 95.8688 131.007 94.8485 130.181C93.8282 129.356 92.7417 128.698 91.6153 128.152C90.489 127.607 89.323 127.229 88.1304 127.005C86.9379 126.781 85.745 126.725 84.5524 126.767C83.3598 126.809 82.1938 126.921 81.041 127.033C79.8882 127.145 78.7614 127.257 77.6351 127.341C76.522 127.411 75.4092 127.551 74.3094 127.719C73.2095 127.901 72.1359 128.11 71.0626 128.334C69.7905 128.614 69.1549 128.754 67.8695 129.02C66.8095 129.244 65.7621 129.454 64.7153 129.65C60.528 130.447 56.4336 131.371 52.3125 132.224C52.3523 132.392 52.3785 132.462 52.4316 132.63L52.4186 132.672Z" fill="url(#paint7_linear_55_43475)"/>
<path d="M45.9281 140.228C47.0545 139.668 48.3 139.332 49.5456 139.095C50.7912 138.871 52.0632 138.787 53.3353 138.815C54.6074 138.843 55.866 139.081 57.0983 139.416C58.3174 139.752 59.497 140.158 60.6499 140.536C60.8221 140.592 60.915 140.62 61.0873 140.676C61.2595 140.746 61.3388 140.774 61.5111 140.844C61.7893 140.955 62.081 141.067 62.3593 141.193C62.6906 141.347 62.8627 141.417 63.194 141.571C63.3265 141.627 63.4723 141.697 63.6048 141.767C63.7638 141.851 63.8567 141.879 64.0157 141.963C64.294 142.089 64.5591 142.201 64.8374 142.341C65.1157 142.467 65.3805 142.578 65.6721 142.69C65.9503 142.816 66.2285 142.928 66.5067 143.04C66.6525 143.096 66.7854 143.152 66.9312 143.194C67.0769 143.25 67.2092 143.306 67.355 143.362C67.6332 143.474 67.9246 143.586 68.2162 143.684C68.5077 143.796 68.7862 143.922 69.0909 144.02C69.3825 144.131 69.6871 144.23 69.9787 144.356C70.2702 144.481 70.5752 144.579 70.88 144.691C71.0257 144.747 71.1975 144.789 71.3432 144.859C71.5022 144.915 71.6481 144.985 71.8071 145.027C72.1252 145.139 72.4435 145.251 72.7615 145.349C73.4108 145.559 74.0734 145.797 74.8022 145.95C74.895 145.825 74.9476 145.769 75.0403 145.643C74.8946 145.265 74.7357 144.901 74.5635 144.537C74.3912 144.187 74.219 143.824 74.007 143.502C73.8083 143.18 73.5963 142.844 73.371 142.536C73.159 142.215 72.9337 141.907 72.6819 141.613C72.2049 141.025 71.7011 140.452 71.1446 139.948C70.8663 139.682 70.5882 139.43 70.3099 139.192C70.0184 138.955 69.7137 138.731 69.4222 138.507C69.2765 138.395 69.117 138.283 68.9712 138.171C68.8122 138.073 68.6534 137.975 68.4944 137.877C68.1764 137.681 67.8584 137.485 67.5271 137.318C66.8645 136.996 66.189 136.688 65.4734 136.492C64.0688 136.044 62.6242 135.834 61.2063 135.68C60.4907 135.596 59.7754 135.583 59.0731 135.597C58.7153 135.611 58.371 135.652 58.0132 135.68C57.6687 135.708 57.3109 135.778 56.9664 135.834C55.5882 136.072 54.2631 136.408 52.9645 136.772C50.3673 137.485 47.9557 138.507 45.7295 139.892C45.809 140.032 45.8616 140.116 45.9411 140.256L45.9281 140.228Z" fill="url(#paint8_linear_55_43475)"/>
<path d="M40.0836 148.077C41.9387 147.657 43.8336 147.504 45.6887 147.56C46.1525 147.574 46.6164 147.602 47.0669 147.658C47.5174 147.714 47.968 147.756 48.4185 147.839C48.551 147.867 48.6173 147.867 48.7498 147.895C48.8823 147.923 48.9486 147.937 49.0811 147.965C49.3063 148.007 49.5184 148.049 49.7436 148.105C49.9556 148.161 50.1812 148.203 50.3932 148.273C50.645 148.343 50.7775 148.385 51.0293 148.469C51.8773 148.749 52.6718 149.197 53.4271 149.658C53.7982 149.896 54.1826 150.092 54.5536 150.302C54.9379 150.484 55.3223 150.666 55.7331 150.82C55.9319 150.904 56.1306 150.988 56.3426 151.058C56.4486 151.099 56.555 151.128 56.661 151.17C56.7802 151.226 56.8461 151.239 56.9787 151.295C57.1907 151.379 57.403 151.449 57.6283 151.519C57.8403 151.603 58.0655 151.687 58.2908 151.757C58.7546 151.897 59.2049 152.079 59.7084 152.219C60.212 152.359 60.7155 152.541 61.3118 152.639C61.4443 152.499 61.5105 152.429 61.643 152.289C61.4045 151.016 60.9009 149.882 60.2384 148.889C60.0661 148.637 59.9069 148.385 59.7214 148.147C59.5359 147.923 59.3372 147.7 59.1384 147.476C59.0324 147.364 58.9397 147.252 58.8337 147.154C58.7277 147.056 58.6217 146.958 58.5024 146.846C58.2771 146.65 58.0654 146.454 57.8269 146.272C56.8993 145.545 55.8391 145.055 54.7393 144.803C53.6262 144.565 52.5264 144.481 51.4531 144.369C50.3797 144.271 49.3065 144.285 48.2729 144.383C47.7562 144.439 47.2392 144.523 46.7356 144.607C46.2321 144.705 45.7287 144.831 45.2384 144.971C44.2578 145.251 43.3172 145.615 42.4161 146.048C41.515 146.482 40.6667 146.986 39.8584 147.602C39.9512 147.783 40.0044 147.881 40.0972 148.077H40.0836Z" fill="url(#paint9_linear_55_43475)"/>
<path d="M33.7492 153.94C35.1009 153.842 36.4525 153.856 37.7511 154.01C38.0691 154.052 38.3868 154.094 38.7048 154.15C39.0228 154.206 39.3279 154.262 39.6326 154.332C39.7784 154.359 39.9372 154.402 40.083 154.444C40.2287 154.486 40.3746 154.513 40.5204 154.569C40.6661 154.611 40.812 154.653 40.9577 154.695C41.13 154.751 41.2093 154.779 41.3815 154.849C41.9381 155.059 42.4285 155.423 42.8658 155.773C42.9718 155.857 43.0911 155.941 43.1971 156.011C43.3031 156.095 43.4088 156.165 43.5148 156.221C43.634 156.277 43.7268 156.346 43.8461 156.388C43.8991 156.416 43.9658 156.43 44.0188 156.458C44.0718 156.486 44.1379 156.5 44.1909 156.528C44.2704 156.556 44.2971 156.57 44.3766 156.584C44.4429 156.598 44.5087 156.612 44.5617 156.64C44.6809 156.682 44.8138 156.724 44.9596 156.766C45.0921 156.808 45.2247 156.85 45.3704 156.892C45.5162 156.934 45.675 156.976 45.8208 157.032C45.9798 157.088 46.139 157.13 46.3112 157.172C46.4702 157.228 46.6556 157.284 46.8411 157.34C47.2254 157.438 47.5964 157.592 48.0867 157.69C48.2457 157.592 48.3249 157.536 48.4839 157.424C48.5104 157.298 48.5237 157.172 48.537 157.046C48.537 156.92 48.5373 156.794 48.5506 156.668C48.5506 156.542 48.5506 156.416 48.5506 156.29C48.5506 156.164 48.5237 156.053 48.5105 155.927C48.4707 155.689 48.4315 155.451 48.3785 155.213C48.352 155.101 48.3121 154.989 48.2723 154.877C48.2326 154.765 48.1924 154.653 48.1526 154.541C47.8081 153.646 47.252 152.834 46.5629 152.191C45.8871 151.533 45.039 151.099 44.1909 150.946C43.3296 150.778 42.4949 150.778 41.6999 150.736C40.9048 150.708 40.1359 150.764 39.3939 150.876C39.0229 150.932 38.6653 151.016 38.3075 151.113C37.9498 151.211 37.6052 151.323 37.2606 151.435C36.5848 151.673 35.9223 151.967 35.2995 152.303C34.9815 152.471 34.69 152.653 34.3853 152.834C34.0938 153.03 33.8017 153.226 33.5234 153.45C33.6029 153.646 33.6429 153.744 33.7357 153.94H33.7492Z" fill="url(#paint10_linear_55_43475)"/>
<path d="M29.0977 162.39C30.2771 162.167 31.4566 162.055 32.5962 162.055C33.166 162.055 33.7225 162.097 34.2526 162.167C34.5176 162.195 34.7824 162.237 35.0342 162.293C35.1667 162.321 35.286 162.335 35.4185 162.376C35.5378 162.404 35.6706 162.433 35.7899 162.475C36.2802 162.6 36.7304 162.894 37.1279 163.174C37.5255 163.44 37.8967 163.608 38.334 163.664C38.5593 163.692 38.7842 163.734 39.036 163.748C39.2745 163.79 39.5529 163.79 39.8312 163.818C40.4275 163.846 41.077 163.93 41.978 163.93C42.1105 163.804 42.1897 163.734 42.3222 163.608C42.3885 162.628 42.1633 161.747 41.7658 160.977C41.5803 160.572 41.3152 160.236 41.0502 159.9C40.7719 159.592 40.4675 159.27 40.123 159.033C39.7917 158.767 39.4206 158.585 39.0496 158.431C38.6653 158.305 38.2805 158.221 37.883 158.207C37.4987 158.179 37.1146 158.207 36.7436 158.235C36.5581 158.249 36.3727 158.277 36.1872 158.291C36.0016 158.319 35.8292 158.333 35.6437 158.347C35.4714 158.347 35.286 158.389 35.1137 158.417C34.9415 158.445 34.769 158.473 34.5968 158.515C34.2522 158.585 33.9342 158.683 33.6029 158.781C33.4439 158.837 33.2851 158.893 33.1261 158.949C32.9406 159.018 32.8477 159.06 32.6622 159.144C32.3574 159.284 32.0663 159.424 31.788 159.592C31.2182 159.914 30.6883 160.264 30.1847 160.669C29.9329 160.865 29.694 161.075 29.4555 161.285C29.2303 161.509 29.005 161.733 28.793 161.985C28.899 162.167 28.9522 162.251 29.0582 162.432L29.0977 162.39Z" fill="url(#paint11_linear_55_43475)"/>
<defs>
<linearGradient id="paint0_linear_55_43475" x1="37.6862" y1="-1780.32" x2="0.0132529" y2="-1780.32" gradientUnits="userSpaceOnUse">
<stop stop-color="#236B2F"/>
<stop offset="0.25" stop-color="#216E32"/>
<stop offset="0.51" stop-color="#1B7A3E"/>
<stop offset="0.76" stop-color="#118E51"/>
<stop offset="1" stop-color="#04A96A"/>
</linearGradient>
<linearGradient id="paint1_linear_55_43475" x1="36.9178" y1="103.764" x2="4.98326" y2="103.764" gradientUnits="userSpaceOnUse">
<stop stop-color="#236B2F"/>
<stop offset="0.25" stop-color="#216E32"/>
<stop offset="0.51" stop-color="#1B7A3E"/>
<stop offset="0.76" stop-color="#118E51"/>
<stop offset="1" stop-color="#04A96A"/>
</linearGradient>
<linearGradient id="paint2_linear_55_43475" x1="34.0685" y1="122.122" x2="14.3242" y2="122.122" gradientUnits="userSpaceOnUse">
<stop stop-color="#236B2F"/>
<stop offset="0.25" stop-color="#216E32"/>
<stop offset="0.51" stop-color="#1B7A3E"/>
<stop offset="0.76" stop-color="#118E51"/>
<stop offset="1" stop-color="#04A96A"/>
</linearGradient>
<linearGradient id="paint3_linear_55_43475" x1="30.7969" y1="134.393" x2="15.7172" y2="134.393" gradientUnits="userSpaceOnUse">
<stop stop-color="#236B2F"/>
<stop offset="0.25" stop-color="#216E32"/>
<stop offset="0.51" stop-color="#1B7A3E"/>
<stop offset="0.76" stop-color="#118E51"/>
<stop offset="1" stop-color="#04A96A"/>
</linearGradient>
<linearGradient id="paint4_linear_55_43475" x1="29.2327" y1="145.67" x2="18.3404" y2="145.67" gradientUnits="userSpaceOnUse">
<stop stop-color="#236B2F"/>
<stop offset="0.25" stop-color="#216E32"/>
<stop offset="0.51" stop-color="#1B7A3E"/>
<stop offset="0.76" stop-color="#118E51"/>
<stop offset="1" stop-color="#04A96A"/>
</linearGradient>
<linearGradient id="paint5_linear_55_43475" x1="25.0842" y1="154.513" x2="16.3516" y2="154.513" gradientUnits="userSpaceOnUse">
<stop stop-color="#236B2F"/>
<stop offset="0.25" stop-color="#216E32"/>
<stop offset="0.51" stop-color="#1B7A3E"/>
<stop offset="0.76" stop-color="#118E51"/>
<stop offset="1" stop-color="#04A96A"/>
</linearGradient>
<linearGradient id="paint6_linear_55_43475" x1="164.96" y1="106.913" x2="63.5767" y2="106.913" gradientUnits="userSpaceOnUse">
<stop stop-color="#236B2F"/>
<stop offset="0.25" stop-color="#216E32"/>
<stop offset="0.51" stop-color="#1B7A3E"/>
<stop offset="0.76" stop-color="#118E51"/>
<stop offset="1" stop-color="#04A96A"/>
</linearGradient>
<linearGradient id="paint7_linear_55_43475" x1="100.732" y1="134.099" x2="52.2992" y2="134.099" gradientUnits="userSpaceOnUse">
<stop stop-color="#236B2F"/>
<stop offset="0.25" stop-color="#216E32"/>
<stop offset="0.51" stop-color="#1B7A3E"/>
<stop offset="0.76" stop-color="#118E51"/>
<stop offset="1" stop-color="#04A96A"/>
</linearGradient>
<linearGradient id="paint8_linear_55_43475" x1="75.0271" y1="140.773" x2="45.7162" y2="140.773" gradientUnits="userSpaceOnUse">
<stop stop-color="#236B2F"/>
<stop offset="0.25" stop-color="#216E32"/>
<stop offset="0.51" stop-color="#1B7A3E"/>
<stop offset="0.76" stop-color="#118E51"/>
<stop offset="1" stop-color="#04A96A"/>
</linearGradient>
<linearGradient id="paint9_linear_55_43475" x1="61.6298" y1="148.469" x2="39.8451" y2="148.469" gradientUnits="userSpaceOnUse">
<stop stop-color="#236B2F"/>
<stop offset="0.25" stop-color="#216E32"/>
<stop offset="0.51" stop-color="#1B7A3E"/>
<stop offset="0.76" stop-color="#118E51"/>
<stop offset="1" stop-color="#04A96A"/>
</linearGradient>
<linearGradient id="paint10_linear_55_43475" x1="48.5771" y1="154.192" x2="33.5367" y2="154.192" gradientUnits="userSpaceOnUse">
<stop stop-color="#236B2F"/>
<stop offset="0.25" stop-color="#216E32"/>
<stop offset="0.51" stop-color="#1B7A3E"/>
<stop offset="0.76" stop-color="#118E51"/>
<stop offset="1" stop-color="#04A96A"/>
</linearGradient>
<linearGradient id="paint11_linear_55_43475" x1="42.3222" y1="161.033" x2="28.8327" y2="161.033" gradientUnits="userSpaceOnUse">
<stop stop-color="#236B2F"/>
<stop offset="0.25" stop-color="#216E32"/>
<stop offset="0.51" stop-color="#1B7A3E"/>
<stop offset="0.76" stop-color="#118E51"/>
<stop offset="1" stop-color="#04A96A"/>
</linearGradient>
</defs>
</svg>
