<svg version="1.1" id="Layer_1" xmlns="http://www.w3.org/2000/svg" xmlns:xlink="http://www.w3.org/1999/xlink" x="0px" y="0px"
	 width="100%" viewBox="0 0 1600 1055" enable-background="new 0 0 1600 1055" xml:space="preserve">
<path fill="#FFFEFE" opacity="1.000000" stroke="none" 
	d="
M1178.000000,1056.000000 
	C785.333313,1056.000000 393.166656,1056.000000 1.000000,1056.000000 
	C1.000000,704.333313 1.000000,352.666656 1.000000,1.000000 
	C534.333313,1.000000 1067.666626,1.000000 1601.000000,1.000000 
	C1601.000000,352.666656 1601.000000,704.333313 1601.000000,1056.000000 
	C1460.166626,1056.000000 1319.333374,1056.000000 1178.000000,1056.000000 
M1363.427246,289.779663 
	C1363.330688,288.723816 1363.234131,287.667969 1363.480469,286.181030 
	C1363.556763,285.823975 1363.633057,285.466919 1364.553955,285.200592 
	C1424.983032,285.200592 1485.412231,285.200592 1545.836182,285.200592 
	C1545.836182,248.352356 1545.836182,212.317245 1545.836182,176.221832 
	C1387.621216,176.221832 1229.859497,176.221832 1071.854492,176.221832 
	C1071.854492,212.582474 1071.854492,248.629608 1071.854492,285.209045 
	C1132.730225,285.209045 1193.154419,285.209045 1254.395996,285.209045 
	C1254.395996,419.914459 1254.395996,554.088562 1254.395996,688.336304 
	C1256.193604,688.457153 1257.179077,688.581116 1258.164551,688.581177 
	C1291.831055,688.583740 1325.497437,688.578003 1359.163940,688.549377 
	C1360.139404,688.548523 1361.114746,688.287781 1362.881714,687.882751 
	C1362.962524,685.720886 1363.043335,683.559021 1363.436401,680.813293 
	C1363.329590,679.745422 1363.222778,678.677551 1363.365845,676.750122 
	C1363.382324,548.941833 1363.399414,421.133575 1363.402832,293.325287 
	C1363.402832,292.337341 1363.216553,291.349365 1363.427246,289.779663 
M247.044769,809.785339 
	C247.122223,811.552917 247.199677,813.320557 247.062637,815.990173 
	C247.062637,849.928650 247.062637,883.867065 247.062637,918.270081 
	C256.042450,918.270081 264.504700,918.349915 272.959015,918.127625 
	C273.683716,918.108582 274.355652,916.082275 275.184998,914.479736 
	C275.136017,914.311523 275.087006,914.143311 275.245697,913.062988 
	C275.245697,876.741882 275.245697,840.420776 275.245697,804.155396 
	C265.464386,804.155396 256.416565,804.155396 247.035919,804.155396 
	C247.118256,805.995544 247.183670,807.457703 247.044769,809.785339 
M621.060059,803.355286 
	C619.019714,803.604065 616.979309,803.852905 615.202759,804.069519 
	C615.202759,842.301636 615.202759,880.071533 615.202759,917.865479 
	C618.081299,917.865479 620.547974,917.865479 623.663269,918.063599 
	C624.105530,917.997620 624.547791,917.931641 625.906250,918.089844 
	C648.098755,918.089844 670.291199,918.089844 692.851501,918.089844 
	C692.851501,910.145874 692.809387,903.018799 692.871521,895.892578 
	C692.897583,892.907043 691.307495,892.615540 688.067871,893.048828 
	C677.372925,893.118042 666.678040,893.187317 655.504211,893.080505 
	C655.343994,893.137756 655.183838,893.195007 654.236694,893.044617 
	C653.161804,893.112732 652.086975,893.180908 650.339539,893.041321 
	C649.882446,893.118408 649.425354,893.195557 648.093201,893.068481 
	C646.596863,893.081238 645.100525,893.093994 643.351013,892.451233 
	C643.142029,891.304321 642.932983,890.157471 642.937622,888.192871 
	C642.861938,886.795288 642.786316,885.397705 642.948059,883.269348 
	C642.870972,882.513611 642.793884,881.757935 642.933350,880.216919 
	C642.859802,879.141235 642.786316,878.065552 642.953003,876.241333 
	C643.012390,875.196228 643.071777,874.151184 644.050171,873.038025 
	C657.744446,873.038025 671.438721,873.038025 685.313721,873.038025 
	C685.313721,864.295044 685.313721,856.403442 685.313721,848.071045 
	C683.289246,847.970581 681.518372,847.809326 679.747253,847.806763 
	C669.128906,847.791260 658.509399,847.893982 647.893494,847.739014 
	C646.159058,847.713684 644.440430,846.605469 642.932983,845.182678 
	C642.857178,843.789490 642.781372,842.396301 642.918091,840.147644 
	C642.846863,838.100769 642.775635,836.053833 642.943970,833.210571 
	C642.956665,831.831116 642.969360,830.451721 643.588806,828.814148 
	C643.747559,828.662109 643.906250,828.510132 644.954041,828.614685 
	C659.541809,828.629333 674.129761,828.674255 688.717224,828.617249 
	C690.384216,828.610718 693.157715,829.623901 692.744568,825.102112 
	C692.674011,820.727112 692.603455,816.352173 692.779602,811.257751 
	C692.701965,810.510132 692.624329,809.762573 692.761780,808.270935 
	C692.683960,807.507629 692.606079,806.744263 692.730164,805.222839 
	C691.477295,804.564636 690.238342,803.369690 688.969360,803.336975 
	C681.808777,803.152405 674.640808,803.207031 667.475830,803.254761 
	C653.328003,803.348999 639.180542,803.492004 624.246216,803.359558 
	C623.435913,803.460083 622.625549,803.560608 621.060059,803.355286 
M957.997742,660.482788 
	C1020.384705,621.639160 1059.855469,566.368225 1077.624756,494.701782 
	C1075.624146,494.494232 1074.512085,494.278473 1073.400146,494.278046 
	C1037.572144,494.264435 1001.744080,494.307709 965.916382,494.209473 
	C962.940308,494.201294 961.532104,495.213165 960.346985,497.888916 
	C953.275696,513.854736 943.994873,528.439270 931.624695,540.820068 
	C888.946716,583.534607 837.825256,597.788269 780.035950,581.378967 
	C729.522034,567.035645 695.857666,533.060364 679.086670,483.113159 
	C668.085571,450.349701 669.120789,417.431519 680.961853,385.143005 
	C693.070801,352.123901 714.230103,325.847107 744.710571,308.213684 
	C795.062073,279.084564 846.472717,278.601471 897.440063,306.554138 
	C925.856445,322.138855 946.481506,345.609619 959.797791,375.249817 
	C961.375061,378.760651 963.109375,380.130554 967.136841,380.108521 
	C1002.130615,379.916931 1037.125854,380.001068 1072.120728,379.989166 
	C1073.713379,379.988617 1075.306152,379.853882 1077.186768,379.768616 
	C1076.860596,378.004120 1076.682373,376.700806 1076.375366,375.428528 
	C1064.915894,327.947601 1041.751343,286.919189 1007.298157,252.476028 
	C971.839417,217.027573 929.558716,193.420578 880.504822,182.444016 
	C825.333313,170.098557 771.462402,174.637146 719.558777,197.020020 
	C660.565918,222.460098 616.604492,264.319794 587.957336,321.852356 
	C563.941956,370.082855 556.353333,421.165466 563.752441,474.401611 
	C568.529297,508.771362 580.013916,540.878540 597.899048,570.706116 
	C624.020691,614.270020 659.685486,647.648438 704.972046,670.449219 
	C753.011536,694.635986 803.903564,702.915466 857.273865,695.951721 
	C893.116760,691.274841 926.423279,679.435852 957.997742,660.482788 
M145.258224,525.714844 
	C116.787704,582.624084 88.317200,639.533386 59.846687,696.442627 
	C62.098598,696.319824 63.572765,695.649841 64.967682,694.842957 
	C79.090324,686.673279 93.193489,678.470032 107.314537,670.297607 
	C147.950943,646.779663 188.600861,623.285095 229.230469,599.755371 
	C260.352295,581.731812 291.456848,563.678406 322.547913,545.601868 
	C324.635376,544.388245 326.229523,543.675110 328.800140,545.187134 
	C354.918640,560.550232 381.139679,575.739380 407.356628,590.934692 
	C464.401245,623.997803 521.456848,657.042053 578.520691,690.071960 
	C582.739014,692.513611 587.059143,694.779297 591.332031,697.126770 
	C591.580750,696.876282 591.829529,696.625793 592.078308,696.375305 
	C503.583710,519.500793 415.089111,342.626312 325.957672,164.478973 
	C265.422546,285.487061 205.502777,405.265015 145.258224,525.714844 
M1064.535278,917.022522 
	C1064.535278,898.962280 1064.535278,880.901978 1064.535278,862.841736 
	C1066.723877,864.224609 1067.884521,865.769531 1068.919434,867.394470 
	C1078.667236,882.698669 1088.364014,898.035522 1098.166626,913.304382 
	C1099.286987,915.049561 1100.890991,917.690491 1102.396606,917.779236 
	C1110.117920,918.234375 1117.880615,917.989990 1125.719482,917.989990 
	C1125.719482,879.458069 1125.719482,841.693604 1125.719482,803.622803 
	C1116.409912,803.622803 1107.358398,803.622803 1097.586182,803.622803 
	C1097.586182,822.003540 1097.586182,840.033691 1097.586182,858.063843 
	C1095.401245,856.917114 1094.277832,855.534302 1093.326050,854.042053 
	C1083.210571,838.183594 1073.148804,822.290710 1062.976440,806.468994 
	C1062.161865,805.202087 1060.665405,803.553223 1059.434326,803.508789 
	C1051.852661,803.235046 1044.256348,803.371460 1036.644531,803.371460 
	C1036.644531,841.947266 1036.644531,879.834412 1036.644531,917.743408 
	C1046.038452,917.743408 1055.000000,917.743408 1064.535278,917.022522 
M443.497253,918.101379 
	C447.828522,918.032776 452.178619,918.200378 456.487976,917.856873 
	C482.351746,915.795288 496.358643,888.023499 482.037994,867.144287 
	C479.939026,864.084106 477.132568,861.509277 474.632111,858.685730 
	C476.647400,856.427429 479.320099,854.076782 481.209930,851.209961 
	C493.530518,832.520325 480.739563,805.980652 457.747467,804.239380 
	C439.361786,802.847107 420.810089,803.644958 402.331818,803.499756 
	C402.078003,803.497803 401.821136,803.877319 401.644470,804.016663 
	C401.644470,841.984192 401.644470,879.883240 401.644470,918.101440 
	C415.534424,918.101440 429.016327,918.101440 443.497253,918.101379 
M821.358154,834.500000 
	C821.358154,862.249634 821.358154,889.999268 821.358154,917.709229 
	C831.269287,917.709229 840.330811,917.709229 849.949707,917.709229 
	C849.949707,903.552002 849.949707,889.800049 849.949707,876.152466 
	C858.726318,874.784424 858.806335,874.745911 862.298157,882.002930 
	C867.422180,892.652344 872.351562,903.395996 877.540466,914.013245 
	C878.320190,915.608643 880.022034,917.856873 881.359314,917.900574 
	C891.410583,918.228455 901.477356,918.079224 912.290283,918.079224 
	C903.845764,901.738159 895.852722,886.270752 888.100281,871.268921 
	C892.384827,867.159973 896.921570,863.837891 900.152710,859.535339 
	C915.467712,839.142029 901.544250,807.082153 875.399536,804.362671 
	C857.926208,802.545166 840.146484,803.670105 822.503601,803.506775 
	C822.250366,803.504456 821.993713,803.876343 821.358582,804.367493 
	C821.358582,813.884338 821.358582,823.692200 821.358154,834.500000 
M1257.084839,814.527466 
	C1257.084839,848.930054 1257.084839,883.332642 1257.084839,917.769287 
	C1283.531616,917.769287 1309.241943,917.769287 1334.875732,917.769287 
	C1334.875732,909.363159 1334.875732,901.335632 1334.875732,892.822266 
	C1318.311035,892.822266 1302.226196,892.822266 1286.079224,892.822266 
	C1286.079224,885.961975 1286.079224,879.612671 1286.079224,872.731201 
	C1300.292358,872.731201 1314.030518,872.731201 1327.672119,872.731201 
	C1327.672119,864.132507 1327.672119,856.090332 1327.672119,847.788696 
	C1316.726074,847.788696 1306.242554,847.804321 1295.759033,847.784180 
	C1285.624878,847.764771 1285.606812,847.748535 1285.625122,837.376404 
	C1285.643433,827.054871 1284.627930,828.712524 1294.333130,828.664246 
	C1307.786255,828.597351 1321.239990,828.647522 1334.947876,828.647522 
	C1334.947876,819.908936 1334.947876,811.721924 1334.947876,803.672607 
	C1308.793945,803.672607 1283.080322,803.672607 1257.085938,803.672607 
	C1257.085938,807.231873 1257.085938,810.385498 1257.084839,814.527466 
M89.638832,828.622742 
	C104.880127,828.622742 120.121422,828.622742 135.682999,828.622742 
	C135.682999,821.216064 135.463882,814.724426 135.763901,808.256897 
	C135.948441,804.278687 134.652023,803.191406 130.688095,803.220520 
	C107.537109,803.390930 84.384056,803.275269 61.231709,803.286133 
	C60.140694,803.286682 59.049809,803.571106 57.937965,803.726196 
	C57.937965,841.961487 57.937965,879.846619 57.937965,917.687500 
	C67.336807,917.687500 76.389282,917.687500 86.099594,917.687500 
	C86.099594,902.890564 86.099594,888.513367 86.099594,873.569946 
	C100.498100,873.569946 114.236397,873.569946 128.143143,873.569946 
	C128.143143,865.073792 128.143143,857.168274 128.143143,848.496582 
	C114.010071,848.496582 100.155998,848.496582 85.902039,848.496582 
	C85.902039,842.265076 85.772644,836.789551 86.026230,831.331909 
	C86.069763,830.394836 87.744736,829.533630 89.638832,828.622742 
M1515.186768,889.500000 
	C1515.185303,871.019470 1515.332397,852.536926 1515.076172,834.059937 
	C1515.013550,829.538513 1516.456543,828.332825 1520.762085,828.515442 
	C1528.175293,828.830017 1535.611450,828.602539 1543.142578,828.602539 
	C1543.142578,819.804810 1543.142578,811.752869 1543.142578,803.671753 
	C1514.882812,803.671753 1487.031982,803.671753 1459.282104,803.671753 
	C1459.282104,812.140198 1459.282104,820.196167 1459.282104,828.639221 
	C1466.986450,828.639221 1474.299683,828.908386 1481.580811,828.540771 
	C1486.131592,828.310974 1487.124878,829.944397 1487.074097,834.239807 
	C1486.847778,853.383545 1486.975708,872.531494 1486.974854,891.677917 
	C1486.974487,899.169983 1486.851440,906.665771 1487.082397,914.150635 
	C1487.123413,915.482605 1488.592773,917.875427 1489.466431,917.905212 
	C1497.879395,918.191772 1506.305908,918.076965 1515.186890,918.076965 
	C1515.186890,908.416138 1515.186890,899.458069 1515.186768,889.500000 
z"/>
<path fill="#EC2F37" opacity="1.000000" stroke="none" 
	d="
M957.697144,660.687744 
	C926.423279,679.435852 893.116760,691.274841 857.273865,695.951721 
	C803.903564,702.915466 753.011536,694.635986 704.972046,670.449219 
	C659.685486,647.648438 624.020691,614.270020 597.899048,570.706116 
	C580.013916,540.878540 568.529297,508.771362 563.752441,474.401611 
	C556.353333,421.165466 563.941956,370.082855 587.957336,321.852356 
	C616.604492,264.319794 660.565918,222.460098 719.558777,197.020020 
	C771.462402,174.637146 825.333313,170.098557 880.504822,182.444016 
	C929.558716,193.420578 971.839417,217.027573 1007.298157,252.476028 
	C1041.751343,286.919189 1064.915894,327.947601 1076.375366,375.428528 
	C1076.682373,376.700806 1076.860596,378.004120 1077.186768,379.768616 
	C1075.306152,379.853882 1073.713379,379.988617 1072.120728,379.989166 
	C1037.125854,380.001068 1002.130615,379.916931 967.136841,380.108521 
	C963.109375,380.130554 961.375061,378.760651 959.797791,375.249817 
	C946.481506,345.609619 925.856445,322.138855 897.440063,306.554138 
	C846.472717,278.601471 795.062073,279.084564 744.710571,308.213684 
	C714.230103,325.847107 693.070801,352.123901 680.961853,385.143005 
	C669.120789,417.431519 668.085571,450.349701 679.086670,483.113159 
	C695.857666,533.060364 729.522034,567.035645 780.035950,581.378967 
	C837.825256,597.788269 888.946716,583.534607 931.624695,540.820068 
	C943.994873,528.439270 953.275696,513.854736 960.346985,497.888916 
	C961.532104,495.213165 962.940308,494.201294 965.916382,494.209473 
	C1001.744080,494.307709 1037.572144,494.264435 1073.400146,494.278046 
	C1074.512085,494.278473 1075.624146,494.494232 1077.624756,494.701782 
	C1059.855469,566.368225 1020.384705,621.639160 957.697144,660.687744 
z"/>
<path fill="#ED2F37" opacity="1.000000" stroke="none" 
	d="
M1362.090088,688.148254 
	C1361.114746,688.287781 1360.139404,688.548523 1359.163940,688.549377 
	C1325.497437,688.578003 1291.831055,688.583740 1258.164551,688.581177 
	C1257.179077,688.581116 1256.193604,688.457153 1254.395996,688.336304 
	C1254.395996,554.088562 1254.395996,419.914459 1254.395996,285.209045 
	C1193.154419,285.209045 1132.730225,285.209045 1071.854492,285.209045 
	C1071.854492,248.629608 1071.854492,212.582474 1071.854492,176.221832 
	C1229.859497,176.221832 1387.621216,176.221832 1545.836182,176.221832 
	C1545.836182,212.317245 1545.836182,248.352356 1545.836182,285.200592 
	C1485.412231,285.200592 1424.983032,285.200592 1363.703979,285.301666 
	C1362.569336,287.481445 1362.036255,289.560089 1362.035645,291.638885 
	C1361.997681,420.860687 1362.002686,550.082520 1362.008423,679.304321 
	C1362.008545,682.252319 1362.061768,685.200256 1362.090088,688.148254 
z"/>
<path fill="#EC2F37" opacity="1.000000" stroke="none" 
	d="
M145.420624,525.378906 
	C205.502777,405.265015 265.422546,285.487061 325.957672,164.478973 
	C415.089111,342.626312 503.583710,519.500793 592.078308,696.375305 
	C591.829529,696.625793 591.580750,696.876282 591.332031,697.126770 
	C587.059143,694.779297 582.739014,692.513611 578.520691,690.071960 
	C521.456848,657.042053 464.401245,623.997803 407.356628,590.934692 
	C381.139679,575.739380 354.918640,560.550232 328.800140,545.187134 
	C326.229523,543.675110 324.635376,544.388245 322.547913,545.601868 
	C291.456848,563.678406 260.352295,581.731812 229.230469,599.755371 
	C188.600861,623.285095 147.950943,646.779663 107.314537,670.297607 
	C93.193489,678.470032 79.090324,686.673279 64.967682,694.842957 
	C63.572765,695.649841 62.098598,696.319824 59.846687,696.442627 
	C88.317200,639.533386 116.787704,582.624084 145.420624,525.378906 
M326.392761,415.019409 
	C325.402679,416.212891 324.143768,417.270660 323.462585,418.620026 
	C311.985901,441.354370 300.571014,464.119873 289.165680,486.890167 
	C284.640228,495.925018 280.171387,504.988220 275.527924,514.338257 
	C292.053406,523.943665 308.136719,533.352722 324.332336,542.564148 
	C325.371033,543.154968 327.503510,542.620972 328.745758,541.927307 
	C337.469940,537.055237 346.108521,532.028809 354.745392,527.001770 
	C361.881226,522.848267 368.977112,518.626221 376.353027,514.279968 
	C372.435303,506.444855 368.800201,499.164795 365.156281,491.889130 
	C352.411346,466.442078 339.663361,440.996552 326.392761,415.019409 
z"/>
<path fill="#EA323B" opacity="1.000000" stroke="none" 
	d="
M1064.248535,917.382935 
	C1055.000000,917.743408 1046.038452,917.743408 1036.644531,917.743408 
	C1036.644531,879.834412 1036.644531,841.947266 1036.644531,803.371460 
	C1044.256348,803.371460 1051.852661,803.235046 1059.434326,803.508789 
	C1060.665405,803.553223 1062.161865,805.202087 1062.976440,806.468994 
	C1073.148804,822.290710 1083.210571,838.183594 1093.326050,854.042053 
	C1094.277832,855.534302 1095.401245,856.917114 1097.586182,858.063843 
	C1097.586182,840.033691 1097.586182,822.003540 1097.586182,803.622803 
	C1107.358398,803.622803 1116.409912,803.622803 1125.719482,803.622803 
	C1125.719482,841.693604 1125.719482,879.458069 1125.719482,917.989990 
	C1117.880615,917.989990 1110.117920,918.234375 1102.396606,917.779236 
	C1100.890991,917.690491 1099.286987,915.049561 1098.166626,913.304382 
	C1088.364014,898.035522 1078.667236,882.698669 1068.919434,867.394470 
	C1067.884521,865.769531 1066.723877,864.224609 1064.535278,862.841736 
	C1064.535278,880.901978 1064.535278,898.962280 1064.248535,917.382935 
z"/>
<path fill="#EB323A" opacity="1.000000" stroke="none" 
	d="
M442.997742,918.101440 
	C429.016327,918.101440 415.534424,918.101440 401.644470,918.101440 
	C401.644470,879.883240 401.644470,841.984192 401.644470,804.016663 
	C401.821136,803.877319 402.078003,803.497803 402.331818,803.499756 
	C420.810089,803.644958 439.361786,802.847107 457.747467,804.239380 
	C480.739563,805.980652 493.530518,832.520325 481.209930,851.209961 
	C479.320099,854.076782 476.647400,856.427429 474.632111,858.685730 
	C477.132568,861.509277 479.939026,864.084106 482.037994,867.144287 
	C496.358643,888.023499 482.351746,915.795288 456.487976,917.856873 
	C452.178619,918.200378 447.828522,918.032776 442.997742,918.101440 
M430.101379,892.132874 
	C437.466217,892.229736 444.870117,892.821594 452.181854,892.245056 
	C456.859558,891.876282 459.470856,886.889099 459.025848,881.654846 
	C458.609985,876.763611 455.307373,873.146301 450.512756,872.928040 
	C444.887451,872.671936 439.239136,872.942505 433.610657,872.726807 
	C430.492401,872.607178 429.545441,873.879700 429.656128,876.807983 
	C429.837646,881.608276 429.773499,886.417908 430.101379,892.132874 
M429.696503,843.386963 
	C429.629150,845.537415 429.773468,847.340698 432.766998,847.253174 
	C438.248779,847.092773 443.751282,847.392883 449.218781,847.063599 
	C454.356262,846.754150 457.228851,843.236511 457.226410,838.070129 
	C457.223785,832.538818 454.344910,829.296082 448.913300,828.839783 
	C447.095825,828.687134 445.259033,828.744263 443.431030,828.741455 
	C429.629303,828.720215 429.629303,828.722961 429.696503,843.386963 
z"/>
<path fill="#EB333B" opacity="1.000000" stroke="none" 
	d="
M821.358398,834.000000 
	C821.358582,823.692200 821.358582,813.884338 821.358582,804.367493 
	C821.993713,803.876343 822.250366,803.504456 822.503601,803.506775 
	C840.146484,803.670105 857.926208,802.545166 875.399536,804.362671 
	C901.544250,807.082153 915.467712,839.142029 900.152710,859.535339 
	C896.921570,863.837891 892.384827,867.159973 888.100281,871.268921 
	C895.852722,886.270752 903.845764,901.738159 912.290283,918.079224 
	C901.477356,918.079224 891.410583,918.228455 881.359314,917.900574 
	C880.022034,917.856873 878.320190,915.608643 877.540466,914.013245 
	C872.351562,903.395996 867.422180,892.652344 862.298157,882.002930 
	C858.806335,874.745911 858.726318,874.784424 849.949707,876.152466 
	C849.949707,889.800049 849.949707,903.552002 849.949707,917.709229 
	C840.330811,917.709229 831.269287,917.709229 821.358154,917.709229 
	C821.358154,889.999268 821.358154,862.249634 821.358398,834.000000 
M876.731506,835.086609 
	C874.550903,833.154541 872.531555,829.831360 870.158875,829.556335 
	C863.553406,828.790771 856.801270,829.290466 850.124268,829.290466 
	C850.124268,836.908875 850.124268,844.130493 850.124268,851.899902 
	C855.208862,851.899902 859.981384,851.964905 864.751465,851.886414 
	C874.838135,851.720520 879.490662,845.590027 876.731506,835.086609 
z"/>
<path fill="#EB323B" opacity="1.000000" stroke="none" 
	d="
M1257.085449,814.033264 
	C1257.085938,810.385498 1257.085938,807.231873 1257.085938,803.672607 
	C1283.080322,803.672607 1308.793945,803.672607 1334.947876,803.672607 
	C1334.947876,811.721924 1334.947876,819.908936 1334.947876,828.647522 
	C1321.239990,828.647522 1307.786255,828.597351 1294.333130,828.664246 
	C1284.627930,828.712524 1285.643433,827.054871 1285.625122,837.376404 
	C1285.606812,847.748535 1285.624878,847.764771 1295.759033,847.784180 
	C1306.242554,847.804321 1316.726074,847.788696 1327.672119,847.788696 
	C1327.672119,856.090332 1327.672119,864.132507 1327.672119,872.731201 
	C1314.030518,872.731201 1300.292358,872.731201 1286.079224,872.731201 
	C1286.079224,879.612671 1286.079224,885.961975 1286.079224,892.822266 
	C1302.226196,892.822266 1318.311035,892.822266 1334.875732,892.822266 
	C1334.875732,901.335632 1334.875732,909.363159 1334.875732,917.769287 
	C1309.241943,917.769287 1283.531616,917.769287 1257.084839,917.769287 
	C1257.084839,883.332642 1257.084839,848.930054 1257.085449,814.033264 
z"/>
<path fill="#EC313A" opacity="1.000000" stroke="none" 
	d="
M643.604187,893.106750 
	C645.100525,893.093994 646.596863,893.081238 648.581665,893.440552 
	C649.717407,893.624695 650.364746,893.436829 651.012085,893.249023 
	C652.086975,893.180908 653.161804,893.112732 654.719727,893.286865 
	C655.202820,893.529175 655.651184,893.598083 655.651184,893.598083 
	C655.651184,893.598083 655.983093,893.256592 655.983093,893.256592 
	C666.678040,893.187317 677.372925,893.118042 688.617798,893.510681 
	C689.784424,895.599304 690.810059,897.195618 690.933960,898.859009 
	C691.205200,902.498474 690.759705,906.195129 691.083313,909.825989 
	C691.511230,914.627075 689.718506,916.179749 684.875488,916.116028 
	C666.580566,915.875427 648.280212,915.971619 629.982971,916.099731 
	C628.314636,916.111389 626.654175,917.250244 624.990051,917.865601 
	C624.547791,917.931641 624.105530,917.997620 623.273560,917.633179 
	C615.993530,915.805420 615.992798,915.805420 615.992249,907.596558 
	C615.990112,875.286072 615.984558,842.975647 615.997070,810.665161 
	C615.997742,808.910706 616.150330,807.156189 616.209412,805.890381 
	C618.529053,804.967957 620.172119,804.314575 621.815247,803.661194 
	C622.625549,803.560608 623.435913,803.460083 624.792969,803.821411 
	C627.093079,804.516418 628.845764,804.947693 630.599670,804.952454 
	C648.976257,805.001953 667.353210,804.948730 685.729614,805.027283 
	C687.997192,805.036987 690.262085,805.648376 692.528259,805.980957 
	C692.606079,806.744263 692.683960,807.507629 692.371399,808.705994 
	C692.164978,810.086426 692.348938,811.031799 692.532898,811.977173 
	C692.603455,816.352173 692.674011,820.727112 692.235718,825.548462 
	C679.051453,826.125000 666.372864,826.131470 653.703125,826.470825 
	C650.475891,826.557312 647.276917,827.700500 644.065002,828.358093 
	C643.906250,828.510132 643.747559,828.662109 642.934692,828.983765 
	C642.421875,830.771179 642.563110,832.389099 642.704346,834.006958 
	C642.775635,836.053833 642.846863,838.100769 642.549438,840.611328 
	C642.358643,842.715942 642.536560,844.356812 642.714539,845.997742 
	C644.440430,846.605469 646.159058,847.713684 647.893494,847.739014 
	C658.509399,847.893982 669.128906,847.791260 679.747253,847.806763 
	C681.518372,847.809326 683.289246,847.970581 685.313721,848.071045 
	C685.313721,856.403442 685.313721,864.295044 685.313721,873.038025 
	C671.438721,873.038025 657.744446,873.038025 643.245911,873.088928 
	C642.532043,874.423157 642.622437,875.706543 642.712830,876.989868 
	C642.786316,878.065552 642.859802,879.141235 642.523560,880.668152 
	C642.312744,882.079651 642.511719,883.039856 642.710693,884.000122 
	C642.786316,885.397705 642.861938,886.795288 642.504578,888.678894 
	C640.007996,891.479858 640.811157,892.680115 643.604187,893.106750 
z"/>
<path fill="#EA333B" opacity="1.000000" stroke="none" 
	d="
M89.152451,828.630005 
	C87.744736,829.533630 86.069763,830.394836 86.026230,831.331909 
	C85.772644,836.789551 85.902039,842.265076 85.902039,848.496582 
	C100.155998,848.496582 114.010071,848.496582 128.143143,848.496582 
	C128.143143,857.168274 128.143143,865.073792 128.143143,873.569946 
	C114.236397,873.569946 100.498100,873.569946 86.099594,873.569946 
	C86.099594,888.513367 86.099594,902.890564 86.099594,917.687500 
	C76.389282,917.687500 67.336807,917.687500 57.937965,917.687500 
	C57.937965,879.846619 57.937965,841.961487 57.937965,803.726196 
	C59.049809,803.571106 60.140694,803.286682 61.231709,803.286133 
	C84.384056,803.275269 107.537109,803.390930 130.688095,803.220520 
	C134.652023,803.191406 135.948441,804.278687 135.763901,808.256897 
	C135.463882,814.724426 135.682999,821.216064 135.682999,828.622742 
	C120.121422,828.622742 104.880127,828.622742 89.152451,828.630005 
z"/>
<path fill="#EB323A" opacity="1.000000" stroke="none" 
	d="
M1515.186768,890.000000 
	C1515.186890,899.458069 1515.186890,908.416138 1515.186890,918.076965 
	C1506.305908,918.076965 1497.879395,918.191772 1489.466431,917.905212 
	C1488.592773,917.875427 1487.123413,915.482605 1487.082397,914.150635 
	C1486.851440,906.665771 1486.974487,899.169983 1486.974854,891.677917 
	C1486.975708,872.531494 1486.847778,853.383545 1487.074097,834.239807 
	C1487.124878,829.944397 1486.131592,828.310974 1481.580811,828.540771 
	C1474.299683,828.908386 1466.986450,828.639221 1459.282104,828.639221 
	C1459.282104,820.196167 1459.282104,812.140198 1459.282104,803.671753 
	C1487.031982,803.671753 1514.882812,803.671753 1543.142578,803.671753 
	C1543.142578,811.752869 1543.142578,819.804810 1543.142578,828.602539 
	C1535.611450,828.602539 1528.175293,828.830017 1520.762085,828.515442 
	C1516.456543,828.332825 1515.013550,829.538513 1515.076172,834.059937 
	C1515.332397,852.536926 1515.185303,871.019470 1515.186768,890.000000 
z"/>
<path fill="#EC2F37" opacity="1.000000" stroke="none" 
	d="
M247.277130,815.088135 
	C247.199677,813.320557 247.122223,811.552917 247.376617,809.082397 
	C249.238953,807.257690 250.703445,805.294739 252.312012,805.168518 
	C257.594696,804.754089 262.949402,805.287537 268.238525,804.916504 
	C272.770355,804.598694 274.148193,806.001709 274.118347,810.676025 
	C273.910736,843.228455 273.987793,875.782898 274.046692,908.336487 
	C274.050110,910.216614 274.692810,912.095581 275.038025,913.975098 
	C275.087006,914.143311 275.136017,914.311523 274.793243,914.954468 
	C272.930267,915.949341 271.473785,916.861694 269.985107,916.917725 
	C265.002563,917.105225 260.008484,916.993530 255.018845,916.983459 
	C247.992340,916.969299 247.982391,916.964294 247.981369,909.718689 
	C247.977173,879.947083 247.991577,850.175415 247.949493,820.403870 
	C247.946991,818.631592 247.511261,816.860046 247.277130,815.088135 
z"/>
<path fill="#CF2D32" opacity="1.000000" stroke="none" 
	d="
M1362.485840,688.015503 
	C1362.061768,685.200256 1362.008545,682.252319 1362.008423,679.304321 
	C1362.002686,550.082520 1361.997681,420.860687 1362.035645,291.638885 
	C1362.036255,289.560089 1362.569336,287.481445 1363.281738,285.256287 
	C1363.633057,285.466919 1363.556763,285.823975 1363.258301,286.865540 
	C1363.063232,288.487152 1363.090332,289.424255 1363.117310,290.361389 
	C1363.216553,291.349365 1363.402832,292.337341 1363.402832,293.325287 
	C1363.399414,421.133575 1363.382324,548.941833 1363.197266,677.654419 
	C1363.060547,679.504822 1363.092285,680.450989 1363.124023,681.397156 
	C1363.043335,683.559021 1362.962524,685.720886 1362.485840,688.015503 
z"/>
<path fill="#CF3E47" opacity="1.000000" stroke="none" 
	d="
M625.448120,917.977722 
	C626.654175,917.250244 628.314636,916.111389 629.982971,916.099731 
	C648.280212,915.971619 666.580566,915.875427 684.875488,916.116028 
	C689.718506,916.179749 691.511230,914.627075 691.083313,909.825989 
	C690.759705,906.195129 691.205200,902.498474 690.933960,898.859009 
	C690.810059,897.195618 689.784424,895.599304 689.075256,893.612549 
	C691.307495,892.615540 692.897583,892.907043 692.871521,895.892578 
	C692.809387,903.018799 692.851501,910.145874 692.851501,918.089844 
	C670.291199,918.089844 648.098755,918.089844 625.448120,917.977722 
z"/>
<path fill="#CA2E36" opacity="1.000000" stroke="none" 
	d="
M275.141846,913.519043 
	C274.692810,912.095581 274.050110,910.216614 274.046692,908.336487 
	C273.987793,875.782898 273.910736,843.228455 274.118347,810.676025 
	C274.148193,806.001709 272.770355,804.598694 268.238525,804.916504 
	C262.949402,805.287537 257.594696,804.754089 252.312012,805.168518 
	C250.703445,805.294739 249.238953,807.257690 247.478790,808.649658 
	C247.183670,807.457703 247.118256,805.995544 247.035919,804.155396 
	C256.416565,804.155396 265.464386,804.155396 275.245697,804.155396 
	C275.245697,840.420776 275.245697,876.741882 275.141846,913.519043 
z"/>
<path fill="#CF3E47" opacity="1.000000" stroke="none" 
	d="
M692.629211,805.601929 
	C690.262085,805.648376 687.997192,805.036987 685.729614,805.027283 
	C667.353210,804.948730 648.976257,805.001953 630.599670,804.952454 
	C628.845764,804.947693 627.093079,804.516418 625.186340,803.949036 
	C639.180542,803.492004 653.328003,803.348999 667.475830,803.254761 
	C674.640808,803.207031 681.808777,803.152405 688.969360,803.336975 
	C690.238342,803.369690 691.477295,804.564636 692.629211,805.601929 
z"/>
<path fill="#CA2E36" opacity="1.000000" stroke="none" 
	d="
M247.169891,815.539185 
	C247.511261,816.860046 247.946991,818.631592 247.949493,820.403870 
	C247.991577,850.175415 247.977173,879.947083 247.981369,909.718689 
	C247.982391,916.964294 247.992340,916.969299 255.018845,916.983459 
	C260.008484,916.993530 265.002563,917.105225 269.985107,916.917725 
	C271.473785,916.861694 272.930267,915.949341 274.726807,915.208801 
	C274.355652,916.082275 273.683716,918.108582 272.959015,918.127625 
	C264.504700,918.349915 256.042450,918.270081 247.062637,918.270081 
	C247.062637,883.867065 247.062637,849.928650 247.169891,815.539185 
z"/>
<path fill="#CF3E47" opacity="1.000000" stroke="none" 
	d="
M621.437622,803.508240 
	C620.172119,804.314575 618.529053,804.967957 616.209412,805.890381 
	C616.150330,807.156189 615.997742,808.910706 615.997070,810.665161 
	C615.984558,842.975647 615.990112,875.286072 615.992249,907.596558 
	C615.992798,915.805420 615.993530,915.805420 622.949341,917.534058 
	C620.547974,917.865479 618.081299,917.865479 615.202759,917.865479 
	C615.202759,880.071533 615.202759,842.301636 615.202759,804.069519 
	C616.979309,803.852905 619.019714,803.604065 621.437622,803.508240 
z"/>
<path fill="#CF3E47" opacity="1.000000" stroke="none" 
	d="
M644.509521,828.486389 
	C647.276917,827.700500 650.475891,826.557312 653.703125,826.470825 
	C666.372864,826.131470 679.051453,826.125000 692.122925,826.001099 
	C693.157715,829.623901 690.384216,828.610718 688.717224,828.617249 
	C674.129761,828.674255 659.541809,828.629333 644.509521,828.486389 
z"/>
<path fill="#CF3E47" opacity="1.000000" stroke="none" 
	d="
M642.824158,833.608765 
	C642.563110,832.389099 642.421875,830.771179 642.631348,829.112793 
	C642.969360,830.451721 642.956665,831.831116 642.824158,833.608765 
z"/>
<path fill="#CF3E47" opacity="1.000000" stroke="none" 
	d="
M642.823730,845.590210 
	C642.536560,844.356812 642.358643,842.715942 642.443115,841.039062 
	C642.781372,842.396301 642.857178,843.789490 642.823730,845.590210 
z"/>
<path fill="#CF3E47" opacity="1.000000" stroke="none" 
	d="
M643.477600,892.778992 
	C640.811157,892.680115 640.007996,891.479858 642.397705,889.087769 
	C642.932983,890.157471 643.142029,891.304321 643.477600,892.778992 
z"/>
<path fill="#CF3E47" opacity="1.000000" stroke="none" 
	d="
M642.832886,876.615601 
	C642.622437,875.706543 642.532043,874.423157 642.786377,873.122925 
	C643.071777,874.151184 643.012390,875.196228 642.832886,876.615601 
z"/>
<path fill="#CF3E47" opacity="1.000000" stroke="none" 
	d="
M642.829346,883.634766 
	C642.511719,883.039856 642.312744,882.079651 642.415283,881.060791 
	C642.793884,881.757935 642.870972,882.513611 642.829346,883.634766 
z"/>
<path fill="#CF3E47" opacity="1.000000" stroke="none" 
	d="
M692.656250,811.617432 
	C692.348938,811.031799 692.164978,810.086426 692.263916,809.078003 
	C692.624329,809.762573 692.701965,810.510132 692.656250,811.617432 
z"/>
<path fill="#CF3E47" opacity="1.000000" stroke="none" 
	d="
M650.675781,893.145142 
	C650.364746,893.436829 649.717407,893.624695 649.019165,893.542603 
	C649.425354,893.195557 649.882446,893.118408 650.675781,893.145142 
z"/>
<path fill="#ED2F37" opacity="1.000000" stroke="none" 
	d="
M1363.280273,681.105225 
	C1363.092285,680.450989 1363.060547,679.504822 1363.072388,678.084167 
	C1363.222778,678.677551 1363.329590,679.745422 1363.280273,681.105225 
z"/>
<path fill="#ED2F37" opacity="1.000000" stroke="none" 
	d="
M1363.272339,290.070526 
	C1363.090332,289.424255 1363.063232,288.487152 1363.086914,287.081055 
	C1363.234131,287.667969 1363.330688,288.723816 1363.272339,290.070526 
z"/>
<path fill="#CF3E47" opacity="1.000000" stroke="none" 
	d="
M655.743652,893.168579 
	C655.983093,893.256592 655.651184,893.598083 655.651184,893.598083 
	C655.651184,893.598083 655.202820,893.529175 655.113281,893.390686 
	C655.183838,893.195007 655.343994,893.137756 655.743652,893.168579 
z"/>
<path fill="#FFFEFE" opacity="1.000000" stroke="none" 
	d="
M326.654663,415.284943 
	C339.663361,440.996552 352.411346,466.442078 365.156281,491.889130 
	C368.800201,499.164795 372.435303,506.444855 376.353027,514.279968 
	C368.977112,518.626221 361.881226,522.848267 354.745392,527.001770 
	C346.108521,532.028809 337.469940,537.055237 328.745758,541.927307 
	C327.503510,542.620972 325.371033,543.154968 324.332336,542.564148 
	C308.136719,533.352722 292.053406,523.943665 275.527924,514.338257 
	C280.171387,504.988220 284.640228,495.925018 289.165680,486.890167 
	C300.571014,464.119873 311.985901,441.354370 323.462585,418.620026 
	C324.143768,417.270660 325.402679,416.212891 326.654663,415.284943 
M342.375000,527.927490 
	C344.357269,525.048096 344.357269,525.048096 340.428741,522.415955 
	C342.102966,519.725464 343.922058,516.802185 346.188416,513.160156 
	C346.723633,515.133972 346.759308,515.658997 346.996399,516.066956 
	C347.747345,517.359314 348.573547,518.607910 349.370636,519.873413 
	C350.328674,518.838318 351.296295,517.811890 352.241547,516.765198 
	C352.902252,516.033569 353.385986,514.964478 354.200806,514.579529 
	C358.288879,512.648132 362.459930,510.892395 367.052948,508.877014 
	C366.772736,507.817383 366.835602,506.185516 366.054138,505.446564 
	C363.593781,503.120209 360.552704,501.380768 358.228119,498.944946 
	C355.291809,495.868103 351.481812,492.645386 350.607880,488.890076 
	C349.908966,485.886871 351.427002,482.183990 350.595001,478.376984 
	C349.763428,474.572052 346.889618,468.377441 343.125549,467.038177 
	C334.321594,463.905609 332.473541,457.346954 338.490356,450.655914 
	C338.669922,450.456207 338.597534,450.029938 338.664795,449.551331 
	C337.522614,448.585846 335.884094,447.804321 335.207275,446.517151 
	C333.065155,442.443268 331.282623,438.180328 329.380341,434.032684 
	C325.197601,435.624146 321.881348,436.885925 318.041412,438.346954 
	C319.271606,444.362793 326.923065,450.135071 320.099213,459.082611 
	C319.438721,456.389771 318.932922,454.929413 318.752655,453.429901 
	C318.558105,451.811676 319.028412,450.031128 318.516113,448.563019 
	C318.184692,447.613220 316.610229,447.097168 315.592743,446.386780 
	C315.320587,447.502899 314.696075,448.669434 314.847168,449.724945 
	C315.197876,452.174683 316.167297,454.547150 316.404449,456.997528 
	C316.545471,458.454254 316.138885,461.044342 315.347107,461.321564 
	C312.148254,462.441528 308.704102,462.860901 305.350525,463.538910 
	C305.711243,463.879364 306.071930,464.219849 306.432617,464.560303 
	C305.146729,466.582581 303.860870,468.604889 302.204742,471.209412 
	C302.701355,472.260193 303.999023,473.982544 304.247589,475.844910 
	C304.459137,477.430328 304.004120,479.887329 302.904144,480.725922 
	C298.749207,483.893524 297.705566,489.137909 300.594879,493.468201 
	C301.289490,494.509247 300.918243,496.261414 301.037201,497.686554 
	C299.715118,497.058502 298.367615,496.477814 297.079620,495.786224 
	C296.171844,495.298889 295.316559,494.131897 294.486450,494.176300 
	C289.119049,494.463623 284.783142,502.381592 287.601074,507.028900 
	C290.281433,511.449249 293.482880,515.553650 297.077942,520.685974 
	C298.545746,517.586731 299.801270,514.935669 301.125946,512.138611 
	C305.764954,512.807739 307.928162,515.618164 306.858459,520.075012 
	C305.979218,523.738403 306.027313,526.244446 310.241577,527.280334 
	C310.919220,527.446899 311.480316,528.325195 311.972168,528.968628 
	C314.033142,531.664551 316.211853,532.094971 318.406494,529.228271 
	C320.402374,526.621277 321.962952,526.989929 324.580353,528.850525 
	C328.119629,531.366394 332.331451,532.936096 336.254730,534.911743 
	C333.927124,531.488708 335.083038,529.937500 338.268890,529.049988 
	C339.388428,528.738098 340.493286,528.373352 342.375000,527.927490 
M283.167328,516.054688 
	C283.867157,516.272339 284.566956,516.490051 285.280029,516.711792 
	C284.949066,514.386841 284.676697,512.473572 284.354034,510.206970 
	C281.737946,511.582672 279.410614,512.708557 283.167328,516.054688 
M311.658875,456.289429 
	C310.611359,456.063324 309.563873,455.837189 308.516327,455.611084 
	C308.658813,456.491089 308.801300,457.371094 308.943817,458.251129 
	C309.784515,457.817871 310.625214,457.384613 311.658875,456.289429 
z"/>
<path fill="#FEF7F6" opacity="1.000000" stroke="none" 
	d="
M429.957184,891.678223 
	C429.773499,886.417908 429.837646,881.608276 429.656128,876.807983 
	C429.545441,873.879700 430.492401,872.607178 433.610657,872.726807 
	C439.239136,872.942505 444.887451,872.671936 450.512756,872.928040 
	C455.307373,873.146301 458.609985,876.763611 459.025848,881.654846 
	C459.470856,886.889099 456.859558,891.876282 452.181854,892.245056 
	C444.870117,892.821594 437.466217,892.229736 429.957184,891.678223 
z"/>
<path fill="#FDF9F7" opacity="1.000000" stroke="none" 
	d="
M429.695587,842.899780 
	C429.629303,828.722961 429.629303,828.720215 443.431030,828.741455 
	C445.259033,828.744263 447.095825,828.687134 448.913300,828.839783 
	C454.344910,829.296082 457.223785,832.538818 457.226410,838.070129 
	C457.228851,843.236511 454.356262,846.754150 449.218781,847.063599 
	C443.751282,847.392883 438.248779,847.092773 432.766998,847.253174 
	C429.773468,847.340698 429.629150,845.537415 429.695587,842.899780 
z"/>
<path fill="#FEF7F6" opacity="1.000000" stroke="none" 
	d="
M876.877197,835.450012 
	C879.490662,845.590027 874.838135,851.720520 864.751465,851.886414 
	C859.981384,851.964905 855.208862,851.899902 850.124268,851.899902 
	C850.124268,844.130493 850.124268,836.908875 850.124268,829.290466 
	C856.801270,829.290466 863.553406,828.790771 870.158875,829.556335 
	C872.531555,829.831360 874.550903,833.154541 876.877197,835.450012 
z"/>
<path fill="#FFFFFF" opacity="1.000000" stroke="none" 
	d="
M341.989929,527.980103 
	C340.493286,528.373352 339.388428,528.738098 338.268890,529.049988 
	C335.083038,529.937500 333.927124,531.488708 336.254730,534.911743 
	C332.331451,532.936096 328.119629,531.366394 324.580353,528.850525 
	C321.962952,526.989929 320.402374,526.621277 318.406494,529.228271 
	C316.211853,532.094971 314.033142,531.664551 311.972168,528.968628 
	C311.480316,528.325195 310.919220,527.446899 310.241577,527.280334 
	C306.027313,526.244446 305.979218,523.738403 306.858459,520.075012 
	C307.928162,515.618164 305.764954,512.807739 301.125946,512.138611 
	C299.801270,514.935669 298.545746,517.586731 297.077942,520.685974 
	C293.482880,515.553650 290.281433,511.449249 287.601074,507.028900 
	C284.783142,502.381592 289.119049,494.463623 294.486450,494.176300 
	C295.316559,494.131897 296.171844,495.298889 297.079620,495.786224 
	C298.367615,496.477814 299.715118,497.058502 301.037170,497.686554 
	C300.918243,496.261414 301.289490,494.509247 300.594879,493.468201 
	C297.705566,489.137909 298.749207,483.893524 302.904144,480.725922 
	C304.004120,479.887329 304.459137,477.430328 304.247589,475.844910 
	C303.999023,473.982544 302.701355,472.260193 302.204742,471.209412 
	C303.860870,468.604889 305.146729,466.582581 306.432617,464.560303 
	C306.071930,464.219849 305.711243,463.879364 305.350525,463.538910 
	C308.704102,462.860901 312.148254,462.441528 315.347107,461.321564 
	C316.138885,461.044342 316.545471,458.454254 316.404449,456.997528 
	C316.167297,454.547150 315.197876,452.174683 314.847168,449.724945 
	C314.696075,448.669434 315.320587,447.502899 315.592773,446.386780 
	C316.610229,447.097168 318.184692,447.613220 318.516113,448.563019 
	C319.028412,450.031128 318.558105,451.811676 318.752655,453.429901 
	C318.932922,454.929413 319.438721,456.389771 320.099213,459.082611 
	C326.923065,450.135071 319.271606,444.362793 318.041412,438.346954 
	C321.881348,436.885925 325.197601,435.624146 329.380341,434.032684 
	C331.282623,438.180328 333.065155,442.443268 335.207275,446.517151 
	C335.884094,447.804321 337.522614,448.585846 338.664795,449.551331 
	C338.597534,450.029938 338.669922,450.456207 338.490356,450.655914 
	C332.473541,457.346954 334.321594,463.905609 343.125549,467.038177 
	C346.889618,468.377441 349.763428,474.572052 350.595001,478.376984 
	C351.427002,482.183990 349.908966,485.886871 350.607880,488.890076 
	C351.481812,492.645386 355.291809,495.868103 358.228119,498.944946 
	C360.552704,501.380768 363.593781,503.120209 366.054138,505.446564 
	C366.835602,506.185516 366.772736,507.817383 367.052948,508.877014 
	C362.459930,510.892395 358.288879,512.648132 354.200806,514.579529 
	C353.385986,514.964478 352.902252,516.033569 352.241547,516.765198 
	C351.296295,517.811890 350.328674,518.838318 349.370667,519.873413 
	C348.573547,518.607910 347.747345,517.359314 346.996399,516.066956 
	C346.759308,515.658997 346.723633,515.133972 346.188416,513.160156 
	C343.922058,516.802185 342.102966,519.725464 340.428741,522.415955 
	C344.357269,525.048096 344.357269,525.048096 341.989929,527.980103 
M306.961670,485.792938 
	C306.199615,484.789978 305.437561,483.787018 304.675476,482.784058 
	C304.132690,482.939178 303.589874,483.094269 303.047058,483.249390 
	C303.047058,485.464355 302.957825,487.686737 303.140869,489.886505 
	C303.169128,490.226440 305.015656,490.780304 305.061066,490.699005 
	C305.796570,489.381958 306.376801,487.978180 306.961670,485.792938 
z"/>
<path fill="#FFFFFF" opacity="1.000000" stroke="none" 
	d="
M282.864044,515.906494 
	C279.410614,512.708557 281.737946,511.582672 284.354034,510.206970 
	C284.676697,512.473572 284.949066,514.386841 285.280029,516.711792 
	C284.566956,516.490051 283.867157,516.272339 282.864044,515.906494 
z"/>
<path fill="#FFFFFF" opacity="1.000000" stroke="none" 
	d="
M311.562378,456.620422 
	C310.625214,457.384613 309.784515,457.817871 308.943787,458.251099 
	C308.801300,457.371094 308.658813,456.491089 308.516357,455.611084 
	C309.563873,455.837189 310.611359,456.063324 311.562378,456.620422 
z"/>
<path fill="#FFFEFE" opacity="1.000000" stroke="none" 
	d="
M306.976929,486.193481 
	C306.376801,487.978180 305.796570,489.381958 305.061066,490.699005 
	C305.015656,490.780304 303.169128,490.226440 303.140869,489.886505 
	C302.957825,487.686737 303.047058,485.464355 303.047058,483.249390 
	C303.589874,483.094269 304.132690,482.939178 304.675476,482.784058 
	C305.437561,483.787018 306.199615,484.789978 306.976929,486.193481 
z"/>
</svg>