<?xml version="1.0" encoding="UTF-8"?>
<svg version="1.1" xmlns="http://www.w3.org/2000/svg" width="1920" height="1282">
<path d="M0 0 C353.1 0 706.2 0 1070 0 C1070 241.89 1070 483.78 1070 733 C716.9 733 363.8 733 0 733 C0 491.11 0 249.22 0 0 Z " fill="#ED1C24" transform="translate(431,100)"/>
<path d="M0 0 C567.93 0 1135.86 0 1721 0 C1721 78.87 1721 157.74 1721 239 C1153.07 239 585.14 239 0 239 C0 160.13 0 81.26 0 0 Z " fill="#00A651" transform="translate(102,858)"/>
<path d="M0 0 C351.78 0 703.56 0 1066 0 C1066 20.13 1066 40.26 1066 61 C714.22 61 362.44 61 0 61 C0 40.87 0 20.74 0 0 Z " fill="#ED1C24" transform="translate(435,1121)"/>
<path d="M0 0 C0.825 0.2784375 1.65 0.556875 2.5 0.84375 C36.98556549 13.34476749 55.94742649 51.04625435 71 82 C71.34294098 82.70502655 71.68588196 83.4100531 72.03921509 84.13644409 C77.74263242 95.9094706 82.96687086 107.81335065 87.875 119.9375 C88.57815372 121.664313 89.28152671 123.39103672 89.98510742 125.11767578 C96.9953745 142.35063132 103.81115055 159.65613264 110.45799255 177.03250122 C112.16348802 181.48743705 113.87525268 185.93995432 115.58724976 190.39239502 C116.4389709 192.61312313 117.28751497 194.83507263 118.13272095 197.05828857 C119.32835332 200.20325522 120.53431064 203.34409438 121.7421875 206.484375 C122.27447716 207.8967897 122.27447716 207.8967897 122.81752014 209.33773804 C125.00361966 214.98528679 127.57955317 219.99897171 131 225 C137.22882928 224.87023272 139.80629486 222.82895072 144.10546875 218.3984375 C146 217 146 217 148.06640625 217.12890625 C151.00259622 218.45167466 152.84029671 220.66032144 155 223 C153.68792031 225.89649391 152.28265016 227.96810464 150.03955078 230.2144165 C149.43387268 230.82573425 148.82819458 231.437052 148.2041626 232.06689453 C147.2097818 233.05520264 147.2097818 233.05520264 146.1953125 234.06347656 C145.49597595 234.76631775 144.7966394 235.46915894 144.07611084 236.19329834 C141.76407946 238.51412986 139.44481196 240.82757252 137.125 243.140625 C135.5180988 244.74887303 133.91149463 246.35741789 132.30517578 247.96624756 C128.93911706 251.33525497 125.56946647 254.70061745 122.19726562 258.06347656 C117.86577232 262.38355726 113.54334261 266.71257771 109.22354126 271.04434586 C105.90899752 274.36609939 102.58972631 277.68309584 99.26898193 280.9986496 C97.67263772 282.59365583 96.07778835 284.19015957 94.48443604 285.7881546 C92.26264328 288.01500006 90.0345864 290.23537752 87.8046875 292.45410156 C87.14176697 293.12107056 86.47884644 293.78803955 85.7958374 294.47521973 C85.1901593 295.07525818 84.5844812 295.67529663 83.96044922 296.29351807 C83.43393768 296.81927555 82.90742615 297.34503304 82.36495972 297.88672256 C81 299 81 299 79 299 C70.82168631 275.2408021 62.76992826 251.43987972 54.80851746 227.60722351 C54.1234287 225.55779948 53.43718037 223.50876709 52.75061035 221.45983887 C51.45768652 217.60074286 50.16992607 213.73994408 48.8828125 209.87890625 C48.48971893 208.70677078 48.09662537 207.53463531 47.69161987 206.32698059 C47.33592926 205.25687241 46.98023865 204.18676422 46.61376953 203.08422852 C46.30069855 202.14644058 45.98762756 201.20865265 45.66506958 200.2424469 C45 198 45 198 45 196 C44.12214844 196.21221191 44.12214844 196.21221191 43.2265625 196.42871094 C34.15307406 198.36670453 25.22886914 198.31235956 16 198.25 C14.76212234 198.24484879 14.76212234 198.24484879 13.49923706 198.23959351 C-7.08542509 198.13893684 -29.88916893 197.63585672 -49 189 C-49.11335693 189.84852539 -49.22671387 190.69705078 -49.34350586 191.57128906 C-50.04241745 195.22153612 -51.15661914 198.39716875 -52.50390625 201.859375 C-52.7466478 202.48982727 -52.98938934 203.12027954 -53.23948669 203.76983643 C-54.00847543 205.76534308 -54.78487884 207.7578431 -55.5625 209.75 C-56.3428465 211.75674262 -57.12150844 213.76408712 -57.89622498 215.77301025 C-58.59559506 217.58554355 -59.3007071 219.39585819 -60.00610352 221.20605469 C-61.11171915 223.81981049 -61.11171915 223.81981049 -61 226 C-59.07880825 227.50334717 -59.07880825 227.50334717 -56.57421875 229.01171875 C-55.63126953 229.60533203 -54.68832031 230.19894531 -53.71679688 230.81054688 C-52.71712891 231.42994141 -51.71746094 232.04933594 -50.6875 232.6875 C-48.75390625 233.89973958 -46.8203125 235.11197917 -44.88671875 236.32421875 C-43.91959961 236.92451904 -42.95248047 237.52481934 -41.95605469 238.14331055 C-39.93838949 239.41060026 -37.93423295 240.69959046 -35.94238281 242.00708008 C-34.97010742 242.64411865 -33.99783203 243.28115723 -32.99609375 243.9375 C-32.12267334 244.51757812 -31.24925293 245.09765625 -30.34936523 245.6953125 C-27.91608791 247.25594029 -27.91608791 247.25594029 -24.375 247.3125 C-20.47091207 245.79424358 -17.36858105 243.76861354 -14.015625 241.27734375 C-12 240 -12 240 -9 240 C-6.3125 242.5 -6.3125 242.5 -4 245 C-5.32856194 247.92643237 -6.79564177 250.0700763 -9.01171875 252.390625 C-9.60082031 253.01324219 -10.18992187 253.63585937 -10.796875 254.27734375 C-11.42078125 254.92832031 -12.0446875 255.57929687 -12.6875 256.25 C-13.97356296 257.60851722 -15.25873145 258.96788181 -16.54296875 260.328125 C-17.12071045 260.9355957 -17.69845215 261.54306641 -18.29370117 262.16894531 C-20.60581732 264.65011159 -22.82067337 267.2097629 -25.03125 269.78125 C-28.55766818 273.75546731 -32.22135996 277.60367304 -35.85595703 281.47875977 C-39.99963 285.90498133 -44.07298854 290.37911809 -48 295 C-52.09452213 293.32632672 -55.06634566 290.40982879 -58.3125 287.5 C-69.42736051 277.78768716 -81.48892464 269.96808237 -95 264 C-95.81339844 263.6390625 -96.62679687 263.278125 -97.46484375 262.90625 C-106.32312187 259.63550116 -119.30209799 258.9577416 -128.125 262.625 C-130.13096651 263.7108133 -130.13096651 263.7108133 -132 265 C-132.70382812 265.44730469 -133.40765625 265.89460938 -134.1328125 266.35546875 C-141.40745262 271.36181702 -145.57448578 277.55183467 -148 286 C-148.43850691 288.84811747 -148.52418663 291.62115464 -148.5 294.5 C-148.49645508 295.2739209 -148.49291016 296.0478418 -148.48925781 296.84521484 C-148.21187829 306.71228784 -145.26967503 315.99903447 -140.625 324.6875 C-139 328 -139 328 -139.25 331 C-139.4975 331.66 -139.745 332.32 -140 333 C-142.1875 333.8125 -142.1875 333.8125 -145 334 C-147.5625 331.875 -147.5625 331.875 -150 329 C-150.64839844 328.24074219 -151.29679687 327.48148438 -151.96484375 326.69921875 C-164.36714625 310.2500997 -167.14240891 287.61413514 -164.71582031 267.66357422 C-162.02798564 251.669877 -153.42539031 238.17465164 -140.24951172 228.74755859 C-129.15928808 221.45622962 -119.07802403 218.48494406 -105.875 218.8125 C-104.823125 218.82603516 -103.77125 218.83957031 -102.6875 218.85351562 C-100.12444046 218.88846644 -97.56251087 218.93752318 -95 219 C-94.83781982 218.43039551 -94.67563965 217.86079102 -94.50854492 217.27392578 C-92.396601 210.03235758 -89.89534103 202.96030554 -87.3125 195.875 C-86.89677734 194.72773437 -86.48105469 193.58046875 -86.05273438 192.3984375 C-85.03759802 189.59806135 -84.01997571 186.79861634 -83 184 C-96.83652281 183.33584691 -105.12934015 185.76892353 -116.65234375 193.51171875 C-119 195 -119 195 -122 196 C-122 183.3473257 -114.38589911 171.22335958 -105.78125 162.40625 C-94.86768231 152.96417458 -79.74510225 145.01699318 -65 146 C-64.8268074 145.45576889 -64.65361481 144.91153778 -64.47517395 144.35081482 C-62.65562666 138.7495955 -60.5625887 133.32929997 -58.26171875 127.91015625 C-57.90389816 127.05947571 -57.54607758 126.20879517 -57.17741394 125.33233643 C-56.41238827 123.5143096 -55.64591883 121.69688974 -54.87811279 119.8800354 C-52.85598173 115.09474677 -50.84453176 110.30496991 -48.83203125 105.515625 C-48.22355347 104.06866997 -48.22355347 104.06866997 -47.6027832 102.59248352 C-43.6494878 93.18389926 -39.75294309 83.75235011 -35.875 74.3125 C-35.57177826 73.57468292 -35.26855652 72.83686584 -34.95614624 72.07669067 C-33.30229138 68.05186676 -31.65019342 64.02632683 -30 60 C-36.5474436 56.42834324 -44.90856309 57.22636536 -52.078125 58.58203125 C-61.52268798 61.53683024 -69.16542922 68.42962453 -74 77 C-80.4 76.50769231 -80.4 76.50769231 -83.4375 73.9375 C-83.953125 73.298125 -84.46875 72.65875 -85 72 C-83.70434195 67.79883268 -82.10853247 64.06626742 -80.015625 60.203125 C-79.4167749 59.09179199 -78.8179248 57.98045898 -78.20092773 56.83544922 C-77.55074512 55.64023059 -76.90043276 54.44508253 -76.25 53.25 C-75.57907769 52.00951023 -74.90859257 50.76878392 -74.23852539 49.52783203 C-72.85335879 46.96368846 -71.46574566 44.40088962 -70.07666016 41.83886719 C-68.07385651 38.14136555 -66.08767844 34.43513492 -64.10546875 30.7265625 C-63.48833008 29.57381836 -62.87119141 28.42107422 -62.23535156 27.23339844 C-61.07062001 25.05767231 -59.9071291 22.8812814 -58.74511719 20.70410156 C-56.16429434 15.89784277 -53.54660717 11.11274286 -50.828125 6.3828125 C-50.37211914 5.58504395 -49.91611328 4.78727539 -49.44628906 3.96533203 C-46.94382831 0.56479033 -44.0038615 -0.19361809 -40 -1 C-39.23300781 -1.19980469 -38.46601562 -1.39960938 -37.67578125 -1.60546875 C-25.45718184 -4.39347995 -11.78370694 -4.38112181 0 0 Z " fill="#FEFDFD" transform="translate(636,455)"/>
<path d="M0 0 C8.63067088 6.47682204 16.32636521 14.00855112 21.58203125 23.46875 C24.39226959 22.13856793 26.87045414 20.64504763 29.3828125 18.81640625 C30.4668335 18.03015869 30.4668335 18.03015869 31.57275391 17.22802734 C32.33894043 16.66809082 33.10512695 16.1081543 33.89453125 15.53125 C34.68907715 14.95584473 35.48362305 14.38043945 36.30224609 13.78759766 C40.16836207 10.98267769 44.01336272 8.15429505 47.8203125 5.26953125 C48.47797607 4.77509521 49.13563965 4.28065918 49.81323242 3.77124023 C51.03453385 2.8506589 52.25004223 1.92231655 53.45825195 0.98461914 C60.93497563 -4.63666165 67.68853729 -6.0271434 76.95703125 -5.90625 C78.27960938 -5.92365234 78.27960938 -5.92365234 79.62890625 -5.94140625 C93.03316431 -5.88244324 104.76306398 -0.42394581 114.45703125 8.78125 C120.05620441 14.71637355 125.68083868 22.04432724 125.72679138 30.49182129 C125.73368988 31.30778275 125.74058838 32.1237442 125.74769592 32.96443176 C125.75161598 34.30171577 125.75161598 34.30171577 125.75561523 35.66601562 C125.76230225 36.60773117 125.76898926 37.54944672 125.77587891 38.5196991 C125.78993374 40.56586918 125.80182642 42.61205498 125.81182671 44.6582489 C125.82822049 47.89384693 125.85145639 51.12932801 125.87672424 54.36486816 C125.94755492 63.56463819 126.00770679 72.76445524 126.05883789 81.96435547 C126.0905805 87.58941167 126.1318408 93.2143324 126.17903328 98.83927917 C126.19507812 100.98591177 126.20738816 103.13257557 126.21594048 105.2792511 C126.22805724 108.27680268 126.25219061 111.27403395 126.27905273 114.27148438 C126.27993645 115.60876839 126.27993645 115.60876839 126.28083801 116.97306824 C126.29055634 117.78902969 126.30027466 118.60499115 126.31028748 119.44567871 C126.31663538 120.50865299 126.31663538 120.50865299 126.32311153 121.5931015 C126.48915724 123.80145799 126.48915724 123.80145799 128.58203125 126.46875 C132.31115414 126.10314972 135.03391349 125.80017004 138.26953125 123.84375 C140.58203125 122.46875 140.58203125 122.46875 142.70703125 122.59375 C144.95449023 123.64256419 146.17968846 124.40213958 147.58203125 126.46875 C147.37615967 129.71935387 146.84948846 131.17265596 144.6484375 133.609375 C143.82214844 134.30546875 142.99585938 135.0015625 142.14453125 135.71875 C141.23832031 136.49734375 140.33210938 137.2759375 139.3984375 138.078125 C138.46902344 138.86703125 137.53960938 139.6559375 136.58203125 140.46875 C134.91012291 141.96290537 133.24331985 143.46279583 131.58203125 144.96875 C119.91536458 155.46875 108.24869792 165.96875 96.58203125 176.46875 C92.29195801 175.03872559 89.4832247 172.92143442 86.08203125 169.96875 C80.3742217 165.08946495 74.47770107 160.49292299 68.50830078 155.93896484 C64.6299651 152.97884602 60.75893518 150.00953391 56.89453125 147.03125 C56.10353027 146.42764648 55.3125293 145.82404297 54.49755859 145.20214844 C53.75844238 144.63141602 53.01932617 144.06068359 52.2578125 143.47265625 C51.59692627 142.96549072 50.93604004 142.4583252 50.25512695 141.93579102 C48.58203125 140.46875 48.58203125 140.46875 46.58203125 137.46875 C47.37867188 137.0665625 47.37867188 137.0665625 48.19140625 136.65625 C54.98481617 132.88764304 57.18556267 128.65815573 59.58203125 121.46875 C59.69313779 118.99133324 59.7496371 116.54126881 59.7590332 114.06323242 C59.76889 112.93586418 59.76889 112.93586418 59.77894592 111.78572083 C59.79865593 109.29855243 59.81033612 106.81144434 59.8203125 104.32421875 C59.82438803 103.47391901 59.82846355 102.62361927 59.83266258 101.74755287 C59.85351313 97.24731312 59.86781946 92.74710377 59.87719727 88.24682617 C59.88826204 83.60297236 59.9226654 78.95959766 59.96236897 74.3159132 C59.98853425 70.74106465 59.99688899 67.16633031 60.00047874 63.59139442 C60.00534463 61.8798022 60.01695873 60.16821507 60.03551674 58.45671654 C60.05990802 56.05824338 60.05894375 53.66101081 60.05200195 51.26245117 C60.06481201 50.55937836 60.07762207 49.85630554 60.09082031 49.13192749 C60.03817287 44.12622096 58.68114797 41.34236189 55.58203125 37.46875 C51.37055967 33.58123778 47.86744221 31.67651463 42.14453125 31.15625 C38.25501896 31.49743529 35.94923172 32.55556791 32.58203125 34.46875 C31.59203125 34.79875 30.60203125 35.12875 29.58203125 35.46875 C28.4568704 37.30159443 28.4568704 37.30159443 27.58203125 39.46875 C27.06554268 40.2961544 27.06554268 40.2961544 26.53862 41.14027405 C25.20858169 44.37778046 25.31138433 47.469022 25.33911133 50.91186523 C25.33626381 52.0272316 25.33626381 52.0272316 25.33335876 53.16513062 C25.32965893 55.61930947 25.3403453 58.07319126 25.3515625 60.52734375 C25.35275506 62.23600734 25.3532073 63.94467159 25.35295105 65.65333557 C25.35451464 69.23353178 25.36279384 72.81362782 25.3762207 76.39379883 C25.39319741 80.97812062 25.39703528 85.56233224 25.39627552 90.14668179 C25.39654777 93.6751663 25.40203807 97.20362683 25.40927696 100.73210335 C25.41245459 102.42215862 25.41442892 104.11221661 25.41517067 105.8022747 C25.41734458 108.16697669 25.42611185 110.53156317 25.43676758 112.89624023 C25.43631439 113.59198654 25.43586121 114.28773285 25.43539429 115.00456238 C25.45912883 118.61613565 25.73104155 121.95552446 26.58203125 125.46875 C27.16210938 125.31277344 27.7421875 125.15679688 28.33984375 124.99609375 C33.02611492 123.82839252 36.8414647 122.96564353 41.58203125 124.46875 C43.75809832 127.7328506 44.20006539 128.68116463 43.58203125 132.46875 C41.5625 134.828125 41.5625 134.828125 38.76953125 137.21875 C38.27179199 137.6506665 37.77405273 138.08258301 37.26123047 138.52758789 C35.71566129 139.85921135 34.15295819 141.16718162 32.58203125 142.46875 C31.68355469 143.21511719 30.78507813 143.96148438 29.859375 144.73046875 C28.0668463 146.20092307 26.26849245 147.66430057 24.46484375 149.12109375 C21.30186788 151.69690472 18.18893398 154.32589196 15.08203125 156.96875 C0.48678842 169.36592715 0.48678842 169.36592715 -6.41796875 174.46875 C-10.33527803 172.81687259 -13.30872445 170.16439058 -16.48046875 167.40625 C-17.65303397 166.400328 -18.82621961 165.39512879 -20 164.390625 C-20.58088379 163.89240234 -21.16176758 163.39417969 -21.76025391 162.88085938 C-24.03741201 160.94108287 -26.3488829 159.04561244 -28.66796875 157.15625 C-29.53808594 156.4446875 -30.40820312 155.733125 -31.3046875 155 C-33.0373477 153.58720653 -34.77532048 152.18160571 -36.51806641 150.78125 C-38.84383309 148.91232151 -41.16225098 147.03452996 -43.48046875 145.15625 C-44.23166992 144.55707764 -44.98287109 143.95790527 -45.75683594 143.34057617 C-46.46098633 142.76799072 -47.16513672 142.19540527 -47.890625 141.60546875 C-48.52234619 141.09717529 -49.15406738 140.58888184 -49.80493164 140.06518555 C-51.55553256 138.33260201 -52.44626274 136.71739883 -53.41796875 134.46875 C-52.08765625 133.85 -52.08765625 133.85 -50.73046875 133.21875 C-45.69045687 129.76091096 -44.01795712 124.14478034 -42.41796875 118.46875 C-41.5714312 112.56429487 -41.76000045 106.57800102 -41.82421875 100.62890625 C-41.82593362 98.93167709 -41.82586036 97.23444529 -41.82409668 95.53721619 C-41.82573913 92.00461004 -41.84424923 88.47264685 -41.87597656 84.94018555 C-41.91586509 80.41866795 -41.9199905 75.89798128 -41.91251373 71.37632084 C-41.90944341 67.8820996 -41.92156324 64.38806438 -41.93864441 60.89388847 C-41.94565639 59.2261719 -41.94880114 57.5584343 -41.94795227 55.8907032 C-41.94975355 53.56484951 -41.97115539 51.2399882 -41.99804688 48.91430664 C-41.99511627 48.23112869 -41.99218567 47.54795074 -41.98916626 46.84407043 C-42.06535419 42.56524276 -42.80054034 39.86896728 -45.41796875 36.46875 C-51.5678341 32.59166097 -58.31960232 32.64654539 -65.41796875 33.46875 C-70.04824018 35.62422118 -72.20805316 37.92507276 -74.41796875 42.46875 C-74.70188531 45.07543517 -74.82886595 47.43897035 -74.80615234 50.04125977 C-74.8114093 50.78658966 -74.81666626 51.53191956 -74.82208252 52.29983521 C-74.83524274 54.75349127 -74.82655979 57.20649406 -74.81640625 59.66015625 C-74.81842792 61.36978784 -74.82134014 63.0794186 -74.82510376 64.78904724 C-74.82952153 68.3675052 -74.82311296 71.94573816 -74.80908203 75.52416992 C-74.79197741 80.1098369 -74.8018427 84.6949776 -74.81979942 89.28062534 C-74.83064105 92.80909693 -74.82718943 96.33744377 -74.81941605 99.86591911 C-74.81741575 101.55680338 -74.81986732 103.24769901 -74.82685471 104.93857002 C-74.83447697 107.3012302 -74.82285547 109.66303805 -74.80615234 112.02563477 C-74.81222504 112.7234053 -74.81829773 113.42117584 -74.82455444 114.14009094 C-74.78510788 117.15315064 -74.54110927 119.23875443 -73.10855103 121.91441345 C-71.37566064 123.82345803 -71.37566064 123.82345803 -67.98046875 123.78125 C-65.296929 123.54585178 -62.96773728 123.28467593 -60.41796875 122.46875 C-58.43796875 125.43875 -58.43796875 125.43875 -56.41796875 128.46875 C-57.92848898 132.14545584 -60.06683025 134.18749462 -63.04296875 136.78125 C-64.40035156 137.97234375 -64.40035156 137.97234375 -65.78515625 139.1875 C-66.65398437 139.9403125 -67.5228125 140.693125 -68.41796875 141.46875 C-69.05992187 142.0359375 -69.701875 142.603125 -70.36328125 143.1875 C-73.41723334 145.88449665 -76.50227519 148.54352283 -79.60546875 151.18359375 C-80.7931339 152.19511862 -81.98062877 153.20684346 -83.16796875 154.21875 C-83.76697998 154.72889648 -84.36599121 155.23904297 -84.9831543 155.76464844 C-90.05212499 160.10462764 -94.94610685 164.60975145 -99.796875 169.19140625 C-102.22893949 171.30451146 -104.60365494 172.9165516 -107.41796875 174.46875 C-108.01222656 173.92347656 -108.60648438 173.37820313 -109.21875 172.81640625 C-113.65134171 168.78364396 -118.1242948 164.85179468 -122.79296875 161.09375 C-126.80621518 157.8492381 -130.64228313 154.48144042 -134.41796875 150.96875 C-139.08238761 146.63007135 -143.89996156 142.5489561 -148.859375 138.546875 C-156.08131293 132.68111778 -156.08131293 132.68111778 -159.41796875 129.46875 C-159.41796875 129.13875 -159.41796875 128.80875 -159.41796875 128.46875 C-158.83789062 128.38238281 -158.2578125 128.29601562 -157.66015625 128.20703125 C-151.82203332 127.15693983 -148.57812117 125.73036955 -144.41796875 121.46875 C-141.95554629 117.8271625 -142.1155111 114.08783847 -142.11157227 109.84204102 C-142.10324875 109.0789563 -142.09492523 108.31587158 -142.08634949 107.52966309 C-142.06228093 105.01060872 -142.05348204 102.49181335 -142.046875 99.97265625 C-142.03790746 98.21915103 -142.02878559 96.46564659 -142.01951599 94.71214294 C-142.00303284 91.03781271 -141.9953269 87.36357354 -141.99243164 83.68920898 C-141.98704332 78.98348012 -141.9493424 74.27860785 -141.90368748 69.57312107 C-141.87393294 65.95196918 -141.86670847 62.33102418 -141.86570549 58.70976067 C-141.86150128 56.97500617 -141.84905882 55.24025117 -141.82818794 53.50561714 C-141.80130065 51.07805579 -141.80608911 48.65248822 -141.81860352 46.22485352 C-141.80376923 45.51040573 -141.78893494 44.79595795 -141.77365112 44.05986023 C-141.83075308 40.16591347 -142.33101193 38.57645242 -144.81065369 35.50523376 C-147.17992773 33.30860004 -147.17992773 33.30860004 -149.734375 33.12890625 C-150.84619141 33.32806641 -150.84619141 33.32806641 -151.98046875 33.53125 C-152.72425781 33.64597656 -153.46804688 33.76070312 -154.234375 33.87890625 C-156.45968668 34.39937842 -156.45968668 34.39937842 -158.5078125 35.53515625 C-161.44005402 36.96829679 -163.34725471 36.36437493 -166.41796875 35.46875 C-168.79296875 33.53125 -168.79296875 33.53125 -170.41796875 31.46875 C-170.41796875 30.80875 -170.41796875 30.14875 -170.41796875 29.46875 C-168.86556534 28.07549046 -167.2476689 26.75494872 -165.60546875 25.46875 C-161.57849581 22.25129658 -157.70739863 18.96836778 -153.91796875 15.46875 C-149.45123051 11.3578259 -144.85187426 7.48756129 -140.09375 3.71875 C-137.36837213 1.50852511 -137.36837213 1.50852511 -134.9609375 -1.09375 C-130.51493274 -5.69058853 -127.59154711 -8.11753554 -121.04296875 -8.28125 C-107.78084238 -7.25390218 -95.01161178 -3.12489303 -85.41796875 6.46875 C-78.2413448 15.48056053 -78.2413448 15.48056053 -77.41796875 21.46875 C-71.40870609 19.50920783 -67.68446754 16.22847152 -63.09765625 11.94140625 C-58.7157386 7.89803325 -54.07539354 4.18768619 -49.41796875 0.46875 C-48.69480469 -0.12292969 -47.97164062 -0.71460938 -47.2265625 -1.32421875 C-32.79762432 -12.76006995 -14.92257352 -9.45015964 0 0 Z " fill="#FEFDFD" transform="translate(956.41796875,580.53125)"/>
<path d="M0 0 C13.79983472 4.69851515 24.44459767 13.23752765 31.17201233 26.26823425 C32.45574759 30.32311376 32.37757688 34.1120249 32.36499023 38.34106445 C32.37021698 39.25553345 32.37544373 40.17000244 32.38082886 41.11218262 C32.39105365 43.09391378 32.39684661 45.07567169 32.39871025 47.05742836 C32.40237885 50.19801437 32.41911993 53.33828601 32.43946838 56.47880554 C32.49482859 65.40662786 32.52553654 74.33449653 32.55004883 83.26245117 C32.56595736 88.72777082 32.59621211 94.19286758 32.63481331 99.65807152 C32.64643526 101.7363771 32.65239341 103.81472261 32.65249443 105.89306068 C32.65268731 108.8056516 32.67101463 111.71763136 32.69311523 114.63012695 C32.68853806 115.48182968 32.68396088 116.33353241 32.679245 117.21104431 C32.7496434 123.07123365 33.36126016 129.1551294 37.47475338 133.7083025 C43.22482755 138.68217364 47.53957702 139.63725048 54.9921875 139.4921875 C62.44979141 138.74079164 69.21413437 134.86835858 74.09375 129.1796875 C76.73797125 124.67549801 77.4745592 121.38538606 77.49780273 116.18383789 C77.50466599 115.51145584 77.51152924 114.83907379 77.51860046 114.14631653 C77.53679266 111.93977299 77.53304213 109.73394566 77.52734375 107.52734375 C77.53190929 105.98326895 77.53721597 104.43919619 77.54322815 102.89512634 C77.55214439 99.66478196 77.54975333 96.434685 77.53979492 93.2043457 C77.52830818 89.07735237 77.54851894 84.95121507 77.57771206 80.82433414 C77.59611324 77.63714733 77.59577385 74.45016418 77.59007454 71.26293755 C77.5899218 69.74198646 77.59592718 68.22102116 77.60836601 66.70012093 C77.88932051 55.7167046 77.88932051 55.7167046 73.09375 46.1796875 C69.88207751 44.57385126 66.57766051 44.68828602 63.09375 45.1796875 C61.13558868 46.07255994 61.13558868 46.07255994 59.34375 47.2421875 C56.09375 49.1796875 56.09375 49.1796875 53.96875 49.3046875 C51.01573492 47.53287845 49.25932111 44.84227493 47.09375 42.1796875 C50.78916557 38.45933401 54.48802082 34.74244524 58.18994141 31.02856445 C59.4457482 29.76776535 60.70065164 28.50606574 61.95458984 27.2434082 C74.65933521 14.45261476 74.65933521 14.45261476 80.50024414 9.60546875 C82.35201717 7.94860426 83.91912134 6.13061858 85.53125 4.2421875 C88.24071906 1.56892515 89.01665132 1.19460983 92.96875 0.4296875 C107.81490478 1.72396766 123.18876295 8.07615446 133.40625 18.99609375 C139.26243806 26.57389265 141.24586007 33.7847417 141.21972656 43.18603516 C141.22252876 44.39176682 141.22252876 44.39176682 141.22538757 45.62185669 C141.22938675 47.36570541 141.23146597 49.10955936 141.23184967 50.85341263 C141.23527564 54.57106638 141.25665506 58.28854689 141.27708054 62.00613976 C141.31502501 68.92289867 141.34637093 75.83947268 141.34423828 82.75634766 C141.34344806 87.57229232 141.36694814 92.38760195 141.4061203 97.20338058 C141.41653605 99.03162145 141.41813717 100.85993601 141.41046906 102.68819046 C141.37223769 112.81718769 141.56976117 120.36597476 147.09375 129.1796875 C147.09375 129.8396875 147.09375 130.4996875 147.09375 131.1796875 C150.71305698 132.38612316 153.28606005 132.50237309 157.09375 132.1796875 C159.11831848 130.88396367 161.12053947 129.5523557 163.09375 128.1796875 C166.11669474 127.68758022 167.38670429 127.73189189 169.96875 129.3671875 C171.09375 131.1796875 171.09375 131.1796875 170.86976624 133.55789185 C169.98834391 136.53580535 168.99371635 137.77065492 166.80249023 139.94091797 C166.10764023 140.63869354 165.41279022 141.33646912 164.69688416 142.0553894 C163.56108665 143.16492477 163.56108665 143.16492477 162.40234375 144.296875 C161.62367447 145.07225616 160.84500519 145.84763733 160.04273987 146.64651489 C157.54811274 149.12539022 155.03968589 151.58979499 152.53125 154.0546875 C150.86827955 155.70616463 149.20616027 157.35849934 147.54492188 159.01171875 C145.93565975 160.60754155 144.32565664 162.20261754 142.71484375 163.796875 C141.97181503 164.53251678 141.22878632 165.26815857 140.46324158 166.02609253 C136.38473691 170.031578 132.22578417 173.89003108 127.88246155 177.60745239 C125.15339083 180.00624095 122.63043629 182.57958405 120.09375 185.1796875 C116.64595914 183.67962359 114.27014467 181.67559488 111.53125 179.1171875 C108.03456047 175.90677665 104.48575607 172.83512511 100.78125 169.8671875 C95.88964418 165.91360268 91.26432099 161.73398401 86.68432617 157.4284668 C83.25396732 154.2102393 79.73291708 151.16064947 76.09375 148.1796875 C71.5518301 149.75155653 67.75404718 152.22355079 63.78125 154.8671875 C55.48756421 160.31526356 47.08769091 165.58057224 38.65185547 170.80541992 C32.39803957 174.69204324 26.29175736 178.68346088 20.36328125 183.0546875 C18.09375 184.1796875 18.09375 184.1796875 15.7734375 184.2265625 C11.7662691 182.6610798 8.74265944 180.10727139 5.40625 177.4296875 C3.88302689 176.237643 2.35823689 175.04759849 0.83203125 173.859375 C0.04908691 173.24803711 -0.73385742 172.63669922 -1.54052734 172.00683594 C-21.31497824 156.68041567 -21.31497824 156.68041567 -42.90625 144.1796875 C-42.90625 143.5196875 -42.90625 142.8596875 -42.90625 142.1796875 C-42.29136719 142.00953125 -41.67648437 141.839375 -41.04296875 141.6640625 C-36.06820448 140.23129676 -36.06820448 140.23129676 -31.90625 137.3046875 C-29.71968747 132.65824213 -29.76777775 127.93522601 -29.72924805 122.87011719 C-29.72267685 122.1523259 -29.71610565 121.43453461 -29.70933533 120.69499207 C-29.68970066 118.33051429 -29.67796167 115.96609974 -29.66796875 113.6015625 C-29.66185546 112.38412731 -29.66185546 112.38412731 -29.65561867 111.14209747 C-29.6347996 106.84587361 -29.62048006 102.54968128 -29.61108398 98.25341797 C-29.60002937 93.83410639 -29.5656287 89.41529964 -29.52591228 84.99616623 C-29.49967237 81.58161533 -29.49138564 78.16718343 -29.48780251 74.75254059 C-29.48295545 73.12436769 -29.47139554 71.49619943 -29.45276451 69.86812592 C-29.07274819 57.39459571 -29.07274819 57.39459571 -33.90625 46.1796875 C-37.39199341 43.85585856 -38.95735335 44.14449456 -42.98828125 44.75390625 C-44.99993526 45.11906497 -44.99993526 45.11906497 -47.03125 46.2421875 C-49.67395017 47.56353758 -52.00008591 47.31178587 -54.90625 47.1796875 C-56.22625 44.5396875 -57.54625 41.8996875 -58.90625 39.1796875 C-52.36466686 33.56174982 -45.78413648 28.02632982 -38.96875 22.7421875 C-34.03510291 18.91564309 -29.25098267 14.95445062 -24.53125 10.8671875 C-22.8230756 9.3980545 -21.11357952 7.93049114 -19.40283203 6.46435547 C-18.09712632 5.34353599 -16.79619464 4.21715976 -15.49609375 3.08984375 C-10.16340103 -1.27700482 -6.81768294 -1.92434599 0 0 Z " fill="#FEFDFD" transform="translate(1163.90625,573.8203125)"/>
<path d="M0 0 C2.72061468 0.72696587 5.15355514 1.47791969 7.75 2.5 C8.44174316 2.76844727 9.13348633 3.03689453 9.84619141 3.31347656 C24.0233637 9.06814497 36.48940423 18.94922587 43 33 C43.33 33.66 43.66 34.32 44 35 C44.10090812 37.37042706 44.14167246 39.71180331 44.13803101 42.0826416 C44.14085229 42.82050132 44.14367357 43.55836104 44.14658034 44.31858015 C44.15494842 46.80419413 44.1562665 49.28976369 44.15771484 51.77539062 C44.16238165 53.55254238 44.16752499 55.32969294 44.17311096 57.10684204 C44.18440654 60.94171538 44.19283386 64.77658087 44.19923019 68.61146545 C44.20990107 74.6800934 44.23014539 80.7486654 44.25234985 86.81726074 C44.31429859 104.07704087 44.36823206 121.33681846 44.40136719 138.59667969 C44.41973675 148.12332622 44.44870578 157.64987975 44.4893719 167.17645788 C44.51040993 172.21705287 44.52589456 177.25753079 44.52817917 182.298172 C44.53033327 187.04570293 44.54628027 191.79299051 44.57256889 196.54044724 C44.57973549 198.27779675 44.58187573 200.01517583 44.57846642 201.75253677 C44.4777605 214.66564271 44.4777605 214.66564271 48 227 C49.19973932 228.42316807 49.19973932 228.42316807 52.6875 228.1875 C56.4413853 228.15368121 59.49442596 227.40222961 63 226 C66.96427983 230.20453921 66.96427983 230.20453921 67.1015625 233.26171875 C65.35617245 237.60043656 61.93683425 239.79991594 58.3125 242.625 C57.54301025 243.24109131 56.77352051 243.85718262 55.98071289 244.49194336 C53.66411039 246.34144452 51.33428043 248.17288489 49 250 C47.77319108 250.96713541 46.54660703 251.93455619 45.3203125 252.90234375 C43.63535202 254.22933432 41.94864292 255.55381745 40.25683594 256.87207031 C34.96648612 260.99690417 29.76961368 265.2335905 24.59155273 269.49829102 C22.7399387 271.01493492 20.87449933 272.51176416 19 274 C18.06583252 274.75651855 18.06583252 274.75651855 17.11279297 275.52832031 C12.5428954 279.05634446 12.5428954 279.05634446 10.00048828 278.79248047 C7.80757181 277.92377082 6.46725813 276.94694538 4.71484375 275.375 C4.10761475 274.8380249 3.50038574 274.3010498 2.87475586 273.74780273 C1.91581421 272.88264038 1.91581421 272.88264038 0.9375 272 C-0.4156065 270.80218673 -1.76977893 269.60557654 -3.125 268.41015625 C-3.78757812 267.82379395 -4.45015625 267.23743164 -5.1328125 266.63330078 C-7.56217771 264.50824151 -10.05214505 262.46595646 -12.5625 260.4375 C-17.47101121 256.46219376 -22.27144637 252.37177427 -27.05493164 248.24780273 C-27.61043701 247.76899658 -28.16594238 247.29019043 -28.73828125 246.796875 C-29.27662598 246.33216797 -29.8149707 245.86746094 -30.36962891 245.38867188 C-32.03451028 243.9706058 -33.72432169 242.58662573 -35.41796875 241.203125 C-36.27003906 240.47609375 -37.12210938 239.7490625 -38 239 C-38 238.67 -38 238.34 -38 238 C-37.38511719 237.84144531 -36.77023437 237.68289063 -36.13671875 237.51953125 C-31.04151602 236.10641583 -31.04151602 236.10641583 -27.0625 232.8125 C-23.77644664 224.11412345 -23.70825139 215.87571607 -23.7253418 206.69897461 C-23.72098933 205.15251928 -23.71580441 203.6060661 -23.70985413 202.05961609 C-23.69651336 197.8779105 -23.69587973 193.69629556 -23.69841743 189.51457286 C-23.69949004 186.01796706 -23.69459658 182.52137938 -23.689812 179.02477747 C-23.67873482 170.77521209 -23.67826996 162.52569226 -23.68432617 154.27612305 C-23.69037128 145.7747857 -23.67803726 137.27361363 -23.6567561 128.77230448 C-23.63913071 121.46168018 -23.63314005 114.15110846 -23.63639385 106.8404637 C-23.63820464 102.47911139 -23.63559046 98.11787712 -23.62167931 93.75654411 C-23.60908953 89.6565538 -23.61105583 85.55682122 -23.62409019 81.45683479 C-23.62645266 79.95525144 -23.6237331 78.45364987 -23.61546707 76.9520874 C-23.35688701 65.26503355 -23.35688701 65.26503355 -28.5625 55.125 C-31.39284459 52.90994771 -33.99317211 52.49471909 -37.57421875 52.5078125 C-41.78822691 53.36282865 -44.99716659 55.85231852 -48.484375 58.2734375 C-50.61327795 59.73457897 -52.662837 60.91878908 -55 62 C-60.65457917 58.63131453 -60.65457917 58.63131453 -61.9861908 56.1975708 C-62.00449827 53.28415409 -60.74602379 52.11689308 -58.78637695 50.07540894 C-58.29041016 49.58485016 -57.79444336 49.09429138 -57.28344727 48.58886719 C-56.76975082 48.06159027 -56.25605438 47.53431335 -55.72679138 46.99105835 C-54.01954997 45.2464263 -52.29419937 43.52114025 -50.56640625 41.796875 C-49.37292911 40.59241322 -48.17997846 39.38742954 -46.98753357 38.1819458 C-44.48144681 35.65492171 -41.96572645 33.13796803 -39.44360352 30.62695312 C-36.21661397 27.41163314 -33.02015331 24.16776349 -29.83104038 20.91492844 C-27.3732896 18.41653162 -24.89730986 15.93683838 -22.41578484 13.46207428 C-21.22977127 12.27385665 -20.05008014 11.07929272 -18.87698555 9.87831879 C-17.23018162 8.19692482 -15.55977174 6.54305548 -13.88110352 4.89355469 C-13.4033548 4.39489899 -12.92560608 3.89624329 -12.43338013 3.38247681 C-8.28264074 -0.60622681 -5.45960432 -0.52191015 0 0 Z " fill="#FEFEFE" transform="translate(1386,478)"/>
<path d="M0 0 C1.24649831 2.49299662 1.11485796 4.13842546 1.10006714 6.92784119 C1.09562592 8.49049461 1.09562592 8.49049461 1.09109497 10.0847168 C1.08278656 11.23230469 1.07447815 12.37989258 1.06591797 13.56225586 C1.05890869 15.36962975 1.05890869 15.36962975 1.05175781 17.21351624 C1.0412337 19.83706267 1.02895439 22.46053957 1.01403427 25.08405876 C0.99100485 29.23103857 0.97767766 33.37801346 0.96633911 37.52503967 C0.93287606 49.31843187 0.89124215 61.11175334 0.82861328 72.9050293 C0.79411605 79.4163394 0.77029023 85.92759704 0.75840485 92.43898875 C0.75162554 95.88597705 0.73913617 99.33274297 0.71337509 102.77964592 C0.6846558 106.62256306 0.67901352 110.46532273 0.67529297 114.30834961 C0.6629361 115.45391327 0.65057922 116.59947693 0.6378479 117.77975464 C0.64052673 118.82434341 0.64320557 119.86893219 0.64596558 120.94517517 C0.64190138 121.85423079 0.63783718 122.76328642 0.63364983 123.69988918 C1.07418398 126.46576033 1.81475175 127.30766862 4 129 C6.03077684 129.98628417 6.03077684 129.98628417 8.1875 130.6875 C8.90292969 130.93886719 9.61835937 131.19023438 10.35546875 131.44921875 C10.89816406 131.63097656 11.44085937 131.81273437 12 132 C12 133.65 12 135.3 12 137 C8.65246142 138.89060255 5.4085623 139.70179063 1.66015625 140.5078125 C0.43232422 140.77207031 -0.79550781 141.03632812 -2.06054688 141.30859375 C-3.97963867 141.71271484 -3.97963867 141.71271484 -5.9375 142.125 C-7.21302734 142.40214844 -8.48855469 142.67929688 -9.80273438 142.96484375 C-15.02889236 144.07749196 -19.63189368 145 -25 145 C-25.66 140.71 -26.32 136.42 -27 132 C-28.299375 133.4025 -29.59875 134.805 -30.9375 136.25 C-37.86079895 143.05540996 -43.24158926 145.34487263 -53 145.5 C-62.75504781 145.36727826 -69.1211253 142.52199475 -76.21484375 135.921875 C-84.85530125 126.61967568 -87.26836503 115.93810322 -87.15234375 103.5625 C-86.53857639 89.20978635 -81.26823785 75.61183754 -70.6875 65.75 C-62.3117241 58.67366994 -55.19063452 55.83288359 -44.25 55.75 C-43.58484375 55.729375 -42.9196875 55.70875 -42.234375 55.6875 C-36.71756286 55.64506298 -32.12411977 57.02368156 -27 59 C-26.9011636 53.78561957 -26.82854794 48.57178357 -26.78027344 43.35668945 C-26.76015097 41.58250431 -26.7328497 39.80838554 -26.69824219 38.03442383 C-26.64975008 35.48502233 -26.62703847 32.93649705 -26.609375 30.38671875 C-26.58872986 29.59287277 -26.56808472 28.79902679 -26.54681396 27.98112488 C-26.49885673 23.59406164 -26.49885673 23.59406164 -28.82128906 20.05004883 C-31.48424201 18.76661532 -34.16696545 17.83703294 -37 17 C-36.78125 14.62109375 -36.78125 14.62109375 -36 12 C-34.09375 10.84765625 -34.09375 10.84765625 -31.5 10.0625 C-30.51902344 9.74667969 -29.53804687 9.43085937 -28.52734375 9.10546875 C-26.78130859 8.55826172 -26.78130859 8.55826172 -25 8 C-22.01310648 6.98006836 -19.03825667 5.92689686 -16.0625 4.875 C-15.32902344 4.62113525 -14.59554688 4.36727051 -13.83984375 4.10571289 C-11.05983747 3.13598053 -8.35837089 2.18757021 -5.74609375 0.8203125 C-4 0 -4 0 0 0 Z " fill="#F9FDFB" transform="translate(1581,902)"/>
<path d="M0 0 C7.47288003 6.89165603 12.18859583 17.05676002 13.09375 27.09765625 C13.24597411 42.28962204 9.59285552 55.42754853 -1.1171875 66.68359375 C-12.83534156 77.7544593 -26.9230412 81.16885463 -42.65625 80.74609375 C-53.30643603 80.12405535 -62.55665709 75.7065586 -70.2421875 68.37109375 C-70.79261719 67.84902344 -71.34304688 67.32695313 -71.91015625 66.7890625 C-80.17205243 58.05991255 -83.59750832 47.45474024 -83.453125 35.6875 C-82.55522722 21.57055158 -76.86054187 8.845383 -66.2421875 -0.62890625 C-46.40381748 -15.07213881 -19.69766737 -14.30997786 0 0 Z " fill="#FBFDFC" transform="translate(1161.2421875,967.62890625)"/>
<path d="M0 0 C1.42276354 2.84552709 1.07532775 5.1972199 1.02172852 8.37744141 C1.01212097 9.03122269 1.00251343 9.68500397 0.99261475 10.3585968 C0.95959143 12.52302712 0.91927203 14.68725768 0.87890625 16.8515625 C0.85460837 18.3508534 0.83076465 19.85015172 0.80735779 21.34945679 C0.7444837 25.29838508 0.67542653 29.24718218 0.60510254 33.19598389 C0.53444907 37.22434507 0.46961425 41.25279938 0.40429688 45.28125 C0.2752417 53.1876031 0.13965757 61.09382711 0 69 C0.5450972 68.51743744 1.0901944 68.03487488 1.65180969 67.53768921 C2.72775642 66.58969955 2.72775642 66.58969955 3.82543945 65.62255859 C4.53553665 64.99562103 5.24563385 64.36868347 5.97724915 63.7227478 C8.26238483 61.77653062 10.60352773 60.15093468 13.1875 58.625 C14.38439453 57.90183594 14.38439453 57.90183594 15.60546875 57.1640625 C22.21023278 53.95326367 30.7736794 53.91238743 37.79296875 55.71875 C44.85660019 58.36894757 50.58332061 61.8980442 54.1315918 68.84960938 C59.24100817 81.50177114 58.4592751 95.01068232 58.51123047 108.39257812 C58.52691427 111.18904829 58.55986844 113.98495072 58.59375 116.78125 C58.59072876 117.6333606 58.58770752 118.48547119 58.58459473 119.36340332 C58.64411204 124.06384817 58.95605128 127.17825119 62 131 C64.00522995 132.44593605 64.00522995 132.44593605 66.1875 133.5 C68.3203125 134.734375 68.3203125 134.734375 70 136 C70.5625 138.75 70.5625 138.75 70 141 C68.44093218 142.55906782 66.93845719 142.12722371 64.77148438 142.12939453 C63.42503845 142.13412277 63.42503845 142.13412277 62.0513916 142.13894653 C61.07536987 142.1369223 60.09934814 142.13489807 59.09375 142.1328125 C57.6011969 142.13424759 57.6011969 142.13424759 56.07849121 142.13571167 C53.97013282 142.1363936 51.86177235 142.13453844 49.75341797 142.13037109 C46.51394973 142.12502303 43.27462015 142.13031567 40.03515625 142.13671875 C37.99218719 142.13605797 35.94921822 142.13477681 33.90625 142.1328125 C32.44221741 142.13584885 32.44221741 142.13584885 30.9486084 142.13894653 C30.05097778 142.13579437 29.15334717 142.13264221 28.22851562 142.12939453 C27.43433228 142.12859894 26.64014893 142.12780334 25.82189941 142.12698364 C24 142 24 142 23 141 C22.69140625 138.63671875 22.69140625 138.63671875 23 136 C24.71484375 134.26953125 24.71484375 134.26953125 26.9375 132.8125 C30.00584213 130.88837056 30.00584213 130.88837056 32 128 C32.12360291 125.2960928 32.1884475 122.61907029 32.203125 119.9140625 C32.20882507 119.10190277 32.21452515 118.28974304 32.22039795 117.45297241 C32.22985979 115.72631128 32.23638661 113.99963199 32.24023438 112.27294922 C32.24983438 109.66990902 32.2808002 107.06769492 32.3125 104.46484375 C32.70602935 88.79327428 32.70602935 88.79327428 26.5625 74.875 C21.680569 71.30285537 18.13814363 70.28866373 12 71 C7.54641691 72.26184854 5.57061735 73.21869613 2.82788086 76.97412109 C0.32135408 81.64074229 0.44131935 86.15637304 0.50390625 91.3515625 C0.5017234 92.81715103 0.5017234 92.81715103 0.49949646 94.31234741 C0.50114967 96.36809282 0.51264575 98.42385136 0.53344727 100.47949219 C0.56247487 103.62227945 0.55402905 106.76338542 0.54101562 109.90625 C0.54725158 111.90886234 0.5556414 113.91146938 0.56640625 115.9140625 C0.56347061 116.85061676 0.56053497 117.78717102 0.55751038 118.75210571 C0.62775746 123.6144086 0.75279829 127.09984693 4 131 C6.42179311 132.4026712 6.42179311 132.4026712 9.125 133.25 C13.95964126 134.95964126 13.95964126 134.95964126 15 136 C15.125 138.5 15.125 138.5 15 141 C14 142 14 142 12.05747986 142.12025452 C11.20698563 142.11803391 10.35649139 142.11581329 9.48022461 142.11352539 C8.03884377 142.11341209 8.03884377 142.11341209 6.56834412 142.11329651 C5.523564 142.10813522 4.47878387 142.10297394 3.40234375 142.09765625 C1.80635094 142.09553383 1.80635094 142.09553383 0.17811584 142.09336853 C-3.23545083 142.08775064 -6.648953 142.07519511 -10.0625 142.0625 C-12.37044176 142.05748731 -14.67838455 142.052924 -16.98632812 142.04882812 C-22.65757426 142.0377754 -28.32878253 142.02101987 -34 142 C-34.57421875 139.59765625 -34.57421875 139.59765625 -35 137 C-33.53243667 135.06899561 -31.91022597 133.93804802 -29.91609192 132.56192017 C-26.89357986 128.52065549 -27.46717181 124.48704023 -27.5300293 119.57177734 C-27.5278389 118.51126663 -27.5256485 117.45075592 -27.52339172 116.35810852 C-27.52107893 112.85040169 -27.54734445 109.34353253 -27.57421875 105.8359375 C-27.57914101 103.40264147 -27.58244096 100.96934165 -27.58418274 98.53604126 C-27.59182636 93.43666495 -27.61240061 88.33756894 -27.64331055 83.23828125 C-27.68292751 76.68966869 -27.70092543 70.1412385 -27.71061993 63.59251976 C-27.72057631 57.36113411 -27.74047966 51.12979339 -27.76171875 44.8984375 C-27.76681237 43.10511049 -27.76681237 43.10511049 -27.7720089 41.27555466 C-27.78354185 37.90679272 -27.80205541 34.53814856 -27.82299805 31.16943359 C-27.8270314 29.66079994 -27.8270314 29.66079994 -27.83114624 28.12168884 C-27.83830154 27.20757736 -27.84545685 26.29346588 -27.85282898 25.35165405 C-27.85710246 24.55488943 -27.86137594 23.75812481 -27.86577892 22.93721581 C-27.88102175 20.91768872 -27.88102175 20.91768872 -29 19 C-30.88263881 18.09656316 -30.88263881 18.09656316 -33.0625 17.375 C-33.79597656 17.11460937 -34.52945312 16.85421875 -35.28515625 16.5859375 C-35.85105469 16.39257812 -36.41695313 16.19921875 -37 16 C-36.9375 13.6875 -36.9375 13.6875 -36 11 C-31.53014531 8.52731443 -26.78438688 7.35341116 -21.890625 5.96484375 C-17.16840538 4.38864342 -12.69924908 2.22585063 -8.19921875 0.109375 C-4.84351847 -1.05426222 -3.30020974 -1.22630744 0 0 Z " fill="#F9FCFA" transform="translate(353,903)"/>
<path d="M0 0 C1.55219994 -0.00845947 1.55219994 -0.00845947 3.13575745 -0.01708984 C4.27556564 -0.01304138 5.41537384 -0.00899292 6.58972168 -0.00482178 C7.78649033 -0.00832642 8.98325897 -0.01183105 10.21629333 -0.01544189 C13.50348268 -0.0227507 16.79042122 -0.02101706 20.07759666 -0.01468372 C23.51332315 -0.00962962 26.94903873 -0.01431353 30.38476562 -0.01745605 C36.15508962 -0.02109743 41.92536247 -0.01629214 47.69567871 -0.0067749 C54.37243197 0.00411001 61.04906309 0.00058455 67.72581339 -0.01042771 C73.4523875 -0.01949574 79.17892478 -0.02078825 84.90550375 -0.01555037 C88.32834469 -0.01242799 91.75112818 -0.01202864 95.17396545 -0.01862335 C98.98838063 -0.0254588 102.80265836 -0.01599196 106.61706543 -0.00482178 C107.75687363 -0.00887024 108.89668182 -0.0129187 110.07102966 -0.01708984 C111.6232296 -0.00863037 111.6232296 -0.00863037 113.20678711 0 C114.56069172 0.00113108 114.56069172 0.00113108 115.94194794 0.002285 C118.10339355 0.25396729 118.10339355 0.25396729 120.10339355 2.25396729 C120.60583496 4.57305908 120.60583496 4.57305908 120.95495605 7.45318604 C121.0838623 8.49797119 121.21276855 9.54275635 121.34558105 10.61920166 C121.47190918 11.71554932 121.5982373 12.81189697 121.72839355 13.94146729 C121.9294873 15.55698486 121.9294873 15.55698486 122.13464355 17.20513916 C122.78001345 22.57553866 123.390932 27.84370442 123.10339355 33.25396729 C122.10339355 34.25396729 122.10339355 34.25396729 119.22839355 34.62896729 C116.10339355 34.25396729 116.10339355 34.25396729 114.54089355 32.37896729 C114.06651855 31.34771729 113.59214355 30.31646729 113.10339355 29.25396729 C112.20758601 27.52478726 111.31175066 25.79562164 110.41589355 24.06646729 C108.10339355 19.51650416 108.10339355 19.51650416 108.10339355 17.25396729 C100.33221244 13.85407555 93.17552401 12.91052769 84.79089355 12.94146729 C83.45187988 12.91729736 83.45187988 12.91729736 82.08581543 12.89263916 C81.2292334 12.89199463 80.37265137 12.8913501 79.4901123 12.89068604 C78.7188501 12.88770508 77.94758789 12.88472412 77.1529541 12.88165283 C74.52647729 13.35876744 73.76964823 14.19948646 72.10339355 16.25396729 C71.8068907 19.29469513 71.69381489 22.13054529 71.71520996 25.17242432 C71.709953 26.08499496 71.70469604 26.99756561 71.69927979 27.93778992 C71.68604935 30.96262611 71.69483307 33.98693796 71.70495605 37.01177979 C71.70293515 39.11585593 71.70002357 41.21993138 71.69625854 43.32400513 C71.6918302 47.74083097 71.69827884 52.15747505 71.71228027 56.57427979 C71.72930941 62.21994703 71.71957399 67.86518444 71.70156288 73.51083565 C71.69068504 77.86045526 71.69419081 82.20997426 71.70194626 86.55959702 C71.70394049 88.63989183 71.70151642 90.72019593 71.6945076 92.80047989 C71.68683441 95.72027734 71.69858203 98.63939577 71.71520996 101.55914307 C71.70913727 102.41039261 71.70306458 103.26164215 71.69680786 104.13868713 C71.77083066 111.20350222 72.88442646 117.63672405 77.54089355 123.12896729 C81.36010854 125.9329479 85.93644741 126.7008395 90.49401855 127.67584229 C93.10339355 128.25396729 93.10339355 128.25396729 95.10339355 129.25396729 C95.22839355 132.62896729 95.22839355 132.62896729 95.10339355 136.25396729 C93.10339355 138.25396729 93.10339355 138.25396729 90.85339355 138.26568604 C89.94589355 138.15869385 89.03839355 138.05170166 88.10339355 137.94146729 C87.21651855 137.84220947 86.32964355 137.74295166 85.41589355 137.64068604 C83.6262672 137.4317556 81.83690086 137.22016868 80.04943848 136.99346924 C72.87454282 136.16349539 65.71587695 136.06781804 58.50109863 136.06866455 C56.43667612 136.06648918 54.37279952 136.0482967 52.30847168 136.02935791 C44.1942448 135.99636293 36.41633373 136.5681463 28.39709473 137.82305908 C25.22528088 138.23802102 22.29535341 138.47504916 19.10339355 138.25396729 C17.10339355 136.25396729 17.10339355 136.25396729 16.85339355 133.25396729 C17.10339355 130.25396729 17.10339355 130.25396729 19.10339355 128.25396729 C21.20495605 127.76177979 21.20495605 127.76177979 23.72839355 127.37896729 C29.42257853 126.31594288 34.93477205 124.95245122 38.68484497 120.28611755 C40.69927383 115.98027208 40.52248327 112.14563217 40.49157715 107.44659424 C40.49946259 105.97265198 40.49946259 105.97265198 40.50750732 104.46893311 C40.52069349 101.22654247 40.51197597 97.98464401 40.50183105 94.74224854 C40.50385169 92.48974005 40.50676305 90.2372322 40.51052856 87.98472595 C40.51494964 83.26801311 40.50852585 78.55147084 40.49450684 73.83477783 C40.47738577 67.77820222 40.48727618 61.72202457 40.50522423 55.66546345 C40.51604271 51.01674883 40.51262513 46.36812926 40.50484085 41.71941185 C40.50283501 39.48540386 40.50531151 37.25138732 40.51227951 35.0173893 C40.5198653 31.90241086 40.50833133 28.78808623 40.49157715 25.67315674 C40.49764984 24.74377792 40.50372253 23.81439911 40.50997925 22.8568573 C40.49729004 21.58882767 40.49729004 21.58882767 40.48434448 20.29518127 C40.48321341 19.55871022 40.48208233 18.82223917 40.48091698 18.06345081 C40.23699507 15.83659779 40.23699507 15.83659779 37.10339355 14.25396729 C33.22345559 13.78754379 29.32084352 13.88361327 25.41589355 13.87896729 C24.35177246 13.8544751 23.28765137 13.82998291 22.19128418 13.80474854 C15.73466601 13.78082036 10.38364814 14.26035701 5.10339355 18.25396729 C1.68040378 22.87962914 0.25636043 27.57815924 -1.18566895 33.11724854 C-1.89660645 35.25396729 -1.89660645 35.25396729 -3.89660645 37.25396729 C-6.45910645 37.44146729 -6.45910645 37.44146729 -8.89660645 37.25396729 C-9.89660645 36.25396729 -9.89660645 36.25396729 -10.0177002 33.10552979 C-9.90500195 29.52099851 -9.52655118 26.16617756 -8.95910645 22.62896729 C-8.04898233 16.68452029 -7.53327298 10.80563128 -7.24035645 4.80084229 C-6.59687954 0.03326342 -4.23565768 0.00353855 0 0 Z " fill="#FAFDFB" transform="translate(586.8966064453125,908.7460327148438)"/>
<path d="M0 0 C1.03342529 -0.00426498 2.06685059 -0.00852997 3.1315918 -0.01292419 C4.84669701 -0.01224442 4.84669701 -0.01224442 6.59645081 -0.0115509 C7.79307343 -0.01490952 8.98969604 -0.01826813 10.22257996 -0.02172852 C13.51389169 -0.02962422 16.80514035 -0.03290745 20.09645724 -0.0335443 C22.84012411 -0.03449181 25.58378486 -0.03816828 28.32744938 -0.0417164 C34.7984673 -0.04986848 41.26947131 -0.05229995 47.74049377 -0.05158997 C54.42460264 -0.050989 61.10863085 -0.06154286 67.7927193 -0.07733363 C73.52351273 -0.09039185 79.25427974 -0.09577459 84.98508793 -0.09513456 C88.41130565 -0.09487906 91.83745175 -0.09775867 95.26365471 -0.10831261 C99.0829524 -0.11975549 102.90213872 -0.11525733 106.72145081 -0.10920715 C108.43351967 -0.11763641 108.43351967 -0.11763641 110.18017578 -0.12623596 C111.73454346 -0.11994423 111.73454346 -0.11994423 113.3203125 -0.11352539 C114.22421439 -0.11407016 115.12811628 -0.11461493 116.05940914 -0.1151762 C118.22364807 0.13371277 118.22364807 0.13371277 120.22364807 2.13371277 C120.72608948 4.45280457 120.72608948 4.45280457 121.07521057 7.33293152 C121.20411682 8.37771667 121.33302307 9.42250183 121.46583557 10.49894714 C121.5921637 11.5952948 121.71849182 12.69164246 121.84864807 13.82121277 C122.04974182 15.43673035 122.04974182 15.43673035 122.25489807 17.08488464 C122.90026797 22.45528415 123.51118652 27.7234499 123.22364807 33.13371277 C122.22364807 34.13371277 122.22364807 34.13371277 119.16114807 34.19621277 C118.19177307 34.17558777 117.22239807 34.15496277 116.22364807 34.13371277 C115.87753479 33.29840027 115.87753479 33.29840027 115.52442932 32.44621277 C110.75483395 20.8499357 110.75483395 20.8499357 100.87379456 13.92546082 C96.06761081 12.48958298 91.32648329 12.59754724 86.34864807 12.69621277 C84.80177307 12.685578 84.80177307 12.685578 83.22364807 12.67472839 C78.08687415 12.42611967 78.08687415 12.42611967 73.60356045 14.40962696 C71.93203869 16.49805445 71.84512669 17.47659988 71.83596802 20.12313843 C71.82606339 20.93187408 71.81615875 21.74060974 71.80595398 22.57385254 C71.81045563 23.45751999 71.81495728 24.34118744 71.81959534 25.25163269 C71.80930046 26.65215881 71.80930046 26.65215881 71.79879761 28.08097839 C71.78045951 31.17553312 71.78437879 34.26958396 71.79005432 37.36418152 C71.78549425 39.51549444 71.78018921 41.6668059 71.77416992 43.81811523 C71.76522382 48.33328659 71.76767711 52.84828124 71.77760315 57.3634491 C71.78906525 63.13933413 71.76893104 68.9146053 71.73968601 74.69040966 C71.72129938 79.13693092 71.72162192 83.58330597 71.72732353 88.02985573 C71.7274766 90.15843374 71.72144411 92.28702175 71.70903206 94.41556358 C71.69408648 97.40036779 71.70482758 100.38405008 71.72193909 103.36882019 C71.71227112 104.24236649 71.70260315 105.11591278 71.69264221 106.01593018 C71.76954339 112.45034962 73.16151686 118.00530289 77.77784061 122.72154522 C81.9863416 126.31301848 86.59493301 127.04260717 91.96583557 127.77433777 C94.22364807 128.13371277 94.22364807 128.13371277 95.22364807 129.13371277 C95.41114807 132.57121277 95.41114807 132.57121277 95.22364807 136.13371277 C93.22364807 138.13371277 93.22364807 138.13371277 91.28541565 138.1771698 C90.48772766 138.0829071 89.69003967 137.98864441 88.86817932 137.89152527 C87.95076965 137.79452332 87.03335999 137.69752136 86.08815002 137.59757996 C85.08098938 137.48575378 84.07382874 137.37392761 83.03614807 137.25871277 C73.02672724 136.28894189 63.08419908 135.90048926 53.03614807 135.88371277 C51.1244281 135.87041931 51.1244281 135.87041931 49.17408752 135.8568573 C42.00163406 135.87837513 35.19142463 136.41487719 28.13258362 137.70500183 C25.08832446 138.15365639 22.29516387 138.3418034 19.22364807 138.13371277 C17.22364807 136.13371277 17.22364807 136.13371277 16.97364807 133.13371277 C17.22364807 130.13371277 17.22364807 130.13371277 19.22364807 128.13371277 C21.29243762 127.61365794 23.37956184 127.16509937 25.47364807 126.75871277 C32.50492497 125.20594762 32.50492497 125.20594762 38.22364807 121.13371277 C41.24638416 115.47735993 41.66026672 110.82778213 41.62770081 104.48234558 C41.63799568 103.0688961 41.63799568 103.0688961 41.64849854 101.62689209 C41.66671626 98.53005168 41.66293821 95.43371995 41.65724182 92.33683777 C41.66180406 90.17926367 41.66710976 88.02169102 41.67312622 85.86412048 C41.68204594 81.35187355 41.67964477 76.83980374 41.66969299 72.32756042 C41.65816925 66.5378482 41.67847289 60.74874278 41.70761013 54.95911026 C41.72592298 50.5085104 41.72569011 46.05805756 41.71997261 41.6074295 C41.71981898 39.47192785 41.72589733 37.33641648 41.73826408 35.20095062 C41.75308972 32.22274134 41.74256136 29.24567456 41.72535706 26.26750183 C41.73985901 24.93964409 41.73985901 24.93964409 41.75465393 23.58496094 C41.81075899 18.88467738 41.81075899 18.88467738 39.35241699 15.08711243 C36.70060618 13.89946097 34.69950415 13.74566458 31.79396057 13.73527527 C30.75110901 13.73140808 29.70825745 13.72754089 28.63380432 13.72355652 C27.54970276 13.73515808 26.4656012 13.74675964 25.34864807 13.75871277 C24.27228088 13.74711121 23.1959137 13.73550964 22.08692932 13.72355652 C14.81241282 13.75046595 10.14582309 14.48984013 4.59864807 19.50871277 C1.41428094 23.54566852 0.36555049 28.52476342 -0.97947693 33.40324402 C-1.77635193 36.13371277 -1.77635193 36.13371277 -2.77635193 37.13371277 C-5.77635193 37.25871277 -5.77635193 37.25871277 -8.77635193 37.13371277 C-9.10635193 36.80371277 -9.43635193 36.47371277 -9.77635193 36.13371277 C-9.71679432 27.870094 -8.3689222 19.56013305 -7.27635193 11.38371277 C-7.14583435 10.39476013 -7.01531677 9.4058075 -6.88084412 8.3868866 C-6.75354919 7.46287048 -6.62625427 6.53885437 -6.49510193 5.58683777 C-6.32397888 4.33628601 -6.32397888 4.33628601 -6.1493988 3.06047058 C-5.42176842 -0.69768321 -3.43759912 0.00637601 0 0 Z " fill="#FCFDFD" transform="translate(184.77635192871094,908.8662872314453)"/>
<path d="M0 0 C1.02029297 -0.01611328 2.04058594 -0.03222656 3.09179688 -0.04882812 C12.30456246 -0.05470736 20.73218796 1.37843787 28.0625 7.3125 C35.13316862 14.38316862 35.50285239 23.58624291 35.50390625 33.05859375 C35.52371803 34.69708031 35.52371803 34.69708031 35.54393005 36.3686676 C35.58456972 39.82913873 35.60644486 43.28934521 35.625 46.75 C35.64877344 50.2355701 35.67679543 53.72089071 35.71678162 57.20631409 C35.74118277 59.3686093 35.75600535 61.53103774 35.76039124 63.69346619 C35.77567116 65.15122215 35.77567116 65.15122215 35.79125977 66.63842773 C35.79767235 67.92341408 35.79767235 67.92341408 35.80421448 69.23435974 C35.87384651 71.53350969 35.87384651 71.53350969 38.0625 73.3125 C40.50262949 73.55537489 40.50262949 73.55537489 43.1875 73.4375 C44.09757813 73.41945313 45.00765625 73.40140625 45.9453125 73.3828125 C46.64398437 73.35960937 47.34265625 73.33640625 48.0625 73.3125 C48.36576045 76.35556175 48.47975983 77.7935728 46.5234375 80.2265625 C45.49089844 81.07347656 45.49089844 81.07347656 44.4375 81.9375 C43.76460937 82.50726562 43.09171875 83.07703125 42.3984375 83.6640625 C35.16864111 88.76602584 28.7494257 89.40468624 20.0625 88.3125 C15.52294436 86.38986467 12.49194467 82.75666332 9.0625 79.3125 C8.2890625 79.78300781 7.515625 80.25351563 6.71875 80.73828125 C3.52620121 82.64669841 0.30812294 84.49592 -2.9375 86.3125 C-3.93523438 86.87324219 -3.93523438 86.87324219 -4.953125 87.4453125 C-9.46972566 89.54085245 -14.14839082 89.64387213 -19.0625 89.75 C-20.0848877 89.78371704 -20.0848877 89.78371704 -21.12792969 89.81811523 C-26.9826945 89.79031009 -30.38428612 87.73557434 -34.546875 83.78515625 C-40.53034445 76.38778477 -40.74822207 69.58842397 -39.9375 60.3125 C-38.22223219 53.20967961 -32.79161388 48.32748961 -26.9375 44.3125 C-16.67397765 38.86271419 -2.5854132 35.3125 9.0625 35.3125 C9.05917367 23.7779695 9.05917367 23.7779695 5.0625 13.3125 C-0.22179548 9.19074952 -4.36336929 8.77583627 -10.9375 9.3125 C-10.95876953 10.63314453 -10.95876953 10.63314453 -10.98046875 11.98046875 C-11.37279412 21.53412162 -11.37279412 21.53412162 -14.25 25.5 C-19.15449266 28.8076811 -22.62651648 29.65342904 -28.5625 29.625 C-29.243125 29.64111328 -29.92375 29.65722656 -30.625 29.67382812 C-32.6015625 29.67578125 -32.6015625 29.67578125 -35.9375 29.3125 C-38.42159787 25.5863532 -38.46255889 22.62782775 -37.9375 18.3125 C-35.21295938 10.99925939 -30.14651952 7.198156 -23.609375 3.42578125 C-15.93812491 0.22942705 -8.21866364 -0.02586112 0 0 Z " fill="#FAFDFC" transform="translate(731.9375,958.6875)"/>
<path d="M0 0 C0 5.28 0 10.56 0 16 C1.959375 14.4325 3.91875 12.865 5.9375 11.25 C15.37315988 3.95683819 22.707738 0.51002885 35 2 C41.81295604 3.81185805 47.88921916 6.62179771 51.73046875 12.76953125 C52.21128906 13.77371094 52.69210937 14.77789063 53.1875 15.8125 C53.92033203 17.30716797 53.92033203 17.30716797 54.66796875 18.83203125 C57.60039572 25.80621974 58.29096048 31.62950541 58.30859375 39.1328125 C58.3337364 41.09245111 58.35913466 43.05208646 58.38476562 45.01171875 C58.41356548 48.07730378 58.43760872 51.14283252 58.45629883 54.20849609 C58.47794682 57.18354872 58.5173626 60.15797627 58.55859375 63.1328125 C58.55876747 64.50483322 58.55876747 64.50483322 58.5589447 65.90457153 C58.63411511 70.7394848 58.82320616 74.09177774 62 78 C63.9937797 79.41455894 63.9937797 79.41455894 66.1875 80.3125 C66.90292969 80.63863281 67.61835937 80.96476562 68.35546875 81.30078125 C68.89816406 81.53152344 69.44085937 81.76226563 70 82 C70.04254356 83.99954746 70.04080783 86.00041636 70 88 C68.45843445 89.54156555 67.02554236 89.13468494 64.87915039 89.14526367 C64.00476822 89.15164352 63.13038605 89.15802338 62.22950745 89.16459656 C60.8029911 89.16626579 60.8029911 89.16626579 59.34765625 89.16796875 C57.89195473 89.17296135 57.89195473 89.17296135 56.40684509 89.17805481 C54.3497668 89.1831283 52.29268025 89.18546301 50.2355957 89.18530273 C47.07945256 89.18748826 43.92365929 89.20563691 40.76757812 89.22460938 C38.7734387 89.22754333 36.77929761 89.22952811 34.78515625 89.23046875 C33.83616959 89.23765427 32.88718292 89.24483978 31.90943909 89.25224304 C31.03190475 89.24916641 30.15437042 89.24608978 29.25024414 89.24291992 C28.4760463 89.24434494 27.70184845 89.24576996 26.90419006 89.24723816 C25 89 25 89 23 87 C23 85.1875 23 85.1875 24 83 C25.98260426 81.31267723 27.9832342 79.64633943 30 78 C32.72795063 74.22982796 32.30585717 69.89105573 32.30078125 65.4296875 C32.30720894 64.17528366 32.30720894 64.17528366 32.31376648 62.89553833 C32.31950426 61.12535505 32.3200141 59.35514819 32.31567383 57.58496094 C32.31253534 54.90517693 32.33590407 52.22652086 32.36132812 49.546875 C32.45145612 35.15725816 32.45145612 35.15725816 27.125 22 C22.96300616 18.08282933 18.83352645 17.53409175 13.28125 17.69140625 C9.28126248 18.23250045 7.2115531 19.49498858 4 22 C0.86997259 27.679371 0.57012806 32.47545927 0.63671875 38.87890625 C0.63622025 39.80920151 0.63572174 40.73949677 0.63520813 41.69798279 C0.63753843 43.65536649 0.64720498 45.61275377 0.66381836 47.57006836 C0.68745451 50.55675174 0.6843656 53.54254337 0.67773438 56.52929688 C0.68331062 58.43750529 0.69042017 60.34570997 0.69921875 62.25390625 C0.69830734 63.14155167 0.69739594 64.02919708 0.69645691 64.94374084 C0.74993759 69.64458781 1.00980744 73.64367523 3 78 C5.29876638 79.2881092 5.29876638 79.2881092 8 79.75 C12.84962406 80.84962406 12.84962406 80.84962406 15 83 C14.67 84.98 14.34 86.96 14 89 C-1.84 89 -17.68 89 -34 89 C-34.495 86.525 -34.495 86.525 -35 84 C-34.50628906 83.59007812 -34.01257812 83.18015625 -33.50390625 82.7578125 C-32.86324219 82.21898437 -32.22257812 81.68015625 -31.5625 81.125 C-30.92441406 80.59132813 -30.28632812 80.05765625 -29.62890625 79.5078125 C-27.5752831 77.60685678 -27.03610268 76.57214348 -26.85955811 73.77432251 C-26.8527301 72.84928925 -26.8459021 71.92425598 -26.83886719 70.97119141 C-26.82925964 69.92315338 -26.8196521 68.87511536 -26.80975342 67.7953186 C-26.80550354 66.65887909 -26.80125366 65.52243958 -26.796875 64.3515625 C-26.79117493 63.18748871 -26.78547485 62.02341492 -26.77960205 60.82406616 C-26.77014278 58.35765495 -26.7636144 55.89123104 -26.75976562 53.42480469 C-26.75005799 49.64756271 -26.71904166 45.87086422 -26.6875 42.09375 C-26.68097038 39.70052407 -26.67571975 37.30729425 -26.671875 34.9140625 C-26.6595282 33.78167145 -26.6471814 32.6492804 -26.63446045 31.48257446 C-26.63746155 30.42823212 -26.64046265 29.37388977 -26.64355469 28.28759766 C-26.63990906 27.36097321 -26.63626343 26.43434875 -26.63250732 25.47964478 C-27.07635508 22.48479658 -27.89374235 21.15491223 -30 19 C-33.59067962 17.71157463 -33.59067962 17.71157463 -37 17 C-37 15.35 -37 13.7 -37 12 C-33.56098869 10.52879841 -30.28104551 9.57545628 -26.625 8.8125 C-20.70598703 7.40425899 -15.54809145 5.10371917 -10.16455078 2.3371582 C-6.29326016 0.39527055 -4.52400413 0 0 0 Z " fill="#FCFDFC" transform="translate(1415,956)"/>
<path d="M0 0 C1.27037109 -0.01836914 1.27037109 -0.01836914 2.56640625 -0.03710938 C11.9023693 -0.05855493 21.67460689 1.3292782 28.88671875 7.7578125 C35.37652267 14.76617218 35.42158093 22.30395432 35.46875 31.44921875 C35.4833728 32.51743362 35.49799561 33.5856485 35.51306152 34.68623352 C35.57509833 39.23577248 35.61500617 43.78544176 35.65673828 48.33520508 C35.69044712 51.66502114 35.73554733 54.99454923 35.78125 58.32421875 C35.78916565 59.86803474 35.78916565 59.86803474 35.79724121 61.44303894 C35.81065552 62.40115982 35.82406982 63.3592807 35.83789062 64.34643555 C35.84882751 65.60716133 35.84882751 65.60716133 35.85998535 66.89335632 C36.03840065 69.58366705 36.03840065 69.58366705 38.125 73.1875 C41.425 73.1875 44.725 73.1875 48.125 73.1875 C48.125 78.1875 48.125 78.1875 46.875 80.1015625 C40.69420328 86.14439501 35.65574025 88.28262214 27 88.625 C21.87283883 88.48329454 19.05912069 87.65327299 15.125 84.1875 C14.00127489 83.26927092 12.8762756 82.35259893 11.75 81.4375 C10.88375 80.695 10.0175 79.9525 9.125 79.1875 C8.21621094 79.76757812 8.21621094 79.76757812 7.2890625 80.359375 C-4.03111642 87.39530159 -13.46305627 90.7901851 -26.875 89.1875 C-31.7539245 87.5707303 -34.64551258 84.96704268 -37.3125 80.625 C-40.54565222 73.51206511 -41.17868082 65.48150117 -39.296875 57.83984375 C-35.8509212 49.9611403 -28.80456886 44.69155722 -21.0625 41.4375 C-11.31270177 38.02969138 -0.22950385 35.1875 10.125 35.1875 C9.91898774 22.33884785 9.91898774 22.33884785 3.5625 11.75 C0.46463981 9.76419219 -1.23478627 9.03345785 -4.875 9 C-5.57625 8.98582031 -6.2775 8.97164062 -7 8.95703125 C-9.12024938 9.02237677 -9.12024938 9.02237677 -10.875 11.1875 C-10.92738355 13.42959604 -10.92738355 13.42959604 -10.6875 15.9375 C-10.61936503 19.56437701 -10.74065129 21.78979562 -13 24.6875 C-17.79218762 28.85461967 -22.396161 29.46620433 -28.625 29.4375 C-29.75421875 29.44265625 -30.8834375 29.4478125 -32.046875 29.453125 C-34.875 29.1875 -34.875 29.1875 -36.875 27.1875 C-37.76532089 22.14547221 -37.45652993 17.43700863 -34.9375 12.9375 C-29.90752154 5.87838251 -22.18077646 2.10788979 -13.8125 0.65625 C-9.18371369 0.10520401 -4.65647891 0.00351167 0 0 Z " fill="#FCFEFD" transform="translate(1700.875,958.8125)"/>
<path d="M0 0 C2.59765625 0.0234375 2.59765625 0.0234375 6.0625 0.375 C13.35629848 1.00795961 20.61821274 1.12178626 27.9375 1.125 C29.00299072 1.12935059 30.06848145 1.13370117 31.16625977 1.13818359 C36.88413986 1.12831203 42.34085628 0.78922112 48 0 C49.95649208 -0.10542501 51.91571872 -0.17362407 53.875 -0.1875 C54.80054688 -0.20167969 55.72609375 -0.21585938 56.6796875 -0.23046875 C59 0 59 0 61 2 C60.8984375 4.46875 60.8984375 4.46875 60 7 C58.0390625 8.40625 58.0390625 8.40625 55.625 9.5 C51.53560256 11.3648718 49.89425114 12.88406152 48 17 C47.56356558 20.18767107 47.59009375 23.34691697 47.61181641 26.56030273 C47.60393097 27.99534653 47.60393097 27.99534653 47.59588623 29.4593811 C47.58269719 32.61761874 47.59142133 35.7753511 47.6015625 38.93359375 C47.59954129 41.13167925 47.59662946 43.32976409 47.59286499 45.52784729 C47.58844297 50.13362007 47.59486828 54.73921823 47.60888672 59.3449707 C47.6259683 65.2442158 47.61614293 71.14305112 47.59816933 77.04228115 C47.58731971 81.58135556 47.59078346 86.12033312 47.5985527 90.65941048 C47.60055196 92.83429068 47.59810507 95.00917972 47.59111404 97.18404961 C47.58348149 100.22637026 47.59512996 103.26803112 47.61181641 106.31030273 C47.60574371 107.20659897 47.59967102 108.1028952 47.59341431 109.02635193 C47.65311558 114.91232881 48.68214774 119.00198027 52.37109375 123.7734375 C54.49886556 125.37564457 56.49629539 125.93715134 59.0625 126.625 C63.88349515 127.94174757 63.88349515 127.94174757 66 129 C66.125 132.375 66.125 132.375 66 136 C64 138 64 138 61.4609375 138.01171875 C60.44257812 137.90472656 59.42421875 137.79773437 58.375 137.6875 C57.37210938 137.58824219 56.36921875 137.48898437 55.3359375 137.38671875 C52.98289106 137.1139417 50.63396051 136.80444066 48.2890625 136.46875 C43.19861902 135.82986597 38.12460474 135.81036404 33 135.8125 C31.99485352 135.80968018 30.98970703 135.80686035 29.95410156 135.80395508 C22.47740189 135.84387689 15.33927022 136.5508141 7.984375 137.85546875 C5 138 5 138 3.015625 136.86328125 C2 135 2 135 2.0078125 132.52734375 C3.30776394 129.21605013 4.85686834 128.38650131 7.875 126.5625 C12.30411616 123.88307841 14.08794147 121.8355355 16 117 C16.42435965 113.83848096 16.4204561 110.71201671 16.40405273 107.52563477 C16.41091599 106.58990631 16.41777924 105.65417786 16.42485046 104.69009399 C16.44310262 101.60704229 16.43928316 98.52450022 16.43359375 95.44140625 C16.43815629 93.29198542 16.44346208 91.14256605 16.44947815 88.9931488 C16.45840615 84.49171008 16.45598956 79.9904488 16.44604492 75.48901367 C16.43455562 69.7276897 16.45476812 63.96697867 16.48396206 58.20573521 C16.50233025 53.7678388 16.50203033 49.33008912 16.49632454 44.89216423 C16.4961714 42.76834185 16.50220943 40.64450949 16.51461601 38.52072334 C16.52953558 35.54801381 16.51884141 32.57643455 16.50170898 29.60375977 C16.51137695 28.73133133 16.52104492 27.85890289 16.53100586 26.96003723 C16.46125456 21.16435813 15.37958722 17.74852481 12 13 C7.92821739 10.37596232 3.64547784 9.27522921 -1 8 C-2 7 -2 7 -2.1875 4.5625 C-2 2 -2 2 0 0 Z " fill="#FBFDFC" transform="translate(1302,909)"/>
<path d="M0 0 C6.75383645 6.01634856 10.40159085 13.42181526 11.875 22.3125 C11.99750291 25.92633595 11.79034209 27.89045847 10 31 C7.49065701 32.2546715 5.71622645 32.15873558 2.90771484 32.20532227 C1.31629166 32.2352401 1.31629166 32.2352401 -0.30728149 32.26576233 C-1.45626923 32.28247482 -2.60525696 32.29918732 -3.7890625 32.31640625 C-4.96262299 32.33718735 -6.13618347 32.35796844 -7.3453064 32.37937927 C-11.10514304 32.44491983 -14.86505122 32.50378076 -18.625 32.5625 C-21.16927832 32.60568092 -23.71354933 32.64929507 -26.2578125 32.69335938 C-32.50513207 32.80060582 -38.75252326 32.9023638 -45 33 C-45.01799644 34.44119753 -45.03084004 35.88246003 -45.04150391 37.32373047 C-45.04920807 38.12632294 -45.05691223 38.92891541 -45.06484985 39.75582886 C-44.87798318 46.22247091 -41.33579257 52.75032997 -36.9453125 57.39453125 C-30.12193521 63.02587275 -22.80583936 65.95485437 -13.94921875 65.45703125 C-6.36436032 64.28162935 0.09006996 61.38938692 6.24609375 56.85546875 C8 56 8 56 10.22265625 56.36328125 C11.10244141 56.67845703 11.10244141 56.67845703 12 57 C12.08079434 60.23177371 11.51254059 62.35467687 9.4921875 64.8984375 C-1.06729521 75.05641897 -15.66242719 81.43041481 -30.3125 81.3125 C-31.0537915 81.30686035 -31.79508301 81.3012207 -32.55883789 81.29541016 C-43.6509864 81.05183868 -54.01610329 77.98389671 -62.0390625 69.9609375 C-72.73343194 57.08218621 -73.23514997 42.02980349 -72 26 C-70.11058319 14.85895604 -62.71761264 5.6606487 -54.2421875 -1.4296875 C-37.97436049 -12.82283464 -15.71111674 -11.82355372 0 0 Z " fill="#FAFDFC" transform="translate(1003,966)"/>
<path d="M0 0 C7.69588615 5.18231043 14.15611445 11.89385349 16.03125 21.26953125 C16.70915635 28.60998595 16.70915635 28.60998595 16.03125 32.26953125 C13.03665443 35.13464951 10.88753784 35.65234329 6.80371094 35.7019043 C5.76293396 35.72169846 4.72215698 35.74149261 3.64984131 35.7618866 C1.97465424 35.77147148 1.97465424 35.77147148 0.265625 35.78125 C-1.45717682 35.8081768 -1.45717682 35.8081768 -3.21478271 35.83564758 C-6.88273448 35.88982466 -10.55055555 35.92367094 -14.21875 35.95703125 C-16.70574738 35.99019769 -19.1927275 36.02468671 -21.6796875 36.06054688 C-27.77592448 36.14555551 -33.87217822 36.21387421 -39.96875 36.26953125 C-39.98978177 38.04072065 -40.00483529 39.81198178 -40.01733398 41.58325195 C-40.03086159 43.06279106 -40.03086159 43.06279106 -40.04466248 44.57221985 C-39.8442316 51.69390145 -35.65475263 56.96796647 -30.65625 61.70703125 C-23.84003402 67.25641761 -17.92846081 68.91408089 -9.1328125 68.69140625 C-2.36158148 67.78857545 3.96940208 64.91707218 9.46875 60.89453125 C12.03125 59.26953125 12.03125 59.26953125 14.90625 59.51953125 C15.958125 59.89078125 15.958125 59.89078125 17.03125 60.26953125 C17.11324466 63.54931768 16.53643206 65.65055819 14.453125 68.203125 C8.15862887 74.18289633 0.89928976 77.84312684 -6.96875 81.26953125 C-7.77828125 81.63304687 -8.5878125 81.9965625 -9.421875 82.37109375 C-20.17995294 86.39596906 -34.83599819 85.80579803 -45.390625 81.58984375 C-55.98171456 76.16592213 -61.87932561 68.01408667 -66.13305664 57.09936523 C-67.6139973 52.0845878 -67.60332875 47.15264203 -67.53125 41.95703125 C-67.52174316 40.85560791 -67.51223633 39.75418457 -67.50244141 38.61938477 C-67.19594961 26.63520104 -64.07251896 17.31142125 -55.96875 8.26953125 C-55.44539063 7.65464844 -54.92203125 7.03976562 -54.3828125 6.40625 C-40.77915922 -8.50667508 -16.84214161 -9.8171957 0 0 Z " fill="#FAFDFC" transform="translate(498.96875,962.73046875)"/>
<path d="M0 0 C2.8689871 2.50116825 3.32535301 3.26520638 3.8125 7 C3.71688377 14.58555424 -0.49788975 22.67460889 -5.5625 28.125 C-8.3125 28.4375 -8.3125 28.4375 -10.5625 28.125 C-10.80484375 27.53332031 -11.0471875 26.94164062 -11.296875 26.33203125 C-14.0714105 19.67715613 -14.0714105 19.67715613 -18.5625 14.125 C-21.70113704 13.23906002 -21.70113704 13.23906002 -24.5625 13.125 C-29.8651609 18.95792699 -30.78463148 24.88061435 -30.9765625 32.58984375 C-30.99592865 33.26801651 -31.0152948 33.94618927 -31.0352478 34.64491272 C-31.09441999 36.78398566 -31.14117519 38.92311428 -31.1875 41.0625 C-31.22573745 42.52411036 -31.26479242 43.98569957 -31.3046875 45.44726562 C-31.40006819 49.00631543 -31.48432567 52.56552587 -31.5625 56.125 C-28.95741364 56.01108368 -26.35404454 55.88434452 -23.75 55.75 C-23.01201172 55.7190625 -22.27402344 55.688125 -21.51367188 55.65625 C-17.74356885 55.45153852 -15.76599259 55.26066173 -12.5625 53.125 C-11.2425 53.125 -9.9225 53.125 -8.5625 53.125 C-9.02522178 58.49257261 -9.69969579 62.43000109 -12.5625 67.125 C-15.734238 68.710869 -19.19763822 68.50366445 -22.6875 68.6875 C-23.44160156 68.73068359 -24.19570312 68.77386719 -24.97265625 68.81835938 C-26.83571888 68.9244832 -28.69908524 69.02525001 -30.5625 69.125 C-30.63856971 76.86622829 -30.69110834 84.60736016 -30.72729492 92.34887695 C-30.74238057 94.98237714 -30.76285166 97.61585221 -30.78881836 100.24926758 C-30.82521019 104.03473104 -30.8422289 107.81986227 -30.85546875 111.60546875 C-30.87095261 112.78272018 -30.88643646 113.95997162 -30.90238953 115.17289734 C-30.90272942 116.82404289 -30.90272942 116.82404289 -30.90307617 118.50854492 C-30.90973801 119.47451096 -30.91639984 120.44047699 -30.92326355 121.43571472 C-30.49183324 124.65178014 -29.4672557 126.5183204 -27.5625 129.125 C-25.1731848 130.49283356 -25.1731848 130.49283356 -22.5 131.3125 C-17.72841928 132.95908072 -17.72841928 132.95908072 -15.5625 135.125 C-15.25 137.625 -15.25 137.625 -15.5625 140.125 C-19.02929952 142.43619968 -19.59567489 142.25656881 -23.55078125 141.75 C-28.99164888 141.19255085 -34.33127403 141.03561976 -39.79296875 141.0625 C-40.60130157 141.06580322 -41.4096344 141.06910645 -42.24246216 141.07250977 C-44.74501931 141.08606925 -47.24748888 141.10470741 -49.75 141.125 C-53.09765244 141.15152606 -56.44525157 141.1714817 -59.79296875 141.1875 C-60.94275459 141.19994751 -60.94275459 141.19994751 -62.11576843 141.21264648 C-63.93156056 141.22119108 -65.74747299 141.17839493 -67.5625 141.125 C-68.5625 140.125 -68.5625 140.125 -68.75 137.6875 C-68.5625 135.125 -68.5625 135.125 -66.5625 133.125 C-65.0775 132.691875 -65.0775 132.691875 -63.5625 132.25 C-60.54069705 131.44480596 -60.54069705 131.44480596 -59.39492798 129.41583252 C-58.37863317 126.61900052 -58.28248022 124.32348334 -58.24365234 121.34667969 C-58.22378265 120.1857782 -58.20391296 119.02487671 -58.18344116 117.82879639 C-58.16611435 115.9567453 -58.16611435 115.9567453 -58.1484375 114.046875 C-58.12907135 112.76516418 -58.1097052 111.48345337 -58.0897522 110.16290283 C-58.03849373 106.76325635 -57.99883471 103.36357035 -57.96160889 99.96374512 C-57.92152959 96.49135613 -57.87045522 93.01913067 -57.8203125 89.546875 C-57.72362787 82.73970291 -57.63919935 75.9324258 -57.5625 69.125 C-58.41714844 69.06441406 -59.27179688 69.00382813 -60.15234375 68.94140625 C-61.80943359 68.81572266 -61.80943359 68.81572266 -63.5 68.6875 C-65.15322266 68.56568359 -65.15322266 68.56568359 -66.83984375 68.44140625 C-69.5625 68.125 -69.5625 68.125 -70.5625 67.125 C-70.73046875 65.12890625 -70.73046875 65.12890625 -70.75 62.6875 C-70.76417969 61.88441406 -70.77835938 61.08132813 -70.79296875 60.25390625 C-70.5625 58.125 -70.5625 58.125 -68.5625 56.125 C-65.7421875 55.9296875 -65.7421875 55.9296875 -62.4375 56 C-61.34179688 56.01804687 -60.24609375 56.03609375 -59.1171875 56.0546875 C-58.27414062 56.07789063 -57.43109375 56.10109375 -56.5625 56.125 C-56.624375 55.114375 -56.68625 54.10375 -56.75 53.0625 C-56.64246706 37.87347275 -51.43675163 25.66428775 -40.875 14.875 C-31.5485675 5.77482311 -13.73371749 -8.77249418 0 0 Z " fill="#FCFEFD" transform="translate(1254.5625,903.875)"/>
<path d="M0 0 C1.32 0.66 2.64 1.32 4 2 C3.67 9.59 3.34 17.18 3 25 C5.5575 24.87625 8.115 24.7525 10.75 24.625 C11.54889648 24.59100098 12.34779297 24.55700195 13.17089844 24.52197266 C16.97253091 24.31034526 19.68983347 23.83401119 23 22 C24.32 22 25.64 22 27 22 C26.46147465 27.27754845 25.34981281 31.30037439 23 36 C19.70039859 37.6498007 16.00872116 37.38258361 12.375 37.5625 C11.57320312 37.60568359 10.77140625 37.64886719 9.9453125 37.69335938 C7.9637489 37.79951457 5.98189729 37.90026855 4 38 C3.94932573 45.47474272 3.91427725 52.94944119 3.89013672 60.42431641 C3.88007384 62.96762752 3.86642226 65.51092705 3.84912109 68.05419922 C3.82488573 71.70803688 3.81351973 75.36172168 3.8046875 79.015625 C3.79436493 80.15429016 3.78404236 81.29295532 3.77340698 82.46612549 C3.77325592 83.52692322 3.77310486 84.58772095 3.77294922 85.68066406 C3.76628738 87.07964935 3.76628738 87.07964935 3.75949097 88.50689697 C4.0153792 91.15941993 4.56592557 92.76648591 6 95 C9.44936418 96.72468209 13.22089224 96.37853132 17 96 C18.9674297 95.33351956 18.9674297 95.33351956 20.75 94.4375 C24.20076969 92.91119802 25.49458067 92.83152689 29 94 C29.4375 96.0625 29.4375 96.0625 29 99 C23.52316457 106.50343202 15.78532416 109.86080556 7 112 C4.26429667 112.20712798 1.66676117 112.32548412 -1.0625 112.3125 C-2.0844043 112.33666992 -2.0844043 112.33666992 -3.12695312 112.36132812 C-7.8378472 112.36585348 -11.00836178 111.47656386 -15 109 C-21.52192764 102.1816211 -23.05338164 95.60848881 -23.20532227 86.36181641 C-23.22526749 85.28114899 -23.24521271 84.20048157 -23.26576233 83.08706665 C-23.28247482 81.93685028 -23.29918732 80.78663391 -23.31640625 79.6015625 C-23.33718735 78.41146576 -23.35796844 77.22136902 -23.37937927 75.99520874 C-23.44460095 72.20519615 -23.50363234 68.41511609 -23.5625 64.625 C-23.60571126 62.05077436 -23.64932638 59.47655547 -23.69335938 56.90234375 C-23.80025428 50.6016311 -23.90159864 44.30085079 -24 38 C-27.63 37.67 -31.26 37.34 -35 37 C-33.91536755 31.57683777 -33.63341362 31.19954531 -29.5 28.125 C-28.59636719 27.43792969 -27.69273437 26.75085938 -26.76171875 26.04296875 C-25.85035156 25.36878906 -24.93898438 24.69460938 -24 24 C-15.61387363 17.6731486 -8.73250005 11.22012338 -2.3828125 2.8203125 C-1 1 -1 1 0 0 Z " fill="#FAFDFC" transform="translate(898,935)"/>
<path d="M0 0 C1.8984375 1.73242188 1.8984375 1.73242188 2.35253906 3.90893555 C2.3315918 4.73111572 2.31064453 5.5532959 2.2890625 6.40039062 C2.27617188 7.29306641 2.26328125 8.18574219 2.25 9.10546875 C2.21648438 10.03423828 2.18296875 10.96300781 2.1484375 11.91992188 C2.13039063 12.86029297 2.11234375 13.80066406 2.09375 14.76953125 C2.046603 17.09152076 1.98081981 19.41145877 1.8984375 21.73242188 C-0.4765625 21.46679688 -0.4765625 21.46679688 -3.1015625 20.73242188 C-4.2890625 19.06054688 -4.2890625 19.06054688 -5.1015625 16.98242188 C-7.32825224 12.00354362 -10.20633284 9.07295017 -14.6640625 5.91992188 C-20.17700622 4.01545041 -26.87444699 3.47986348 -32.40625 5.62695312 C-34.26288372 6.63427766 -34.26288372 6.63427766 -35.1015625 8.73242188 C-35.62087901 12.62729567 -35.51610157 14.18833934 -33.1015625 17.35742188 C-26.77118098 22.36897391 -19.45030432 24.82668164 -11.9128418 27.45092773 C-4.40379531 30.14153996 1.3705055 34.10926669 5.8984375 40.73242188 C9.23642623 48.62221342 9.04801356 58.74365343 5.8984375 66.73242188 C1.78848577 75.19314282 -4.2671072 80.62400242 -13.1015625 83.73242188 C-25.58737639 86.87033292 -38.79748763 84.39276239 -51.1015625 81.73242188 C-51.4315625 72.16242188 -51.7615625 62.59242187 -52.1015625 52.73242188 C-50.1215625 52.73242188 -48.1415625 52.73242188 -46.1015625 52.73242188 C-45.82183594 53.50585938 -45.54210937 54.27929688 -45.25390625 55.07617188 C-42.06635778 63.35764829 -38.59661992 69.60542541 -31.2265625 74.73242188 C-25.75275203 76.48404122 -20.57213783 76.53298377 -15.1640625 74.48242188 C-12.14698899 72.99941837 -12.14698899 72.99941837 -10.6640625 70.98242188 C-9.83695186 67.67397933 -9.68387343 65.13360429 -10.1015625 61.73242188 C-14.34742174 55.99678747 -20.56424239 54.17993303 -27.0390625 51.66992188 C-43.28016625 45.29262738 -43.28016625 45.29262738 -48.3515625 39.35742188 C-49.07085938 38.54144531 -49.07085938 38.54144531 -49.8046875 37.70898438 C-53.98222774 31.34201039 -53.79612966 24.05614907 -53.1015625 16.73242188 C-51.41513631 10.01701219 -47.60247771 4.87694704 -42.1015625 0.73242188 C-30.09311353 -6.04421571 -12.11859209 -7.3094482 0 0 Z " fill="#FBFDFC" transform="translate(843.1015625,962.267578125)"/>
<path d="M0 0 C4.47596158 1.47526088 6.0228505 4.89380109 8.125 8.8125 C8.50970459 9.51536133 8.89440918 10.21822266 9.29077148 10.94238281 C36.76996705 61.88590255 36.76996705 61.88590255 34.58984375 74.34375 C34.39519531 74.8903125 34.20054687 75.436875 34 76 C18.00737383 78.70913339 1.79781447 77.10537514 -14 74 C-14.75087891 73.85594727 -15.50175781 73.71189453 -16.27539062 73.56347656 C-20.52506836 72.74651585 -24.76542231 71.89248947 -29 71 C-26.39868933 61.19047734 -22.35790317 52.05741464 -18.375 42.75 C-16.93140327 39.35639777 -15.49117877 35.96136736 -14.05078125 32.56640625 C-13.69876144 31.7381282 -13.34674164 30.90985016 -12.98405457 30.05647278 C-9.73298855 22.39762298 -6.57603513 14.70278615 -3.47607422 6.98144531 C-1.10139104 1.10139104 -1.10139104 1.10139104 0 0 Z " fill="#ED1E26" transform="translate(632,536)"/>
<path d="M0 0 C9.83156732 6.90301535 15.10552302 16.90021771 17.54052734 28.47070312 C18.30869177 33.48597589 18.306435 38.4982259 18.3125 43.5625 C18.33699219 44.63886719 18.36148437 45.71523438 18.38671875 46.82421875 C18.41549285 54.69872962 17.29749423 61.07386169 12.12109375 67.21875 C11.54488281 67.6621875 10.96867187 68.105625 10.375 68.5625 C9.50681641 69.25859375 9.50681641 69.25859375 8.62109375 69.96875 C4.41426707 72.70172325 -0.24088172 72.82541428 -5.0625 72.0625 C-12.96263576 68.84977812 -17.42209476 62.52296685 -21.0625 55.0625 C-22.66639847 50.78706242 -23.96912198 46.49479584 -25.0625 42.0625 C-25.25585938 41.31097656 -25.44921875 40.55945313 -25.6484375 39.78515625 C-27.16990529 29.78078785 -27.95781348 16.1785759 -23.0625 7.0625 C-20.5 4.0625 -20.5 4.0625 -18.0625 2.0625 C-17.4025 1.4025 -16.7425 0.7425 -16.0625 0.0625 C-10.81598269 -1.6642019 -5.2464702 -1.6060623 0 0 Z " fill="#02A652" transform="translate(1130.0625,966.9375)"/>
<path d="M0 0 C-0.00666183 0.86364166 -0.01332367 1.72728333 -0.02018738 2.61709595 C-0.08037273 10.7679408 -0.12601213 18.9187107 -0.15543652 27.06972694 C-0.17107261 31.2599602 -0.19227306 35.45000939 -0.22631836 39.64013672 C-0.25898553 43.68610817 -0.27686848 47.73190288 -0.28463173 51.77799606 C-0.29016207 53.31932735 -0.30096154 54.86064929 -0.31719017 56.40190506 C-0.33906293 58.56583585 -0.34196292 60.72904233 -0.34057617 62.89306641 C-0.34723801 64.12328522 -0.35389984 65.35350403 -0.36076355 66.6210022 C0.04089042 70.38298949 1.03597701 72.78481543 3 76 C5.13692636 77.50324556 5.13692636 77.50324556 7.5625 78.3125 C8.74005859 78.77076172 8.74005859 78.77076172 9.94140625 79.23828125 C10.62074219 79.48964844 11.30007813 79.74101563 12 80 C12.99 80.495 12.99 80.495 14 81 C14.04254356 82.99954746 14.04080783 85.00041636 14 87 C12.38900355 88.61099645 10.64808736 88.13541431 8.42016602 88.14526367 C6.95843712 88.15483345 6.95843712 88.15483345 5.46717834 88.16459656 C3.87660866 88.16626579 3.87660866 88.16626579 2.25390625 88.16796875 C1.17245834 88.17129715 0.09101044 88.17462555 -1.02320862 88.17805481 C-3.31567966 88.18312877 -5.60815812 88.18546299 -7.90063477 88.18530273 C-11.41890567 88.18748845 -14.93686281 88.20563728 -18.45507812 88.22460938 C-20.67708225 88.22754328 -22.89908788 88.22952809 -25.12109375 88.23046875 C-26.17944931 88.23765427 -27.23780487 88.24483978 -28.32823181 88.25224304 C-29.79468895 88.2476281 -29.79468895 88.2476281 -31.29077148 88.24291992 C-32.58530495 88.24505745 -32.58530495 88.24505745 -33.9059906 88.24723816 C-36 88 -36 88 -38 86 C-38.0625 83.5625 -38.0625 83.5625 -37 81 C-34.68895182 79.94952356 -32.35416349 78.94992562 -30 78 C-27.88769528 74.92722134 -27.74323715 72.28866461 -27.7253418 68.62060547 C-27.71580978 67.54624237 -27.70627777 66.47187927 -27.69645691 65.36495972 C-27.69736832 64.21069489 -27.69827972 63.05643005 -27.69921875 61.8671875 C-27.69493362 60.67900421 -27.6906485 59.49082092 -27.68623352 58.26663208 C-27.68049263 55.75670001 -27.67998817 53.2467513 -27.68432617 50.73681641 C-27.68749355 46.88285253 -27.66399716 43.02965062 -27.63867188 39.17578125 C-27.63639973 36.73958431 -27.63569499 34.30338529 -27.63671875 31.8671875 C-27.627509 30.70887421 -27.61829926 29.55056091 -27.60881042 28.35714722 C-27.61815361 26.75505905 -27.61815361 26.75505905 -27.62768555 25.12060547 C-27.62705612 24.17780731 -27.6264267 23.23500916 -27.6257782 22.26364136 C-27.74927139 21.51663971 -27.87276459 20.76963806 -28 20 C-30.98646769 18.00902154 -33.59687262 17.05875074 -37 16 C-37.1875 13.625 -37.1875 13.625 -37 11 C-33.66299043 8.77532695 -31.07843134 8.17893439 -27.1875 7.25 C-20.39310042 5.57176502 -14.32109566 3.10560898 -8.0234375 0.07421875 C-4.69408566 -1.1086905 -3.34022393 -0.81970634 0 0 Z " fill="#FCFEFD" transform="translate(1639,957)"/>
<path d="M0 0 C5.23886561 2.5841938 8.38592578 7.30481614 10.9296875 12.421875 C11.71803181 15.95276619 11.75139361 19.32610984 11.69140625 22.93359375 C11.69477493 23.9054512 11.69814362 24.87730865 11.70161438 25.87861633 C11.70131724 27.91823661 11.68622997 29.95790386 11.65698242 31.99731445 C11.61715105 35.11222565 11.63635353 38.22290472 11.66210938 41.33789062 C11.65455315 43.32814143 11.64360259 45.31838286 11.62890625 47.30859375 C11.6393824 48.69627205 11.6393824 48.69627205 11.65007019 50.11198425 C11.55436865 54.5039767 11.33007916 57.50300811 8.51098633 60.99145508 C4.71662371 64.56403427 2.41863606 64.77633244 -2.62890625 64.6953125 C-8.31650061 64.05830193 -12.51061961 61.34439578 -16.3203125 57.171875 C-25.40212634 45.59749812 -26.00422978 32.5672276 -25.0703125 18.421875 C-24.03372113 10.76052244 -20.7265418 5.64196131 -15.0703125 0.421875 C-10.70527938 -1.76064156 -4.6191785 -1.28988381 0 0 Z " fill="#01A652" transform="translate(1543.0703125,965.578125)"/>
<path d="M0 0 C4.3654996 0.62287571 5.61442744 2.441156 8.42578125 5.765625 C9.2765625 6.75175781 10.12734375 7.73789062 11.00390625 8.75390625 C15.09015251 13.83231662 15.09015251 13.83231662 15.56640625 17.28515625 C15.06350886 21.36365407 13.59580892 23.05286719 10.92578125 26.140625 C10.136875 27.07261719 9.34796875 28.00460937 8.53515625 28.96484375 C5.65056906 32.00703256 3.52160941 34.11666796 -0.57421875 35.140625 C-5.78112694 34.03916365 -8.45918053 30.39686406 -11.82421875 26.453125 C-12.29730469 25.9065625 -12.77039062 25.36 -13.2578125 24.796875 C-15.09913456 22.40124491 -15.81066542 20.65642489 -16.01171875 17.640625 C-14.21932375 12.82945948 -11.15110606 9.31203054 -7.82421875 5.453125 C-6.97859375 4.4425 -6.13296875 3.431875 -5.26171875 2.390625 C-2.82421875 0.453125 -2.82421875 0.453125 0 0 Z " fill="#FAFDFC" transform="translate(1626.82421875,908.546875)"/>
<path d="M0 0 C6.21415587 2.52779222 9.11750917 5.99380573 12 12 C13.25300295 15.95177852 13.31154908 19.87197472 13 24 C9.42858123 26.38094585 7.85273884 26.24558937 3.6171875 26.23046875 C2.36808594 26.22853516 1.11898437 26.22660156 -0.16796875 26.22460938 C-1.47378906 26.21236328 -2.77960937 26.20011719 -4.125 26.1875 C-5.43855469 26.18685547 -6.75210938 26.18621094 -8.10546875 26.18554688 C-17.85984578 26.14015422 -17.85984578 26.14015422 -19 25 C-19.60132916 18.31599515 -19.38875349 12.84267843 -16 7 C-11.16101151 1.55613795 -7.41264529 -1.06479988 0 0 Z " fill="#05A754" transform="translate(976,964)"/>
<path d="M0 0 C6.91026201 3.58802066 10.49172637 8.72600648 13 16 C13.60889107 22.08891071 13.60889107 22.08891071 11.87548828 24.68261719 C9.12256056 26.61633211 6.95342988 26.35521475 3.6171875 26.328125 C2.36808594 26.32296875 1.11898438 26.3178125 -0.16796875 26.3125 C-1.47378906 26.291875 -2.77960938 26.27125 -4.125 26.25 C-6.09533203 26.24226562 -6.09533203 26.24226562 -8.10546875 26.234375 C-17.84621025 26.15378975 -17.84621025 26.15378975 -19 25 C-19.72221222 17.60028464 -19.57118667 11.099815 -15 5 C-10.24530243 0.58492369 -6.50943209 -0.87440133 0 0 Z " fill="#04A754" transform="translate(477,964)"/>
<path d="M0 0 C0.11668214 3.87474457 0.18741231 7.74903396 0.25 11.625 C0.30027344 13.26662109 0.30027344 13.26662109 0.3515625 14.94140625 C0.42828473 21.2709899 0.36422409 25.2419509 -4 30 C-8.03714593 32.53763458 -13.35995735 32.93754286 -18 32 C-20.74609375 30.40625 -20.74609375 30.40625 -23 28 C-24.16115643 22.01391405 -23.90898213 15.99276852 -21.375 10.4375 C-14.93388914 3.82688622 -9.32888485 -0.11803856 0 0 Z " fill="#07A856" transform="translate(1711,1002)"/>
<path d="M0 0 C0.0580966 3.9166043 0.09362893 7.83309763 0.125 11.75 C0.14175781 12.86117187 0.15851562 13.97234375 0.17578125 15.1171875 C0.18222656 16.18710937 0.18867187 17.25703125 0.1953125 18.359375 C0.20578613 19.34389648 0.21625977 20.32841797 0.22705078 21.34277344 C-0.00950008 24.11118158 -0.49235187 25.68479814 -2 28 C-6.87202402 31.41041681 -12.21612591 31.97352336 -18 31 C-21.07105927 29.17020511 -21.84688924 28.45933228 -23 25 C-23.63249254 19.16240491 -23.39263889 14.00725081 -20.48046875 8.82421875 C-14.93363382 1.98946436 -8.33952144 -0.13450841 0 0 Z " fill="#05A754" transform="translate(741,1003)"/>
</svg>
