<?xml version="1.0" encoding="UTF-8"?>
<svg version="1.1" xmlns="http://www.w3.org/2000/svg" width="1500" height="1279">
<path d="M0 0 C1.2675499 0.63733386 2.53186914 1.28112016 3.79345703 1.93017578 C4.81976479 2.44859795 4.81976479 2.44859795 5.86680603 2.97749329 C7.33343756 3.71890054 8.79874796 4.46292599 10.2628479 5.20932007 C14.14540178 7.1878501 18.03833413 9.14577791 21.93017578 11.10595703 C23.08494667 11.6884597 23.08494667 11.6884597 24.26304626 12.2827301 C29.97087508 15.15796376 35.7101338 17.95758573 41.48876953 20.68798828 C52.84973137 26.06825947 64.13648858 31.59781068 75.42626953 37.12548828 C79.38451023 39.06317758 83.34283254 41.0007 87.30126953 42.93798828 C88.27507065 43.41457382 89.24887177 43.89115936 90.25218201 44.38218689 C98.96880993 48.64661564 107.6953932 52.89032372 116.42626953 57.12548828 C129.01770653 63.23394088 141.59959447 69.36169921 154.17626953 75.50048828 C166.83672449 81.68000307 179.50192073 87.84951952 192.17626953 94.00048828 C204.76669649 100.11098348 217.34899444 106.23796812 229.92626953 112.37548828 C231.21250214 113.00313583 231.21250214 113.00313583 232.52471924 113.64346313 C235.99208327 115.33545894 239.45944184 117.02746594 242.92678833 118.71949768 C252.13347452 123.21201985 261.34189803 127.70097362 270.55126953 132.18798828 C271.7626358 132.77820267 271.7626358 132.77820267 272.99847412 133.38034058 C285.05879997 139.25598067 297.12492302 145.11960547 309.19366455 150.97793579 C323.71730443 158.02856878 338.22757869 165.10648865 352.73669434 172.18695068 C353.59589478 172.6062384 354.45509521 173.02552612 355.34033203 173.45751953 C356.62961609 174.08669281 356.62961609 174.08669281 357.94494629 174.72857666 C371.09235959 181.14399249 384.24498794 187.54870857 397.39703369 193.95462036 C403.11810645 196.74124518 408.83869125 199.52887006 414.55908203 202.31689453 C429.64801027 209.6707648 444.7379977 217.02246553 459.8348999 224.35995483 C462.01855179 225.4220745 464.20124425 226.48614471 466.38378906 227.55053711 C473.02408588 230.78493773 479.67715058 233.9822084 486.37939453 237.08642578 C487.5558252 237.63564697 488.73225586 238.18486816 489.94433594 238.75073242 C492.11797629 239.76230512 494.29706673 240.76228159 496.48242188 241.74829102 C497.42553223 242.18858643 498.36864258 242.62888184 499.34033203 243.08251953 C500.15969238 243.45610596 500.97905273 243.82969238 501.82324219 244.21459961 C503.67626953 245.50048828 503.67626953 245.50048828 504.62695312 247.23486328 C504.70064229 250.62018708 503.27445821 253.20654296 501.80126953 256.16845703 C501.4857312 256.82718811 501.17019287 257.48591919 500.84509277 258.16461182 C500.15937238 259.59321677 499.46835691 261.0192894 498.77270508 262.44308472 C497.27914984 265.50107338 495.81183668 268.5713923 494.34338379 271.64149475 C493.5811718 273.23496219 492.81772788 274.82784089 492.05310059 276.42015076 C488.31746798 284.21020144 484.73216857 292.06465609 481.17626953 299.93798828 C480.56950617 301.27815326 479.96257205 302.61824094 479.35546875 303.95825195 C478.43195312 305.99697797 477.50861008 308.03578097 476.58590698 310.07487488 C473.03122063 317.93018694 469.4624839 325.77907353 465.88452148 333.62380981 C465.16569179 335.20093787 464.44774702 336.77846958 463.73071289 338.35641479 C462.7380746 340.54080698 461.74267561 342.72392003 460.74658203 344.90673828 C460.44942291 345.56231216 460.15226379 346.21788605 459.84609985 346.89332581 C457.79035006 351.38640775 457.79035006 351.38640775 456.67626953 352.50048828 C454.59007931 352.59466601 452.50066476 352.61791706 450.41235352 352.61401367 C449.43190063 352.61423271 449.43190063 352.61423271 448.43164062 352.61445618 C446.26184825 352.61375711 444.09214074 352.60596506 441.92236328 352.59814453 C440.42163642 352.59628033 438.92090896 352.59485644 437.42018127 352.59385681 C433.46308727 352.59003181 429.50602975 352.58020168 425.5489502 352.56915283 C421.51392104 352.55893834 417.47888601 352.55435911 413.44384766 352.54931641 C405.52130484 352.53857939 397.59879172 352.52150318 389.67626953 352.50048828 C394.96927168 340.70489253 400.29361345 328.92460797 405.68112183 317.171875 C410.51471 306.62510982 415.34319317 296.07593403 420.11376953 285.50048828 C420.47277344 284.70707031 420.83177734 283.91365234 421.20166016 283.09619141 C422.48011825 280.25374433 423.68991705 277.45954571 424.67626953 274.50048828 C423.50322266 274.16017578 422.33017578 273.81986328 421.12158203 273.46923828 C413.9311336 271.06774633 407.28358899 267.44327997 400.55126953 264.00048828 C397.90464668 262.6531406 395.25605252 261.3097423 392.60595703 259.96923828 C391.91517059 259.61968582 391.22438416 259.27013336 390.51266479 258.9099884 C383.59153546 255.42580213 376.59881451 252.09559706 369.60296631 248.76469421 C359.94912358 244.16496813 350.34388651 239.46871507 340.74420166 234.75723267 C335.61870166 232.24189277 330.49127213 229.73049282 325.36376953 227.21923828 C324.35097931 226.72317581 323.33818909 226.22711334 322.29470825 225.71601868 C313.80705052 221.56062364 305.30786403 217.4294531 296.80126953 213.31298828 C284.70731305 207.45967069 272.62588909 201.58109659 260.55126953 195.68798828 C259.25890381 195.05727417 259.25890381 195.05727417 257.94042969 194.41381836 C254.45265227 192.71166039 250.96489281 191.00946563 247.47717285 189.30718994 C238.25358545 184.80560573 229.02790664 180.30831797 219.80126953 175.81298828 C218.99387329 175.41960266 218.18647705 175.02621704 217.35461426 174.62091064 C205.29410589 168.74517776 193.22780022 162.88146049 181.15887451 157.02304077 C169.24131437 151.23755288 157.33203309 145.4352101 145.42626953 139.62548828 C144.5689624 139.20714722 143.71165527 138.78880615 142.82836914 138.35778809 C139.3608113 136.66569672 135.89326071 134.97359052 132.42572021 133.28146362 C123.21904373 128.78894749 114.01063081 124.29999796 104.80126953 119.81298828 C103.99369202 119.41951202 103.1861145 119.02603577 102.35406494 118.62063599 C90.30183845 112.7489418 78.24447063 106.88789761 66.18304443 101.03512573 C57.41722536 96.78139615 48.6568292 92.51678094 39.90283203 88.23876953 C38.98849396 87.79209427 38.07415588 87.34541901 37.1321106 86.88520813 C32.6846084 84.71244732 28.23771954 82.53845059 23.79199219 80.36206055 C19.83329312 78.42484812 15.86724151 76.50324974 11.89916992 74.58532715 C9.70833979 73.51613948 7.53071884 72.42326971 5.35400391 71.32568359 C4.0189265 70.66738185 2.68365123 70.00948117 1.34814453 69.35205078 C0.19926758 68.77535645 -0.94960938 68.19866211 -2.13330078 67.60449219 C-6.49056998 66.09671967 -9.59298718 66.81161676 -13.83528137 68.50013733 C-14.66396225 68.91154465 -15.49264313 69.32295197 -16.34643555 69.74682617 C-17.77953819 70.45097908 -17.77953819 70.45097908 -19.24159241 71.1693573 C-20.26514328 71.68210709 -21.28869415 72.19485687 -22.34326172 72.72314453 C-23.4214769 73.2553511 -24.49969208 73.78755768 -25.61058044 74.33589172 C-28.51979581 75.77333565 -31.42556838 77.21746967 -34.33003235 78.66448212 C-37.36044228 80.1719812 -40.39537818 81.67030406 -43.43017578 83.16894531 C-47.06030674 84.96205765 -50.69022818 86.7555778 -54.31832886 88.55279541 C-63.38088454 93.04110542 -72.46626405 97.47918491 -81.57373047 101.87548828 C-84.13392244 103.11315772 -86.69372562 104.35162966 -89.25341797 105.59033203 C-89.88991776 105.89827698 -90.52641754 106.20622192 -91.1822052 106.52349854 C-100.03121285 110.8074336 -108.86389881 115.12491925 -117.69873047 119.43798828 C-130.40075786 125.63853606 -143.10740118 131.82932311 -155.82373047 138.00048828 C-168.4141761 144.11094489 -180.99645548 150.23796817 -193.57373047 156.37548828 C-194.43121887 156.79391998 -195.28870728 157.21235168 -196.17218018 157.64346313 C-199.6395442 159.33545894 -203.10690277 161.02746594 -206.57424927 162.71949768 C-215.78093546 167.21201985 -224.98935897 171.70097362 -234.19873047 176.18798828 C-235.00630798 176.58146454 -235.8138855 176.9749408 -236.64593506 177.38034058 C-248.70626091 183.25598067 -260.77238396 189.11960547 -272.84112549 194.97793579 C-284.75868563 200.76342369 -296.66796691 206.56576646 -308.57373047 212.37548828 C-309.4310376 212.79382935 -310.28834473 213.21217041 -311.17163086 213.64318848 C-314.6391887 215.33527984 -318.10673929 217.02738604 -321.57427979 218.71951294 C-346.60568821 230.93391044 -371.64910155 243.12353634 -396.70518494 255.28723145 C-404.68128743 259.15932223 -412.65649187 263.03326162 -420.63171387 266.90716553 C-424.3870975 268.73129983 -428.14252428 270.55534527 -431.89794922 272.37939453 C-433.15405295 272.98950151 -434.41015649 273.59960888 -435.66625977 274.2097168 C-436.98170776 274.84864868 -436.98170776 274.84864868 -438.32373047 275.50048828 C-433.14666392 287.95911997 -427.63834182 300.23659454 -421.88623047 312.43798828 C-421.56450867 313.12072815 -421.24278687 313.80346802 -420.91131592 314.50689697 C-420.26458199 315.87928429 -419.6178231 317.25165985 -418.97103882 318.62402344 C-418.65430206 319.2961084 -418.33756531 319.96819336 -418.01123047 320.66064453 C-417.69731354 321.32660645 -417.38339661 321.99256836 -417.05996704 322.67871094 C-414.13267044 328.89447714 -411.24301041 335.12697255 -408.38623047 341.37548828 C-407.96736572 342.28419678 -407.54850098 343.19290527 -407.11694336 344.12915039 C-406.74303467 344.95036377 -406.36912598 345.77157715 -405.98388672 346.61767578 C-405.49867554 347.67897705 -405.49867554 347.67897705 -405.00366211 348.76171875 C-404.32373047 350.50048828 -404.32373047 350.50048828 -404.32373047 352.50048828 C-426.43373047 352.50048828 -448.54373047 352.50048828 -471.32373047 352.50048828 C-491.74951172 308.2446289 -491.74951172 308.2446289 -492.934021 305.67816162 C-493.71218825 303.99215285 -494.49038629 302.30615829 -495.26861572 300.62017822 C-497.16368982 296.51453522 -499.05824849 292.40865605 -500.95166016 288.30224609 C-504.02937361 281.62852634 -507.10801654 274.95536168 -510.21212769 268.29386902 C-511.08972605 266.41050678 -511.96596016 264.526516 -512.84179688 262.64233398 C-513.88257754 260.40501925 -514.92633401 258.16908544 -515.97363281 255.93481445 C-516.42174316 254.970354 -516.86985352 254.00589355 -517.33154297 253.01220703 C-517.71971191 252.18164795 -518.10788086 251.35108887 -518.5078125 250.49536133 C-519.32373047 248.50048828 -519.32373047 248.50048828 -519.32373047 246.50048828 C-515.47386536 244.56276874 -511.62242873 242.62821248 -507.76977539 240.69604492 C-506.47153361 240.04447809 -505.17365622 239.39218449 -503.8762207 238.73901367 C-494.39716852 233.96787834 -484.8528736 229.3459485 -475.27302551 224.7807312 C-465.6130587 220.17286459 -455.99946092 215.47269713 -446.3916626 210.75723267 C-441.2661626 208.24189277 -436.13873306 205.73049282 -431.01123047 203.21923828 C-429.99844025 202.72317581 -428.98565002 202.22711334 -427.94216919 201.71601868 C-419.45451146 197.56062364 -410.95532496 193.4294531 -402.44873047 189.31298828 C-390.35477399 183.45967069 -378.27335003 177.58109659 -366.19873047 171.68798828 C-365.33715332 171.26751221 -364.47557617 170.84703613 -363.58789062 170.41381836 C-360.10011321 168.71166039 -356.61235375 167.00946563 -353.12463379 165.30718994 C-343.90104639 160.80560573 -334.67536758 156.30831797 -325.44873047 151.81298828 C-324.64133423 151.41960266 -323.83393799 151.02621704 -323.0020752 150.62091064 C-310.94156683 144.74517776 -298.87526116 138.88146049 -286.80633545 133.02304077 C-274.88877531 127.23755288 -262.97949402 121.4352101 -251.07373047 115.62548828 C-250.21642334 115.20714722 -249.35911621 114.78880615 -248.47583008 114.35778809 C-245.00827224 112.66569672 -241.54072165 110.97359052 -238.07318115 109.28146362 C-228.86650467 104.78894749 -219.65809175 100.29999796 -210.44873047 95.81298828 C-209.64115295 95.41951202 -208.83357544 95.02603577 -208.00152588 94.62063599 C-195.94120003 88.74499589 -183.87507698 82.88137109 -171.80633545 77.02304077 C-159.88877531 71.23755288 -147.97949402 65.4352101 -136.07373047 59.62548828 C-134.78776978 58.99797668 -134.78776978 58.99797668 -133.47583008 58.35778809 C-130.00827224 56.66569672 -126.54072165 54.97359052 -123.07318115 53.28146362 C-104.47536215 44.20641878 -85.87301191 35.14061683 -67.26123047 26.09423828 C-66.15877991 25.55827782 -66.15877991 25.55827782 -65.03405762 25.01148987 C-61.41399387 23.25206958 -57.79284005 21.49495837 -54.16943359 19.74243164 C-47.53853773 16.53334316 -40.91759949 13.30768003 -34.32620239 10.01805115 C-31.2698946 8.49407139 -28.20864842 6.98016965 -25.14691162 5.46713257 C-23.69505508 4.74612243 -22.2456487 4.02015483 -20.79888916 3.28897095 C-18.80533015 2.2817989 -16.80405878 1.2918461 -14.80029297 0.30517578 C-13.66672363 -0.26217285 -12.5331543 -0.82952148 -11.36523438 -1.4140625 C-6.67677054 -3.08727732 -4.44289351 -2.00442574 0 0 Z " fill="#FFFFFF" transform="translate(746.32373046875,67.49951171875)"/>
<path d="M0 0 C24.09 0 48.18 0 73 0 C83.3288689 18.36243359 83.3288689 18.36243359 86.90234375 25.42578125 C87.30981339 26.22372604 87.71728302 27.02167084 88.13710022 27.84379578 C89.40700503 30.33179644 90.67255322 32.82197555 91.9375 35.3125 C93.61155758 38.60114078 95.28758664 41.88877121 96.96484375 45.17578125 C97.37826019 45.98632965 97.79167664 46.79687805 98.21762085 47.63198853 C101.98020838 54.99323856 105.82922062 62.30766784 109.68969727 69.61791992 C112.82724234 75.56100195 115.91457451 81.52970851 119 87.5 C122.95365799 95.13865701 126.91870092 102.77040377 130.9375 110.375 C135.50883904 119.02679604 139.99928908 127.71991914 144.48849487 136.41448975 C148.29780837 143.79114303 152.11971545 151.16034313 156 158.5 C160.21596864 166.47461187 164.36164508 174.48494775 168.5 182.5 C172.65979188 190.55637574 176.82676561 198.60818447 181.0625 206.625 C185.64941577 215.30648335 190.16787704 224.02288072 194.68334961 232.74169922 C199.94593801 242.90162655 205.23484286 253.04763503 210.53222656 263.18945312 C212.52185283 266.99926311 214.50992264 270.80988414 216.49780273 274.62060547 C217.49186175 276.52600642 218.48616148 278.4312818 219.48071289 280.33642578 C222.09740031 285.34941175 224.70981347 290.36456932 227.31640625 295.3828125 C227.85974609 296.42759766 228.40308594 297.47238281 228.96289062 298.54882812 C230.00322426 300.54946973 231.04235256 302.55073873 232.08007812 304.55273438 C232.54994141 305.45572266 233.01980469 306.35871094 233.50390625 307.2890625 C233.91455322 308.08006348 234.3252002 308.87106445 234.74829102 309.68603516 C235.16135498 310.44964355 235.57441895 311.21325195 236 312 C236.28238935 312.86032428 236.56477869 313.72064856 236.85572529 314.60704327 C239.46016136 317.51352852 240.19266304 317.40019301 243.97626781 317.61523914 C246.17078314 317.6363764 248.36566661 317.62933025 250.56010437 317.60127258 C251.76731559 317.60554471 252.97452681 317.60981683 254.21832019 317.61421841 C257.5755474 317.62104579 260.93132637 317.6053651 264.28837883 317.58032811 C267.90594694 317.55877963 271.52346856 317.56603953 275.14108276 317.56983948 C281.410826 317.57246404 287.68030951 317.55674762 293.94998741 317.52865028 C303.01489586 317.48805262 312.07967845 317.47499692 321.14466796 317.46871033 C335.85115522 317.45776125 350.55750398 317.42447049 365.26391602 317.37719727 C379.55166937 317.3313175 393.83938514 317.29591787 408.12719727 317.2746582 C409.00757279 317.27334459 409.88794832 317.27203097 410.79500189 317.27067754 C415.21149077 317.26415246 419.62797991 317.2578339 424.04446924 317.25161803 C460.69641063 317.19976593 497.34819454 317.11168403 534 317 C534.30834778 316.38101334 534.61669556 315.76202667 534.93438721 315.12428284 C536.35634168 312.27117865 537.77972501 309.41878953 539.203125 306.56640625 C539.68797363 305.59304321 540.17282227 304.61968018 540.67236328 303.61682129 C543.63247948 297.68791183 546.64705497 291.79292932 549.75 285.9375 C550.19504883 285.09630615 550.64009766 284.2551123 551.09863281 283.38842773 C551.46311523 282.70208252 551.82759766 282.0157373 552.203125 281.30859375 C555.68149792 274.7296535 559.08695151 268.11296654 562.5 261.5 C567.01505973 252.75433878 571.55219789 244.02160535 576.15234375 235.3203125 C579.97850517 228.06942299 583.73875162 220.78468266 587.5 213.5 C592.04108973 204.70515492 596.60307047 195.92253245 601.22705078 187.17089844 C605.42160456 179.22205564 609.55008027 171.23913217 613.68334961 163.25830078 C618.94593801 153.09837345 624.23484286 142.95236497 629.53222656 132.81054688 C632.02298619 128.0411482 634.51138514 123.27051804 637 118.5 C639.97543208 112.796284 642.95127395 107.0927848 645.9296875 101.390625 C651.34566803 91.01944526 656.74427277 80.63951813 662.125 70.25 C666.41626062 61.96442773 670.73022435 53.69201159 675.09106445 45.44287109 C677.67628611 40.54217171 680.23197312 35.62664173 682.7734375 30.703125 C683.10567825 30.05963104 683.43791901 29.41613708 683.78022766 28.75314331 C685.43437401 25.54830483 687.08653232 22.34245961 688.73608398 19.13525391 C689.3513672 17.94171499 689.96668164 16.74819218 690.58203125 15.5546875 C691.12061768 14.50780762 691.6592041 13.46092773 692.21411133 12.38232422 C694.41170968 8.2202562 696.71426446 4.11432397 699 0 C723.09 0 747.18 0 772 0 C770.38922593 4.83232221 768.55369285 9.09701699 766.21875 13.57421875 C765.84921204 14.29100296 765.47967407 15.00778717 765.09893799 15.74629211 C763.90351531 18.06223978 762.70190237 20.37490946 761.5 22.6875 C760.67059499 24.29085869 759.84149463 25.89437501 759.01269531 27.49804688 C754.58348324 36.06012051 750.13129043 44.61010793 745.62255859 53.13061523 C742.08515498 59.81731789 738.60363674 66.5325679 735.125 73.25 C729.26028681 84.57419924 723.37200977 95.88581831 717.46777344 107.18945312 C714.97701381 111.9588518 712.48861486 116.72948196 710 121.5 C707.02456792 127.203716 704.04872605 132.9072152 701.0703125 138.609375 C695.65433193 148.98055481 690.25574775 159.36049246 684.875 169.75 C680.55423408 178.09217702 676.21004154 186.42090058 671.82324219 194.72851562 C667.61357795 202.71153881 663.46732633 210.7272797 659.31689453 218.74121094 C653.08503526 230.77246649 646.81454317 242.78340465 640.54101562 254.79296875 C639.06869074 257.6118124 637.59671213 260.43083639 636.125 263.25 C635.39216797 264.65378906 635.39216797 264.65378906 634.64453125 266.0859375 C630.70721334 273.63331573 626.78984887 281.19094803 622.875 288.75 C618.55423408 297.09217702 614.21004154 305.42090058 609.82324219 313.72851562 C606.22487143 320.5523086 602.67304458 327.3999291 599.125 334.25 C594.59028538 343.00362757 590.05392567 351.75634709 585.5 360.5 C585.03223145 361.40008789 584.56446289 362.30017578 584.08251953 363.22753906 C580.79688075 369.53060121 577.40525831 375.75702644 574 382 C450.25 382 326.5 382 199 382 C187.52365219 361.34257394 187.52365219 361.34257394 184 354.37890625 C183.59394531 353.58379135 183.18789063 352.78867645 182.76953125 351.96946716 C181.50999642 349.50200513 180.25469106 347.03242796 179 344.5625 C177.33504309 341.29209538 175.66815069 338.02268289 174 334.75390625 C173.3846489 333.54763077 173.3846489 333.54763077 172.75686646 332.31698608 C169.00018158 324.9685844 165.15749769 317.66670884 161.30371094 310.36889648 C158.21182623 304.5126142 155.16659631 298.63254759 152.125 292.75 C146.26100517 281.42543013 140.37200843 270.11417913 134.46777344 258.81054688 C131.47495397 253.07978545 128.48535956 247.34734078 125.49511719 241.61523438 C123.02120319 236.87316401 120.5465958 232.13145862 118.0703125 227.390625 C112.65433193 217.01944519 107.25574775 206.63950754 101.875 196.25 C97.94063955 188.65386266 93.9945031 181.06469384 90 173.5 C85.39354173 164.77640019 80.85370805 156.01877196 76.31689453 147.25878906 C71.05424266 137.09868968 65.76524137 126.95252623 60.46777344 116.81054688 C57.47495397 111.07978545 54.48535956 105.34734078 51.49511719 99.61523438 C49.02120319 94.87316401 46.5465958 90.13145862 44.0703125 85.390625 C38.65433182 75.01944498 33.25580936 64.63947575 27.875 54.25 C23.8759964 46.53007101 19.86679841 38.81604994 15.8125 31.125 C15.42513672 30.39007324 15.03777344 29.65514648 14.63867188 28.89794922 C12.92926737 25.65619583 11.21899227 22.41490254 9.50830078 19.17382812 C7.96187412 16.2419304 6.41822186 13.3085856 4.875 10.375 C4.38878174 9.45477051 3.90256348 8.53454102 3.40161133 7.58642578 C2.95712646 6.74063965 2.5126416 5.89485352 2.0546875 5.0234375 C1.65749512 4.26981934 1.26030273 3.51620117 0.85107422 2.73974609 C0 1 0 1 0 0 Z " fill="#FFFFFF" transform="translate(353,682)"/>
<path d="M0 0 C1.21128067 -0.0159874 2.42256134 -0.03197479 3.67054749 -0.04844666 C4.97479172 -0.05380936 6.27903595 -0.05917206 7.62280273 -0.06469727 C8.97753498 -0.07366663 10.33226622 -0.08278853 11.68699646 -0.09205627 C14.52231248 -0.10852235 17.35751069 -0.11624264 20.19287109 -0.11914062 C23.82722432 -0.12453828 27.46047332 -0.1622826 31.09451389 -0.20788479 C33.8903561 -0.2376058 36.68592995 -0.24486298 39.48191643 -0.24586678 C41.47345156 -0.2521208 43.46486967 -0.28161034 45.45619202 -0.31138611 C46.66432053 -0.30530838 47.87244904 -0.29923065 49.1171875 -0.29296875 C50.71458519 -0.30057472 50.71458519 -0.30057472 52.34425354 -0.30833435 C54.99389648 0.30639648 54.99389648 0.30639648 56.8455658 2.71665955 C59.000086 7.57557398 57.85487841 11.99421497 56.03979492 16.86865234 C55.64824219 17.78525635 55.25668945 18.70186035 54.85327148 19.64624023 C54.40532227 20.6986792 53.95737305 21.75111816 53.49584961 22.83544922 C50.46229361 29.84586301 47.41778071 36.85141106 44.34887695 43.84643555 C43.48296153 45.8214637 42.62094824 47.79815726 41.75952148 49.77514648 C41.25195312 50.9346582 40.74438477 52.09416992 40.22143555 53.28881836 C38.21962086 58.20974707 37.89118908 61.9656116 37.99389648 67.30639648 C42.79221281 69.65450873 46.6348817 70.67594831 51.97827148 70.90014648 C54.55550171 71.41958824 55.46388076 72.18567849 56.99389648 74.30639648 C56.99389648 79.03328752 56.69542126 81.29795462 53.99389648 85.18139648 C48.56640939 89.02586651 42.93211848 89.26787623 36.43139648 89.55639648 C30.43457359 90.07495021 27.12805981 92.01465294 22.99389648 96.30639648 C17.54168947 103.71819868 13.82156102 111.72431041 10.30639648 120.18139648 C9.17496556 122.85422642 8.03540784 125.52357514 6.89624023 128.19311523 C6.44000275 129.2657235 6.44000275 129.2657235 5.97454834 130.36000061 C1.88395361 139.95360617 -2.38347999 149.46909489 -6.63110352 158.99389648 C-8.36217872 162.88034532 -10.09238612 166.76718022 -11.82250977 170.65405273 C-12.25454712 171.62442474 -12.68658447 172.59479675 -13.13171387 173.59457397 C-17.6289284 183.69878867 -22.10124025 193.81395541 -26.56860352 203.93139648 C-26.95816223 204.81354828 -27.34772095 205.69570007 -27.74908447 206.60458374 C-29.7154221 211.0574673 -31.68141859 215.51050133 -33.6472168 219.96362305 C-37.2019324 228.01562735 -40.7599014 236.06619414 -44.31759644 244.11688232 C-46.29722933 248.5966627 -48.27665609 253.07653416 -50.25610352 257.55639648 C-51.04776919 259.34806359 -51.83943586 261.13973025 -52.63110352 262.93139648 C-53.02297852 263.81827148 -53.41485352 264.70514648 -53.81860352 265.61889648 C-76.38110353 316.68139651 -76.38110353 316.68139651 -77.56851196 319.36868286 C-78.36049014 321.16105881 -79.15246198 322.95343755 -79.94442749 324.74581909 C-81.91877622 329.21415674 -83.89323364 333.68244629 -85.86791992 338.15063477 C-90.31703821 348.21816807 -94.76320356 358.28699691 -99.20622253 368.35722351 C-102.37637115 375.54111815 -105.55339821 382.72195261 -108.73323059 389.90156555 C-110.83438004 394.64840475 -112.92520637 399.39956082 -115.0045166 404.15600586 C-116.20261087 406.89308905 -117.40781984 409.626997 -118.61480713 412.36016846 C-119.41624075 414.18170507 -120.20817033 416.00741411 -120.99975586 417.83325195 C-121.47493652 418.90591309 -121.95011719 419.97857422 -122.43969727 421.08374023 C-122.84244873 422.00405029 -123.2452002 422.92436035 -123.66015625 423.87255859 C-125.17582612 426.613301 -126.49116468 428.42368731 -129.00610352 430.30639648 C-131.64060974 429.90708923 -131.64060974 429.90708923 -134.00610352 429.30639648 C-138.5920916 414.78853672 -142.49400096 400.09339482 -146.42553711 385.38793945 C-147.30988457 382.08439971 -148.20450207 378.78390596 -149.1081543 375.4855957 C-150.21232884 371.45492731 -151.29763844 367.4195971 -152.37039948 363.38045883 C-152.77701187 361.86159458 -153.18988157 360.34438866 -153.60964203 358.82910538 C-160.09131272 335.37440483 -154.81222122 318.29516464 -144.94360352 296.61889648 C-144.03944787 294.61290889 -143.13647273 292.60638884 -142.23461914 290.59936523 C-140.84896396 287.51584256 -139.46269014 284.4326196 -138.07284546 281.35098267 C-134.01901091 272.36036279 -130.04516003 263.33611136 -126.09576416 254.29922485 C-118.64645786 237.25736675 -111.10852111 220.25559476 -103.54614258 203.26367188 C-97.36089662 189.36457503 -91.20396149 175.45318069 -85.06060791 161.53552246 C-79.7074785 149.40887176 -74.33519878 137.29098931 -68.94360352 125.18139648 C-63.71893545 113.44608341 -58.53401239 101.69394111 -53.37783813 89.92837524 C-46.80421737 74.92924583 -40.21081854 59.93896618 -33.57385254 44.96774292 C-32.70705204 43.01158016 -31.84122051 41.0549877 -30.97644043 39.09793091 C-13.75579266 0.1373324 -13.75579266 0.1373324 0 0 Z " fill="#FFFFFF" transform="translate(1004.006103515625,347.693603515625)"/>
<path d="M0 0 C1.92856339 -0.00639748 1.92856339 -0.00639748 3.89608765 -0.01292419 C5.32395938 -0.01257467 6.75183109 -0.01211313 8.17970276 -0.0115509 C9.68102604 -0.01454253 11.18234855 -0.01794506 12.68367004 -0.02172852 C16.76421345 -0.03057189 20.8447359 -0.03290676 24.92528796 -0.0335443 C28.32996342 -0.03449322 31.73463398 -0.03817127 35.13930756 -0.0417164 C43.17051603 -0.04986206 51.20171329 -0.05230051 59.23292542 -0.05158997 C67.52230291 -0.05098897 75.81161537 -0.06154488 84.10097641 -0.07733363 C91.21441945 -0.09040065 98.32784121 -0.09577422 105.44129616 -0.09513456 C109.6913809 -0.09487934 113.94140784 -0.0977434 118.19148064 -0.10831261 C122.1879268 -0.11797963 126.18425974 -0.11808241 130.18070984 -0.11079597 C131.6480736 -0.10974843 133.11544436 -0.1121231 134.5827961 -0.11815643 C136.58464283 -0.12585484 138.58652798 -0.12004192 140.58837891 -0.11352539 C141.70906989 -0.11407016 142.82976088 -0.11461493 143.98441219 -0.1151762 C146.85302804 0.13330969 148.50998275 0.48669884 150.85768127 2.13371277 C154.79359626 13.94145774 146.51276948 26.41802619 141.74885559 37.00102234 C139.9594738 40.97659039 138.18285012 44.95786334 136.40455627 48.93840027 C135.84558151 50.18834778 135.84558151 50.18834778 135.27531433 51.46354675 C131.50730534 59.89800371 127.80365279 68.36027074 124.10224915 76.82411194 C117.32125637 92.32708873 110.4442727 107.78348335 103.47477722 123.20262146 C99.55770656 131.86951663 95.6582131 140.54215711 91.86158752 149.26261902 C91.54541473 149.98862808 91.22924194 150.71463715 90.90348816 151.46264648 C89.44051268 154.82617556 87.98328046 158.19205082 86.53443909 161.56169128 C83.88553119 167.67974198 81.1533836 173.74635673 78.22486877 179.73527527 C77.68072327 180.84983093 77.13657776 181.9643866 76.57594299 183.11271667 C73.3788223 188.73379816 68.93441485 193.66769566 62.85768127 196.13371277 C59.93756008 196.38818836 59.93756008 196.38818836 56.4744873 196.39440918 C54.50383049 196.40503639 54.50383049 196.40503639 52.49336243 196.4158783 C51.03919948 196.41358454 49.58503687 196.41107485 48.13087463 196.40837097 C46.59822338 196.4127185 45.06557431 196.41790178 43.53292847 196.42385864 C39.3719151 196.43725319 35.21099253 196.43782698 31.04996181 196.43529534 C27.57803285 196.43422629 24.10612231 196.43910713 20.63419729 196.44390076 C12.44622678 196.45499677 4.25830215 196.45543233 -3.92967224 196.4493866 C-12.38329095 196.44334088 -20.83674346 196.45567272 -29.29033381 196.47695667 C-36.54476455 196.4945514 -43.79914228 196.50057754 -51.05359358 196.49731892 C-55.38805023 196.49550307 -59.72238825 196.49817253 -64.05682564 196.51203346 C-68.1304865 196.52457325 -72.20388733 196.52270452 -76.27754402 196.50962257 C-77.77435391 196.50724909 -79.27118188 196.510019 -80.76797104 196.5182457 C-82.80732652 196.52864833 -84.84675557 196.51884623 -86.8861084 196.50793457 C-88.02854539 196.50810231 -89.17098238 196.50827005 -90.34803867 196.50844288 C-93.14231873 196.13371277 -93.14231873 196.13371277 -95.004035 194.73678875 C-97.47010721 191.26375208 -96.64704592 187.16306939 -96.14231873 183.13371277 C-92.80840919 172.43943289 -87.68719519 162.20013226 -83.07981873 152.00871277 C-81.56043126 148.63814025 -80.04274133 145.26680459 -78.52513123 141.89543152 C-78.15022049 141.06354813 -77.77530975 140.23166473 -77.38903809 139.37457275 C-75.08376205 134.25230753 -72.8119887 129.1168669 -70.57200623 123.96574402 C-70.03442517 122.73474419 -69.49674929 121.50378578 -68.95896912 120.27287292 C-67.99040138 118.050245 -67.02814113 115.82485231 -66.07371521 113.59611511 C-61.8949239 104.04348641 -56.89822297 94.01166489 -47.14231873 89.13371277 C-44.61113985 89.03223873 -42.10654343 88.99006021 -39.57493591 88.99186707 C-38.40389565 88.98665543 -38.40389565 88.98665543 -37.209198 88.9813385 C-35.51059941 88.97397724 -33.81199118 88.96863383 -32.11338043 88.96504784 C-29.42309755 88.95788868 -26.73299772 88.94222549 -24.04277039 88.92370605 C-16.39254801 88.87121632 -8.74242426 88.8232733 -1.09202576 88.80778503 C3.58537995 88.79769395 8.26232767 88.76833855 12.93955231 88.72646523 C14.7208535 88.71416376 16.50221943 88.70903241 18.28356171 88.71126366 C20.78044332 88.7136211 23.27601587 88.69141708 25.77272034 88.66374207 C26.50541641 88.67034348 27.23811249 88.67694489 27.99301147 88.68374634 C34.01381809 88.57446571 37.38654752 86.34184548 41.76393127 82.43034363 C46.84701925 76.78739961 49.82035187 70.61219521 52.85768127 63.69621277 C53.37242004 62.54765808 53.88715881 61.39910339 54.41749573 60.21574402 C55.91290045 56.86160034 57.38656008 53.49856065 58.85768127 50.13371277 C59.62189757 48.42402969 60.38620826 46.7143888 61.15065002 45.00480652 C65.96273269 34.48184494 65.96273269 34.48184494 66.85768127 23.13371277 C65.86768127 21.64871277 65.86768127 21.64871277 64.85768127 20.13371277 C61.08581589 19.53364328 59.24111024 19.92002311 55.89283752 21.78605652 C52.570257 24.35603193 51.06560632 26.47141726 49.04518127 30.13371277 C48.55042297 31.02437439 48.55042297 31.02437439 48.04566956 31.93302917 C44.70068622 38.11115236 41.88853027 44.55032462 39.1787262 51.02824402 C35.53682517 59.51554541 30.39901808 67.86304437 21.85768127 72.13371277 C19.92809972 72.23517767 17.99499464 72.27211342 16.0627594 72.27897644 C14.24077026 72.28854622 14.24077026 72.28854622 12.38197327 72.29830933 C11.06426941 72.29942215 9.74656555 72.30053497 8.38893127 72.30168152 C7.02894556 72.30489352 5.6689602 72.30825755 4.30897522 72.31176758 C1.45752664 72.31775877 -1.39389163 72.31960744 -4.24534607 72.3190155 C-7.90412494 72.31891377 -11.56271024 72.33257778 -15.22144318 72.34978771 C-18.03008421 72.36088934 -20.83867813 72.3629353 -23.64733887 72.36240578 C-25.6537774 72.36416417 -27.66020124 72.37501474 -29.66661072 72.38595581 C-31.48859985 72.38134087 -31.48859985 72.38134087 -33.34739685 72.37663269 C-34.42058167 72.37805771 -35.49376648 72.37948273 -36.59947205 72.38095093 C-39.14231873 72.13371277 -39.14231873 72.13371277 -41.14231873 70.13371277 C-43.77245414 59.4324748 -37.90992826 49.48480667 -33.51585388 40.10295105 C-32.07825569 36.99522457 -30.70540637 33.86428687 -29.34153748 30.72355652 C-28.40110653 28.58901197 -27.45971951 26.45488836 -26.51731873 24.32121277 C-26.08701355 23.32573425 -25.65670837 22.33025574 -25.21336365 21.30461121 C-21.50123387 13.0715753 -16.64019837 6.34057363 -9.14231873 1.13371277 C-5.86162622 0.0401486 -3.45420922 0.00516705 0 0 Z M9.16236877 118.68058777 C4.64707837 125.60356013 1.51451215 133.28362656 -1.8032074 140.82829285 C-2.96127272 143.46088442 -4.13179879 146.08765859 -5.3044281 148.71379089 C-6.04929456 150.39120315 -6.79346057 152.06892665 -7.53684998 153.74699402 C-7.88472061 154.529319 -8.23259125 155.31164398 -8.59100342 156.11767578 C-8.91191452 156.84911301 -9.23282562 157.58055023 -9.5634613 158.33415222 C-9.84514664 158.97318985 -10.12683197 159.61222748 -10.41705322 160.27062988 C-11.78688435 163.78949149 -12.29831089 166.99037547 -12.32981873 170.75871277 C-12.34399841 171.53472839 -12.3581781 172.31074402 -12.37278748 173.11027527 C-12.32897709 175.3620827 -12.32897709 175.3620827 -10.14231873 177.13371277 C-6.89085078 177.84744963 -4.86834556 177.53763825 -1.95872498 175.91886902 C8.65617591 168.31122505 12.95352798 155.92932393 18.03639221 144.32804871 C19.11281897 141.8719902 20.19927147 139.42055768 21.28736877 136.96965027 C21.98326614 135.39438768 22.67859882 133.81887548 23.37330627 132.24308777 C23.69414185 131.51796997 24.01497742 130.79285217 24.34553528 130.04576111 C27.12079281 123.69825378 29.39173344 118.20990392 28.85768127 111.13371277 C27.1523091 107.80962216 27.1523091 107.80962216 23.73268127 107.50871277 C16.92125899 108.60732927 13.08583887 113.26874246 9.16236877 118.68058777 Z " fill="#FFFFFF" transform="translate(169.14231872558594,452.8662872314453)"/>
<path d="M0 0 C0.64549899 -0.00297112 1.29099798 -0.00594224 1.95605755 -0.0090034 C4.12867699 -0.01770607 6.30124144 -0.01919994 8.47387695 -0.02069092 C10.02755858 -0.02531787 11.58123906 -0.03034237 13.13491821 -0.03573608 C17.36207155 -0.04887129 21.58920899 -0.05530687 25.81637955 -0.05974674 C28.45468613 -0.06267481 31.09298834 -0.06677904 33.73129272 -0.07125092 C41.97846488 -0.08492692 50.22562708 -0.09459387 58.47280979 -0.09845281 C68.00743758 -0.10293821 77.54192234 -0.12050796 87.07650661 -0.1494534 C94.43787909 -0.17102939 101.79921119 -0.18115485 109.16061497 -0.18249393 C113.56159011 -0.18354462 117.96243082 -0.18950848 122.3633728 -0.20731354 C126.5001876 -0.22372454 130.6367659 -0.22598398 134.77360153 -0.21717453 C136.29502366 -0.21640047 137.81645815 -0.22079505 139.33784866 -0.23063278 C141.40862433 -0.24324184 143.47854817 -0.23753726 145.54931641 -0.22705078 C146.71002151 -0.22851734 147.87072662 -0.2299839 149.06660461 -0.2314949 C150.40709114 -0.04738619 150.40709114 -0.04738619 151.7746582 0.14044189 C154.46772844 4.18004724 154.41868833 7.47357554 153.7746582 12.14044189 C150.14001999 23.83730869 144.45981103 35.04448829 139.4621582 46.20294189 C138.56418302 48.21482932 137.66656441 50.22687593 136.76928711 52.23907471 C134.95965985 56.2962561 133.14845324 60.35272562 131.33569336 64.4085083 C128.0856582 71.68075493 124.84443793 78.9569081 121.60803223 86.23522949 C120.96719578 87.67635646 120.3261627 89.11739601 119.68493652 90.55834961 C115.09252837 100.87982892 110.54348191 111.21974042 106.0144043 121.56915283 C99.88707932 135.56936849 93.75382837 149.56788309 87.4836731 163.50485229 C86.855453 164.90380899 86.22992245 166.30397731 85.60739136 167.70547485 C75.56091605 190.29873265 75.56091605 190.29873265 65.7746582 195.14044189 C60.68501353 196.01335193 55.64541859 195.93164397 50.50195312 195.86920166 C48.95885495 195.87242434 47.41576035 195.87824665 45.87268066 195.88645935 C41.70123602 195.90094181 37.53076127 195.87812346 33.35943389 195.84760022 C28.9899855 195.82117174 24.62056488 195.8265326 20.25105286 195.8276825 C12.9199711 195.82487763 5.58926314 195.79888744 -1.74169922 195.75787354 C-10.22042553 195.71061406 -18.6987436 195.69488249 -27.1775921 195.69708019 C-35.33833342 195.6989098 -43.49894178 195.68361051 -51.65964317 195.65870476 C-55.13207728 195.6481072 -58.60446434 195.6426152 -62.07691383 195.64102364 C-66.16054137 195.63801445 -70.24382507 195.61973478 -74.32733917 195.58952522 C-75.82735527 195.58075044 -77.32741094 195.5770741 -78.82745171 195.57880783 C-80.87103299 195.58027626 -82.91459923 195.56148473 -84.95808411 195.5415802 C-86.10270017 195.53655267 -87.24731623 195.53152514 -88.42661762 195.52634525 C-91.2253418 195.14044189 -91.2253418 195.14044189 -93.08994579 193.73255825 C-95.39109465 190.50575746 -94.68521617 186.9068632 -94.2253418 183.14044189 C-92.05200189 175.90830655 -88.94233275 168.97736419 -85.84643555 162.10137939 C-85.43770706 161.1848912 -85.02897858 160.26840302 -84.60786438 159.32414246 C-83.29669907 156.3861733 -81.98021589 153.45063173 -80.6628418 150.51544189 C-78.85293439 146.47566451 -77.04458754 142.43519111 -75.23706055 138.39434814 C-74.79697662 137.41143295 -74.3568927 136.42851776 -73.9034729 135.41581726 C-71.46525371 129.95844931 -69.06908911 124.48712817 -66.74487305 118.98028564 C-66.26284424 117.84736084 -65.78081543 116.71443604 -65.28417969 115.54718018 C-64.45137476 113.57833675 -63.63020882 111.60449915 -62.82470703 109.62432861 C-58.96158106 100.54467147 -53.59155986 92.15044776 -44.2253418 88.14044189 C-41.40981612 87.7788814 -38.99885715 87.61350439 -36.19799805 87.65802002 C-35.42793427 87.65410751 -34.65787048 87.65019501 -33.86447144 87.64616394 C-32.2041607 87.64021794 -30.54379747 87.64330631 -28.8835144 87.65458679 C-26.25108414 87.67193412 -23.61974378 87.66429562 -20.98730469 87.65032959 C-14.45245465 87.62076736 -7.91781704 87.63386093 -1.38293457 87.64550781 C4.1477347 87.65372557 9.67792528 87.6457206 15.20852661 87.61637878 C17.79394749 87.60931004 20.37851381 87.62592795 22.96386719 87.64349365 C24.55835421 87.63778338 26.15283778 87.63096492 27.74731445 87.62286377 C28.45920929 87.63417831 29.17110413 87.64549286 29.90457153 87.65715027 C36.09671565 87.58228754 40.25537762 85.49990115 44.7565918 81.28424072 C49.84534165 74.6843401 53.13148764 67.43512625 56.3996582 59.82794189 C56.95060357 58.57288444 57.50268265 57.31832404 58.0559082 56.06427002 C59.65216125 52.43289215 61.21735395 48.78871076 62.7746582 45.14044189 C63.50507324 43.43235352 63.50507324 43.43235352 64.25024414 41.6897583 C67.79310877 33.56888519 67.79310877 33.56888519 68.8371582 24.89044189 C68.8062207 23.03419189 68.8062207 23.03419189 68.7746582 21.14044189 C66.66949639 19.72798644 66.66949639 19.72798644 63.7746582 19.14044189 C54.57050256 22.98945243 50.18258475 30.53156418 46.2746582 39.32794189 C45.49933918 41.01317038 44.7232975 42.69806658 43.9465332 44.38262939 C43.57592773 45.19570557 43.20532227 46.00878174 42.82348633 46.84649658 C33.24613156 67.79361609 33.24613156 67.79361609 24.7746582 71.14044189 C20.08278543 71.73244336 15.42009732 71.6767685 10.6965332 71.63653564 C9.31984379 71.63669074 7.94315393 71.63818151 6.56646729 71.64094543 C3.69165577 71.64232551 0.81734559 71.62983168 -2.05737305 71.60699463 C-5.74535766 71.57850297 -9.43251673 71.58138101 -13.12056351 71.59408474 C-15.95842576 71.60102894 -18.79609625 71.59326906 -21.63393402 71.58082771 C-22.99432389 71.57630841 -24.35473429 71.5759806 -25.71512604 71.57989311 C-27.6108184 71.58279534 -29.50650718 71.5641743 -31.40209961 71.54449463 C-32.4809845 71.53909164 -33.55986938 71.53368866 -34.67144775 71.52812195 C-35.51423279 71.40018753 -36.35701782 71.27225311 -37.2253418 71.14044189 C-40.18281187 66.70423679 -40.03510582 63.35532219 -39.2253418 58.14044189 C-37.616946 53.23840282 -35.57097351 48.58612077 -33.44995117 43.88702393 C-32.04026219 40.7253411 -30.68761542 37.54167138 -29.3347168 34.35528564 C-28.29949254 31.94980625 -27.26303222 29.54485844 -26.2253418 27.14044189 C-25.7396875 25.99519043 -25.2540332 24.84993896 -24.75366211 23.66998291 C-19.86183236 12.51670885 -13.47773011 0.03454082 0 0 Z M13.2824707 115.01104736 C9.05420376 121.30716378 5.87754927 127.91935317 2.7746582 134.82794189 C2.25282959 135.97536865 1.73100098 137.12279541 1.19335938 138.30499268 C-7.34966821 155.03184365 -7.34966821 155.03184365 -10.2253418 173.14044189 C-9.5653418 174.13044189 -8.9053418 175.12044189 -8.2253418 176.14044189 C-4.49499695 176.73390585 -2.58387955 176.32718031 0.7746582 174.57794189 C12.20242762 165.29287925 17.13859706 150.6534472 22.80200195 137.43170166 C23.66627435 135.41415334 24.53641179 133.39920904 25.4074707 131.38458252 C29.36636334 123.06261682 29.36636334 123.06261682 30.9621582 114.14044189 C30.97633789 113.45981689 30.99051758 112.77919189 31.00512695 112.07794189 C30.88406231 109.81430058 30.88406231 109.81430058 28.7746582 107.14044189 C22.13494408 105.71764601 17.22588678 110.06758303 13.2824707 115.01104736 Z " fill="#FFFFFF" transform="translate(1049.225341796875,453.85955810546875)"/>
<path d="M0 0 C0.64720784 -0.00382555 1.29441568 -0.00765109 1.96123588 -0.01159257 C4.12771301 -0.02190322 6.29392416 -0.01793426 8.4604187 -0.01396179 C10.01439662 -0.01830921 11.56837239 -0.02349246 13.12234497 -0.02944946 C17.34114025 -0.04284405 21.55984598 -0.04341788 25.77865839 -0.04088616 C29.29790275 -0.03981727 32.81712893 -0.04469745 36.3363694 -0.04949158 C44.63456892 -0.06058726 52.93272316 -0.06102311 61.23092651 -0.05497742 C69.80157986 -0.04892952 78.37206939 -0.06126915 86.94269478 -0.08254749 C94.29562273 -0.10013369 101.64849838 -0.10616978 109.0014466 -0.10290974 C113.39567449 -0.10109277 117.78978538 -0.10377452 122.18399429 -0.11762428 C126.31264293 -0.1301505 130.44103481 -0.12830836 134.56967926 -0.11521339 C136.08787241 -0.11283705 137.60608336 -0.11561989 139.12425613 -0.12383652 C141.19056206 -0.13421676 143.25599229 -0.12627553 145.32226562 -0.11352539 C147.05942683 -0.113777 147.05942683 -0.113777 148.83168221 -0.1140337 C149.7234963 0.00962724 150.6153104 0.13328817 151.53414917 0.26069641 C154.09131618 4.09644692 154.18790478 6.83111609 153.53414917 11.26069641 C150.49447957 21.56374223 145.95685609 31.31799992 141.49539185 41.06303406 C139.47880157 45.469564 137.48206518 49.88509155 135.48336792 54.29975891 C135.07078735 55.21003342 134.65820679 56.12030792 134.23312378 57.0581665 C129.96535127 66.48813457 125.8056572 75.96443138 121.65914917 85.44819641 C113.17497908 104.83600609 104.60115712 124.18305777 95.98168945 143.51107788 C93.81562265 148.37152522 91.66087509 153.23664256 89.5231781 158.1096344 C88.34207953 160.80053323 87.15499153 163.48876426 85.96691895 166.17658997 C85.19400597 167.93155123 84.42966743 169.69028131 83.66574097 171.44917297 C79.72443803 180.34398488 75.60106076 188.52422595 67.53414917 194.26069641 C64.22203235 195.36473535 61.76047535 195.39206332 58.27120972 195.40113831 C56.95881317 195.40684845 55.64641663 195.41255859 54.29425049 195.41844177 C52.83645639 195.41968711 51.37866219 195.42081221 49.92086792 195.42182922 C48.38836548 195.42645755 46.8558642 195.43148223 45.32336426 195.43687439 C41.15818449 195.44999583 36.99302084 195.45644242 32.82782364 195.46088505 C30.22719353 195.46381516 27.62656783 195.46791978 25.02593994 195.47238922 C16.89356538 195.48606122 8.76120091 195.49573029 0.62881565 195.49959111 C-8.76769176 195.50407638 -18.16405404 195.52164716 -27.56051731 195.55059171 C-34.81916638 195.57217747 -42.07777451 195.58229367 -49.33645535 195.58363223 C-53.67429112 195.58468216 -58.01199041 195.59063009 -62.34979248 195.60845184 C-66.42752879 195.62487978 -70.50502522 195.62711394 -74.58278275 195.61831284 C-76.08120998 195.61753971 -77.57964983 195.62192125 -79.07804489 195.63177109 C-81.1196283 195.64440723 -83.16130725 195.63685263 -85.20291138 195.62818909 C-86.91851509 195.63038893 -86.91851509 195.63038893 -88.66877747 195.63263321 C-91.46585083 195.26069641 -91.46585083 195.26069641 -93.32359314 193.8554039 C-95.87446847 190.29412344 -95.09949398 186.39499378 -94.46585083 182.26069641 C-93.56197069 179.71275222 -92.61346745 177.27327723 -91.54788208 174.79585266 C-91.08641029 173.7001017 -91.08641029 173.7001017 -90.61561584 172.58221436 C-86.38563983 162.60518837 -81.94970251 152.71639505 -77.52835083 142.82319641 C-76.23532572 139.92330987 -74.94296387 137.02312837 -73.65065002 134.1229248 C-72.80665721 132.23031374 -71.96166963 130.33814595 -71.11564636 128.44644165 C-69.11932261 123.98158958 -67.13450338 119.51253914 -65.18045044 115.02900696 C-64.82152206 114.20927902 -64.46259369 113.38955109 -64.0927887 112.54498291 C-63.42799938 111.02492449 -62.76716089 109.50312886 -62.11125183 107.97921753 C-58.46268862 99.6582202 -53.57640945 92.69354316 -45.46585083 88.26069641 C-42.55858999 87.80921431 -40.26280227 87.62397964 -37.37844849 87.69648743 C-36.60184372 87.69564148 -35.82523895 87.69479553 -35.02510071 87.69392395 C-33.35000981 87.69509272 -31.6748957 87.7075544 -29.99995804 87.73024178 C-27.34164867 87.76510449 -24.68500251 87.76767162 -22.02648926 87.76190186 C-15.42551893 87.75362462 -8.8250954 87.79504944 -2.22433472 87.84480286 C3.35941909 87.88607475 8.94218614 87.90346797 14.52608109 87.88744926 C17.13292633 87.88956241 19.73777002 87.9266003 22.34429932 87.96469116 C33.40103828 88.02253537 33.40103828 88.02253537 42.97253418 82.86175537 C44.90051387 80.88507791 46.44582265 79.06169035 47.75289917 76.62007141 C48.4547937 75.32746399 48.4547937 75.32746399 49.17086792 74.00874329 C51.54979306 69.21340278 53.84549165 64.39612761 56.03414917 59.51069641 C56.50973267 58.45882141 56.98531616 57.40694641 57.47531128 56.32319641 C58.83568091 53.30562389 60.18627546 50.28386678 61.53414917 47.26069641 C62.05452759 46.10344055 62.05452759 46.10344055 62.5854187 44.92280579 C68.19255671 32.59107992 68.19255671 32.59107992 69.53414917 19.26069641 C63.98672265 18.97376056 60.20848741 18.9073668 55.53414917 22.26069641 C49.28551674 29.89876811 45.95286386 39.17372109 42.29782104 48.22358704 C38.26608659 57.738052 33.02326128 66.42520642 23.53414917 71.26069641 C20.63053894 71.63491821 20.63053894 71.63491821 17.39865112 71.63301086 C16.18421829 71.63923965 14.96978546 71.64546844 13.71855164 71.65188599 C11.76522163 71.63807137 11.76522163 71.63807137 9.77243042 71.62397766 C8.41673279 71.62345868 7.06103441 71.62397784 5.70533752 71.62548828 C2.87171111 71.62539879 0.03837056 71.61501232 -2.79519653 71.59687805 C-6.43038936 71.57412621 -10.06516725 71.57366081 -13.7004118 71.5803957 C-16.49620771 71.58373257 -19.29190863 71.57711207 -22.08768654 71.56726646 C-24.08081402 71.56154017 -26.07395767 71.56285101 -28.0670929 71.5642395 C-29.87455742 71.54994148 -29.87455742 71.54994148 -31.71853638 71.53535461 C-32.78267258 71.53074722 -33.84680878 71.52613983 -34.94319153 71.52139282 C-37.46585083 71.26069641 -37.46585083 71.26069641 -39.46585083 69.26069641 C-40.98983363 60.45368002 -37.79569546 53.21733998 -34.46585083 45.26069641 C-34.1947348 44.61275116 -33.92361877 43.96480591 -33.64428711 43.29722595 C-31.86919785 39.08626917 -30.03972091 34.90187653 -28.17434692 30.73017883 C-27.53452748 29.29034064 -26.90269298 27.84692803 -26.27883911 26.40010071 C-14.89891279 0.02639274 -14.89891279 0.02639274 0 0 Z M15.53414917 110.26069641 C11.16692398 115.9751401 7.96825203 122.12098425 5.08102417 128.67866516 C4.50158051 129.969981 4.50158051 129.969981 3.91043091 131.28738403 C3.10343803 133.08984739 2.30031117 134.89404631 1.50094604 136.6999054 C0.28104131 139.4552159 -0.95071286 142.20498278 -2.18460083 144.95405579 C-2.97175041 146.71611695 -3.75823227 148.47847658 -4.54397583 150.24116516 C-4.90855896 151.05691513 -5.27314209 151.8726651 -5.64877319 152.71313477 C-9.44608932 161.04500066 -9.44608932 161.04500066 -10.71585083 170.01069641 C-10.72100708 170.76866516 -10.72616333 171.52663391 -10.73147583 172.30757141 C-10.63462154 174.49550402 -10.63462154 174.49550402 -8.46585083 176.26069641 C-3.67696996 176.81939918 -1.50506747 176.8842264 2.65914917 174.38569641 C9.73686824 167.56405562 13.55826832 157.29610017 17.53414917 148.51069641 C18.05597778 147.36778137 18.5778064 146.22486633 19.115448 145.0473175 C27.1565967 129.45591033 27.1565967 129.45591033 30.72164917 112.63569641 C30.73582886 111.85968079 30.75000854 111.08366516 30.76461792 110.28413391 C30.72080753 108.03232648 30.72080753 108.03232648 28.53414917 106.26069641 C22.82837539 105.6023379 19.85145135 106.49453919 15.53414917 110.26069641 Z " fill="#FFFFFF" transform="translate(774.4658508300781,453.7393035888672)"/>
<path d="M0 0 C1.84706543 -0.01913956 1.84706543 -0.01913956 3.73144531 -0.03866577 C5.07617028 -0.04172276 6.42089735 -0.04395088 7.765625 -0.04541016 C9.14420715 -0.05183678 10.52278792 -0.05856504 11.90136719 -0.06558228 C14.78974573 -0.07755427 17.67800465 -0.08126307 20.56640625 -0.08007812 C24.26901263 -0.07987464 27.97085396 -0.10720617 31.67327881 -0.14162254 C34.51972993 -0.1638474 37.3659954 -0.16791709 40.21252441 -0.16685867 C41.5777043 -0.16922018 42.94288888 -0.17807471 44.3079834 -0.19352341 C46.21563863 -0.21309523 48.12351819 -0.20484554 50.03125 -0.1953125 C51.11696289 -0.19816254 52.20267578 -0.20101257 53.32128906 -0.20394897 C56.015625 0.29052734 56.015625 0.29052734 57.87319946 2.18818665 C60.03957473 6.17484375 58.98911158 10.01429529 58.015625 14.29052734 C56.49035991 18.72799838 54.58573613 22.96049548 52.640625 27.22802734 C52.06989223 28.50857432 51.50060271 29.78976533 50.93261719 31.0715332 C49.6743094 33.90535147 48.40777096 36.73530323 47.13574219 39.56298828 C43.54929718 47.5450127 40.03111763 55.55743817 36.49822998 63.56326294 C35.30303336 66.26836071 34.1045108 68.97195709 32.90478516 71.67504883 C28.94776104 80.59559711 25.02187626 89.52917015 21.15625 98.48974609 C20.60991913 99.74828148 20.60991913 99.74828148 20.05255127 101.03224182 C12.65381492 118.25935063 8.64766346 131.18451284 12.640625 149.85302734 C13.01380859 151.76631836 13.01380859 151.76631836 13.39453125 153.71826172 C14.82103393 160.55624844 16.2519568 166.95644606 21.015625 172.29052734 C24.1918126 173.83790079 25.51890182 173.43090563 28.890625 172.47802734 C36.94310775 166.84128942 40.74730946 157.11907925 44.43832397 148.32382202 C45.30042583 146.27012488 46.1764081 144.22281704 47.0559082 142.17651367 C48.01786714 139.93832304 48.97908947 137.69985178 49.93647766 135.45970154 C53.55339867 127.00155643 57.27822227 118.59169185 61.00521851 110.18161011 C62.6177844 106.542173 64.2274813 102.90146982 65.8372345 99.26078796 C67.06764951 96.47810005 68.2984622 93.69558825 69.52929688 90.91308594 C72.44699015 84.31611884 75.36118019 77.71760583 78.27468872 71.11878967 C80.29895764 66.5343483 82.32443341 61.95044935 84.35302734 57.36791992 C89.1034692 46.63786364 89.1034692 46.63786364 93.80436707 35.88604736 C94.63660297 33.97090475 95.47213521 32.05723768 96.30883789 30.14404297 C97.27600031 27.929656 98.23683319 25.71248582 99.18920898 23.49169922 C103.20709675 14.32629878 107.58375602 4.86091474 117.015625 0.29052734 C121.783224 -0.54211461 126.4599848 -0.48042763 131.2890625 -0.40087891 C132.66288869 -0.39729656 134.03672233 -0.39594549 135.41055298 -0.39671326 C138.27368919 -0.39204569 141.13568549 -0.36737833 143.99853516 -0.3269043 C147.67082076 -0.27564454 151.34186944 -0.26447072 155.01447105 -0.26673985 C157.8437992 -0.26592551 160.67285616 -0.24949969 163.50209427 -0.22773552 C164.8568886 -0.21818689 166.2117136 -0.21227594 167.56653976 -0.2100544 C169.45251271 -0.20356788 171.33837083 -0.1749617 173.22412109 -0.14526367 C174.29697357 -0.13382828 175.36982605 -0.12239288 176.47518921 -0.11061096 C177.31353302 0.02176468 178.15187683 0.15414032 179.015625 0.29052734 C181.70801631 4.32911431 181.66304277 7.62477202 181.015625 12.29052734 C177.85850142 22.38577736 173.068214 32.03590915 168.69122314 41.64584351 C166.66271074 46.10144083 164.64741863 50.56300357 162.6328125 55.02490234 C162.03078506 56.35789619 162.03078506 56.35789619 161.41659546 57.71781921 C158.08532604 65.10730426 154.84105846 72.53083457 151.640625 79.97802734 C145.46966852 94.32508013 139.12870627 108.59467877 132.75952148 122.85473633 C128.43899254 132.53631661 124.16192223 142.23326291 119.9765625 151.97412109 C118.77052104 154.7684633 117.56378426 157.56250453 116.35702515 160.35653687 C115.59755796 162.12306988 114.84272794 163.89160491 114.09292603 165.66226196 C104.70412471 187.83152754 104.70412471 187.83152754 95.015625 194.29052734 C91.31924571 195.52265378 87.89342574 195.44604774 84.04345703 195.45166016 C83.23175049 195.45662506 82.42004395 195.46158997 81.58374023 195.46670532 C78.89696405 195.48131719 76.2102469 195.48812707 73.5234375 195.49365234 C71.65640257 195.49940429 69.78936766 195.50516202 67.92233276 195.51092529 C64.00665003 195.52143229 60.09098782 195.52727703 56.17529297 195.53076172 C51.15926499 195.53624794 46.14350826 195.56027995 41.12756538 195.58873367 C37.27053028 195.60736161 33.41356051 195.61256572 29.55648422 195.6140976 C27.70732006 195.61712395 25.85815704 195.62515189 24.00903702 195.63828278 C21.42134224 195.65534771 18.83431034 195.65346212 16.24658203 195.64697266 C15.48380951 195.65618744 14.72103699 195.66540222 13.93515015 195.67489624 C9.42004822 195.63944672 6.5617989 195.13027416 3.015625 192.29052734 C-0.17928218 188.88344941 -1.78243462 185.76049378 -3.23583984 181.34667969 C-3.63126984 180.16303833 -4.02669983 178.97939697 -4.43411255 177.7598877 C-4.8547304 176.46548419 -5.27512375 175.17100771 -5.6953125 173.87646484 C-6.1441926 172.51968137 -6.59399127 171.1632015 -7.04464722 169.80700684 C-8.2469616 166.1798996 -9.43621117 162.54863505 -10.62275696 158.91634369 C-11.85167203 155.16126035 -13.09206537 151.40997175 -14.33105469 147.65820312 C-16.54558234 140.94617445 -18.74933883 134.23067189 -20.94725037 127.5131855 C-22.77215585 121.93612062 -24.60462803 116.36156935 -26.4392395 110.78768921 C-28.04209106 105.9150978 -29.63909754 101.04060293 -31.234375 96.16552734 C-31.5220575 95.28773621 -31.80973999 94.40994507 -32.10614014 93.5055542 C-32.90725954 91.0572919 -33.70439279 88.60777316 -34.5 86.15771484 C-34.72605927 85.46794556 -34.95211853 84.77817627 -35.18502808 84.06750488 C-40.38523718 67.97576473 -39.0213484 57.42795634 -32.0703125 42.13427734 C-31.6963736 41.3064978 -31.32243469 40.47871826 -30.93716431 39.62585449 C-30.14907184 37.88986993 -29.35731008 36.15554677 -28.56201172 34.42285156 C-27.36573865 31.80445606 -26.19645125 29.17504833 -25.02734375 26.54443359 C-13.04981748 0.09163246 -13.04981748 0.09163246 0 0 Z " fill="#FFFFFF" transform="translate(560.984375,453.70947265625)"/>
<path d="M0 0 C1.23468018 -0.00960754 2.46936035 -0.01921509 3.74145508 -0.02911377 C5.09456193 -0.03396049 6.44767092 -0.03823963 7.80078125 -0.04199219 C9.18318688 -0.04774274 10.56559248 -0.05350048 11.94799805 -0.05926514 C14.84652071 -0.06977246 17.74501565 -0.07561733 20.64355469 -0.07910156 C24.36294753 -0.0845955 28.08197596 -0.10864326 31.80125427 -0.13707352 C34.65622034 -0.1556662 37.51109788 -0.1609036 40.36611938 -0.16243744 C41.73770141 -0.16547056 43.10928164 -0.17352127 44.48080444 -0.18662262 C46.39598393 -0.20361595 48.31131328 -0.19996784 50.2265625 -0.1953125 C51.31751221 -0.19895813 52.40846191 -0.20260376 53.5324707 -0.20635986 C54.38413818 -0.08508728 55.23580566 0.0361853 56.11328125 0.16113281 C58.83187713 4.23902663 58.6111478 7.37577114 58.11328125 12.16113281 C57.41454294 14.87024382 56.36878783 17.33345377 55.2109375 19.87597656 C54.74337791 20.95491432 54.74337791 20.95491432 54.26637268 22.0556488 C53.23146834 24.43158886 52.17295721 26.7961489 51.11328125 29.16113281 C50.36977711 30.85089249 49.62745389 32.54117222 48.88623047 34.23193359 C46.88652111 38.77859255 44.8647949 43.31511547 42.83624268 47.84896851 C41.07236405 51.79351232 39.31620307 55.74147674 37.55950928 59.68922424 C34.68400119 66.15095399 31.80684218 72.61193742 28.91943359 79.06835938 C12.14301436 114.66860279 12.14301436 114.66860279 12.92578125 153.03613281 C13.18681641 154.23238281 13.44785156 155.42863281 13.71679688 156.66113281 C15.45189798 165.60113465 15.45189798 165.60113465 20.92578125 172.53613281 C24.235298 173.48170903 25.82638129 173.32121515 29.11328125 172.16113281 C35.22501977 166.75968231 38.45808563 160.00870216 41.67578125 152.66113281 C42.1855249 151.52732178 42.69526855 150.39351074 43.22045898 149.2253418 C44.59030569 146.16585838 45.94655466 143.10124528 47.29296875 140.03143311 C48.0995519 138.19243553 48.90912544 136.35475046 49.71875 134.51708984 C52.26441927 128.73736035 54.79587917 122.95154169 57.31607056 117.16065979 C62.72791215 104.72541713 68.21475616 92.3235416 73.7019043 79.92138672 C74.51221314 78.08984645 75.32251584 76.25830347 76.1328125 74.42675781 C76.53749252 73.5121579 76.94217255 72.59755798 77.3591156 71.65524292 C79.93106384 65.84045032 82.49648058 60.02281932 85.05714417 54.20304871 C86.78409315 50.27827734 88.5128151 46.35428795 90.24160767 42.43032837 C91.06277313 40.56513236 91.88308689 38.69956112 92.70248413 36.83358765 C104.43512291 10.11811965 104.43512291 10.11811965 109.80078125 5.09863281 C110.56777344 4.36515625 111.33476562 3.63167969 112.125 2.87597656 C115.49554313 -0.03103412 117.61213627 0.03120042 122 0.01586914 C123.23468018 0.00948929 124.46936035 0.00310944 125.74145508 -0.00346375 C127.09456341 -0.00499219 128.44767226 -0.00610627 129.80078125 -0.00683594 C131.18318721 -0.0100479 132.56559282 -0.01341192 133.94799805 -0.016922 C136.84652495 -0.02291337 139.74502203 -0.02476184 142.64355469 -0.02416992 C146.36286641 -0.02406818 150.08198773 -0.03773213 153.80125427 -0.05494213 C156.6562183 -0.0660434 159.51113598 -0.06808973 162.36611938 -0.0675602 C163.73768776 -0.0687427 165.10925724 -0.07317953 166.48080444 -0.08089256 C168.39603227 -0.09065614 170.31131574 -0.0865596 172.2265625 -0.08178711 C173.31751221 -0.08321213 174.40846191 -0.08463715 175.5324707 -0.08610535 C178.11328125 0.16113281 178.11328125 0.16113281 180.11328125 2.16113281 C181.57857714 8.81331683 179.79564929 14.67691147 177.15625 20.75878906 C176.69094879 21.85847519 176.69094879 21.85847519 176.21624756 22.9803772 C175.1948023 25.3797459 174.15693117 27.77134345 173.11328125 30.16113281 C172.76226349 30.96531647 172.41124573 31.76950012 172.04959106 32.59805298 C169.76472113 37.81365302 167.45010685 43.01571025 165.12545776 48.21368408 C162.91462303 53.15749948 160.71203967 58.10499384 158.5078125 63.05175781 C157.83124352 64.56916061 157.83124352 64.56916061 157.14100647 66.11721802 C152.58840186 76.33025202 148.06668977 86.55683176 143.55078125 96.78613281 C142.77134192 98.55103436 141.99188227 100.31592693 141.21240234 102.08081055 C138.00100671 109.35270058 134.79105777 116.6252289 131.58154297 123.89794922 C129.45848865 128.70871958 127.33477127 133.51919683 125.21072388 138.32952881 C124.0376268 140.98685417 122.86534665 143.64453878 121.69311523 146.30224609 C120.23618545 149.60489966 118.77375384 152.9050377 117.30761719 156.20361328 C115.77549264 159.65265785 114.26767322 163.11133049 112.77050781 166.57568359 C111.99174169 168.35555856 111.21277635 170.13534638 110.43359375 171.91503906 C110.08884003 172.72456528 109.7440863 173.53409149 109.3888855 174.3681488 C106.95244676 179.89251647 104.12491174 184.63265619 100.11328125 189.16113281 C99.6218866 189.75695663 99.13049194 190.35278046 98.62420654 190.96665955 C91.90818905 197.52709339 81.66641157 195.98269794 72.94921875 195.88769531 C71.06930544 195.88665685 69.18938993 195.88769714 67.30947876 195.89071655 C63.38046609 195.89053765 59.45227882 195.86978886 55.5234375 195.83349609 C50.49508882 195.7880589 45.46794124 195.78704992 40.43944359 195.80053139 C36.56169004 195.80722246 32.68420893 195.79393061 28.80650711 195.77427292 C26.9526169 195.76659305 25.09869633 195.76426247 23.24479294 195.76744461 C20.65268189 195.76818878 18.06209599 195.74287429 15.47021484 195.71044922 C14.70954208 195.71540405 13.94886932 195.72035889 13.16514587 195.72546387 C8.01980295 195.62304979 5.05460948 194.44609615 1.11328125 191.16113281 C-3.30253422 184.05278544 -5.50222755 175.84014964 -8.10546875 167.93066406 C-8.60524738 166.42697772 -9.10553828 164.92346156 -9.60630798 163.42010498 C-10.93417163 159.42833848 -12.25442811 155.4340982 -13.57264328 151.43913651 C-14.6590728 148.1487831 -15.74915019 144.85964312 -16.83919811 141.57048702 C-19.49381521 133.56002335 -22.1405585 125.54698566 -24.78319073 117.5325613 C-26.57021481 112.11501501 -28.36772871 106.70101899 -30.17037964 101.28865051 C-31.31422305 97.84994151 -32.45080002 94.40887908 -33.58398438 90.96664429 C-34.07093128 89.49112853 -34.56060297 88.01650873 -35.05322266 86.5428772 C-41.39776003 67.53455208 -39.24580586 55.98260587 -30.80224609 38.07250977 C-29.64040036 35.60644717 -28.49844396 33.13192639 -27.359375 30.65527344 C-13.2002331 0.08261722 -13.2002331 0.08261722 0 0 Z " fill="#FFFFFF" transform="translate(350.88671875,453.8388671875)"/>
<path d="M0 0 C1.31943604 -0.0071553 2.63887207 -0.01431061 3.99829102 -0.02168274 C5.46916175 -0.02452311 6.94003274 -0.02723483 8.41090393 -0.02983093 C9.95311131 -0.03609427 11.49531717 -0.04274095 13.03752136 -0.04974365 C17.23374627 -0.067162 21.42995978 -0.07770705 25.62621188 -0.08594918 C28.24576501 -0.09109612 30.86531457 -0.0971719 33.48486519 -0.10346031 C41.6749055 -0.12251219 49.86493678 -0.13674499 58.054995 -0.14507228 C67.52060512 -0.15485464 76.98598201 -0.18120008 86.45150989 -0.22157317 C93.76109281 -0.25168506 101.07060866 -0.26653634 108.38025242 -0.26985329 C112.74945066 -0.27220886 117.11839974 -0.28123497 121.48753166 -0.30631447 C125.59567262 -0.32951522 129.70339892 -0.33386103 133.81158829 -0.32355309 C135.32131005 -0.3230557 136.83105167 -0.32943556 138.34071159 -0.34310913 C140.39821706 -0.36070579 142.45421442 -0.35378501 144.51171875 -0.34057617 C145.66412772 -0.34296453 146.81653669 -0.34535288 148.00386715 -0.34781361 C150.8193512 0.14717102 150.8193512 0.14717102 152.68623447 1.98624897 C154.68827374 5.80425882 154.39725389 9.21183327 153.17628479 13.30073547 C150.14098058 21.63334853 146.64605298 29.75350939 143.06617737 37.86347961 C142.00801268 40.26953005 140.96746101 42.68273867 139.92677307 45.09638977 C130.9525765 65.61995722 130.9525765 65.61995722 120.8193512 71.14717102 C117.74408488 72.17225979 115.62351811 72.27985288 112.40162659 72.29243469 C111.29360184 72.29881454 110.18557709 72.3051944 109.04397583 72.31176758 C107.84707626 72.3128804 106.6501767 72.31399323 105.41700745 72.31513977 C104.18776047 72.31846817 102.95851349 72.32179657 101.6920166 72.32522583 C99.09034093 72.33029225 96.48865875 72.33263424 93.88697815 72.33247375 C89.90146892 72.33235212 85.91614313 72.35281959 81.93067932 72.3717804 C79.40528965 72.37471432 76.87989865 72.37669912 74.35450745 72.37763977 C73.15963211 72.38482529 71.96475677 72.3920108 70.7336731 72.39941406 C69.62249619 72.39633743 68.51131927 72.3932608 67.36647034 72.39009094 C66.38956741 72.39151596 65.41266449 72.39294098 64.40615845 72.39440918 C61.70595592 72.13633309 60.08680388 71.6138054 57.8193512 70.14717102 C55.6498368 65.80814223 56.43390436 61.48626648 57.7256012 56.99873352 C60.3451873 49.52619623 63.40090344 42.25667971 66.5849762 35.01045227 C68.54889278 30.45491159 68.99978671 27.10914765 68.8193512 22.14717102 C68.4893512 21.48717102 68.1593512 20.82717102 67.8193512 20.14717102 C64.09870999 19.51387039 61.96288938 19.51005689 58.6318512 21.36592102 C53.7586784 25.22384949 50.77375346 29.6161565 48.11231995 35.16670227 C47.7731958 35.85996109 47.43407166 36.55321991 47.08467102 37.26748657 C42.68536404 46.35227963 38.63685933 55.59817101 34.5693512 64.83467102 C33.69475732 66.81271522 32.81974809 68.79057582 31.9443512 70.76826477 C30.13220793 74.86310171 28.32182493 78.95870989 26.51271057 83.05488586 C23.94029456 88.87682163 21.35842936 94.69451843 18.7724762 100.51045227 C18.36230255 101.43305344 17.95212891 102.3556546 17.52952576 103.30621338 C15.471951 107.93336382 13.41301001 112.55990367 11.3530426 117.18598938 C7.45175593 125.95092372 3.56220993 134.72054803 -0.28923035 143.50752258 C-2.10307231 147.64393682 -3.92311601 151.77760885 -5.74363708 155.91108704 C-6.60741615 157.87701218 -7.4681747 159.84426767 -8.32566833 161.8129425 C-9.51702601 164.54759633 -10.71884668 167.27743494 -11.9228363 170.00654602 C-12.26579742 170.80143433 -12.60875854 171.59632263 -12.96211243 172.41529846 C-16.93656398 181.36183236 -22.09368598 190.60368961 -31.1806488 195.14717102 C-33.1100955 195.25373472 -35.04322257 195.29600951 -36.97557068 195.30830383 C-38.1902301 195.31791138 -39.40488953 195.32751892 -40.65635681 195.3374176 C-42.6329126 195.34379242 -42.6329126 195.34379242 -44.6493988 195.35029602 C-46.00938418 195.35604665 -47.36936954 195.36180439 -48.72935486 195.36756897 C-51.58079914 195.37807598 -54.43221523 195.38392106 -57.28367615 195.3874054 C-60.94253747 195.39289933 -64.60102836 195.41694721 -68.25977325 195.44537735 C-71.06841636 195.46397064 -73.87696948 195.46920747 -76.68566895 195.47074127 C-78.6921366 195.4752516 -80.69855615 195.49391087 -82.7049408 195.51271057 C-83.91960022 195.50970947 -85.13425964 195.50670837 -86.38572693 195.50361633 C-87.45891174 195.50726196 -88.53209656 195.51090759 -89.63780212 195.5146637 C-90.47694153 195.39339111 -91.31608093 195.27211853 -92.1806488 195.14717102 C-95.15780772 190.68143265 -94.93980489 187.38847853 -94.1806488 182.14717102 C-93.26543124 179.56436149 -92.30534218 177.09461194 -91.22361755 174.58467102 C-90.75831635 173.48117813 -90.75831635 173.48117813 -90.28361511 172.35539246 C-86.69150178 163.88968914 -82.94712417 155.48932642 -79.19282532 147.09461975 C-76.98199059 142.15080436 -74.77940723 137.20330999 -72.57518005 132.25654602 C-72.12413406 131.24494415 -71.67308807 130.23334229 -71.20837402 129.19108582 C-66.65576941 118.97805182 -62.13405732 108.75147208 -57.6181488 98.52217102 C-56.83870947 96.75726948 -56.05924982 94.9923769 -55.2797699 93.22749329 C-52.06837426 85.95560326 -48.85842532 78.68307493 -45.64891052 71.41035461 C-43.52585621 66.59958425 -41.40213882 61.789107 -39.27809143 56.97877502 C-38.10499436 54.32144966 -36.93271421 51.66376506 -35.76048279 49.00605774 C-34.303553 45.70340417 -32.8411214 42.40326613 -31.37498474 39.10469055 C-29.84286019 35.65564599 -28.33504077 32.19697335 -26.83787537 28.73262024 C-26.05910925 26.95274527 -25.2801439 25.17295746 -24.5009613 23.39326477 C-24.15620758 22.58373856 -23.81145386 21.77421234 -23.45625305 20.94015503 C-18.88373399 10.57245068 -12.23550134 0.04538779 0 0 Z " fill="#FFFFFF" transform="translate(1236.180648803711,453.8528289794922)"/>
<path d="M0 0 C3.90178154 0.18985179 6.83336622 0.4826407 9.94433594 2.96459961 C13.82685707 7.5762117 16.51110422 12.9408344 19.28076172 18.26635742 C22.09806292 23.45174288 25.35553143 28.35276225 28.5814209 33.28933716 C30.32126053 35.96152615 32.03170767 38.65236885 33.74511719 41.34155273 C35.46976614 44.04421705 37.20492395 46.73243476 38.98339844 49.40014648 C41.54730251 39.03525657 43.41084976 28.61228377 45.17089844 18.08764648 C45.44593456 16.46063339 45.72132302 14.83367982 45.99707031 13.20678711 C46.6638806 9.27200571 47.32348828 5.33611547 47.98339844 1.40014648 C55.24339844 1.40014648 62.50339844 1.40014648 69.98339844 1.40014648 C69.30077269 10.94583729 67.72405658 20.25540218 66.04199219 29.66186523 C65.75156049 31.30517166 65.46153339 32.94854964 65.17189026 34.59199524 C64.41475666 38.88173187 63.65219199 43.17048507 62.88842773 47.45904541 C62.10750776 51.84963033 61.33181711 56.24113873 60.55566406 60.63256836 C59.03664398 69.22266481 57.51187548 77.81172773 55.98339844 86.40014648 C52.27867589 86.62636252 48.5757342 86.76322765 44.86621094 86.88452148 C43.82053955 86.94945801 42.77486816 87.01439453 41.69750977 87.08129883 C34.09171663 87.26790713 34.09171663 87.26790713 30.95800781 84.81436157 C28.21845137 81.43622142 26.14184899 77.71771639 24.46777344 73.70483398 C21.90021518 67.99891318 18.59364901 62.95674071 15.10839844 57.77514648 C14.04596044 56.15962797 12.98595821 54.54250424 11.92871094 52.92358398 C11.43661133 52.17173828 10.94451172 51.41989258 10.4375 50.64526367 C8.24296406 47.25692376 6.10982708 43.83146852 3.98339844 40.40014648 C2.59685132 45.73755132 1.43854686 51.04400398 0.51074219 56.47827148 C0.38276749 57.21213074 0.25479279 57.94598999 0.12294006 58.7020874 C-0.28050363 61.01763744 -0.68007851 63.33383094 -1.07910156 65.65014648 C-1.48221667 67.98064818 -1.88619393 70.3109923 -2.29185486 72.64105225 C-2.54277315 74.08319831 -2.79216608 75.52561085 -3.03981018 76.96832275 C-3.59297187 80.15591115 -4.23108991 83.25809987 -5.01660156 86.40014648 C-12.27660156 86.40014648 -19.53660156 86.40014648 -27.01660156 86.40014648 C-26.40558283 80.28995912 -25.77663034 74.49202248 -24.72558594 68.48779297 C-24.60024979 67.76617477 -24.47491364 67.04455658 -24.34577942 66.30107117 C-23.93763161 63.95713703 -23.52421977 61.61417052 -23.11035156 59.27124023 C-22.82250871 57.62886578 -22.53487384 55.98645487 -22.24743652 54.3440094 C-21.64799022 50.92373671 -21.04588977 47.50394487 -20.44189453 44.08447266 C-19.66658037 39.693689 -18.89825498 35.30171508 -18.13188934 30.90936184 C-17.5411151 27.52810031 -16.9465862 24.14750744 -16.35090637 20.76710701 C-16.06582895 19.146525 -15.78196196 17.5257296 -15.49931335 15.90472221 C-15.10592188 13.6517668 -14.70746856 11.39976577 -14.30761719 9.14794922 C-14.0819104 7.86572983 -13.85620361 6.58351044 -13.62365723 5.26243591 C-12.31850366 -0.89141041 -5.38672433 0.17065249 0 0 Z " fill="#FFFFFF" transform="translate(1188.0166015625,1128.599853515625)"/>
<path d="M0 0 C14.67024343 -1.97992956 14.67024343 -1.97992956 21 0 C26.15399402 3.99832042 28.71302536 10.38790058 31.51513672 16.11962891 C34.15322867 21.23705884 37.35957009 25.99336166 40.5 30.8125 C41.65790524 32.63045721 42.81424654 34.44941182 43.96875 36.26953125 C45.73771189 39.05018647 47.53646849 41.79807533 49.40625 44.51171875 C51 47 51 47 51 49 C51.66 49 52.32 49 53 49 C53.03738281 48.40823975 53.07476563 47.81647949 53.11328125 47.20678711 C53.7388225 38.98965886 55.11940612 30.96295548 56.58398438 22.86352539 C57.00346983 20.54330803 57.41635071 18.22198775 57.828125 15.90039062 C58.09337383 14.41399532 58.35898554 12.92766472 58.625 11.44140625 C58.74794434 10.75285049 58.87088867 10.06429474 58.99755859 9.35487366 C59.5692823 6.19873699 60.22136354 3.11454585 61 0 C68.26 0 75.52 0 83 0 C81.66476131 10.48101193 80.06131981 20.86790947 78.21484375 31.26953125 C77.95087257 32.7678461 77.68708746 34.26619375 77.42347717 35.76457214 C76.87671584 38.86823192 76.32773838 41.97148877 75.77709961 45.07446289 C75.07114421 49.05375543 74.3709376 53.03403544 73.67232418 57.01462269 C73.13156514 60.09213655 72.58783418 63.16911946 72.04318428 66.24594688 C71.78350277 67.7150313 71.52475174 69.1842805 71.26695061 70.65369606 C70.90877845 72.69261415 70.54661333 74.73078262 70.18334961 76.76879883 C69.97842392 77.92712723 69.77349823 79.08545563 69.56236267 80.27888489 C69 83 69 83 68 85 C49.83307977 87.65640424 49.83307977 87.65640424 44.10400391 83.68603516 C40.68380239 79.87081518 38.56972056 75.26665709 36.36621094 70.6796875 C33.82180624 65.68908958 30.67468213 61.06712223 27.625 56.375 C25.97449751 53.76580333 24.32616159 51.15524977 22.67822266 48.54443359 C20.54031582 45.30305084 18.25691189 42.15967665 16 39 C13.36 54.18 10.72 69.36 8 85 C0.41 85 -7.18 85 -15 85 C-13.63698075 77.01775695 -12.27220675 69.03581945 -10.90458298 61.0543642 C-10.26917736 57.34574463 -9.63445618 53.63701099 -9.00146484 49.92797852 C-6.1554525 33.25470143 -3.26300889 16.59801222 0 0 Z " fill="#FFFFFF" transform="translate(690,1130)"/>
<path d="M0 0 C7.51925587 6.11977292 12.39562268 14.57402339 14.4765625 24.015625 C15.7465934 38.42215479 14.31032127 50.94327262 5.38671875 62.765625 C-2.44702308 71.99310004 -12.72723733 78.1197518 -24.93945312 79.23657227 C-38.28152337 79.84127926 -50.95853553 79.62962372 -61.71484375 70.70703125 C-68.93984272 63.95017476 -74.8025144 56.19337892 -75.70043945 46.0078125 C-76.15200586 30.40628298 -74.35347201 18.30001813 -63.86328125 6.08203125 C-47.66685399 -11.07363772 -19.29342088 -13.2329515 0 0 Z M-47.5234375 19.703125 C-52.30466452 25.90610778 -54.2132964 32.65358518 -53.93359375 40.4609375 C-52.92327422 46.75378483 -50.09130551 52.230349 -44.9609375 56.078125 C-38.7316704 59.58916646 -32.5818666 59.76319261 -25.5234375 59.015625 C-18.12374313 56.80398451 -13.22956412 52.75403703 -9.5234375 46.015625 C-6.9382273 39.67010906 -6.32904196 32.95249185 -8.328125 26.36328125 C-11.16318225 19.86220169 -14.96057218 15.79770921 -21.5234375 13.015625 C-31.01864194 10.41708532 -40.64741495 12.48041223 -47.5234375 19.703125 Z " fill="#FFFFFF" transform="translate(1149.5234375,1136.984375)"/>
<path d="M0 0 C7.94148846 6.15552053 13.1695485 16.1352309 14.46533203 26.07202148 C14.59995919 28.41508048 14.63220119 30.72758457 14.6015625 33.07421875 C14.59326416 33.90236084 14.58496582 34.73050293 14.57641602 35.58374023 C14.23603929 48.01778691 9.78777483 57.71111436 1.28515625 66.76171875 C-10.27971261 77.6023231 -23.48744363 79.36433157 -38.67578125 79.07421875 C-50.80077055 78.54694978 -59.42282505 73.63007618 -67.5859375 64.94921875 C-76.4720094 54.37925652 -76.85079131 41.95205298 -75.8359375 28.76171875 C-73.62506641 17.11358648 -66.96706722 7.21337282 -57.8359375 -0.23828125 C-40.51796504 -11.50081402 -17.11847657 -11.54586611 0 0 Z M-47.8359375 19.51171875 C-53.3543165 26.69752162 -54.9528529 33.7493669 -53.8359375 42.76171875 C-52.22894079 49.20991939 -49.21864006 52.88325601 -43.8359375 56.66796875 C-37.713294 60.01628941 -29.60138234 59.83981399 -23.0390625 57.9609375 C-15.33232743 54.56296795 -11.93478317 49.24561632 -8.4609375 41.82421875 C-6.89248258 34.13878964 -7.2699829 27.96464219 -11.16796875 21.03125 C-14.66038978 16.27926729 -18.80415122 13.59142357 -24.4765625 12.0390625 C-33.33355354 10.73581953 -41.62404107 12.89526604 -47.8359375 19.51171875 Z " fill="#FFFFFF" transform="translate(438.8359375,1137.23828125)"/>
<path d="M0 0 C0.72716217 -0.00807175 1.45432434 -0.01614349 2.20352173 -0.02445984 C3.75203047 -0.0383281 5.30057013 -0.04903792 6.84912109 -0.05688477 C9.18259192 -0.07389816 11.51456996 -0.11772867 13.84765625 -0.16210938 C23.12953258 -0.26027565 32.60967577 -0.26629157 40.0402832 6.11914062 C45.54995674 11.80482072 47.93247432 17.70584124 48.2890625 25.55078125 C48.0320159 33.27288943 45.95641416 40.4034256 40.6640625 46.17578125 C36.88512006 49.59325963 32.60096377 51.50437285 27.8515625 53.23828125 C29.14200913 57.30600981 30.64318999 61.14055303 32.453125 65.00390625 C32.94296875 66.05835938 33.4328125 67.1128125 33.9375 68.19921875 C34.97094315 70.40774446 36.00480319 72.61607513 37.0390625 74.82421875 C37.52632813 75.87351562 38.01359375 76.9228125 38.515625 78.00390625 C38.96373535 78.96071289 39.4118457 79.91751953 39.87353516 80.90332031 C40.8515625 83.23828125 40.8515625 83.23828125 40.8515625 85.23828125 C33.2615625 85.23828125 25.6715625 85.23828125 17.8515625 85.23828125 C16.6346875 82.82515625 15.4178125 80.41203125 14.1640625 77.92578125 C13.79192627 77.19061279 13.41979004 76.45544434 13.03637695 75.69799805 C10.14336004 69.93509642 7.52686492 64.12394658 4.8515625 58.23828125 C3.2015625 67.14828125 1.5515625 76.05828125 -0.1484375 85.23828125 C-7.4084375 85.23828125 -14.6684375 85.23828125 -22.1484375 85.23828125 C-21.53741876 79.12809388 -20.90846628 73.33015724 -19.85742188 67.32592773 C-19.73208572 66.60430954 -19.60674957 65.88269135 -19.47761536 65.13920593 C-19.06946754 62.7952718 -18.65605571 60.45230528 -18.2421875 58.109375 C-17.95434465 56.46700055 -17.66670978 54.82458964 -17.37927246 53.18214417 C-16.77982616 49.76187148 -16.17772571 46.34207963 -15.57373047 42.92260742 C-14.79841631 38.53182376 -14.03009092 34.13984984 -13.26372528 29.7474966 C-12.67295104 26.36623508 -12.07842213 22.98564221 -11.48274231 19.60524178 C-11.19766489 17.98465977 -10.9137979 16.36386436 -10.63114929 14.74285698 C-10.23775781 12.48990157 -9.8393045 10.23790054 -9.43945312 7.98608398 C-9.21374634 6.70386459 -8.98803955 5.4216452 -8.75549316 4.10057068 C-7.64850604 -1.11891368 -4.64026138 0.0486866 0 0 Z M10.8515625 19.23828125 C9.8615625 24.51828125 8.8715625 29.79828125 7.8515625 35.23828125 C15.81277369 35.89371369 15.81277369 35.89371369 23.0390625 33.36328125 C25.21168828 30.81606481 25.79153671 29.69847895 26.2265625 26.36328125 C26.11652175 23.14927791 26.11652175 23.14927791 23.9765625 20.86328125 C19.44280972 18.5057298 15.92750638 18.96756424 10.8515625 19.23828125 Z " fill="#FFFFFF" transform="translate(473.1484375,1129.76171875)"/>
<path d="M0 0 C4.64064472 -0.09997246 9.28064272 -0.17197966 13.92211914 -0.21972656 C15.49612365 -0.23966084 17.07005589 -0.26681871 18.64379883 -0.30175781 C29.76922197 -0.5423075 40.18741792 -0.55305449 49 7.25 C54.71501277 13.74620156 55.56895782 20.22424345 55.3515625 28.7421875 C54.67769312 34.98671041 52.66336749 39.92079064 48.75 44.8125 C45.33355813 47.53012421 41.74360083 49.76793674 38 52 C37.01 52.66 36.02 53.32 35 54 C35.39380859 54.86802246 35.78761719 55.73604492 36.19335938 56.63037109 C37.64996166 59.8456698 39.10321251 63.06243896 40.55419922 66.28027344 C41.1833904 67.6737841 41.8139191 69.06669164 42.44580078 70.45898438 C43.35279374 72.4580709 44.25498538 74.45926313 45.15625 76.4609375 C45.44060913 77.08495453 45.72496826 77.70897156 46.01794434 78.35189819 C48 82.77225659 48 82.77225659 48 85 C40.41 85 32.82 85 25 85 C21.875 78.25 21.875 78.25 20.93310547 76.20800781 C18.07829251 70.06785356 15.03331434 64.06662869 12 58 C10.35 66.91 8.7 75.82 7 85 C-0.26 85 -7.52 85 -15 85 C-13.66476131 74.51898807 -12.06131981 64.13209053 -10.21484375 53.73046875 C-9.95087257 52.2321539 -9.68708746 50.73380625 -9.42347717 49.23542786 C-8.87671584 46.13176808 -8.32773838 43.02851123 -7.77709961 39.92553711 C-7.07114421 35.94624457 -6.3709376 31.96596456 -5.67232418 27.98537731 C-5.13156514 24.90786345 -4.58783418 21.83088054 -4.04318428 18.75405312 C-3.78350277 17.2849687 -3.52475174 15.8157195 -3.26695061 14.34630394 C-2.90877845 12.30738585 -2.54661333 10.26921738 -2.18334961 8.23120117 C-1.97842392 7.07287277 -1.77349823 5.91454437 -1.56236267 4.72111511 C-1 2 -1 2 0 0 Z M18 19 C17.01 24.28 16.02 29.56 15 35 C17.8153125 35.0928125 17.8153125 35.0928125 20.6875 35.1875 C22.27111328 35.23970703 22.27111328 35.23970703 23.88671875 35.29296875 C27.39065615 34.96323813 29.19698511 34.08584712 32 32 C33.52491998 28.95016004 33.23562548 26.3576631 33 23 C31.45737187 20.89641619 30.31891683 20.15945841 28 19 C26.29297265 18.93003986 24.58331997 18.91559846 22.875 18.9375 C21.26625 18.958125 19.6575 18.97875 18 19 Z " fill="#FFFFFF" transform="translate(905,1130)"/>
<path d="M0 0 C7.26 0 14.52 0 22 0 C21.72736328 1.56886963 21.45472656 3.13773926 21.17382812 4.75415039 C20.16157595 10.58826344 19.15703289 16.42368217 18.15478516 22.25952148 C17.72035726 24.78266964 17.28385383 27.30546137 16.84521484 29.82788086 C16.21422972 33.45854924 15.59077794 37.09044393 14.96875 40.72265625 C14.77188599 41.84583755 14.57502197 42.96901886 14.37219238 44.12623596 C12.50651829 53.32509475 12.50651829 53.32509475 13.9375 62.375 C17.28520849 65.01258851 20.8223487 65.16424954 25 65 C28.43569658 64.19929552 28.43569658 64.19929552 31 62 C34.14091195 56.03950859 35.12407262 49.89980514 36.2265625 43.30078125 C36.41971039 42.18817429 36.61285828 41.07556732 36.81185913 39.929245 C37.42436425 36.39167329 38.02505538 32.85222138 38.625 29.3125 C39.23456834 25.76253356 39.84653906 22.21299101 40.45956421 18.66362 C40.83941892 16.45931645 41.21680712 14.25458613 41.59146118 12.0493927 C41.76188934 11.05123032 41.9323175 10.05306793 42.10791016 9.0246582 C42.33083237 7.71063774 42.33083237 7.71063774 42.55825806 6.37007141 C42.95715696 4.22986512 43.47198467 2.11206134 44 0 C51.26 0 58.52 0 66 0 C64.42224425 9.56412764 62.83356674 19.12621549 61.22392273 28.68502808 C60.46055607 33.22575549 59.71098263 37.76826671 58.98085022 42.31445312 C58.47865085 45.42000505 57.95626481 48.52217912 57.4375 51.625 C57.17803589 53.29030762 57.17803589 53.29030762 56.91333008 54.98925781 C55.01736815 66.09015333 51.22707361 74.07626738 42.3125 81.125 C31.60850459 87.18386533 18.79247961 87.62622928 6.83203125 85.4140625 C0.23237883 83.1834823 -4.12021383 78.67418727 -8 73 C-12.14169347 63.68118969 -9.85873715 52.58980528 -8.06640625 42.91015625 C-7.86901352 41.80320908 -7.67162079 40.6962619 -7.46824646 39.55577087 C-6.8418662 36.05635032 -6.20224498 32.55949908 -5.5625 29.0625 C-5.1365291 26.68960389 -4.7113912 24.31655808 -4.28710938 21.94335938 C-3.50951846 17.61507184 -2.73050258 13.28707618 -1.93969727 8.96118164 C-1.78203384 8.09723282 -1.62437042 7.233284 -1.46192932 6.34315491 C-1.04224983 4.21431397 -0.5262573 2.10502919 0 0 Z " fill="#FFFFFF" transform="translate(777,1130)"/>
<path d="M0 0 C1.01046387 0.00990967 2.02092773 0.01981934 3.06201172 0.0300293 C12.62747051 0.26897245 19.45815821 2.53786792 27.5625 7.5 C21.41215831 19.20615034 21.41215831 19.20615034 17.5625 23.5 C11.5625 21.5 11.5625 21.5 8.75 20.3125 C4.5827559 19.25026131 0.71524557 19.32141126 -3.4375 20.5 C-5.24562366 21.76610942 -5.24562366 21.76610942 -6.4375 23.5 C-6.68798636 26.62549017 -6.68798636 26.62549017 -6.4375 29.5 C-5.45523438 29.72042969 -5.45523438 29.72042969 -4.453125 29.9453125 C5.05093656 32.28105644 14.71701697 35.24374127 20.5625 43.5 C24.48546378 50.08497491 24.33609398 56.99358806 23.5625 64.5 C21.36018649 72.39444691 16.94783172 78.25760941 9.86328125 82.36328125 C-1.39561743 87.92582712 -15.94344944 88.52797707 -27.9375 84.9375 C-33.57961807 82.73108511 -39.03243881 79.70040126 -43.4375 75.5 C-43.4375 71.39439357 -41.7754726 70.07228616 -39.1875 66.9375 C-38.39859375 65.96683594 -37.6096875 64.99617188 -36.796875 63.99609375 C-34.68614265 61.76305075 -33.26002552 60.59405232 -30.4375 59.5 C-29.426875 60.28375 -28.41625 61.0675 -27.375 61.875 C-21.39420041 66.10590633 -14.68177497 67.56971537 -7.4375 66.5 C-4.26928767 65.15021698 -4.26928767 65.15021698 -2.4375 62.5 C-1.6875 59 -1.6875 59 -2.4375 55.5 C-5.49013677 51.50051559 -9.14042802 50.33356385 -13.8125 49 C-21.96344558 46.64564321 -27.39632408 43.2695791 -32.4375 36.5 C-34.59114435 30.03906695 -34.75069976 21.35811884 -31.9375 15.0625 C-24.81183292 3.42723243 -12.99050265 -0.2451242 0 0 Z " fill="#FFFFFF" transform="translate(268.4375,1129.5)"/>
<path d="M0 0 C0.9782373 0.00088623 1.95647461 0.00177246 2.96435547 0.00268555 C12.1427158 0.15273841 20.03127788 1.46956447 27.375 7.375 C25.94191865 11.33406817 24.04358051 14.66218181 21.75 18.1875 C20.80253906 19.65123047 20.80253906 19.65123047 19.8359375 21.14453125 C19.35382812 21.88058594 18.87171875 22.61664062 18.375 23.375 C17.57449219 23.06755859 17.57449219 23.06755859 16.7578125 22.75390625 C10.19008958 20.37907218 3.07638314 17.9397698 -3.6875 20.5625 C-5.68132983 22.23888116 -5.68132983 22.23888116 -6.6875 24.3125 C-6.82713724 26.53629342 -6.82713724 26.53629342 -5.01171875 28.38671875 C-2.17386383 30.75082375 0.05527383 31.36179799 3.625 32.25 C11.50881147 34.50630968 17.96297312 38.24787965 22.375 45.375 C25.36534175 53.34924465 25.25720069 62.88077265 21.8125 70.75 C17.18112856 78.61835147 9.91302245 82.78434392 1.375 85.375 C-11.36412041 88.635867 -24.80041304 86.87982609 -36.0625 80.375 C-38.93169147 78.60650959 -41.33337804 76.85083595 -43.625 74.375 C-41.9968356 70.61769753 -39.61098083 67.758177 -37 64.625 C-36.18273437 63.64015625 -35.36546875 62.6553125 -34.5234375 61.640625 C-33.58371094 60.51914063 -33.58371094 60.51914063 -32.625 59.375 C-29.60634718 60.52964765 -26.82061546 61.75447363 -24.0625 63.4375 C-18.6427608 66.4922621 -13.77750765 66.95625295 -7.625 66.375 C-4.56850714 65.52663476 -4.56850714 65.52663476 -2.625 63.375 C-1.37088432 60.01325863 -1.37088432 60.01325863 -1.625 56.375 C-4.12973699 52.13175662 -6.53264884 50.72482222 -11.26098633 49.46313477 C-11.95861084 49.28967529 -12.65623535 49.11621582 -13.375 48.9375 C-21.14518426 46.75134224 -27.15056707 44.36602085 -31.5625 37.25 C-34.15631948 30.23142963 -34.85639339 23.67506912 -31.9375 16.625 C-28.15730211 9.03826138 -21.66458935 4.55654169 -14.03515625 1.25390625 C-9.33148465 0.04161976 -4.84035573 -0.00778983 0 0 Z " fill="#FFFFFF" transform="translate(614.625,1129.625)"/>
<path d="M0 0 C4.80137245 -0.09978872 9.60212521 -0.17189617 14.40429688 -0.21972656 C16.03363578 -0.23969079 17.66290445 -0.2668723 19.29199219 -0.30175781 C30.14491888 -0.52813788 38.22088416 0.08317751 47.8125 5.625 C54.42359572 12.80276107 55.71347306 19.89584466 55.35546875 29.50390625 C54.72958844 35.65954228 53.01902669 40.8249014 48.78515625 45.55078125 C40.23523756 52.49174368 31.2813622 54.17119788 20.6875 54.0625 C19.43356445 54.05573242 19.43356445 54.05573242 18.15429688 54.04882812 C16.10283351 54.03710548 14.05140727 54.01917203 12 54 C11.96414795 54.63993896 11.9282959 55.27987793 11.89135742 55.93920898 C11.28841126 65.79566044 9.00682678 75.35428419 7 85 C-0.26 85 -7.52 85 -15 85 C-11.69141155 64.81009094 -8.2670601 44.64377108 -4.6875 24.5 C-4.51105957 23.50457184 -4.33461914 22.50914368 -4.15283203 21.48355103 C-3.64921212 18.64496874 -3.14342551 15.80678272 -2.63671875 12.96875 C-2.48591354 12.11923264 -2.33510834 11.26971527 -2.17973328 10.39445496 C-2.03880753 9.60879654 -1.89788177 8.82313812 -1.75268555 8.01367188 C-1.63088425 7.33171753 -1.50908295 6.64976318 -1.3835907 5.94714355 C-0.98906861 3.94451122 -0.51161671 1.97566606 0 0 Z M18 19 C17.66104344 20.72807318 17.32908475 22.45751974 17 24.1875 C16.814375 25.15042969 16.62875 26.11335938 16.4375 27.10546875 C16.03122388 29.7934206 15.92066428 32.28771019 16 35 C23.14291013 35.38996838 23.14291013 35.38996838 30.0625 33.9375 C32.85472722 31.14527278 33.46461464 28.88154387 34 25 C32.69868726 22.00698071 31.93517013 20.46758506 29 19 C27.12620395 18.92966231 25.24998898 18.9156978 23.375 18.9375 C21.87066406 18.95103516 21.87066406 18.95103516 20.3359375 18.96484375 C19.17964844 18.98224609 19.17964844 18.98224609 18 19 Z " fill="#FFFFFF" transform="translate(306,1130)"/>
<path d="M0 0 C18.15 0 36.3 0 55 0 C54 11 54 11 52 19 C46.39 19 40.78 19 35 19 C34.88213135 20.37720215 34.7642627 21.7544043 34.64282227 23.17333984 C33.99902718 29.5865266 32.86856591 35.88839406 31.71484375 42.2265625 C31.49429825 43.45539154 31.27375275 44.68422058 31.04652405 45.95028687 C30.46567308 49.18273583 29.8815283 52.41456554 29.29571533 55.64611816 C28.69627727 58.9575819 28.10126718 62.26984094 27.50585938 65.58203125 C26.34127311 72.05542127 25.17192404 78.52793454 24 85 C16.74 85 9.48 85 2 85 C3.69060328 71.09432353 6.15928261 57.3488849 8.625 43.5625 C9.04977319 41.17388039 9.47425467 38.78520889 9.8984375 36.39648438 C10.92893043 30.59705264 11.96336529 24.79833692 13 19 C7.72 19 2.44 19 -3 19 C-2.49165612 12.22208164 -1.67431579 6.69726316 0 0 Z " fill="#FFFFFF" transform="translate(846,1130)"/>
<path d="M0 0 C18.48 0 36.96 0 56 0 C55.01 6.27 54.02 12.54 53 19 C44.585 19.495 44.585 19.495 36 20 C35.67201416 21.86245361 35.34402832 23.72490723 35.00610352 25.64379883 C33.92232828 31.79484887 32.83645506 37.94552563 31.74914646 44.09595203 C31.08994184 47.82523145 30.43158236 51.55465597 29.77514648 55.28442383 C29.14171021 58.88333003 28.50606422 62.48183952 27.86887932 66.08008385 C27.62607903 67.45346851 27.3840775 68.82699464 27.14288521 70.20066261 C26.80513055 72.12348611 26.46428107 74.04576521 26.12329102 75.96801758 C25.93009781 77.06277908 25.7369046 78.15754059 25.53785706 79.28547668 C25 82 25 82 24 85 C16.74 85 9.48 85 2 85 C3.41449561 76.83720332 4.83094717 68.6747535 6.25085354 60.51289654 C6.91008101 56.7230835 7.56844718 52.93312503 8.22485352 49.14282227 C8.85825227 45.4855604 9.49390229 41.82869638 10.13112068 38.17209816 C10.37393619 36.77638518 10.61593768 35.38053033 10.85711479 33.98453331 C11.19482968 32.03057585 11.53569751 30.07716412 11.87670898 28.1237793 C12.06990219 27.0112529 12.2630954 25.8987265 12.46214294 24.75248718 C13 22 13 22 14 19 C8.39 19 2.78 19 -3 19 C-2.01 12.73 -1.02 6.46 0 0 Z " fill="#FFFFFF" transform="translate(996,1130)"/>
<path d="M0 0 C18.48 0 36.96 0 56 0 C54 14 54 14 53 19 C47.39 19 41.78 19 36 19 C35.62488281 21.27390625 35.24976563 23.5478125 34.86328125 25.890625 C32.36865859 40.97984632 29.85447442 56.06514442 27.1875 71.125 C26.9810083 72.30223633 26.7745166 73.47947266 26.56176758 74.69238281 C26.36993896 75.76584961 26.17811035 76.83931641 25.98046875 77.9453125 C25.81442139 78.87875488 25.64837402 79.81219727 25.47729492 80.77392578 C25 83 25 83 24 85 C17.07 85 10.14 85 3 85 C3.61319491 77.20142886 4.64423706 69.60587801 6.03125 61.91015625 C6.22722778 60.80320908 6.42320557 59.6962619 6.62512207 58.55577087 C7.03651167 56.23691314 7.45007265 53.91843966 7.86572266 51.6003418 C8.50244917 48.04883912 9.13265444 44.49622647 9.76171875 40.94335938 C10.16368753 38.68222497 10.56601838 36.4211549 10.96875 34.16015625 C11.15731567 33.09974625 11.34588135 32.03933624 11.54016113 30.9467926 C11.71704468 29.96154099 11.89392822 28.97628937 12.07617188 27.96118164 C12.23081909 27.09723282 12.38546631 26.233284 12.5447998 25.34315491 C12.9584937 23.21365476 13.47386462 21.10454154 14 19 C8.39 19 2.78 19 -3 19 C-2.01 12.73 -1.02 6.46 0 0 Z " fill="#FFFFFF" transform="translate(527,1130)"/>
<path d="M0 0 C7.26 0 14.52 0 22 0 C18.81408289 19.3327243 15.56885961 38.65460474 12.22460938 57.96063232 C11.86656012 60.02840745 11.50930085 62.09631951 11.15283203 64.16436768 C10.64988259 67.08005653 10.14378672 69.99518119 9.63671875 72.91015625 C9.48591354 73.78671371 9.33510834 74.66327118 9.17973328 75.56639099 C9.03880753 76.37214066 8.89788177 77.17789032 8.75268555 78.00805664 C8.63088425 78.70999649 8.50908295 79.41193634 8.3835907 80.13514709 C8 82 8 82 7 85 C-0.26 85 -7.52 85 -15 85 C-11.69141155 64.81009094 -8.2670601 44.64377108 -4.6875 24.5 C-4.51105957 23.50457184 -4.33461914 22.50914368 -4.15283203 21.48355103 C-3.64921212 18.64496874 -3.14342551 15.80678272 -2.63671875 12.96875 C-2.48591354 12.11923264 -2.33510834 11.26971527 -2.17973328 10.39445496 C-2.03880753 9.60879654 -1.89788177 8.82313812 -1.75268555 8.01367188 C-1.63088425 7.33171753 -1.50908295 6.64976318 -1.3835907 5.94714355 C-0.99018981 3.95020252 -0.49363822 1.97455287 0 0 Z " fill="#FFFFFF" transform="translate(1056,1130)"/>
<path d="M0 0 C7.26 0 14.52 0 22 0 C20.66476131 10.48101193 19.06131981 20.86790947 17.21484375 31.26953125 C16.95087257 32.7678461 16.68708746 34.26619375 16.42347717 35.76457214 C15.87671584 38.86823192 15.32773838 41.97148877 14.77709961 45.07446289 C14.07114421 49.05375543 13.3709376 53.03403544 12.67232418 57.01462269 C12.13156514 60.09213655 11.58783418 63.16911946 11.04318428 66.24594688 C10.78350277 67.7150313 10.52475174 69.1842805 10.26695061 70.65369606 C9.90877845 72.69261415 9.54661333 74.73078262 9.18334961 76.76879883 C8.97842392 77.92712723 8.77349823 79.08545563 8.56236267 80.27888489 C8 83 8 83 7 85 C0.07 85 -6.86 85 -14 85 C-13.36725193 75.13597061 -11.82496493 65.56555171 -10.05859375 55.859375 C-9.7680746 54.23993478 -9.47804929 52.6204059 -9.18849182 51.00079346 C-8.43224033 46.77830149 -7.66937293 42.55703212 -6.9050293 38.33599854 C-6.12337119 34.01249038 -5.34810326 29.68783694 -4.57226562 25.36328125 C-3.05435986 16.90773066 -1.52885864 8.45357706 0 0 Z " fill="#FFFFFF" transform="translate(971,1130)"/>
<path d="M0 0 C6.0319012 4.753766 9.03515227 10.35970659 10.12890625 17.953125 C10.44777778 25.35094456 8.24530165 31.09328509 3.6640625 36.84375 C-1.60293518 42.44131239 -7.11423888 44.76640911 -14.7734375 45.03125 C-22.05438763 44.73593874 -27.92028241 42.73744245 -33.2109375 37.59375 C-38.53191951 30.60045936 -40.04268006 24.23314042 -39.2109375 15.59375 C-37.88069198 8.96670871 -34.10769671 4.12507942 -29.2109375 -0.40625 C-19.96588921 -6.13817994 -9.13301509 -5.80898486 0 0 Z M-27.28515625 5.36328125 C-31.93413082 10.4605846 -34.50302891 14.87171533 -34.2109375 21.90625 C-33.29181593 28.37292675 -29.73373793 33.67161634 -24.5859375 37.59375 C-18.85609609 40.0063148 -13.77657963 40.32679061 -7.7109375 38.59375 C-2.37065182 36.0019635 1.57636258 31.61830989 3.77734375 26.12890625 C5.25750241 20.2355138 4.85965263 15.84206362 1.7890625 10.59375 C-1.61679352 5.19210573 -5.03862617 2.76952891 -11.16015625 1.00390625 C-16.95861668 -0.15578584 -22.81760715 1.5519823 -27.28515625 5.36328125 Z " fill="#FFFFFF" transform="translate(1420.2109375,391.40625)"/>
<path d="M0 0 C2.536875 -0.061875 5.07375 -0.12375 7.6875 -0.1875 C8.47729248 -0.21481201 9.26708496 -0.24212402 10.08081055 -0.27026367 C14.60318145 -0.32344113 17.43303549 0.18325747 21 3 C22.5121867 6.02437339 22.17263369 8.66241534 22 12 C21.62875 12.721875 21.2575 13.44375 20.875 14.1875 C20.441875 15.0846875 20.441875 15.0846875 20 16 C20.64808564 17.34246312 21.31822584 18.67432801 22 20 C22.0777346 22.33203812 22.08967728 24.66839059 22 27 C19.36 27 16.72 27 14 27 C13.67 24.69 13.34 22.38 13 20 C11.02 19.34 9.04 18.68 7 18 C7 20.97 7 23.94 7 27 C4.69 27 2.38 27 0 27 C0 18.09 0 9.18 0 0 Z M7 6 C7 7.98 7 9.96 7 12 C8.98 12 10.96 12 13 12 C13.38218767 10.34385343 13.71395102 8.67542976 14 7 C12.87465895 5.64381501 12.87465895 5.64381501 9.9375 5.9375 C8.968125 5.958125 7.99875 5.97875 7 6 Z " fill="#FFFFFF" transform="translate(1395,398)"/>
</svg>
