<?xml version="1.0" encoding="UTF-8"?>
<svg version="1.1" xmlns="http://www.w3.org/2000/svg" width="2161" height="809">
<path d="M0 0 C713.13 0 1426.26 0 2161 0 C2161 266.97 2161 533.94 2161 809 C1447.87 809 734.74 809 0 809 C0 542.03 0 275.06 0 0 Z " fill="#94144C" transform="translate(0,0)"/>
<path d="M0 0 C0.66 0 1.32 0 2 0 C2.37060547 0.64622314 2.74121094 1.29244629 3.12304688 1.95825195 C10.31118853 14.48141123 17.54815064 26.96916242 24.9375 39.375 C31.11706396 49.75660721 37.15488587 60.20986844 43.12939453 70.71020508 C48.60205854 80.3258987 54.16234776 89.88827864 59.75 99.4375 C61.84318713 103.01521701 63.92751187 106.59775265 66 110.1875 C66.47211914 111.00404053 66.94423828 111.82058105 67.43066406 112.66186523 C68.33685741 114.23617604 69.23745652 115.8137231 70.13183594 117.39477539 C72.23931324 121.09562359 74.41434202 124.65413094 76.890625 128.12109375 C77.56581177 129.10613892 77.56581177 129.10613892 78.25463867 130.11108398 C79.09443468 131.32398331 79.97021407 132.51315348 80.88793945 133.66821289 C82.00390625 135.3125 82.00390625 135.3125 83 139 C81.56801473 143.00810126 79.27731518 146.42280521 77 150 C75.7806392 152.12465635 74.57129347 154.25508619 73.37109375 156.390625 C72.39905968 158.08731108 71.42699951 159.78398272 70.45355225 161.4798584 C68.68665831 164.5580982 66.92324992 167.63833238 65.16015625 170.71875 C64.80574463 171.33788269 64.45133301 171.95701538 64.08618164 172.59490967 C60.82369785 178.29898815 57.59774671 184.02339241 54.375 189.75 C49.45468694 198.48164169 44.43699411 207.15281588 39.375 215.80297852 C28.90418027 233.69690288 18.58547746 251.67915518 8.31762695 269.69018555 C7.18516333 271.67540665 6.05164413 273.66001736 4.91764832 275.6443634 C3.9684124 277.30540352 3.9684124 277.30540352 3 279 C3.82329835 278.99501401 4.6465967 278.99002802 5.49484348 278.98489094 C25.53421788 278.86731495 45.57296265 278.81051164 65.61269474 278.82121754 C75.30391314 278.82493177 84.99428282 278.80813289 94.68530273 278.74291992 C103.13282229 278.68612691 111.57939514 278.66794748 120.02707475 278.6959936 C124.49988 278.70949837 128.97078272 278.70376493 133.44334602 278.65177345 C137.65581479 278.60341593 141.8651135 278.6067975 146.07761383 278.64941406 C147.62115409 278.65599318 149.16490823 278.64386343 150.70812035 278.61136436 C155.31310598 278.52057254 159.56109739 278.60147051 164 280 C167.34248756 283.26853847 169.11372672 286.76668756 171 291 C171.99550278 292.76316085 173.00497748 294.5185912 174.03515625 296.26171875 C175.04680453 298.06889648 176.05583164 299.87754354 177.0625 301.6875 C181.63103021 309.83835495 186.27297583 317.94004549 191 326 C196.1190792 334.73445981 201.13822126 343.51922673 206.09887695 352.34448242 C210.05936566 359.37499623 214.106288 366.35147173 218.1875 373.3125 C222.61849733 380.87126015 226.95841158 388.46720583 231.17919922 396.14501953 C234.62429895 402.3846482 238.20848793 408.5385539 241.8125 414.6875 C246.71293434 423.05722063 251.57855135 431.44518006 256.375 439.875 C256.94065674 440.86201904 257.50631348 441.84903809 258.08911133 442.8659668 C258.86097778 444.22782104 258.86097778 444.22782104 259.6484375 445.6171875 C260.10395996 446.41753418 260.55948242 447.21788086 261.02880859 448.04248047 C262 450 262 450 262 452 C240.98166883 452.21024409 219.96351102 452.36895018 198.94434166 452.46630955 C189.18470485 452.51271709 179.42572136 452.57598486 169.66650391 452.67895508 C161.1602881 452.768662 152.6545454 452.82672402 144.14786971 452.84679645 C139.64335731 452.85853037 135.14019836 452.88610016 130.63611984 452.95157051 C126.39546981 453.0127117 122.15672887 453.03149584 117.91567993 453.01796913 C116.3603642 453.02044309 114.80498399 453.03832163 113.25004959 453.07284927 C101.4943639 453.32105922 101.4943639 453.32105922 97.77257919 450.03089809 C96.21678745 447.7372656 95.07474466 445.54834813 94 443 C93.42443359 442.03118896 92.84886719 441.06237793 92.25585938 440.06420898 C91.55686523 438.79299194 91.55686523 438.79299194 90.84375 437.49609375 C90.30363281 436.52091797 89.76351563 435.54574219 89.20703125 434.54101562 C88.64371094 433.51685547 88.08039063 432.49269531 87.5 431.4375 C82.76369813 422.89902829 77.94758395 414.41779826 73 406 C67.56056149 396.73625417 62.27233586 387.39667823 57.04345703 378.01269531 C53.10476112 370.95119997 49.09979064 363.93297048 45.03344727 356.94433594 C41.74419225 351.29121018 38.48929852 345.61939023 35.25 339.9375 C30.69111674 331.94412843 26.1026628 323.96823934 21.5 316 C14.96517312 304.68646023 8.46935447 293.3510924 2 282 C-0.2875096 284.92975222 -2.19978792 287.94000365 -4.046875 291.1640625 C-4.63686279 292.19055908 -5.22685059 293.21705566 -5.8347168 294.2746582 C-6.46676025 295.380271 -7.09880371 296.48588379 -7.75 297.625 C-8.41745206 298.78816099 -9.08518148 299.95116288 -9.75317383 301.11401367 C-11.14264371 303.53325807 -12.53091294 305.95318578 -13.91845703 308.37353516 C-16.53715947 312.93892681 -19.17079642 317.49566945 -21.80395508 322.05273438 C-27.4032988 331.74326417 -32.97395443 341.44942381 -38.51464844 351.17358398 C-42.27847712 357.7665698 -46.10188801 364.32357055 -49.9375 370.875 C-54.52557482 378.71314454 -59.04824073 386.58365197 -63.5 394.5 C-68.51709167 403.42165129 -73.63680461 412.27840973 -78.8112793 421.10961914 C-83.38808686 428.92733953 -87.89429074 436.78348781 -92.35766602 444.66650391 C-92.82358154 445.48683105 -93.28949707 446.3071582 -93.76953125 447.15234375 C-94.38211792 448.2350354 -94.38211792 448.2350354 -95.00708008 449.33959961 C-96 451 -96 451 -97 452 C-99.08827321 452.09685318 -101.17988362 452.12186882 -103.270401 452.12025452 C-103.93279091 452.12110894 -104.59518082 452.12196337 -105.27764314 452.12284368 C-107.5133287 452.12450033 -109.74894042 452.11897414 -111.98461914 452.11352539 C-113.58080544 452.11324353 -115.17699187 452.11340123 -116.7731781 452.1139679 C-121.12009895 452.11425592 -125.46699244 452.10835835 -129.81390691 452.10139394 C-134.35163947 452.09516128 -138.88937259 452.09455667 -143.42710876 452.09336853 C-152.0260784 452.09025495 -160.62503539 452.08204122 -169.22399944 452.07201904 C-179.01101728 452.06085872 -188.79803571 452.05534766 -198.58505833 452.05032361 C-218.72337929 452.03985862 -238.86168885 452.02225868 -259 452 C-257.70696311 447.99629995 -256.31619898 444.52197219 -254.1640625 440.90234375 C-253.60082275 439.94730957 -253.03758301 438.99227539 -252.45727539 438.00830078 C-251.55029907 436.48825439 -251.55029907 436.48825439 -250.625 434.9375 C-249.3442503 432.76740008 -248.06431594 430.59681878 -246.78515625 428.42578125 C-245.82440186 426.79890381 -245.82440186 426.79890381 -244.84423828 425.13916016 C-242.21083941 420.65673459 -239.6322439 416.14412903 -237.0625 411.625 C-232.62784955 403.84040166 -228.16666293 396.07157542 -223.6875 388.3125 C-223.0586792 387.22300049 -222.4298584 386.13350098 -221.78198242 385.01098633 C-218.57975824 379.46424021 -215.3749388 373.9190034 -212.16796875 368.375 C-205.5732264 356.96792385 -199.02874529 345.5358254 -192.56420898 334.05444336 C-189.02049445 327.77257821 -185.40453042 321.53901663 -181.72827148 315.33398438 C-178.51363213 309.89948269 -175.37334966 304.42490665 -172.25 298.9375 C-167.96403022 291.40928686 -163.62620825 283.91359947 -159.25 276.4375 C-153.79225648 267.10896267 -148.4051939 257.74150173 -143.05200195 248.35272217 C-137.52052253 238.65126064 -131.95329912 228.97105961 -126.36572266 219.30175781 C-122.53580077 212.67105993 -118.72792926 206.02833902 -114.9375 199.375 C-110.73085573 191.99521917 -106.47393632 184.64620829 -102.1875 177.3125 C-91.68687316 159.34659508 -81.30797974 141.31141962 -70.99432373 123.23764038 C-65.47954877 113.5739681 -59.92943868 103.93105224 -54.36328125 94.296875 C-50.55790919 87.70786926 -46.76975474 81.10944208 -43 74.5 C-33.03090157 57.02800265 -22.95822885 39.61646642 -12.80859375 22.2487793 C-8.49253211 14.85864771 -4.22061909 7.44506721 0 0 Z " fill="#FEFEFE" transform="translate(437,178)"/>
<path d="M0 0 C70.52396022 0 70.52396022 0 85.875 14.125 C94.69045289 23.58157674 97.39571663 33.83879886 97.27734375 46.42578125 C96.49613442 56.49347891 90.58721914 65.49666931 83 72 C82.34 72 81.68 72 81 72 C81 72.66 81 73.32 81 74 C82.258125 74.350625 83.51625 74.70125 84.8125 75.0625 C96.92008111 79.17450868 105.83621065 87.03428009 111.5 98.5 C114.81706322 107.81726201 114.43167436 120.65985443 111.0390625 129.90234375 C109.15958502 133.69662724 106.78644257 136.82876298 104 140 C103.52046875 140.59554687 103.0409375 141.19109375 102.546875 141.8046875 C91.82011986 153.99418197 74.05697125 156.99240383 59 159 C39.53 159 20.06 159 0 159 C0 106.53 0 54.06 0 0 Z " fill="#FDFAFC" transform="translate(1326,300)"/>
<path d="M0 0 C3.12755785 1.56377892 5.15343339 2.79744272 7.7578125 4.9765625 C8.46043213 5.56058838 9.16305176 6.14461426 9.88696289 6.74633789 C10.62551514 7.36629639 11.36406738 7.98625488 12.125 8.625 C13.66755153 9.90805385 15.21051748 11.19060964 16.75390625 12.47265625 C17.4927002 13.0877002 18.23149414 13.70274414 18.99267578 14.33642578 C21.32827472 16.27205838 23.68787899 18.17498073 26.0625 20.0625 C32.37625391 25.08359025 38.62409276 30.18569247 44.88134766 35.27685547 C46.98646524 36.98899189 49.09263866 38.69981969 51.19921875 40.41015625 C56.9959452 45.11678882 62.79142404 49.82441249 68.5625 54.5625 C72.84863415 58.07519641 77.16914649 61.54277766 81.5 65 C89.04554571 71.02495688 96.52668641 77.12407936 103.96484375 83.28125 C111.91449798 89.85566284 119.9083339 96.35581733 128.046875 102.6953125 C130.71381886 104.77665757 133.35833261 106.88666608 136 109 C136 74.35 136 39.7 136 4 C145.57 4 155.14 4 165 4 C165 58.12 165 112.24 165 168 C161.16051597 166.08025798 158.31387146 163.84986706 155.125 161.0625 C150.5058019 157.08514947 145.81690699 153.23534076 141 149.5 C136.38458532 145.91569539 131.87361332 142.2414136 127.4375 138.4375 C123.21989475 134.82240978 118.92774973 131.354376 114.5 128 C109.41012031 124.14382116 104.51117476 120.10890198 99.6574707 115.96044922 C95.76330226 112.63433944 91.80562709 109.40788706 87.79296875 106.2265625 C84.17510471 103.34239117 80.58805908 100.42111198 77 97.5 C71.80456316 93.27208073 66.59287612 89.06651429 61.35546875 84.890625 C58.72275621 82.77746933 56.11035284 80.64070777 53.5 78.5 C45.42283432 71.8789994 37.24483045 65.4126459 29 59 C29 93.32 29 127.64 29 163 C19.43 163 9.86 163 0 163 C0 109.21 0 55.42 0 0 Z " fill="#FDFCFD" transform="translate(1644,296)"/>
<path d="M0 0 C2.8731462 2.67263208 4.80301427 5.11027458 6.55859375 8.61328125 C7.25082031 9.97259766 7.25082031 9.97259766 7.95703125 11.359375 C8.68986328 12.82117188 8.68986328 12.82117188 9.4375 14.3125 C13.61211221 22.48606004 17.93437415 30.53829528 22.5 38.5 C27.44353482 47.141594 32.1279105 55.88795012 36.69580078 64.7331543 C40.04488431 71.20646537 43.50857459 77.59943648 47.07763672 83.95361328 C50.73926595 90.48739158 54.27782111 97.08434919 57.8125 103.6875 C62.31041594 112.08417921 66.90151754 120.41570789 71.625 128.6875 C76.16657172 136.65475419 80.55518589 144.68957515 84.8125 152.8125 C85.33473145 153.80403076 85.85696289 154.79556152 86.39501953 155.81713867 C86.8692334 156.72955322 87.34344727 157.64196777 87.83203125 158.58203125 C88.25202393 159.38874268 88.6720166 160.1954541 89.10473633 161.02661133 C90 163 90 163 90 165 C79.77 165 69.54 165 59 165 C51.75 151.4375 51.75 151.4375 49.48730469 147.20092773 C48.88821289 146.08145752 48.28912109 144.9619873 47.671875 143.80859375 C47.0644043 142.67220459 46.45693359 141.53581543 45.83105469 140.36499023 C44.92468262 138.69932007 44.92468262 138.69932007 44 137 C43.4649585 135.79388062 42.92991699 134.58776123 42.37866211 133.34509277 C41.37796893 131.47955573 41.37796893 131.47955573 40 130 C37.02333138 129.26359856 35.09320949 129.05003194 32.11035156 129.11352539 C31.31972824 129.10274963 30.52910492 129.09197388 29.71452332 129.08087158 C27.10560705 129.05349886 24.49955017 129.07534914 21.890625 129.09765625 C20.08028367 129.08827255 18.26995586 129.07581561 16.45965576 129.06040955 C11.69840253 129.02814784 6.93811126 129.03763876 2.17681885 129.05578613 C-2.68300963 129.06693416 -7.54259043 129.03865029 -12.40234375 129.01367188 C-21.93506762 128.97049318 -31.46724013 128.97141565 -41 129 C-41.30423386 129.93691681 -41.60846771 130.87383362 -41.92192078 131.83914185 C-42.93679722 134.81469357 -44.13551305 137.36636483 -45.64453125 140.1171875 C-46.15693359 141.05433594 -46.66933594 141.99148438 -47.19726562 142.95703125 C-47.73029297 143.91996094 -48.26332031 144.88289062 -48.8125 145.875 C-49.33392578 146.83019531 -49.85535156 147.78539062 -50.39257812 148.76953125 C-51.42565709 150.64996712 -52.47934581 152.51924382 -53.55444336 154.37597656 C-55.03041564 156.9207074 -55.03041564 156.9207074 -55.96313477 159.45996094 C-57.06431786 161.97107004 -57.81547482 163.32171891 -60 165 C-65.13273572 165.98888646 -70.12855221 165.75337105 -75.3125 165.5 C-76.73492649 165.45984499 -78.15746125 165.42334764 -79.58007812 165.390625 C-83.05564395 165.30272435 -86.52713582 165.16484613 -90 165 C-89.30327042 161.39254862 -87.81159629 158.51880687 -86.078125 155.29296875 C-85.47170166 154.16125244 -84.86527832 153.02953613 -84.24047852 151.86352539 C-83.5772691 150.63803017 -82.91376883 149.41269232 -82.25 148.1875 C-81.56493596 146.91598102 -80.87995981 145.64441469 -80.19506836 144.37280273 C-75.56102808 135.78953466 -70.81589349 127.27308296 -65.98730469 118.79760742 C-61.58762078 111.0701116 -57.28368491 103.29209858 -53 95.5 C-48.15989757 86.69701699 -43.27846534 77.92035759 -38.3125 69.1875 C-33.29107891 60.35348973 -28.42040779 51.44510723 -23.59960938 42.50024414 C-19.87552289 35.59582862 -16.07721616 28.73960397 -12.2109375 21.9140625 C-9.59288943 17.29100792 -7.01537065 12.64554247 -4.4375 8 C-3.99510986 7.20287598 -3.55271973 6.40575195 -3.09692383 5.58447266 C-2.06426448 3.72317669 -1.03207784 1.86161848 0 0 Z " fill="#FDFAFC" transform="translate(1531,294)"/>
<path d="M0 0 C2.71656346 2.42339826 4.23567083 5.0012576 5.93359375 8.20703125 C6.77386108 9.78218506 6.77386108 9.78218506 7.63110352 11.38916016 C8.22721436 12.5188623 8.8233252 13.64856445 9.4375 14.8125 C10.06568078 15.99301874 10.69451401 17.17319051 11.32397461 18.35302734 C12.28607336 20.15636996 13.24785369 21.95987113 14.2077179 23.7644043 C17.12060321 29.23929439 20.08407371 34.68556892 23.0625 40.125 C26.11598673 45.70715543 29.16196515 51.29294146 32.1796875 56.89453125 C37.54149153 66.84306504 42.96214097 76.74597109 48.5625 86.5625 C53.47776484 95.18414023 58.1398805 103.91187399 62.69384766 112.72900391 C65.6880612 118.51662976 68.75232399 124.25277827 71.9375 129.9375 C76.04273482 137.26857933 80.10265171 144.62305583 84.125 152 C84.70628662 153.05823975 85.28757324 154.11647949 85.88647461 155.20678711 C86.42151611 156.19042236 86.95655762 157.17405762 87.5078125 158.1875 C88.22928467 159.50814453 88.22928467 159.50814453 88.96533203 160.85546875 C90 163 90 163 90 165 C79.77 165 69.54 165 59 165 C56.2465625 159.9571875 56.2465625 159.9571875 53.4375 154.8125 C52.87474365 153.78229736 52.3119873 152.75209473 51.73217773 151.69067383 C47.7942319 144.47459576 43.89759023 137.23838186 40 130 C13.27 129.67 -13.46 129.34 -41 129 C-41.66 130.65 -42.32 132.3 -43 134 C-44.28644675 136.80597793 -45.65369745 139.52529134 -47.12109375 142.2421875 C-48.63132401 145.09194696 -49.71535316 147.96707876 -50.78515625 151.0078125 C-52.97183509 156.49645807 -55.02091288 161.53800219 -60 165 C-69.70655586 167.39115071 -80.18290358 166.1475735 -90 165 C-89.33316498 161.64306438 -88.05430315 159.05274637 -86.37890625 156.078125 C-84.07676423 151.94126009 -81.80971124 147.79105904 -79.58984375 143.609375 C-73.12874635 131.46991614 -66.59086777 119.3953036 -59.77734375 107.44873047 C-55.90248752 100.64042763 -52.14779086 93.77421 -48.4375 86.875 C-43.98580065 78.60320312 -39.41563005 70.41468326 -34.72583008 62.27587891 C-30.4382421 54.81490479 -26.27130692 47.28997692 -22.125 39.75 C-14.81733817 26.46178309 -7.43060578 13.21993428 0 0 Z " fill="#FDFAFC" transform="translate(773,294)"/>
<path d="M0 0 C9.57 0 19.14 0 29 0 C29 20.46 29 40.92 29 62 C37.43549905 55.15872289 37.43549905 55.15872289 45.5 48 C49.0355077 44.74492917 52.62778787 41.63363119 56.375 38.625 C61.1714071 34.75781137 65.6704146 30.65019284 70.16357422 26.44189453 C74.341667 22.55083684 78.69611405 18.9452341 83.15234375 15.375 C87.16191469 12.03094083 90.96527344 8.4791069 94.76171875 4.89648438 C99.73619217 0.2221947 102.4034358 -0.14193391 109.0703125 -0.09765625 C109.86654022 -0.0962413 110.66276794 -0.09482635 111.48312378 -0.09336853 C114.0304538 -0.08776345 116.57769647 -0.07521014 119.125 -0.0625 C120.85025915 -0.05748565 122.57551967 -0.05292263 124.30078125 -0.04882812 C128.53388791 -0.03779237 132.76692914 -0.02052436 137 0 C133.52904702 4.23876985 130.08695399 7.98594314 125.75 11.375 C122.0597577 14.31722021 118.48376428 17.31579507 115 20.5 C111.60401318 23.59555196 108.13828469 26.55151207 104.5625 29.4375 C100.75912497 32.51336588 97.09917348 35.68753166 93.5 39 C89.0301488 43.11378909 84.40955107 46.97087297 79.68359375 50.78515625 C76.20941647 53.65249034 72.89862182 56.68083831 69.5703125 59.71484375 C65.17037519 63.62664212 60.58753069 67.31078806 56 71 C57.65889153 75.32461832 60.94539755 78.20381537 64.17456055 81.38574219 C65.12373604 82.33294632 65.12373604 82.33294632 66.09208679 83.29928589 C68.1857408 85.38644829 70.28627905 87.46654354 72.38671875 89.546875 C73.8473361 91.0012184 75.30743713 92.45608052 76.76704407 93.91143799 C80.61527914 97.74636327 84.4690306 101.57569283 88.32440186 105.40344238 C94.47836115 111.51432699 100.62574126 117.63181004 106.76972389 123.75272369 C108.90923587 125.88208187 111.05216929 128.00795064 113.19548035 130.13348389 C114.52326203 131.45442902 115.85093 132.77548846 117.1784668 134.09667969 C117.76730652 134.67878204 118.35614624 135.2608844 118.96282959 135.86062622 C122.64125565 139.52913312 126.10822981 143.33435252 129.49914265 147.270298 C131.20171472 149.23247136 132.97133774 151.10496145 134.8125 152.9375 C135.37582031 153.50339844 135.93914062 154.06929687 136.51953125 154.65234375 C137.97715572 156.10165172 137.97715572 156.10165172 140 157 C140 157.66 140 158.32 140 159 C104.66006273 161.77427044 104.66006273 161.77427044 96.16015625 155.71875 C92.77488449 152.58147255 90.0296677 149.10096338 87.51898193 145.23574829 C82.36860517 137.65504849 75.44948593 131.3146558 68.98046875 124.8828125 C68.03097354 123.93518794 67.08170299 122.98733822 66.13264465 122.03927612 C63.65823639 119.56864774 61.18083981 117.10103804 58.70275879 114.63409424 C56.17304838 112.11467549 53.64621933 109.59237045 51.11914062 107.0703125 C46.6902949 102.65098802 42.25898515 98.23414605 37.82585144 93.81912231 C36.54933855 92.54731398 35.27416279 91.27416279 34 90 C33.54625 90.495 33.0925 90.99 32.625 91.5 C31 93 31 93 29 93 C29 114.78 29 136.56 29 159 C19.43 159 9.86 159 0 159 C0 106.53 0 54.06 0 0 Z " fill="#FDFAFC" transform="translate(1846,300)"/>
<path d="M0 0 C8.34464976 -0.69195726 16.67584956 -1.12355525 25.05078125 -0.90625 C25.75399506 -0.90878281 26.45720886 -0.91131561 27.18173218 -0.91392517 C31.2258982 -0.74756026 33.55300147 0.09370602 36.41308594 2.83056641 C38.45447674 5.1427238 39.90320843 7.23490581 40.90234375 10.1796875 C43.3577291 16.31361585 47.27740673 21.35996347 51.125 26.6875 C52.50924564 28.6625411 53.88957767 30.640332 55.265625 32.62109375 C55.91080078 33.54776855 56.55597656 34.47444336 57.22070312 35.42919922 C60.55038974 40.2400664 63.79234597 45.10696843 67 50 C67.66 50.99 68.32 51.98 69 53 C74.38501082 46.33850179 79.24356083 39.36982454 84.01348877 32.26452637 C85.27596426 30.3991361 86.55800655 28.54859007 87.84521484 26.70019531 C93.21172025 18.96832872 93.21172025 18.96832872 97.5234375 10.61328125 C101.41563657 2.19589571 101.41563657 2.19589571 106 0 C116.87752562 -1.8781755 128.06494087 -0.97258715 139 0 C136.30125734 4.91021235 133.36548162 9.40191466 130 13.875 C125.95080121 19.3273458 121.96992975 24.82011338 118.0625 30.375 C117.31407837 31.43835571 117.31407837 31.43835571 116.55053711 32.52319336 C115.03274611 34.68146631 113.51628329 36.84066763 112 39 C110.51621534 41.11127758 109.03169503 43.22202461 107.54541016 45.33154297 C106.56141229 46.72896898 105.5792962 48.12772204 104.59912109 49.52783203 C101.90167531 53.3664707 99.1484799 57.1509346 96.3203125 60.89453125 C95.71437256 61.70543213 95.10843262 62.51633301 94.48413086 63.35180664 C93.30999903 64.9190708 92.12374608 66.47734636 90.92407227 68.02514648 C87.94517812 71.8992191 87.94517812 71.8992191 86.7890625 76.51171875 C88.66039341 80.35700195 91.11794919 83.65524591 93.6875 87.0625 C94.88036311 88.67731024 96.07171683 90.29323635 97.26171875 91.91015625 C97.87966309 92.74691895 98.49760742 93.58368164 99.13427734 94.44580078 C102.15680175 98.58367704 105.07666195 102.79175481 108 107 C112.50112401 113.46255999 117.05827072 119.87860249 121.6875 126.25 C125.85823939 131.99677334 129.97235784 137.7768884 134 143.625 C134.43272217 144.25180664 134.86544434 144.87861328 135.3112793 145.52441406 C138.33452637 149.93923964 141.19450484 154.44405494 144 159 C115.17505762 162.31363031 115.17505762 162.31363031 107.20898438 157.21289062 C102.70542877 152.44083035 100.0079915 146.70405433 97.32861328 140.76953125 C95.36460608 136.67550375 92.77723693 133.18362738 90.0625 129.5625 C89.09579733 128.21412611 88.13365665 126.86247147 87.17578125 125.5078125 C86.67643066 124.80301758 86.17708008 124.09822266 85.66259766 123.37207031 C80.01443936 115.31369938 74.52286407 107.14451992 69 99 C65.67096189 103.05579995 62.6340681 107.26897597 59.625 111.5625 C59.10679687 112.29919922 58.58859375 113.03589844 58.0546875 113.79492188 C53.43977308 120.36018704 48.84190122 126.93743492 44.24194336 133.51318359 C40.23222546 139.2439039 36.21576768 144.96980127 32.1875 150.6875 C31.67767578 151.41259766 31.16785156 152.13769531 30.64257812 152.88476562 C27.11698055 157.88301945 27.11698055 157.88301945 26 159 C23.55169574 159.08843793 21.13179401 159.11528752 18.68359375 159.09765625 C17.95253922 159.0962413 17.22148468 159.09482635 16.46827698 159.09336853 C14.12464368 159.08775408 11.78110461 159.07519922 9.4375 159.0625 C7.85221492 159.05748686 6.26692834 159.05292363 4.68164062 159.04882812 C0.7877239 159.03777997 -3.10612205 159.02050572 -7 159 C-5.23964634 155.35030757 -3.06256598 152.14643175 -0.6875 148.875 C-0.25163574 148.26954346 0.18422852 147.66408691 0.63330078 147.0402832 C2.08566574 145.02452273 3.54242222 143.01199387 5 141 C7.1255341 138.06288614 9.25042943 135.1253109 11.375 132.1875 C11.92454346 131.42808105 12.47408691 130.66866211 13.0402832 129.88623047 C16.72869012 124.78185907 20.37724133 119.65112872 24 114.5 C28.21110739 108.51318337 32.46353549 102.55810172 36.75 96.625 C37.29285645 95.8707373 37.83571289 95.11647461 38.39501953 94.33935547 C40.76852096 91.04867097 43.15456385 87.77525653 45.6328125 84.5625 C46.37273438 83.593125 47.11265625 82.62375 47.875 81.625 C48.51179687 80.81289063 49.14859375 80.00078125 49.8046875 79.1640625 C51.2121536 77.1292754 51.2121536 77.1292754 50.72998047 75.109375 C49.92933478 72.79580352 48.90728958 71.09879322 47.515625 69.0859375 C46.9992749 68.33425293 46.4829248 67.58256836 45.95092773 66.80810547 C45.38962158 66.00518066 44.82831543 65.20225586 44.25 64.375 C43.66871338 63.53469238 43.08742676 62.69438477 42.48852539 61.82861328 C37.48106892 54.61922477 32.34789177 47.502639 27.1875 40.40234375 C23.07161647 34.73298958 19.03910167 29.00582423 15.01171875 23.2734375 C12.88408858 20.24644164 10.73815638 17.23332496 8.58203125 14.2265625 C8.02459229 13.44611572 7.46715332 12.66566895 6.89282227 11.86157227 C5.81757989 10.35680819 4.73877409 8.85458248 3.65600586 7.35522461 C0 2.22477512 0 2.22477512 0 0 Z " fill="#FDFAFC" transform="translate(874,300)"/>
<path d="M0 0 C6.26720348 4.71285731 11.31125385 10.0275465 15 17 C15 17.66 15 18.32 15 19 C11.59585522 20.73417014 8.17510225 22.43264935 4.75 24.125 C3.78191406 24.61871094 2.81382813 25.11242187 1.81640625 25.62109375 C0.41455078 26.30751953 0.41455078 26.30751953 -1.015625 27.0078125 C-2.30388184 27.65194092 -2.30388184 27.65194092 -3.61816406 28.30908203 C-6 29 -6 29 -8.22265625 28.22363281 C-10.17925697 26.87658847 -11.33725214 25.52805447 -12.75 23.625 C-15.94980658 19.73836625 -19.34944778 17.80379875 -24 16 C-24.91136719 15.64292969 -25.82273437 15.28585937 -26.76171875 14.91796875 C-30.48451285 13.86265317 -33.97250488 13.61723136 -37.8125 13.625 C-38.86763794 13.62415405 -38.86763794 13.62415405 -39.9440918 13.62329102 C-45.81535522 13.74711736 -49.98410751 15.12883395 -55 18 C-55.99 18.33 -56.98 18.66 -58 19 C-59.14209817 20.78228936 -59.14209817 20.78228936 -60 23 C-60.37125 23.7425 -60.7425 24.485 -61.125 25.25 C-62.55701952 29.75063278 -62.86558824 33.65807853 -61.23046875 38.08203125 C-57.04856973 45.81041707 -49.53015809 49.37009453 -41.39167786 51.89692688 C-38.61918128 52.71212367 -35.8396631 53.49856025 -33.05422974 54.26834106 C-13.51620494 59.70738089 5.55097541 65.50387954 16.8203125 83.80859375 C22.80175863 94.91982314 23.3246383 106.95285561 20 119 C15.30194769 131.90924994 7.04746322 141.45112256 -5 148 C-9.85086664 150.12550145 -14.89452555 151.61041765 -20 153 C-20.58998779 153.17740723 -21.17997559 153.35481445 -21.7878418 153.53759766 C-39.75555616 157.29334768 -61.28750824 154.94513028 -77 145.6875 C-88.48392779 137.68146339 -96.39036326 126.98673728 -99 113 C-99.0176751 111.0000781 -99.01952463 108.99990469 -99 107 C-94.8967776 106.16197087 -90.79227638 105.33038122 -86.6875 104.5 C-84.93663086 104.14228516 -84.93663086 104.14228516 -83.15039062 103.77734375 C-82.03212891 103.55175781 -80.91386719 103.32617188 -79.76171875 103.09375 C-78.73006592 102.88427734 -77.69841309 102.67480469 -76.63549805 102.45898438 C-74 102 -74 102 -71 102 C-70.75765625 102.86882812 -70.5153125 103.73765625 -70.265625 104.6328125 C-67.50012007 114.14189482 -64.44884854 121.39890115 -56 127 C-44.68331472 132.86656965 -33.73847642 132.00262007 -21.875 128.265625 C-15.79905619 125.59088887 -12.70171724 121.87455826 -9.95703125 115.984375 C-7.945742 109.71243628 -7.63432576 102.79019723 -9.88671875 96.5390625 C-11.08891956 94.45418268 -12.38117711 92.7773674 -14 91 C-14.43828125 90.47148437 -14.8765625 89.94296875 -15.328125 89.3984375 C-23.56481006 80.94499757 -38.33035499 78.58208308 -49.25 75.5 C-64.34859518 71.20649411 -79.31524194 65.48870464 -87.81640625 51.328125 C-92.55773866 42.0019398 -93.85504314 31.23942476 -91.23828125 21.02734375 C-86.70719835 9.15339923 -78.46280392 0.390776 -67 -5 C-46.07191381 -13.51463892 -19.01653965 -13.2595196 0 0 Z " fill="#FDFAFC" transform="translate(1197,307)"/>
<path d="M0 0 C9.57 0 19.14 0 29 0 C29 52.47 29 104.94 29 159 C19.43 159 9.86 159 0 159 C0 106.53 0 54.06 0 0 Z " fill="#FEFEFE" transform="translate(1042,300)"/>
<path d="M0 0 C0.99 0 1.98 0 3 0 C3 266.64 3 533.28 3 808 C715.14 808 1427.28 808 2161 808 C2161 808.33 2161 808.66 2161 809 C1447.87 809 734.74 809 0 809 C0 542.03 0 275.06 0 0 Z " fill="#FDECF7" transform="translate(0,0)"/>
<path d="M0 0 C5.1975 -0.0825 10.395 -0.165 15.75 -0.25 C17.36358398 -0.28641602 18.97716797 -0.32283203 20.63964844 -0.36035156 C32.16924859 -0.44827717 42.7973062 0.67388987 51.44140625 9.15625 C55.64049006 14.12358723 56.57380232 19.19486538 56.34375 25.51171875 C55.4538097 31.95367296 52.16833046 36.68906095 47.12890625 40.68359375 C39.53067641 45.38194871 30.98060296 47.13647843 22.16796875 47.09765625 C21.00289795 47.09515869 19.83782715 47.09266113 18.63745117 47.09008789 C16.43472534 47.07643188 16.43472534 47.07643188 14.1875 47.0625 C9.505625 47.041875 4.82375 47.02125 0 47 C0 31.49 0 15.98 0 0 Z " fill="#94154C" transform="translate(1355,389)"/>
<path d="M0 0 C26.92141089 0 26.92141089 0 34.6328125 7.453125 C39.29497601 12.72803 40.30873698 17.78598916 40.21875 24.625 C39.67269979 30.55354513 37.2719286 35.84352893 33 40 C22.58321491 46.79458482 12.49624346 46 0 46 C0 30.82 0 15.64 0 0 Z " fill="#95154C" transform="translate(1355,322)"/>
<path d="M0 0 C3.17442236 1.58721118 4.04994077 4.8243909 5.53125 7.91015625 C6.25019325 9.37831043 6.9702913 10.84589956 7.69140625 12.31298828 C8.25722412 13.46749481 8.25722412 13.46749481 8.83447266 14.64532471 C10.74996568 18.51513018 12.73391045 22.34901828 14.71875 26.18359375 C15.30789185 27.32473129 15.30789185 27.32473129 15.90893555 28.48892212 C17.52047105 31.61017937 19.13391384 34.73044422 20.74902344 37.84985352 C21.94901554 40.16853424 23.14654928 42.48847084 24.34375 44.80859375 C24.71238159 45.51882187 25.08101318 46.22904999 25.46081543 46.96080017 C28 51.88664244 28 51.88664244 28 53 C9.52 53 -8.96 53 -28 53 C-23.19370107 43.38740214 -18.38934446 33.78643223 -13.4375 24.25 C-12.64956055 22.72052734 -12.64956055 22.72052734 -11.84570312 21.16015625 C-8.1153491 13.9727342 -4.13885041 6.95977315 0 0 Z " fill="#94154C" transform="translate(773,347)"/>
<path d="M0 0 C2.29258898 2.11513002 3.76426714 4.12346069 5.19921875 6.88671875 C5.79996216 8.03479004 5.79996216 8.03479004 6.4128418 9.20605469 C6.833479 10.02493164 7.25411621 10.84380859 7.6875 11.6875 C8.12811768 12.53602539 8.56873535 13.38455078 9.02270508 14.25878906 C10.3564181 16.83519805 11.68028498 19.41639631 13 22 C13.37382813 22.73105957 13.74765625 23.46211914 14.1328125 24.21533203 C18.97418338 33.71652238 23.48692407 43.32912301 28 53 C9.52 53 -8.96 53 -28 53 C-18.45151515 33.9030303 -18.45151515 33.9030303 -14 25.375 C-13.23961426 23.91694946 -13.23961426 23.91694946 -12.46386719 22.42944336 C-8.48763845 14.8452718 -4.34737547 7.3777519 0 0 Z " fill="#94154C" transform="translate(1531,347)"/>
<path d="M0 0 C9.57 0 19.14 0 29 0 C29 54.12 29 108.24 29 164 C28.34 163.67 27.68 163.34 27 163 C27 109.54 27 56.08 27 1 C13.27481709 -0.28512874 13.27481709 -0.28512874 2 4 C1.68743474 5.85429037 1.68743474 5.85429037 1.7215271 7.99893188 C1.71036362 8.83468246 1.69920013 9.67043304 1.68769836 10.5315094 C1.68553818 11.45004196 1.68337799 12.36857452 1.68115234 13.31494141 C1.67110672 14.28083694 1.6610611 15.24673248 1.65071106 16.24189758 C1.61973827 19.44511298 1.60280483 22.64824428 1.5859375 25.8515625 C1.56723719 28.06831595 1.54766465 30.28506219 1.5272522 32.50180054 C1.4758049 38.34448003 1.43624671 44.18718263 1.39910889 50.02996826 C1.35914804 55.98878759 1.30801968 61.94750975 1.2578125 67.90625 C1.16090412 79.60409853 1.07654722 91.30200177 1 103 C0.67 103 0.34 103 0 103 C0 69.01 0 35.02 0 0 Z " fill="#EDCCDF" transform="translate(1780,300)"/>
<path d="M0 0 C9.57 0 19.14 0 29 0 C29 52.47 29 104.94 29 159 C19.43 159 9.86 159 0 159 C0 106.53 0 54.06 0 0 Z M2 1 C0.61268069 3.77463861 0.87723661 6.01892337 0.87974548 9.12490845 C0.87837082 10.43185165 0.87699615 11.73879486 0.87557983 13.08534241 C0.87911923 14.54208397 0.88275404 15.9988253 0.88647461 17.45556641 C0.88675655 18.98293557 0.88659861 20.51030487 0.8860321 22.03767395 C0.8857444 26.19239349 0.8916368 30.34708434 0.89860606 34.5017972 C0.90484406 38.84066403 0.90544375 43.17953147 0.90663147 47.5184021 C0.90974346 55.73838787 0.91795509 63.95836039 0.92798096 72.17834032 C0.93914617 81.53491786 0.94465358 90.89149604 0.94967639 100.24807858 C0.9601378 119.49872658 0.97773471 138.74936222 1 158 C4.5624308 158.05827558 8.12473819 158.09368885 11.6875 158.125 C13.19860352 158.15013672 13.19860352 158.15013672 14.74023438 158.17578125 C15.71669922 158.18222656 16.69316406 158.18867188 17.69921875 158.1953125 C18.59471436 158.20578613 19.49020996 158.21625977 20.4128418 158.22705078 C23.49219949 158.08229055 23.49219949 158.08229055 28 156 C28 105.51 28 55.02 28 3 C27.34 3 26.68 3 26 3 C26 2.34 26 1.68 26 1 C18.08 1 10.16 1 2 1 Z " fill="#F6D7EA" transform="translate(1042,300)"/>
<path d="M0 0 C0.99 0.33 1.98 0.66 3 1 C2.01 1.495 2.01 1.495 1 2 C1.33 54.14 1.66 106.28 2 160 C9.77460253 163.88730126 19.31526569 161.63813607 28 162 C28 127.68 28 93.36 28 58 C28.66 58.33 29.32 58.66 30 59 C29.67 93.32 29.34 127.64 29 163 C19.43 163 9.86 163 0 163 C0 109.21 0 55.42 0 0 Z " fill="#EDC7DC" transform="translate(1644,296)"/>
<path d="M0 0 C0.33 0 0.66 0 1 0 C1 52.14 1 104.28 1 158 C10.57 158 20.14 158 30 158 C30 158.66 30 159.32 30 160 C20.43 160 10.86 160 1 160 C0.505 160.99 0.505 160.99 0 162 C-0.74365313 157.3720668 -1.11648886 152.95897409 -1.08229065 148.27381897 C-1.07525116 146.96000244 -1.06821167 145.64618591 -1.06095886 144.29255676 C-1.04797962 142.85397251 -1.03489948 141.41538916 -1.02172852 139.97680664 C-1.01157469 138.44870287 -1.00188223 136.92059598 -0.99261475 135.39248657 C-0.96624419 131.25869214 -0.93344265 127.12497108 -0.89946485 122.99123311 C-0.86501197 118.66576634 -0.8365035 114.34026044 -0.80735779 110.01475525 C-0.7513104 101.83032425 -0.68993617 93.64594225 -0.62663645 85.46156448 C-0.55481079 76.14117287 -0.48894129 66.82074213 -0.42356598 57.50030339 C-0.28899318 38.33348462 -0.14696046 19.16672759 0 0 Z " fill="#821E47" transform="translate(1845,301)"/>
<path d="M0 0 C10.89 0 21.78 0 33 0 C33 0.33 33 0.66 33 1 C22.77 1 12.54 1 2 1 C2 15.19 2 29.38 2 44 C11.57 44.33 21.14 44.66 31 45 C29 47 29 47 26.11083984 47.22705078 C24.90637207 47.21657715 23.7019043 47.20610352 22.4609375 47.1953125 C21.28837402 47.19031738 20.11581055 47.18532227 18.90771484 47.18017578 C17.41191895 47.16196777 15.91612305 47.14375977 14.375 47.125 C9.63125 47.08375 4.8875 47.0425 0 47 C0 31.49 0 15.98 0 0 Z " fill="#964165" transform="translate(1355,389)"/>
<path d="M0 0 C0.66 0.66 1.32 1.32 2 2 C4.82732845 2.31591736 4.82732845 2.31591736 8.20083618 2.2784729 C9.16507604 2.2871615 9.16507604 2.2871615 10.14879549 2.29602563 C12.31230054 2.31309068 14.47559313 2.31590763 16.63916016 2.31884766 C18.18623888 2.32814137 19.73331257 2.3383092 21.28038025 2.34928894 C25.48879457 2.37666589 29.69717528 2.39176104 33.90565538 2.40471697 C38.30061749 2.42031397 42.69551061 2.44711504 47.09042358 2.4727478 C55.41662502 2.51959653 63.74283934 2.55631107 72.06910551 2.58942068 C81.54664409 2.6275991 91.02411349 2.6770204 100.50159383 2.72740483 C120.00101197 2.83081529 139.50047229 2.92004596 159 3 C159 3.33 159 3.66 159 4 C105.87 4 52.74 4 -2 4 C-1.34 2.68 -0.68 1.36 0 0 Z " fill="#7F1E47" transform="translate(441,454)"/>
<path d="M0 0 C4.95 0 9.9 0 15 0 C15 0.33 15 0.66 15 1 C10.71 1 6.42 1 2 1 C2.33 15.19 2.66 29.38 3 44 C13.395 43.505 13.395 43.505 24 43 C16.68301744 47.87798837 8.85923571 46 0 46 C0 30.82 0 15.64 0 0 Z " fill="#943C62" transform="translate(1355,322)"/>
<path d="M0 0 C1.98 0.99 1.98 0.99 4 2 C3.01 2.33 2.02 2.66 1 3 C1 35.67 1 68.34 1 102 C0.67 102 0.34 102 0 102 C0 68.34 0 34.68 0 0 Z " fill="#861E4B" transform="translate(1673,355)"/>
<path d="M0 0 C3.02940618 1.51470309 3.64960546 3.9403821 5.125 6.9375 C5.66382813 8.01902344 6.20265625 9.10054688 6.7578125 10.21484375 C8 13 8 13 8 15 C6.68 14.67 5.36 14.34 4 14 C4 13.01 4 12.02 4 11 C3.01 11 2.02 11 1 11 C1 10.34 1 9.68 1 9 C-0.65 9.33 -2.3 9.66 -4 10 C-4.061875 11.216875 -4.12375 12.43375 -4.1875 13.6875 C-4.71163126 18.15849852 -6.50586395 20.13301658 -10 23 C-10.66 22.67 -11.32 22.34 -12 22 C-8.04 14.74 -4.08 7.48 0 0 Z " fill="#902853" transform="translate(773,347)"/>
<path d="M0 0 C3.64356184 2.94955006 3.89453309 5.08724388 6 10 C-12.48 10 -30.96 10 -50 10 C-49.34 8.68 -48.68 7.36 -48 6 C-47.01 6.33 -46.02 6.66 -45 7 C-45.33 7.66 -45.66 8.32 -46 9 C-29.83 8.67 -13.66 8.34 3 8 C2.01 6.02 1.02 4.04 0 2 C0 1.34 0 0.68 0 0 Z " fill="#83204A" transform="translate(1553,390)"/>
<path d="M0 0 C0.33 0 0.66 0 1 0 C1.37849614 4.54195365 0.9891703 5.0144396 -2 9 C15.16 9 32.32 9 50 9 C50.495 9.99 50.495 9.99 51 11 C32.52 11 14.04 11 -5 11 C-3.35 7.37 -1.7 3.74 0 0 Z " fill="#811F49" transform="translate(750,389)"/>
<path d="M0 0 C0.99 0.33 1.98 0.66 3 1 C2.62488281 1.67804688 2.24976563 2.35609375 1.86328125 3.0546875 C-1.571641 9.3015738 -4.86194498 15.59892316 -8 22 C-9.85603999 16.43188002 -6.5958929 10.30662245 -4.5 5 C-3 2 -3 2 0 0 Z " fill="#922251" transform="translate(1496,352)"/>
<path d="M0 0 C3.26906207 3.26906207 4.91626844 5.90695586 7 10 C6.67 10.66 6.34 11.32 6 12 C5.2575 11.46375 4.515 10.9275 3.75 10.375 C2.8425 9.92125 1.935 9.4675 1 9 C-1.13355094 9.81669817 -1.13355094 9.81669817 -3 11 C-3.99 10.67 -4.98 10.34 -6 10 C-4.02 6.7 -2.04 3.4 0 0 Z " fill="#922050" transform="translate(438,459)"/>
<path d="M0 0 C0.99 0 1.98 0 3 0 C3 3.90313457 2.87611052 6.00013396 0.2578125 8.98828125 C-2.76220489 11.65983509 -5.14465018 13.71488339 -9 15 C-9.33 14.01 -9.66 13.02 -10 12 C-10.66 12 -11.32 12 -12 12 C-12 11.34 -12 10.68 -12 10 C-9.69 10.66 -7.38 11.32 -5 12 C-5.33 10.35 -5.66 8.7 -6 7 C-5.01 7.33 -4.02 7.66 -3 8 C-2.690625 6.865625 -2.38125 5.73125 -2.0625 4.5625 C-1 1 -1 1 0 0 Z " fill="#8D1B4C" transform="translate(1406,417)"/>
<path d="M0 0 C0.66 0.99 1.32 1.98 2 3 C0.875 5.4375 0.875 5.4375 -1 8 C-2.99285937 8.37366113 -4.99363529 8.70740515 -7 9 C-8.6083124 10.86655232 -8.6083124 10.86655232 -10 13 C-12.5625 14.8125 -12.5625 14.8125 -15 16 C-15.66 15.67 -16.32 15.34 -17 15 C-11.39476999 9.92484204 -5.76774721 4.89004655 0 0 Z " fill="#91204F" transform="translate(1982,301)"/>
<path d="M0 0 C-1.57013777 5.96652354 -4.75029782 10.82909025 -8 16 C-9.44675422 13.10649156 -8.60440006 11.14288032 -8 8 C-7.9175 6.9275 -7.835 5.855 -7.75 4.75 C-7.5025 3.8425 -7.255 2.935 -7 2 C-4.52409924 0.60333803 -2.83735815 0 0 0 Z " fill="#8F204F" transform="translate(1481,384)"/>
<path d="M0 0 C2.18520678 2.03281378 3.66511505 3.93145018 5.04296875 6.57421875 C5.39423828 7.24130859 5.74550781 7.90839844 6.10742188 8.59570312 C6.46384766 9.28599609 6.82027344 9.97628906 7.1875 10.6875 C7.55552734 11.38939453 7.92355469 12.09128906 8.30273438 12.81445312 C9.2067894 14.54037635 10.10406601 16.26984719 11 18 C10.01 18 9.02 18 8 18 C7.814375 16.88625 7.62875 15.7725 7.4375 14.625 C6.963125 13.42875 6.48875 12.2325 6 11 C2.48599332 9.45913678 2.48599332 9.45913678 -1 9 C-0.7525 7.329375 -0.7525 7.329375 -0.5 5.625 C0.0455458 2.27967967 0.0455458 2.27967967 0 0 Z " fill="#932653" transform="translate(499,565)"/>
<path d="M0 0 C0 0.66 0 1.32 0 2 C-7.42857143 5.28571429 -7.42857143 5.28571429 -11 6 C-7.57865372 2.33427184 -5.14341528 0 0 0 Z M-11 6 C-11 8 -11 8 -13.25 10.4375 C-15.4312655 12.47004286 -17.56743 14.28819148 -20 16 C-20.66 15.67 -21.32 15.34 -22 15 C-20.54782324 13.49403892 -19.08807139 11.99537896 -17.625 10.5 C-16.40683594 9.24703125 -16.40683594 9.24703125 -15.1640625 7.96875 C-13 6 -13 6 -11 6 Z " fill="#FCEAF8" transform="translate(1133,302)"/>
<path d="M0 0 C0.33 0.99 0.66 1.98 1 3 C0.62875 3.70125 0.2575 4.4025 -0.125 5.125 C-1.3080014 9.0120046 -0.17559795 11.22217217 1.2734375 14.9140625 C2 17 2 17 2 20 C0.79719839 18.42825925 -0.38681275 16.84212442 -1.5625 15.25 C-2.22378906 14.36828125 -2.88507812 13.4865625 -3.56640625 12.578125 C-5 10 -5 10 -4.84375 7.875 C-3.55974158 5.02164795 -1.7973576 2.55108821 0 0 Z " fill="#8E2852" transform="translate(965,367)"/>
<path d="M0 0 C0.99 0.33 1.98 0.66 3 1 C2.41892368 4.7602985 1.34800504 7.53035032 -0.5625 10.8125 C-1.01753906 11.60269531 -1.47257813 12.39289063 -1.94140625 13.20703125 C-2.29074219 13.79871094 -2.64007812 14.39039063 -3 15 C-3.66 15 -4.32 15 -5 15 C-5 12.36 -5 9.72 -5 7 C-4.01 6.67 -3.02 6.34 -2 6 C-1.67 5.01 -1.34 4.02 -1 3 C-0.67 2.01 -0.34 1.02 0 0 Z " fill="#8F204E" transform="translate(710,400)"/>
<path d="M0 0 C2.10942434 2.81256579 3.94540431 5.41891378 5.6875 8.4375 C6.12449219 9.17871094 6.56148437 9.91992188 7.01171875 10.68359375 C8.12597087 13.29525978 8.18341329 15.18931524 8 18 C7.01 17.67 6.02 17.34 5 17 C4.67 15.02 4.34 13.04 4 11 C3.01 11.33 2.02 11.66 1 12 C0.67 8.04 0.34 4.08 0 0 Z " fill="#912652" transform="translate(1536,356)"/>
<path d="M0 0 C0.99 0.66 1.98 1.32 3 2 C1.625 4 1.625 4 0 6 C-0.66 6 -1.32 6 -2 6 C-2.33 10.29 -2.66 14.58 -3 19 C-5 17 -5 17 -5.3125 13.25 C-5.18692442 7.92752715 -2.90253918 4.35380877 0 0 Z " fill="#93325B" transform="translate(1139,326)"/>
<path d="M0 0 C1.60031344 3.20062687 0.03173691 5.72271806 -1 9 C-1.33 8.34 -1.66 7.68 -2 7 C-5.465 8.485 -5.465 8.485 -9 10 C-7.61811547 6.78956118 -6.07578097 4.95063635 -3.375 2.75 C-2.74335937 2.22921875 -2.11171875 1.7084375 -1.4609375 1.171875 C-0.73777344 0.59179688 -0.73777344 0.59179688 0 0 Z M1 3 C1.66 3.33 2.32 3.66 3 4 C2.67 4.99 2.34 5.98 2 7 C1.34 6.67 0.68 6.34 0 6 C0.33 5.01 0.66 4.02 1 3 Z " fill="#8E214F" transform="translate(1964,317)"/>
<path d="M0 0 C2.79872437 2.52788007 4.45773019 4.20411134 5 8 C3.35 8.33 1.7 8.66 0 9 C-0.33 8.34 -0.66 7.68 -1 7 C-2.32 8.32 -3.64 9.64 -5 11 C-3.55049545 7.2089881 -1.84827434 3.6125362 0 0 Z " fill="#F8E2F0" transform="translate(1531,294)"/>
<path d="M0 0 C0.33 0.99 0.66 1.98 1 3 C1.66 3 2.32 3 3 3 C2.67 3.66 2.34 4.32 2 5 C2.33 5.33 2.66 5.66 3 6 C2.443125 6.20625 1.88625 6.4125 1.3125 6.625 C-1.92501302 8.55000774 -3.68231141 11.03850902 -6 14 C-6.33 13.34 -6.66 12.68 -7 12 C-5.56640625 9.1796875 -5.56640625 9.1796875 -3.5625 5.875 C-2.57443359 4.23144531 -2.57443359 4.23144531 -1.56640625 2.5546875 C-1.04949219 1.71164062 -0.53257812 0.86859375 0 0 Z " fill="#922653" transform="translate(412,504)"/>
<path d="M0 0 C0.33 0 0.66 0 1 0 C1 1.65 1 3.3 1 5 C1.66 5 2.32 5 3 5 C3 5.66 3 6.32 3 7 C0.69 7.66 -1.62 8.32 -4 9 C-4.33 10.32 -4.66 11.64 -5 13 C-5.99 13 -6.98 13 -8 13 C-6.69181533 10.83061859 -5.37874076 8.6644848 -4.0625 6.5 C-3.68931641 5.87996094 -3.31613281 5.25992187 -2.93164062 4.62109375 C-1.9818016 3.06370003 -0.99386689 1.5296725 0 0 Z " fill="#902451" transform="translate(468,407)"/>
<path d="M0 0 C0.66 0 1.32 0 2 0 C4.37590142 3.70416126 4.20500286 6.92984573 4.125 11.25 C4.10695313 12.51328125 4.08890625 13.7765625 4.0703125 15.078125 C4.04710937 16.04234375 4.02390625 17.0065625 4 18 C3.34 18 2.68 18 2 18 C2 13.38 2 8.76 2 4 C1.01 4 0.02 4 -1 4 C-0.67 2.68 -0.34 1.36 0 0 Z " fill="#89244E" transform="translate(1185,402)"/>
<path d="M0 0 C0.66 0.99 1.32 1.98 2 3 C1 6 1 6 -0.375 7.3125 C-2.56549585 9.58724569 -3.67301478 12.15646023 -5 15 C-5.66 15 -6.32 15 -7 15 C-7.33 15.99 -7.66 16.98 -8 18 C-8.33 17.34 -8.66 16.68 -9 16 C-8.28735352 14.30419922 -8.28735352 14.30419922 -7.12890625 12.3046875 C-6.71962891 11.58925781 -6.31035156 10.87382812 -5.88867188 10.13671875 C-5.45103516 9.39035156 -5.01339844 8.64398438 -4.5625 7.875 C-4.12873047 7.12089844 -3.69496094 6.36679687 -3.24804688 5.58984375 C-2.17251034 3.72242866 -1.08715861 1.86067303 0 0 Z " fill="#8D2652" transform="translate(482,382)"/>
<path d="M0 0 C2.72426311 2.35277269 3.8141763 4.62496331 5 8 C4.01 8.495 4.01 8.495 3 9 C2.34 8.67 1.68 8.34 1 8 C0.67 8.66 0.34 9.32 0 10 C-0.99 8.35 -1.98 6.7 -3 5 C-2.01 3.35 -1.02 1.7 0 0 Z " fill="#951B4D" transform="translate(1531,347)"/>
<path d="M0 0 C0.66 0.33 1.32 0.66 2 1 C-1.96 6.94 -1.96 6.94 -6 13 C-6.99 12.01 -7.98 11.02 -9 10 C-9 8.68 -9 7.36 -9 6 C-7.68 6.33 -6.36 6.66 -5 7 C-4.67 6.34 -4.34 5.68 -4 5 C-3.34 4.01 -2.68 3.02 -2 2 C-1.34 2 -0.68 2 0 2 C0 1.34 0 0.68 0 0 Z " fill="#87254E" transform="translate(950,341)"/>
<path d="M0 0 C0.33 0.99 0.66 1.98 1 3 C0.484375 3.37125 -0.03125 3.7425 -0.5625 4.125 C-3.21038693 6.1618361 -5.72318631 8.32017287 -8.25 10.50390625 C-10.45714395 12.39081726 -12.71927461 14.20306484 -15 16 C-15.66 15.67 -16.32 15.34 -17 15 C-14.91880554 13.06015834 -12.83515453 11.12307706 -10.75 9.1875 C-9.87021484 8.36668945 -9.87021484 8.36668945 -8.97265625 7.52929688 C-6.08463321 4.85219687 -3.22478709 2.27491168 0 0 Z " fill="#FAE5F2" transform="translate(1917,326)"/>
<path d="M0 0 C0.33 0 0.66 0 1 0 C1.34435851 9.29767978 -0.50047091 17.41024679 -4 26 C-4.66 25.01 -5.32 24.02 -6 23 C-5.53980469 22.19304687 -5.07960938 21.38609375 -4.60546875 20.5546875 C-2.73515376 16.41360079 -2.00423914 12.58539448 -1.3125 8.125 C-1.18294922 7.34125 -1.05339844 6.5575 -0.91992188 5.75 C-0.60460494 3.83474158 -0.30108482 1.91754727 0 0 Z " fill="#EFCCDF" transform="translate(1218,408)"/>
<path d="M0 0 C0.66 0.33 1.32 0.66 2 1 C1.55328106 6.06281464 -0.73569934 8.32766175 -4 12 C-4.33 12.66 -4.66 13.32 -5 14 C-5.66 14 -6.32 14 -7 14 C-5.53967505 8.68972746 -3.01679014 4.53669968 0 0 Z " fill="#F9E6F1" transform="translate(212,569)"/>
<path d="M0 0 C0.33 0 0.66 0 1 0 C2.69857238 7.32650887 4.38168081 14.65532059 6 22 C5.01 22 4.02 22 3 22 C2.80083984 20.96939453 2.80083984 20.96939453 2.59765625 19.91796875 C2.42105469 19.01691406 2.24445313 18.11585938 2.0625 17.1875 C1.88847656 16.29417969 1.71445313 15.40085937 1.53515625 14.48046875 C1.02258847 11.88602829 1.02258847 11.88602829 0 9 C-0.06740865 7.43881572 -0.08514456 5.8749748 -0.0625 4.3125 C-0.05347656 3.50425781 -0.04445313 2.69601562 -0.03515625 1.86328125 C-0.02355469 1.24839844 -0.01195312 0.63351562 0 0 Z " fill="#93335D" transform="translate(1097,414)"/>
<path d="M0 0 C3.03170479 0.44366412 4.40496602 1.21746602 6.5625 3.375 C6.5625 4.365 6.5625 5.355 6.5625 6.375 C0.6225 4.89 0.6225 4.89 -5.4375 3.375 C-2.4375 0.375 -2.4375 0.375 0 0 Z " fill="#962656" transform="translate(1172.4375,359.625)"/>
<path d="M0 0 C1.03864166 3.11592499 1.09036928 4.0262656 0 7 C-0.99 7.495 -0.99 7.495 -2 8 C-2.65772428 11.02934491 -2.65772428 11.02934491 -3 14 C-3.66 14 -4.32 14 -5 14 C-6.6446674 16.46326712 -6.6446674 16.46326712 -8 19 C-8.66 18.67 -9.32 18.34 -10 18 C-6.7 12.06 -3.4 6.12 0 0 Z " fill="#8F315A" transform="translate(503,345)"/>
<path d="M0 0 C2.375 -0.1875 2.375 -0.1875 5 0 C5.66 0.99 6.32 1.98 7 3 C6.67 3.99 6.34 4.98 6 6 C6.66 6 7.32 6 8 6 C8.33 7.65 8.66 9.3 9 11 C8.01 11.495 8.01 11.495 7 12 C6.66226562 11.38511719 6.32453125 10.77023437 5.9765625 10.13671875 C5.53054688 9.32847656 5.08453125 8.52023437 4.625 7.6875 C4.18414063 6.88699219 3.74328125 6.08648437 3.2890625 5.26171875 C2.26486665 3.46472057 1.14732862 1.72099292 0 0 Z " fill="#8E2654" transform="translate(1430,388)"/>
<path d="M0 0 C5.1711115 4.54431011 8.44663108 10.15281368 12 16 C8.83884224 14.63016497 8.0072908 14.0109362 6 11 C5.01 10.67 4.02 10.34 3 10 C1.69519135 6.73797837 0.78933188 3.42043815 0 0 Z " fill="#8A2D55" transform="translate(905,346)"/>
<path d="M0 0 C-1.07401108 2.91517292 -1.77810176 4.77810176 -4 7 C-6.625 6.625 -6.625 6.625 -9 6 C-8 3 -8 3 -5.0625 1.3125 C-2 0 -2 0 0 0 Z " fill="#8D1F4E" transform="translate(1420,449)"/>
<path d="M0 0 C0.625 1.8125 0.625 1.8125 1 4 C0.01 5.485 0.01 5.485 -1 7 C-1 7.99 -1 8.98 -1 10 C-1.99 10.33 -2.98 10.66 -4 11 C-4 11.66 -4 12.32 -4 13 C-5.98 13.99 -5.98 13.99 -8 15 C-6.62712658 11.30123909 -4.93644547 8.0485524 -2.875 4.6875 C-2.33617187 3.80449219 -1.79734375 2.92148437 -1.2421875 2.01171875 C-0.83226562 1.34785156 -0.42234375 0.68398438 0 0 Z " fill="#F7E2F0" transform="translate(310,399)"/>
<path d="M0 0 C5.58878505 1.45794393 5.58878505 1.45794393 7.375 3.8125 C8.0858831 6.30059084 8.14307397 8.42466848 8 11 C4.31993178 7.61831569 2.0214155 4.57478244 0 0 Z " fill="#8D214F" transform="translate(984,410)"/>
<path d="M0 0 C1.4783226 2.95664519 1.06032783 5.74229737 1 9 C-0.32 8.67 -1.64 8.34 -3 8 C-3.66 9.32 -4.32 10.64 -5 12 C-5.99 11.67 -6.98 11.34 -8 11 C-5.36 7.37 -2.72 3.74 0 0 Z " fill="#8E2652" transform="translate(995,325)"/>
<path d="M0 0 C0.66 0.33 1.32 0.66 2 1 C2 1.99 2 2.98 2 4 C5.63 4.33 9.26 4.66 13 5 C12.67 5.66 12.34 6.32 12 7 C5.4 6.01 -1.2 5.02 -8 4 C-8 3.67 -8 3.34 -8 3 C-5.69 3 -3.38 3 -1 3 C-0.67 2.01 -0.34 1.02 0 0 Z " fill="#8D2954" transform="translate(1379,296)"/>
<path d="M0 0 C3.48331435 3.01887244 4.79157144 5.56909529 6 10 C5.34 10 4.68 10 4 10 C4 9.34 4 8.68 4 8 C2.02 8 0.04 8 -2 8 C-1.34 5.36 -0.68 2.72 0 0 Z " fill="#8F2251" transform="translate(475,524)"/>
<path d="M0 0 C2.64 0.33 5.28 0.66 8 1 C8.12375 1.78375 8.2475 2.5675 8.375 3.375 C8.79117993 6.14057822 8.79117993 6.14057822 11 8 C7.24026115 8 6.54322371 7.03457593 3.8125 4.5625 C3.09707031 3.92441406 2.38164063 3.28632813 1.64453125 2.62890625 C1.10183594 2.09136719 0.55914063 1.55382812 0 1 C0 0.67 0 0.34 0 0 Z " fill="#8B234E" transform="translate(1767,394)"/>
<path d="M0 0 C0 3 0 3 -1 6 C-1.66 6 -2.32 6 -3 6 C-3.33 7.32 -3.66 8.64 -4 10 C-4.99 10 -5.98 10 -7 10 C-7.33 9.01 -7.66 8.02 -8 7 C-5.36 4.69 -2.72 2.38 0 0 Z " fill="#902654" transform="translate(1924,351)"/>
<path d="M0 0 C0.33 0.99 0.66 1.98 1 3 C-4.29230769 7.06153846 -4.29230769 7.06153846 -7.875 6.75 C-8.57625 6.5025 -9.2775 6.255 -10 6 C-6.87567603 3.47650757 -3.61939504 1.72743854 0 0 Z " fill="#8E2651" transform="translate(1209,326)"/>
<path d="M0 0 C0.33 0 0.66 0 1 0 C1.22166885 3.87920484 0.81309348 6.5464886 -1 10 C-3.625 12.8125 -3.625 12.8125 -6 15 C-6 11.21286807 -4.73107406 9.16645599 -3 5.8125 C-2.443125 4.72582031 -1.88625 3.63914062 -1.3125 2.51953125 C-0.879375 1.68808594 -0.44625 0.85664063 0 0 Z " fill="#F7E3F0" transform="translate(1452,436)"/>
<path d="M0 0 C0.99 0 1.98 0 3 0 C5.04296875 2.625 5.04296875 2.625 7.1875 6 C7.55552734 6.57234375 7.92355469 7.1446875 8.30273438 7.734375 C9.21125071 9.15024462 10.10686477 10.57437797 11 12 C10.01 12 9.02 12 8 12 C6.39453125 10.3203125 6.39453125 10.3203125 4.8125 8.125 C4.28269531 7.40570313 3.75289062 6.68640625 3.20703125 5.9453125 C2 4 2 4 2 2 C1.34 2 0.68 2 0 2 C0 1.34 0 0.68 0 0 Z " fill="#FDE6F5" transform="translate(904,300)"/>
<path d="M0 0 C-1 3 -1 3 -2.625 4.1875 C-5.80382728 5.27499354 -8.66661533 5.1282071 -12 5 C-12 4.34 -12 3.68 -12 3 C-10.37604003 2.49663233 -8.75079459 1.99741024 -7.125 1.5 C-6.22007813 1.2215625 -5.31515625 0.943125 -4.3828125 0.65625 C-2 0 -2 0 0 0 Z " fill="#923159" transform="translate(1189,456)"/>
<path d="M0 0 C0.66 0.33 1.32 0.66 2 1 C-0.64 5.62 -3.28 10.24 -6 15 C-6.33 13.68 -6.66 12.36 -7 11 C-6.34 10.67 -5.68 10.34 -5 10 C-4.690625 9.071875 -4.38125 8.14375 -4.0625 7.1875 C-3.06421596 4.19264787 -2.01527957 2.38169403 0 0 Z " fill="#FBE3F2" transform="translate(512,327)"/>
<path d="M0 0 C1.32 0 2.64 0 4 0 C3.49701212 4.40114397 1.91227269 6.71195019 -1 10 C-1.02689216 8.52093108 -1.04634621 7.04172517 -1.0625 5.5625 C-1.07410156 4.73878906 -1.08570313 3.91507813 -1.09765625 3.06640625 C-1 1 -1 1 0 0 Z " fill="#922655" transform="translate(433,177)"/>
<path d="M0 0 C0.66 0.33 1.32 0.66 2 1 C1.67 2.32 1.34 3.64 1 5 C0.67 4.67 0.34 4.34 0 4 C-0.99 6.31 -1.98 8.62 -3 11 C-3.99 10.67 -4.98 10.34 -6 10 C-4.02 6.7 -2.04 3.4 0 0 Z " fill="#8D2B54" transform="translate(438,459)"/>
<path d="M0 0 C1.32 0.66 2.64 1.32 4 2 C2.21118264 3.00508801 0.41885304 4.00392736 -1.375 5 C-2.37273437 5.556875 -3.37046875 6.11375 -4.3984375 6.6875 C-7 8 -7 8 -9 8 C-9 7.34 -9 6.68 -9 6 C-8.34 6 -7.68 6 -7 6 C-7 5.34 -7 4.68 -7 4 C-6.401875 3.896875 -5.80375 3.79375 -5.1875 3.6875 C-2.71756736 2.91123545 -1.67748765 1.92911079 0 0 Z " fill="#F8E1EF" transform="translate(1419,445)"/>
<path d="M0 0 C1.32 0.33 2.64 0.66 4 1 C1.03 5.95 1.03 5.95 -2 11 C-3.26190138 8.47619724 -2.83487878 7.61656307 -2.125 4.9375 C-1.94195312 4.22464844 -1.75890625 3.51179688 -1.5703125 2.77734375 C-1 1 -1 1 0 0 Z " fill="#8B204B" transform="translate(291,425)"/>
<path d="M0 0 C6.93 0 13.86 0 21 0 C20.34 1.32 19.68 2.64 19 4 C18.34 3.67 17.68 3.34 17 3 C17 2.34 17 1.68 17 1 C11.39 1 5.78 1 0 1 C0 0.67 0 0.34 0 0 Z " fill="#FCEBF9" transform="translate(992,300)"/>
<path d="M0 0 C0.66 0.33 1.32 0.66 2 1 C-1.33333333 4.33333333 -4.66666667 7.66666667 -8 11 C-8.99 10.67 -9.98 10.34 -11 10 C-5.555 5.05 -5.555 5.05 0 0 Z " fill="#F7DDED" transform="translate(1945,301)"/>
<path d="M0 0 C0.66 1.32 1.32 2.64 2 4 C-0.32835924 7.49253886 -2.74274862 9.38003693 -6 12 C-4.43358249 7.69235185 -2.31663844 3.93828536 0 0 Z " fill="#F9E4F1" transform="translate(236,527)"/>
<path d="M0 0 C0.66 0.99 1.32 1.98 2 3 C1.125 5.6875 1.125 5.6875 0 8 C-1.32 7.67 -2.64 7.34 -4 7 C-2.68 4.69 -1.36 2.38 0 0 Z " fill="#932451" transform="translate(445,447)"/>
<path d="M0 0 C0.66 0 1.32 0 2 0 C3.06546953 3.1964086 3.07427838 5.65747276 3 9 C2.01 8.67 1.02 8.34 0 8 C-1.1875 4.9375 -1.1875 4.9375 -2 2 C-1.34 1.34 -0.68 0.68 0 0 Z " fill="#912250" transform="translate(820,372)"/>
<path d="M0 0 C0.33 0.66 0.66 1.32 1 2 C1.66 2 2.32 2 3 2 C3.33 2.66 3.66 3.32 4 4 C4.66 4 5.32 4 6 4 C5.34 5.32 4.68 6.64 4 8 C2.0625 7.3125 2.0625 7.3125 0 6 C-0.8125 3.4375 -0.8125 3.4375 -1 1 C-0.67 0.67 -0.34 0.34 0 0 Z " fill="#991E53" transform="translate(195,584)"/>
<path d="M0 0 C0.66 0 1.32 0 2 0 C2 0.66 2 1.32 2 2 C1.34 2 0.68 2 0 2 C0.66 3.65 1.32 5.3 2 7 C0.125 8.0625 0.125 8.0625 -2 9 C-2.66 8.67 -3.32 8.34 -4 8 C-2.87548273 5.0280615 -1.77706209 2.66559313 0 0 Z " fill="#932654" transform="translate(385,551)"/>
<path d="M0 0 C0.99 0.99 1.98 1.98 3 3 C2.67 3.99 2.34 4.98 2 6 C-0.5625 7.1875 -0.5625 7.1875 -3 8 C-3.33 7.01 -3.66 6.02 -4 5 C-4.66 5 -5.32 5 -6 5 C-6 4.34 -6 3.68 -6 3 C-3.69 3.66 -1.38 4.32 1 5 C0.67 3.35 0.34 1.7 0 0 Z " fill="#912352" transform="translate(1400,424)"/>
<path d="M0 0 C1.98 0 3.96 0 6 0 C4.68 2.64 3.36 5.28 2 8 C0 4 0 4 0 0 Z " fill="#8B1D4C" transform="translate(1457,417)"/>
<path d="M0 0 C2.64 1.98 5.28 3.96 8 6 C3.70600835 7.07349791 2.80504787 6.79682816 -1 5 C-0.67 3.35 -0.34 1.7 0 0 Z " fill="#912652" transform="translate(1738,407)"/>
<path d="M0 0 C0.71484375 1.765625 0.71484375 1.765625 1 4 C-0.43359375 5.921875 -0.43359375 5.921875 -2.4375 7.75 C-3.42556641 8.67039062 -3.42556641 8.67039062 -4.43359375 9.609375 C-5.20896484 10.29773438 -5.20896484 10.29773438 -6 11 C-6 7.39426104 -5.18292538 6.58663434 -3 3.8125 C-2.443125 3.09707031 -1.88625 2.38164062 -1.3125 1.64453125 C-0.879375 1.10183594 -0.44625 0.55914062 0 0 Z " fill="#F8E4F1" transform="translate(908,401)"/>
<path d="M0 0 C0.66 0.66 1.32 1.32 2 2 C2.66 1.67 3.32 1.34 4 1 C4 1.99 4 2.98 4 4 C4.66 4.33 5.32 4.66 6 5 C5.67 6.32 5.34 7.64 5 9 C3.02 7.02 1.04 5.04 -1 3 C-0.67 2.01 -0.34 1.02 0 0 Z " fill="#922955" transform="translate(1902,370)"/>
<path d="M0 0 C-2.31 2.31 -4.62 4.62 -7 7 C-7.33 5.68 -7.66 4.36 -8 3 C-6 0 -6 0 -4 -0.75 C-2 -1 -2 -1 0 0 Z " fill="#90254F" transform="translate(1930,315)"/>
<path d="M0 0 C1.98 0 3.96 0 6 0 C5.01 0.495 5.01 0.495 4 1 C4.350625 1.763125 4.70125 2.52625 5.0625 3.3125 C6 6 6 6 5 9 C4.16094435 7.87926138 3.32892169 6.75325453 2.5 5.625 C2.0359375 4.99851562 1.571875 4.37203125 1.09375 3.7265625 C0 2 0 2 0 0 Z " fill="#FAE5F4" transform="translate(874,300)"/>
<path d="M0 0 C2.84574968 1.27568089 5.18089981 2.41496289 7 5 C6.6875 7.6875 6.6875 7.6875 6 10 C3.25722422 6.80009492 1.3697164 3.99500618 0 0 Z " fill="#8F2651" transform="translate(480,249)"/>
<path d="M0 0 C0.66 0 1.32 0 2 0 C0.55049545 3.7910119 -1.15172566 7.3874638 -3 11 C-3.99 10.67 -4.98 10.34 -6 10 C-5.05065487 8.32819726 -4.09026687 6.66266064 -3.125 5 C-2.59132813 4.071875 -2.05765625 3.14375 -1.5078125 2.1875 C-1.01023437 1.465625 -0.51265625 0.74375 0 0 Z " fill="#FAE2F1" transform="translate(717,447)"/>
<path d="M0 0 C0.99 0.66 1.98 1.32 3 2 C2.67 2.66 2.34 3.32 2 4 C1.01 4.33 0.02 4.66 -1 5 C-1.33 5.99 -1.66 6.98 -2 8 C-2.99 7.67 -3.98 7.34 -5 7 C-3.35 4.69 -1.7 2.38 0 0 Z " fill="#8E3359" transform="translate(942,398)"/>
<path d="M0 0 C2.0625 0.4375 2.0625 0.4375 4 1 C2.68 3.31 1.36 5.62 0 8 C-0.66 7.34 -1.32 6.68 -2 6 C-1.44444444 1.44444444 -1.44444444 1.44444444 0 0 Z " fill="#8D2351" transform="translate(748,333)"/>
<path d="M0 0 C0.99 0.33 1.98 0.66 3 1 C3.33 3.97 3.66 6.94 4 10 C-0.60921053 4.64736842 -0.60921053 4.64736842 -1 1 C-0.67 0.67 -0.34 0.34 0 0 Z " fill="#FAEBF6" transform="translate(484,534)"/>
<path d="M0 0 C1.32 1.65 2.64 3.3 4 5 C3.67 5.66 3.34 6.32 3 7 C0.9375 7.625 0.9375 7.625 -1 8 C-1.33 6.35 -1.66 4.7 -2 3 C-1.34 3 -0.68 3 0 3 C0 2.01 0 1.02 0 0 Z " fill="#962656" transform="translate(455,488)"/>
<path d="M0 0 C0.33 1.32 0.66 2.64 1 4 C1.33 4.99 1.66 5.98 2 7 C1.01 7.99 0.02 8.98 -1 10 C-1.99 9.67 -2.98 9.34 -4 9 C-2.68 6.03 -1.36 3.06 0 0 Z " fill="#8F2753" transform="translate(1437,426)"/>
<path d="M0 0 C3.63 0.66 7.26 1.32 11 2 C11 2.66 11 3.32 11 4 C9.54119891 3.85892253 8.08296449 3.71197585 6.625 3.5625 C5.40683594 3.44068359 5.40683594 3.44068359 4.1640625 3.31640625 C2 3 2 3 0 2 C0 1.34 0 0.68 0 0 Z " fill="#912652" transform="translate(1370,322)"/>
<path d="M0 0 C0 0.66 0 1.32 0 2 C-7.42857143 5.28571429 -7.42857143 5.28571429 -11 6 C-7.57865372 2.33427184 -5.14341528 0 0 0 Z M-13 6 C-11 7 -11 7 -11 7 Z " fill="#F6DAEB" transform="translate(1133,302)"/>
<path d="M0 0 C0.66 0.33 1.32 0.66 2 1 C0.02 3.97 -1.96 6.94 -4 10 C-5 6 -5 6 -4.00390625 4.296875 C-2.66927083 2.86458333 -1.33463542 1.43229167 0 0 Z " fill="#F8E0EF" transform="translate(906,447)"/>
<path d="M0 0 C2.31 1.65 4.62 3.3 7 5 C6.01 5.99 5.02 6.98 4 8 C3.01 8 2.02 8 1 8 C1.20625 7.4225 1.4125 6.845 1.625 6.25 C2.08661261 3.48032433 1.42944945 2.35438733 0 0 Z " fill="#912350" transform="translate(1776,438)"/>
<path d="M0 0 C2.32472205 2.85306797 3.7508258 5.54074837 5 9 C3.35 9.33 1.7 9.66 0 10 C0.33 7.69 0.66 5.38 1 3 C0.34 2.67 -0.32 2.34 -1 2 C-0.67 1.34 -0.34 0.68 0 0 Z " fill="#8F2250" transform="translate(820,437)"/>
<path d="M0 0 C0 3 0 3 -1.75 4.82421875 C-2.4925 5.43910156 -3.235 6.05398438 -4 6.6875 C-4.7425 7.31011719 -5.485 7.93273437 -6.25 8.57421875 C-6.8275 9.04472656 -7.405 9.51523437 -8 10 C-8.99 9.34 -9.98 8.68 -11 8 C-10.18595703 7.51080078 -10.18595703 7.51080078 -9.35546875 7.01171875 C-8.28232422 6.35623047 -8.28232422 6.35623047 -7.1875 5.6875 C-6.47980469 5.25824219 -5.77210937 4.82898438 -5.04296875 4.38671875 C-3.11039769 3.07493533 -1.58589388 1.70596155 0 0 Z " fill="#F9DEEE" transform="translate(1407,424)"/>
<path d="M0 0 C0.66 0 1.32 0 2 0 C1.67 2.31 1.34 4.62 1 7 C-0.65 7.66 -2.3 8.32 -4 9 C-2.94124926 5.59687262 -1.99097846 2.98646769 0 0 Z " fill="#F8E3EF" transform="translate(1459,424)"/>
<path d="M0 0 C0.66 0.33 1.32 0.66 2 1 C1.52797514 5.24822374 -0.96655518 7.19989709 -4 10 C-3.625 7.0625 -3.625 7.0625 -3 4 C-2.34 3.67 -1.68 3.34 -1 3 C-0.67 2.01 -0.34 1.02 0 0 Z " fill="#8D2651" transform="translate(924,373)"/>
<path d="M0 0 C4.25177923 0.47241991 6.29969203 2.84964071 9 6 C9 6.99 9 7.98 9 9 C7.49428343 7.88266271 5.99555708 6.75589965 4.5 5.625 C3.6646875 4.99851562 2.829375 4.37203125 1.96875 3.7265625 C1.3190625 3.15679687 0.669375 2.58703125 0 2 C0 1.34 0 0.68 0 0 Z " fill="#8D2A54" transform="translate(1707,345)"/>
<path d="M0 0 C0.99 0.33 1.98 0.66 3 1 C-0.96 4.465 -0.96 4.465 -5 8 C-5.33 7.01 -5.66 6.02 -6 5 C-1.60546875 0.99609375 -1.60546875 0.99609375 0 0 Z " fill="#FAE0F0" transform="translate(1940,335)"/>
<path d="M0 0 C0.99 0.33 1.98 0.66 3 1 C1.25 3.9375 1.25 3.9375 -1 7 C-2.32 7.33 -3.64 7.66 -5 8 C-3.35 5.36 -1.7 2.72 0 0 Z " fill="#872752" transform="translate(1012,301)"/>
<path d="M0 0 C0.4125 0.61875 0.825 1.2375 1.25 1.875 C3.06345914 4.37017829 3.06345914 4.37017829 7 6 C4.03 6 1.06 6 -2 6 C-1.34 4.02 -0.68 2.04 0 0 Z " fill="#FBE8F7" transform="translate(180,624)"/>
<path d="M0 0 C4.42857143 5.14285714 4.42857143 5.14285714 5 9 C2.525 8.01 2.525 8.01 0 7 C0 4.69 0 2.38 0 0 Z " fill="#902753" transform="translate(491,551)"/>
<path d="M0 0 C-0.60183749 2.02045442 -1.27306096 4.02111039 -2 6 C-2.99 6.495 -2.99 6.495 -4 7 C-4.66 6.67 -5.32 6.34 -6 6 C-5.6875 4.125 -5.6875 4.125 -5 2 C-2 0 -2 0 0 0 Z " fill="#8F2350" transform="translate(226,544)"/>
<path d="M0 0 C0.66 0 1.32 0 2 0 C1.67 1.98 1.34 3.96 1 6 C-0.65 6.33 -2.3 6.66 -4 7 C-2.68 4.69 -1.36 2.38 0 0 Z " fill="#8F2450" transform="translate(403,520)"/>
<path d="M0 0 C3 3.625 3 3.625 3 7 C1.02 7 -0.96 7 -3 7 C-2.01 4.69 -1.02 2.38 0 0 Z " fill="#FBEAF6" transform="translate(859,451)"/>
<path d="M0 0 C1.65 0.99 3.3 1.98 5 3 C2.66785852 4.20628008 0.50357861 5.1654738 -2 6 C-1.49396008 3.83125748 -1.00016187 2.00032373 0 0 Z " fill="#8D204F" transform="translate(1768,432)"/>
<path d="M0 0 C0.33 0 0.66 0 1 0 C2.14507772 5.19689119 2.14507772 5.19689119 2 8 C-0.4375 11 -0.4375 11 -3 13 C-2.01 8.71 -1.02 4.42 0 0 Z " fill="#892751" transform="translate(1218,418)"/>
<path d="M0 0 C1.9375 0.75 1.9375 0.75 4 2 C4.75 4.125 4.75 4.125 5 6 C5.66 6 6.32 6 7 6 C7.33 7.65 7.66 9.3 8 11 C4.32966073 7.72291137 2.30718811 4.28477792 0 0 Z " fill="#F5D7E8" transform="translate(960,423)"/>
<path d="M0 0 C0.33 1.32 0.66 2.64 1 4 C0.34 4 -0.32 4 -1 4 C-1.33 5.32 -1.66 6.64 -2 8 C-3.32 8.33 -4.64 8.66 -6 9 C-4.02 6.03 -2.04 3.06 0 0 Z " fill="#8D2954" transform="translate(934,410)"/>
<path d="M0 0 C3.36720387 1.39332574 4.9859524 2.9789286 7 6 C5.68 6.33 4.36 6.66 3 7 C3 6.01 3 5.02 3 4 C2.34 4 1.68 4 1 4 C0.67 2.68 0.34 1.36 0 0 Z " fill="#891A49" transform="translate(1880,391)"/>
<path d="M0 0 C0.66 1.32 1.32 2.64 2 4 C0.02 6.31 -1.96 8.62 -4 11 C-4.33 10.34 -4.66 9.68 -5 9 C-4.00390625 6.8359375 -4.00390625 6.8359375 -2.5625 4.375 C-2.08941406 3.55773437 -1.61632813 2.74046875 -1.12890625 1.8984375 C-0.75636719 1.27195312 -0.38382813 0.64546875 0 0 Z " fill="#F9E2F0" transform="translate(1490,368)"/>
<path d="M0 0 C3.875 1.875 3.875 1.875 5 3 C5.04080783 4.99958364 5.04254356 7.00045254 5 9 C0.57142857 3.85714286 0.57142857 3.85714286 0 0 Z " fill="#8C2452" transform="translate(788,319)"/>
<path d="M0 0 C0.33 0.66 0.66 1.32 1 2 C-1.19924069 5.35673579 -3.38269598 7.23772368 -7 9 C-7.66 8.67 -8.32 8.34 -9 8 C-6.03 5.36 -3.06 2.72 0 0 Z " fill="#8F2E58" transform="translate(1974,308)"/>
<path d="M0 0 C0.99 0.33 1.98 0.66 3 1 C3 1.99 3 2.98 3 4 C4.32 4.66 5.64 5.32 7 6 C6.34 7.32 5.68 8.64 5 10 C3.35 6.7 1.7 3.4 0 0 Z " fill="#8D2853" transform="translate(444,187)"/>
<path d="M0 0 C0.66 1.32 1.32 2.64 2 4 C0.68 5.32 -0.64 6.64 -2 8 C-2.66 7.67 -3.32 7.34 -4 7 C-2.68 4.69 -1.36 2.38 0 0 Z " fill="#8E2552" transform="translate(347,617)"/>
<path d="M0 0 C0.66 0.66 1.32 1.32 2 2 C0.35 4.97 -1.3 7.94 -3 11 C-3.66 11 -4.32 11 -5 11 C-3.77472971 6.94718288 -2.30119506 3.55639236 0 0 Z " fill="#F3D4E5" transform="translate(249,504)"/>
<path d="M0 0 C0.66 0.33 1.32 0.66 2 1 C0.68 3.31 -0.64 5.62 -2 8 C-2.66 6.68 -3.32 5.36 -4 4 C-2.68 2.68 -1.36 1.36 0 0 Z " fill="#913058" transform="translate(1447,443)"/>
<path d="M0 0 C2.97 0.495 2.97 0.495 6 1 C6.33 2.98 6.66 4.96 7 7 C5.83040013 6.02433888 4.66438823 5.044375 3.5 4.0625 C2.8503125 3.51722656 2.200625 2.97195313 1.53125 2.41015625 C1.0259375 1.94480469 0.520625 1.47945313 0 1 C0 0.67 0 0.34 0 0 Z " fill="#F4D5E5" transform="translate(1884,393)"/>
<path d="M0 0 C2.32472205 2.85306797 3.7508258 5.54074837 5 9 C4.01 9.495 4.01 9.495 3 10 C3 9.01 3 8.02 3 7 C2.01 7 1.02 7 0 7 C0 4.69 0 2.38 0 0 Z " fill="#922A56" transform="translate(1549,381)"/>
<path d="M0 0 C0.66 0.99 1.32 1.98 2 3 C-0.10618315 5.94865641 -2.39391727 8.4837822 -5 11 C-3.77472971 6.94718288 -2.30119506 3.55639236 0 0 Z " fill="#F3D4E5" transform="translate(325,372)"/>
<path d="M0 0 C1.17539996 0.92652701 2.34010577 1.86663387 3.5 2.8125 C4.1496875 3.33457031 4.799375 3.85664063 5.46875 4.39453125 C7 6 7 6 7 9 C4.03 6.69 1.06 4.38 -2 2 C-1.34 1.34 -0.68 0.68 0 0 Z " fill="#8C2F56" transform="translate(1742,372)"/>
<path d="M0 0 C2.72426311 2.35277269 3.8141763 4.62496331 5 8 C4.01 8.495 4.01 8.495 3 9 C1 7 1 7 0 4 C-0.66 3.67 -1.32 3.34 -2 3 C-1.34 2.01 -0.68 1.02 0 0 Z " fill="#8F335A" transform="translate(1531,347)"/>
<path d="M0 0 C1.258125 0.12375 2.51625 0.2475 3.8125 0.375 C4.87404297 0.47941406 4.87404297 0.47941406 5.95703125 0.5859375 C8 1 8 1 11 3 C8.36 3.33 5.72 3.66 3 4 C3 3.01 3 2.02 3 1 C2.01 0.67 1.02 0.34 0 0 Z " fill="#93335E" transform="translate(1162,320)"/>
<path d="M0 0 C0 3.90838866 -1.50567876 5.11594107 -4 8 C-5.32 7.67 -6.64 7.34 -8 7 C-5.36 4.69 -2.72 2.38 0 0 Z " fill="#F9DEEE" transform="translate(1928,316)"/>
<path d="M0 0 C0.99 0.33 1.98 0.66 3 1 C3.6875 3.0625 3.6875 3.0625 4 5 C4.99 5 5.98 5 7 5 C6.67 6.65 6.34 8.3 6 10 C3.47650757 6.87567603 1.72743854 3.61939504 0 0 Z " fill="#8D2852" transform="translate(509,299)"/>
<path d="M0 0 C0.66 0.33 1.32 0.66 2 1 C0.02 3.97 0.02 3.97 -2 7 C-2.99 6.67 -3.98 6.34 -5 6 C-3.35 4.02 -1.7 2.04 0 0 Z " fill="#F7E0EF" transform="translate(342,623)"/>
<path d="M0 0 C0.33 0 0.66 0 1 0 C1.56638908 4.81430721 -0.17438373 7.20307814 -3 11 C-3.66 10.67 -4.32 10.34 -5 10 C-3.35 6.7 -1.7 3.4 0 0 Z " fill="#8B2E55" transform="translate(750,389)"/>
<path d="M0 0 C2.32472205 2.85306797 3.7508258 5.54074837 5 9 C4.01 9 3.02 9 2 9 C0.50178941 5.62902617 0 3.79557881 0 0 Z " fill="#F7E1EE" transform="translate(815,370)"/>
<path d="M0 0 C0 3.90838866 -1.50567876 5.11594107 -4 8 C-5.32 7.67 -6.64 7.34 -8 7 C-5.36 4.69 -2.72 2.38 0 0 Z " fill="#8A2D55" transform="translate(1945,333)"/>
<path d="M0 0 C4.41889613 1.35021826 6.34345343 3.26115668 9 7 C7.0625 6.6875 7.0625 6.6875 5 6 C4.67 5.01 4.34 4.02 4 3 C1.98491642 2.26676204 1.98491642 2.26676204 0 2 C0 1.34 0 0.68 0 0 Z " fill="#882E54" transform="translate(1382,325)"/>
<path d="M0 0 C0.66 0.33 1.32 0.66 2 1 C0.7912883 4.6261351 -1.35694503 6.35694503 -4 9 C-4 5.00095031 -2.27413033 3.19799578 0 0 Z " fill="#F6DBEB" transform="translate(980,300)"/>
<path d="M0 0 C1.32 0 2.64 0 4 0 C4.33 2.64 4.66 5.28 5 8 C2.74754119 5.31158141 1.11786042 3.35358125 0 0 Z " fill="#8F2752" transform="translate(689,611)"/>
<path d="M0 0 C0.99 0.99 1.98 1.98 3 3 C1.68 4.65 0.36 6.3 -1 8 C-1.33 5.69 -1.66 3.38 -2 1 C-1.34 0.67 -0.68 0.34 0 0 Z " fill="#922755" transform="translate(194,594)"/>
<path d="M0 0 C0.33 0.99 0.66 1.98 1 3 C-0.9375 5.6875 -0.9375 5.6875 -3 8 C-3.1875 5.125 -3.1875 5.125 -3 2 C-2.01 1.34 -1.02 0.68 0 0 Z " fill="#8E2650" transform="translate(216,559)"/>
<path d="M0 0 C0.66 0 1.32 0 2 0 C0.68775452 3.93673644 -0.91910327 6.22719294 -4 9 C-4.33 8.01 -4.66 7.02 -5 6 C-4.360625 5.7525 -3.72125 5.505 -3.0625 5.25 C-0.81258459 4.18437567 -0.81258459 4.18437567 -0.25 1.875 C-0.1675 1.25625 -0.085 0.6375 0 0 Z " fill="#F7DBED" transform="translate(912,438)"/>
<path d="M0 0 C0.66 0.33 1.32 0.66 2 1 C1.67 2.65 1.34 4.3 1 6 C-0.65 6.33 -2.3 6.66 -4 7 C-2.68 4.69 -1.36 2.38 0 0 Z " fill="#902A54" transform="translate(925,422)"/>
<path d="M0 0 C1.9375 0.8125 1.9375 0.8125 4 2 C4.33 2.99 4.66 3.98 5 5 C2.69 4.67 0.38 4.34 -2 4 C-2 3.34 -2 2.68 -2 2 C-1.34 2 -0.68 2 0 2 C0 1.34 0 0.68 0 0 Z " fill="#8D2250" transform="translate(943,401)"/>
<path d="M0 0 C2.88437779 1.29299694 4.87219421 2.65941363 7 5 C5.35 5.33 3.7 5.66 2 6 C2 5.01 2 4.02 2 3 C1.01 2.67 0.02 2.34 -1 2 C-0.67 1.34 -0.34 0.68 0 0 Z " fill="#902653" transform="translate(1721,394)"/>
<path d="M0 0 C0.6875 1.6875 0.6875 1.6875 1 4 C-0.375 6.75 -0.375 6.75 -2 9 C-2.33 9 -2.66 9 -3 9 C-3 7.35 -3 5.7 -3 4 C-2.34 4 -1.68 4 -1 4 C-0.67 2.68 -0.34 1.36 0 0 Z " fill="#8F2652" transform="translate(312,391)"/>
<path d="M0 0 C2.97 1.98 2.97 1.98 6 4 C5.01 5.485 5.01 5.485 4 7 C2 5.1875 2 5.1875 0 3 C0 2.01 0 1.02 0 0 Z " fill="#881D4B" transform="translate(1704,380)"/>
<path d="M0 0 C-0.59927826 3.35595828 -1.84622436 5.37801226 -4 8 C-4.6875 5.6875 -4.6875 5.6875 -5 3 C-3.40083326 0.79162689 -2.76966516 0 0 0 Z " fill="#8C224E" transform="translate(327,368)"/>
<path d="M0 0 C0.99 0.33 1.98 0.66 3 1 C3 1.66 3 2.32 3 3 C3.99 3 4.98 3 6 3 C5.67 4.65 5.34 6.3 5 8 C2.98863724 5.44008376 1.37154504 2.95409701 0 0 Z " fill="#912853" transform="translate(1571,366)"/>
<path d="M0 0 C0.33 0 0.66 0 1 0 C0.75 3.375 0.75 3.375 0 7 C-2.0625 8.4375 -2.0625 8.4375 -4 9 C-2.80100302 5.9168649 -1.52299523 2.93720508 0 0 Z " fill="#8F2C54" transform="translate(1527,354)"/>
<path d="M0 0 C2.475 0.495 2.475 0.495 5 1 C4.67 2.65 4.34 4.3 4 6 C3.01 5.67 2.02 5.34 1 5 C0.67 3.35 0.34 1.7 0 0 Z " fill="#8E224F" transform="translate(794,329)"/>
<path d="M0 0 C0.33 0.66 0.66 1.32 1 2 C0.00390625 3.9453125 0.00390625 3.9453125 -1.4375 6.125 C-1.91058594 6.84945313 -2.38367188 7.57390625 -2.87109375 8.3203125 C-3.24363281 8.87460937 -3.61617187 9.42890625 -4 10 C-4.66 9.67 -5.32 9.34 -6 9 C-4.02 6.03 -2.04 3.06 0 0 Z " fill="#913159" transform="translate(1002,315)"/>
<path d="M0 0 C0.66 0 1.32 0 2 0 C1.50168276 3.68754757 0.89932357 5.60490662 -2 8 C-2 6.02 -2 4.04 -2 2 C-1.34 2 -0.68 2 0 2 C0 1.34 0 0.68 0 0 Z " fill="#8E254F" transform="translate(771,293)"/>
<path d="M0 0 C0.66 0.33 1.32 0.66 2 1 C1.34 2.65 0.68 4.3 0 6 C-0.99 5.67 -1.98 5.34 -3 5 C-3 3.68 -3 2.36 -3 1 C-2.01 0.67 -1.02 0.34 0 0 Z " fill="#8C1948" transform="translate(407,225)"/>
<path d="M0 0 C0.66 1.32 1.32 2.64 2 4 C-0.97 6.475 -0.97 6.475 -4 9 C-2.80100302 5.9168649 -1.52299523 2.93720508 0 0 Z " fill="#F3DAE8" transform="translate(272,464)"/>
<path d="M0 0 C0.33 0 0.66 0 1 0 C1 3.63 1 7.26 1 11 C-0.32 10.34 -1.64 9.68 -3 9 C-2.01 8.67 -1.02 8.34 0 8 C0 5.36 0 2.72 0 0 Z " fill="#FCE7F6" transform="translate(1807,452)"/>
<path d="M0 0 C4 1 4 1 6 4 C5.67 5.32 5.34 6.64 5 8 C2.525 4.04 2.525 4.04 0 0 Z " fill="#8D2D56" transform="translate(1009,446)"/>
<path d="M0 0 C0.99 1.32 1.98 2.64 3 4 C2.67 4.66 2.34 5.32 2 6 C0.68 6 -0.64 6 -2 6 C-1.34 4.02 -0.68 2.04 0 0 Z " fill="#942954" transform="translate(1485,432)"/>
<path d="M0 0 C3.36720387 1.39332574 4.9859524 2.9789286 7 6 C6.01 6 5.02 6 4 6 C3.67 5.34 3.34 4.68 3 4 C2.01 3.67 1.02 3.34 0 3 C0 2.01 0 1.02 0 0 Z " fill="#8E2C55" transform="translate(1912,423)"/>
<path d="M0 0 C1.98 1.65 3.96 3.3 6 5 C5.34 5.66 4.68 6.32 4 7 C2 5.75 2 5.75 0 4 C0 2.68 0 1.36 0 0 Z " fill="#8F2B56" transform="translate(1906,416)"/>
<path d="M0 0 C2.97 0.495 2.97 0.495 6 1 C5.67 1.66 5.34 2.32 5 3 C1.9375 3.625 1.9375 3.625 -1 4 C-1.33 3.34 -1.66 2.68 -2 2 C-1.34 2 -0.68 2 0 2 C0 1.34 0 0.68 0 0 Z " fill="#902753" transform="translate(1154,384)"/>
<path d="M0 0 C1.65 0 3.3 0 5 0 C4.34 1.65 3.68 3.3 3 5 C2.34 5 1.68 5 1 5 C0.67 3.35 0.34 1.7 0 0 Z " fill="#8D204C" transform="translate(1506,330)"/>
<path d="M0 0 C0.33 0.99 0.66 1.98 1 3 C1.66 3.33 2.32 3.66 3 4 C1.35 5.32 -0.3 6.64 -2 8 C-2.66 7.67 -3.32 7.34 -4 7 C-2.68 4.69 -1.36 2.38 0 0 Z " fill="#F9E6F2" transform="translate(1520,314)"/>
</svg>
