<?xml version="1.0" encoding="UTF-8"?>
<svg version="1.1" xmlns="http://www.w3.org/2000/svg" width="500" height="500">
<path d="M0 0 C0.66 0.33 1.32 0.66 2 1 C2 1.66 2 2.32 2 3 C2.556875 3.185625 3.11375 3.37125 3.6875 3.5625 C9.54516792 7.20375303 12.80042209 14.65931732 15 21 C15 21.99 15 22.98 15 24 C16.98 24 18.96 24 21 24 C21.2165625 23.071875 21.2165625 23.071875 21.4375 22.125 C22 20 22 20 23 18 C23.66 18 24.32 18 25 18 C25.08765625 17.45601562 25.1753125 16.91203125 25.265625 16.3515625 C26.23772527 13.23877333 27.85216188 11.02198475 29.75 8.375 C30.42546875 7.41335937 31.1009375 6.45171875 31.796875 5.4609375 C34.6735471 2.24763356 37.05823206 1.32081383 41.24609375 0.62890625 C45.5910781 0.49724006 47.58565096 0.73911357 51.375 3.125 C54.67334627 6.73747448 56.79037756 9.74655882 57.25 14.6875 C57 17 57 17 56 20 C55.34 20 54.68 20 54 20 C53.814375 20.8971875 53.814375 20.8971875 53.625 21.8125 C53 24 53 24 51 27 C50.34 27 49.68 27 49 27 C48.34 28.98 47.68 30.96 47 33 C46.34 33 45.68 33 45 33 C45 33.66 45 34.32 45 35 C44.34 35 43.68 35 43 35 C42.67 36.32 42.34 37.64 42 39 C41.34 39 40.68 39 40 39 C39.71125 39.763125 39.4225 40.52625 39.125 41.3125 C38 44 38 44 36 47 C35.34 47 34.68 47 34 47 C33.855625 47.7425 33.71125 48.485 33.5625 49.25 C33 52 33 52 32.25390625 53.74609375 C31.85699362 57.26945664 33.70340603 59.82978938 35.375 62.8125 C37.98785072 67.49215647 39.66718518 71.57055031 40 77 C38.45995244 81.13381186 36.61817308 84.42919281 33 87 C23.49327395 89.66889645 13.93301152 86.23659838 5 83 C5 82.34 5 81.68 5 81 C3.02 81.495 3.02 81.495 1 82 C1 81.34 1 80.68 1 80 C0.21496094 80.25330078 0.21496094 80.25330078 -0.5859375 80.51171875 C-3.665509 81.13460943 -6.4869352 80.94122328 -9.625 80.8125 C-15.36818878 80.76498655 -19.38641846 81.51578845 -24.55859375 83.91015625 C-30.34284972 86.49224812 -37.64711271 89.03419095 -44 88 C-48.84664831 85.52915968 -51.18671898 83.13762955 -53 78 C-54.3836921 67.7211444 -47.6598809 58.31131546 -42.99121094 49.59594727 C-39.93701155 43.8701588 -37.10163664 38.07553227 -34.375 32.1875 C-31.13008471 25.19199628 -27.57831817 18.50505875 -23.62890625 11.8828125 C-21.94883357 9.07340723 -21.94883357 9.07340723 -20.90625 6.16015625 C-20.6071875 5.44730469 -20.308125 4.73445312 -20 4 C-17.9375 3.3125 -17.9375 3.3125 -16 3 C-15.67 2.34 -15.34 1.68 -15 1 C-10.54939398 -2.20443634 -4.9391075 -1.64636917 0 0 Z M-9 40 C-11.31 44.62 -13.62 49.24 -16 54 C-12.65875 53.9690625 -12.65875 53.9690625 -9.25 53.9375 C-5.1653166 53.89967886 -1.98042908 54.00489273 2 55 C0.02 50.71 -1.96 46.42 -4 42 C-4.66 42 -5.32 42 -6 42 C-6.33 41.34 -6.66 40.68 -7 40 C-7.66 40 -8.32 40 -9 40 Z " fill="#8461A9" transform="translate(88,211)"/>
<path d="M0 0 C3.00663047 2.34911685 4.66252455 4.23760436 5.5625 8.0625 C6.2225 8.0625 6.8825 8.0625 7.5625 8.0625 C8.0575 11.0325 8.0575 11.0325 8.5625 14.0625 C9.2225 14.0625 9.8825 14.0625 10.5625 14.0625 C13.0422048 24.02559963 13.0422048 24.02559963 12.5625 29.0625 C11.9025 30.0525 11.2425 31.0425 10.5625 32.0625 C9.9025 32.0625 9.2425 32.0625 8.5625 32.0625 C8.5625 32.7225 8.5625 33.3825 8.5625 34.0625 C4.34259156 36.09920433 0.46233605 36.40010744 -4.14453125 36.4765625 C-5.23262337 36.50561172 -5.23262337 36.50561172 -6.34269714 36.5352478 C-8.64501422 36.59472108 -10.94738219 36.64129845 -13.25 36.6875 C-14.81707832 36.72570958 -16.38413631 36.76476303 -17.95117188 36.8046875 C-21.77978152 36.90039563 -25.60848942 36.98454448 -29.4375 37.0625 C-25.19373569 39.89167621 -21.42134633 39.48785242 -16.4375 39.0625 C-14.76816942 38.4025321 -13.1010479 37.73691131 -11.4375 37.0625 C-7.64549558 37.19555279 -5.24617195 37.53047898 -2.0625 39.625 C0.20322409 43.02358614 1.01109623 45.97791328 0.5625 50.0625 C-2.47128889 55.08721286 -5.77661204 57.35803556 -11.4375 59.0625 C-14.40884576 59.48742033 -17.31424821 59.53889316 -20.3125 59.5 C-21.1060791 59.49460205 -21.8996582 59.4892041 -22.71728516 59.48364258 C-30.52453421 59.28072148 -36.46608305 57.18085739 -42.4375 52.0625 C-43.241875 51.505625 -44.04625 50.94875 -44.875 50.375 C-52.30089024 43.67358685 -54.70967417 34.79412839 -55.9375 25.125 C-55.56018069 16.77252245 -50.5515409 6.74221013 -44.4375 1.0625 C-43.4475 1.0625 -42.4575 1.0625 -41.4375 1.0625 C-41.4375 0.4025 -41.4375 -0.2575 -41.4375 -0.9375 C-28.95793283 -11.68379395 -12.45615368 -8.70808581 0 0 Z M-24.4375 11.0625 C-24.4375 11.7225 -24.4375 12.3825 -24.4375 13.0625 C-25.4275 12.7325 -26.4175 12.4025 -27.4375 12.0625 C-29.12512851 13.7079378 -30.7915349 15.37538577 -32.4375 17.0625 C-32.4375 17.3925 -32.4375 17.7225 -32.4375 18.0625 C-24.8475 18.0625 -17.2575 18.0625 -9.4375 18.0625 C-12.71578869 13.24874808 -12.71578869 13.24874808 -15.4375 12.0625 C-16.4275 12.5575 -16.4275 12.5575 -17.4375 13.0625 C-17.4375 12.4025 -17.4375 11.7425 -17.4375 11.0625 C-19.7475 11.0625 -22.0575 11.0625 -24.4375 11.0625 Z " fill="#FEFEFE" transform="translate(450.4375,239.9375)"/>
<path d="M0 0 C5.86718952 5.00282678 9.93736493 12.77215432 10.75 20.4921875 C10.87375 21.6265625 10.9975 22.7609375 11.125 23.9296875 C10.6159148 28.7659969 9.24091544 30.15995003 5.75 33.4921875 C2.04853777 34.89808255 -1.94650456 34.71533249 -5.859375 34.80859375 C-6.58618469 34.82937485 -7.31299438 34.85015594 -8.06182861 34.87156677 C-10.37445991 34.93674262 -12.68720093 34.9957979 -15 35.0546875 C-16.57162575 35.09790316 -18.14324056 35.14151842 -19.71484375 35.18554688 C-23.55978453 35.29239106 -27.40483524 35.39374774 -31.25 35.4921875 C-29.40175355 37.76303918 -29.40175355 37.76303918 -26.5703125 37.7578125 C-25.51585937 37.75265625 -24.46140625 37.7475 -23.375 37.7421875 C-22.32570312 37.74734375 -21.27640625 37.7525 -20.1953125 37.7578125 C-17.28755622 37.49557453 -15.75120786 36.89742142 -13.25 35.4921875 C-9.28480439 34.90162645 -7.76987136 35.1340539 -4.4375 37.4296875 C-1.61954574 41.37482347 -0.66913218 44.65162232 -1.25 49.4921875 C-4.270231 53.83376956 -8.27415633 55.94495436 -13.25 57.4921875 C-16.22088459 57.92013799 -19.12685349 57.96889136 -22.125 57.9296875 C-22.9193042 57.92356445 -23.7136084 57.91744141 -24.53198242 57.91113281 C-34.65507771 57.64093419 -41.27684259 53.72749368 -48.25 46.4921875 C-49.29694594 45.24277874 -50.31703194 43.97048624 -51.3125 42.6796875 C-51.81910156 42.03386719 -52.32570312 41.38804687 -52.84765625 40.72265625 C-57.31855314 33.61156399 -56.95370111 25.60150503 -56.25 17.4921875 C-54.95199053 12.64302004 -53.02574476 8.65580465 -50.25 4.4921875 C-49.59 4.4921875 -48.93 4.4921875 -48.25 4.4921875 C-47.86521484 3.59693359 -47.86521484 3.59693359 -47.47265625 2.68359375 C-44.16118709 -3.25165928 -37.54708362 -6.17508353 -31.265625 -7.98046875 C-30.60046875 -8.15449219 -29.9353125 -8.32851562 -29.25 -8.5078125 C-28.445625 -8.7553125 -27.64125 -9.0028125 -26.8125 -9.2578125 C-16.04336963 -10.30845936 -8.28164747 -6.50238727 0 0 Z M-26.25 9.4921875 C-26.25 10.1521875 -26.25 10.8121875 -26.25 11.4921875 C-27.24 11.1621875 -28.23 10.8321875 -29.25 10.4921875 C-30.62562854 11.78183926 -31.95766393 13.11908043 -33.25 14.4921875 C-33.25 15.1521875 -33.25 15.8121875 -33.25 16.4921875 C-25.99 16.4921875 -18.73 16.4921875 -11.25 16.4921875 C-14.52828869 11.67843558 -14.52828869 11.67843558 -17.25 10.4921875 C-18.24 10.9871875 -18.24 10.9871875 -19.25 11.4921875 C-19.25 10.8321875 -19.25 10.1721875 -19.25 9.4921875 C-21.56 9.4921875 -23.87 9.4921875 -26.25 9.4921875 Z " fill="#FEFEFE" transform="translate(243.25,241.5078125)"/>
<path d="M0 0 C0 0.66 0 1.32 0 2 C0.598125 2.268125 1.19625 2.53625 1.8125 2.8125 C3.99847854 3.99917406 5.41332594 5.09599113 7 7 C7 7.66 7 8.32 7 9 C7.66 9 8.32 9 9 9 C9 9.99 9 10.98 9 12 C9.66 12 10.32 12 11 12 C14.38306344 19.88181802 14.52606769 27.49646181 14.50097656 35.93066406 C14.49999592 38.25969036 14.54189161 40.58550318 14.5859375 42.9140625 C14.59113994 44.4062432 14.59383277 45.89843523 14.59375 47.390625 C14.61014526 48.08029358 14.62654053 48.76996216 14.64343262 49.48052979 C14.58908392 53.28435046 14.07655163 54.90322658 11.68945312 57.92089844 C8.38471358 60.4756517 6.13781391 60.84674763 2 61 C1.01 60.67 0.02 60.34 -1 60 C-1 59.34 -1 58.68 -1 58 C-1.66 58 -2.32 58 -3 58 C-3 57.34 -3 56.68 -3 56 C-3.99 55.505 -3.99 55.505 -5 55 C-6.34217439 52.31565123 -6.12961685 50.22496866 -6.1328125 47.22265625 C-6.13410156 46.06958984 -6.13539063 44.91652344 -6.13671875 43.72851562 C-6.13285156 42.51873047 -6.12898438 41.30894531 -6.125 40.0625 C-6.12886719 38.85658203 -6.13273437 37.65066406 -6.13671875 36.40820312 C-6.13542969 35.25384766 -6.13414062 34.09949219 -6.1328125 32.91015625 C-6.13168457 31.84933838 -6.13055664 30.78852051 -6.12939453 29.69555664 C-6 27 -6 27 -5 24 C-5.66 23.67 -6.32 23.34 -7 23 C-7 22.01 -7 21.02 -7 20 C-7.556875 19.731875 -8.11375 19.46375 -8.6875 19.1875 C-11 18 -11 18 -13.3125 16.4375 C-16.54177723 14.71021218 -19.37956857 14.35494426 -23 14 C-23 14.66 -23 15.32 -23 16 C-24.175625 16.12375 -24.175625 16.12375 -25.375 16.25 C-28.08017187 16.72821404 -28.08017187 16.72821404 -29.25 18.75 C-30.76914984 23.30744952 -31.1137086 27.49607955 -31.0625 32.2890625 C-31.05476563 33.47757812 -31.04703125 34.66609375 -31.0390625 35.890625 C-31.02617187 37.12296875 -31.01328125 38.3553125 -31 39.625 C-30.97452727 42.075477 -30.9534819 44.52600522 -30.9375 46.9765625 C-30.92589844 48.06018066 -30.91429687 49.14379883 -30.90234375 50.26025391 C-31 53 -31 53 -32 56 C-32.66 56 -33.32 56 -34 56 C-34.33 56.99 -34.66 57.98 -35 59 C-37.6599049 61.04608069 -39.10318697 60.99447213 -42.5 60.8125 C-45.94629208 60.01246791 -47.57487946 59.51493982 -50 57 C-51.85427868 53.20330204 -52.25657462 50.1251285 -52.265625 45.921875 C-52.26820313 44.76042969 -52.27078125 43.59898437 -52.2734375 42.40234375 C-52.26570313 41.19707031 -52.25796875 39.99179687 -52.25 38.75 C-52.25773437 37.56019531 -52.26546875 36.37039063 -52.2734375 35.14453125 C-52.24467958 22.13157145 -49.88330936 13.61369446 -41.875 3.25 C-28.8049627 -6.97872484 -14.40842737 -8.47554551 0 0 Z " fill="#FEFEFE" transform="translate(310,238)"/>
<path d="M0 0 C2.94838682 2.73533323 4.90460414 5.21973326 6.125 9.125 C5.51453569 12.94040194 4.56705502 14.67066568 1.875 17.4375 C-1.30731865 19.39028645 -3.13060344 20.125 -6.875 20.125 C-9.43534736 19.01517201 -11.52853084 17.67366965 -13.875 16.125 C-13.875 15.465 -13.875 14.805 -13.875 14.125 C-17.52956815 13.37258891 -21.19233897 12.72450296 -24.875 12.125 C-24.875 12.785 -24.875 13.445 -24.875 14.125 C-25.65875 14.393125 -26.4425 14.66125 -27.25 14.9375 C-30.15614923 15.97314432 -30.15614923 15.97314432 -31.875 19.125 C-32.535 19.125 -33.195 19.125 -33.875 19.125 C-34.70045713 23.60037 -35.23531587 27.06406993 -33.75 31.4375 C-30.83036021 35.62231703 -28.45901203 37.68499666 -23.5 39.0625 C-18.20430722 39.15380505 -14.64431305 37.19481719 -10.1875 34.5 C-6.45628834 32.28144172 -6.45628834 32.28144172 -3.875 32.125 C-0.42954898 33.39067589 1.64238475 34.5458617 4 37.375 C5.41541516 40.83490373 5.46823612 43.4180499 5.125 47.125 C4.465 48.115 3.805 49.105 3.125 50.125 C2.465 50.125 1.805 50.125 1.125 50.125 C0.795 51.115 0.465 52.105 0.125 53.125 C-1.80078125 54.4765625 -1.80078125 54.4765625 -4.1875 55.75 C-4.96738281 56.17539062 -5.74726563 56.60078125 -6.55078125 57.0390625 C-14.2359665 60.62978771 -25.02523655 60.33457457 -33.1796875 58.30078125 C-39.52373987 55.82752025 -39.52373987 55.82752025 -40.875 53.125 C-42.050625 52.444375 -42.050625 52.444375 -43.25 51.75 C-46.0397439 50.02301568 -47.10634031 48.8516837 -48.875 46.125 C-49.29007812 45.49980469 -49.70515625 44.87460937 -50.1328125 44.23046875 C-55.37957736 36.15045087 -56.25363616 27.64767712 -54.875 18.125 C-53.31978495 13.80848475 -51.33515976 9.99096534 -48.875 6.125 C-48.215 6.125 -47.555 6.125 -46.875 6.125 C-46.61976563 5.52816406 -46.36453125 4.93132812 -46.1015625 4.31640625 C-42.66246833 -1.82796264 -35.39662137 -5.02538049 -28.875 -6.875 C-18.49984119 -9.58156317 -8.23129794 -6.57468452 0 0 Z " fill="#FEFEFE" transform="translate(385.875,239.875)"/>
<path d="M0 0 C3.48983321 2.22080295 5.49148833 4.17084209 7 8 C7.2784729 10.7588501 7.2784729 10.7588501 7.31884766 13.96191406 C7.33871735 15.16285706 7.35858704 16.36380005 7.37905884 17.60113525 C7.39061005 18.89291687 7.40216125 20.18469849 7.4140625 21.515625 C7.43277987 22.85513495 7.45235371 24.19463318 7.4727478 25.53411865 C7.52401524 29.05213503 7.56366952 32.57018962 7.60089111 36.08837891 C7.64096474 39.68141082 7.69204171 43.27428454 7.7421875 46.8671875 C7.83888278 53.91134242 7.9233079 60.9555966 8 68 C9.09570312 68.28359375 10.19140625 68.5671875 11.3203125 68.859375 C15.57108608 70.17702456 17.29425957 71.49845357 20 75 C21.0268055 78.66716248 21.20806522 80.37580435 20 84 C19.34 84 18.68 84 18 84 C17.731875 84.639375 17.46375 85.27875 17.1875 85.9375 C16 88 16 88 13 89 C6.2979576 89.52565038 1.12997625 87.95623515 -4.5 84.4375 C-4.995 83.963125 -5.49 83.48875 -6 83 C-6 82.34 -6 81.68 -6 81 C-6.99 80.67 -7.98 80.34 -9 80 C-13.94127271 72.81437247 -13.57099278 65.64120698 -13.49609375 57.17578125 C-13.49624897 55.74187649 -13.49774184 54.30797132 -13.50050354 52.87406921 C-13.50188169 49.88257083 -13.48942403 46.89155534 -13.46655273 43.90014648 C-13.43809174 40.07351951 -13.44093384 36.24768906 -13.45364285 32.42100239 C-13.46060753 29.46550227 -13.45280314 26.51018521 -13.44038582 23.55470848 C-13.43588439 22.14376719 -13.43552305 20.73280618 -13.43945122 19.32186317 C-13.44237284 17.35036587 -13.42366267 15.37887264 -13.40405273 13.4074707 C-13.39864975 12.28798538 -13.39324677 11.16850006 -13.38768005 10.01509094 C-12.9521638 6.62796512 -11.99700432 4.74339843 -10 2 C-6.79062591 -0.32402951 -3.88493979 -0.47570691 0 0 Z " fill="#FEFEFE" transform="translate(164,210)"/>
<path d="M0 0 C3.52781324 2.74974917 5.56914502 5.95131381 7.12109375 10.08984375 C7.41794731 13.2810195 7.14272135 15.02496094 6.12109375 18.08984375 C5.46109375 18.08984375 4.80109375 18.08984375 4.12109375 18.08984375 C3.93546875 18.98703125 3.93546875 18.98703125 3.74609375 19.90234375 C3.12109375 22.08984375 3.12109375 22.08984375 1.12109375 25.08984375 C0.46109375 25.08984375 -0.19890625 25.08984375 -0.87890625 25.08984375 C-1.53890625 27.06984375 -2.19890625 29.04984375 -2.87890625 31.08984375 C-3.53890625 31.08984375 -4.19890625 31.08984375 -4.87890625 31.08984375 C-4.87890625 31.74984375 -4.87890625 32.40984375 -4.87890625 33.08984375 C-5.53890625 33.08984375 -6.19890625 33.08984375 -6.87890625 33.08984375 C-7.20890625 34.40984375 -7.53890625 35.72984375 -7.87890625 37.08984375 C-8.53890625 37.08984375 -9.19890625 37.08984375 -9.87890625 37.08984375 C-10.16765625 37.85296875 -10.45640625 38.61609375 -10.75390625 39.40234375 C-11.87890625 42.08984375 -11.87890625 42.08984375 -13.87890625 45.08984375 C-14.53890625 45.08984375 -15.19890625 45.08984375 -15.87890625 45.08984375 C-15.98203125 45.85296875 -16.08515625 46.61609375 -16.19140625 47.40234375 C-16.93681241 50.31620421 -17.72349564 51.11934772 -19.87890625 53.08984375 C-33.87890625 27.07241456 -33.87890625 27.07241456 -33.87890625 23.08984375 C-32.22890625 22.75984375 -30.57890625 22.42984375 -28.87890625 22.08984375 C-28.66234375 21.16171875 -28.66234375 21.16171875 -28.44140625 20.21484375 C-27.87890625 18.08984375 -27.87890625 18.08984375 -26.87890625 16.08984375 C-26.21890625 16.08984375 -25.55890625 16.08984375 -24.87890625 16.08984375 C-24.74935547 15.27386719 -24.74935547 15.27386719 -24.6171875 14.44140625 C-23.63610516 11.31647731 -21.98856039 9.11092608 -20.06640625 6.46484375 C-19.37933594 5.50320312 -18.69226563 4.5415625 -17.984375 3.55078125 C-13.56410976 -1.61576254 -6.26088451 -3.03281932 0 0 Z " fill="#6C4FA1" transform="translate(137.87890625,212.91015625)"/>
<path d="M0 0 C1.51207031 -0.01160156 1.51207031 -0.01160156 3.0546875 -0.0234375 C6.97616554 0.4854566 8.88755985 1.01436655 12.125 3.375 C14.51527492 6.99812951 16.37274618 10.84185522 18.25 14.75 C19.26843236 16.82277922 20.29172223 18.89318021 21.3203125 20.9609375 C21.76391113 21.8792334 22.20750977 22.7975293 22.66455078 23.74365234 C25.11745744 28.16314883 27.94062575 31.53560319 32.125 34.375 C25.23668659 35.00121031 19.53597745 32.73306067 13.125 30.375 C13.125 29.715 13.125 29.055 13.125 28.375 C11.805 28.705 10.485 29.035 9.125 29.375 C9.125 28.715 9.125 28.055 9.125 27.375 C8.60164063 27.54386719 8.07828125 27.71273438 7.5390625 27.88671875 C4.459491 28.50960943 1.6380648 28.31622328 -1.5 28.1875 C-7.2855157 28.13354182 -11.33927361 28.91799363 -16.54296875 31.3515625 C-20.21231887 32.96189706 -23.95096433 33.61550922 -27.875 34.375 C-26.57949219 33.02148438 -26.57949219 33.02148438 -25.2578125 31.640625 C-21.01858147 26.69692986 -18.50207234 20.98107208 -15.75 15.125 C-14.73607751 12.96945697 -13.7130002 10.81819032 -12.6796875 8.671875 C-12.23608887 7.72666992 -11.79249023 6.78146484 -11.33544922 5.80761719 C-8.41778566 0.94777104 -5.52324902 -0.04216221 0 0 Z " fill="#7455A3" transform="translate(79.875,263.625)"/>
<path d="M0 0 C0.99 0.33 1.98 0.66 3 1 C1.47046428 4.31823015 -0.07586202 7.62838147 -1.625 10.9375 C-2.05167969 11.86369141 -2.47835937 12.78988281 -2.91796875 13.74414062 C-8.67548844 25.98961161 -8.67548844 25.98961161 -13 31 C-16.375 32.0625 -16.375 32.0625 -19 32 C-18.14019531 31.10023438 -17.28039063 30.20046875 -16.39453125 29.2734375 C-12.1164083 24.28250359 -9.50785298 18.51858942 -6.6875 12.625 C-5.63036367 10.44981193 -4.57184726 8.27529384 -3.51171875 6.1015625 C-2.82275513 4.66804443 -2.82275513 4.66804443 -2.11987305 3.20556641 C-1 1 -1 1 0 0 Z " fill="#4B4354" transform="translate(71,266)"/>
<path d="M0 0 C0.66 0.33 1.32 0.66 2 1 C2.34672807 2.66393165 2.67756606 4.33119047 3 6 C3.78889191 7.75869132 4.6402532 9.49017689 5.5390625 11.1953125 C6.03664063 12.15824219 6.53421875 13.12117187 7.046875 14.11328125 C8.10385426 16.13043721 9.16377918 18.14605225 10.2265625 20.16015625 C10.7215625 21.12050781 11.2165625 22.08085937 11.7265625 23.0703125 C12.18627441 23.94445801 12.64598633 24.81860352 13.11962891 25.71923828 C14 28 14 28 13 31 C10.10692317 28.48752064 8.72446284 25.74479429 7.08203125 22.30859375 C6.55029297 21.19935547 6.01855469 20.09011719 5.47070312 18.94726562 C4.92349609 17.78904297 4.37628906 16.63082031 3.8125 15.4375 C3.25369141 14.27541016 2.69488281 13.11332031 2.11914062 11.91601562 C-2 3.27034684 -2 3.27034684 -2 1 C-1.34 0.67 -0.68 0.34 0 0 Z " fill="#4C465C" transform="translate(106,235)"/>
<path d="M0 0 C3 1 3 1 4.37866211 3.14550781 C4.84022705 4.07202148 5.30179199 4.99853516 5.77734375 5.953125 C6.29103516 6.96503906 6.80472656 7.97695313 7.33398438 9.01953125 C7.86314453 10.08558594 8.39230469 11.15164063 8.9375 12.25 C9.98307616 14.34115232 11.03370637 16.42978671 12.08984375 18.515625 C12.55253662 19.44665039 13.01522949 20.37767578 13.49194336 21.33691406 C15.99062775 25.74935527 18.79912667 29.14940738 23 32 C17.77354053 31.33489548 16.00657233 29.41119222 12.75732422 25.46435547 C9.64694324 21.10256253 7.36207517 16.38747307 5.0625 11.5625 C4.56943359 10.55767578 4.07636719 9.55285156 3.56835938 8.51757812 C0 1.19773968 0 1.19773968 0 0 Z " fill="#564B5E" transform="translate(89,266)"/>
<path d="M0 0 C0.66 0.33 1.32 0.66 2 1 C2.36871088 2.65919896 2.69595322 4.32774271 3 6 C3.63437344 7.6792238 4.29289322 9.35008418 5 11 C4.01 11 3.02 11 2 11 C1.32845067 9.71086513 0.66291141 8.41859796 0 7.125 C-0.37125 6.40570313 -0.7425 5.68640625 -1.125 4.9453125 C-2 3 -2 3 -2 1 C-1.34 0.67 -0.68 0.34 0 0 Z " fill="#46424E" transform="translate(106,235)"/>
<path d="M0 0 C0.99 0.33 1.98 0.66 3 1 C2.01 3.31 1.02 5.62 0 8 C-0.99 7.67 -1.98 7.34 -3 7 C-1.125 1.125 -1.125 1.125 0 0 Z " fill="#50485B" transform="translate(71,266)"/>
</svg>
