<?xml version="1.0" encoding="UTF-8"?>
<svg version="1.1" xmlns="http://www.w3.org/2000/svg" width="2000" height="2000">
<path d="M0 0 C660 0 1320 0 2000 0 C2000 660 2000 1320 2000 2000 C1340 2000 680 2000 0 2000 C0 1340 0 680 0 0 Z " fill="#C01F47" transform="translate(0,0)"/>
<path d="M0 0 C26.73 0 53.46 0 81 0 C84.45381414 20.6426672 84.45381414 20.6426672 85.92773438 29.46875 C86.93192037 35.48192863 87.93645597 41.49504735 88.94311523 47.5078125 C89.75503432 52.35753424 90.5653506 57.20752135 91.37457466 62.05769348 C91.68298299 63.90445925 91.99196049 65.75113006 92.30152702 67.59770203 C92.73631599 70.19183571 93.16904659 72.78630521 93.60131836 75.38085938 C93.72863342 76.1375592 93.85594849 76.89425903 93.98712158 77.67388916 C96.14443707 90.66755157 96.14443707 90.66755157 96.09765625 96.28125 C96.09443359 96.97734375 96.09121094 97.6734375 96.08789062 98.390625 C96.07951172 99.08671875 96.07113281 99.7828125 96.0625 100.5 C96.05798828 101.22703125 96.05347656 101.9540625 96.04882812 102.703125 C96.03721193 104.46878681 96.01928441 106.2344053 96 108 C96.66 108 97.32 108 98 108 C98.26578857 107.27570801 98.53157715 106.55141602 98.80541992 105.80517578 C100.00773151 102.98184447 101.40247796 100.66107975 103.11328125 98.1171875 C103.76989746 97.13613037 104.42651367 96.15507324 105.10302734 95.14428711 C105.83215332 94.06542236 106.5612793 92.98655762 107.3125 91.875 C108.09102877 90.7158254 108.86917328 89.55639265 109.64697266 88.39672852 C111.90180003 85.03834586 114.16340761 81.68457527 116.42645264 78.33172607 C118.11737427 75.82607156 119.80708989 73.31960686 121.49658203 70.81298828 C131.55737265 55.88698125 131.55737265 55.88698125 136.54418945 48.50537109 C143.02410791 38.91191567 149.48221154 29.30472276 155.89501953 19.66625977 C156.6150264 18.63464973 156.6150264 18.63464973 157.34957886 17.5821991 C158.70066893 15.46832436 159.81442622 13.41116132 160.93386841 11.17524719 C166.23103152 1.19892889 166.23103152 1.19892889 170.90488815 -0.82479286 C176.37338805 -2.09766521 181.91103965 -1.72372661 187.4765625 -1.46484375 C189.25579839 -1.43682181 191.03515105 -1.41549107 192.81454468 -1.40052795 C197.47022207 -1.34358738 202.11873656 -1.19660686 206.77160645 -1.02996826 C211.53034534 -0.87575458 216.29025727 -0.80785602 221.05078125 -0.73242188 C230.37031396 -0.57215199 239.68455874 -0.31660918 249 0 C248.69536159 2.20557498 248.3877234 4.41073573 248.07885742 6.61572266 C247.90787033 7.84376617 247.73688324 9.07180969 247.56071472 10.33706665 C246.73283487 15.74528689 245.54599577 21.04721716 244.3125 26.375 C243.77800911 28.73162651 243.24418405 31.08840411 242.7109375 33.4453125 C242.29279785 35.28464355 242.29279785 35.28464355 241.86621094 37.16113281 C240.35688212 43.85016502 238.89862382 50.55030495 237.4375 57.25 C237.13717955 58.62484901 236.83680539 59.9996863 236.53637695 61.37451172 C234.65378066 69.99197629 232.77825462 78.61097357 230.90722656 87.23095703 C229.32304193 94.52560429 227.72668471 101.81755622 226.12911987 109.10928345 C225.98338531 109.77446991 225.83765076 110.43965637 225.6875 111.125 C225.54152374 111.79123383 225.39554749 112.45746765 225.24514771 113.14389038 C222.78792576 124.3621836 220.35890299 135.58642768 217.9375 146.8125 C215.43140994 158.43065796 212.89282418 170.04051676 210.29760742 181.63916016 C208.813607 188.28921429 207.35820432 194.94498745 205.921875 201.60546875 C205.65231995 202.85525009 205.65231995 202.85525009 205.37731934 204.13027954 C204.48757944 208.2582484 203.59998273 212.38666724 202.71484375 216.515625 C202.38803887 218.03516013 202.06121674 219.55469155 201.734375 221.07421875 C201.58877136 221.75647018 201.44316772 222.43872162 201.29315186 223.14164734 C200.29116655 227.79350199 199.15563659 232.37745366 198 237 C175.23 237 152.46 237 129 237 C131.29012303 223.25926181 131.29012303 223.25926181 132.84765625 216.7734375 C133.20480472 215.25229088 133.56189861 213.73113145 133.91894531 212.20996094 C134.10509399 211.42327026 134.29124268 210.63657959 134.48303223 209.8260498 C138.50590268 192.80999424 142.25413973 175.74459377 145.81665039 158.62646484 C149.06169545 143.13975724 152.87821349 127.85499374 157.8125 112.8125 C158.12380859 111.84892578 158.43511719 110.88535156 158.75585938 109.89257812 C159.49933546 107.5935213 160.24726965 105.29603964 161 103 C158.01772429 106.55155956 155.64900225 110.15652301 153.3828125 114.19921875 C152.6945583 115.41219847 152.00539465 116.6246625 151.31542969 117.83666992 C150.95848022 118.46544037 150.60153076 119.09421082 150.23376465 119.74203491 C143.49883982 131.55929581 136.29191619 142.39918767 127.65429688 152.93164062 C125.40868168 155.73932244 123.29819639 158.63267841 121.20852661 161.55764771 C120.13796807 163.04885725 119.05872686 164.53391309 117.96688843 166.00961304 C115.11135667 169.89623589 112.51863347 173.77086654 110.19482422 177.99951172 C102.86628046 190.59711684 102.86628046 190.59711684 96.2557373 192.99575806 C88.7245801 194.35244325 81.21074066 193.73864292 73.625 193.1875 C71.32847711 193.09202767 69.03157023 193.00536441 66.734375 192.92773438 C61.14776714 192.71993947 55.57570048 192.40365994 50 192 C49.86948242 191.30140869 49.73896484 190.60281738 49.60449219 189.88305664 C47.27342577 177.45512507 44.92546938 165.05977382 41.89453125 152.78125 C39.55563606 142.89456641 38.44737487 133.32624451 37.7890625 123.18945312 C37.34512993 116.93230009 36.53265508 111.0859179 35 105 C34.82984375 105.87398437 34.6596875 106.74796875 34.484375 107.6484375 C31.28586915 123.87915334 27.82624971 139.67087427 22.3125 155.296875 C19.52431448 163.22826703 17.06927855 171.26092799 14.60360718 179.29705811 C13.8387025 181.78961521 13.06953141 184.28082574 12.30004883 186.77197266 C10.17750921 193.67311143 8.08333278 200.57486029 6.20175171 207.54620361 C3.46037232 217.57404358 0.31244315 227.06267054 -3 237 C-25.77 237 -48.54 237 -72 237 C-71.31347207 232.19430451 -70.64412733 228.39777169 -69.21484375 223.88671875 C-68.85293945 222.73381348 -68.49103516 221.5809082 -68.11816406 220.39306641 C-67.53373535 218.55881104 -67.53373535 218.55881104 -66.9375 216.6875 C-66.53163853 215.40041314 -66.12637395 214.11313793 -65.72167969 212.82568359 C-65.09913787 210.84546392 -64.47619803 208.86537973 -63.85122681 206.88592529 C-61.77631306 200.31151127 -59.76333043 193.71849923 -57.75 187.125 C-55.70640044 180.44894375 -53.628027 173.79590086 -51.375 167.1875 C-49.43044442 161.46402474 -47.75278307 155.69403322 -46.125 149.875 C-43.89638593 141.90896685 -41.44280384 134.05413333 -38.71142578 126.24560547 C-36.66899618 120.31153622 -34.92761666 114.3108888 -33.22265625 108.2734375 C-30.26278603 97.79990664 -27.08881647 87.40098902 -23.84057617 77.01367188 C-22.93168787 74.10640872 -22.02710389 71.19783122 -21.12304688 68.2890625 C-18.56978488 60.09180022 -15.9987335 51.9049156 -13.25390625 43.76953125 C-11.33631285 38.07346144 -9.598062 32.35547474 -8 26.5625 C-5.52643626 17.638975 -2.76545791 8.84946531 0 0 Z " fill="#FEF100" transform="translate(303,849)"/>
<path d="M0 0 C24.09 0 48.18 0 73 0 C77.50024573 11.25061433 77.50024573 11.25061433 79.22314453 16.35058594 C79.61100128 17.4942865 79.99885803 18.63798706 80.39846802 19.81634521 C81.00946854 21.63201996 81.00946854 21.63201996 81.6328125 23.484375 C82.07374154 24.78834444 82.51489899 26.09223666 82.95626831 27.39605713 C84.11552758 30.82281183 85.27137765 34.25070715 86.42657471 37.67883301 C87.56590963 41.05750918 88.70897768 44.43492181 89.8515625 47.8125 C91.8948521 53.85381215 93.92849422 59.89832157 95.95853901 65.94409561 C97.32785191 70.01704754 98.71074335 74.08509863 100.10426331 78.14982986 C101.02010501 80.82503665 101.92902067 83.50256891 102.83689499 86.18048859 C103.46139454 88.01477795 104.09471375 89.84605743 104.72842407 91.67718506 C108.51453572 102.87883353 110.7382644 114.19236316 112.58618164 125.86230469 C112.9085363 128.04130073 112.9085363 128.04130073 114 130 C114.96117776 125.07463627 115.92142463 120.14909223 116.88085938 115.22338867 C117.2064583 113.552442 117.53229878 111.88154238 117.85839844 110.21069336 C118.33073526 107.79032935 118.80222791 105.36980245 119.2734375 102.94921875 C119.504011 101.76754372 119.504011 101.76754372 119.73924255 100.56199646 C120.55649721 96.35527866 121.33096684 92.14521841 122.05859375 87.921875 C122.93913135 83.0230632 124.24756281 78.32271788 125.6875 73.5625 C128.18201606 65.09231487 130.39527575 56.57493186 132.5 48 C134.79336417 38.66702698 137.21176862 29.39590935 139.95898438 20.18554688 C141.93993117 13.48211375 143.41649462 6.86185665 145 0 C167.11 0 189.22 0 212 0 C210.15911778 11.04529333 207.39763238 21.82395198 204.25 32.5625 C201.16724535 43.09149291 198.51199022 53.71834326 195.89160156 64.36938477 C193.69830689 73.27658927 191.38428689 82.14242558 189 91 C188.18279732 94.08210261 187.3721782 97.16591326 186.5625 100.25 C186.13672571 101.8697935 185.71094425 103.48958511 185.28515625 105.109375 C185.07262207 105.91826172 184.86008789 106.72714844 184.64111328 107.56054688 C183.59510519 111.54063556 182.54748409 115.52029956 181.5 119.5 C181.08332532 121.08333122 180.66665866 122.66666456 180.25 124.25 C174.41666667 146.41666667 168.58333333 168.58333333 162.75 190.75 C162.54366943 191.53415283 162.33733887 192.31830566 162.12475586 193.1262207 C161.70909536 194.70553567 161.29324328 196.28480022 160.87719727 197.86401367 C159.81853923 201.88343094 158.76348478 205.90373807 157.71484375 209.92578125 C157.50085938 210.74433594 157.286875 211.56289062 157.06640625 212.40625 C156.66798262 213.93065347 156.27070461 215.45535721 155.875 216.98046875 C154.03126713 224.02479985 152.00239191 230.99162833 150 238 C125.58 238 101.16 238 76 238 C65.75 208.625 65.75 208.625 62.42700195 199.08642578 C56.31817843 181.54105861 56.31817843 181.54105861 50.04296875 164.0546875 C43.68934972 146.59344498 38.59059083 129.44483877 36 111 C35.80889648 112.07258057 35.61779297 113.14516113 35.42089844 114.25024414 C34.69667087 118.30512171 33.96399105 122.3584371 33.22900391 126.41137695 C32.91459295 128.15153425 32.60234675 129.89208434 32.29248047 131.63305664 C30.34000555 142.5928228 28.03200492 153.28653103 25 164 C24.59405865 165.53256473 24.1922043 167.06622613 23.796875 168.6015625 C21.31193297 178.15696488 18.70935526 187.67565619 16.0625 197.1875 C13.14528608 207.6741852 10.38532676 218.18730879 7.81469727 228.7644043 C7.58838623 229.69164307 7.3620752 230.61888184 7.12890625 231.57421875 C6.93369385 232.38463623 6.73848145 233.19505371 6.53735352 234.0300293 C6 236 6 236 5 238 C-17.11 238 -39.22 238 -62 238 C-60.78299114 232.52346015 -59.55354279 227.08647853 -58.1953125 221.6484375 C-58.03006073 220.98647369 -57.86480896 220.32450989 -57.69454956 219.64248657 C-57.34723684 218.25256146 -56.99934171 216.86278176 -56.65087891 215.47314453 C-56.13139068 213.40049745 -55.61438919 211.32724174 -55.09765625 209.25390625 C-52.82138871 200.1442355 -50.43637088 191.0681247 -48 182 C-47.18301461 178.91784023 -46.3721781 175.83408638 -45.5625 172.75 C-45.13672571 171.1302065 -44.71094425 169.51041489 -44.28515625 167.890625 C-44.07262207 167.08173828 -43.86008789 166.27285156 -43.64111328 165.43945312 C-42.59510519 161.45936444 -41.54748409 157.47970044 -40.5 153.5 C-40.08332532 151.91666878 -39.66665866 150.33333544 -39.25 148.75 C-25.5 96.5 -25.5 96.5 -11.75 44.25 C-11.54358887 43.46560547 -11.33717773 42.68121094 -11.12451172 41.87304688 C-10.7095368 40.29620708 -10.29449816 38.71938405 -9.87939453 37.14257812 C-8.81131005 33.08503174 -7.74447223 29.02716366 -6.6796875 24.96875 C-6.46119141 24.13666016 -6.24269531 23.30457031 -6.01757812 22.44726562 C-5.60699995 20.88357427 -5.1968054 19.31978209 -4.78710938 17.75585938 C-3.2293947 11.82598282 -1.61342377 5.91588715 0 0 Z " fill="#FEF000" transform="translate(709,849)"/>
<path d="M0 0 C23.43 0 46.86 0 71 0 C68.7475145 12.38867026 68.7475145 12.38867026 67.4140625 17.70703125 C67.1253125 18.86267578 66.8365625 20.01832031 66.5390625 21.20898438 C66.23742188 22.39814453 65.93578125 23.58730469 65.625 24.8125 C65.15320313 26.68711914 65.15320313 26.68711914 64.671875 28.59960938 C62.93402757 35.46123426 61.10002483 42.27793323 59.09375 49.06640625 C57.0516635 56.21570324 55.36163659 63.46605086 53.57080078 70.68115234 C51.1650168 80.36776885 48.70302953 90.02975687 45.96484375 99.62890625 C44.60161932 104.40816901 43.29466122 109.20174528 42 114 C41.82561401 114.64201355 41.65122803 115.2840271 41.47155762 115.94549561 C40.22644528 120.53583798 39.00815769 125.13243079 37.81283569 129.73599243 C37.40239434 131.30402621 36.98530736 132.87033855 36.5609436 134.43466187 C33.37041974 146.22833276 29.20193427 161.81131836 35.5 173.2265625 C39.48108297 177.93336372 44.39315419 179.71962986 50.4140625 180.3671875 C62.08506365 180.59603066 72.78477591 179.2210596 81.87109375 171.38671875 C95.09816592 157.62938534 98.977747 136.51413065 103.34375 118.67138672 C105.08624354 111.56657673 106.93528964 104.5176603 109 97.5 C112.44444135 85.76132533 115.31466369 73.88399049 118.25097656 62.01025391 C121.0219643 50.87391792 124.14588878 39.83407258 127.27539062 28.79418945 C129.97559127 19.22422313 132.46777501 9.62245495 135 0 C158.43 0 181.86 0 206 0 C205.35141891 5.83722984 204.79117784 10.40508193 203.25 15.875 C202.88876284 17.17953254 202.52811443 18.48422821 202.16796875 19.7890625 C201.9776709 20.47129883 201.78737305 21.15353516 201.59130859 21.85644531 C200.54624505 25.64490854 199.55753616 29.44815213 198.5625 33.25 C198.1368655 34.86983023 197.711083 36.48962159 197.28515625 38.109375 C197.07262207 38.91826172 196.86008789 39.72714844 196.64111328 40.56054688 C195.59510519 44.54063556 194.54748409 48.52029956 193.5 52.5 C193.08332532 54.08333122 192.66665866 55.66666456 192.25 57.25 C189.75 66.75 187.25 76.25 184.75 85.75 C184.4408667 86.9248999 184.4408667 86.9248999 184.12548828 88.12353516 C183.70745021 89.71181876 183.28915465 91.30003461 182.87060547 92.88818359 C181.84783199 96.7702725 180.82909666 100.65331318 179.8203125 104.5390625 C178.56542254 109.36437012 177.28825799 114.18349983 176 119 C175.61739014 120.43520996 175.61739014 120.43520996 175.22705078 121.89941406 C164.84398393 160.61404111 151.44591411 202.07071867 115.20068359 224.09326172 C91.72191836 237.56916587 67.04228344 241.21909414 40.4375 241.375 C39.61936829 241.38312714 38.80123657 241.39125427 37.95831299 241.39962769 C14.14645832 241.57650007 -10.66905329 238.63850436 -28.70703125 221.546875 C-42.23023159 206.52621636 -42.76345672 187.21186489 -42.18359375 168.05029297 C-41.77916941 161.33104065 -40.28282298 154.90844804 -38.61181641 148.40673828 C-37.95927485 145.83979709 -37.35625116 143.26456387 -36.76171875 140.68359375 C-34.67838162 131.67415255 -32.44810548 122.7137985 -30.02734375 113.7890625 C-28.85042764 109.44834529 -27.70441536 105.10002788 -26.5625 100.75 C-26.13673618 99.13020375 -25.71095483 97.51041211 -25.28515625 95.890625 C-25.07262207 95.08173828 -24.86008789 94.27285156 -24.64111328 93.43945312 C-23.59510519 89.45936444 -22.54748409 85.47970044 -21.5 81.5 C-21.08332532 79.91666878 -20.66665866 78.33333544 -20.25 76.75 C-17.75 67.25 -15.25 57.75 -12.75 48.25 C-12.54366943 47.46592773 -12.33733887 46.68185547 -12.12475586 45.87402344 C-11.70893505 44.29393688 -11.29308229 42.71385872 -10.87719727 41.13378906 C-9.82232402 37.12584919 -8.76804172 33.11775545 -7.71484375 29.109375 C-7.50085938 28.29533203 -7.286875 27.48128906 -7.06640625 26.64257812 C-6.66905508 25.13091607 -6.27189446 23.6192039 -5.875 22.10742188 C-3.93611561 14.73297538 -1.96474461 7.36779227 0 0 Z " fill="#FEF100" transform="translate(958,849)"/>
<path d="M0 0 C0.71071655 -0.00067474 1.42143311 -0.00134949 2.15368652 -0.00204468 C27.24579318 0.03531763 51.6618687 3.01711741 75.4375 11.25 C74.69544196 15.46843865 73.48904183 19.49039854 72.1875 23.5625 C71.73042677 25.00910132 71.27339662 26.45571625 70.81640625 27.90234375 C70.58453613 28.63308105 70.35266602 29.36381836 70.11376953 30.11669922 C69.10980212 33.28372712 68.11693083 36.45418381 67.125 39.625 C66.93043213 40.24673096 66.73586426 40.86846191 66.53540039 41.5090332 C63.1305593 52.41060241 59.79051067 63.3324073 56.4375 74.25 C48.20209581 71.54528443 48.20209581 71.54528443 44.77734375 70.22265625 C27.72474784 63.76207926 9.71219153 62.87239144 -8.3125 62.875 C-9.53679718 62.87228088 -9.53679718 62.87228088 -10.78582764 62.86950684 C-29.42335636 62.74231799 -29.42335636 62.74231799 -46.5625 69.25 C-49.09456711 73.04810066 -49.33675013 74.75934923 -48.5625 79.25 C-43.32879028 84.13221208 -36.08094164 85.91912903 -29.375 87.8125 C-28.34834229 88.11422119 -27.32168457 88.41594238 -26.26391602 88.72680664 C-23.36626785 89.57800369 -20.46511815 90.41593894 -17.5625 91.25 C28.67645917 104.73220192 28.67645917 104.73220192 41.96484375 126.49609375 C43.99511289 130.2927509 45.31564945 134.10778257 46.4375 138.25 C46.7675 139.24 47.0975 140.23 47.4375 141.25 C48.70244555 165.23531372 44.355091 190.09854009 27.875 208.625 C26.4063043 210.17664529 24.92856763 211.71984071 23.4375 213.25 C22.633125 214.11625 21.82875 214.9825 21 215.875 C-11.35778792 245.86514491 -57.14004884 246.78850002 -98.81536865 245.38085938 C-118.03676698 244.46524965 -138.71138781 241.58401115 -156.5625 234.25 C-157.89966077 231.57567847 -157.2629661 230.65284488 -156.375 227.83203125 C-156.09197021 226.91905273 -155.80894043 226.00607422 -155.51733398 225.06542969 C-155.04469116 223.57897949 -155.04469116 223.57897949 -154.5625 222.0625 C-153.90731819 219.95970828 -153.25237696 217.85684158 -152.59765625 215.75390625 C-152.08936279 214.13379639 -152.08936279 214.13379639 -151.57080078 212.48095703 C-150.01540338 207.49690638 -148.51047917 202.49780275 -147 197.5 C-143.9310935 187.3920868 -140.76876696 177.31509445 -137.5625 167.25 C-136.77230469 167.62511719 -135.98210937 168.00023437 -135.16796875 168.38671875 C-112.29433807 178.76481175 -88.38444775 181.47918083 -63.5 181.6875 C-62.311716 181.70582382 -62.311716 181.70582382 -61.09942627 181.72451782 C-50.78099641 181.85864324 -42.29571742 180.96787097 -32.5625 177.25 C-31.5725 176.92 -30.5825 176.59 -29.5625 176.25 C-28.3779869 172.69646071 -28.29608106 169.97986522 -28.5625 166.25 C-35.72132429 156.9134104 -56.58723055 153.95025057 -67.48046875 151.26171875 C-74.87718738 149.43068807 -81.90232125 147.14200196 -89 144.375 C-89.82886719 144.05934082 -90.65773438 143.74368164 -91.51171875 143.41845703 C-97.24462038 141.11489394 -101.79802083 138.15794359 -106.5625 134.25 C-107.38669434 133.62496582 -107.38669434 133.62496582 -108.22753906 132.98730469 C-115.76570757 127.1295892 -122.19822187 116.94109745 -124.19140625 107.59375 C-126.91151867 83.08410544 -121.94506934 60.6875713 -106.76953125 40.8984375 C-86.63920979 16.74205175 -56.63166004 4.12690123 -25.73266602 0.95996094 C-17.15941749 0.22584405 -8.6019588 0.00744988 0 0 Z " fill="#FEF100" transform="translate(1710.5625,844.75)"/>
<path d="M0 0 C2.64 0 5.28 0 8 0 C8 660 8 1320 8 2000 C-652 2000 -1312 2000 -1992 2000 C-1992 1997.36 -1992 1994.72 -1992 1992 C-1334.64 1992 -677.28 1992 0 1992 C0 1334.64 0 677.28 0 0 Z " fill="#FCF6F8" transform="translate(1992,0)"/>
<path d="M0 0 C66.33 0 132.66 0 201 0 C199.82982123 5.85089383 198.67006821 11.57426307 197.23046875 17.34375 C197.06758865 17.99718384 196.90470856 18.65061768 196.7368927 19.32385254 C196.39435322 20.69535723 196.05065209 22.06657231 195.70581055 23.4375 C195.19556769 25.46789643 194.69028418 27.49947891 194.18554688 29.53125 C191.62710045 39.74539311 188.82048873 49.84624059 186 60 C164.22 60 142.44 60 120 60 C119.67 62.97 119.34 65.94 119 69 C118.47445405 71.32631371 117.89197735 73.64058923 117.25 75.9375 C117.0744458 76.57534424 116.8988916 77.21318848 116.71801758 77.87036133 C115.97001736 80.57920237 115.20332759 83.28262217 114.43701172 85.98632812 C113.85171514 88.05279371 113.26869405 90.11987675 112.6875 92.1875 C112.48358643 92.91291992 112.27967285 93.63833984 112.06958008 94.38574219 C109.7218211 102.84227622 107.63473735 111.36379724 105.52075195 119.88110352 C103.10865171 129.59487485 100.62366295 139.27971812 97.89453125 148.91015625 C94.89607683 159.51883847 92.17491298 170.1832503 89.52075195 180.88330078 C87.73298723 188.08623569 85.90314758 195.27065656 83.9609375 202.43359375 C83.22290632 205.17270946 82.50013871 207.91402654 81.7890625 210.66015625 C81.57523926 211.48314209 81.36141602 212.30612793 81.14111328 213.15405273 C80.73361721 214.72460403 80.32811446 216.2956749 79.92529297 217.86743164 C78.15645108 224.66284395 76.07255179 231.2642067 74 238 C50.57 238 27.14 238 3 238 C3.66833877 232.65328988 4.33536858 228.26046104 5.75 223.1875 C6.11117443 221.87383455 6.4718262 220.56002533 6.83203125 219.24609375 C7.0223291 218.55757324 7.21262695 217.86905273 7.40869141 217.15966797 C8.44785894 213.36426087 9.44031696 209.55661073 10.4375 205.75 C10.8644687 204.12496988 11.29155293 202.4999701 11.71875 200.875 C11.93144531 200.06546875 12.14414063 199.2559375 12.36328125 198.421875 C12.98089116 196.07268394 13.59959751 193.72378492 14.21875 191.375 C16.49108596 182.75308726 18.75136276 174.12812559 21 165.5 C23.44984295 156.09983876 25.91509748 146.70384452 28.39111328 137.31054688 C29.42849577 133.37398398 30.46416716 129.43697088 31.5 125.5 C32.73746757 120.79666023 33.9752217 116.09339745 35.21484375 111.390625 C35.62241318 109.84375457 36.02996516 108.29687954 36.4375 106.75 C36.64044678 105.98018799 36.84339355 105.21037598 37.05249023 104.41723633 C38.21334334 100.00834426 39.36502208 95.59720426 40.5078125 91.18359375 C40.7663501 90.18682617 41.0248877 89.19005859 41.29125977 88.16308594 C41.78540939 86.25656629 42.2782099 84.34969615 42.76928711 82.44238281 C44.72084211 74.91795624 46.86227847 67.48202535 49 60 C27.88 60 6.76 60 -15 60 C-12.75559701 46.53358209 -12.75559701 46.53358209 -11.3125 41.375 C-10.97089844 40.13492188 -10.62929687 38.89484375 -10.27734375 37.6171875 C-10.08124512 36.91174805 -9.88514648 36.20630859 -9.68310547 35.47949219 C-8.21783954 30.16096438 -6.8035541 24.82848086 -5.375 19.5 C-4.77940297 17.28104664 -4.18308242 15.06228731 -3.5859375 12.84375 C-3.3286084 11.88662109 -3.0712793 10.92949219 -2.80615234 9.94335938 C-1.89640904 6.62177691 -0.94611591 3.31140569 0 0 Z " fill="#FEF100" transform="translate(1190,849)"/>
<path d="M0 0 C23.76 0 47.52 0 72 0 C70.68 5.28 69.36 10.56 68 16 C67.32503057 18.85221459 66.65627933 21.70592701 66 24.5625 C64.32929482 31.7452947 62.47390228 38.86775634 60.54296875 45.98535156 C59.53221929 49.73566837 58.5488581 53.49320905 57.5625 57.25 C57.13672833 58.86979418 56.71094701 60.48958583 56.28515625 62.109375 C56.07262207 62.91826172 55.86008789 63.72714844 55.64111328 64.56054688 C54.59510519 68.54063556 53.54748409 72.52029956 52.5 76.5 C52.08332532 78.08333122 51.66665866 79.66666456 51.25 81.25 C37.5 133.5 37.5 133.5 23.75 185.75 C23.54375 186.53383057 23.3375 187.31766113 23.125 188.12524414 C22.70849358 189.70780585 22.29182703 191.29032543 21.875 192.87280273 C20.82956136 196.84261096 19.78695735 200.81312354 18.75 204.78515625 C16.62639468 212.91018284 14.4720639 221.02628971 12.25 229.125 C12.03923828 229.90174072 11.82847656 230.67848145 11.61132812 231.47875977 C10.11670404 236.88329596 10.11670404 236.88329596 9 238 C6.79132169 238.09432985 4.57958479 238.11742431 2.36889648 238.11352539 C1.67624695 238.11367142 0.98359741 238.11381744 0.2699585 238.1139679 C-2.02969446 238.11326874 -4.32926737 238.10547628 -6.62890625 238.09765625 C-8.21931412 238.09579208 -9.80972257 238.09436817 -11.40013123 238.09336853 C-15.5939593 238.08954329 -19.78775295 238.07971295 -23.98156738 238.06866455 C-28.25788914 238.05845057 -32.53421644 238.05387094 -36.81054688 238.04882812 C-45.20704708 238.03809069 -53.60351926 238.02101419 -62 238 C-59.94981632 227.50549068 -59.94981632 227.50549068 -58.66796875 222.66015625 C-58.42941162 221.75233398 -58.19085449 220.84451172 -57.94506836 219.90917969 C-57.6950708 218.96977539 -57.44507324 218.03037109 -57.1875 217.0625 C-56.92396729 216.06250977 -56.66043457 215.06251953 -56.38891602 214.03222656 C-55.85100627 211.99202447 -55.31187426 209.95214423 -54.77148438 207.91259766 C-53.8589837 204.46761885 -52.95330968 201.02087355 -52.0480957 197.57397461 C-51.23669609 194.48572473 -50.42275893 191.39814588 -49.60888672 188.31054688 C-48.57150423 184.37398397 -47.53585261 180.43696569 -46.5 176.5 C-46.08334134 174.91666456 -45.66667468 173.33333122 -45.25 171.75 C-44.940625 170.574375 -44.940625 170.574375 -44.625 169.375 C-41.1875 156.3125 -41.1875 156.3125 -37.75 143.25 C-37.54391113 142.4667334 -37.33782227 141.6834668 -37.12548828 140.87646484 C-36.70745021 139.28818124 -36.28915465 137.69996539 -35.87060547 136.11181641 C-34.84783199 132.2297275 -33.82909666 128.34668682 -32.8203125 124.4609375 C-30.81198414 116.74594702 -28.74240726 109.05485455 -26.5612793 101.38671875 C-23.07564964 89.12322375 -19.88528449 76.8057706 -16.84057617 64.42700195 C-14.66342936 55.58750496 -12.36576326 46.79039043 -10 38 C-9.18281342 34.91789331 -8.37214645 31.83409496 -7.5625 28.75 C-7.18881826 27.32812075 -6.81511926 25.90624603 -6.44140625 24.484375 C-5.96574219 22.67453125 -5.49007812 20.8646875 -5 19 C-3.35 12.73 -1.7 6.46 0 0 Z " fill="#FEF000" transform="translate(598,849)"/>
<path d="M0 0 C10.061991 7.05184915 15.60072394 18.52963823 18.15625 30.3125 C21.13579234 53.95391541 16.63442758 78.18762326 2.25 97.515625 C1.69699219 98.21300781 1.14398437 98.91039062 0.57421875 99.62890625 C-0.039375 100.45003906 -0.65296875 101.27117187 -1.28515625 102.1171875 C-11.02479742 113.54527012 -26.70886821 120.57406781 -41.42578125 122.62890625 C-44.1100651 122.70905213 -46.76627309 122.74599095 -49.44921875 122.7265625 C-50.19539459 122.72514755 -50.94157043 122.7237326 -51.71035767 122.72227478 C-54.07387443 122.71671499 -56.43729352 122.70417014 -58.80078125 122.69140625 C-60.41145696 122.68638605 -62.02213416 122.68182405 -63.6328125 122.67773438 C-67.56383924 122.66675876 -71.49479373 122.64952221 -75.42578125 122.62890625 C-75.52600586 123.4696167 -75.62623047 124.31032715 -75.72949219 125.17651367 C-76.11520101 128.36298455 -76.51170883 131.54789301 -76.91503906 134.73217773 C-77.08589078 136.09787162 -77.25270745 137.46407775 -77.41503906 138.83081055 C-79.6722902 157.77360636 -79.6722902 157.77360636 -83.42578125 165.62890625 C-88.00095312 169.06154414 -94.48552098 167.99775906 -99.92578125 168.00390625 C-101.06660156 168.02839844 -102.20742188 168.05289063 -103.3828125 168.078125 C-104.47980469 168.08199219 -105.57679688 168.08585938 -106.70703125 168.08984375 C-107.70798828 168.09806152 -108.70894531 168.1062793 -109.74023438 168.11474609 C-113.15879907 167.49629666 -114.33732238 166.35919016 -116.42578125 163.62890625 C-116.70797167 160.9718774 -116.71794837 158.87897163 -116.48828125 156.25390625 C-116.43397949 155.49005615 -116.37967773 154.72620605 -116.32373047 153.93920898 C-115.33021857 142.23545772 -113.06259796 130.65763647 -111.02929688 119.09960938 C-110.2388594 114.55395438 -109.50873816 110.00050961 -108.80078125 105.44140625 C-107.88206667 99.54054071 -106.95598027 93.64088283 -106.0234375 87.7421875 C-105.75844813 86.06502522 -105.49347459 84.38786044 -105.22851562 82.71069336 C-105.09493652 81.86521942 -104.96135742 81.01974548 -104.82373047 80.14865112 C-104.20208406 76.21249478 -103.58153584 72.27616544 -102.9609375 68.33984375 C-101.45174585 58.76913149 -99.93964726 49.19888019 -98.42578125 39.62890625 C-98.31860779 38.95108093 -98.21143433 38.27325562 -98.10101318 37.57489014 C-97.46136398 33.53006082 -96.81933485 29.48561606 -96.17578125 25.44140625 C-96.0250415 24.48862793 -95.87430176 23.53584961 -95.71899414 22.55419922 C-95.43654114 20.78445712 -95.14710143 19.01581138 -94.84960938 17.24853516 C-94.55078295 15.4015262 -94.28709068 13.5486648 -94.04882812 11.69287109 C-93.41893804 7.30195124 -92.82114315 4.24365972 -90.3984375 0.4765625 C-86.18431994 -2.14272476 -82.73046014 -2.07074959 -77.86328125 -1.93359375 C-77.01314453 -1.94455078 -76.16300781 -1.95550781 -75.28710938 -1.96679688 C-71.51326139 -1.92239866 -69.10607858 -1.7891824 -65.8515625 0.2109375 C-63.87915793 3.5559195 -64.0330662 6.02559989 -64.17578125 9.87890625 C-64.211875 11.1421875 -64.24796875 12.40546875 -64.28515625 13.70703125 C-64.3315625 14.67125 -64.37796875 15.63546875 -64.42578125 16.62890625 C-63.78253906 16.07203125 -63.13929688 15.51515625 -62.4765625 14.94140625 C-45.11299382 0.27773627 -22.38589382 -12.65289651 0 0 Z " fill="#FEFDFD" transform="translate(667.42578125,628.37109375)"/>
<path d="M0 0 C0.69996094 0.10183594 1.39992188 0.20367188 2.12109375 0.30859375 C13.64329866 2.02106824 13.64329866 2.02106824 17.91796875 5.10546875 C21.2034483 9.67308667 20.22770274 14.39728682 19.46899414 19.73754883 C19.22270264 21.02685303 18.97641113 22.31615723 18.72265625 23.64453125 C18.44416382 25.14249767 18.16705002 26.64072086 17.89111328 28.13916016 C17.7449054 28.92711975 17.59869751 29.71507935 17.44805908 30.5269165 C16.66168958 34.86732053 15.95509432 39.22061819 15.24609375 43.57421875 C15.09806305 44.48124542 14.95003235 45.38827209 14.79751587 46.32278442 C14.4954311 48.17677485 14.19386955 50.0308506 13.89282227 51.88500977 C13.43626042 54.69512954 12.97701933 57.50480285 12.51757812 60.31445312 C10.90658117 70.19692666 9.37100765 80.0810642 8 90 C7.36911464 94.52311631 6.72169663 99.0434291 6.0625 103.5625 C5.90587891 104.69751953 5.74925781 105.83253906 5.58789062 107.00195312 C5.34522461 108.64260742 5.34522461 108.64260742 5.09765625 110.31640625 C4.95851807 111.29037354 4.81937988 112.26434082 4.67602539 113.26782227 C3.76987978 116.93003806 2.35926874 119.94207857 -0.65625 122.2890625 C-4.23904137 123.37584255 -7.79079451 123.36870254 -11.5 123.375 C-12.25925781 123.39949219 -13.01851562 123.42398438 -13.80078125 123.44921875 C-17.4004019 123.46813094 -19.54032918 123.3418438 -22.46875 121.1640625 C-24.94051781 117.67079881 -25.21925378 114.48048984 -25.5625 110.3125 C-25.64628906 109.31863281 -25.73007812 108.32476563 -25.81640625 107.30078125 C-25.87699219 106.54152344 -25.93757812 105.78226563 -26 105 C-26.680625 105.6290625 -27.36125 106.258125 -28.0625 106.90625 C-33.80423965 111.97608394 -39.43146389 116.09488485 -46.3125 119.5 C-46.96927734 119.82548828 -47.62605469 120.15097656 -48.30273438 120.48632812 C-58.96132446 125.55211615 -71.07578893 127.28767015 -82.55859375 123.97265625 C-93.19976632 119.07907243 -99.73039814 110.71150665 -104 100 C-106.55534475 91.91634939 -107.52056219 84.26690152 -107.4375 75.8125 C-107.42722778 74.18501831 -107.42722778 74.18501831 -107.41674805 72.5246582 C-107.00095252 51.48727347 -99.84388512 32.06507233 -85.1875 16.6875 C-62.077396 -5.19706818 -29.71482235 -4.69181406 0 0 Z " fill="#FEFDFD" transform="translate(922,626)"/>
<path d="M0 0 C0.79473156 0.00291284 1.58946312 0.00582568 2.40827745 0.00882679 C3.24626011 0.00797237 4.08424277 0.00711794 4.94761884 0.00623763 C7.77753875 0.00458025 10.60740041 0.01010838 13.43731493 0.01555592 C15.45714117 0.01583776 17.47696751 0.01568011 19.49679369 0.01511341 C24.99863402 0.01482532 30.50045275 0.0207239 36.00228804 0.02768737 C41.74519121 0.03391901 47.48809482 0.03452456 53.23100084 0.03571278 C64.11429909 0.03882666 74.99758735 0.0470408 85.88088119 0.05706227 C98.26760812 0.06822165 110.65433552 0.07373341 123.04106623 0.0787577 C148.52919309 0.08922337 174.01731107 0.1068239 199.50543016 0.12908131 C199.18877325 1.55833264 198.87185288 2.98752561 198.55482286 4.41669422 C198.29013814 5.61052644 198.29013814 5.61052644 198.02010626 6.82847649 C194.57584608 22.2243374 190.81964173 37.5628459 186.45074266 52.72283131 C185.68161895 55.49421921 185.06948629 58.30880067 184.50543016 61.12908131 C116.52543016 61.12908131 48.54543016 61.12908131 -21.49456984 61.12908131 C-18.91229897 50.15443014 -16.27841277 39.22140165 -13.43206984 28.31658131 C-12.92035484 26.34985183 -12.40921145 24.38297542 -11.89853102 22.41597706 C-11.40776908 20.52634804 -10.91578288 18.6370371 -10.42376906 16.74773365 C-9.27685536 12.28121901 -8.18481779 7.80218482 -7.11004835 3.31780201 C-5.94799596 -0.81460565 -3.95712302 0.0110026 0 0 Z " fill="#FDEE01" transform="translate(1350.494569838047,936.8709186911583)"/>
<path d="M0 0 C1.70542969 -0.04930664 1.70542969 -0.04930664 3.4453125 -0.09960938 C4.54359375 -0.10669922 5.641875 -0.11378906 6.7734375 -0.12109375 C7.77552246 -0.13454834 8.77760742 -0.14800293 9.81005859 -0.16186523 C13.78114518 0.68366968 15.24003826 2.19137783 17.625 5.4375 C18.00878906 8.72045898 18.00878906 8.72045898 17.640625 12.49609375 C17.57675598 13.18924179 17.51288696 13.88238983 17.44708252 14.59654236 C16.53726535 23.62488654 14.93892045 32.56724894 13.375 41.5 C13.05951355 43.33886688 12.7449909 45.17789936 12.43139648 47.01708984 C11.95695542 49.79911244 11.48198388 52.58102919 11.00389099 55.36242676 C9.50511564 64.08628073 8.0856793 72.82204449 6.6875 81.5625 C6.47435132 82.89071721 6.26113747 84.21892396 6.04785156 85.54711914 C5.5724983 88.51041002 5.09813414 91.47385415 4.625 94.4375 C6.70698875 93.8382567 8.78582529 93.2280547 10.86328125 92.61328125 C12.60025269 92.10535034 12.60025269 92.10535034 14.37231445 91.5871582 C27.27208553 87.02774801 34.90202659 70.62073524 40.453125 59.03515625 C41.44832412 56.82913153 42.39612306 54.61451304 43.3125 52.375 C44.58014661 49.53788616 45.18961732 48.26387134 47.625 46.4375 C52.05163796 45.7590276 56.52721121 45.92820106 61 45.9375 C62.23234375 45.90914062 63.4646875 45.88078125 64.734375 45.8515625 C73.68407374 45.83214884 73.68407374 45.83214884 77.9765625 48.59375 C79.96648891 52.02660882 80.24000589 53.5247066 79.625 57.4375 C78.74147698 60.05113723 77.82260126 62.44064379 76.6875 64.9375 C76.21715332 65.98526611 76.21715332 65.98526611 75.73730469 67.05419922 C69.52674549 80.46184338 60.41825521 94.6479961 49.23046875 104.40625 C46.24350733 107.1773157 46.24350733 107.1773157 46.78491211 110.63916016 C47.67654813 114.67056768 48.94171214 118.41664773 50.4609375 122.2421875 C50.74095612 122.96560333 51.02097473 123.68901917 51.30947876 124.43435669 C52.19937332 126.72984606 53.09917111 129.02128231 54 131.3125 C55.17764698 134.32950113 56.3514832 137.34797083 57.5234375 140.3671875 C57.80209152 141.08467667 58.08074554 141.80216583 58.36784363 142.54139709 C64.46105334 158.30174379 64.46105334 158.30174379 63.625 163.4375 C61.7579009 165.74025556 60.26852259 167.11573871 57.625 168.4375 C53.88090102 168.70644921 50.12766943 168.66912708 46.375 168.6875 C45.33730469 168.708125 44.29960938 168.72875 43.23046875 168.75 C33.09163819 168.80179479 33.09163819 168.80179479 28.625 165.4375 C27.078125 162.9609375 27.078125 162.9609375 25.875 159.8125 C25.14990234 157.97365234 25.14990234 157.97365234 24.41015625 156.09765625 C24.1383252 155.38367676 23.86649414 154.66969727 23.58642578 153.93408203 C22.44205879 150.96244748 21.25177284 148.01096381 20.05859375 145.05859375 C18.26338539 140.61151845 16.47370163 136.16242204 14.69921875 131.70703125 C14.32369873 130.76448486 13.94817871 129.82193848 13.5612793 128.85083008 C12.86812647 127.0641767 12.23101907 125.25555721 11.625 123.4375 C7.995 123.4375 4.365 123.4375 0.625 123.4375 C-0.61858528 128.58949618 -1.59085347 133.68585382 -2.3125 138.9375 C-2.6661555 141.43757236 -3.02036408 143.93756652 -3.375 146.4375 C-3.47393555 147.16727051 -3.57287109 147.89704102 -3.67480469 148.64892578 C-3.9914678 150.93620781 -4.33692576 153.21769515 -4.6875 155.5 C-4.8275647 156.57121094 -4.8275647 156.57121094 -4.97045898 157.6640625 C-5.51386612 161.05061751 -6.40811359 163.49034232 -8.23046875 166.3984375 C-13.09423508 169.55233318 -17.70517121 169.12516925 -23.375 169 C-24.45523438 169.01095703 -25.53546875 169.02191406 -26.6484375 169.03320312 C-34.50229345 168.96048224 -34.50229345 168.96048224 -38.5625 166.52734375 C-40.71307253 164.04769654 -41.38963355 163.17308034 -41.32408142 159.87799072 C-40.66486243 151.78848739 -39.64562787 143.81239357 -38.37890625 135.796875 C-38.08849709 133.92542816 -38.08849709 133.92542816 -37.79222107 132.01617432 C-37.28211465 128.73781134 -36.76743026 125.46020958 -36.25085449 122.18286133 C-35.83254199 119.51915422 -35.42013541 116.85454699 -35.00781345 114.18990707 C-34.50967382 110.9750685 -34.00667645 107.76099215 -33.50390625 104.546875 C-33.32050186 103.36542908 -33.13709747 102.18398315 -32.94813538 100.96673584 C-32.07549633 95.44604444 -31.09218268 90.00233382 -29.83042908 84.55822754 C-29.01362114 80.75472183 -28.51968735 76.90804467 -28 73.0546875 C-27.74161737 71.19748917 -27.48246458 69.34039786 -27.22265625 67.48339844 C-27.08617676 66.50415405 -26.94969727 65.52490967 -26.80908203 64.51599121 C-25.56258239 55.67586901 -24.23069745 46.84808316 -22.89550781 38.02099609 C-22.54481339 35.69081917 -22.19788416 33.36007285 -21.85449219 31.02880859 C-21.34950259 27.60372379 -20.8322965 24.18067747 -20.3125 20.7578125 C-20.16240479 19.72238312 -20.01230957 18.68695374 -19.85766602 17.62014771 C-19.00828425 12.12119779 -18.01907998 7.36218139 -15.375 2.4375 C-10.62534302 -0.72893799 -5.5864351 0.02830964 0 0 Z " fill="#FEFCFD" transform="translate(734.375,580.5625)"/>
<path d="M0 0 C0.88798279 -0.0049649 1.77596558 -0.00992981 2.69085693 -0.01504517 C5.63798795 -0.02968807 8.5850651 -0.03647303 11.53222656 -0.04199219 C13.57765708 -0.04774277 15.62308758 -0.05350051 17.66851807 -0.05926514 C21.96260836 -0.06978179 26.25667989 -0.07561981 30.55078125 -0.07910156 C36.04988155 -0.08458158 41.54873366 -0.10859638 47.0477562 -0.13707352 C51.27541829 -0.15571125 55.50302081 -0.16090615 59.73072052 -0.16243744 C61.7576864 -0.16546294 63.78465126 -0.17348798 65.81157684 -0.18662262 C68.65061714 -0.20370342 71.48905397 -0.20179761 74.328125 -0.1953125 C75.1636792 -0.20452728 75.9992334 -0.21374207 76.86010742 -0.22323608 C81.77556447 -0.1881157 85.16627627 0.42581209 89.42285156 3.16113281 C92.70776168 9.73095305 90.48232182 19.4066823 88.46972656 26.13769531 C87.13002138 28.72712548 85.92601155 29.65657807 83.42285156 31.16113281 C80.512146 31.55986023 80.512146 31.55986023 77.09375 31.59350586 C75.812724 31.61330002 74.531698 31.63309418 73.21185303 31.65348816 C71.8186457 31.66025744 70.42543677 31.66670436 69.03222656 31.67285156 C67.60303199 31.68970149 66.17385221 31.70785216 64.74468994 31.72724915 C60.98991518 31.77472177 57.2352004 31.80454851 53.48022461 31.83068848 C49.64587561 31.86050804 45.8117332 31.90703351 41.97753906 31.95214844 C34.45941246 32.03815026 26.9412708 32.10550908 19.42285156 32.16113281 C19.33786407 32.79419342 19.25287659 33.42725403 19.16531372 34.07949829 C18.77594412 36.97408031 18.38457073 39.86838807 17.99316406 42.76269531 C17.85950439 43.75857666 17.72584473 44.75445801 17.58813477 45.78051758 C16.81755408 51.46679033 15.98596392 57.11971533 14.85253906 62.74707031 C14.46318646 64.93452401 14.16699347 67.10739636 13.89599609 69.31201172 C13.7398584 70.58222168 13.5837207 71.85243164 13.42285156 73.16113281 C14.03815231 73.15002975 14.65345306 73.1389267 15.28739929 73.12748718 C21.69495113 73.01681784 28.10223125 72.94143402 34.51049805 72.88647461 C36.90156076 72.86133967 39.2925467 72.82722648 41.68334961 72.78393555 C45.12144921 72.7232422 48.55853252 72.69491209 51.99707031 72.67285156 C53.06495285 72.64704514 54.13283539 72.62123871 55.233078 72.59465027 C62.66529575 72.59184531 62.66529575 72.59184531 66.59985352 75.54858398 C69.55632291 79.78551702 69.0684259 83.18600012 68.42285156 88.16113281 C66.66082302 97.78936019 66.66082302 97.78936019 63.96362305 100.77807617 C60.01655646 102.92664273 56.14993154 102.62193494 51.72363281 102.63769531 C50.77401169 102.65327484 49.82439056 102.66885437 48.84599304 102.68490601 C45.80912152 102.73239922 42.77247666 102.76014363 39.73535156 102.78613281 C36.71624492 102.82281287 33.69726099 102.863689 30.67826843 102.90878296 C28.80172386 102.93565311 26.92509179 102.95715394 25.04841614 102.97232056 C19.43888235 103.03869247 13.98957648 103.45766304 8.42285156 104.16113281 C6.80548848 113.07786351 5.26283429 122.00044202 3.88769531 130.95800781 C3.76182037 131.77491089 3.63594543 132.59181396 3.5062561 133.43347168 C2.99121097 136.78256038 2.47792033 140.13187902 1.97241211 143.48242188 C1.59536849 145.97513872 1.21086877 148.46661366 0.82519531 150.95800781 C0.6579319 152.0861087 0.6579319 152.0861087 0.48728943 153.23699951 C-0.24835398 157.94299466 -1.0820291 161.99559355 -3.80981445 165.9465332 C-8.02663732 168.84454312 -14.59482536 167.62562436 -19.51464844 167.59863281 C-20.80306641 167.61861328 -22.09148437 167.63859375 -23.41894531 167.65917969 C-24.65580078 167.65853516 -25.89265625 167.65789062 -27.16699219 167.65722656 C-28.29999756 167.65907959 -29.43300293 167.66093262 -30.6003418 167.6628418 C-34.20299766 167.05565261 -35.37408333 166.02003701 -37.57714844 163.16113281 C-39.48186098 154.14749315 -36.54443396 143.61078903 -35.00048828 134.64892578 C-34.46268199 131.48846089 -33.96212866 128.32285153 -33.46731567 125.15541077 C-33.10263521 122.82406573 -32.7355121 120.49312527 -32.3671875 118.16235352 C-31.87614615 115.05409936 -31.38538013 111.94580247 -30.89526367 108.83740234 C-28.9864755 96.73542451 -27.06525177 84.63544539 -25.13964844 72.53613281 C-24.98685425 71.57579132 -24.83406006 70.61544983 -24.67663574 69.62600708 C-23.23342185 60.55525145 -21.78993835 51.48454153 -20.33886719 42.41503906 C-20.16540771 41.33013184 -19.99194824 40.24522461 -19.81323242 39.12744141 C-19.49580974 37.14956805 -19.17639928 35.1720124 -18.85473633 33.19482422 C-18.12186498 28.6749865 -17.42938304 24.15527039 -16.81152344 19.61816406 C-16.68680664 18.73717041 -16.56208984 17.85617676 -16.43359375 16.94848633 C-16.20582637 15.32712577 -15.99038891 13.70395383 -15.79101562 12.07885742 C-15.11728061 7.36538584 -13.94013343 4.54998692 -10.57714844 1.16113281 C-7.2835565 -0.48566316 -3.62085324 0.00479772 0 0 Z " fill="#FEFDFD" transform="translate(350.5771484375,580.8388671875)"/>
<path d="M0 0 C46.86 0 93.72 0 142 0 C140.23773843 8.81130784 138.51959549 17.29292404 136.0625 25.875 C133.95591466 33.39590218 131.99482907 40.92321899 130.29321289 48.54638672 C129.40181481 52.49622828 128.29054595 56.12836216 127 60 C80.14 60 33.28 60 -15 60 C-14.24732322 55.48393931 -13.36924923 51.16135201 -12.29296875 46.72265625 C-12.04296867 45.69004921 -12.04296867 45.69004921 -11.78791809 44.63658142 C-11.4350922 43.18154047 -11.08120599 41.72675626 -10.72631836 40.2722168 C-10.19683501 38.10078325 -9.67138627 35.92840434 -9.14648438 33.75585938 C-3.52695398 10.58086194 -3.52695398 10.58086194 0 0 Z " fill="#FEF000" transform="translate(1432,849)"/>
<path d="M0 0 C0.85078125 -0.02900391 1.7015625 -0.05800781 2.578125 -0.08789062 C6.65478711 -0.12916524 9.06851867 0.00813014 12.703125 1.99609375 C15.05820117 4.83463068 15.18972786 6.04272791 15 9.6875 C14.95617188 10.73164062 14.91234375 11.77578125 14.8671875 12.8515625 C14.78726562 13.99367188 14.70734375 15.13578125 14.625 16.3125 C14.54507812 17.59898437 14.46515625 18.88546875 14.3828125 20.2109375 C14.15723422 23.58094023 13.9038366 26.9465439 13.625 30.3125 C14.80578125 30.32667969 15.9865625 30.34085938 17.203125 30.35546875 C18.76045542 30.40237629 20.3177459 30.45062365 21.875 30.5 C22.65230469 30.50580078 23.42960937 30.51160156 24.23046875 30.51757812 C28.34367553 30.67577839 30.04214596 30.76759925 33.14453125 33.66796875 C36.42207896 39.52258564 34.25915601 45.60286083 32.76953125 51.76171875 C31.23265482 55.18690752 29.8884139 56.4292651 26.625 58.3125 C23.54125138 58.88705526 20.50628644 58.96272278 17.375 59 C12.08187167 58.64202949 12.08187167 58.64202949 7.625 60.3125 C7.11913679 63.07017822 6.66728809 65.81838842 6.25 68.58984375 C6.12061035 69.43035782 5.9912207 70.27087189 5.85791016 71.13685608 C5.58363564 72.92467554 5.31139981 74.71280874 5.04101562 76.5012207 C4.63135735 79.20799451 4.21467132 81.91361243 3.796875 84.61914062 C3.53082454 86.35931001 3.26518717 88.0995426 3 89.83984375 C2.87705566 90.63817123 2.75411133 91.43649872 2.62744141 92.25901794 C0.05036091 107.32519685 0.05036091 107.32519685 1.625 122.3125 C2.57761719 122.41046875 3.53023437 122.5084375 4.51171875 122.609375 C5.76597656 122.75890625 7.02023437 122.9084375 8.3125 123.0625 C9.55386719 123.20171875 10.79523438 123.3409375 12.07421875 123.484375 C16.03616227 124.40839263 17.91675674 125.28233349 20.625 128.3125 C21.83029131 134.7603871 21.31616285 142.28942125 18.625 148.3125 C13.62168944 153.94122438 6.38348595 155.1943249 -0.828125 155.671875 C-11.40440382 156.10147651 -21.08701343 155.60705243 -29.55078125 148.48046875 C-35.73871175 141.98506344 -37.90817832 134.75441994 -37.7109375 125.97265625 C-37.70162201 125.19849869 -37.69230652 124.42434113 -37.68270874 123.62672424 C-37.50342808 115.69637679 -36.52722112 107.90406747 -35.34863281 100.06811523 C-34.99562686 97.72092229 -34.66043305 95.37168931 -34.328125 93.02148438 C-32.59024376 80.91754683 -32.59024376 80.91754683 -31.21875 75.1328125 C-30.42250636 71.52759826 -30.16544856 68.4279877 -30.25 64.75 C-30.26804687 63.71746094 -30.28609375 62.68492187 -30.3046875 61.62109375 C-30.32789063 60.85925781 -30.35109375 60.09742188 -30.375 59.3125 C-31.468125 59.044375 -32.56125 58.77625 -33.6875 58.5 C-38.45583745 56.9644337 -38.45583745 56.9644337 -40.375 54.3125 C-41.29629547 47.62567803 -41.31067831 38.36837135 -37.1875 32.671875 C-34.63353556 30.75640167 -32.32729367 30.56389589 -29.1875 30.125 C-28.10082031 29.96644531 -27.01414062 29.80789063 -25.89453125 29.64453125 C-25.06308594 29.53496094 -24.23164062 29.42539062 -23.375 29.3125 C-22.41476175 26.45896179 -21.45675987 23.60470445 -20.5 20.75 C-20.09587891 19.55020508 -20.09587891 19.55020508 -19.68359375 18.32617188 C-18.46385035 14.6818166 -17.28056614 11.04809133 -16.26953125 7.33984375 C-15.38588123 4.34932511 -14.8689068 3.1081129 -12.375 1.3125 C-8.23608843 -0.06713719 -4.33606224 0.04882953 0 0 Z " fill="#FEFDFD" transform="translate(1085.375,595.6875)"/>
<path d="M0 0 C1.03769531 -0.03738281 2.07539063 -0.07476563 3.14453125 -0.11328125 C11.77553454 -0.21248818 11.77553454 -0.21248818 15.546875 1.9609375 C17.45101823 4.00421218 17.7387345 5.26741597 18.03149414 8.06323242 C17.86287536 12.22219518 17.35216015 16.258928 16.75 20.375 C16.61092224 21.35249207 16.47184448 22.32998413 16.32855225 23.33709717 C15.12467073 31.67745015 13.78639246 39.99459908 12.4375 48.3125 C12.04171424 50.78701293 11.6465283 53.26162187 11.25195312 55.73632812 C9.40183005 67.30713825 7.50638455 78.86971489 5.56640625 90.42578125 C0.63081108 113.30346801 0.63081108 113.30346801 0.75 136.375 C2.59594388 138.72830857 4.01543012 139.50771506 6.75 140.875 C10.93294849 142.96647425 10.93294849 142.96647425 12.75 145.375 C13.62200489 151.78845534 13.17873175 158.36708461 10.75 164.375 C6.60731773 169.24024313 1.1066217 170.17134133 -5.046875 170.703125 C-14.62804926 171.08029159 -22.72336068 169.89476139 -30.625 164.125 C-36.2326904 158.25027673 -38.3982788 151.66097485 -38.5 143.625 C-38.52578125 142.43390625 -38.5515625 141.2428125 -38.578125 140.015625 C-38.41680064 135.42978184 -37.43343672 131.05517169 -36.48591614 126.57632446 C-34.79463412 118.44633693 -33.7691844 110.22898436 -32.6875 102 C-30.34094796 84.21273568 -30.34094796 84.21273568 -28.69018555 77.38574219 C-27.81033218 73.36662278 -27.42005831 69.26962354 -26.9375 65.1875 C-25.2942806 51.96963545 -23.07908299 38.86020487 -20.81689453 25.73632812 C-20.31667337 22.77033117 -19.84917021 19.80253855 -19.40234375 16.828125 C-19.27859375 16.03712402 -19.15484375 15.24612305 -19.02734375 14.43115234 C-18.7158735 12.43210407 -18.41780876 10.43097906 -18.12109375 8.4296875 C-17.13762736 4.98093989 -16.01949865 3.5969778 -13.25 1.375 C-9.28394419 -0.60802791 -4.36123757 0.05871923 0 0 Z " fill="#FEFCFD" transform="translate(476.25,580.625)"/>
<path d="M0 0 C9.57 0 19.14 0 29 0 C30.88639445 5.03038519 32.50479368 9.52404394 33.7890625 14.65234375 C34.09070312 15.84021484 34.39234375 17.02808594 34.703125 18.25195312 C35.00734375 19.46818359 35.3115625 20.68441406 35.625 21.9375 C36.23907002 24.38489889 36.85609032 26.83156011 37.4765625 29.27734375 C37.74549316 30.35234131 38.01442383 31.42733887 38.29150391 32.53491211 C38.76283353 34.92425713 38.76283353 34.92425713 40 36 C40.42667969 35.16082031 40.85335938 34.32164063 41.29296875 33.45703125 C42.63022853 30.85070163 44.03482297 28.29081852 45.46484375 25.734375 C47.34737655 22.33923624 48.91804511 18.89765761 50.44140625 15.328125 C55.80956943 3.81827133 55.80956943 3.81827133 61 0 C70.08020611 -2.53345343 79.78471713 -1.29906652 89 0 C89.31738393 8.62784635 88.32476738 17.05977045 87.28515625 25.60546875 C87.10770427 27.09892614 86.93074695 28.59244238 86.7542572 30.08601379 C86.2913122 33.99159267 85.82126539 37.89628503 85.34979248 41.80084229 C84.96688757 44.98179207 84.5889786 48.16332591 84.21134281 51.3449049 C83.4287253 57.93783084 82.64284394 64.53037444 81.84790039 71.12182617 C81.70800186 72.28413254 81.56810333 73.4464389 81.42396545 74.64396667 C80.98724307 78.10098154 80.49278146 81.5505298 80 85 C72.08 85 64.16 85 56 85 C56 72.61126961 56 72.61126961 56.5859375 67.58984375 C56.77542969 65.95112305 56.77542969 65.95112305 56.96875 64.27929688 C57.1028125 63.17650391 57.236875 62.07371094 57.375 60.9375 C57.50132813 59.83083984 57.62765625 58.72417969 57.7578125 57.58398438 C58.53796368 50.9800046 59.57401525 44.49564425 61 38 C60.30777344 39.47146484 60.30777344 39.47146484 59.6015625 40.97265625 C57.87036397 44.59502311 56.04895394 48.16401661 54.18408203 51.71923828 C53.40846628 53.21321815 52.65082927 54.71670236 51.91357422 56.22998047 C47.07847068 66.01232502 47.07847068 66.01232502 43 69 C37.41737577 70.6961345 31.66689389 69.88750658 26 69 C23.89708089 63.52994356 21.99399254 58.05094187 20.3125 52.4375 C20.08755859 51.72142578 19.86261719 51.00535156 19.63085938 50.26757812 C18.25664073 45.67710307 17.76709005 41.79039109 18 37 C17.34 37 16.68 37 16 37 C16.05929687 38.31484375 16.11859375 39.6296875 16.1796875 40.984375 C16.17727595 47.82834722 14.85656907 54.40970463 13.54638672 61.09667969 C13.12344999 63.25792066 12.7149707 65.42152789 12.30859375 67.5859375 C11.16896802 73.55360989 9.92862533 79.21412401 8 85 C0.08 85 -7.84 85 -16 85 C-15.38811547 78.88115474 -14.77727954 73.23973479 -13.6171875 67.2734375 C-13.48209778 66.57471024 -13.34700806 65.87598297 -13.20782471 65.15608215 C-12.76861799 62.89469746 -12.32218112 60.63482017 -11.875 58.375 C-11.72270935 57.59685944 -11.5704187 56.81871887 -11.41351318 56.01699829 C-8.87080512 43.02547862 -6.1269123 30.08271439 -3.22216797 17.16748047 C-2.94518066 15.9301416 -2.66819336 14.69280273 -2.3828125 13.41796875 C-2.13934082 12.34313232 -1.89586914 11.2682959 -1.64501953 10.16088867 C-0.95900515 6.79910663 -0.4852256 3.39657921 0 0 Z " fill="#FEFCFD" transform="translate(1199,1184)"/>
<path d="M0 0 C31.02 0 62.04 0 94 0 C92.87349546 9.01203635 92.87349546 9.01203635 91.984375 12.7421875 C91.78763184 13.57169922 91.59088867 14.40121094 91.38818359 15.25585938 C91.17758301 16.12017578 90.96698242 16.98449219 90.75 17.875 C90.53037598 18.78830078 90.31075195 19.70160156 90.08447266 20.64257812 C88.44576207 27.37470445 86.64260265 34.05112677 84.74414062 40.71411133 C83.15081205 46.3359396 81.80517478 51.97706395 80.578125 57.69140625 C80 60 80 60 79 61 C76.04753646 61.09526806 73.11851579 61.12552452 70.16577148 61.11352539 C69.23903625 61.11367142 68.31230103 61.11381744 67.35748291 61.1139679 C64.27866313 61.11326838 61.19990303 61.10547421 58.12109375 61.09765625 C55.99259982 61.09579221 53.86410547 61.09436824 51.73561096 61.09336853 C46.1213768 61.08954228 40.50716832 61.07971108 34.89294434 61.06866455 C29.16886747 61.05845273 23.44478647 61.0538714 17.72070312 61.04882812 C6.48045744 61.03808891 -4.75976915 61.0210112 -16 61 C-15.36624952 58.29955601 -14.73207297 55.59921325 -14.09765625 52.89892578 C-13.91996704 52.14158646 -13.74227783 51.38424713 -13.5592041 50.60395813 C-12.08895117 44.34842015 -10.56593294 38.10730656 -9 31.875 C-8.74508789 30.85946045 -8.49017578 29.8439209 -8.22753906 28.79760742 C-2.63233521 6.58083802 -2.63233521 6.58083802 0 0 Z " fill="#FEEE01" transform="translate(1431,1026)"/>
<path d="M0 0 C2.0625 1.5 2.0625 1.5 3 4 C3.89732205 13.12277416 2.54134267 25.493255 -3 33 C-6.09235512 34.64084149 -8.91870442 35.71632109 -12.29296875 36.6015625 C-22.47027703 39.2874658 -30.08038336 44.76080922 -37.5625 52 C-38.07538574 52.485896 -38.58827148 52.97179199 -39.11669922 53.47241211 C-44.47501248 58.88757511 -45.20842949 65.38541494 -46.1484375 72.671875 C-46.34870487 74.14773949 -46.54923533 75.62356831 -46.75 77.09936523 C-46.85183594 77.86014374 -46.95367188 78.62092224 -47.05859375 79.40475464 C-49.98820059 101.11939163 -49.98820059 101.11939163 -52 111.4375 C-52.12938965 112.17387695 -52.2587793 112.91025391 -52.39208984 113.66894531 C-53.04168826 116.7818873 -53.9325483 118.91231278 -55.875 121.4375 C-60.79614036 123.89807018 -65.5762405 123.61751427 -71 123.5625 C-72.62035156 123.59827148 -72.62035156 123.59827148 -74.2734375 123.63476562 C-78.89816758 123.62620131 -82.12722787 123.46261119 -86.25 121.27734375 C-90.68596739 112.96980661 -87.69038966 101.2883895 -86.13671875 92.3671875 C-85.94406937 91.20986115 -85.75141998 90.05253479 -85.55293274 88.86013794 C-84.94097032 85.19668879 -84.31468331 81.53587071 -83.6875 77.875 C-83.27830893 75.44547869 -82.87009869 73.01579197 -82.46289062 70.5859375 C-81.86556798 67.02453469 -81.26740061 63.46329304 -80.66539001 59.90267944 C-78.63696914 47.90520239 -76.68687145 35.89828066 -74.97265625 23.8515625 C-74.81990234 22.80742188 -74.66714844 21.76328125 -74.50976562 20.6875 C-74.2038453 18.59281414 -73.91014153 16.49631749 -73.62695312 14.3984375 C-72.9972433 10.20388502 -72.3118785 6.65930791 -70.4921875 2.8125 C-66.56361235 -0.04464556 -62.79644657 0.27304853 -58.0625 0.375 C-57.16853516 0.35566406 -56.27457031 0.33632813 -55.35351562 0.31640625 C-50.8770839 0.34963885 -48.62459947 0.55767358 -44.89453125 3.19921875 C-42.77984297 6.32546927 -42.42449278 7.71756342 -42.625 11.4375 C-42.66882813 12.39140625 -42.71265625 13.3453125 -42.7578125 14.328125 C-43.02329387 17.256984 -43.37816787 20.1240264 -44 23 C-42.85371665 22.00051588 -41.70801147 21.00036869 -40.5625 20 C-39.82902344 19.36191406 -39.09554687 18.72382812 -38.33984375 18.06640625 C-36.81424671 16.71909267 -35.30534263 15.35256442 -33.81640625 13.96484375 C-24.80156233 5.62490793 -12.95562347 -3.76555723 0 0 Z " fill="#FEFCFC" transform="translate(1035,626)"/>
<path d="M0 0 C8.58 0 17.16 0 26 0 C30.15372018 8.17840467 34.06378179 16.41384494 37.75 24.8125 C38.23082031 25.89208984 38.71164062 26.97167969 39.20703125 28.08398438 C41.51783885 33.3331866 43.63214266 38.42518606 45 44 C45.11069824 43.2251123 45.22139648 42.45022461 45.33544922 41.65185547 C47.9296875 23.4921875 47.9296875 23.4921875 48.46386719 19.77246094 C48.83117748 17.18790784 49.19206548 14.60322701 49.54394531 12.01660156 C49.71764648 10.75557617 49.89134766 9.49455078 50.0703125 8.1953125 C50.22516113 7.05336426 50.38000977 5.91141602 50.53955078 4.73486328 C51 2 51 2 52 0 C59.92 0 67.84 0 76 0 C75.566875 3.073125 75.13375 6.14625 74.6875 9.3125 C74.55819092 10.23587158 74.42888184 11.15924316 74.2956543 12.1105957 C73.09348949 20.57827519 71.74665675 29.02231152 70.40261841 37.46835327 C69.74250203 41.61913581 69.08623731 45.77052709 68.4296875 49.921875 C68.17057543 51.55989623 67.91146085 53.19791707 67.65234375 54.8359375 C67.52456543 55.64385742 67.39678711 56.45177734 67.26513672 57.28417969 C67.00164193 58.9495723 66.73796553 60.61493618 66.47412109 62.28027344 C66.08382239 64.74406377 65.69419229 67.20795905 65.3046875 69.671875 C65.18801727 70.40734558 65.07134705 71.14281616 64.95114136 71.90057373 C64.84077545 72.59950745 64.73040955 73.29844116 64.61669922 74.01855469 C64.52137909 74.62076843 64.42605896 75.22298218 64.32785034 75.84344482 C63.86431418 78.89252296 63.43615922 81.94688546 63 85 C54.09 85 45.18 85 36 85 C33 78.5625 33 78.5625 31.98144531 76.37280273 C30.29406853 72.75041523 28.59047017 69.13687475 26.859375 65.53515625 C23.46814186 58.45813893 20.19885806 51.55857459 18 44 C16.50727582 45.49272418 16.63098528 46.94575809 16.3515625 49.0234375 C16.17620972 50.29537964 16.17620972 50.29537964 15.99731445 51.59301758 C15.87445068 52.51107178 15.75158691 53.42912598 15.625 54.375 C15.36188341 56.28271885 15.09753151 58.19026768 14.83203125 60.09765625 C14.69619629 61.0736377 14.56036133 62.04961914 14.42041016 63.05517578 C13.37406528 70.38445099 12.17183259 77.68999671 11 85 C3.08 85 -4.84 85 -13 85 C-11.62038862 72.23859473 -9.71088291 59.62302662 -7.64013672 46.95751953 C-6.89113334 42.34791508 -6.16620587 37.73455572 -5.44140625 33.12109375 C-5.30703156 32.26622879 -5.17265686 31.41136383 -5.03421021 30.53059387 C-4.49265812 27.083862 -3.95145756 23.63707589 -3.41149902 20.19009399 C-3.03177372 17.7672071 -2.65076085 15.34452559 -2.26953125 12.921875 C-2.09944298 11.83277077 -2.09944298 11.83277077 -1.92591858 10.72166443 C-1.3590602 7.12529987 -0.71444886 3.57224428 0 0 Z " fill="#FEFCFC" transform="translate(839,1184)"/>
<path d="M0 0 C8.91 0 17.82 0 27 0 C29.24642325 4.99688451 31.48986676 9.99490182 33.72607422 14.99633789 C34.48675306 16.69533816 35.24910002 18.39359265 36.01318359 20.09106445 C37.11481188 22.53920711 38.2102989 24.99002021 39.3046875 27.44140625 C39.6443454 28.19273331 39.9840033 28.94406036 40.33395386 29.71815491 C42.27766498 34.09035863 43.79834053 38.36693514 45 43 C45.33 43 45.66 43 46 43 C46.09796875 41.82308594 46.1959375 40.64617187 46.296875 39.43359375 C47.47935857 26.1231436 49.59502625 13.14718982 52 0 C59.92 0 67.84 0 76 0 C74.0197896 14.87277292 71.83681796 29.68984004 69.4375 44.5 C68.83043098 48.2601604 68.22505281 52.02058886 67.62109375 55.78125 C67.47787689 56.67166992 67.33466003 57.56208984 67.18710327 58.47949219 C66.1903813 64.71229684 65.26823719 70.95093889 64.41430664 77.20507812 C64.02708799 79.8172638 63.51788966 82.41055169 63 85 C54.09 85 45.18 85 36 85 C33.91435734 80.46699807 31.83169851 75.93284471 29.75610352 71.39526367 C29.05073336 69.85543917 28.34373471 68.31635947 27.63500977 66.77807617 C20.38856874 51.04426026 20.38856874 51.04426026 18 43 C17.81824219 44.22332031 17.63648438 45.44664063 17.44921875 46.70703125 C16.11499069 55.66247747 14.76636992 64.61573876 13.375 73.5625 C13.25213623 74.36469971 13.12927246 75.16689941 13.00268555 75.9934082 C12.5158275 79.10010609 11.9964391 82.01068271 11 85 C3.08 85 -4.84 85 -13 85 C-12.399199 78.99199001 -11.85144262 73.96401735 -10.49649048 68.24349976 C-9.63250612 64.33939932 -9.13770746 60.38633443 -8.60546875 56.42578125 C-7.52593023 48.64178623 -6.38581644 40.87027714 -5.17578125 33.10546875 C-4.94639359 31.63329391 -4.94639359 31.63329391 -4.71237183 30.13137817 C-4.24675439 27.14992707 -3.77966989 24.1687082 -3.3125 21.1875 C-2.98880796 19.11525379 -2.66523972 17.04298824 -2.34179688 14.97070312 C-1.56284153 9.98020918 -0.78137833 4.9901175 0 0 Z " fill="#FEFCFC" transform="translate(1344,1184)"/>
<path d="M0 0 C1.084021 0.00523682 2.16804199 0.01047363 3.28491211 0.01586914 C4.45473633 0.0190918 5.62456055 0.02231445 6.82983398 0.02563477 C8.0615332 0.03401367 9.29323242 0.04239258 10.56225586 0.05102539 C12.41560547 0.05779297 12.41560547 0.05779297 14.30639648 0.06469727 C17.37089703 0.07652931 20.43530307 0.09301366 23.49975586 0.11352539 C25.73718408 4.87204822 27.96019337 9.6369623 30.17089844 14.40795898 C30.92263932 16.02528728 31.67808389 17.64090004 32.4375 19.25463867 C36.72916246 28.38114038 40.64366057 37.12086922 42.49975586 47.11352539 C42.59772461 45.89922852 42.69569336 44.68493164 42.79663086 43.43383789 C44.04337613 28.86880103 46.18395764 14.54866764 48.49975586 0.11352539 C56.41975586 0.11352539 64.33975586 0.11352539 72.49975586 0.11352539 C71.87045524 8.99554485 70.73030958 17.67781765 69.28491211 26.46118164 C69.06655938 27.8076741 68.84858534 29.15422802 68.63096619 30.50083923 C68.17731195 33.30228667 67.72075186 36.10323756 67.26171875 38.90380859 C66.67850055 42.46206062 66.10016517 46.02108261 65.52372074 49.58043766 C64.96650852 53.02010579 64.40714461 56.45942286 63.84741211 59.89868164 C63.64213394 61.16043716 63.43685577 62.42219269 63.22535706 63.72218323 C62.93011391 65.52476845 62.93011391 65.52476845 62.62890625 67.36376953 C62.45871475 68.40457169 62.28852325 69.44537384 62.11317444 70.51771545 C61.28200339 75.38997271 60.38392301 80.25060605 59.49975586 85.11352539 C50.91975586 85.11352539 42.33975586 85.11352539 33.49975586 85.11352539 C29.21940828 76.70569979 25.04010193 68.28859027 21.18725586 59.67602539 C20.69999023 58.59635498 20.69999023 58.59635498 20.20288086 57.49487305 C17.97624752 52.46300506 16.15627 47.35953749 14.49975586 42.11352539 C14.46237305 42.78254883 14.42499023 43.45157227 14.38647461 44.14086914 C13.91103556 51.08600813 12.92242238 57.8192004 11.66333008 64.65405273 C10.41460334 71.45233558 9.43707048 78.26391855 8.49975586 85.11352539 C0.57975586 85.11352539 -7.34024414 85.11352539 -15.50024414 85.11352539 C-14.96102181 75.02407639 -13.89211909 65.32452743 -12.12524414 55.36352539 C-11.89730253 54.04352917 -11.67026393 52.72337673 -11.4440918 51.40307617 C-10.99982622 48.81098915 -10.55274734 46.21945463 -10.10375977 43.62817383 C-9.32400878 39.08719683 -8.58792408 34.54044945 -7.87524414 29.98852539 C-7.76083984 29.2632666 -7.64643555 28.53800781 -7.52856445 27.79077148 C-6.89044217 23.71428542 -6.28145911 19.63421611 -5.68774414 15.55102539 C-5.55190918 14.62306152 -5.41607422 13.69509766 -5.27612305 12.73901367 C-5.01407679 10.94107635 -4.75577905 9.14258764 -4.50170898 7.34350586 C-3.45562233 0.15690503 -3.45562233 0.15690503 0 0 Z " fill="#FEFCFC" transform="translate(1082.500244140625,1183.886474609375)"/>
<path d="M0 0 C6.34961125 -0.07664932 12.69910128 -0.12884898 19.04907227 -0.16479492 C21.2050421 -0.17979494 23.36098187 -0.20020161 25.5168457 -0.22631836 C28.63240012 -0.2630907 31.74754788 -0.27981469 34.86328125 -0.29296875 C35.81270096 -0.30845261 36.76212067 -0.32393646 37.74031067 -0.33988953 C45.9166465 -0.34190306 55.41968795 0.48043173 61.5625 6.4375 C62.49255859 7.30181641 62.49255859 7.30181641 63.44140625 8.18359375 C68.96212509 14.6175142 67.75283756 23.57792421 67.28125 31.56396484 C66.29246849 40.12825466 61.39874712 46.45404605 54.9296875 51.79296875 C52.92905892 53.04437407 51.28240525 53.48439819 49 54 C49.30292969 54.83249268 49.60585938 55.66498535 49.91796875 56.52270508 C51.03995954 59.61314241 52.15765021 62.70506471 53.27246094 65.7980957 C53.75577135 67.13628168 54.24078598 68.47385343 54.72753906 69.81079102 C55.42702345 71.73294556 56.12034277 73.65722804 56.8125 75.58203125 C57.44091797 77.31803589 57.44091797 77.31803589 58.08203125 79.08911133 C59 82 59 82 59 85 C49.76 85 40.52 85 31 85 C30.030625 81.638125 29.06125 78.27625 28.0625 74.8125 C27.75836182 73.76167236 27.45422363 72.71084473 27.14086914 71.62817383 C26.89973389 70.78794678 26.65859863 69.94771973 26.41015625 69.08203125 C26.16402588 68.22843018 25.91789551 67.3748291 25.66430664 66.49536133 C25.0028046 64.01053504 24.47674908 61.52617668 24 59 C21.36 59 18.72 59 16 59 C14.68 67.58 13.36 76.16 12 85 C3.75 85 -4.5 85 -13 85 C-13 76.00241158 -13 76.00241158 -12.484375 72.94140625 C-12.31252686 71.88904785 -12.31252686 71.88904785 -12.13720703 70.81542969 C-11.94553955 69.70022949 -11.94553955 69.70022949 -11.75 68.5625 C-11.471226 66.87111487 -11.19258698 65.17970749 -10.9140625 63.48828125 C-10.69024902 62.14950928 -10.69024902 62.14950928 -10.46191406 60.78369141 C-9.8276603 56.96140739 -9.21979289 53.13509345 -8.61157227 49.30859375 C-8.11518568 46.1883072 -7.61459529 43.06871719 -7.11328125 39.94921875 C-6.40684009 35.54922809 -5.70619278 31.14837229 -5.01049805 26.74667358 C-4.55798812 23.88699954 -4.10277549 21.02775914 -3.64715576 18.1685791 C-3.42483149 16.76943239 -3.20367236 15.37010002 -2.98370361 13.97058105 C-2.67576797 12.0124592 -2.3633739 10.05504006 -2.05078125 8.09765625 C-1.87200439 6.96851807 -1.69322754 5.83937988 -1.5090332 4.67602539 C-1 2 -1 2 0 0 Z " fill="#FEFCFC" transform="translate(466,1184)"/>
<path d="M0 0 C8.25 0 16.5 0 25 0 C24.36236992 10.83971134 22.77269421 21.28676111 21 32 C28.92 32 36.84 32 45 32 C45.433125 28.225625 45.433125 28.225625 45.875 24.375 C48.55852029 1.44147971 48.55852029 1.44147971 50 0 C51.85369611 -0.08737645 53.71067541 -0.10698153 55.56640625 -0.09765625 C56.69111328 -0.09443359 57.81582031 -0.09121094 58.97460938 -0.08789062 C60.15861328 -0.07951172 61.34261719 -0.07113281 62.5625 -0.0625 C63.75037109 -0.05798828 64.93824219 -0.05347656 66.16210938 -0.04882812 C69.10812468 -0.03699674 72.05402967 -0.01967523 75 0 C74.41025636 8.87681385 73.22917091 17.57269531 71.78515625 26.34765625 C71.56680352 27.69414871 71.34882948 29.04070263 71.13121033 30.38731384 C70.67755609 33.18876128 70.220996 35.98971217 69.76196289 38.7902832 C69.17874469 42.34853523 68.60040932 45.90755722 68.02396488 49.46691227 C67.46675266 52.9065804 66.90738875 56.34589747 66.34765625 59.78515625 C66.14237808 61.04691177 65.93709991 62.3086673 65.7256012 63.60865784 C65.43035805 65.41124306 65.43035805 65.41124306 65.12915039 67.25024414 C64.95895889 68.2910463 64.7887674 69.33184845 64.61341858 70.40419006 C63.78224753 75.27644732 62.88416715 80.13708066 62 85 C53.75 85 45.5 85 37 85 C37 76 37 76 37.875 71.1875 C38.03742187 70.27355469 38.19984375 69.35960937 38.3671875 68.41796875 C38.57601562 67.29003906 38.78484375 66.16210938 39 65 C39.66 61.37 40.32 57.74 41 54 C33.08 54 25.16 54 17 54 C16.72285156 55.90265625 16.44570313 57.8053125 16.16015625 59.765625 C15.79437626 62.26043213 15.42848506 64.75522295 15.0625 67.25 C14.88009766 68.50425781 14.69769531 69.75851562 14.50976562 71.05078125 C14.24389648 72.85869141 14.24389648 72.85869141 13.97265625 74.703125 C13.81031494 75.81333008 13.64797363 76.92353516 13.48071289 78.06738281 C13 81 13 81 12 85 C3.75 85 -4.5 85 -13 85 C-12.43558705 75.77955152 -11.50890825 66.7726879 -10.0390625 57.65625 C-9.84782806 56.44408813 -9.65659363 55.23192627 -9.45956421 53.98303223 C-9.05726052 51.44152513 -8.65208827 48.90047055 -8.24414062 46.35986328 C-7.62669682 42.51057835 -7.01968654 38.65975409 -6.4140625 34.80859375 C-6.01884671 32.32021434 -5.6230332 29.83192977 -5.2265625 27.34375 C-4.95919785 25.64780701 -4.95919785 25.64780701 -4.68643188 23.91760254 C-3.38805451 15.8735669 -1.75611717 7.95703181 0 0 Z " fill="#FEFCFC" transform="translate(710,1184)"/>
<path d="M0 0 C8.58 0 17.16 0 26 0 C24.94595924 8.1890859 23.81005719 16.34807413 22.5 24.5 C17.81628422 44.05026853 17.81628422 44.05026853 20.5 62.6875 C24.02684852 64.53909547 27.15383348 64.59112739 31 64 C34.16057294 62.99436316 35.49063749 61.98351823 37.01947021 59.03152466 C39.74500412 52.38987853 41.11249224 45.95443412 42.140625 38.8671875 C42.31253357 37.74933868 42.48444214 36.63148987 42.66156006 35.47976685 C43.20231257 31.94644849 43.72641318 28.41089844 44.25 24.875 C44.61608508 22.46337406 44.98326204 20.0519136 45.3515625 17.640625 C46.2490542 11.76245865 47.12393301 5.88155653 48 0 C56.58 0 65.16 0 74 0 C73.37429566 6.25704337 72.70606225 12.37763617 71.6875 18.5625 C70.77658571 24.11069386 69.89930626 29.65738188 69.125 35.2265625 C64.2975509 69.13180936 64.2975509 69.13180936 51 80 C41.99030912 85.76512958 33.78328523 86.24623685 23.3125 86.375 C22.17876953 86.41238281 21.04503906 86.44976563 19.87695312 86.48828125 C11.36793439 86.57655925 4.4695822 85.11356791 -1.94018555 79.21435547 C-7.95459417 72.84505061 -8.44158979 65.87535998 -8.25390625 57.43359375 C-7.64353229 43.83667036 -4.78263089 30.26540959 -2.35839844 16.90234375 C-2.19629883 16.00128906 -2.03419922 15.10023437 -1.8671875 14.171875 C-1.65231689 12.9977002 -1.65231689 12.9977002 -1.43310547 11.79980469 C-0.82739633 7.88420583 -0.43754858 3.93793718 0 0 Z " fill="#FEFBFC" transform="translate(1433,1184)"/>
<path d="M0 0 C21.12 0 42.24 0 64 0 C63.18267407 7.35593339 62.1254058 14.6848623 61 22 C48.13 22 35.26 22 22 22 C21.67 25.3 21.34 28.6 21 32 C31.56 32 42.12 32 53 32 C53 36.94856301 52.8224414 41.07128282 52.0625 45.875 C51.88847656 47.00679687 51.71445313 48.13859375 51.53515625 49.3046875 C51 52 51 52 50 53 C47.55169574 53.08843793 45.13179401 53.11528752 42.68359375 53.09765625 C41.95253922 53.0962413 41.22148468 53.09482635 40.46827698 53.09336853 C38.12464368 53.08775408 35.78110461 53.07519922 33.4375 53.0625 C31.85221492 53.05748686 30.26692834 53.05292363 28.68164062 53.04882812 C24.7877239 53.03777997 20.89387795 53.02050572 17 53 C16.67 56.63 16.34 60.26 16 64 C28.21 64 40.42 64 53 64 C53 72 53 72 51 85 C29.88 85 8.76 85 -13 85 C-11.88764045 70.53932584 -11.88764045 70.53932584 -10.625 65 C-9.40104633 59.20387325 -8.43188395 53.43059191 -7.625 47.5625 C-6.4071261 38.7329142 -5.0878128 29.92223943 -3.71453857 21.11569214 C-3.48920035 19.67011283 -3.2646246 18.22441445 -3.04083252 16.77859497 C-2.72451303 14.73619698 -2.4056374 12.69421501 -2.0859375 10.65234375 C-1.9007959 9.46632568 -1.7156543 8.28030762 -1.52490234 7.05834961 C-1.11773302 4.68597282 -0.58379884 2.33519537 0 0 Z " fill="#FDFAFB" transform="translate(1598,1184)"/>
<path d="M0 0 C21.12 0 42.24 0 64 0 C63.26355296 7.36447035 62.21674997 14.6995002 61 22 C48.13 22 35.26 22 22 22 C21.67 25.3 21.34 28.6 21 32 C31.56 32 42.12 32 53 32 C52 43 52 43 50 53 C39.11 53 28.22 53 17 53 C16.67 56.63 16.34 60.26 16 64 C28.54 64 41.08 64 54 64 C53.01 70.93 52.02 77.86 51 85 C29.88 85 8.76 85 -13 85 C-11.8397988 75.1382898 -10.68836308 65.39872752 -9.0625 55.625 C-8.70942846 53.46227336 -8.35656564 51.29951264 -8.00390625 49.13671875 C-7.74697998 47.57123291 -7.74697998 47.57123291 -7.48486328 45.97412109 C-6.80406569 41.79815118 -6.15220596 37.61803327 -5.5 33.4375 C-3.72692795 22.2819217 -1.85698616 11.14191699 0 0 Z " fill="#FDFAFB" transform="translate(389,1184)"/>
<path d="M0 0 C21.12 0 42.24 0 64 0 C62 17 62 17 61 21 C48.46 21.33 35.92 21.66 23 22 C22.34 25.63 21.68 29.26 21 33 C31.56 33 42.12 33 53 33 C53 41 53 41 51 53 C39.78 53 28.56 53 17 53 C16.67 56.63 16.34 60.26 16 64 C28.54 64 41.08 64 54 64 C53.01 70.93 52.02 77.86 51 85 C29.88 85 8.76 85 -13 85 C-11.81414316 75.51314529 -10.61607252 66.10757467 -9.0625 56.6875 C-8.70946138 54.51435118 -8.35659825 52.34117385 -8.00390625 50.16796875 C-7.83262207 49.11786621 -7.66133789 48.06776367 -7.48486328 46.98583984 C-6.80935977 42.82601711 -6.15397207 38.6632648 -5.5 34.5 C-3.68378177 22.99728456 -1.83983389 11.4989618 0 0 Z " fill="#FEFCFD" transform="translate(226,1184)"/>
<path d="M0 0 C1.63207887 5.03994167 0.27616542 9.33607902 -0.9375 14.3125 C-1.13279297 15.14845703 -1.32808594 15.98441406 -1.52929688 16.84570312 C-2.0104231 18.89929066 -2.50398755 20.94995711 -3 23 C-3.59167969 22.86722656 -4.18335938 22.73445313 -4.79296875 22.59765625 C-6.4283886 22.23215459 -8.06457784 21.8700829 -9.70141602 21.51098633 C-11.29397388 21.15695302 -12.88167755 20.78062856 -14.46484375 20.38671875 C-18.48835451 19.77296287 -22.49868765 19.81559506 -26.5625 19.8125 C-27.41263672 19.80025391 -28.26277344 19.78800781 -29.13867188 19.77539062 C-29.96044922 19.77345703 -30.78222656 19.77152344 -31.62890625 19.76953125 C-32.7437439 19.76336792 -32.7437439 19.76336792 -33.88110352 19.75708008 C-36.28494353 20.03266722 -37.91143314 20.80792529 -40 22 C-40.08287047 23.95684829 -40.08287047 23.95684829 -39 26 C-36.47637291 27.04467836 -34.18229334 27.80544053 -31.5625 28.5 C-30.09565124 28.92728173 -28.62950105 29.35696897 -27.1640625 29.7890625 C-26.09140137 30.0989209 -26.09140137 30.0989209 -24.99707031 30.41503906 C-16.30952282 32.95970456 -10.00083435 36.05896171 -4.83203125 43.734375 C-3.61923457 47.03682607 -3.65983651 50.27722923 -3.6875 53.75 C-3.69487183 54.82580322 -3.69487183 54.82580322 -3.70239258 55.92333984 C-3.86729504 63.360018 -5.30024716 68.93391123 -10.4140625 74.62109375 C-20.38729618 83.29240284 -32.01562255 84.18034371 -44.625 84.1875 C-46.29369141 84.20586914 -46.29369141 84.20586914 -47.99609375 84.22460938 C-56.4819821 84.23942757 -64.89831549 83.7005615 -73 81 C-72.52087184 72.75569133 -71.02214499 64.99955473 -69 57 C-68.33613281 57.20496094 -67.67226562 57.40992188 -66.98828125 57.62109375 C-66.10527344 57.89050781 -65.22226563 58.15992188 -64.3125 58.4375 C-63.44238281 58.70433594 -62.57226562 58.97117187 -61.67578125 59.24609375 C-55.66238381 60.94037945 -50.15855514 61.15191156 -43.9375 61.125 C-43.03966797 61.12886719 -42.14183594 61.13273437 -41.21679688 61.13671875 C-39.91645508 61.13478516 -39.91645508 61.13478516 -38.58984375 61.1328125 C-37.80472412 61.13168457 -37.01960449 61.13055664 -36.21069336 61.12939453 C-34.0207606 61.00121514 -32.10406629 60.60390331 -30 60 C-30.33665915 57.51751876 -30.33665915 57.51751876 -32 55 C-35.85593562 52.98502177 -40.27431774 52.18756347 -44.4609375 51.10546875 C-57.54504339 47.60428476 -57.54504339 47.60428476 -62 43 C-62.75410156 42.22269531 -62.75410156 42.22269531 -63.5234375 41.4296875 C-67.73782562 36.05110376 -67.72962366 30.32643662 -67.47265625 23.69140625 C-66.35270284 14.94466269 -62.18083743 9.23489487 -55.47265625 3.69140625 C-40.24505837 -6.72494427 -16.90517654 -5.00012264 0 0 Z " fill="#FEFCFD" transform="translate(1735,1186)"/>
<path d="M0 0 C1.18722656 -0.00515625 2.37445312 -0.0103125 3.59765625 -0.015625 C4.83386719 -0.00015625 6.07007813 0.0153125 7.34375 0.03125 C8.57996094 0.01578125 9.81617188 0.0003125 11.08984375 -0.015625 C12.87068359 -0.00789062 12.87068359 -0.00789062 14.6875 0 C15.77224609 0.00451172 16.85699219 0.00902344 17.97460938 0.01367188 C21.51456265 0.65226113 22.71328639 1.67247178 24.84375 4.53125 C25.05950882 7.31788155 25.04296918 9.5994375 24.78125 12.34375 C24.7203418 13.34438477 24.7203418 13.34438477 24.65820312 14.36523438 C24.29449823 19.12845388 23.42519808 23.72748064 22.45141602 28.40136719 C20.87692796 36.11646018 19.63514164 43.86497674 18.46875 51.65234375 C18.25640662 53.04994962 18.04366949 54.44749572 17.83056641 55.84498596 C17.16439992 60.21898818 16.50386867 64.59383168 15.84375 68.96875 C15.07666063 74.04811796 14.3070939 79.12709727 13.53338623 84.2054615 C13.23035205 86.20094415 12.93078075 88.19695172 12.63134766 90.19297791 C12.05621803 93.97601663 11.45459778 97.75382386 10.84375 101.53125 C10.73454224 102.24149952 10.62533447 102.95174904 10.51281738 103.68352127 C10.17333067 105.87022106 9.81169317 108.05228227 9.4453125 110.23461914 C9.23471191 111.53557022 9.02411133 112.8365213 8.80712891 114.17689514 C7.76535525 117.80420991 6.82558154 119.27315166 3.84375 121.53125 C0.95874023 122.03295898 0.95874023 122.03295898 -2.34765625 122.02734375 C-3.53939453 122.02798828 -4.73113281 122.02863281 -5.95898438 122.02929688 C-7.19970703 122.00931641 -8.44042969 121.98933594 -9.71875 121.96875 C-11.58563477 121.97938477 -11.58563477 121.97938477 -13.49023438 121.99023438 C-22.60917028 121.92605129 -22.60917028 121.92605129 -25.01220703 120.19189453 C-26.83903917 117.54014203 -26.51397112 115.1377067 -26.46875 111.96875 C-26.46488281 110.81246094 -26.46101563 109.65617188 -26.45703125 108.46484375 C-26.1588417 104.56514404 -25.49064183 100.93857298 -24.67993164 97.12182617 C-23.83281065 92.93124301 -23.28904313 88.70429782 -22.71875 84.46875 C-21.81837297 77.96398534 -20.84112308 71.49031942 -19.65625 65.03125 C-18.55573015 59.00567349 -17.62324989 52.9732069 -16.78125 46.90625 C-16.24485547 43.11382114 -15.70111989 39.32246958 -15.15625 35.53125 C-14.97304199 34.24492676 -14.78983398 32.95860352 -14.60107422 31.63330078 C-14.09630617 28.11194276 -13.57126676 24.59398983 -13.0355835 21.07720947 C-12.82556977 19.67961285 -12.62143633 18.28111905 -12.42340088 16.8817749 C-12.1429349 14.90718346 -11.83944725 12.93590426 -11.53515625 10.96484375 C-11.3657251 9.82072021 -11.19629395 8.67659668 -11.02172852 7.49780273 C-9.22879081 1.35224953 -6.13695788 0.02552508 0 0 Z " fill="#FEFDFD" transform="translate(529.15625,626.46875)"/>
<path d="M0 0 C0.97259766 -0.01224609 1.94519531 -0.02449219 2.94726562 -0.03710938 C9.38383923 -0.05000832 15.30679897 0.67395479 21.5625 2.1875 C20.88795897 10.0121759 19.29373042 17.53306614 17.5625 25.1875 C16.53511719 25.043125 15.50773438 24.89875 14.44921875 24.75 C-1.83449506 22.16841656 -1.83449506 22.16841656 -17.4375 26.1875 C-18.489375 26.703125 -19.54125 27.21875 -20.625 27.75 C-25.6832226 32.13379292 -28.06917735 37.05675749 -28.8515625 43.70703125 C-29.00212573 50.13334382 -28.97138442 55.70388624 -25.4375 61.1875 C-21.09284786 65.26061138 -15.10286468 64.89976694 -9.4375 65.1875 C-9.38851562 64.17429687 -9.33953125 63.16109375 -9.2890625 62.1171875 C-9.21397436 60.76560089 -9.13842919 59.41403962 -9.0625 58.0625 C-9.01609375 57.06476563 -9.01609375 57.06476563 -8.96875 56.046875 C-8.70567448 51.5745911 -7.90208188 48.58124564 -6.4375 44.1875 C1.4825 44.1875 9.4025 44.1875 17.5625 44.1875 C16.96596377 50.15286234 16.36657207 55.8557929 15.37109375 61.7265625 C15.26152847 62.37829437 15.1519632 63.03002625 15.03907776 63.70150757 C14.69582094 65.73904422 14.34801188 67.77577075 14 69.8125 C13.76336676 71.21218803 13.52703647 72.61192732 13.29101562 74.01171875 C12.71833005 77.40424297 12.14156556 80.79605821 11.5625 84.1875 C2.17595105 86.51793517 -6.44355477 87.68623973 -16.125 87.625 C-17.25744141 87.64498047 -18.38988281 87.66496094 -19.55664062 87.68554688 C-31.30893044 87.67878102 -39.85244654 84.76886129 -48.3359375 76.5546875 C-56.48190139 67.37912223 -56.2349438 55.1938657 -55.6640625 43.51220703 C-54.72378601 33.86424067 -50.56917996 24.62785986 -44.4375 17.1875 C-43.91027344 16.51460937 -43.38304687 15.84171875 -42.83984375 15.1484375 C-38.71693716 10.45466692 -33.99212983 7.57377772 -28.5 4.75 C-27.84402832 4.40767334 -27.18805664 4.06534668 -26.51220703 3.71264648 C-18.08755803 -0.3727569 -9.19114384 0.00606676 0 0 Z " fill="#FEFBFC" transform="translate(974.4375,1182.8125)"/>
<path d="M0 0 C8.91 0 17.82 0 27 0 C27.33773438 2.78566406 27.67546875 5.57132813 28.0234375 8.44140625 C28.35753778 11.19200144 28.69193885 13.94255991 29.02636719 16.69311523 C29.25552148 18.57914492 29.48437169 20.46521158 29.71289062 22.35131836 C31.07326097 33.577357 32.46973263 44.79571566 34 56 C34.25362305 55.31389648 34.50724609 54.62779297 34.76855469 53.92089844 C38.5569385 43.86451973 42.7696111 34.00106435 47.01269531 24.12988281 C48.26471806 21.21574305 49.51147177 18.29938624 50.7578125 15.3828125 C51.55177317 13.53111698 52.34603268 11.67954956 53.140625 9.828125 C53.51350647 8.95536926 53.88638794 8.08261353 54.27056885 7.18341064 C54.61472839 6.38457458 54.95888794 5.58573853 55.31347656 4.76269531 C55.61594299 4.0580011 55.91840942 3.35330688 56.2300415 2.6272583 C57 1 57 1 58 0 C59.92667507 -0.08748207 61.85651861 -0.10697334 63.78515625 -0.09765625 C64.95498047 -0.09443359 66.12480469 -0.09121094 67.33007812 -0.08789062 C68.56177734 -0.07951172 69.79347656 -0.07113281 71.0625 -0.0625 C72.91584961 -0.05573242 72.91584961 -0.05573242 74.80664062 -0.04882812 C77.87114117 -0.03699608 80.93554721 -0.02051173 84 0 C82.46464913 5.02865806 80.38155672 9.63010533 78.10546875 14.3515625 C77.72148422 15.15567062 77.33749969 15.95977875 76.94187927 16.78825378 C76.11947824 18.50981603 75.2955659 20.230657 74.47027588 21.95083618 C72.30737702 26.45976557 70.15610014 30.97423495 68.00390625 35.48828125 C67.36065399 36.83647194 67.36065399 36.83647194 66.70440674 38.2118988 C62.96445953 46.05724219 59.27830988 53.92649111 55.625 61.8125 C55.12121826 62.89934082 54.61743652 63.98618164 54.09838867 65.10595703 C51.03700371 71.72480159 48.01784939 78.36073135 45 85 C34.11 85 23.22 85 12 85 C11.66226562 82.51726562 11.32453125 80.03453125 10.9765625 77.4765625 C10.64299224 75.04042509 10.3083618 72.60443547 9.97363281 70.16845703 C9.74368573 68.49087388 9.51482041 66.81314204 9.28710938 65.13525391 C7.66542643 53.17416849 7.66542643 53.17416849 5.44677734 41.31298828 C4.54066551 36.62200276 4.05424418 31.86795686 3.5 27.125 C2.611181 19.73700986 1.67789815 12.39442166 0.33203125 5.07421875 C0 3 0 3 0 0 Z " fill="#FEFCFC" transform="translate(297,1184)"/>
<path d="M0 0 C8.91 0 17.82 0 27 0 C28.32 3.96 29.64 7.92 31 12 C31.41765625 13.23234375 31.8353125 14.4646875 32.265625 15.734375 C34.21904056 21.71864807 35.49403112 26.70110327 35 33 C35.66 33 36.32 33 37 33 C37.10199707 32.1229541 37.20399414 31.2459082 37.30908203 30.34228516 C38.04145073 26.79948391 39.15684156 24.58425123 41.0546875 21.5234375 C41.66957031 20.523125 42.28445313 19.5228125 42.91796875 18.4921875 C43.56378906 17.46351562 44.20960938 16.43484375 44.875 15.375 C45.83212891 13.82039063 45.83212891 13.82039063 46.80859375 12.234375 C48.51706377 9.47371572 50.22739467 6.71993034 52 4 C52.43562256 3.24058105 52.87124512 2.48116211 53.32006836 1.69873047 C55 0 55 0 57.8190918 -0.45410156 C59.49225464 -0.42268066 59.49225464 -0.42268066 61.19921875 -0.390625 C62.40771484 -0.37773438 63.61621094 -0.36484375 64.86132812 -0.3515625 C66.12396484 -0.31804687 67.38660156 -0.28453125 68.6875 -0.25 C69.96173828 -0.23195313 71.23597656 -0.21390625 72.54882812 -0.1953125 C75.69996841 -0.14810441 78.8496114 -0.08226384 82 0 C80.83047332 3.11140116 79.60411401 5.83165678 77.69921875 8.5546875 C77.22653564 9.23692383 76.75385254 9.91916016 76.2668457 10.62207031 C75.74566162 11.36553711 75.22447754 12.10900391 74.6875 12.875 C73.52808729 14.55430201 72.36927966 16.23402187 71.2109375 17.9140625 C69.38085885 20.5595138 67.55059501 23.20483605 65.71936035 25.8494873 C62.88308807 29.9479148 60.05767592 34.05355925 57.24258423 38.16656494 C56.29385892 39.54872658 55.3415564 40.92844 54.3855896 42.30560303 C53.02551832 44.26549742 51.67768845 46.23331608 50.33203125 48.203125 C49.92421417 48.78484467 49.51639709 49.36656433 49.09622192 49.96591187 C45.32956827 55.52931009 43.96699493 61.12917715 43.1484375 67.71484375 C43.03161621 68.63128662 42.91479492 69.54772949 42.79443359 70.49194336 C42.65602051 71.62897705 42.51760742 72.76601074 42.375 73.9375 C41.92125 77.588125 41.4675 81.23875 41 85 C32.42 85 23.84 85 15 85 C16.5 74.0625 16.5 74.0625 16.97460938 70.67211914 C17.09642578 69.76067139 17.21824219 68.84922363 17.34375 67.91015625 C17.53227539 66.53549194 17.53227539 66.53549194 17.72460938 65.13305664 C17.86092773 63.5821936 17.86092773 63.5821936 18 62 C18.05897461 61.35299133 18.11794922 60.70598267 18.17871094 60.03936768 C18.5193844 53.19808445 16.46539039 47.62283228 14.0625 41.2890625 C13.46320679 39.65413345 13.46320679 39.65413345 12.85180664 37.98617554 C11.58144624 34.52725903 10.29176674 31.07597267 9 27.625 C7.71165211 24.15145654 6.42743234 20.67646278 5.14819336 17.19955444 C4.35298314 15.04157056 3.55189134 12.88574316 2.74438477 10.73233032 C2.38401123 9.76056854 2.0236377 8.78880676 1.65234375 7.78759766 C1.33257568 6.93316071 1.01280762 6.07872375 0.68334961 5.19839478 C0 3 0 3 0 0 Z " fill="#FEFBFC" transform="translate(542,1184)"/>
<path d="M0 0 C23.76 0 47.52 0 72 0 C71.01 7.26 70.02 14.52 69 22 C61.08 22 53.16 22 45 22 C44.7525 24.31 44.505 26.62 44.25 29 C43.31070306 37.29561371 41.95261532 45.50016129 40.54101562 53.7265625 C38.77327633 64.12113441 37.37547659 74.54637789 36 85 C27.42 85 18.84 85 10 85 C11.125 72.625 11.125 72.625 11.84790039 67.9777832 C12.00799088 66.93753494 12.16808136 65.89728668 12.33302307 64.82551575 C12.58776649 63.20452217 12.58776649 63.20452217 12.84765625 61.55078125 C13.02380966 60.41215134 13.19996307 59.27352142 13.38145447 58.10038757 C13.9385977 54.50391882 14.50046726 50.90820755 15.0625 47.3125 C15.44367348 44.85747062 15.82453585 42.40239292 16.20507812 39.94726562 C17.13312445 33.96427928 18.06540697 27.98196704 19 22 C11.74 22 4.48 22 -3 22 C-3 15 -3 15 0 0 Z " fill="#FDFBFB" transform="translate(628,1184)"/>
<path d="M0 0 C23.76 0 47.52 0 72 0 C71.01 7.26 70.02 14.52 69 22 C61.08 22 53.16 22 45 22 C44.896875 23.959375 44.79375 25.91875 44.6875 27.9375 C44.26012507 33.84464115 43.46767381 39.54958395 42.37451172 45.37646484 C40.85114815 53.57793476 39.58975559 61.81997706 38.3125 70.0625 C38.19813599 70.79901794 38.08377197 71.53553589 37.96594238 72.29437256 C37.30839433 76.52924171 36.65379482 80.7645466 36 85 C27.42 85 18.84 85 10 85 C11.29897333 74.10860821 12.8491196 63.29353471 14.60449219 52.46728516 C15.00931598 49.94188441 15.40102344 47.41474992 15.7890625 44.88671875 C15.91869385 44.04729736 16.0483252 43.20787598 16.18188477 42.34301758 C16.42664307 40.755935 16.66947805 39.16855398 16.90991211 37.58081055 C17.72982944 32.30459306 18.83582552 27.23878518 20 22 C12.41 22 4.82 22 -3 22 C-2.46574001 14.34227353 -1.52564341 7.62821703 0 0 Z " fill="#FDFBFC" transform="translate(1516,1184)"/>
<path d="M0 0 C-1.63356983 31.37580682 -1.63356983 31.37580682 -9 41 C-9.58910156 41.80308594 -10.17820312 42.60617187 -10.78515625 43.43359375 C-18.02023234 52.8837826 -26.33789368 63.53184639 -38.6875 65.625 C-42.84006337 64.84149748 -45.35590841 63.20666427 -48 60 C-53.49582998 49.38736279 -53.96718491 34.92036267 -50.375 23.5625 C-49.63386652 21.68756232 -48.84172323 19.83198585 -48 18 C-47.55269531 17.02160156 -47.10539063 16.04320312 -46.64453125 15.03515625 C-42.3554518 6.46849622 -37.1672 1.02313773 -28.078125 -2.30859375 C-18.90680065 -4.36865011 -8.44806064 -4.31390331 0 0 Z " fill="#C02148" transform="translate(903,656)"/>
<path d="M0 0 C4.94092614 3.49982269 7.37378003 8.21047468 8.6875 14.0625 C9.93333976 29.76008093 7.44077329 42.52722726 -1 56 C-1.5775 56.94875 -2.155 57.8975 -2.75 58.875 C-9.85530112 65.58556217 -18.27650801 67.225822 -27.671875 67.16796875 C-32.86429875 66.90590981 -37.9070104 66.01137382 -43 65 C-44.57324054 60.28027839 -43.40392107 55.80523959 -42.75 50.9375 C-42.62753906 49.93783203 -42.50507812 48.93816406 -42.37890625 47.90820312 C-39.94199632 29.34184479 -31.27081873 15.26573153 -16.6875 3.4375 C-11.23585873 -0.35362744 -6.5240357 -1.61496621 0 0 Z " fill="#C02149" transform="translate(641,655)"/>
<path d="M0 0 C8.58 0 17.16 0 26 0 C24.47372314 10.96658185 22.71221411 21.87365038 20.85546875 32.7890625 C19.63601307 40.01602072 18.50765829 47.24658972 17.49121094 54.50488281 C16.65333883 60.46660103 15.76032798 66.42017771 14.875 72.375 C14.25625 76.54125 13.6375 80.7075 13 85 C4.42 85 -4.16 85 -13 85 C-12.32931991 77.62251904 -11.52836509 70.46667612 -10.3125 63.1875 C-9.95638187 61.01182494 -9.60096221 58.83603549 -9.24609375 56.66015625 C-8.9519458 54.86215576 -8.9519458 54.86215576 -8.65185547 53.02783203 C-7.90875383 48.45737745 -7.19029854 43.88310417 -6.47265625 39.30859375 C-6.34089493 38.46940903 -6.20913361 37.6302243 -6.07337952 36.76560974 C-5.5438791 33.39198747 -5.01465025 30.0183242 -4.48721313 26.64437866 C-4.11508317 24.2653314 -3.74126837 21.88655368 -3.3671875 19.5078125 C-3.2048336 18.46511452 -3.2048336 18.46511452 -3.03919983 17.40135193 C-2.12143425 11.57846149 -1.05551413 5.8053277 0 0 Z " fill="#FEFBFC" transform="translate(1040,1184)"/>
<path d="M0 0 C8.58 0 17.16 0 26 0 C25.47091725 4.25064057 24.93917266 8.50078304 24.40087891 12.75024414 C24.21901615 14.19211 24.03864254 15.63416458 23.85986328 17.07641602 C22.99871521 24.01611483 22.13706127 30.88865833 20.49316406 37.69506836 C19.61147677 41.81586526 19.11370615 45.99610662 18.54003906 50.16894531 C17.58831387 56.92051481 16.47121152 63.64565527 15.375 70.375 C15.14310927 71.80466806 14.91133788 73.23435548 14.6796875 74.6640625 C14.12137699 78.10963596 13.560647 81.55480278 13 85 C4.75 85 -3.5 85 -12 85 C-12 74.13764386 -12 74.13764386 -10.53164673 68.24349976 C-9.6086505 64.34854151 -9.13814963 60.38962476 -8.60546875 56.42578125 C-7.52593023 48.64178623 -6.38581644 40.87027714 -5.17578125 33.10546875 C-5.02285614 32.12401886 -4.86993103 31.14256897 -4.71237183 30.13137817 C-4.24675439 27.14992707 -3.77966989 24.1687082 -3.3125 21.1875 C-2.98880796 19.11525379 -2.66523972 17.04298824 -2.34179688 14.97070312 C-1.56284153 9.98020918 -0.78137833 4.9901175 0 0 Z " fill="#FEFBFC" transform="translate(799,1184)"/>
<path d="M0 0 C8.25 0 16.5 0 25 0 C24.40422545 7.14929458 23.80719733 14.03263424 22.625 21.0625 C22.35267356 22.73043757 22.08054314 24.39840716 21.80859375 26.06640625 C21.60339111 27.31188232 21.60339111 27.31188232 21.39404297 28.58251953 C21.0339456 30.79174146 20.68687639 33.00233399 20.34765625 35.21484375 C17.79168304 51.84688549 14.86393007 68.41886443 12 85 C3.75 85 -4.5 85 -13 85 C-12.58574088 77.8885518 -12.12134024 71.19080595 -10.49951172 64.2668457 C-9.70115899 60.64382267 -9.23658555 56.98816271 -8.75 53.3125 C-7.37722984 43.35189119 -5.84746607 33.4175256 -4.28527832 23.48519897 C-4.01205293 21.74693354 -3.73983388 20.00850963 -3.46862793 18.26992798 C-3.08334772 15.80191438 -2.69455152 13.33448066 -2.3046875 10.8671875 C-2.18811798 10.11804581 -2.07154846 9.36890411 -1.95144653 8.59706116 C-1.4780131 5.62497044 -0.95379248 2.86137743 0 0 Z " fill="#FEFBFC" transform="translate(1305,1184)"/>
<path d="M0 0 C8.58 0 17.16 0 26 0 C24.80514545 6.57170003 23.72280556 12.40108459 21.875 18.6875 C19.25979068 27.77861243 16.96905214 36.94589944 14.6875 46.125 C14.50483582 46.85947357 14.32217163 47.59394714 14.13397217 48.35067749 C13.08614008 52.56634253 12.04260007 56.78303197 11 61 C2.42 61 -6.16 61 -15 61 C-13.70441937 55.16988718 -12.38679307 49.35649213 -10.9765625 43.5546875 C-10.78911469 42.78174347 -10.60166687 42.00879944 -10.40853882 41.21243286 C-10.01403226 39.58714769 -9.61905807 37.96197596 -9.22363281 36.33691406 C-8.63159946 33.90214068 -8.04228789 31.46671933 -7.453125 29.03125 C-5.0957783 19.31708801 -2.61201891 9.64896483 0 0 Z " fill="#FDEC01" transform="translate(1391,1026)"/>
<path d="M0 0 C1.02963867 -0.02416992 1.02963867 -0.02416992 2.08007812 -0.04882812 C7.15488583 -0.05362927 10.69233007 0.92513985 15.1875 3.3125 C19.16960711 8.21355491 19.8323268 12.33956253 19.56640625 18.6015625 C18.63790904 25.24462501 15.40645117 30.01463426 10.16796875 34.125 C6.67263244 36.22082296 3.20216526 36.88067046 -0.8125 37.3125 C-1.56917969 37.395 -2.32585938 37.4775 -3.10546875 37.5625 C-8.75885063 37.87387387 -13.26782317 36.77999609 -17.8125 33.3125 C-20.89209273 29.96398508 -22.05768549 26.50703164 -22.3125 22 C-22.01085147 16.11785369 -20.27857212 10.134636 -16.3515625 5.640625 C-11.07115475 1.08392796 -6.85636402 -0.0316545 0 0 Z " fill="#FDFBFB" transform="translate(543.8125,579.6875)"/>
<path d="M0 0 C2.22855574 -0.0814222 4.45797655 -0.13938079 6.6875 -0.1875 C8.54955078 -0.23970703 8.54955078 -0.23970703 10.44921875 -0.29296875 C14.25572363 0.02109931 16.1152384 0.51107975 19 3 C19.91953729 6.36973291 19.59508714 9.57688407 19 13 C17.38547562 15.82541766 16.40650036 17.48558552 13.3125 18.6171875 C10.10697334 19.14783212 6.99672356 19.09256226 3.75 19.0625 C2.48671875 19.05347656 1.2234375 19.04445313 -0.078125 19.03515625 C-1.04234375 19.02355469 -2.0065625 19.01195312 -3 19 C-2.6920761 16.20775806 -2.37887563 13.41628573 -2.0625 10.625 C-1.97548828 9.8309375 -1.88847656 9.036875 -1.79882812 8.21875 C-1.11328125 2.2265625 -1.11328125 2.2265625 0 0 Z " fill="#C1234A" transform="translate(488,1204)"/>
<path d="M0 0 C1.31223496 3.93670488 0.24296256 6.12488144 -1 10 C-1.99 10 -2.98 10 -4 10 C-4 5.75354935 -2.18249194 3.61475228 0 0 Z " fill="#CC4739" transform="translate(464,949)"/>
</svg>
