<svg version="1.1" id="Layer_1" xmlns="http://www.w3.org/2000/svg" xmlns:xlink="http://www.w3.org/1999/xlink" x="0px" y="0px"
	 width="100%" viewBox="0 0 1600 629" enable-background="new 0 0 1600 629" xml:space="preserve">
<path fill="#010101" opacity="1.000000" stroke="none" 
	d="
M1001.000000,630.000000 
	C667.370605,630.000000 334.241241,630.000000 1.055941,630.000000 
	C1.055941,420.394104 1.055941,210.788193 1.055941,1.091145 
	C534.212830,1.091145 1067.425659,1.091145 1600.819336,1.091145 
	C1600.819336,210.666550 1600.819336,420.333252 1600.819336,630.000000 
	C1401.121216,630.000000 1201.310669,630.000000 1001.000000,630.000000 
M229.530365,154.744522 
	C226.773422,154.744522 224.016495,154.744522 221.309204,154.744522 
	C221.309204,206.853439 221.309204,258.261780 221.309204,309.760956 
	C230.337753,309.760956 239.068649,309.760956 248.075745,309.760956 
	C248.075745,307.815521 248.075714,306.172119 248.075760,304.528687 
	C248.076859,268.197784 248.024887,231.866745 248.143097,195.536240 
	C248.158691,190.738678 248.655930,185.864639 249.620453,181.167786 
	C250.858932,175.136902 254.471329,172.299667 259.494598,172.419205 
	C264.364624,172.535095 267.787476,175.798279 268.709045,181.897430 
	C269.378632,186.328918 269.725189,190.851074 269.734833,195.333832 
	C269.813080,231.664551 269.777649,267.995514 269.776855,304.326416 
	C269.776825,306.252045 269.776855,308.177673 269.776855,309.974365 
	C279.227081,309.974365 287.976990,309.974365 297.058441,309.974365 
	C297.058441,307.874084 297.058441,306.070679 297.058441,304.267273 
	C297.057953,267.769714 296.983826,231.271866 297.139130,194.774994 
	C297.161530,189.508331 297.916504,184.167877 299.010773,179.005325 
	C300.008698,174.297409 303.787903,172.280472 308.421173,172.505432 
	C312.971588,172.726379 315.973755,175.468796 316.687317,179.855057 
	C317.564758,185.248688 318.219513,190.745804 318.239197,196.200821 
	C318.369598,232.364578 318.304047,268.529022 318.302277,304.693268 
	C318.302185,306.451630 318.302246,308.209991 318.302246,310.063416 
	C327.636200,310.063416 336.259918,310.063416 345.028931,310.063416 
	C345.146912,308.903687 345.332275,307.931458 345.332336,306.959198 
	C345.333679,266.628632 345.386932,226.297775 345.228516,185.967773 
	C345.205750,180.170517 344.483521,174.320175 343.495361,168.596191 
	C342.147003,160.785324 338.471222,154.394791 330.242615,152.020462 
	C319.063446,148.794739 309.567902,151.797623 301.738007,160.286743 
	C299.666016,162.533203 297.677979,164.857117 295.417267,167.409851 
	C291.656189,156.320084 284.502106,150.852570 273.182434,150.835876 
	C262.012848,150.819412 254.934280,157.423981 248.481049,166.393555 
	C247.905151,161.904633 247.455902,158.402969 246.986542,154.744522 
	C241.162338,154.744522 235.843338,154.744522 229.530365,154.744522 
M527.928528,293.481018 
	C527.927979,305.306641 528.101196,317.136047 527.841980,328.955994 
	C527.737305,333.730865 526.973694,338.545258 525.987854,343.231842 
	C524.983887,348.004639 521.500610,350.435394 516.709045,350.905090 
	C510.196136,351.543549 506.126801,347.913147 505.329987,339.918915 
	C504.809418,334.696350 505.231812,329.379730 505.231812,324.092102 
	C495.285614,324.092102 486.370697,324.092102 476.114777,324.092102 
	C477.334656,332.673981 477.892334,340.957733 479.794098,348.920502 
	C482.426178,359.941162 490.120544,366.506439 501.044769,369.120728 
	C511.585785,371.643311 522.191345,371.529419 532.711731,368.951477 
	C543.814331,366.230896 550.808533,359.103882 552.982605,347.988739 
	C554.475281,340.356903 555.539612,332.504456 555.571533,324.745636 
	C555.798767,269.614502 555.712036,214.482056 555.712646,159.350037 
	C555.712708,157.908554 555.568542,156.467087 555.491699,155.026733 
	C546.644592,155.026733 538.221863,155.026733 529.606689,155.026733 
	C528.993042,158.723022 528.419983,162.175201 527.889771,165.369293 
	C524.080566,161.780411 520.833801,157.901001 516.832886,155.097900 
	C501.788208,144.557144 482.726074,151.906128 478.754333,169.706482 
	C477.674683,174.545273 477.032928,179.586044 477.006500,184.538452 
	C476.849213,214.018570 476.734222,243.502289 477.085602,272.979065 
	C477.163635,279.523407 478.630615,286.198669 480.438721,292.533752 
	C482.275848,298.970673 487.148132,303.050415 493.697693,304.970123 
	C505.940704,308.558594 516.845642,304.834778 525.057251,294.305298 
	C525.680420,293.506226 526.966431,293.224060 527.928528,293.481018 
M743.138977,266.420105 
	C744.045105,273.845306 744.493469,281.362366 745.960449,288.675079 
	C748.407471,300.873199 755.641663,309.570221 768.199646,311.324127 
	C777.609131,312.638275 787.419373,312.435852 796.901794,311.458801 
	C804.893005,310.635406 811.490417,305.916199 815.710693,298.740875 
	C823.253845,285.916443 822.764648,271.832184 822.421753,257.664490 
	C813.059937,257.664490 804.282043,257.664490 795.010193,257.664490 
	C795.010193,261.338501 795.162231,264.798767 794.975281,268.240601 
	C794.678101,273.710480 794.516418,279.227295 793.633972,284.615601 
	C792.570129,291.110779 789.002319,293.928864 783.186523,293.879456 
	C777.382812,293.830139 773.062683,290.873322 772.618347,284.709808 
	C771.557739,269.996887 771.317078,255.224884 770.727600,240.019928 
	C788.676514,240.019928 805.563354,240.019928 822.368652,240.019928 
	C822.368652,223.634888 822.541443,207.676804 822.268799,191.726334 
	C822.181335,186.610123 821.165710,181.463715 820.143616,176.418472 
	C817.392273,162.837341 809.620300,153.552795 795.534485,151.790451 
	C787.065979,150.730881 778.213257,150.916428 769.746826,152.087158 
	C756.627136,153.901413 748.896301,162.388412 746.012268,175.203384 
	C745.064087,179.416092 743.975037,183.714005 743.905762,187.988419 
	C743.487732,213.803192 743.346741,239.622437 743.138977,266.420105 
M395.028412,215.449753 
	C378.750854,220.227264 371.150330,229.612320 370.835541,246.036118 
	C370.605682,258.026276 370.742554,270.028015 370.970581,282.019745 
	C371.046051,285.988281 371.655762,289.995819 372.467499,293.892548 
	C375.658752,309.212280 387.702240,316.738373 403.002991,313.158722 
	C409.802185,311.568024 414.986115,307.586426 419.256073,302.232361 
	C420.200348,301.048279 421.197144,299.906158 422.608063,298.221252 
	C423.242432,302.647430 423.750153,306.189850 424.262817,309.766907 
	C433.039307,309.766907 441.439209,309.766907 450.024200,309.766907 
	C450.092285,308.515198 450.191650,307.539948 450.191650,306.564697 
	C450.192444,268.410461 450.224976,230.256104 450.127258,192.102097 
	C450.114502,187.122406 449.720764,182.100845 448.991425,177.174469 
	C447.285553,165.651794 441.908417,156.739883 430.090057,153.196121 
	C419.680695,150.074860 409.068390,150.164078 398.437927,151.986893 
	C385.902740,154.136292 377.981293,161.402878 375.607819,173.889832 
	C374.257477,180.994125 374.003876,188.306870 373.230194,195.778931 
	C382.356079,195.778931 390.569122,195.778931 398.237854,195.778931 
	C399.193787,189.030777 399.667114,182.561462 401.135406,176.326447 
	C402.284698,171.445938 406.524963,169.824600 411.292755,170.114929 
	C416.068787,170.405746 420.144409,172.591553 420.674103,177.513641 
	C421.875000,188.673248 422.355255,199.910416 423.106201,210.792236 
	C413.138123,212.386322 404.462555,213.773697 395.028412,215.449753 
M646.527832,310.056396 
	C652.610596,310.056396 658.693359,310.056396 664.937317,310.056396 
	C664.937317,307.484131 664.937256,305.663605 664.937317,303.843109 
	C664.938477,267.348633 664.878601,230.853943 665.015076,194.359985 
	C665.032898,189.590256 665.816101,184.779495 666.683716,180.068573 
	C667.647156,174.837204 671.625793,172.818481 676.482605,172.456039 
	C681.384583,172.090240 685.289429,174.639755 686.751587,179.432510 
	C687.661133,182.413818 688.186157,185.632889 688.200745,188.748444 
	C688.381348,227.239746 688.436340,265.731628 688.522766,304.223389 
	C688.527100,306.139984 688.523376,308.056580 688.523376,309.918823 
	C698.159851,309.918823 707.057312,309.918823 715.847229,309.918823 
	C715.847229,266.262177 715.947449,222.956833 715.716248,179.653259 
	C715.688354,174.428986 714.166077,169.134827 712.800354,164.016068 
	C711.234558,158.147110 707.211182,153.630234 701.346069,152.600266 
	C695.298462,151.538239 688.800842,151.345444 682.762512,152.350067 
	C675.075684,153.628998 670.080872,159.680740 665.126953,166.311508 
	C664.543213,161.958786 664.071472,158.440613 663.616394,155.047333 
	C654.781128,155.047333 646.364136,155.047333 637.914429,155.047333 
	C637.914429,206.778641 637.914429,258.191681 637.914429,310.056396 
	C640.624451,310.056396 643.081543,310.056396 646.527832,310.056396 
M1199.201172,390.714478 
	C1205.242798,385.901123 1209.916382,379.993805 1211.220581,372.302338 
	C1212.493896,364.793335 1213.494019,357.131317 1213.515503,349.533386 
	C1213.714600,278.882904 1213.700806,208.231750 1213.675171,137.580841 
	C1213.672119,129.255432 1213.532227,120.907539 1212.917114,112.610016 
	C1211.927246,99.260307 1206.242310,88.121658 1193.716919,82.643326 
	C1186.781738,79.609985 1178.616699,78.174538 1170.992188,78.124718 
	C1115.173950,77.759972 1059.352295,77.908913 1003.531677,77.969673 
	C999.383423,77.974182 995.191650,78.272896 991.095764,78.916321 
	C975.959229,81.294182 965.139709,91.028877 962.107727,106.036377 
	C960.605774,113.470901 960.302490,121.245140 960.287537,128.867310 
	C960.147095,200.184875 960.163147,271.502838 960.209534,342.820618 
	C960.214417,350.310852 960.268860,357.847443 961.063171,365.280975 
	C962.646973,380.103455 970.133545,390.962585 984.536499,395.861572 
	C989.797729,397.651154 995.625793,398.511597 1001.199707,398.531036 
	C1058.018677,398.729401 1114.838623,398.734070 1171.657959,398.610992 
	C1181.213257,398.590302 1190.614258,397.157867 1199.201172,390.714478 
M611.938721,197.499680 
	C611.938721,183.426331 611.938721,169.352982 611.938721,155.454865 
	C601.330322,155.454865 590.926331,155.454865 580.296631,155.454865 
	C581.189331,207.247696 582.075378,258.654205 582.963867,310.201385 
	C592.251648,310.201385 601.132568,310.201385 610.336914,310.201385 
	C610.869507,272.744904 611.397339,235.622284 611.938721,197.499680 
M193.228561,163.558441 
	C193.228561,160.747131 193.228561,157.935837 193.228561,155.005539 
	C183.758255,155.005539 174.675049,155.005539 165.647476,155.005539 
	C165.647476,206.845581 165.647476,258.395752 165.647476,310.097778 
	C174.925751,310.097778 183.875229,310.097778 193.228912,310.097778 
	C193.228912,261.455536 193.228912,212.998077 193.228561,163.558441 
M1092.953613,530.615173 
	C1092.953613,539.223145 1092.953613,547.831055 1092.953613,556.630859 
	C1097.276978,556.630859 1101.040405,556.630859 1104.922119,556.630859 
	C1104.922119,543.489929 1105.458618,530.490173 1104.746704,517.559143 
	C1104.209351,507.797333 1097.068604,502.283478 1087.305542,501.849731 
	C1079.378540,501.497528 1073.315552,504.932892 1068.065308,511.017273 
	C1064.306152,504.879120 1059.261108,502.065033 1052.541748,501.800385 
	C1045.739380,501.532440 1040.725830,504.865143 1035.945679,509.997467 
	C1035.701904,507.022736 1035.543457,505.090729 1035.387817,503.192261 
	C1031.171143,503.192261 1027.278198,503.192261 1023.345337,503.192261 
	C1023.345337,521.132141 1023.345337,538.726440 1023.345337,556.518921 
	C1027.484131,556.518921 1031.365479,556.518921 1035.670654,556.518921 
	C1035.670654,551.752869 1035.642334,547.285034 1035.677368,542.817688 
	C1035.728394,536.321655 1035.492798,529.799927 1035.997437,523.337463 
	C1036.482178,517.128235 1041.065674,513.190674 1046.881104,513.058594 
	C1052.871460,512.922607 1056.873657,516.515320 1057.773071,523.111694 
	C1058.108643,525.572510 1058.029419,528.097778 1058.037476,530.593994 
	C1058.065308,539.203613 1058.048096,547.813354 1058.048096,556.627075 
	C1062.362427,556.627075 1066.121948,556.627075 1070.389526,556.627075 
	C1070.389526,552.483215 1070.330933,548.515991 1070.402100,544.551147 
	C1070.536499,537.064331 1070.299683,529.532898 1071.065796,522.107483 
	C1071.670410,516.245178 1076.085571,513.126892 1081.854248,513.075500 
	C1087.598999,513.024292 1091.398071,516.143066 1092.511719,522.189575 
	C1092.959961,524.622498 1092.823853,527.163025 1092.953613,530.615173 
M1151.488403,503.822845 
	C1140.909302,499.660919 1131.706909,501.680695 1123.740234,511.178436 
	C1123.509521,507.723816 1123.358521,505.463074 1123.204712,503.160645 
	C1119.084106,503.160645 1115.192505,503.160645 1111.204956,503.160645 
	C1111.204956,530.573608 1111.204956,557.666016 1111.204956,585.262024 
	C1113.018433,584.986328 1115.505249,585.267273 1115.968262,584.429626 
	C1118.723267,579.445557 1122.075439,574.418030 1123.171631,568.989990 
	C1124.402832,562.893066 1123.454712,556.356018 1123.454712,549.356445 
	C1135.149658,558.996033 1144.257812,560.142822 1154.260742,554.487732 
	C1171.261353,544.876526 1171.826904,513.170959 1151.488403,503.822845 
M982.827515,524.182739 
	C970.941833,528.052002 965.208618,537.608215 970.001892,547.198608 
	C971.888550,550.973511 975.913330,554.543213 979.820190,556.270508 
	C988.770447,560.227539 997.263062,557.633728 1004.984558,551.261536 
	C1005.222046,553.420715 1005.394531,554.988403 1005.560120,556.494019 
	C1009.809021,556.494019 1013.693054,556.494019 1017.763062,556.494019 
	C1017.763062,545.168945 1018.116089,534.193542 1017.665344,523.251282 
	C1017.199585,511.943634 1011.942017,505.205688 1002.450989,503.050842 
	C992.585876,500.811035 983.042786,502.164490 973.510559,506.657562 
	C974.600220,509.925476 975.619690,512.982666 976.717834,516.275757 
	C978.703064,515.666443 980.240295,514.890137 981.829590,514.762390 
	C987.064148,514.342163 992.415283,513.410034 997.537659,514.080261 
	C1003.253235,514.828003 1005.386230,518.872925 1004.914795,523.997803 
	C997.757568,523.997803 990.698242,523.997803 982.827515,524.182739 
M1285.632935,565.278931 
	C1281.385498,563.559265 1277.138062,561.839600 1272.681152,560.035156 
	C1271.661133,561.816956 1270.620117,563.635193 1269.446533,565.685364 
	C1277.279663,570.953003 1285.528076,573.342285 1294.624878,573.172058 
	C1311.564697,572.854919 1320.938477,563.576050 1321.075317,546.743591 
	C1321.136353,539.245361 1321.088013,531.746277 1321.088623,524.247559 
	C1321.089111,517.153748 1321.088745,510.059967 1321.088745,502.972656 
	C1318.064331,502.972656 1315.654297,502.972656 1312.751709,502.972656 
	C1312.751709,505.789246 1312.751709,508.296814 1312.751709,511.206299 
	C1299.506836,499.328766 1284.953857,498.513153 1274.351440,508.633728 
	C1265.035889,517.525940 1264.173218,533.087891 1272.519287,543.172302 
	C1276.494873,547.975891 1281.702271,550.894653 1287.806641,551.896423 
	C1297.798584,553.536194 1305.942749,549.838257 1312.622925,541.681824 
	C1314.514648,559.067017 1307.157593,566.958313 1290.910889,566.023743 
	C1289.418823,565.937927 1287.935791,565.689880 1285.632935,565.278931 
M1187.922485,535.529419 
	C1190.579102,547.930359 1198.630371,555.821167 1210.561279,557.717285 
	C1221.330444,559.428833 1232.140503,555.216064 1236.796021,547.411987 
	C1234.554199,545.522766 1232.299805,543.622925 1229.978149,541.666443 
	C1223.161865,547.484802 1215.926392,550.069702 1207.688477,545.940918 
	C1203.142700,543.662476 1200.680176,539.769958 1200.207642,534.051086 
	C1213.569580,534.051086 1226.484009,534.051086 1239.976196,534.051086 
	C1239.588013,529.910522 1239.607666,526.224182 1238.844116,522.708069 
	C1236.579834,512.281555 1230.773315,504.733856 1219.923584,502.465088 
	C1209.491699,500.283691 1200.401611,503.090057 1193.562012,511.595398 
	C1188.118286,518.364868 1186.832886,526.271729 1187.922485,535.529419 
M896.058167,310.500000 
	C896.058167,243.754318 896.058167,177.008621 896.058167,110.284653 
	C893.620178,110.284653 891.848022,110.284653 889.875732,110.284653 
	C889.875732,195.547180 889.875732,280.589417 889.875732,365.746094 
	C892.046387,365.746094 893.917358,365.746094 896.058167,365.746094 
	C896.058167,347.451752 896.058167,329.475891 896.058167,310.500000 
M837.109985,510.352509 
	C837.109985,500.588837 837.109985,490.825165 837.109985,480.521057 
	C834.049194,480.728577 831.694580,480.888245 829.390991,481.044434 
	C829.390991,506.340210 829.390991,531.080566 829.390991,555.923096 
	C832.016296,555.923096 834.271362,555.923096 836.786316,555.923096 
	C837.018860,553.007690 837.229797,550.363098 837.495300,547.034607 
	C838.775635,548.379028 839.444824,549.101929 840.135315,549.803894 
	C848.695435,558.505920 859.581299,560.030884 870.196899,554.019165 
	C880.791992,548.019104 885.917297,534.615112 882.483948,521.454224 
	C879.980225,511.856384 874.008850,505.165192 864.440491,502.478912 
	C855.006165,499.830292 846.724060,502.419922 839.967834,509.671478 
	C839.310852,510.376526 838.164490,510.625610 837.109985,510.352509 
M1505.330688,573.006836 
	C1505.897705,571.518188 1506.916016,570.041138 1506.954224,568.539001 
	C1507.130005,561.650757 1507.031616,554.755554 1507.031616,547.324585 
	C1521.338623,559.596252 1534.081177,560.571655 1544.721191,550.716736 
	C1554.995972,541.200134 1556.343750,522.836365 1547.522827,511.451813 
	C1542.406006,504.848267 1535.566650,501.590057 1527.222656,501.558594 
	C1518.881104,501.527130 1512.731934,505.916779 1506.806030,513.320557 
	C1506.806030,508.717041 1506.806030,505.822479 1506.806030,503.020386 
	C1503.961060,503.020386 1501.569946,503.020386 1499.254517,503.020386 
	C1499.254517,526.462158 1499.254517,549.532410 1499.254517,573.015625 
	C1501.142578,573.015625 1502.771484,573.015625 1505.330688,573.006836 
M1382.347412,552.191772 
	C1394.975708,560.537598 1410.576416,558.995850 1419.953125,548.475525 
	C1429.160645,538.145203 1429.641968,522.131042 1421.055176,511.810577 
	C1410.477051,499.096771 1391.042480,497.995178 1379.406494,509.450012 
	C1367.465210,521.205505 1368.526245,540.254517 1382.347412,552.191772 
M1445.574829,506.006165 
	C1444.766235,499.295135 1440.347168,503.915894 1437.735474,502.792023 
	C1437.735474,515.595398 1437.227173,527.768433 1437.891724,539.877075 
	C1438.453125,550.106079 1445.556641,556.314636 1455.743530,557.427673 
	C1464.017456,558.331543 1470.467285,555.030640 1476.045044,548.054077 
	C1476.225708,551.407227 1476.347046,553.659607 1476.480225,556.130737 
	C1479.135010,556.130737 1481.534912,556.130737 1484.087402,556.130737 
	C1484.087402,538.280273 1484.087402,520.701233 1484.087402,502.877777 
	C1481.476074,502.877777 1479.078857,502.877777 1476.237671,502.877777 
	C1476.237671,513.429504 1476.391968,523.714172 1476.193848,533.992004 
	C1476.000366,544.033752 1469.454224,550.290283 1459.800415,550.099182 
	C1450.746582,549.919922 1445.696655,544.216431 1445.602661,533.873352 
	C1445.520996,524.882751 1445.577881,515.890930 1445.574829,506.006165 
M916.034668,543.255920 
	C910.865906,531.370605 905.688538,519.489014 900.531982,507.598389 
	C898.011719,501.786774 897.119019,501.386841 889.954163,503.246979 
	C890.153870,504.000153 890.249512,504.807709 890.572021,505.511230 
	C897.636902,520.922546 904.656189,536.355469 911.869873,551.697083 
	C913.363953,554.874634 913.599060,557.600342 911.648438,560.586121 
	C908.534302,565.352661 904.789490,567.362976 898.799377,565.615845 
	C893.641541,564.111572 892.757019,566.573975 892.153748,570.380188 
	C902.839783,576.364502 913.504211,573.869568 918.348267,563.056091 
	C927.037476,543.658997 934.791565,523.842834 942.897034,504.185547 
	C943.044861,503.826935 942.700073,503.265167 942.597717,502.849121 
	C937.287170,501.130280 934.503845,502.765564 932.671082,508.246368 
	C929.037598,519.111816 924.583984,529.703796 920.437927,540.396545 
	C919.709412,542.275330 918.826965,544.094482 917.752625,546.539490 
	C916.961426,545.086853 916.646179,544.508118 916.034668,543.255920 
M1171.010742,494.060760 
	C1171.010742,514.826599 1171.010742,535.592407 1171.010742,556.480042 
	C1175.447388,556.480042 1179.312134,556.480042 1183.263672,556.480042 
	C1183.263672,530.694153 1183.263672,505.277405 1183.263672,478.530212 
	C1180.863403,479.743896 1178.571655,480.160187 1177.650635,481.510986 
	C1175.139648,485.194122 1173.207520,489.271851 1171.010742,494.060760 
M1335.718872,507.871765 
	C1335.718872,523.934814 1335.718872,539.997864 1335.718872,556.027588 
	C1338.705322,556.027588 1341.125488,556.027588 1343.788208,556.027588 
	C1343.788208,548.740234 1343.826294,541.772644 1343.779785,534.805542 
	C1343.701294,523.024048 1349.102539,511.396820 1364.889648,510.062744 
	C1365.137573,510.041779 1365.354492,509.655792 1365.473755,509.544678 
	C1365.473755,506.995117 1365.473755,504.564240 1365.473755,501.957397 
	C1355.505005,501.316101 1349.552612,507.189240 1343.688232,515.362854 
	C1343.688232,510.284637 1343.688232,506.695160 1343.688232,502.876373 
	C1340.918091,502.876373 1338.509277,502.876373 1335.718262,502.876373 
	C1335.718262,504.383209 1335.718262,505.678284 1335.718872,507.871765 
M187.489059,133.086899 
	C194.243286,127.470100 195.996857,120.511620 192.377533,113.688484 
	C189.030350,107.378426 182.023117,104.307053 175.521408,106.300209 
	C167.311539,108.817024 162.834457,117.996941 165.965714,125.893486 
	C169.427872,134.624527 177.839172,137.685440 187.489059,133.086899 
M610.860046,355.849274 
	C610.961426,354.191925 611.295471,352.509918 611.122986,350.881592 
	C610.466553,344.687073 607.095093,340.418243 601.330261,338.179199 
	C595.757812,336.014862 590.734741,337.474915 586.629272,341.482666 
	C582.390137,345.620911 580.912048,350.793945 582.686157,356.597260 
	C584.555298,362.711304 589.791138,366.827118 595.855225,367.142731 
	C602.349915,367.480743 607.206116,364.032593 610.860046,355.849274 
z"/>
<path fill="#FCFCFC" opacity="1.000000" stroke="none" 
	d="
M230.027359,154.744522 
	C235.843338,154.744522 241.162338,154.744522 246.986542,154.744522 
	C247.455902,158.402969 247.905151,161.904633 248.481049,166.393555 
	C254.934280,157.423981 262.012848,150.819412 273.182434,150.835876 
	C284.502106,150.852570 291.656189,156.320084 295.417267,167.409851 
	C297.677979,164.857117 299.666016,162.533203 301.738007,160.286743 
	C309.567902,151.797623 319.063446,148.794739 330.242615,152.020462 
	C338.471222,154.394791 342.147003,160.785324 343.495361,168.596191 
	C344.483521,174.320175 345.205750,180.170517 345.228516,185.967773 
	C345.386932,226.297775 345.333679,266.628632 345.332336,306.959198 
	C345.332275,307.931458 345.146912,308.903687 345.028931,310.063416 
	C336.259918,310.063416 327.636200,310.063416 318.302246,310.063416 
	C318.302246,308.209991 318.302185,306.451630 318.302277,304.693268 
	C318.304047,268.529022 318.369598,232.364578 318.239197,196.200821 
	C318.219513,190.745804 317.564758,185.248688 316.687317,179.855057 
	C315.973755,175.468796 312.971588,172.726379 308.421173,172.505432 
	C303.787903,172.280472 300.008698,174.297409 299.010773,179.005325 
	C297.916504,184.167877 297.161530,189.508331 297.139130,194.774994 
	C296.983826,231.271866 297.057953,267.769714 297.058441,304.267273 
	C297.058441,306.070679 297.058441,307.874084 297.058441,309.974365 
	C287.976990,309.974365 279.227081,309.974365 269.776855,309.974365 
	C269.776855,308.177673 269.776825,306.252045 269.776855,304.326416 
	C269.777649,267.995514 269.813080,231.664551 269.734833,195.333832 
	C269.725189,190.851074 269.378632,186.328918 268.709045,181.897430 
	C267.787476,175.798279 264.364624,172.535095 259.494598,172.419205 
	C254.471329,172.299667 250.858932,175.136902 249.620453,181.167786 
	C248.655930,185.864639 248.158691,190.738678 248.143097,195.536240 
	C248.024887,231.866745 248.076859,268.197784 248.075760,304.528687 
	C248.075714,306.172119 248.075745,307.815521 248.075745,309.760956 
	C239.068649,309.760956 230.337753,309.760956 221.309204,309.760956 
	C221.309204,258.261780 221.309204,206.853439 221.309204,154.744522 
	C224.016495,154.744522 226.773422,154.744522 230.027359,154.744522 
z"/>
<path fill="#FBFBFB" opacity="1.000000" stroke="none" 
	d="
M527.936401,293.091309 
	C526.966431,293.224060 525.680420,293.506226 525.057251,294.305298 
	C516.845642,304.834778 505.940704,308.558594 493.697693,304.970123 
	C487.148132,303.050415 482.275848,298.970673 480.438721,292.533752 
	C478.630615,286.198669 477.163635,279.523407 477.085602,272.979065 
	C476.734222,243.502289 476.849213,214.018570 477.006500,184.538452 
	C477.032928,179.586044 477.674683,174.545273 478.754333,169.706482 
	C482.726074,151.906128 501.788208,144.557144 516.832886,155.097900 
	C520.833801,157.901001 524.080566,161.780411 527.889771,165.369293 
	C528.419983,162.175201 528.993042,158.723022 529.606689,155.026733 
	C538.221863,155.026733 546.644592,155.026733 555.491699,155.026733 
	C555.568542,156.467087 555.712708,157.908554 555.712646,159.350037 
	C555.712036,214.482056 555.798767,269.614502 555.571533,324.745636 
	C555.539612,332.504456 554.475281,340.356903 552.982605,347.988739 
	C550.808533,359.103882 543.814331,366.230896 532.711731,368.951477 
	C522.191345,371.529419 511.585785,371.643311 501.044769,369.120728 
	C490.120544,366.506439 482.426178,359.941162 479.794098,348.920502 
	C477.892334,340.957733 477.334656,332.673981 476.114777,324.092102 
	C486.370697,324.092102 495.285614,324.092102 505.231812,324.092102 
	C505.231812,329.379730 504.809418,334.696350 505.329987,339.918915 
	C506.126801,347.913147 510.196136,351.543549 516.709045,350.905090 
	C521.500610,350.435394 524.983887,348.004639 525.987854,343.231842 
	C526.973694,338.545258 527.737305,333.730865 527.841980,328.955994 
	C528.101196,317.136047 527.927979,305.306641 527.936401,293.091309 
M504.147217,205.501907 
	C504.147949,224.318848 504.072144,243.136322 504.202332,261.952362 
	C504.235565,266.760345 504.561584,271.627350 505.396820,276.353455 
	C506.467377,282.410858 510.038269,285.229156 515.589478,285.331451 
	C521.309204,285.436829 524.768250,282.915741 526.252808,276.895996 
	C527.161377,273.212006 527.838318,269.362671 527.854248,265.584381 
	C527.954041,241.940048 527.890503,218.294479 527.744934,194.650162 
	C527.719421,190.508850 527.306946,186.328339 526.621155,182.241776 
	C525.388794,174.897797 521.722656,171.666763 515.491760,171.897491 
	C509.464355,172.120667 505.721771,175.819656 505.089935,183.072342 
	C504.469910,190.189316 504.437531,197.357452 504.147217,205.501907 
z"/>
<path fill="#FBFBFB" opacity="1.000000" stroke="none" 
	d="
M743.126038,265.930145 
	C743.346741,239.622437 743.487732,213.803192 743.905762,187.988419 
	C743.975037,183.714005 745.064087,179.416092 746.012268,175.203384 
	C748.896301,162.388412 756.627136,153.901413 769.746826,152.087158 
	C778.213257,150.916428 787.065979,150.730881 795.534485,151.790451 
	C809.620300,153.552795 817.392273,162.837341 820.143616,176.418472 
	C821.165710,181.463715 822.181335,186.610123 822.268799,191.726334 
	C822.541443,207.676804 822.368652,223.634888 822.368652,240.019928 
	C805.563354,240.019928 788.676514,240.019928 770.727600,240.019928 
	C771.317078,255.224884 771.557739,269.996887 772.618347,284.709808 
	C773.062683,290.873322 777.382812,293.830139 783.186523,293.879456 
	C789.002319,293.928864 792.570129,291.110779 793.633972,284.615601 
	C794.516418,279.227295 794.678101,273.710480 794.975281,268.240601 
	C795.162231,264.798767 795.010193,261.338501 795.010193,257.664490 
	C804.282043,257.664490 813.059937,257.664490 822.421753,257.664490 
	C822.764648,271.832184 823.253845,285.916443 815.710693,298.740875 
	C811.490417,305.916199 804.893005,310.635406 796.901794,311.458801 
	C787.419373,312.435852 777.609131,312.638275 768.199646,311.324127 
	C755.641663,309.570221 748.407471,300.873199 745.960449,288.675079 
	C744.493469,281.362366 744.045105,273.845306 743.126038,265.930145 
M770.834473,204.500504 
	C770.834473,210.074646 770.834473,215.648788 770.834473,221.202545 
	C779.289917,221.202545 787.030212,221.202545 795.573914,221.202545 
	C794.992920,207.069992 794.839600,193.273453 793.701294,179.558685 
	C793.054626,171.768250 788.238220,168.787949 780.884521,169.898819 
	C775.989563,170.638260 773.006958,173.889832 772.279968,180.621414 
	C771.460266,188.212112 771.288391,195.872772 770.834473,204.500504 
z"/>
<path fill="#FCFCFC" opacity="1.000000" stroke="none" 
	d="
M395.407715,215.305420 
	C404.462555,213.773697 413.138123,212.386322 423.106201,210.792236 
	C422.355255,199.910416 421.875000,188.673248 420.674103,177.513641 
	C420.144409,172.591553 416.068787,170.405746 411.292755,170.114929 
	C406.524963,169.824600 402.284698,171.445938 401.135406,176.326447 
	C399.667114,182.561462 399.193787,189.030777 398.237854,195.778931 
	C390.569122,195.778931 382.356079,195.778931 373.230194,195.778931 
	C374.003876,188.306870 374.257477,180.994125 375.607819,173.889832 
	C377.981293,161.402878 385.902740,154.136292 398.437927,151.986893 
	C409.068390,150.164078 419.680695,150.074860 430.090057,153.196121 
	C441.908417,156.739883 447.285553,165.651794 448.991425,177.174469 
	C449.720764,182.100845 450.114502,187.122406 450.127258,192.102097 
	C450.224976,230.256104 450.192444,268.410461 450.191650,306.564697 
	C450.191650,307.539948 450.092285,308.515198 450.024200,309.766907 
	C441.439209,309.766907 433.039307,309.766907 424.262817,309.766907 
	C423.750153,306.189850 423.242432,302.647430 422.608063,298.221252 
	C421.197144,299.906158 420.200348,301.048279 419.256073,302.232361 
	C414.986115,307.586426 409.802185,311.568024 403.002991,313.158722 
	C387.702240,316.738373 375.658752,309.212280 372.467499,293.892548 
	C371.655762,289.995819 371.046051,285.988281 370.970581,282.019745 
	C370.742554,270.028015 370.605682,258.026276 370.835541,246.036118 
	C371.150330,229.612320 378.750854,220.227264 395.407715,215.305420 
M422.167633,263.498260 
	C422.167633,252.632431 422.167633,241.766602 422.167633,230.540100 
	C418.595886,230.990524 415.948883,231.213333 413.343506,231.672394 
	C402.951324,233.503357 398.373199,238.695801 398.076263,249.329575 
	C397.872131,256.639771 397.806061,263.968262 398.090393,271.272552 
	C398.276337,276.049988 398.838654,280.879547 399.883331,285.539825 
	C401.184387,291.344055 405.103149,294.061859 410.630859,293.870789 
	C416.183258,293.678864 420.023499,290.707489 420.794922,284.824036 
	C421.676086,278.103821 421.747345,271.277466 422.167633,263.498260 
z"/>
<path fill="#FDFDFD" opacity="1.000000" stroke="none" 
	d="
M646.033264,310.056396 
	C643.081543,310.056396 640.624451,310.056396 637.914429,310.056396 
	C637.914429,258.191681 637.914429,206.778641 637.914429,155.047333 
	C646.364136,155.047333 654.781128,155.047333 663.616394,155.047333 
	C664.071472,158.440613 664.543213,161.958786 665.126953,166.311508 
	C670.080872,159.680740 675.075684,153.628998 682.762512,152.350067 
	C688.800842,151.345444 695.298462,151.538239 701.346069,152.600266 
	C707.211182,153.630234 711.234558,158.147110 712.800354,164.016068 
	C714.166077,169.134827 715.688354,174.428986 715.716248,179.653259 
	C715.947449,222.956833 715.847229,266.262177 715.847229,309.918823 
	C707.057312,309.918823 698.159851,309.918823 688.523376,309.918823 
	C688.523376,308.056580 688.527100,306.139984 688.522766,304.223389 
	C688.436340,265.731628 688.381348,227.239746 688.200745,188.748444 
	C688.186157,185.632889 687.661133,182.413818 686.751587,179.432510 
	C685.289429,174.639755 681.384583,172.090240 676.482605,172.456039 
	C671.625793,172.818481 667.647156,174.837204 666.683716,180.068573 
	C665.816101,184.779495 665.032898,189.590256 665.015076,194.359985 
	C664.878601,230.853943 664.938477,267.348633 664.937317,303.843109 
	C664.937256,305.663605 664.937317,307.484131 664.937317,310.056396 
	C658.693359,310.056396 652.610596,310.056396 646.033264,310.056396 
z"/>
<path fill="#EEEEEE" opacity="1.000000" stroke="none" 
	d="
M1198.908203,390.919983 
	C1190.614258,397.157867 1181.213257,398.590302 1171.657959,398.610992 
	C1114.838623,398.734070 1058.018677,398.729401 1001.199707,398.531036 
	C995.625793,398.511597 989.797729,397.651154 984.536499,395.861572 
	C970.133545,390.962585 962.646973,380.103455 961.063171,365.280975 
	C960.268860,357.847443 960.214417,350.310852 960.209534,342.820618 
	C960.163147,271.502838 960.147095,200.184875 960.287537,128.867310 
	C960.302490,121.245140 960.605774,113.470901 962.107727,106.036377 
	C965.139709,91.028877 975.959229,81.294182 991.095764,78.916321 
	C995.191650,78.272896 999.383423,77.974182 1003.531677,77.969673 
	C1059.352295,77.908913 1115.173950,77.759972 1170.992188,78.124718 
	C1178.616699,78.174538 1186.781738,79.609985 1193.716919,82.643326 
	C1206.242310,88.121658 1211.927246,99.260307 1212.917114,112.610016 
	C1213.532227,120.907539 1213.672119,129.255432 1213.675171,137.580841 
	C1213.700806,208.231750 1213.714600,278.882904 1213.515503,349.533386 
	C1213.494019,357.131317 1212.493896,364.793335 1211.220581,372.302338 
	C1209.916382,379.993805 1205.242798,385.901123 1198.908203,390.919983 
M1207.244385,260.500153 
	C1207.244385,223.343552 1207.275146,186.186890 1207.226318,149.030365 
	C1207.210815,137.202255 1207.291626,125.360977 1206.776367,113.549797 
	C1206.107422,98.211243 1196.616821,87.616882 1181.557373,85.114372 
	C1176.497314,84.273491 1171.283691,84.083847 1166.138916,84.070259 
	C1126.816650,83.966339 1087.493896,83.952484 1048.171387,83.969124 
	C1031.676880,83.976105 1015.175781,83.862717 998.689819,84.280991 
	C981.345154,84.721046 970.497437,93.622124 967.538574,109.555275 
	C966.664124,114.264221 966.650146,119.176636 966.642822,123.996407 
	C966.535217,194.809814 966.476868,265.623322 966.463562,336.436829 
	C966.461975,345.097717 966.549377,353.771576 967.015076,362.416840 
	C967.931274,379.426300 978.252258,390.094910 995.164490,391.873535 
	C997.646729,392.134583 1000.151489,392.303619 1002.646057,392.306183 
	C1058.128784,392.363617 1113.611572,392.401459 1169.094360,392.400757 
	C1172.420776,392.400726 1175.765137,392.206512 1179.070557,391.832184 
	C1195.614380,389.958374 1205.903320,379.080414 1206.858032,362.466003 
	C1207.096680,358.310272 1207.151367,354.139618 1207.158081,349.975586 
	C1207.206299,320.483826 1207.219727,290.992004 1207.244385,260.500153 
z"/>
<path fill="#FBFBFB" opacity="1.000000" stroke="none" 
	d="
M611.931946,197.999664 
	C611.397339,235.622284 610.869507,272.744904 610.336914,310.201385 
	C601.132568,310.201385 592.251648,310.201385 582.963867,310.201385 
	C582.075378,258.654205 581.189331,207.247696 580.296631,155.454865 
	C590.926331,155.454865 601.330322,155.454865 611.938721,155.454865 
	C611.938721,169.352982 611.938721,183.426331 611.931946,197.999664 
z"/>
<path fill="#FBFBFB" opacity="1.000000" stroke="none" 
	d="
M193.228729,164.049530 
	C193.228912,212.998077 193.228912,261.455536 193.228912,310.097778 
	C183.875229,310.097778 174.925751,310.097778 165.647476,310.097778 
	C165.647476,258.395752 165.647476,206.845581 165.647476,155.005539 
	C174.675049,155.005539 183.758255,155.005539 193.228561,155.005539 
	C193.228561,157.935837 193.228561,160.747131 193.228729,164.049530 
z"/>
<path fill="#F7F7F7" opacity="1.000000" stroke="none" 
	d="
M1092.953613,530.134888 
	C1092.823853,527.163025 1092.959961,524.622498 1092.511719,522.189575 
	C1091.398071,516.143066 1087.598999,513.024292 1081.854248,513.075500 
	C1076.085571,513.126892 1071.670410,516.245178 1071.065796,522.107483 
	C1070.299683,529.532898 1070.536499,537.064331 1070.402100,544.551147 
	C1070.330933,548.515991 1070.389526,552.483215 1070.389526,556.627075 
	C1066.121948,556.627075 1062.362427,556.627075 1058.048096,556.627075 
	C1058.048096,547.813354 1058.065308,539.203613 1058.037476,530.593994 
	C1058.029419,528.097778 1058.108643,525.572510 1057.773071,523.111694 
	C1056.873657,516.515320 1052.871460,512.922607 1046.881104,513.058594 
	C1041.065674,513.190674 1036.482178,517.128235 1035.997437,523.337463 
	C1035.492798,529.799927 1035.728394,536.321655 1035.677368,542.817688 
	C1035.642334,547.285034 1035.670654,551.752869 1035.670654,556.518921 
	C1031.365479,556.518921 1027.484131,556.518921 1023.345337,556.518921 
	C1023.345337,538.726440 1023.345337,521.132141 1023.345337,503.192261 
	C1027.278198,503.192261 1031.171143,503.192261 1035.387817,503.192261 
	C1035.543457,505.090729 1035.701904,507.022736 1035.945679,509.997467 
	C1040.725830,504.865143 1045.739380,501.532440 1052.541748,501.800385 
	C1059.261108,502.065033 1064.306152,504.879120 1068.065308,511.017273 
	C1073.315552,504.932892 1079.378540,501.497528 1087.305542,501.849731 
	C1097.068604,502.283478 1104.209351,507.797333 1104.746704,517.559143 
	C1105.458618,530.490173 1104.922119,543.489929 1104.922119,556.630859 
	C1101.040405,556.630859 1097.276978,556.630859 1092.953613,556.630859 
	C1092.953613,547.831055 1092.953613,539.223145 1092.953613,530.134888 
z"/>
<path fill="#F8F8F8" opacity="1.000000" stroke="none" 
	d="
M1151.848389,503.961060 
	C1171.826904,513.170959 1171.261353,544.876526 1154.260742,554.487732 
	C1144.257812,560.142822 1135.149658,558.996033 1123.454712,549.356445 
	C1123.454712,556.356018 1124.402832,562.893066 1123.171631,568.989990 
	C1122.075439,574.418030 1118.723267,579.445557 1115.968262,584.429626 
	C1115.505249,585.267273 1113.018433,584.986328 1111.204956,585.262024 
	C1111.204956,557.666016 1111.204956,530.573608 1111.204956,503.160645 
	C1115.192505,503.160645 1119.084106,503.160645 1123.204712,503.160645 
	C1123.358521,505.463074 1123.509521,507.723816 1123.740234,511.178436 
	C1131.706909,501.680695 1140.909302,499.660919 1151.848389,503.961060 
M1147.656250,544.354797 
	C1155.376221,539.298584 1155.847900,526.026794 1151.520020,519.517822 
	C1148.360107,514.765442 1142.027100,511.456726 1137.039551,512.522278 
	C1130.098755,514.005127 1125.433716,518.040649 1123.778320,525.150696 
	C1122.093140,532.389038 1123.564087,538.901855 1129.332764,543.681274 
	C1134.735107,548.157104 1140.894043,548.269043 1147.656250,544.354797 
z"/>
<path fill="#F5F5F5" opacity="1.000000" stroke="none" 
	d="
M983.233276,524.090271 
	C990.698242,523.997803 997.757568,523.997803 1004.914795,523.997803 
	C1005.386230,518.872925 1003.253235,514.828003 997.537659,514.080261 
	C992.415283,513.410034 987.064148,514.342163 981.829590,514.762390 
	C980.240295,514.890137 978.703064,515.666443 976.717834,516.275757 
	C975.619690,512.982666 974.600220,509.925476 973.510559,506.657562 
	C983.042786,502.164490 992.585876,500.811035 1002.450989,503.050842 
	C1011.942017,505.205688 1017.199585,511.943634 1017.665344,523.251282 
	C1018.116089,534.193542 1017.763062,545.168945 1017.763062,556.494019 
	C1013.693054,556.494019 1009.809021,556.494019 1005.560120,556.494019 
	C1005.394531,554.988403 1005.222046,553.420715 1004.984558,551.261536 
	C997.263062,557.633728 988.770447,560.227539 979.820190,556.270508 
	C975.913330,554.543213 971.888550,550.973511 970.001892,547.198608 
	C965.208618,537.608215 970.941833,528.052002 983.233276,524.090271 
M1005.745789,536.502502 
	C1005.243469,535.571777 1004.921875,534.013428 1004.210571,533.808594 
	C997.907715,531.993774 991.354065,530.647644 985.292908,533.924866 
	C983.245667,535.031738 981.384460,538.279541 981.274902,540.634399 
	C981.178162,542.714294 983.132507,545.730835 985.055298,546.917114 
	C993.192261,551.937378 1003.999634,546.712463 1005.745789,536.502502 
z"/>
<path fill="#F3F3F3" opacity="1.000000" stroke="none" 
	d="
M1286.040771,565.398071 
	C1287.935791,565.689880 1289.418823,565.937927 1290.910889,566.023743 
	C1307.157593,566.958313 1314.514648,559.067017 1312.622925,541.681824 
	C1305.942749,549.838257 1297.798584,553.536194 1287.806641,551.896423 
	C1281.702271,550.894653 1276.494873,547.975891 1272.519287,543.172302 
	C1264.173218,533.087891 1265.035889,517.525940 1274.351440,508.633728 
	C1284.953857,498.513153 1299.506836,499.328766 1312.751709,511.206299 
	C1312.751709,508.296814 1312.751709,505.789246 1312.751709,502.972656 
	C1315.654297,502.972656 1318.064331,502.972656 1321.088745,502.972656 
	C1321.088745,510.059967 1321.089111,517.153748 1321.088623,524.247559 
	C1321.088013,531.746277 1321.136353,539.245361 1321.075317,546.743591 
	C1320.938477,563.576050 1311.564697,572.854919 1294.624878,573.172058 
	C1285.528076,573.342285 1277.279663,570.953003 1269.446533,565.685364 
	C1270.620117,563.635193 1271.661133,561.816956 1272.681152,560.035156 
	C1277.138062,561.839600 1281.385498,563.559265 1286.040771,565.398071 
M1297.863525,509.061981 
	C1289.655884,507.800720 1282.518188,509.663300 1277.880005,516.973022 
	C1273.919434,523.214783 1273.920044,529.906067 1277.782471,536.261169 
	C1282.313477,543.715820 1290.698486,546.705322 1299.460815,544.332397 
	C1307.399536,542.182556 1313.076416,535.221313 1313.226074,527.452454 
	C1313.401855,518.333069 1308.776123,512.521240 1297.863525,509.061981 
z"/>
<path fill="#F8F8F8" opacity="1.000000" stroke="none" 
	d="
M1187.874146,535.111328 
	C1186.832886,526.271729 1188.118286,518.364868 1193.562012,511.595398 
	C1200.401611,503.090057 1209.491699,500.283691 1219.923584,502.465088 
	C1230.773315,504.733856 1236.579834,512.281555 1238.844116,522.708069 
	C1239.607666,526.224182 1239.588013,529.910522 1239.976196,534.051086 
	C1226.484009,534.051086 1213.569580,534.051086 1200.207642,534.051086 
	C1200.680176,539.769958 1203.142700,543.662476 1207.688477,545.940918 
	C1215.926392,550.069702 1223.161865,547.484802 1229.978149,541.666443 
	C1232.299805,543.622925 1234.554199,545.522766 1236.796021,547.411987 
	C1232.140503,555.216064 1221.330444,559.428833 1210.561279,557.717285 
	C1198.630371,555.821167 1190.579102,547.930359 1187.874146,535.111328 
M1200.077148,524.021057 
	C1200.722656,524.681885 1201.359375,525.907654 1202.015137,525.917908 
	C1210.309204,526.048279 1218.606201,526.003601 1226.915283,526.003601 
	C1226.428711,516.329590 1219.800171,510.491302 1211.201294,512.108215 
	C1205.122437,513.251282 1202.018311,517.635315 1200.077148,524.021057 
z"/>
<path fill="#FFFFFF" opacity="1.000000" stroke="none" 
	d="
M896.058167,311.000000 
	C896.058167,329.475891 896.058167,347.451752 896.058167,365.746094 
	C893.917358,365.746094 892.046387,365.746094 889.875732,365.746094 
	C889.875732,280.589417 889.875732,195.547180 889.875732,110.284653 
	C891.848022,110.284653 893.620178,110.284653 896.058167,110.284653 
	C896.058167,177.008621 896.058167,243.754318 896.058167,311.000000 
z"/>
<path fill="#6B6B6C" opacity="1.000000" stroke="none" 
	d="
M837.177612,510.719421 
	C838.164490,510.625610 839.310852,510.376526 839.967834,509.671478 
	C846.724060,502.419922 855.006165,499.830292 864.440491,502.478912 
	C874.008850,505.165192 879.980225,511.856384 882.483948,521.454224 
	C885.917297,534.615112 880.791992,548.019104 870.196899,554.019165 
	C859.581299,560.030884 848.695435,558.505920 840.135315,549.803894 
	C839.444824,549.101929 838.775635,548.379028 837.495300,547.034607 
	C837.229797,550.363098 837.018860,553.007690 836.786316,555.923096 
	C834.271362,555.923096 832.016296,555.923096 829.390991,555.923096 
	C829.390991,531.080566 829.390991,506.340210 829.390991,481.044434 
	C831.694580,480.888245 834.049194,480.728577 837.109985,480.521057 
	C837.109985,490.825165 837.109985,500.588837 837.177612,510.719421 
M864.652771,548.543457 
	C874.084412,541.717102 876.964600,534.056213 874.242859,523.035156 
	C872.036377,514.100586 864.261780,508.282410 855.104065,508.881317 
	C846.940979,509.415131 841.328857,513.939453 838.444519,521.246887 
	C835.305908,529.198547 836.147461,537.091309 842.073486,543.648438 
	C848.042908,550.253723 855.529358,551.754883 864.652771,548.543457 
z"/>
<path fill="#F3F3F3" opacity="1.000000" stroke="none" 
	d="
M1504.865479,573.011230 
	C1502.771484,573.015625 1501.142578,573.015625 1499.254517,573.015625 
	C1499.254517,549.532410 1499.254517,526.462158 1499.254517,503.020386 
	C1501.569946,503.020386 1503.961060,503.020386 1506.806030,503.020386 
	C1506.806030,505.822479 1506.806030,508.717041 1506.806030,513.320557 
	C1512.731934,505.916779 1518.881104,501.527130 1527.222656,501.558594 
	C1535.566650,501.590057 1542.406006,504.848267 1547.522827,511.451813 
	C1556.343750,522.836365 1554.995972,541.200134 1544.721191,550.716736 
	C1534.081177,560.571655 1521.338623,559.596252 1507.031616,547.324585 
	C1507.031616,554.755554 1507.130005,561.650757 1506.954224,568.539001 
	C1506.916016,570.041138 1505.897705,571.518188 1504.865479,573.011230 
M1507.196777,524.279053 
	C1507.129028,527.267517 1506.720337,530.295105 1507.058105,533.237000 
	C1508.032471,541.725342 1515.196289,548.993103 1523.206055,549.999329 
	C1532.596191,551.178833 1540.502563,546.662659 1543.597534,538.351440 
	C1547.378784,528.197571 1544.146606,516.797424 1536.026855,511.648651 
	C1525.291992,504.841583 1512.664551,510.064758 1507.196777,524.279053 
z"/>
<path fill="#F3F3F3" opacity="1.000000" stroke="none" 
	d="
M1382.055664,551.981201 
	C1368.526245,540.254517 1367.465210,521.205505 1379.406494,509.450012 
	C1391.042480,497.995178 1410.477051,499.096771 1421.055176,511.810577 
	C1429.641968,522.131042 1429.160645,538.145203 1419.953125,548.475525 
	C1410.576416,558.995850 1394.975708,560.537598 1382.055664,551.981201 
M1379.447388,527.696899 
	C1379.661255,530.177734 1379.623779,532.711243 1380.131592,535.130371 
	C1382.560791,546.703430 1395.816040,553.591797 1406.569824,548.977600 
	C1415.898315,544.974915 1420.586426,535.262634 1418.335327,524.603333 
	C1416.355835,515.230103 1408.050049,508.445618 1398.694702,508.560181 
	C1388.708130,508.682465 1381.476807,515.590576 1379.447388,527.696899 
z"/>
<path fill="#EEEEEE" opacity="1.000000" stroke="none" 
	d="
M1445.574219,506.452911 
	C1445.577881,515.890930 1445.520996,524.882751 1445.602661,533.873352 
	C1445.696655,544.216431 1450.746582,549.919922 1459.800415,550.099182 
	C1469.454224,550.290283 1476.000366,544.033752 1476.193848,533.992004 
	C1476.391968,523.714172 1476.237671,513.429504 1476.237671,502.877777 
	C1479.078857,502.877777 1481.476074,502.877777 1484.087402,502.877777 
	C1484.087402,520.701233 1484.087402,538.280273 1484.087402,556.130737 
	C1481.534912,556.130737 1479.135010,556.130737 1476.480225,556.130737 
	C1476.347046,553.659607 1476.225708,551.407227 1476.045044,548.054077 
	C1470.467285,555.030640 1464.017456,558.331543 1455.743530,557.427673 
	C1445.556641,556.314636 1438.453125,550.106079 1437.891724,539.877075 
	C1437.227173,527.768433 1437.735474,515.595398 1437.735474,502.792023 
	C1440.347168,503.915894 1444.766235,499.295135 1445.574219,506.452911 
z"/>
<path fill="#6B6B6C" opacity="1.000000" stroke="none" 
	d="
M916.182800,543.592651 
	C916.646179,544.508118 916.961426,545.086853 917.752625,546.539490 
	C918.826965,544.094482 919.709412,542.275330 920.437927,540.396545 
	C924.583984,529.703796 929.037598,519.111816 932.671082,508.246368 
	C934.503845,502.765564 937.287170,501.130280 942.597717,502.849121 
	C942.700073,503.265167 943.044861,503.826935 942.897034,504.185547 
	C934.791565,523.842834 927.037476,543.658997 918.348267,563.056091 
	C913.504211,573.869568 902.839783,576.364502 892.153748,570.380188 
	C892.757019,566.573975 893.641541,564.111572 898.799377,565.615845 
	C904.789490,567.362976 908.534302,565.352661 911.648438,560.586121 
	C913.599060,557.600342 913.363953,554.874634 911.869873,551.697083 
	C904.656189,536.355469 897.636902,520.922546 890.572021,505.511230 
	C890.249512,504.807709 890.153870,504.000153 889.954163,503.246979 
	C897.119019,501.386841 898.011719,501.786774 900.531982,507.598389 
	C905.688538,519.489014 910.865906,531.370605 916.182800,543.592651 
z"/>
<path fill="#F9F9F9" opacity="1.000000" stroke="none" 
	d="
M1171.028320,493.627014 
	C1173.207520,489.271851 1175.139648,485.194122 1177.650635,481.510986 
	C1178.571655,480.160187 1180.863403,479.743896 1183.263672,478.530212 
	C1183.263672,505.277405 1183.263672,530.694153 1183.263672,556.480042 
	C1179.312134,556.480042 1175.447388,556.480042 1171.010742,556.480042 
	C1171.010742,535.592407 1171.010742,514.826599 1171.028320,493.627014 
z"/>
<path fill="#F3F3F3" opacity="1.000000" stroke="none" 
	d="
M1335.718506,507.422577 
	C1335.718262,505.678284 1335.718262,504.383209 1335.718262,502.876373 
	C1338.509277,502.876373 1340.918091,502.876373 1343.688232,502.876373 
	C1343.688232,506.695160 1343.688232,510.284637 1343.688232,515.362854 
	C1349.552612,507.189240 1355.505005,501.316101 1365.473755,501.957397 
	C1365.473755,504.564240 1365.473755,506.995117 1365.473755,509.544678 
	C1365.354492,509.655792 1365.137573,510.041779 1364.889648,510.062744 
	C1349.102539,511.396820 1343.701294,523.024048 1343.779785,534.805542 
	C1343.826294,541.772644 1343.788208,548.740234 1343.788208,556.027588 
	C1341.125488,556.027588 1338.705322,556.027588 1335.718872,556.027588 
	C1335.718872,539.997864 1335.718872,523.934814 1335.718506,507.422577 
z"/>
<path fill="#F9F9F9" opacity="1.000000" stroke="none" 
	d="
M187.185104,133.295807 
	C177.839172,137.685440 169.427872,134.624527 165.965714,125.893486 
	C162.834457,117.996941 167.311539,108.817024 175.521408,106.300209 
	C182.023117,104.307053 189.030350,107.378426 192.377533,113.688484 
	C195.996857,120.511620 194.243286,127.470100 187.185104,133.295807 
z"/>
<path fill="#F9F9F9" opacity="1.000000" stroke="none" 
	d="
M610.749146,356.247589 
	C607.206116,364.032593 602.349915,367.480743 595.855225,367.142731 
	C589.791138,366.827118 584.555298,362.711304 582.686157,356.597260 
	C580.912048,350.793945 582.390137,345.620911 586.629272,341.482666 
	C590.734741,337.474915 595.757812,336.014862 601.330261,338.179199 
	C607.095093,340.418243 610.466553,344.687073 611.122986,350.881592 
	C611.295471,352.509918 610.961426,354.191925 610.749146,356.247589 
z"/>
<path fill="#060606" opacity="1.000000" stroke="none" 
	d="
M504.147217,205.002533 
	C504.437531,197.357452 504.469910,190.189316 505.089935,183.072342 
	C505.721771,175.819656 509.464355,172.120667 515.491760,171.897491 
	C521.722656,171.666763 525.388794,174.897797 526.621155,182.241776 
	C527.306946,186.328339 527.719421,190.508850 527.744934,194.650162 
	C527.890503,218.294479 527.954041,241.940048 527.854248,265.584381 
	C527.838318,269.362671 527.161377,273.212006 526.252808,276.895996 
	C524.768250,282.915741 521.309204,285.436829 515.589478,285.331451 
	C510.038269,285.229156 506.467377,282.410858 505.396820,276.353455 
	C504.561584,271.627350 504.235565,266.760345 504.202332,261.952362 
	C504.072144,243.136322 504.147949,224.318848 504.147217,205.002533 
z"/>
<path fill="#060606" opacity="1.000000" stroke="none" 
	d="
M770.834595,204.001755 
	C771.288391,195.872772 771.460266,188.212112 772.279968,180.621414 
	C773.006958,173.889832 775.989563,170.638260 780.884521,169.898819 
	C788.238220,168.787949 793.054626,171.768250 793.701294,179.558685 
	C794.839600,193.273453 794.992920,207.069992 795.573914,221.202545 
	C787.030212,221.202545 779.289917,221.202545 770.834473,221.202545 
	C770.834473,215.648788 770.834473,210.074646 770.834595,204.001755 
z"/>
<path fill="#040404" opacity="1.000000" stroke="none" 
	d="
M422.169067,263.997742 
	C421.747345,271.277466 421.676086,278.103821 420.794922,284.824036 
	C420.023499,290.707489 416.183258,293.678864 410.630859,293.870789 
	C405.103149,294.061859 401.184387,291.344055 399.883331,285.539825 
	C398.838654,280.879547 398.276337,276.049988 398.090393,271.272552 
	C397.806061,263.968262 397.872131,256.639771 398.076263,249.329575 
	C398.373199,238.695801 402.951324,233.503357 413.343506,231.672394 
	C415.948883,231.213333 418.595886,230.990524 422.167633,230.540100 
	C422.167633,241.766602 422.167633,252.632431 422.169067,263.997742 
z"/>
<path fill="#020202" opacity="1.000000" stroke="none" 
	d="
M1207.244385,261.000183 
	C1207.219727,290.992004 1207.206299,320.483826 1207.158081,349.975586 
	C1207.151367,354.139618 1207.096680,358.310272 1206.858032,362.466003 
	C1205.903320,379.080414 1195.614380,389.958374 1179.070557,391.832184 
	C1175.765137,392.206512 1172.420776,392.400726 1169.094360,392.400757 
	C1113.611572,392.401459 1058.128784,392.363617 1002.646057,392.306183 
	C1000.151489,392.303619 997.646729,392.134583 995.164490,391.873535 
	C978.252258,390.094910 967.931274,379.426300 967.015076,362.416840 
	C966.549377,353.771576 966.461975,345.097717 966.463562,336.436829 
	C966.476868,265.623322 966.535217,194.809814 966.642822,123.996407 
	C966.650146,119.176636 966.664124,114.264221 967.538574,109.555275 
	C970.497437,93.622124 981.345154,84.721046 998.689819,84.280991 
	C1015.175781,83.862717 1031.676880,83.976105 1048.171387,83.969124 
	C1087.493896,83.952484 1126.816650,83.966339 1166.138916,84.070259 
	C1171.283691,84.083847 1176.497314,84.273491 1181.557373,85.114372 
	C1196.616821,87.616882 1206.107422,98.211243 1206.776367,113.549797 
	C1207.291626,125.360977 1207.210815,137.202255 1207.226318,149.030365 
	C1207.275146,186.186890 1207.244385,223.343552 1207.244385,261.000183 
M1051.777222,150.102219 
	C1042.389648,155.049759 1036.180054,162.717422 1033.892334,172.977722 
	C1027.936523,199.690231 1037.426025,222.020309 1054.463135,241.931168 
	C1060.246948,248.690491 1067.581787,250.299042 1075.648926,246.482056 
	C1084.857910,242.124771 1093.725098,242.134689 1103.055054,246.403793 
	C1111.578735,250.303909 1118.863403,248.966278 1124.614502,241.581558 
	C1130.479004,234.051300 1134.907471,225.408279 1140.043701,217.302643 
	C1142.151245,213.976776 1141.054810,212.348404 1137.833984,210.368301 
	C1120.790405,199.890015 1118.859497,176.853485 1133.682861,163.356247 
	C1135.113159,162.053848 1136.576050,160.787338 1137.998779,159.526428 
	C1128.418335,146.667572 1113.699097,142.941101 1097.121094,149.806946 
	C1090.433838,152.576523 1084.518066,152.739319 1078.053223,149.697662 
	C1069.610596,145.725433 1060.986816,145.689804 1051.777222,150.102219 
M1091.875732,144.467819 
	C1105.923950,140.703552 1115.706665,126.956657 1113.395996,114.227150 
	C1099.083130,113.940346 1084.075684,131.077271 1087.226562,144.931198 
	C1088.492188,144.858566 1089.796387,144.783707 1091.875732,144.467819 
M1140.089600,283.531342 
	C1138.034180,283.233459 1136.547607,283.375488 1136.619019,286.182404 
	C1136.770752,292.152161 1136.665283,298.128479 1136.665283,304.338318 
	C1138.271606,304.338318 1139.485352,304.338318 1141.088989,304.338318 
	C1141.088989,299.998840 1140.691772,295.799622 1141.276367,291.741852 
	C1141.524536,290.019745 1143.592407,287.672119 1145.256836,287.239777 
	C1148.097412,286.502014 1149.227417,288.822754 1149.199097,291.563202 
	C1149.164551,294.895630 1149.293335,298.232758 1149.161743,301.560364 
	C1149.028564,304.928589 1150.709351,305.005341 1153.599609,304.079895 
	C1153.599609,300.065918 1153.150635,296.017761 1153.792603,292.150604 
	C1154.105103,290.266815 1156.218018,287.631897 1157.933716,287.259003 
	C1161.083618,286.574493 1161.941650,289.322357 1161.915039,292.145142 
	C1161.876221,296.255920 1161.905029,300.367310 1161.905029,304.478455 
	C1162.532349,304.737244 1163.159546,304.996063 1163.786865,305.254852 
	C1164.647827,303.922699 1166.140137,302.640350 1166.250000,301.248901 
	C1166.563354,297.277313 1166.553833,293.241547 1166.225098,289.267944 
	C1165.822144,284.400970 1161.283447,281.758301 1156.765259,283.591461 
	C1155.277588,284.195038 1153.992798,285.298523 1152.633545,286.161835 
	C1148.599609,282.475250 1147.511841,282.322144 1142.885620,284.356140 
	C1142.344360,284.594116 1141.469849,284.074402 1140.089600,283.531342 
M1097.409424,286.608704 
	C1093.362671,281.963531 1090.972412,281.883911 1084.313721,286.214447 
	C1080.161621,279.186737 1073.743408,287.227692 1068.776123,282.616455 
	C1068.776123,290.665802 1068.776123,297.413452 1068.776123,304.182343 
	C1071.479736,305.016663 1073.131714,304.880737 1072.980591,301.535309 
	C1072.823120,298.051178 1072.555908,294.470673 1073.199341,291.096802 
	C1073.496216,289.539185 1075.845215,288.372864 1077.263794,287.029114 
	C1078.565674,288.412689 1080.708862,289.643463 1080.993774,291.211853 
	C1081.578735,294.431671 1081.301025,297.839081 1081.131104,301.156586 
	C1080.957886,304.537323 1082.364868,305.246399 1085.721069,304.012756 
	C1085.721069,299.935730 1085.334839,295.757263 1085.904175,291.713348 
	C1086.144165,290.008240 1088.158325,287.668427 1089.792236,287.239197 
	C1092.666260,286.484100 1093.744995,288.871765 1093.759155,291.551788 
	C1093.776855,294.878082 1093.905640,298.209778 1093.760254,301.529236 
	C1093.618652,304.758484 1095.151245,305.106567 1097.766724,304.254761 
	C1097.766724,298.584076 1097.766724,292.981354 1097.409424,286.608704 
M1021.520813,294.556000 
	C1027.328613,291.719269 1029.070557,288.886566 1028.211670,283.283752 
	C1027.552124,278.981201 1024.844482,276.334381 1020.632507,275.917328 
	C1016.559814,275.514038 1012.415771,275.829926 1008.354980,275.829926 
	C1008.354980,285.653381 1008.354980,295.042908 1008.354980,304.726318 
	C1016.237549,304.352325 1010.538391,297.647064 1014.006348,294.768341 
	C1015.786987,294.768341 1018.248596,294.768341 1021.520813,294.556000 
M1026.231445,340.556671 
	C1025.984863,334.916321 1030.283936,337.583710 1032.599854,337.338867 
	C1038.509033,336.713989 1041.953979,333.545074 1042.047485,327.936066 
	C1042.140869,322.332123 1038.792725,318.608337 1032.960693,318.221252 
	C1029.385498,317.983978 1025.781616,318.177368 1021.944092,318.177368 
	C1021.944092,327.841034 1021.939941,336.939880 1021.964172,346.038635 
	C1021.964905,346.312347 1022.263184,346.585266 1022.563354,347.099426 
	C1023.690552,346.974762 1024.922363,346.838531 1026.239868,346.692841 
	C1026.239868,344.700775 1026.239868,343.050262 1026.231445,340.556671 
M1059.017700,347.020813 
	C1061.157227,347.401855 1062.521729,347.064148 1062.369751,344.331573 
	C1062.175903,340.846924 1062.215698,337.340454 1062.333984,333.849457 
	C1062.488525,329.284485 1060.458984,326.599487 1055.932617,325.871674 
	C1050.435791,324.987762 1047.196167,326.812592 1045.064087,333.115173 
	C1047.571533,331.867462 1049.057861,330.861511 1050.697754,330.386658 
	C1052.343994,329.909973 1054.369629,329.393921 1055.803955,329.964172 
	C1056.941040,330.416290 1057.435913,332.483917 1058.528076,334.374390 
	C1054.784790,334.736115 1052.112549,334.781342 1049.534302,335.296814 
	C1046.210327,335.961395 1044.128906,338.202667 1044.423706,341.644379 
	C1044.708740,344.972443 1046.808228,347.287079 1050.323486,347.243164 
	C1052.352539,347.217834 1054.352051,346.166901 1056.404297,345.794556 
	C1056.962158,345.693359 1057.662964,346.380188 1059.017700,347.020813 
M1131.432129,284.488922 
	C1130.058350,284.145203 1128.684448,283.801514 1126.876465,283.349182 
	C1126.876465,288.389069 1127.369507,292.631195 1126.643921,296.653503 
	C1126.335693,298.362793 1123.474487,299.611572 1121.773438,301.069641 
	C1120.451050,299.507996 1118.300171,298.097107 1117.982666,296.352509 
	C1117.366333,292.967651 1117.929199,289.383911 1117.664673,285.908356 
	C1117.597290,285.021423 1116.261353,284.231018 1115.508179,283.396301 
	C1114.724487,284.197662 1113.305664,284.967621 1113.264404,285.805664 
	C1113.059204,289.952789 1112.970093,294.138733 1113.317749,298.270844 
	C1113.668579,302.441956 1116.098022,305.093079 1120.523682,304.908142 
	C1124.001709,304.762817 1127.459106,304.125122 1131.513916,303.635071 
	C1131.513916,297.915588 1131.513916,291.624725 1131.432129,284.488922 
M1062.879517,287.762329 
	C1059.332764,283.212036 1055.302490,281.902954 1050.777832,283.831543 
	C1046.653687,285.589355 1044.391113,290.462555 1045.101440,296.058441 
	C1045.728638,301.000183 1048.707397,304.243103 1053.208740,304.884644 
	C1058.336914,305.615479 1061.581665,303.721313 1064.205322,297.420319 
	C1061.654785,298.654358 1060.153076,299.701416 1058.495483,300.100220 
	C1056.511963,300.577454 1054.130005,301.155945 1052.417603,300.462769 
	C1050.973145,299.878082 1050.239258,297.538666 1048.558472,295.033386 
	C1054.754639,295.033386 1059.367432,295.033386 1064.667236,295.033386 
	C1064.099731,292.531433 1063.637817,290.495667 1062.879517,287.762329 
M1131.805054,347.310486 
	C1134.205933,345.737183 1136.606934,344.163879 1139.007812,342.590576 
	C1138.597168,341.896454 1138.186646,341.202301 1137.776001,340.508179 
	C1136.229004,341.254669 1134.611938,341.885315 1133.148193,342.769592 
	C1128.940552,345.311676 1125.381470,343.482056 1124.530762,337.772766 
	C1129.303345,337.772766 1134.017822,337.772766 1138.693237,337.772766 
	C1139.050293,330.344513 1136.255981,326.369019 1130.651123,325.769348 
	C1124.523926,325.113739 1120.356323,328.809570 1119.871704,335.328491 
	C1119.272827,343.384430 1122.899902,347.325195 1131.805054,347.310486 
M1115.658936,342.285706 
	C1115.571045,338.791382 1115.656250,335.281677 1115.347534,331.806976 
	C1115.026611,328.196899 1112.849609,325.809784 1109.191284,325.801575 
	C1105.288208,325.792847 1101.383667,326.460388 1097.186157,326.860687 
	C1097.186157,332.476624 1097.249634,338.295258 1097.164185,344.111694 
	C1097.106201,348.054565 1099.216675,347.293121 1101.790161,346.626068 
	C1101.790161,342.496643 1101.252930,338.570251 1102.001099,334.906403 
	C1102.418213,332.863373 1104.717773,330.136932 1106.621460,329.702759 
	C1109.895386,328.956055 1111.015503,331.817688 1111.008667,334.849915 
	C1110.999756,338.812286 1111.006592,342.774719 1111.006592,346.624664 
	C1114.896729,347.957336 1116.049561,346.500214 1115.658936,342.285706 
M1092.791748,326.658539 
	C1091.597778,326.256378 1090.403809,325.854218 1089.252808,325.466522 
	C1089.029541,323.799988 1088.819702,322.233948 1088.609863,320.667938 
	C1088.122314,320.384277 1087.634644,320.100647 1087.147095,319.817017 
	C1086.159790,321.056976 1085.136353,322.270233 1084.192383,323.542328 
	C1082.172607,326.264374 1080.834473,328.752838 1084.029175,331.913910 
	C1085.024048,332.898193 1084.164185,335.735138 1084.193726,337.723358 
	C1084.218262,339.377991 1084.170654,341.049072 1084.386719,342.682190 
	C1084.829712,346.030029 1086.967651,347.609161 1090.223389,347.473480 
	C1091.141602,347.435181 1092.025391,346.573090 1092.925049,346.088776 
	C1092.420532,345.393677 1091.868042,344.727875 1091.421753,343.997223 
	C1090.583008,342.623718 1089.280518,341.273315 1089.111328,339.804932 
	C1088.754028,336.704132 1089.002563,333.533478 1089.002563,331.025909 
	C1090.603149,329.589783 1091.771851,328.541077 1092.791748,326.658539 
M1039.930542,283.341339 
	C1037.419800,283.557190 1034.909058,283.773041 1032.167969,284.008667 
	C1032.167969,289.834259 1032.294678,295.479370 1032.124023,301.115448 
	C1032.008179,304.939636 1033.645874,305.308136 1036.018677,304.313934 
	C1039.476562,298.381165 1031.550781,288.806610 1044.941406,286.282166 
	C1042.796753,284.716919 1041.723877,283.933838 1039.930542,283.341339 
M1147.666382,345.981964 
	C1147.693115,342.328552 1147.268677,338.591309 1147.925903,335.055054 
	C1148.285400,333.120422 1150.468872,331.522064 1151.838135,329.778625 
	C1152.693726,328.689270 1153.564819,327.612122 1154.966064,325.856476 
	C1150.022583,326.131104 1146.769287,326.311829 1143.207275,326.509735 
	C1143.207275,332.412079 1143.305786,338.213837 1143.169067,344.010040 
	C1143.091431,347.304626 1144.677002,347.610535 1147.666382,345.981964 
M1073.165161,330.774872 
	C1074.702759,330.265259 1076.240479,329.755676 1078.497314,329.007690 
	C1077.872681,327.865479 1077.303589,325.900238 1076.708984,325.892487 
	C1073.620728,325.852325 1070.525879,326.311371 1067.118164,326.625580 
	C1067.118164,329.893707 1067.118164,333.187195 1067.118164,336.480682 
	C1067.118164,339.920105 1067.118164,343.359528 1067.118164,346.759369 
	C1071.762451,347.027069 1071.699585,347.024109 1071.877563,343.246887 
	C1072.062622,339.317444 1072.385986,335.394470 1073.165161,330.774872 
M1107.990723,295.453979 
	C1107.990723,291.520355 1107.990723,287.586731 1107.990723,283.653076 
	C1107.366455,283.374023 1106.742310,283.094971 1106.118042,282.815948 
	C1105.226074,284.096191 1103.654297,285.330627 1103.564453,286.664948 
	C1103.240356,291.470306 1103.547852,296.314453 1103.361450,301.134064 
	C1103.212891,304.973907 1104.944702,305.192169 1107.990967,304.066711 
	C1107.990967,301.396118 1107.990967,298.909058 1107.990723,295.453979 
z"/>
<path fill="#060606" opacity="1.000000" stroke="none" 
	d="
M1147.349365,544.577881 
	C1140.894043,548.269043 1134.735107,548.157104 1129.332764,543.681274 
	C1123.564087,538.901855 1122.093140,532.389038 1123.778320,525.150696 
	C1125.433716,518.040649 1130.098755,514.005127 1137.039551,512.522278 
	C1142.027100,511.456726 1148.360107,514.765442 1151.520020,519.517822 
	C1155.847900,526.026794 1155.376221,539.298584 1147.349365,544.577881 
z"/>
<path fill="#0A0A0A" opacity="1.000000" stroke="none" 
	d="
M1005.721619,536.901367 
	C1003.999634,546.712463 993.192261,551.937378 985.055298,546.917114 
	C983.132507,545.730835 981.178162,542.714294 981.274902,540.634399 
	C981.384460,538.279541 983.245667,535.031738 985.292908,533.924866 
	C991.354065,530.647644 997.907715,531.993774 1004.210571,533.808594 
	C1004.921875,534.013428 1005.243469,535.571777 1005.721619,536.901367 
z"/>
<path fill="#040404" opacity="1.000000" stroke="none" 
	d="
M1298.282959,509.133545 
	C1308.776123,512.521240 1313.401855,518.333069 1313.226074,527.452454 
	C1313.076416,535.221313 1307.399536,542.182556 1299.460815,544.332397 
	C1290.698486,546.705322 1282.313477,543.715820 1277.782471,536.261169 
	C1273.920044,529.906067 1273.919434,523.214783 1277.880005,516.973022 
	C1282.518188,509.663300 1289.655884,507.800720 1298.282959,509.133545 
z"/>
<path fill="#0A0A0A" opacity="1.000000" stroke="none" 
	d="
M1200.184082,523.618896 
	C1202.018311,517.635315 1205.122437,513.251282 1211.201294,512.108215 
	C1219.800171,510.491302 1226.428711,516.329590 1226.915283,526.003601 
	C1218.606201,526.003601 1210.309204,526.048279 1202.015137,525.917908 
	C1201.359375,525.907654 1200.722656,524.681885 1200.184082,523.618896 
z"/>
<path fill="#020202" opacity="1.000000" stroke="none" 
	d="
M864.283569,548.687256 
	C855.529358,551.754883 848.042908,550.253723 842.073486,543.648438 
	C836.147461,537.091309 835.305908,529.198547 838.444519,521.246887 
	C841.328857,513.939453 846.940979,509.415131 855.104065,508.881317 
	C864.261780,508.282410 872.036377,514.100586 874.242859,523.035156 
	C876.964600,534.056213 874.084412,541.717102 864.283569,548.687256 
z"/>
<path fill="#040404" opacity="1.000000" stroke="none" 
	d="
M1507.316895,523.876770 
	C1512.664551,510.064758 1525.291992,504.841583 1536.026855,511.648651 
	C1544.146606,516.797424 1547.378784,528.197571 1543.597534,538.351440 
	C1540.502563,546.662659 1532.596191,551.178833 1523.206055,549.999329 
	C1515.196289,548.993103 1508.032471,541.725342 1507.058105,533.237000 
	C1506.720337,530.295105 1507.129028,527.267517 1507.316895,523.876770 
z"/>
<path fill="#040404" opacity="1.000000" stroke="none" 
	d="
M1379.523438,527.249512 
	C1381.476807,515.590576 1388.708130,508.682465 1398.694702,508.560181 
	C1408.050049,508.445618 1416.355835,515.230103 1418.335327,524.603333 
	C1420.586426,535.262634 1415.898315,544.974915 1406.569824,548.977600 
	C1395.816040,553.591797 1382.560791,546.703430 1380.131592,535.130371 
	C1379.623779,532.711243 1379.661255,530.177734 1379.523438,527.249512 
z"/>
<path fill="#FDFDFD" opacity="1.000000" stroke="none" 
	d="
M1052.127808,149.951782 
	C1060.986816,145.689804 1069.610596,145.725433 1078.053223,149.697662 
	C1084.518066,152.739319 1090.433838,152.576523 1097.121094,149.806946 
	C1113.699097,142.941101 1128.418335,146.667572 1137.998779,159.526428 
	C1136.576050,160.787338 1135.113159,162.053848 1133.682861,163.356247 
	C1118.859497,176.853485 1120.790405,199.890015 1137.833984,210.368301 
	C1141.054810,212.348404 1142.151245,213.976776 1140.043701,217.302643 
	C1134.907471,225.408279 1130.479004,234.051300 1124.614502,241.581558 
	C1118.863403,248.966278 1111.578735,250.303909 1103.055054,246.403793 
	C1093.725098,242.134689 1084.857910,242.124771 1075.648926,246.482056 
	C1067.581787,250.299042 1060.246948,248.690491 1054.463135,241.931168 
	C1037.426025,222.020309 1027.936523,199.690231 1033.892334,172.977722 
	C1036.180054,162.717422 1042.389648,155.049759 1052.127808,149.951782 
z"/>
<path fill="#F7F7F7" opacity="1.000000" stroke="none" 
	d="
M1091.488159,144.588348 
	C1089.796387,144.783707 1088.492188,144.858566 1087.226562,144.931198 
	C1084.075684,131.077271 1099.083130,113.940346 1113.395996,114.227150 
	C1115.706665,126.956657 1105.923950,140.703552 1091.488159,144.588348 
z"/>
<path fill="#E6E6E6" opacity="1.000000" stroke="none" 
	d="
M1140.419678,283.718628 
	C1141.469849,284.074402 1142.344360,284.594116 1142.885620,284.356140 
	C1147.511841,282.322144 1148.599609,282.475250 1152.633545,286.161835 
	C1153.992798,285.298523 1155.277588,284.195038 1156.765259,283.591461 
	C1161.283447,281.758301 1165.822144,284.400970 1166.225098,289.267944 
	C1166.553833,293.241547 1166.563354,297.277313 1166.250000,301.248901 
	C1166.140137,302.640350 1164.647827,303.922699 1163.786865,305.254852 
	C1163.159546,304.996063 1162.532349,304.737244 1161.905029,304.478455 
	C1161.905029,300.367310 1161.876221,296.255920 1161.915039,292.145142 
	C1161.941650,289.322357 1161.083618,286.574493 1157.933716,287.259003 
	C1156.218018,287.631897 1154.105103,290.266815 1153.792603,292.150604 
	C1153.150635,296.017761 1153.599609,300.065918 1153.599609,304.079895 
	C1150.709351,305.005341 1149.028564,304.928589 1149.161743,301.560364 
	C1149.293335,298.232758 1149.164551,294.895630 1149.199097,291.563202 
	C1149.227417,288.822754 1148.097412,286.502014 1145.256836,287.239777 
	C1143.592407,287.672119 1141.524536,290.019745 1141.276367,291.741852 
	C1140.691772,295.799622 1141.088989,299.998840 1141.088989,304.338318 
	C1139.485352,304.338318 1138.271606,304.338318 1136.665283,304.338318 
	C1136.665283,298.128479 1136.770752,292.152161 1136.619019,286.182404 
	C1136.547607,283.375488 1138.034180,283.233459 1140.419678,283.718628 
z"/>
<path fill="#E6E6E6" opacity="1.000000" stroke="none" 
	d="
M1097.588135,286.993652 
	C1097.766724,292.981354 1097.766724,298.584076 1097.766724,304.254761 
	C1095.151245,305.106567 1093.618652,304.758484 1093.760254,301.529236 
	C1093.905640,298.209778 1093.776855,294.878082 1093.759155,291.551788 
	C1093.744995,288.871765 1092.666260,286.484100 1089.792236,287.239197 
	C1088.158325,287.668427 1086.144165,290.008240 1085.904175,291.713348 
	C1085.334839,295.757263 1085.721069,299.935730 1085.721069,304.012756 
	C1082.364868,305.246399 1080.957886,304.537323 1081.131104,301.156586 
	C1081.301025,297.839081 1081.578735,294.431671 1080.993774,291.211853 
	C1080.708862,289.643463 1078.565674,288.412689 1077.263794,287.029114 
	C1075.845215,288.372864 1073.496216,289.539185 1073.199341,291.096802 
	C1072.555908,294.470673 1072.823120,298.051178 1072.980591,301.535309 
	C1073.131714,304.880737 1071.479736,305.016663 1068.776123,304.182343 
	C1068.776123,297.413452 1068.776123,290.665802 1068.776123,282.616455 
	C1073.743408,287.227692 1080.161621,279.186737 1084.313721,286.214447 
	C1090.972412,281.883911 1093.362671,281.963531 1097.588135,286.993652 
z"/>
<path fill="#E6E6E6" opacity="1.000000" stroke="none" 
	d="
M1021.115479,294.662170 
	C1018.248596,294.768341 1015.786987,294.768341 1014.006348,294.768341 
	C1010.538391,297.647064 1016.237549,304.352325 1008.354980,304.726318 
	C1008.354980,295.042908 1008.354980,285.653381 1008.354980,275.829926 
	C1012.415771,275.829926 1016.559814,275.514038 1020.632507,275.917328 
	C1024.844482,276.334381 1027.552124,278.981201 1028.211670,283.283752 
	C1029.070557,288.886566 1027.328613,291.719269 1021.115479,294.662170 
M1014.348694,279.655121 
	C1013.625732,283.315674 1012.902710,286.976227 1012.156311,290.755463 
	C1015.507874,290.755463 1017.885010,291.439941 1019.374634,290.582550 
	C1021.245056,289.506042 1023.316040,287.281830 1023.558411,285.335907 
	C1023.760071,283.716766 1021.752380,281.390747 1020.136780,280.128296 
	C1019.055359,279.283234 1016.947693,279.751434 1014.348694,279.655121 
z"/>
<path fill="#EEEEEE" opacity="1.000000" stroke="none" 
	d="
M1026.235596,340.978210 
	C1026.239868,343.050262 1026.239868,344.700775 1026.239868,346.692841 
	C1024.922363,346.838531 1023.690552,346.974762 1022.563354,347.099426 
	C1022.263184,346.585266 1021.964905,346.312347 1021.964172,346.038635 
	C1021.939941,336.939880 1021.944092,327.841034 1021.944092,318.177368 
	C1025.781616,318.177368 1029.385498,317.983978 1032.960693,318.221252 
	C1038.792725,318.608337 1042.140869,322.332123 1042.047485,327.936066 
	C1041.953979,333.545074 1038.509033,336.713989 1032.599854,337.338867 
	C1030.283936,337.583710 1025.984863,334.916321 1026.235596,340.978210 
M1026.388916,332.691864 
	C1029.642090,332.358978 1033.087036,332.529785 1036.038818,331.405579 
	C1037.003540,331.038208 1037.474731,327.006958 1036.790039,325.165039 
	C1035.324219,321.222290 1031.407349,322.082245 1028.129639,322.070526 
	C1027.664062,322.068848 1027.197510,322.297272 1026.247070,322.545929 
	C1026.247070,325.598602 1026.247070,328.720764 1026.388916,332.691864 
z"/>
<path fill="#EEEEEE" opacity="1.000000" stroke="none" 
	d="
M1058.657959,346.863098 
	C1057.662964,346.380188 1056.962158,345.693359 1056.404297,345.794556 
	C1054.352051,346.166901 1052.352539,347.217834 1050.323486,347.243164 
	C1046.808228,347.287079 1044.708740,344.972443 1044.423706,341.644379 
	C1044.128906,338.202667 1046.210327,335.961395 1049.534302,335.296814 
	C1052.112549,334.781342 1054.784790,334.736115 1058.528076,334.374390 
	C1057.435913,332.483917 1056.941040,330.416290 1055.803955,329.964172 
	C1054.369629,329.393921 1052.343994,329.909973 1050.697754,330.386658 
	C1049.057861,330.861511 1047.571533,331.867462 1045.064087,333.115173 
	C1047.196167,326.812592 1050.435791,324.987762 1055.932617,325.871674 
	C1060.458984,326.599487 1062.488525,329.284485 1062.333984,333.849457 
	C1062.215698,337.340454 1062.175903,340.846924 1062.369751,344.331573 
	C1062.521729,347.064148 1061.157227,347.401855 1058.657959,346.863098 
M1056.233398,342.704071 
	C1056.915161,341.321808 1057.596924,339.939575 1058.736938,337.628021 
	C1055.468262,337.948730 1053.169312,337.904724 1051.056641,338.510162 
	C1050.172729,338.763428 1049.229980,340.369110 1049.169678,341.409546 
	C1049.126831,342.146790 1050.430786,343.482758 1051.292480,343.631592 
	C1052.634399,343.863495 1054.111206,343.314514 1056.233398,342.704071 
z"/>
<path fill="#E6E6E6" opacity="1.000000" stroke="none" 
	d="
M1131.473022,284.911407 
	C1131.513916,291.624725 1131.513916,297.915588 1131.513916,303.635071 
	C1127.459106,304.125122 1124.001709,304.762817 1120.523682,304.908142 
	C1116.098022,305.093079 1113.668579,302.441956 1113.317749,298.270844 
	C1112.970093,294.138733 1113.059204,289.952789 1113.264404,285.805664 
	C1113.305664,284.967621 1114.724487,284.197662 1115.508179,283.396301 
	C1116.261353,284.231018 1117.597290,285.021423 1117.664673,285.908356 
	C1117.929199,289.383911 1117.366333,292.967651 1117.982666,296.352509 
	C1118.300171,298.097107 1120.451050,299.507996 1121.773438,301.069641 
	C1123.474487,299.611572 1126.335693,298.362793 1126.643921,296.653503 
	C1127.369507,292.631195 1126.876465,288.389069 1126.876465,283.349182 
	C1128.684448,283.801514 1130.058350,284.145203 1131.473022,284.911407 
z"/>
<path fill="#E6E6E6" opacity="1.000000" stroke="none" 
	d="
M1063.027832,288.111115 
	C1063.637817,290.495667 1064.099731,292.531433 1064.667236,295.033386 
	C1059.367432,295.033386 1054.754639,295.033386 1048.558472,295.033386 
	C1050.239258,297.538666 1050.973145,299.878082 1052.417603,300.462769 
	C1054.130005,301.155945 1056.511963,300.577454 1058.495483,300.100220 
	C1060.153076,299.701416 1061.654785,298.654358 1064.205322,297.420319 
	C1061.581665,303.721313 1058.336914,305.615479 1053.208740,304.884644 
	C1048.707397,304.243103 1045.728638,301.000183 1045.101440,296.058441 
	C1044.391113,290.462555 1046.653687,285.589355 1050.777832,283.831543 
	C1055.302490,281.902954 1059.332764,283.212036 1063.027832,288.111115 
M1050.915405,291.971130 
	C1053.804810,291.971130 1056.694214,291.971130 1059.583618,291.971130 
	C1059.816284,291.360687 1060.048950,290.750244 1060.281616,290.139801 
	C1058.296021,289.073364 1056.216919,287.052734 1054.353882,287.235504 
	C1052.799316,287.387939 1051.498169,290.122467 1050.915405,291.971130 
z"/>
<path fill="#E6E6E6" opacity="1.000000" stroke="none" 
	d="
M1131.423950,347.388367 
	C1122.899902,347.325195 1119.272827,343.384430 1119.871704,335.328491 
	C1120.356323,328.809570 1124.523926,325.113739 1130.651123,325.769348 
	C1136.255981,326.369019 1139.050293,330.344513 1138.693237,337.772766 
	C1134.017822,337.772766 1129.303345,337.772766 1124.530762,337.772766 
	C1125.381470,343.482056 1128.940552,345.311676 1133.148193,342.769592 
	C1134.611938,341.885315 1136.229004,341.254669 1137.776001,340.508179 
	C1138.186646,341.202301 1138.597168,341.896454 1139.007812,342.590576 
	C1136.606934,344.163879 1134.205933,345.737183 1131.423950,347.388367 
M1127.137085,334.662537 
	C1129.487793,334.662537 1131.838501,334.662537 1134.189209,334.662537 
	C1134.418335,334.042328 1134.647583,333.422089 1134.876831,332.801880 
	C1133.096802,331.628418 1131.361694,329.634216 1129.522949,329.533569 
	C1127.969727,329.448547 1126.296143,331.558838 1124.675903,332.697510 
	C1125.231812,333.359924 1125.787842,334.022339 1127.137085,334.662537 
z"/>
<path fill="#DEDEDE" opacity="1.000000" stroke="none" 
	d="
M1115.660156,342.748627 
	C1116.049561,346.500214 1114.896729,347.957336 1111.006592,346.624664 
	C1111.006592,342.774719 1110.999756,338.812286 1111.008667,334.849915 
	C1111.015503,331.817688 1109.895386,328.956055 1106.621460,329.702759 
	C1104.717773,330.136932 1102.418213,332.863373 1102.001099,334.906403 
	C1101.252930,338.570251 1101.790161,342.496643 1101.790161,346.626068 
	C1099.216675,347.293121 1097.106201,348.054565 1097.164185,344.111694 
	C1097.249634,338.295258 1097.186157,332.476624 1097.186157,326.860687 
	C1101.383667,326.460388 1105.288208,325.792847 1109.191284,325.801575 
	C1112.849609,325.809784 1115.026611,328.196899 1115.347534,331.806976 
	C1115.656250,335.281677 1115.571045,338.791382 1115.660156,342.748627 
z"/>
<path fill="#DEDEDE" opacity="1.000000" stroke="none" 
	d="
M1092.866211,327.075439 
	C1091.771851,328.541077 1090.603149,329.589783 1089.002563,331.025909 
	C1089.002563,333.533478 1088.754028,336.704132 1089.111328,339.804932 
	C1089.280518,341.273315 1090.583008,342.623718 1091.421753,343.997223 
	C1091.868042,344.727875 1092.420532,345.393677 1092.925049,346.088806 
	C1092.025391,346.573090 1091.141602,347.435181 1090.223389,347.473480 
	C1086.967651,347.609161 1084.829712,346.030029 1084.386719,342.682190 
	C1084.170654,341.049072 1084.218262,339.377991 1084.193726,337.723358 
	C1084.164185,335.735138 1085.024048,332.898193 1084.029175,331.913910 
	C1080.834473,328.752838 1082.172607,326.264374 1084.192383,323.542328 
	C1085.136353,322.270233 1086.159790,321.056976 1087.147095,319.817017 
	C1087.634644,320.100647 1088.122314,320.384277 1088.609863,320.667938 
	C1088.819702,322.233948 1089.029541,323.799988 1089.252808,325.466522 
	C1090.403809,325.854218 1091.597778,326.256378 1092.866211,327.075439 
z"/>
<path fill="#DEDEDE" opacity="1.000000" stroke="none" 
	d="
M1040.290771,283.246033 
	C1041.723877,283.933838 1042.796753,284.716919 1044.941406,286.282166 
	C1031.550781,288.806610 1039.476562,298.381165 1036.018677,304.313934 
	C1033.645874,305.308136 1032.008179,304.939636 1032.124023,301.115448 
	C1032.294678,295.479370 1032.167969,289.834259 1032.167969,284.008667 
	C1034.909058,283.773041 1037.419800,283.557190 1040.290771,283.246033 
z"/>
<path fill="#DEDEDE" opacity="1.000000" stroke="none" 
	d="
M1147.445679,346.377258 
	C1144.677002,347.610535 1143.091431,347.304626 1143.169067,344.010040 
	C1143.305786,338.213837 1143.207275,332.412079 1143.207275,326.509735 
	C1146.769287,326.311829 1150.022583,326.131104 1154.966064,325.856476 
	C1153.564819,327.612122 1152.693726,328.689270 1151.838135,329.778625 
	C1150.468872,331.522064 1148.285400,333.120422 1147.925903,335.055054 
	C1147.268677,338.591309 1147.693115,342.328552 1147.445679,346.377258 
z"/>
<path fill="#DEDEDE" opacity="1.000000" stroke="none" 
	d="
M1072.906982,331.121765 
	C1072.385986,335.394470 1072.062622,339.317444 1071.877563,343.246887 
	C1071.699585,347.024109 1071.762451,347.027069 1067.118164,346.759369 
	C1067.118164,343.359528 1067.118164,339.920105 1067.118164,336.480682 
	C1067.118164,333.187195 1067.118164,329.893707 1067.118164,326.625580 
	C1070.525879,326.311371 1073.620728,325.852325 1076.708984,325.892487 
	C1077.303589,325.900238 1077.872681,327.865479 1078.497314,329.007690 
	C1076.240479,329.755676 1074.702759,330.265259 1072.906982,331.121765 
z"/>
<path fill="#DEDEDE" opacity="1.000000" stroke="none" 
	d="
M1107.990845,295.937988 
	C1107.990967,298.909058 1107.990967,301.396118 1107.990967,304.066711 
	C1104.944702,305.192169 1103.212891,304.973907 1103.361450,301.134064 
	C1103.547852,296.314453 1103.240356,291.470306 1103.564453,286.664948 
	C1103.654297,285.330627 1105.226074,284.096191 1106.118042,282.815948 
	C1106.742310,283.094971 1107.366455,283.374023 1107.990723,283.653076 
	C1107.990723,287.586731 1107.990723,291.520355 1107.990845,295.937988 
z"/>
<path fill="#0A0A0A" opacity="1.000000" stroke="none" 
	d="
M1014.823975,279.643555 
	C1016.947693,279.751434 1019.055359,279.283234 1020.136780,280.128296 
	C1021.752380,281.390747 1023.760071,283.716766 1023.558411,285.335907 
	C1023.316040,287.281830 1021.245056,289.506042 1019.374634,290.582550 
	C1017.885010,291.439941 1015.507874,290.755463 1012.156311,290.755463 
	C1012.902710,286.976227 1013.625732,283.315674 1014.823975,279.643555 
z"/>
<path fill="#0A0A0A" opacity="1.000000" stroke="none" 
	d="
M1026.317993,332.267395 
	C1026.247070,328.720764 1026.247070,325.598602 1026.247070,322.545929 
	C1027.197510,322.297272 1027.664062,322.068848 1028.129639,322.070526 
	C1031.407349,322.082245 1035.324219,321.222290 1036.790039,325.165039 
	C1037.474731,327.006958 1037.003540,331.038208 1036.038818,331.405579 
	C1033.087036,332.529785 1029.642090,332.358978 1026.317993,332.267395 
z"/>
<path fill="#0A0A0A" opacity="1.000000" stroke="none" 
	d="
M1055.882080,342.900269 
	C1054.111206,343.314514 1052.634399,343.863495 1051.292480,343.631592 
	C1050.430786,343.482758 1049.126831,342.146790 1049.169678,341.409546 
	C1049.229980,340.369110 1050.172729,338.763428 1051.056641,338.510162 
	C1053.169312,337.904724 1055.468262,337.948730 1058.736938,337.628021 
	C1057.596924,339.939575 1056.915161,341.321808 1055.882080,342.900269 
z"/>
<path fill="#0A0A0A" opacity="1.000000" stroke="none" 
	d="
M1050.500000,291.842285 
	C1051.498169,290.122467 1052.799316,287.387939 1054.353882,287.235504 
	C1056.216919,287.052734 1058.296021,289.073364 1060.281616,290.139801 
	C1060.048950,290.750244 1059.816284,291.360687 1059.583618,291.971130 
	C1056.694214,291.971130 1053.804810,291.971130 1050.500000,291.842285 
z"/>
<path fill="#0A0A0A" opacity="1.000000" stroke="none" 
	d="
M1126.740479,334.673645 
	C1125.787842,334.022339 1125.231812,333.359924 1124.675903,332.697510 
	C1126.296143,331.558838 1127.969727,329.448547 1129.522949,329.533569 
	C1131.361694,329.634216 1133.096802,331.628418 1134.876831,332.801880 
	C1134.647583,333.422089 1134.418335,334.042328 1134.189209,334.662537 
	C1131.838501,334.662537 1129.487793,334.662537 1126.740479,334.673645 
z"/>
</svg>