<?xml version="1.0" encoding="UTF-8"?>
<svg version="1.1" xmlns="http://www.w3.org/2000/svg" width="752" height="588">
<path d="M0 0 C62.7 0 125.4 0 190 0 C190.33 32.34 190.66 64.68 191 98 C193.06832488 96.17460802 193.06832488 96.17460802 193.875 94 C195 92 195 92 197 91.0625 C199.74974044 89.60170039 199.97614748 87.85216059 201 85 C201.66 84.67 202.32 84.34 203 84 C203 56.94 203 29.88 203 2 C208.63039625 3.12607925 208.63039625 3.12607925 211.734375 5.21484375 C212.39050781 5.65376953 213.04664063 6.09269531 213.72265625 6.54492188 C214.39167969 7.00447266 215.06070313 7.46402344 215.75 7.9375 C216.43449219 8.39318359 217.11898437 8.84886719 217.82421875 9.31835938 C222.86282839 12.72565679 222.86282839 12.72565679 224 15 C224.66 15.33 225.32 15.66 226 16 C226.99 16.66 227.98 17.32 229 18 C229.66 18.33 230.32 18.66 231 19 C231.33 29.56 231.66 40.12 232 51 C233.27502723 50.36248638 234.54632463 49.7174183 235.8125 49.0625 C236.534375 48.711875 237.25625 48.36125 238 48 C238.7425 47.62875 239.485 47.2575 240.25 46.875 C243.88401484 45.71872255 247.24256738 45.79162717 251 46 C251.77214844 46.02964844 252.54429687 46.05929688 253.33984375 46.08984375 C260.76272866 46.59623024 263.94740995 49.94740995 269.0625 55.0625 C271.68661634 59.04099897 271.82932461 62.31755786 272 67 C272.03996094 67.84433594 272.07992187 68.68867188 272.12109375 69.55859375 C272.30096998 76.51028089 271.68484773 82.53434431 267 88 C266.34 88.99 265.68 89.98 265 91 C263.66666667 92.33333333 262.33333333 93.66666667 261 95 C260.67 95.66 260.34 96.32 260 97 C258.515 97.495 258.515 97.495 257 98 C254.14922578 99.80241941 254.14922578 99.80241941 252.375 101.4375 C250.06394148 102.95793324 248.24604977 103.62831685 245.625 104.4375 C240.29997067 106.11032994 235.6410276 108.68470779 232 113 C231.69938869 115.96059425 231.58424489 118.71237909 231.60127258 121.67485046 C231.59462576 122.57171171 231.58797893 123.46857295 231.58113068 124.3926118 C231.56241865 127.40988584 231.56511148 130.4267662 231.56762695 133.4440918 C231.55861481 135.60214807 231.54828895 137.7601992 231.53674316 139.91824341 C231.50908281 145.78772666 231.49987639 151.65711304 231.49388909 157.52665305 C231.4845289 163.6566274 231.45832749 169.78652871 231.43388367 175.91645813 C231.39015005 187.52923947 231.36164525 199.1420067 231.33856028 210.75484544 C231.31154535 223.97356877 231.2676316 237.19221886 231.22227156 250.41088998 C231.12932699 277.6072219 231.05829067 304.80357365 231 332 C222.09 332 213.18 332 204 332 C203.67 272.6 203.34 213.2 203 152 C200.7763932 153.9254644 200.7763932 153.9254644 200 157 C199.06870235 158.62001178 198.10679231 160.2225826 197.125 161.8125 C193.38782667 167.86897436 190.63000081 172.48379594 190.60127258 179.75778198 C190.59462576 180.41219336 190.58797893 181.06660473 190.58113068 181.74084675 C190.56257289 183.91967731 190.56510094 186.09795523 190.56762695 188.27685547 C190.55860534 189.84423087 190.54827713 191.41159921 190.53674316 192.97895813 C190.50919384 197.22435391 190.49989147 201.46961574 190.49388909 205.71508932 C190.48450005 210.15541981 190.45829621 214.59565046 190.43388367 219.03591919 C190.3902296 227.43990859 190.36167592 235.8438786 190.33856028 244.24794686 C190.3064419 255.60738733 190.25097108 266.96671228 190.19681454 278.32606506 C190.1121317 296.21734235 190.05862727 314.10857443 190 332 C150.4 332 110.8 332 70 332 C70.33 337.28 70.66 342.56 71 348 C68 355 68 355 65.875 356.25 C65.25625 356.4975 64.6375 356.745 64 357 C63.67 357.99 63.34 358.98 63 360 C57.6061323 363.82065628 52.63127742 364.47192462 46.1875 364.875 C45.43404297 364.92414551 44.68058594 364.97329102 43.90429688 365.02392578 C40.01821328 365.1906468 38.31627456 365.21084971 35 363 C34.319375 362.731875 33.63875 362.46375 32.9375 362.1875 C30.3222913 360.58463015 30.05587724 358.81567264 29 356 C28.01 355.34 27.02 354.68 26 354 C23.25324357 346.7147288 23.86396462 339.68599906 24 332 C15.75 332 7.5 332 -1 332 C-1.33 295.7 -1.66 259.4 -2 222 C-21.47 241.47 -40.94 260.94 -61 281 C-65.08665155 278.95667422 -67.71949865 276.5496677 -70.87011719 273.35693359 C-71.45541828 272.77187357 -72.04071938 272.18681355 -72.64375687 271.58402443 C-74.53283503 269.69345628 -76.41494961 267.79612303 -78.296875 265.8984375 C-79.46390154 264.72846956 -80.63137951 263.55895174 -81.79931641 262.38989258 C-86.12168446 258.05704846 -90.43531521 253.71549524 -94.75 249.375 C-104.4025 239.68125 -114.055 229.9875 -124 220 C-124.495 275.44 -124.495 275.44 -125 332 C-188.03 332 -251.06 332 -316 332 C-316 222.77 -316 113.54 -316 1 C-286.09375 -0.27875 -256.1875 -1.5575 -225.375 -2.875 C-216.07231934 -3.43944824 -206.76963867 -4.00389648 -197.18505859 -4.58544922 C-189.57607251 -4.8473608 -182.00654669 -5.06343262 -174.3984375 -5.0546875 C-173.40829761 -5.0564982 -172.41815772 -5.0583089 -171.39801359 -5.06017447 C-140.62107924 -4.96914931 -120.35106792 1.537395 -98.35098267 23.50509644 C-89.13372723 33.02884589 -80.44866579 43.14652925 -72.5084877 53.76034164 C-72.03073855 54.3907687 -71.5529894 55.02119575 -71.060763 55.67072666 C-70.17770825 56.84537495 -69.31061437 58.03226324 -68.46313512 59.23283112 C-67.20883692 60.99154248 -67.20883692 60.99154248 -65 63 C-60.71744213 62.98530213 -58.64291984 61.11270158 -55.64479065 58.16468811 C-54.84657143 57.34961037 -54.84657143 57.34961037 -54.03222656 56.51806641 C-53.45764206 55.94727859 -52.88305756 55.37649078 -52.2910614 54.78840637 C-50.39767513 52.90241916 -48.51905714 51.00243532 -46.640625 49.1015625 C-45.32810213 47.78665505 -44.01483868 46.47248646 -42.7008667 45.1590271 C-39.95106852 42.40610215 -37.20811656 39.64659176 -34.47021484 36.88183594 C-30.95743064 33.33503898 -27.43159049 29.80158405 -23.90100479 26.27251625 C-21.18956812 23.56053626 -18.4833714 20.84337906 -15.77892303 18.12443161 C-14.48032655 16.8194639 -13.1805091 15.51571003 -11.8794632 14.21318436 C-10.06461016 12.39400376 -8.25649066 10.56839542 -6.45019531 8.74072266 C-5.90995224 8.20138596 -5.36970917 7.66204926 -4.81309509 7.10636902 C-2.49016485 4.74304911 -1.0633168 3.18995041 0 0 Z " fill="#F7F809" transform="translate(417,122)"/>
<path d="M0 0 C5.63039625 1.12607925 5.63039625 1.12607925 8.734375 3.21484375 C9.39050781 3.65376953 10.04664063 4.09269531 10.72265625 4.54492188 C11.39167969 5.00447266 12.06070313 5.46402344 12.75 5.9375 C13.43449219 6.39318359 14.11898437 6.84886719 14.82421875 7.31835938 C19.86282839 10.72565679 19.86282839 10.72565679 21 13 C21.99 13.495 21.99 13.495 23 14 C23.99 14.66 24.98 15.32 26 16 C26.66 16.33 27.32 16.66 28 17 C28.33 27.56 28.66 38.12 29 49 C30.27502723 48.36248638 31.54632463 47.7174183 32.8125 47.0625 C33.534375 46.711875 34.25625 46.36125 35 46 C35.7425 45.62875 36.485 45.2575 37.25 44.875 C40.88401484 43.71872255 44.24256738 43.79162717 48 44 C49.15822266 44.04447266 49.15822266 44.04447266 50.33984375 44.08984375 C57.76272866 44.59623024 60.94740995 47.94740995 66.0625 53.0625 C68.68661634 57.04099897 68.82932461 60.31755786 69 65 C69.03996094 65.84433594 69.07992187 66.68867188 69.12109375 67.55859375 C69.30096998 74.51028089 68.68484773 80.53434431 64 86 C63.34 86.99 62.68 87.98 62 89 C60.66666667 90.33333333 59.33333333 91.66666667 58 93 C57.67 93.66 57.34 94.32 57 95 C56.01 95.33 55.02 95.66 54 96 C51.14922578 97.80241941 51.14922578 97.80241941 49.375 99.4375 C47.06394148 100.95793324 45.24604977 101.62831685 42.625 102.4375 C37.29997067 104.11032994 32.6410276 106.68470779 29 111 C28.69938869 113.96059425 28.58424489 116.71237909 28.60127258 119.67485046 C28.59462576 120.57171171 28.58797893 121.46857295 28.58113068 122.3926118 C28.56241865 125.40988584 28.56511148 128.4267662 28.56762695 131.4440918 C28.55861481 133.60214807 28.54828895 135.7601992 28.53674316 137.91824341 C28.50908281 143.78772666 28.49987639 149.65711304 28.49388909 155.52665305 C28.4845289 161.6566274 28.45832749 167.78652871 28.43388367 173.91645813 C28.39015005 185.52923947 28.36164525 197.1420067 28.33856028 208.75484544 C28.31154535 221.97356877 28.2676316 235.19221886 28.22227156 248.41088998 C28.12932699 275.6072219 28.05829067 302.80357365 28 330 C19.09 330 10.18 330 1 330 C0.67 270.6 0.34 211.2 0 150 C-2.2236068 151.9254644 -2.2236068 151.9254644 -3 155 C-3.95163974 156.66190148 -4.93422167 158.30625284 -5.9375 159.9375 C-8.12023986 163.48427579 -8.12023986 163.48427579 -10.00390625 167.19140625 C-11 169 -11 169 -14 171 C-15.25026434 173.172146 -16.36136854 175.30569859 -17.4375 177.5625 C-17.77604004 178.25939941 -18.11458008 178.95629883 -18.46337891 179.67431641 C-19.22511151 181.24532668 -19.98335915 182.8180298 -20.73876953 184.39208984 C-22.08447658 187.1746765 -23.46069434 189.94087798 -24.83984375 192.70703125 C-34.739678 212.72394253 -43.44140258 233.32634604 -49 255 C-49.23203125 255.88816406 -49.4640625 256.77632813 -49.703125 257.69140625 C-50.72785888 262.13435957 -51.09301892 266.42755418 -51.28320312 270.98510742 C-51.63813595 279.25900699 -52.20739324 285.30463956 -58.4375 291.375 C-63.51397361 294.59422717 -67.95904801 295.86764122 -74 295 C-83.94167073 291.98840955 -90.07397462 285.89253653 -95 277 C-96.4290795 273.99216696 -97.64353875 270.92973 -98.8125 267.8125 C-99.15015381 266.91595703 -99.48780762 266.01941406 -99.83569336 265.09570312 C-109.79175945 237.83345504 -115.65095943 208.92689177 -121.875 180.625 C-122.10221237 179.59492325 -122.10221237 179.59492325 -122.33401489 178.54403687 C-122.76492994 176.58474446 -123.19114172 174.62441948 -123.6171875 172.6640625 C-123.86065918 171.54467285 -124.10413086 170.4252832 -124.35498047 169.27197266 C-128.82549539 146.59451583 -128.82549539 146.59451583 -123.8125 138.25 C-120.28600241 133.7400566 -116.43831572 130.81534687 -111 129 C-107.84375 128.69921875 -107.84375 128.69921875 -104.5 128.6875 C-103.3965625 128.67074219 -102.293125 128.65398437 -101.15625 128.63671875 C-96.34566427 129.19041241 -93.79580285 131.25971828 -90.3125 134.5 C-83.14821289 143.77943115 -84.75516407 161.96886876 -83.82543945 173.25195312 C-83.64458955 190.64769728 -83.64458955 190.64769728 -78 206 C-74.61522847 206.55987739 -74.61522847 206.55987739 -71 205 C-68.59857348 201.24756574 -67.24259415 197.11818378 -65.75 192.9375 C-65.04292626 191.086143 -64.33577292 189.23480737 -63.62205505 187.38600159 C-63.1346165 186.12238672 -62.65023825 184.85758733 -62.1688385 183.59165955 C-50.86162993 153.95465032 -34.65628407 127.4064019 -15.53027344 102.21508789 C-12.55300652 98.26589245 -10.17568936 94.46154021 -8 90 C-6.67479497 89.31731862 -5.34187818 88.6492959 -4 88 C-3.27840576 86.35636866 -2.60648579 84.68949614 -2 83 C-1.34 82.67 -0.68 82.34 0 82 C0 54.94 0 27.88 0 0 Z " fill="#FE3D3D" transform="translate(620,124)"/>
<path d="M0 0 C4.59586296 4.17805723 7.95441521 9.27825584 8.3125 15.625 C7.07885765 24.12342509 2.24339073 28.43739148 -4.25 33.5 C-7.41399577 35.5605657 -10.68583593 37.38087984 -14 39.1875 C-15.85393141 40.22204888 -17.70676767 41.25856233 -19.55859375 42.296875 C-20.49815918 42.82216797 -21.43772461 43.34746094 -22.40576172 43.88867188 C-27.00464438 46.49404746 -31.53559503 49.20949799 -36.0625 51.9375 C-36.86719727 52.42114014 -37.67189453 52.90478027 -38.50097656 53.40307617 C-40.02884361 54.32430895 -41.54773097 55.26063944 -43.05615234 56.21337891 C-45.25 57.5 -45.25 57.5 -47.57275391 58.43896484 C-50.05750794 59.55118808 -51.50559432 60.39651 -53.25 62.5 C-54.4079521 67.40559571 -54.13621634 72.24908595 -54 77.25 C-53.982513 77.96517005 -53.965026 78.6803401 -53.94700909 79.41718197 C-53.65236087 90.68121147 -52.7814239 101.77696877 -51.51559258 112.96929169 C-49.09070861 134.8252198 -48.67983742 156.51829136 -48.68664551 178.48846436 C-48.68920434 186.75806241 -48.67181371 195.02742525 -48.62109375 203.296875 C-48.61331972 204.63530708 -48.61331972 204.63530708 -48.60538864 206.0007782 C-48.49499876 221.13194662 -47.59295032 236.11666054 -46.18357563 251.1793251 C-45.92770923 253.91740896 -45.68009264 256.65616164 -45.43761063 259.39546204 C-45.30772005 260.85252051 -45.17400843 262.30924153 -45.03724289 263.76567078 C-44.8285704 266.04804756 -44.64490628 268.33128627 -44.46655273 270.61621094 C-44.39961999 271.30343357 -44.33268724 271.9906562 -44.26372623 272.69870377 C-43.89503741 277.87294834 -44.8606085 281.02208611 -47.25 285.5 C-49.375 286.75 -49.375 286.75 -51.25 287.5 C-51.58 288.49 -51.91 289.48 -52.25 290.5 C-57.6438677 294.32065628 -62.61872258 294.97192462 -69.0625 295.375 C-69.81595703 295.42414551 -70.56941406 295.47329102 -71.34570312 295.52392578 C-75.23178672 295.6906468 -76.93372544 295.71084971 -80.25 293.5 C-80.930625 293.231875 -81.61125 292.96375 -82.3125 292.6875 C-84.9277087 291.08463015 -85.19412276 289.31567264 -86.25 286.5 C-87.24 285.84 -88.23 285.18 -89.25 284.5 C-91.02134995 279.69470603 -91.50553755 275.39276414 -91.5246582 270.29785156 C-91.52970116 269.61009706 -91.53474411 268.92234257 -91.53993988 268.21374702 C-91.5536417 265.93928999 -91.55268121 263.66511873 -91.55078125 261.390625 C-91.55570621 259.76803429 -91.56114508 258.14544506 -91.56706238 256.52285767 C-91.57901546 252.16864071 -91.57549115 247.81457071 -91.56704712 243.46035004 C-91.5624909 240.74457697 -91.56185955 238.02882585 -91.56201172 235.31304932 C-91.55376165 209.54361682 -90.83728722 183.93010086 -89.33081055 158.20458984 C-88.51613088 144.25430773 -87.92094349 130.35052094 -87.875 116.375 C-87.86376099 115.21529694 -87.86376099 115.21529694 -87.85229492 114.03216553 C-87.78683661 106.02552253 -87.97375011 98.93149366 -91.25 91.5 C-93.09963349 89.24621388 -93.09963349 89.24621388 -95.9140625 89.140625 C-100.07280375 89.58863928 -103.08467001 91.16644813 -106.625 93.25 C-107.32197998 93.6519458 -108.01895996 94.0538916 -108.73706055 94.46801758 C-115.92456757 98.72109021 -122.48931282 103.71785947 -129.08154297 108.82617188 C-133.06688602 111.90245109 -137.09120998 114.9251742 -141.125 117.9375 C-141.88530518 118.51653076 -142.64561035 119.09556152 -143.42895508 119.69213867 C-151.35095445 125.60162882 -159.97593364 131.30845112 -170.25 130.5 C-176.02803618 129.01950674 -179.81350365 125.57985352 -183.11328125 120.70703125 C-185.40546612 116.25656921 -185.94999513 112.18411924 -184.68359375 107.328125 C-182.32791121 101.70829042 -178.73710394 98.91100022 -173.25 96.5 C-170.24919643 95.47859972 -167.23365605 94.51795349 -164.21118164 93.56323242 C-148.85643166 88.55970505 -135.00586037 78.67282525 -121.30126953 70.34667969 C-118.45774927 68.62573336 -115.60439417 66.92281181 -112.74609375 65.2265625 C-111.12229544 64.25537616 -109.49859097 63.28403291 -107.875 62.3125 C-107.13854248 61.8796167 -106.40208496 61.4467334 -105.64331055 61.00073242 C-100.65109689 58.06281913 -100.65109689 58.06281913 -97.25 53.5 C-96.82089942 50.42960863 -96.82089942 50.42960863 -96.8125 47.125 C-96.49700482 41.81515658 -96.16017806 38.41017806 -92.25 34.5 C-86.10047024 30.57476824 -79.36471638 30.86666687 -72.25 31.5 C-70.9347207 31.90913872 -69.62229466 32.32753542 -68.3125 32.75390625 C-65.14321487 33.59215508 -63.45222503 33.51256414 -60.49609375 32.078125 C-59.2106833 31.32867838 -57.94146706 30.55094749 -56.6875 29.75 C-56.0056665 29.33967529 -55.32383301 28.92935059 -54.62133789 28.5065918 C-52.47716548 27.20093911 -50.36201669 25.856961 -48.25 24.5 C-47.21939453 23.84668701 -47.21939453 23.84668701 -46.16796875 23.18017578 C-33.68309699 15.26801832 -33.68309699 15.26801832 -23.3125 4.875 C-16.80350939 -2.87379835 -9.07432772 -4.18815125 0 0 Z " fill="#FE3C3C" transform="translate(532.25,191.5)"/>
<path d="M0 0 C0.66 0.33 1.32 0.66 2 1 C1.67 72.94 1.34 144.88 1 219 C-7.91 219 -16.82 219 -26 219 C-26.20865355 194.97329931 -26.36911033 170.94681807 -26.46630955 146.91939259 C-26.51264767 135.76210939 -26.57578322 124.60540069 -26.67895508 113.44848633 C-26.76887387 103.72008019 -26.82677441 93.99209027 -26.84679645 84.26328009 C-26.85849422 79.11530647 -26.88583586 73.96852315 -26.95157051 68.82093239 C-27.01304542 63.9672049 -27.03142803 59.11514819 -27.01796913 54.26106834 C-27.02042815 52.48778551 -27.03810422 50.71444192 -27.07284927 48.9414978 C-27.30569644 36.43773942 -25.26497257 29.56719543 -17 20 C-15.47699906 18.08505528 -13.95585181 16.16863308 -12.4375 14.25 C-8.39716864 9.40587033 -4.23549865 4.67405164 0 0 Z " fill="#0DAACD" transform="translate(647,235)"/>
<path d="M0 0 C2.475 0.495 2.475 0.495 5 1 C5.33 1.66 5.66 2.32 6 3 C6.66 3.66 7.32 4.32 8 5 C20 17 20 17 21.9375 19 C23.9279308 21.12038009 23.9279308 21.12038009 26.61206055 22.36230469 C30.54658229 26.70834016 29.5008869 31.57191521 29.26953125 37.203125 C29.22562508 38.99251495 29.22562508 38.99251495 29.18083191 40.8180542 C29.08183063 44.62979845 28.94759941 48.43938088 28.8125 52.25 C28.73921464 54.83326851 28.66822267 57.41660318 28.59960938 60 C28.43065008 66.33495569 28.21410901 72.66576511 28 79 C19.09 79 10.18 79 1 79 C0.67 52.93 0.34 26.86 0 0 Z " fill="#14ADCE" transform="translate(305,375)"/>
<path d="M0 0 C5.63039625 1.12607925 5.63039625 1.12607925 8.734375 3.21484375 C9.39050781 3.65376953 10.04664063 4.09269531 10.72265625 4.54492188 C11.39167969 5.00447266 12.06070313 5.46402344 12.75 5.9375 C13.43449219 6.39318359 14.11898437 6.84886719 14.82421875 7.31835938 C19.86282839 10.72565679 19.86282839 10.72565679 21 13 C21.66 13.33 22.32 13.66 23 14 C23.99 14.66 24.98 15.32 26 16 C26.66 16.33 27.32 16.66 28 17 C28.24980179 21.78274357 28.42980131 26.5615906 28.54931641 31.34936523 C28.5991877 32.97243458 28.66712035 34.59506439 28.75439453 36.21655273 C29.45921509 49.66204136 29.45921509 49.66204136 25.89428711 55.3737793 C23.38825429 58.10365194 20.78054922 60.55438798 18 63 C16.30815109 64.99571178 14.84087662 67.05858246 13.3125 69.1875 C9.78426973 73.9941654 6.19925437 78.75075451 2 83 C1.67 83 1.34 83 1 83 C0.67 55.61 0.34 28.22 0 0 Z " fill="#0FABCD" transform="translate(620,124)"/>
<path d="M0 0 C5.42232421 -0.31896025 9.49667324 0.99778216 14 4 C15.2375 4.2475 15.2375 4.2475 16.5 4.5 C19 5 19 5 22 7 C23.2375 7.2475 23.2375 7.2475 24.5 7.5 C27 8 27 8 30 10 C30.825 10.165 31.65 10.33 32.5 10.5 C35 11 35 11 38 13 C38.825 13.165 39.65 13.33 40.5 13.5 C43 14 43 14 46 16 C46.825 16.165 47.65 16.33 48.5 16.5 C51 17 51 17 54 19 C54.825 19.165 55.65 19.33 56.5 19.5 C59 20 59 20 62 22 C62.66 22 63.32 22 64 22 C63.23749332 28.60065246 58.72183777 31.90037078 54.1875 36.375 C52.95676758 37.64150391 52.95676758 37.64150391 51.70117188 38.93359375 C50.90646484 39.72636719 50.11175781 40.51914063 49.29296875 41.3359375 C48.5661792 42.06345215 47.83938965 42.7909668 47.09057617 43.54052734 C45 45 45 45 43.098526 44.7971344 C40.56206738 43.83364936 39.24902314 42.6233053 37.33300781 40.70532227 C36.28237152 39.66402916 36.28237152 39.66402916 35.21051025 38.60169983 C34.46557312 37.84755295 33.72063599 37.09340607 32.953125 36.31640625 C31.79632233 35.16035133 31.79632233 35.16035133 30.6161499 33.98094177 C28.98870458 32.35115657 27.36495007 30.71767872 25.74462891 29.08081055 C23.25453562 26.56707867 20.75134626 24.06697383 18.24609375 21.56835938 C16.66847601 19.98516663 15.09162627 18.40120813 13.515625 16.81640625 C12.76259094 16.0642836 12.00955688 15.31216095 11.23370361 14.5372467 C10.54588806 13.83989914 9.85807251 13.14255157 9.14941406 12.42407227 C8.53970764 11.80975845 7.93000122 11.19544464 7.30181885 10.56251526 C6 9 6 9 6 7 C5.38125 6.71125 4.7625 6.4225 4.125 6.125 C2 5 2 5 0 3 C0 2.01 0 1.02 0 0 Z " fill="#31B6D4" transform="translate(310,123)"/>
<path d="M0 0 C0 9.24 0 18.48 0 28 C-9.24 28 -18.48 28 -28 28 C-24.32750234 23.7154194 -20.81271048 19.68519905 -16.85546875 15.72265625 C-15.47004883 14.33530273 -15.47004883 14.33530273 -14.05664062 12.91992188 C-13.58589111 12.45126709 -13.1151416 11.9826123 -12.63012695 11.49975586 C-11.16953741 10.04460429 -9.71446797 8.58408143 -8.25976562 7.12304688 C-7.34259766 6.20716797 -6.42542969 5.29128906 -5.48046875 4.34765625 C-4.64410889 3.51242432 -3.80774902 2.67719238 -2.94604492 1.81665039 C-1 0 -1 0 0 0 Z " fill="#0BA9CC" transform="translate(402,375)"/>
<path d="M0 0 C0 9.24 0 18.48 0 28 C-0.66 27.67 -1.32 27.34 -2 27 C-2.33 19.74 -2.66 12.48 -3 5 C-9.93 11.93 -16.86 18.86 -24 26 C-24.66 25.67 -25.32 25.34 -26 25 C-22.46109324 21.43645168 -18.91897325 17.87614125 -15.3737793 14.31884766 C-14.16715088 13.10717739 -12.96141972 11.89461294 -11.7565918 10.68115234 C-10.02885937 8.9413478 -8.29796998 7.20474035 -6.56640625 5.46875 C-5.75388145 4.64848328 -5.75388145 4.64848328 -4.92494202 3.81164551 C-1.11387171 0 -1.11387171 0 0 0 Z " fill="#37B3D2" transform="translate(402,375)"/>
<path d="M0 0 C1.65 0 3.3 0 5 0 C5 0.66 5 1.32 5 2 C5.66 2 6.32 2 7 2 C7.68707555 4.49064888 8 6.37886292 8 9 C2.25 5.25 2.25 5.25 0 3 C0 2.01 0 1.02 0 0 Z " fill="#6AC8DF" transform="translate(310,123)"/>
<path d="" fill="#FFFFFF" transform="translate(0,0)"/>
<path d="" fill="#FFFFFF" transform="translate(0,0)"/>
<path d="" fill="#FFFFFF" transform="translate(0,0)"/>
<path d="" fill="#FFFFFF" transform="translate(0,0)"/>
<path d="" fill="#FFFFFF" transform="translate(0,0)"/>
<path d="" fill="#FFFFFF" transform="translate(0,0)"/>
<path d="" fill="#FFFFFF" transform="translate(0,0)"/>
<path d="" fill="#FFFFFF" transform="translate(0,0)"/>
<path d="" fill="#FFFFFF" transform="translate(0,0)"/>
<path d="" fill="#FFFFFF" transform="translate(0,0)"/>
<path d="" fill="#FFFFFF" transform="translate(0,0)"/>
<path d="" fill="#FFFFFF" transform="translate(0,0)"/>
<path d="" fill="#FFFFFF" transform="translate(0,0)"/>
<path d="" fill="#FFFFFF" transform="translate(0,0)"/>
<path d="" fill="#FFFFFF" transform="translate(0,0)"/>
<path d="" fill="#FFFFFF" transform="translate(0,0)"/>
<path d="" fill="#FFFFFF" transform="translate(0,0)"/>
<path d="" fill="#FFFFFF" transform="translate(0,0)"/>
<path d="" fill="#FFFFFF" transform="translate(0,0)"/>
<path d="" fill="#FFFFFF" transform="translate(0,0)"/>
<path d="" fill="#FFFFFF" transform="translate(0,0)"/>
<path d="" fill="#FFFFFF" transform="translate(0,0)"/>
<path d="" fill="#FFFFFF" transform="translate(0,0)"/>
<path d="" fill="#FFFFFF" transform="translate(0,0)"/>
<path d="" fill="#FFFFFF" transform="translate(0,0)"/>
<path d="" fill="#FFFFFF" transform="translate(0,0)"/>
<path d="" fill="#FFFFFF" transform="translate(0,0)"/>
<path d="" fill="#FFFFFF" transform="translate(0,0)"/>
<path d="" fill="#FFFFFF" transform="translate(0,0)"/>
<path d="" fill="#FFFFFF" transform="translate(0,0)"/>
<path d="" fill="#FFFFFF" transform="translate(0,0)"/>
<path d="" fill="#FFFFFF" transform="translate(0,0)"/>
<path d="" fill="#FFFFFF" transform="translate(0,0)"/>
<path d="" fill="#FFFFFF" transform="translate(0,0)"/>
<path d="" fill="#FFFFFF" transform="translate(0,0)"/>
<path d="" fill="#FFFFFF" transform="translate(0,0)"/>
<path d="" fill="#FFFFFF" transform="translate(0,0)"/>
<path d="" fill="#FFFFFF" transform="translate(0,0)"/>
<path d="" fill="#FFFFFF" transform="translate(0,0)"/>
<path d="" fill="#FFFFFF" transform="translate(0,0)"/>
<path d="" fill="#FFFFFF" transform="translate(0,0)"/>
<path d="" fill="#FFFFFF" transform="translate(0,0)"/>
<path d="" fill="#FFFFFF" transform="translate(0,0)"/>
<path d="" fill="#FFFFFF" transform="translate(0,0)"/>
<path d="" fill="#FFFFFF" transform="translate(0,0)"/>
<path d="" fill="#FFFFFF" transform="translate(0,0)"/>
<path d="" fill="#FFFFFF" transform="translate(0,0)"/>
<path d="" fill="#FFFFFF" transform="translate(0,0)"/>
<path d="" fill="#FFFFFF" transform="translate(0,0)"/>
<path d="" fill="#FFFFFF" transform="translate(0,0)"/>
<path d="" fill="#FFFFFF" transform="translate(0,0)"/>
<path d="" fill="#FFFFFF" transform="translate(0,0)"/>
<path d="" fill="#FFFFFF" transform="translate(0,0)"/>
<path d="" fill="#FFFFFF" transform="translate(0,0)"/>
<path d="" fill="#FFFFFF" transform="translate(0,0)"/>
<path d="" fill="#FFFFFF" transform="translate(0,0)"/>
<path d="" fill="#FFFFFF" transform="translate(0,0)"/>
<path d="" fill="#FFFFFF" transform="translate(0,0)"/>
<path d="" fill="#FFFFFF" transform="translate(0,0)"/>
<path d="" fill="#FFFFFF" transform="translate(0,0)"/>
<path d="" fill="#FFFFFF" transform="translate(0,0)"/>
<path d="" fill="#FFFFFF" transform="translate(0,0)"/>
<path d="" fill="#FFFFFF" transform="translate(0,0)"/>
<path d="" fill="#FFFFFF" transform="translate(0,0)"/>
<path d="" fill="#FFFFFF" transform="translate(0,0)"/>
<path d="" fill="#FFFFFF" transform="translate(0,0)"/>
<path d="" fill="#FFFFFF" transform="translate(0,0)"/>
<path d="" fill="#FFFFFF" transform="translate(0,0)"/>
<path d="" fill="#FFFFFF" transform="translate(0,0)"/>
<path d="" fill="#FFFFFF" transform="translate(0,0)"/>
<path d="" fill="#FFFFFF" transform="translate(0,0)"/>
<path d="" fill="#FFFFFF" transform="translate(0,0)"/>
<path d="" fill="#FFFFFF" transform="translate(0,0)"/>
<path d="" fill="#FFFFFF" transform="translate(0,0)"/>
<path d="" fill="#FFFFFF" transform="translate(0,0)"/>
<path d="" fill="#FFFFFF" transform="translate(0,0)"/>
<path d="" fill="#FFFFFF" transform="translate(0,0)"/>
<path d="" fill="#FFFFFF" transform="translate(0,0)"/>
<path d="" fill="#FFFFFF" transform="translate(0,0)"/>
<path d="" fill="#FFFFFF" transform="translate(0,0)"/>
<path d="" fill="#FFFFFF" transform="translate(0,0)"/>
<path d="" fill="#FFFFFF" transform="translate(0,0)"/>
<path d="" fill="#FFFFFF" transform="translate(0,0)"/>
<path d="" fill="#FFFFFF" transform="translate(0,0)"/>
<path d="" fill="#FFFFFF" transform="translate(0,0)"/>
<path d="" fill="#FFFFFF" transform="translate(0,0)"/>
<path d="" fill="#FFFFFF" transform="translate(0,0)"/>
<path d="" fill="#FFFFFF" transform="translate(0,0)"/>
<path d="" fill="#FFFFFF" transform="translate(0,0)"/>
<path d="" fill="#FFFFFF" transform="translate(0,0)"/>
<path d="" fill="#FFFFFF" transform="translate(0,0)"/>
<path d="" fill="#FFFFFF" transform="translate(0,0)"/>
<path d="" fill="#FFFFFF" transform="translate(0,0)"/>
<path d="" fill="#FFFFFF" transform="translate(0,0)"/>
<path d="" fill="#FFFFFF" transform="translate(0,0)"/>
<path d="" fill="#FFFFFF" transform="translate(0,0)"/>
<path d="" fill="#FFFFFF" transform="translate(0,0)"/>
<path d="" fill="#FFFFFF" transform="translate(0,0)"/>
<path d="" fill="#FFFFFF" transform="translate(0,0)"/>
<path d="" fill="#FFFFFF" transform="translate(0,0)"/>
<path d="" fill="#FFFFFF" transform="translate(0,0)"/>
<path d="" fill="#FFFFFF" transform="translate(0,0)"/>
<path d="" fill="#FFFFFF" transform="translate(0,0)"/>
<path d="" fill="#FFFFFF" transform="translate(0,0)"/>
<path d="" fill="#FFFFFF" transform="translate(0,0)"/>
<path d="" fill="#FFFFFF" transform="translate(0,0)"/>
<path d="" fill="#FFFFFF" transform="translate(0,0)"/>
<path d="" fill="#FFFFFF" transform="translate(0,0)"/>
<path d="" fill="#FFFFFF" transform="translate(0,0)"/>
<path d="" fill="#FFFFFF" transform="translate(0,0)"/>
<path d="" fill="#FFFFFF" transform="translate(0,0)"/>
<path d="" fill="#FFFFFF" transform="translate(0,0)"/>
<path d="" fill="#FFFFFF" transform="translate(0,0)"/>
<path d="" fill="#FFFFFF" transform="translate(0,0)"/>
<path d="" fill="#FFFFFF" transform="translate(0,0)"/>
<path d="" fill="#FFFFFF" transform="translate(0,0)"/>
<path d="" fill="#FFFFFF" transform="translate(0,0)"/>
<path d="" fill="#FFFFFF" transform="translate(0,0)"/>
<path d="" fill="#FFFFFF" transform="translate(0,0)"/>
<path d="" fill="#FFFFFF" transform="translate(0,0)"/>
<path d="" fill="#FFFFFF" transform="translate(0,0)"/>
<path d="" fill="#FFFFFF" transform="translate(0,0)"/>
<path d="" fill="#FFFFFF" transform="translate(0,0)"/>
<path d="" fill="#FFFFFF" transform="translate(0,0)"/>
<path d="" fill="#FFFFFF" transform="translate(0,0)"/>
<path d="" fill="#FFFFFF" transform="translate(0,0)"/>
<path d="" fill="#FFFFFF" transform="translate(0,0)"/>
<path d="" fill="#FFFFFF" transform="translate(0,0)"/>
<path d="" fill="#FFFFFF" transform="translate(0,0)"/>
<path d="" fill="#FFFFFF" transform="translate(0,0)"/>
<path d="" fill="#FFFFFF" transform="translate(0,0)"/>
<path d="" fill="#FFFFFF" transform="translate(0,0)"/>
<path d="" fill="#FFFFFF" transform="translate(0,0)"/>
<path d="" fill="#FFFFFF" transform="translate(0,0)"/>
<path d="" fill="#FFFFFF" transform="translate(0,0)"/>
<path d="" fill="#FFFFFF" transform="translate(0,0)"/>
<path d="" fill="#FFFFFF" transform="translate(0,0)"/>
<path d="" fill="#FFFFFF" transform="translate(0,0)"/>
<path d="" fill="#FFFFFF" transform="translate(0,0)"/>
<path d="" fill="#FFFFFF" transform="translate(0,0)"/>
<path d="" fill="#FFFFFF" transform="translate(0,0)"/>
<path d="" fill="#FFFFFF" transform="translate(0,0)"/>
<path d="" fill="#FFFFFF" transform="translate(0,0)"/>
<path d="" fill="#FFFFFF" transform="translate(0,0)"/>
<path d="" fill="#FFFFFF" transform="translate(0,0)"/>
<path d="" fill="#FFFFFF" transform="translate(0,0)"/>
<path d="" fill="#FFFFFF" transform="translate(0,0)"/>
<path d="" fill="#FFFFFF" transform="translate(0,0)"/>
<path d="" fill="#FFFFFF" transform="translate(0,0)"/>
<path d="" fill="#FFFFFF" transform="translate(0,0)"/>
<path d="" fill="#FFFFFF" transform="translate(0,0)"/>
<path d="" fill="#FFFFFF" transform="translate(0,0)"/>
<path d="" fill="#FFFFFF" transform="translate(0,0)"/>
<path d="" fill="#FFFFFF" transform="translate(0,0)"/>
<path d="" fill="#FFFFFF" transform="translate(0,0)"/>
<path d="" fill="#FFFFFF" transform="translate(0,0)"/>
<path d="" fill="#FFFFFF" transform="translate(0,0)"/>
<path d="" fill="#FFFFFF" transform="translate(0,0)"/>
<path d="" fill="#FFFFFF" transform="translate(0,0)"/>
<path d="" fill="#FFFFFF" transform="translate(0,0)"/>
<path d="" fill="#FFFFFF" transform="translate(0,0)"/>
<path d="" fill="#FFFFFF" transform="translate(0,0)"/>
<path d="" fill="#FFFFFF" transform="translate(0,0)"/>
<path d="" fill="#FFFFFF" transform="translate(0,0)"/>
<path d="" fill="#FFFFFF" transform="translate(0,0)"/>
<path d="" fill="#FFFFFF" transform="translate(0,0)"/>
<path d="" fill="#FFFFFF" transform="translate(0,0)"/>
<path d="" fill="#FFFFFF" transform="translate(0,0)"/>
<path d="" fill="#FFFFFF" transform="translate(0,0)"/>
<path d="" fill="#FFFFFF" transform="translate(0,0)"/>
<path d="" fill="#FFFFFF" transform="translate(0,0)"/>
<path d="" fill="#FFFFFF" transform="translate(0,0)"/>
<path d="" fill="#FFFFFF" transform="translate(0,0)"/>
<path d="" fill="#FFFFFF" transform="translate(0,0)"/>
<path d="" fill="#FFFFFF" transform="translate(0,0)"/>
<path d="" fill="#FFFFFF" transform="translate(0,0)"/>
<path d="" fill="#FFFFFF" transform="translate(0,0)"/>
<path d="" fill="#FFFFFF" transform="translate(0,0)"/>
<path d="" fill="#FFFFFF" transform="translate(0,0)"/>
<path d="" fill="#FFFFFF" transform="translate(0,0)"/>
<path d="" fill="#FFFFFF" transform="translate(0,0)"/>
<path d="" fill="#FFFFFF" transform="translate(0,0)"/>
<path d="" fill="#FFFFFF" transform="translate(0,0)"/>
<path d="" fill="#FFFFFF" transform="translate(0,0)"/>
<path d="" fill="#FFFFFF" transform="translate(0,0)"/>
<path d="" fill="#FFFFFF" transform="translate(0,0)"/>
<path d="" fill="#FFFFFF" transform="translate(0,0)"/>
<path d="" fill="#FFFFFF" transform="translate(0,0)"/>
<path d="" fill="#FFFFFF" transform="translate(0,0)"/>
<path d="" fill="#FFFFFF" transform="translate(0,0)"/>
<path d="" fill="#FFFFFF" transform="translate(0,0)"/>
<path d="" fill="#FFFFFF" transform="translate(0,0)"/>
<path d="" fill="#FFFFFF" transform="translate(0,0)"/>
<path d="" fill="#FFFFFF" transform="translate(0,0)"/>
<path d="" fill="#FFFFFF" transform="translate(0,0)"/>
<path d="" fill="#FFFFFF" transform="translate(0,0)"/>
<path d="" fill="#FFFFFF" transform="translate(0,0)"/>
<path d="" fill="#FFFFFF" transform="translate(0,0)"/>
<path d="" fill="#FFFFFF" transform="translate(0,0)"/>
<path d="" fill="#FFFFFF" transform="translate(0,0)"/>
<path d="" fill="#FFFFFF" transform="translate(0,0)"/>
<path d="" fill="#FFFFFF" transform="translate(0,0)"/>
<path d="" fill="#FFFFFF" transform="translate(0,0)"/>
<path d="" fill="#FFFFFF" transform="translate(0,0)"/>
<path d="" fill="#FFFFFF" transform="translate(0,0)"/>
<path d="" fill="#FFFFFF" transform="translate(0,0)"/>
<path d="" fill="#FFFFFF" transform="translate(0,0)"/>
<path d="" fill="#FFFFFF" transform="translate(0,0)"/>
<path d="" fill="#FFFFFF" transform="translate(0,0)"/>
<path d="" fill="#FFFFFF" transform="translate(0,0)"/>
<path d="" fill="#FFFFFF" transform="translate(0,0)"/>
<path d="" fill="#FFFFFF" transform="translate(0,0)"/>
<path d="" fill="#FFFFFF" transform="translate(0,0)"/>
<path d="" fill="#FFFFFF" transform="translate(0,0)"/>
<path d="" fill="#FFFFFF" transform="translate(0,0)"/>
<path d="" fill="#FFFFFF" transform="translate(0,0)"/>
<path d="" fill="#FFFFFF" transform="translate(0,0)"/>
<path d="" fill="#FFFFFF" transform="translate(0,0)"/>
<path d="" fill="#FFFFFF" transform="translate(0,0)"/>
<path d="" fill="#FFFFFF" transform="translate(0,0)"/>
<path d="" fill="#FFFFFF" transform="translate(0,0)"/>
<path d="" fill="#FFFFFF" transform="translate(0,0)"/>
<path d="" fill="#FFFFFF" transform="translate(0,0)"/>
<path d="" fill="#FFFFFF" transform="translate(0,0)"/>
<path d="" fill="#FFFFFF" transform="translate(0,0)"/>
<path d="" fill="#FFFFFF" transform="translate(0,0)"/>
<path d="" fill="#FFFFFF" transform="translate(0,0)"/>
<path d="" fill="#FFFFFF" transform="translate(0,0)"/>
<path d="" fill="#FFFFFF" transform="translate(0,0)"/>
<path d="" fill="#FFFFFF" transform="translate(0,0)"/>
<path d="" fill="#FFFFFF" transform="translate(0,0)"/>
<path d="" fill="#FFFFFF" transform="translate(0,0)"/>
<path d="" fill="#FFFFFF" transform="translate(0,0)"/>
<path d="" fill="#FFFFFF" transform="translate(0,0)"/>
<path d="" fill="#FFFFFF" transform="translate(0,0)"/>
<path d="" fill="#FFFFFF" transform="translate(0,0)"/>
<path d="" fill="#FFFFFF" transform="translate(0,0)"/>
<path d="" fill="#FFFFFF" transform="translate(0,0)"/>
<path d="" fill="#FFFFFF" transform="translate(0,0)"/>
<path d="" fill="#FFFFFF" transform="translate(0,0)"/>
<path d="" fill="#FFFFFF" transform="translate(0,0)"/>
<path d="" fill="#FFFFFF" transform="translate(0,0)"/>
<path d="" fill="#FFFFFF" transform="translate(0,0)"/>
<path d="" fill="#FFFFFF" transform="translate(0,0)"/>
<path d="" fill="#FFFFFF" transform="translate(0,0)"/>
<path d="" fill="#FFFFFF" transform="translate(0,0)"/>
<path d="" fill="#FFFFFF" transform="translate(0,0)"/>
<path d="" fill="#FFFFFF" transform="translate(0,0)"/>
<path d="" fill="#FFFFFF" transform="translate(0,0)"/>
<path d="" fill="#FFFFFF" transform="translate(0,0)"/>
<path d="" fill="#FFFFFF" transform="translate(0,0)"/>
<path d="" fill="#FFFFFF" transform="translate(0,0)"/>
</svg>
