<?xml version="1.0" encoding="UTF-8"?>
<svg version="1.1" xmlns="http://www.w3.org/2000/svg" width="1080" height="1440">
<path d="M0 0 C0.89912109 -0.01224609 1.79824219 -0.02449219 2.72460938 -0.03710938 C7.73499529 -0.04813737 11.57993489 0.41517025 16.3125 2.1875 C19.25429549 2.82732562 22.21803772 3.31926728 25.1875 3.8125 C26.363125 4.01359375 26.363125 4.01359375 27.5625 4.21875 C29.47845474 4.54586422 31.39538282 4.86726884 33.3125 5.1875 C33.3125 5.8475 33.3125 6.5075 33.3125 7.1875 C35.6225 7.1875 37.9325 7.1875 40.3125 7.1875 C40.3125 7.5175 40.3125 7.8475 40.3125 8.1875 C45.7575 8.6825 45.7575 8.6825 51.3125 9.1875 C51.3125 9.5175 51.3125 9.8475 51.3125 10.1875 C52.45138672 10.24357422 52.45138672 10.24357422 53.61328125 10.30078125 C54.60714844 10.36652344 55.60101562 10.43226563 56.625 10.5 C58.10419922 10.58701172 58.10419922 10.58701172 59.61328125 10.67578125 C62.3125 11.1875 62.3125 11.1875 63.71142578 12.65087891 C65.67522651 14.53562453 66.97147792 14.79770232 69.62890625 15.28515625 C70.90024414 15.52782227 70.90024414 15.52782227 72.19726562 15.77539062 C73.08091797 15.93201172 73.96457031 16.08863281 74.875 16.25 C76.60546875 16.57421875 78.3359375 16.8984375 80.06640625 17.22265625 C80.92250488 17.37879395 81.77860352 17.53493164 82.66064453 17.69580078 C86.88728137 18.47949132 91.09974816 19.33274694 95.3125 20.1875 C95.3125 20.5175 95.3125 20.8475 95.3125 21.1875 C98.6125 21.5175 101.9125 21.8475 105.3125 22.1875 C105.3125 22.5175 105.3125 22.8475 105.3125 23.1875 C105.92738281 23.22488281 106.54226563 23.26226563 107.17578125 23.30078125 C107.98402344 23.36652344 108.79226563 23.43226563 109.625 23.5 C110.42550781 23.55800781 111.22601562 23.61601563 112.05078125 23.67578125 C114.3125 24.1875 114.3125 24.1875 115.70043945 25.68041992 C117.67664408 27.52793032 118.70215098 27.62774034 121.3671875 27.8125 C122.14707031 27.87953125 122.92695312 27.9465625 123.73046875 28.015625 C124.54128906 28.07234375 125.35210938 28.1290625 126.1875 28.1875 C131.78711864 28.58297868 135.53676262 29.01761477 140.3125 32.1875 C142.73779916 32.74835564 142.73779916 32.74835564 145.125 32.875 C145.91519531 32.94074219 146.70539063 33.00648438 147.51953125 33.07421875 C148.11121094 33.11160156 148.70289063 33.14898438 149.3125 33.1875 C149.3125 33.5175 149.3125 33.8475 149.3125 34.1875 C150.32570313 34.22617187 150.32570313 34.22617187 151.359375 34.265625 C158.45267629 34.71664416 158.45267629 34.71664416 161.9375 36.625 C164.10215074 40.65912183 163.62038882 44.70600724 163.3125 49.1875 C161.8275 49.6825 161.8275 49.6825 160.3125 50.1875 C160.3125 50.8475 160.3125 51.5075 160.3125 52.1875 C158.9375 53.8125 158.9375 53.8125 157.3125 55.1875 C156.6525 55.1875 155.9925 55.1875 155.3125 55.1875 C154.9825 59.4775 154.6525 63.7675 154.3125 68.1875 C154.9725 68.1875 155.6325 68.1875 156.3125 68.1875 C156.3125 72.1475 156.3125 76.1075 156.3125 80.1875 C155.6525 80.1875 154.9925 80.1875 154.3125 80.1875 C154.3125 82.8275 154.3125 85.4675 154.3125 88.1875 C154.9725 88.1875 155.6325 88.1875 156.3125 88.1875 C156.31304477 89.02902493 156.31358953 89.87054985 156.31415081 90.73757553 C156.32910967 111.2015255 156.37152015 131.66525739 156.44459057 152.12908554 C156.47926283 162.02520977 156.50459902 171.92119439 156.50805664 181.81738281 C156.51109343 190.44161717 156.53154538 199.06560303 156.57302457 207.68974137 C156.59438229 212.25741143 156.60694104 216.82472795 156.59865379 221.39244843 C156.59113106 225.69032611 156.6068632 229.98748642 156.64056015 234.28523254 C156.64881502 235.86383703 156.64851796 237.44251257 156.63909721 239.02111053 C156.62751385 241.17505985 156.64652812 243.32664283 156.67326355 245.48040771 C156.67602893 246.68611294 156.67879431 247.89181816 156.68164349 249.13405991 C157.49333321 253.06275986 159.0961714 253.95728514 162.3125 256.1875 C162.3125 256.8475 162.3125 257.5075 162.3125 258.1875 C163.3025 258.1875 164.2925 258.1875 165.3125 258.1875 C165.3125 258.8475 165.3125 259.5075 165.3125 260.1875 C166.3025 260.1875 167.2925 260.1875 168.3125 260.1875 C168.3125 260.8475 168.3125 261.5075 168.3125 262.1875 C169.22 262.435 170.1275 262.6825 171.0625 262.9375 C174.58161941 264.29100746 176.18706686 265.08109772 178.3125 268.1875 C178.3125 270.8275 178.3125 273.4675 178.3125 276.1875 C61.4925 276.1875 -55.3275 276.1875 -175.6875 276.1875 C-176.0175 275.5275 -176.3475 274.8675 -176.6875 274.1875 C-177.3475 274.1875 -178.0075 274.1875 -178.6875 274.1875 C-178.6875 272.2075 -178.6875 270.2275 -178.6875 268.1875 C-177.6975 268.1875 -176.7075 268.1875 -175.6875 268.1875 C-175.6875 267.5275 -175.6875 266.8675 -175.6875 266.1875 C-175.0275 266.1875 -174.3675 266.1875 -173.6875 266.1875 C-173.3575 265.5275 -173.0275 264.8675 -172.6875 264.1875 C-171.35416667 263.52083333 -170.02083333 262.85416667 -168.6875 262.1875 C-168.3575 261.5275 -168.0275 260.8675 -167.6875 260.1875 C-166.6975 260.1875 -165.7075 260.1875 -164.6875 260.1875 C-164.6875 259.5275 -164.6875 258.8675 -164.6875 258.1875 C-163.3675 258.1875 -162.0475 258.1875 -160.6875 258.1875 C-160.3575 257.1975 -160.0275 256.2075 -159.6875 255.1875 C-155.7275 253.2075 -155.7275 253.2075 -151.6875 251.1875 C-152.0175 196.0775 -152.3475 140.9675 -152.6875 84.1875 C-153.0175 84.1875 -153.3475 84.1875 -153.6875 84.1875 C-153.6875 76.9275 -153.6875 69.6675 -153.6875 62.1875 C-153.3575 62.1875 -153.0275 62.1875 -152.6875 62.1875 C-152.0275 60.2075 -151.3675 58.2275 -150.6875 56.1875 C-151.574375 56.125625 -152.46125 56.06375 -153.375 56 C-157.48351121 54.99225197 -158.92560132 53.32262823 -161.6875 50.1875 C-162.285625 49.713125 -162.88375 49.23875 -163.5 48.75 C-165.40905099 46.2380908 -165.06062788 44.23471105 -164.6875 41.1875 C-162.96286874 38.23098926 -161.5828631 37.11774206 -158.6875 35.1875 C-156.20703125 34.7734375 -156.20703125 34.7734375 -153.5 34.5625 C-152.59894531 34.48773437 -151.69789063 34.41296875 -150.76953125 34.3359375 C-150.08246094 34.28695312 -149.39539063 34.23796875 -148.6875 34.1875 C-148.6875 33.8575 -148.6875 33.5275 -148.6875 33.1875 C-146.79947917 33.02473958 -144.91145833 32.86197917 -143.0234375 32.69921875 C-140.53573518 32.26936671 -140.53573518 32.26936671 -137.98828125 30.70703125 C-133.12805323 28.46960084 -128.33934496 28.3872301 -123.05664062 28.015625 C-121.89358398 27.91507813 -121.89358398 27.91507813 -120.70703125 27.8125 C-119.65672729 27.73902344 -119.65672729 27.73902344 -118.58520508 27.6640625 C-116.20890448 27.06731237 -115.3321542 25.95375578 -113.6875 24.1875 C-111.42578125 23.67578125 -111.42578125 23.67578125 -109 23.5 C-107.78763672 23.40138672 -107.78763672 23.40138672 -106.55078125 23.30078125 C-105.62845703 23.24470703 -105.62845703 23.24470703 -104.6875 23.1875 C-104.6875 22.8575 -104.6875 22.5275 -104.6875 22.1875 C-101.3875 21.8575 -98.0875 21.5275 -94.6875 21.1875 C-94.6875 20.8575 -94.6875 20.5275 -94.6875 20.1875 C-92.126505 19.55568567 -89.56438178 18.93033482 -87 18.3125 C-86.23284668 18.1276001 -85.46569336 17.9427002 -84.67529297 17.75219727 C-78.89210233 16.39197642 -73.13425938 15.44289441 -67.2265625 14.77734375 C-64.64696557 14.41636831 -64.64696557 14.41636831 -63.19140625 12.671875 C-60.98139412 10.49056433 -59.04031825 10.67884225 -56 10.5 C-55.00613281 10.43425781 -54.01226562 10.36851562 -52.98828125 10.30078125 C-51.84939453 10.24470703 -51.84939453 10.24470703 -50.6875 10.1875 C-50.6875 9.8575 -50.6875 9.5275 -50.6875 9.1875 C-47.2225 8.6925 -47.2225 8.6925 -43.6875 8.1875 C-43.6875 7.8575 -43.6875 7.5275 -43.6875 7.1875 C-42.72650391 7.11402344 -42.72650391 7.11402344 -41.74609375 7.0390625 C-40.88113281 6.96429687 -40.01617187 6.88953125 -39.125 6.8125 C-38.27808594 6.74289062 -37.43117188 6.67328125 -36.55859375 6.6015625 C-33.15180129 6.11024277 -29.99522624 5.13807668 -26.6875 4.1875 C-23.1813133 3.45244686 -19.650226 2.85749249 -16.12109375 2.24414062 C-3.61034446 0.00253358 -3.61034446 0.00253358 0 0 Z M152.3125 83.1875 C153.3125 85.1875 153.3125 85.1875 153.3125 85.1875 Z " fill="#173473" transform="translate(539.6875,581.8125)"/>
<path d="M0 0 C0.89912109 -0.01224609 1.79824219 -0.02449219 2.72460938 -0.03710938 C7.73499529 -0.04813737 11.57993489 0.41517025 16.3125 2.1875 C19.25429549 2.82732562 22.21803772 3.31926728 25.1875 3.8125 C26.363125 4.01359375 26.363125 4.01359375 27.5625 4.21875 C29.47845474 4.54586422 31.39538282 4.86726884 33.3125 5.1875 C33.3125 5.8475 33.3125 6.5075 33.3125 7.1875 C35.6225 7.1875 37.9325 7.1875 40.3125 7.1875 C40.3125 7.5175 40.3125 7.8475 40.3125 8.1875 C45.7575 8.6825 45.7575 8.6825 51.3125 9.1875 C51.3125 9.5175 51.3125 9.8475 51.3125 10.1875 C52.45138672 10.24357422 52.45138672 10.24357422 53.61328125 10.30078125 C54.60714844 10.36652344 55.60101562 10.43226563 56.625 10.5 C58.10419922 10.58701172 58.10419922 10.58701172 59.61328125 10.67578125 C62.3125 11.1875 62.3125 11.1875 63.71142578 12.65087891 C65.67522651 14.53562453 66.97147792 14.79770232 69.62890625 15.28515625 C70.90024414 15.52782227 70.90024414 15.52782227 72.19726562 15.77539062 C73.08091797 15.93201172 73.96457031 16.08863281 74.875 16.25 C76.60546875 16.57421875 78.3359375 16.8984375 80.06640625 17.22265625 C81.3505542 17.45686279 81.3505542 17.45686279 82.66064453 17.69580078 C86.88728137 18.47949132 91.09974816 19.33274694 95.3125 20.1875 C95.3125 20.5175 95.3125 20.8475 95.3125 21.1875 C98.6125 21.5175 101.9125 21.8475 105.3125 22.1875 C105.3125 22.5175 105.3125 22.8475 105.3125 23.1875 C105.92738281 23.22488281 106.54226563 23.26226563 107.17578125 23.30078125 C107.98402344 23.36652344 108.79226563 23.43226563 109.625 23.5 C110.42550781 23.55800781 111.22601562 23.61601563 112.05078125 23.67578125 C114.3125 24.1875 114.3125 24.1875 115.70043945 25.68041992 C117.67664408 27.52793032 118.70215098 27.62774034 121.3671875 27.8125 C122.14707031 27.87953125 122.92695312 27.9465625 123.73046875 28.015625 C124.54128906 28.07234375 125.35210938 28.1290625 126.1875 28.1875 C131.78711864 28.58297868 135.53676262 29.01761477 140.3125 32.1875 C142.73779916 32.74835564 142.73779916 32.74835564 145.125 32.875 C145.91519531 32.94074219 146.70539063 33.00648438 147.51953125 33.07421875 C148.11121094 33.11160156 148.70289063 33.14898438 149.3125 33.1875 C149.3125 33.5175 149.3125 33.8475 149.3125 34.1875 C150.32570313 34.22617187 150.32570313 34.22617187 151.359375 34.265625 C158.45267629 34.71664416 158.45267629 34.71664416 161.9375 36.625 C164.10215074 40.65912183 163.62038882 44.70600724 163.3125 49.1875 C161.8275 49.6825 161.8275 49.6825 160.3125 50.1875 C160.3125 50.8475 160.3125 51.5075 160.3125 52.1875 C158.9375 53.8125 158.9375 53.8125 157.3125 55.1875 C156.6525 55.1875 155.9925 55.1875 155.3125 55.1875 C154.9825 59.4775 154.6525 63.7675 154.3125 68.1875 C154.9725 68.1875 155.6325 68.1875 156.3125 68.1875 C156.3125 72.1475 156.3125 76.1075 156.3125 80.1875 C155.6525 80.1875 154.9925 80.1875 154.3125 80.1875 C154.209375 80.826875 154.10625 81.46625 154 82.125 C153.6596875 83.1459375 153.6596875 83.1459375 153.3125 84.1875 C150.3419323 85.17768923 148.41475695 85.3127815 145.31617069 85.31334114 C144.27809586 85.31594889 143.24002102 85.31855664 142.17048937 85.32124341 C141.02634473 85.31901268 139.88220009 85.31678196 138.7033844 85.31448364 C137.49082834 85.31604363 136.27827227 85.31760362 135.02897209 85.31921089 C131.6571856 85.32251718 128.28545454 85.32131662 124.91367137 85.31822467 C121.27966485 85.31596797 117.64566327 85.31945155 114.01165771 85.32220459 C106.88994204 85.3266585 99.76823689 85.32568746 92.6465208 85.32279195 C86.8595351 85.32053626 81.07255235 85.32022612 75.28556633 85.32131577 C74.05148494 85.32154561 74.05148494 85.32154561 72.79247261 85.32178011 C71.12127114 85.32209982 69.45006966 85.32242404 67.77886819 85.3227527 C52.09610503 85.32560642 36.41334771 85.32232224 20.73058551 85.31695233 C7.26757166 85.31248522 -6.19543357 85.31325967 -19.65844727 85.31787109 C-35.28242274 85.32322018 -50.90639308 85.32533087 -66.53036934 85.32225883 C-68.19582975 85.32194027 -69.86129016 85.3216259 -71.52675056 85.32131577 C-72.3462435 85.32116149 -73.16573644 85.32100721 -74.0100625 85.32084826 C-79.79107174 85.31998405 -85.57207773 85.32144395 -91.35308647 85.32379532 C-98.39688248 85.32659725 -105.44066735 85.32584675 -112.48446207 85.32051457 C-116.07983279 85.31788277 -119.67518491 85.31686372 -123.2705555 85.32016373 C-127.16418115 85.32368349 -131.05777621 85.31948647 -134.95140076 85.31448364 C-136.66427164 85.31782973 -136.66427164 85.31782973 -138.41174597 85.32124341 C-139.45242855 85.31863566 -140.49311113 85.31602791 -141.56532955 85.31334114 C-142.46439996 85.31317879 -143.36347036 85.31301644 -144.28978533 85.31284916 C-146.61309386 85.19138985 -148.51725016 85.03403798 -150.6875 84.1875 C-151.0175 83.1975 -151.3475 82.2075 -151.6875 81.1875 C-152.3475 82.1775 -153.0075 83.1675 -153.6875 84.1875 C-153.6875 76.9275 -153.6875 69.6675 -153.6875 62.1875 C-153.3575 62.1875 -153.0275 62.1875 -152.6875 62.1875 C-152.0275 60.2075 -151.3675 58.2275 -150.6875 56.1875 C-151.574375 56.125625 -152.46125 56.06375 -153.375 56 C-157.48351121 54.99225197 -158.92560132 53.32262823 -161.6875 50.1875 C-162.285625 49.713125 -162.88375 49.23875 -163.5 48.75 C-165.40905099 46.2380908 -165.06062788 44.23471105 -164.6875 41.1875 C-162.96286874 38.23098926 -161.5828631 37.11774206 -158.6875 35.1875 C-156.20703125 34.7734375 -156.20703125 34.7734375 -153.5 34.5625 C-152.59894531 34.48773437 -151.69789063 34.41296875 -150.76953125 34.3359375 C-150.08246094 34.28695312 -149.39539063 34.23796875 -148.6875 34.1875 C-148.6875 33.8575 -148.6875 33.5275 -148.6875 33.1875 C-146.79947917 33.02473958 -144.91145833 32.86197917 -143.0234375 32.69921875 C-140.53573518 32.26936671 -140.53573518 32.26936671 -137.98828125 30.70703125 C-133.12805323 28.46960084 -128.33934496 28.3872301 -123.05664062 28.015625 C-121.89358398 27.91507813 -121.89358398 27.91507813 -120.70703125 27.8125 C-119.65672729 27.73902344 -119.65672729 27.73902344 -118.58520508 27.6640625 C-116.20890448 27.06731237 -115.3321542 25.95375578 -113.6875 24.1875 C-111.42578125 23.67578125 -111.42578125 23.67578125 -109 23.5 C-107.78763672 23.40138672 -107.78763672 23.40138672 -106.55078125 23.30078125 C-105.62845703 23.24470703 -105.62845703 23.24470703 -104.6875 23.1875 C-104.6875 22.8575 -104.6875 22.5275 -104.6875 22.1875 C-101.3875 21.8575 -98.0875 21.5275 -94.6875 21.1875 C-94.6875 20.8575 -94.6875 20.5275 -94.6875 20.1875 C-92.126505 19.55568567 -89.56438178 18.93033482 -87 18.3125 C-86.23284668 18.1276001 -85.46569336 17.9427002 -84.67529297 17.75219727 C-78.89210233 16.39197642 -73.13425938 15.44289441 -67.2265625 14.77734375 C-64.64696557 14.41636831 -64.64696557 14.41636831 -63.19140625 12.671875 C-60.98139412 10.49056433 -59.04031825 10.67884225 -56 10.5 C-55.00613281 10.43425781 -54.01226562 10.36851562 -52.98828125 10.30078125 C-51.84939453 10.24470703 -51.84939453 10.24470703 -50.6875 10.1875 C-50.6875 9.8575 -50.6875 9.5275 -50.6875 9.1875 C-47.2225 8.6925 -47.2225 8.6925 -43.6875 8.1875 C-43.6875 7.8575 -43.6875 7.5275 -43.6875 7.1875 C-43.04683594 7.13851562 -42.40617187 7.08953125 -41.74609375 7.0390625 C-40.88113281 6.96429687 -40.01617187 6.88953125 -39.125 6.8125 C-38.27808594 6.74289062 -37.43117188 6.67328125 -36.55859375 6.6015625 C-33.15180129 6.11024277 -29.99522624 5.13807668 -26.6875 4.1875 C-23.1813133 3.45244686 -19.650226 2.85749249 -16.12109375 2.24414062 C-3.61034446 0.00253358 -3.61034446 0.00253358 0 0 Z " fill="#D7DCE6" transform="translate(539.6875,581.8125)"/>
<path d="M0 0 C0.33 0.99 0.66 1.98 1 3 C2.32 3 3.64 3 5 3 C5 59.43 5 115.86 5 174 C103.01 174 201.02 174 302 174 C302 117.57 302 61.14 302 3 C302.99 3 303.98 3 305 3 C305.33 4.32 305.66 5.64 306 7 C306.66 7 307.32 7 308 7 C308.00054477 7.84152493 308.00108953 8.68304985 308.00165081 9.55007553 C308.01660967 30.0140255 308.05902015 50.47775739 308.13209057 70.94158554 C308.16676283 80.83770977 308.19209902 90.73369439 308.19555664 100.62988281 C308.19859343 109.25411717 308.21904538 117.87810303 308.26052457 126.50224137 C308.28188229 131.06991143 308.29444104 135.63722795 308.28615379 140.20494843 C308.27863106 144.50282611 308.2943632 148.79998642 308.32806015 153.09773254 C308.33631502 154.67633703 308.33601796 156.25501257 308.32659721 157.83361053 C308.31501385 159.98755985 308.33402812 162.13914283 308.36076355 164.29290771 C308.36352893 165.49861294 308.36629431 166.70431816 308.36914349 167.94655991 C309.18083321 171.87525986 310.7836714 172.76978514 314 175 C314 175.66 314 176.32 314 177 C314.99 177 315.98 177 317 177 C317 177.66 317 178.32 317 179 C317.99 179 318.98 179 320 179 C320 179.66 320 180.32 320 181 C320.9075 181.2475 321.815 181.495 322.75 181.75 C326.26911941 183.10350746 327.87456686 183.89359772 330 187 C330 189.64 330 192.28 330 195 C213.18 195 96.36 195 -24 195 C-24.33 194.34 -24.66 193.68 -25 193 C-25.66 193 -26.32 193 -27 193 C-27 191.02 -27 189.04 -27 187 C-26.01 187 -25.02 187 -24 187 C-24 186.34 -24 185.68 -24 185 C-23.34 185 -22.68 185 -22 185 C-21.505 184.01 -21.505 184.01 -21 183 C-19.66666667 182.33333333 -18.33333333 181.66666667 -17 181 C-16.505 180.01 -16.505 180.01 -16 179 C-15.01 179 -14.02 179 -13 179 C-13 178.34 -13 177.68 -13 177 C-11.68 177 -10.36 177 -9 177 C-8.67 176.01 -8.34 175.02 -8 174 C-4.04 172.02 -4.04 172.02 0 170 C0 113.9 0 57.8 0 0 Z " fill="#F8F9FA" transform="translate(388,663)"/>
<path d="M0 0 C1.70796558 -0.05470352 3.41645625 -0.09310718 5.125 -0.125 C6.55199219 -0.15980469 6.55199219 -0.15980469 8.0078125 -0.1953125 C11.32470565 0.02119489 13.8595606 0.92239825 17 2 C19.94289796 2.63504274 22.90544474 3.13175184 25.875 3.625 C27.050625 3.82609375 27.050625 3.82609375 28.25 4.03125 C30.16595474 4.35836422 32.08288282 4.67976884 34 5 C34 5.66 34 6.32 34 7 C36.31 7 38.62 7 41 7 C41 7.33 41 7.66 41 8 C46.445 8.495 46.445 8.495 52 9 C52 9.33 52 9.66 52 10 C53.13888672 10.05607422 53.13888672 10.05607422 54.30078125 10.11328125 C55.29464844 10.17902344 56.28851562 10.24476563 57.3125 10.3125 C58.79169922 10.39951172 58.79169922 10.39951172 60.30078125 10.48828125 C63 11 63 11 64.39892578 12.46337891 C66.36272651 14.34812453 67.65897792 14.61020232 70.31640625 15.09765625 C71.58774414 15.34032227 71.58774414 15.34032227 72.88476562 15.58789062 C73.76841797 15.74451172 74.65207031 15.90113281 75.5625 16.0625 C77.29296875 16.38671875 79.0234375 16.7109375 80.75390625 17.03515625 C82.0380542 17.26936279 82.0380542 17.26936279 83.34814453 17.50830078 C87.57478137 18.29199132 91.78724816 19.14524694 96 20 C96 20.33 96 20.66 96 21 C99.3 21.33 102.6 21.66 106 22 C106 22.33 106 22.66 106 23 C106.61488281 23.03738281 107.22976563 23.07476563 107.86328125 23.11328125 C108.67152344 23.17902344 109.47976563 23.24476563 110.3125 23.3125 C111.11300781 23.37050781 111.91351562 23.42851563 112.73828125 23.48828125 C115 24 115 24 116.38793945 25.49291992 C118.36414408 27.34043032 119.38965098 27.44024034 122.0546875 27.625 C122.83457031 27.69203125 123.61445312 27.7590625 124.41796875 27.828125 C125.22878906 27.88484375 126.03960938 27.9415625 126.875 28 C132.47461864 28.39547868 136.22426262 28.83011477 141 32 C143.42529916 32.56085564 143.42529916 32.56085564 145.8125 32.6875 C146.60269531 32.75324219 147.39289063 32.81898438 148.20703125 32.88671875 C148.79871094 32.92410156 149.39039063 32.96148438 150 33 C150 33.33 150 33.66 150 34 C151.01320313 34.03867187 151.01320313 34.03867187 152.046875 34.078125 C159.14017629 34.52914416 159.14017629 34.52914416 162.625 36.4375 C164.78965074 40.47162183 164.30788882 44.51850724 164 49 C162.515 49.495 162.515 49.495 161 50 C161 50.66 161 51.32 161 52 C159.625 53.625 159.625 53.625 158 55 C157.34 55 156.68 55 156 55 C155.67 59.29 155.34 63.58 155 68 C155.66 68 156.32 68 157 68 C157 71.96 157 75.92 157 80 C156.34 80 155.68 80 155 80 C154.896875 80.639375 154.79375 81.27875 154.6875 81.9375 C154.3471875 82.9584375 154.3471875 82.9584375 154 84 C151.0294323 84.99018923 149.10225695 85.1252815 146.00367069 85.12584114 C144.96559586 85.12844889 143.92752102 85.13105664 142.85798937 85.13374341 C141.71384473 85.13151268 140.56970009 85.12928196 139.3908844 85.12698364 C138.17832834 85.12854363 136.96577227 85.13010362 135.71647209 85.13171089 C132.3446856 85.13501718 128.97295454 85.13381662 125.60117137 85.13072467 C121.96716485 85.12846797 118.33316327 85.13195155 114.69915771 85.13470459 C107.57744204 85.1391585 100.45573689 85.13818746 93.3340208 85.13529195 C87.5470351 85.13303626 81.76005235 85.13272612 75.97306633 85.13381577 C74.73898494 85.13404561 74.73898494 85.13404561 73.47997261 85.13428011 C71.80877114 85.13459982 70.13756966 85.13492404 68.46636819 85.1352527 C52.78360503 85.13810642 37.10084771 85.13482224 21.41808551 85.12945233 C7.95507166 85.12498522 -5.50793357 85.12575967 -18.97094727 85.13037109 C-34.59492274 85.13572018 -50.21889308 85.13783087 -65.84286934 85.13475883 C-67.50832975 85.13444027 -69.17379016 85.1341259 -70.83925056 85.13381577 C-71.6587435 85.13366149 -72.47823644 85.13350721 -73.3225625 85.13334826 C-79.10357174 85.13248405 -84.88457773 85.13394395 -90.66558647 85.13629532 C-97.70938248 85.13909725 -104.75316735 85.13834675 -111.79696207 85.13301457 C-115.39233279 85.13038277 -118.98768491 85.12936372 -122.5830555 85.13266373 C-126.47668115 85.13618349 -130.37027621 85.13198647 -134.26390076 85.12698364 C-135.97677164 85.13032973 -135.97677164 85.13032973 -137.72424597 85.13374341 C-138.76492855 85.13113566 -139.80561113 85.12852791 -140.87782955 85.12584114 C-141.77689996 85.12567879 -142.67597036 85.12551644 -143.60228533 85.12534916 C-145.87228229 85.0066769 -147.8243645 84.6373766 -150 84 C-151 80 -151 80 -150 68 C-51.66 67.67 46.68 67.34 148 67 C148 63.04 148 59.08 148 55 C146.02 55 144.04 55 142 55 C141.34 54.67 140.68 54.34 140 54 C140 57.96 140 61.92 140 66 C136.37 66 132.74 66 129 66 C129 62.04 129 58.08 129 54 C128.05125 54.185625 127.1025 54.37125 126.125 54.5625 C123 55 123 55 121 54 C121 57.96 121 61.92 121 66 C117.37 66 113.74 66 110 66 C110 62.04 110 58.08 110 54 C109.05125 54.185625 108.1025 54.37125 107.125 54.5625 C104 55 104 55 102 54 C102 57.96 102 61.92 102 66 C98.37 66 94.74 66 91 66 C91 62.04 91 58.08 91 54 C90.05125 54.185625 89.1025 54.37125 88.125 54.5625 C85 55 85 55 83 54 C83 57.96 83 61.92 83 66 C79.37 66 75.74 66 72 66 C71.67 62.37 71.34 58.74 71 55 C69.02 55 67.04 55 65 55 C64.67 58.63 64.34 62.26 64 66 C60.37 66 56.74 66 53 66 C52.67 62.37 52.34 58.74 52 55 C50.02 55 48.04 55 46 55 C45.67 58.63 45.34 62.26 45 66 C41.37 66 37.74 66 34 66 C33.67 62.37 33.34 58.74 33 55 C32.67 58.3 32.34 61.6 32 65 C31.67 65 31.34 65 31 65 C30.67 61.7 30.34 58.4 30 55 C29.01 55 28.02 55 27 55 C26.67 58.63 26.34 62.26 26 66 C16.1 66 6.2 66 -4 66 C-4.33 62.37 -4.66 58.74 -5 55 C-6.98 55 -8.96 55 -11 55 C-11.33 58.63 -11.66 62.26 -12 66 C-24.21 66 -36.42 66 -49 66 C-49.33 62.37 -49.66 58.74 -50 55 C-50 58.63 -50 62.26 -50 66 C-61.22 66 -72.44 66 -84 66 C-84.33 62.37 -84.66 58.74 -85 55 C-85.99 55 -86.98 55 -88 55 C-88.33 58.63 -88.66 62.26 -89 66 C-93.62 66 -98.24 66 -103 66 C-103.33 62.37 -103.66 58.74 -104 55 C-104.99 55 -105.98 55 -107 55 C-107.33 58.63 -107.66 62.26 -108 66 C-111.63 66 -115.26 66 -119 66 C-119 62.37 -119 58.74 -119 55 C-119.33 55 -119.66 55 -120 55 C-120 58.63 -120 62.26 -120 66 C-120.66 66 -121.32 66 -122 66 C-122.33 62.37 -122.66 58.74 -123 55 C-123.99 55 -124.98 55 -126 55 C-126.33 58.63 -126.66 62.26 -127 66 C-130.63 66 -134.26 66 -138 66 C-138.33 62.37 -138.66 58.74 -139 55 C-141.91652174 54.83318891 -141.91652174 54.83318891 -145 55 C-145.66 55.66 -146.32 56.32 -147 57 C-147 55.68 -147 54.36 -147 53 C-46.68 52.67 53.64 52.34 157 52 C157 50.02 157 48.04 157 46 C154.69 46 152.38 46 150 46 C150 45.34 150 44.68 150 44 C151.45880109 44.14107747 152.91703551 44.28802415 154.375 44.4375 C155.18710937 44.51871094 155.99921875 44.59992187 156.8359375 44.68359375 C159 45 159 45 161 46 C161.33 44.35 161.66 42.7 162 41 C161.38747879 40.88123001 160.77495758 40.76246002 160.14387512 40.64009094 C154.25387026 39.48238129 148.41002981 38.19676895 142.57421875 36.79296875 C141.70593948 36.58569656 140.83766022 36.37842438 139.94306946 36.16487122 C137.19079963 35.50746215 134.43913682 34.84755298 131.6875 34.1875 C129.88741057 33.75699092 128.08728059 33.32665134 126.28710938 32.89648438 C123.58722295 32.25123455 120.88742251 31.60563737 118.18791199 30.95881653 C113.53783464 29.84464736 108.88674398 28.73502269 104.23364258 27.63354492 C102.8231237 27.29925224 102.8231237 27.29925224 101.3841095 26.95820618 C99.60274644 26.53627511 97.8211752 26.11522159 96.03935242 25.69523621 C91.10501077 24.52568053 86.20389944 23.27558955 81.3125 21.9375 C75.9644825 20.48106822 70.6038479 19.22782317 65.1875 18.0625 C59.22630326 16.77675168 53.35999557 15.31184729 47.5 13.625 C37.73192304 10.82091482 27.84197167 8.57993378 17.93359375 6.33203125 C16.92538574 6.10209473 15.91717773 5.8721582 14.87841797 5.63525391 C13.03361678 5.22811458 11.18375829 4.84289846 9.32861328 4.48583984 C8.13147705 4.2511499 8.13147705 4.2511499 6.91015625 4.01171875 C6.22187744 3.88627686 5.53359863 3.76083496 4.82446289 3.6315918 C2.61018739 2.86505484 1.52635548 1.74656854 0 0 Z " fill="#AFB4C9" transform="translate(539,582)"/>
<path d="M0 0 C27 0 27 0 34 6 C35.98 4.02 37.96 2.04 40 0 C48.91 0 57.82 0 67 0 C67 51.81 67 103.62 67 157 C62.38 157 57.76 157 53 157 C52.67 109.48 52.34 61.96 52 13 C42.33652355 18.43168 42.33652355 18.43168 40.75390434 23.00091457 C40.75574793 24.00474713 40.75759151 25.00857969 40.75949097 26.04283142 C40.72624977 27.78637405 40.72624977 27.78637405 40.69233704 29.56513977 C40.71893906 30.82102402 40.74554108 32.07690826 40.77294922 33.37084961 C40.76589912 34.72164775 40.75445405 36.07242898 40.7389679 37.42315674 C40.70947107 41.0744728 40.74115308 44.72295764 40.78413153 48.37404323 C40.81860735 52.1951359 40.79640267 56.01589742 40.78030396 59.83705139 C40.75841375 67.06564753 40.78722859 74.29310959 40.834427 81.52154881 C40.88569872 89.75379348 40.88019396 97.98569714 40.87000632 106.21805942 C40.85032558 123.14580645 40.90367796 140.07252961 41 157 C36.05 157 31.1 157 26 157 C26 111.46 26 65.92 26 19 C24.35 18.34 22.7 17.68 21 17 C19.02 15.68 17.04 14.36 15 13 C15 60.52 15 108.04 15 157 C10.05 157 5.1 157 0 157 C0 105.19 0 53.38 0 0 Z " fill="#FAFBFC" transform="translate(404,674)"/>
<path d="M0 0 C10.56 0 21.12 0 32 0 C32 51.81 32 103.62 32 157 C18.47 157 4.94 157 -9 157 C-9.20354635 138.30157125 -9.36917086 119.60404616 -9.46630955 100.90478897 C-9.51262139 92.22144012 -9.57570396 83.53883094 -9.67895508 74.85595703 C-9.76895759 67.28357955 -9.82679353 59.71173797 -9.84679645 52.13884044 C-9.85848096 48.1326081 -9.88572972 44.12790818 -9.95157051 40.12216949 C-10.01318197 36.34271624 -10.03140323 32.56540927 -10.01796913 28.78550148 C-10.02158228 26.75503091 -10.06974692 24.72478825 -10.11978149 22.69493103 C-10.00723093 11.44578408 -7.64435281 10.19247041 0 0 Z " fill="#FAFAFC" transform="translate(597,674)"/>
<path d="M0 0 C4.95 0 9.9 0 15 0 C15.33 15.51 15.66 31.02 16 47 C18.64 45.02 21.28 43.04 24 41 C24.66 41 25.32 41 26 41 C26 27.47 26 13.94 26 0 C30.95 0 35.9 0 41 0 C41.17314418 6.74425137 41.30011878 13.48720754 41.38452148 20.2331543 C41.41970672 22.52732885 41.46746347 24.82134663 41.52807617 27.11499023 C41.61307661 30.41429291 41.65270822 33.71152037 41.68359375 37.01171875 C41.71972275 38.03585373 41.75585175 39.05998871 41.79307556 40.11515808 C41.79690346 47.07001254 41.79690346 47.07001254 39.46536255 49.79092407 C37.00333831 51.61590627 35.11612134 53 32 53 C32 53.66 32 54.32 32 55 C32.556875 55.2475 33.11375 55.495 33.6875 55.75 C36.62550139 57.33810886 38.66464588 58.55711344 41 61 C41.73481742 64.08403306 41.63187273 67.10981255 41.56762695 70.26660156 C41.56835709 71.20352844 41.56908722 72.14045532 41.56983948 73.10577393 C41.56635722 76.20131409 41.52746514 79.29534786 41.48828125 82.390625 C41.47895542 84.53724343 41.47183822 86.6838725 41.46684265 88.83050537 C41.44775494 94.47950642 41.39863814 100.12786433 41.34332275 105.77661133 C41.29216893 111.54108988 41.26933683 117.30567238 41.24414062 123.0703125 C41.19052172 134.38049085 41.10518688 145.69019194 41 157 C36.05 157 31.1 157 26 157 C26.00745743 155.91307358 26.01491486 154.82614716 26.02259827 153.70628357 C26.08708262 143.45107905 26.10417741 133.19673811 26.07515812 122.94135952 C26.06175476 117.66907513 26.0649094 112.39789467 26.10620117 107.12573242 C26.14545554 102.03529892 26.14082784 96.94660468 26.10607719 91.8561573 C26.10048846 89.91653648 26.11057652 87.97680366 26.13676643 86.03735161 C26.17083573 83.313882 26.14860058 80.59614092 26.11352539 77.87280273 C26.13653214 77.07510468 26.15953888 76.27740662 26.1832428 75.45553589 C26.19830868 72.82727284 26.19830868 72.82727284 25 69 C20.545 65.535 20.545 65.535 16 62 C15.67 93.35 15.34 124.7 15 157 C10.05 157 5.1 157 0 157 C0 105.19 0 53.38 0 0 Z " fill="#F8F9FA" transform="translate(536,674)"/>
<path d="M0 0 C4.95 0 9.9 0 15 0 C14.98810135 1.11198257 14.9762027 2.22396515 14.96394348 3.36964417 C14.85888238 13.8602707 14.81181934 24.34977676 14.82121754 34.84094334 C14.82419378 40.23455841 14.80689557 45.62650595 14.74291992 51.01977539 C14.68190195 56.22706587 14.67459015 61.43194233 14.70416832 66.63947868 C14.70606869 68.62381392 14.68876907 70.6082653 14.65177345 72.59225655 C14.60312707 75.37877333 14.6234053 78.15706905 14.65942383 80.94360352 C14.61412788 82.16820282 14.61412788 82.16820282 14.56791687 83.4175415 C14.54414534 86.11711137 14.54414534 86.11711137 16 90 C19.63 92.31 23.26 94.62 27 97 C27 64.99 27 32.98 27 0 C31.62 0 36.24 0 41 0 C41 51.81 41 103.62 41 157 C27.47 157 13.94 157 0 157 C0 141.16 0 125.32 0 109 C2.64 110.98 5.28 112.96 8 115 C9.31097656 115.83789062 10.62195313 116.67578125 11.97265625 117.5390625 C14.38394325 119.63875177 14.94798118 120.72303117 15.54638672 123.90917969 C15.68975518 127.42451322 15.61071125 130.86128603 15.4375 134.375 C15.39012695 136.19451172 15.39012695 136.19451172 15.34179688 138.05078125 C15.25955749 141.03489607 15.13400929 144.01776156 15 147 C18.96 147 22.92 147 27 147 C27 135.12 27 123.24 27 111 C23.26010948 109.50344304 23.26010948 109.50344304 19.43466187 108.25546265 C12.31782456 106.10330052 5.49767468 102.98191393 0.98161316 96.8391571 C-5.77728774 84.17563431 -2.12235236 63.77079378 -1.51062012 50.00030518 C-1.28415212 44.36398343 -1.1847994 38.72551226 -1.07421875 33.0859375 C-0.83936685 22.05159219 -0.4647671 11.02688917 0 0 Z " fill="#FDFDFD" transform="translate(483,674)"/>
<path d="M0 0 C12.54 0 25.08 0 38 0 C38 24.42 38 48.84 38 74 C35.69 72.02 33.38 70.04 31 68 C30.27703232 67.51228119 29.55406464 67.02456238 28.80918884 66.52206421 C25.83437759 64.51523674 24.24242285 63.02560184 23.40164185 59.46856689 C23.18890414 56.30094781 23.21279792 53.21211984 23.31640625 50.0390625 C23.32631088 48.89335785 23.33621552 47.7476532 23.34642029 46.56723022 C23.38551325 42.91850187 23.47333548 39.27281444 23.5625 35.625 C23.59762 33.14717895 23.62955778 30.66931061 23.65820312 28.19140625 C23.73526045 22.12643777 23.85601717 16.0637339 24 10 C20.7 10 17.4 10 14 10 C13.80511447 18.0075428 13.68784546 26.01109169 13.66578102 34.02079391 C13.65317372 37.74169578 13.61527073 41.45852894 13.51660156 45.17822266 C12.25860044 62.23437747 12.25860044 62.23437747 17.89355469 77.41210938 C20.65806368 80.04781841 23.67010056 81.9066059 26.97041321 83.79223633 C31.31074535 86.37507511 35.04116461 88.83293839 38 93 C39.20074509 97.92823523 39.05451865 102.74744264 38.87890625 107.78125 C38.86209271 109.20467073 38.84929449 110.62814402 38.84031677 112.05163574 C38.80616309 115.77501536 38.71795928 119.49516913 38.61798096 123.21728516 C38.50913955 127.69546845 38.46830029 132.17473865 38.41590118 136.65386963 C38.3290001 143.43814757 38.15647929 150.21536724 38 157 C25.46 157 12.92 157 0 157 C0 139.18 0 121.36 0 103 C10.65250965 107.26100386 10.65250965 107.26100386 14 112 C15.51148663 117.96542054 14.84275984 124.35227737 14.5625 130.4375 C14.51731298 132.13986835 14.47625573 133.84235163 14.43945312 135.54492188 C14.3406872 139.69946844 14.18566221 143.848466 14 148 C17.3 148 20.6 148 24 148 C24.10470948 141.47017922 24.1432097 134.94444683 24.12207031 128.41381836 C24.12400943 126.19563137 24.14360796 123.97738325 24.18164062 121.75952148 C24.82431664 109.19571034 24.82431664 109.19571034 20.90917969 97.66137695 C18.38843672 95.38046845 15.9430895 93.68604585 13 92 C11.87613963 91.09822795 10.76793175 90.17603036 9.6875 89.22265625 C8.800625 88.50980469 7.91375 87.79695312 7 87.0625 C2.18248175 83.18248175 2.18248175 83.18248175 0 81 C-0.18788205 78.40991691 -0.25187766 75.92769067 -0.22705078 73.33740234 C-0.22734283 72.54707108 -0.22763489 71.75673981 -0.22793579 70.94245911 C-0.22653962 68.32350786 -0.21096505 65.7048392 -0.1953125 63.0859375 C-0.19158339 61.27275752 -0.18873594 59.45957553 -0.18673706 57.64639282 C-0.17909257 52.86892149 -0.15943712 48.09157133 -0.1373291 43.31414795 C-0.11329572 37.58480331 -0.10409357 31.8554182 -0.09242249 26.1260376 C-0.07301316 17.41727406 -0.03469632 8.70877652 0 0 Z " fill="#F8F9FB" transform="translate(641,674)"/>
<path d="M0 0 C1.41129313 0.37172152 2.82276302 0.7427724 4.234375 1.11328125 C5.3780957 1.41806396 5.3780957 1.41806396 6.54492188 1.72900391 C11.10160048 2.92798676 15.67737502 4.05118115 20.25 5.1875 C22.31389051 5.70277096 24.37769018 6.21840586 26.44140625 6.734375 C27.50633301 7.00056641 28.57125977 7.26675781 29.66845703 7.54101562 C33.12193143 8.40552307 36.57469313 9.27283381 40.02734375 10.140625 C51.41150274 12.99910645 62.79941016 15.8283616 74.22412109 18.52050781 C84.842554 21.03096264 95.42011454 23.70758143 106 26.375 C106 26.705 106 27.035 106 27.375 C27.79 27.375 -50.42 27.375 -131 27.375 C-128.02807439 25.88903719 -126.10129867 25.03577054 -123 24.33203125 C-122.21020752 24.14906494 -121.42041504 23.96609863 -120.60668945 23.77758789 C-119.74648193 23.58285889 -118.88627441 23.38812988 -118 23.1875 C-109.41282477 21.1966545 -100.85842104 19.09838788 -92.3125 16.9375 C-83.29321494 14.66355582 -74.25938607 12.4911681 -65.1875 10.4375 C-53.80419173 7.86031406 -42.51145592 4.97868763 -31.22729492 2.00219727 C-29.98181885 1.67533936 -28.73634277 1.34848145 -27.453125 1.01171875 C-26.35129883 0.71998779 -25.24947266 0.42825684 -24.11425781 0.12768555 C-15.67376665 -1.91229832 -8.392256 -2.26370063 0 0 Z " fill="#183674" transform="translate(552,599.625)"/>
<path d="M0 0 C1.20462891 -0.02126953 1.20462891 -0.02126953 2.43359375 -0.04296875 C4.5625 0.1875 4.5625 0.1875 6.5625 2.1875 C-5.74173395 5.31808366 -18.05859204 8.36514265 -30.4375 11.1875 C-39.80748316 13.32550464 -49.14025406 15.57958404 -58.45776367 17.93530273 C-65.70834081 19.76571365 -72.9745683 21.52123944 -80.25 23.25 C-87.65225301 25.01015972 -95.02650462 26.83987253 -102.375 28.8125 C-109.16959309 30.63589556 -115.98759288 32.24633296 -122.86303711 33.734375 C-127.91424255 34.83195392 -132.92885242 36.03522652 -137.9375 37.3125 C-143.7384652 38.79140079 -149.54758252 40.11145738 -155.4375 41.1875 C-155.1075 42.8375 -154.7775 44.4875 -154.4375 46.1875 C-152.82875 45.6925 -152.82875 45.6925 -151.1875 45.1875 C-147.4375 44.1875 -147.4375 44.1875 -143.4375 44.1875 C-143.4375 44.8475 -143.4375 45.5075 -143.4375 46.1875 C-145.7475 46.1875 -148.0575 46.1875 -150.4375 46.1875 C-150.4375 48.1675 -150.4375 50.1475 -150.4375 52.1875 C-50.1175 52.1875 50.2025 52.1875 153.5625 52.1875 C153.5625 52.5175 153.5625 52.8475 153.5625 53.1875 C55.8825 53.1875 -41.7975 53.1875 -142.4375 53.1875 C-142.1075 53.8475 -141.7775 54.5075 -141.4375 55.1875 C-140.2928125 54.94 -140.2928125 54.94 -139.125 54.6875 C-136.4375 54.1875 -136.4375 54.1875 -133.4375 54.1875 C-133.4375 58.1475 -133.4375 62.1075 -133.4375 66.1875 C-129.8075 66.1875 -126.1775 66.1875 -122.4375 66.1875 C-122.4375 62.5575 -122.4375 58.9275 -122.4375 55.1875 C-119.9625 54.6925 -119.9625 54.6925 -117.4375 54.1875 C-117.4375 58.1475 -117.4375 62.1075 -117.4375 66.1875 C-116.17800951 65.15343327 -116.17800951 65.15343327 -116.33984375 62.90234375 C-116.35144531 61.98582031 -116.36304688 61.06929687 -116.375 60.125 C-116.38402344 59.20589844 -116.39304687 58.28679688 -116.40234375 57.33984375 C-116.41394531 56.62957031 -116.42554688 55.91929687 -116.4375 55.1875 C-115.4475 55.1875 -114.4575 55.1875 -113.4375 55.1875 C-113.4375 58.4875 -113.4375 61.7875 -113.4375 65.1875 C-110.1375 65.5175 -106.8375 65.8475 -103.4375 66.1875 C-103.4375 62.5575 -103.4375 58.9275 -103.4375 55.1875 C-100.9625 54.6925 -100.9625 54.6925 -98.4375 54.1875 C-98.4375 58.1475 -98.4375 62.1075 -98.4375 66.1875 C-97.7775 66.1875 -97.1175 66.1875 -96.4375 66.1875 C-96.4375 62.2275 -96.4375 58.2675 -96.4375 54.1875 C-96.1075 54.1875 -95.7775 54.1875 -95.4375 54.1875 C-95.4375 58.1475 -95.4375 62.1075 -95.4375 66.1875 C-91.8075 66.1875 -88.1775 66.1875 -84.4375 66.1875 C-84.4375 62.5575 -84.4375 58.9275 -84.4375 55.1875 C-82.7875 54.8575 -81.1375 54.5275 -79.4375 54.1875 C-79.4375 58.1475 -79.4375 62.1075 -79.4375 66.1875 C-78.7775 66.1875 -78.1175 66.1875 -77.4375 66.1875 C-77.4375 62.2275 -77.4375 58.2675 -77.4375 54.1875 C-77.1075 54.1875 -76.7775 54.1875 -76.4375 54.1875 C-76.4375 58.1475 -76.4375 62.1075 -76.4375 66.1875 C-72.4775 66.1875 -68.5175 66.1875 -64.4375 66.1875 C-64.4375 62.2275 -64.4375 58.2675 -64.4375 54.1875 C-64.1075 54.1875 -63.7775 54.1875 -63.4375 54.1875 C-63.4375 58.1475 -63.4375 62.1075 -63.4375 66.1875 C-62.7775 66.1875 -62.1175 66.1875 -61.4375 66.1875 C-61.4375 62.2275 -61.4375 58.2675 -61.4375 54.1875 C-61.1075 54.1875 -60.7775 54.1875 -60.4375 54.1875 C-60.4375 58.1475 -60.4375 62.1075 -60.4375 66.1875 C-59.7775 66.1875 -59.1175 66.1875 -58.4375 66.1875 C-58.4375 62.2275 -58.4375 58.2675 -58.4375 54.1875 C-58.1075 54.1875 -57.7775 54.1875 -57.4375 54.1875 C-57.4375 58.1475 -57.4375 62.1075 -57.4375 66.1875 C-53.8075 65.8575 -50.1775 65.5275 -46.4375 65.1875 C-46.4375 61.8875 -46.4375 58.5875 -46.4375 55.1875 C-45.7775 54.8575 -45.1175 54.5275 -44.4375 54.1875 C-44.4375 58.1475 -44.4375 62.1075 -44.4375 66.1875 C-43.7775 66.1875 -43.1175 66.1875 -42.4375 66.1875 C-42.4375 62.2275 -42.4375 58.2675 -42.4375 54.1875 C-42.1075 54.1875 -41.7775 54.1875 -41.4375 54.1875 C-41.4375 58.1475 -41.4375 62.1075 -41.4375 66.1875 C-36.4875 66.1875 -31.5375 66.1875 -26.4375 66.1875 C-26.4375 62.2275 -26.4375 58.2675 -26.4375 54.1875 C-26.1075 54.1875 -25.7775 54.1875 -25.4375 54.1875 C-25.4375 58.1475 -25.4375 62.1075 -25.4375 66.1875 C-24.7775 66.1875 -24.1175 66.1875 -23.4375 66.1875 C-23.4375 62.2275 -23.4375 58.2675 -23.4375 54.1875 C-23.1075 54.1875 -22.7775 54.1875 -22.4375 54.1875 C-22.4375 58.1475 -22.4375 62.1075 -22.4375 66.1875 C-17.4875 66.1875 -12.5375 66.1875 -7.4375 66.1875 C-7.4375 62.2275 -7.4375 58.2675 -7.4375 54.1875 C-5.10455225 54.14508277 -2.77047433 54.14657063 -0.4375 54.1875 C2.40073106 57.02573106 0.5625 62.17363514 0.5625 66.1875 C10.4625 66.1875 20.3625 66.1875 30.5625 66.1875 C30.5625 62.2275 30.5625 58.2675 30.5625 54.1875 C32.2125 54.5175 33.8625 54.8475 35.5625 55.1875 C36.5525 55.1875 37.5425 55.1875 38.5625 55.1875 C38.5625 58.8175 38.5625 62.4475 38.5625 66.1875 C42.1925 66.1875 45.8225 66.1875 49.5625 66.1875 C49.5625 62.2275 49.5625 58.2675 49.5625 54.1875 C51.89544775 54.14508277 54.22952567 54.14657063 56.5625 54.1875 C57.5625 55.1875 57.5625 55.1875 57.66015625 57.69140625 C57.62760417 60.5234375 57.59505208 63.35546875 57.5625 66.1875 C61.1925 66.1875 64.8225 66.1875 68.5625 66.1875 C68.5625 62.2275 68.5625 58.2675 68.5625 54.1875 C70.89544775 54.14508277 73.22952567 54.14657063 75.5625 54.1875 C76.5625 55.1875 76.5625 55.1875 76.66015625 57.69140625 C76.62760417 60.5234375 76.59505208 63.35546875 76.5625 66.1875 C80.1925 66.1875 83.8225 66.1875 87.5625 66.1875 C87.5625 62.2275 87.5625 58.2675 87.5625 54.1875 C90.2025 54.1875 92.8425 54.1875 95.5625 54.1875 C95.5625 58.1475 95.5625 62.1075 95.5625 66.1875 C99.1925 66.1875 102.8225 66.1875 106.5625 66.1875 C106.5625 62.2275 106.5625 58.2675 106.5625 54.1875 C109.2025 54.1875 111.8425 54.1875 114.5625 54.1875 C114.5625 58.1475 114.5625 62.1075 114.5625 66.1875 C118.1925 66.1875 121.8225 66.1875 125.5625 66.1875 C125.5625 62.2275 125.5625 58.2675 125.5625 54.1875 C128.2025 54.1875 130.8425 54.1875 133.5625 54.1875 C133.5625 58.1475 133.5625 62.1075 133.5625 66.1875 C137.1925 66.1875 140.8225 66.1875 144.5625 66.1875 C144.5625 62.2275 144.5625 58.2675 144.5625 54.1875 C150.71484375 54.08984375 150.71484375 54.08984375 152.5625 54.1875 C155.87073887 57.49573887 153.5625 63.50894372 153.5625 68.1875 C54.8925 68.1875 -43.7775 68.1875 -145.4375 68.1875 C-145.4375 68.8475 -145.4375 69.5075 -145.4375 70.1875 C-46.4375 70.1875 52.5625 70.1875 154.5625 70.1875 C154.5625 70.5175 154.5625 70.8475 154.5625 71.1875 C55.5625 71.1875 -43.4375 71.1875 -145.4375 71.1875 C-145.4375 74.1575 -145.4375 77.1275 -145.4375 80.1875 C-146.4275 81.5075 -147.4175 82.8275 -148.4375 84.1875 C-148.4375 76.9275 -148.4375 69.6675 -148.4375 62.1875 C-148.1075 62.1875 -147.7775 62.1875 -147.4375 62.1875 C-146.7775 60.2075 -146.1175 58.2275 -145.4375 56.1875 C-146.324375 56.125625 -147.21125 56.06375 -148.125 56 C-152.23351121 54.99225197 -153.67560132 53.32262823 -156.4375 50.1875 C-157.035625 49.713125 -157.63375 49.23875 -158.25 48.75 C-160.15905099 46.2380908 -159.81062788 44.23471105 -159.4375 41.1875 C-157.71286874 38.23098926 -156.3328631 37.11774206 -153.4375 35.1875 C-150.95703125 34.7734375 -150.95703125 34.7734375 -148.25 34.5625 C-147.34894531 34.48773437 -146.44789063 34.41296875 -145.51953125 34.3359375 C-144.83246094 34.28695312 -144.14539063 34.23796875 -143.4375 34.1875 C-143.4375 33.8575 -143.4375 33.5275 -143.4375 33.1875 C-141.54947917 33.02473958 -139.66145833 32.86197917 -137.7734375 32.69921875 C-135.28573518 32.26936671 -135.28573518 32.26936671 -132.73828125 30.70703125 C-127.87805323 28.46960084 -123.08934496 28.3872301 -117.80664062 28.015625 C-116.64358398 27.91507813 -116.64358398 27.91507813 -115.45703125 27.8125 C-114.40672729 27.73902344 -114.40672729 27.73902344 -113.33520508 27.6640625 C-110.95890448 27.06731237 -110.0821542 25.95375578 -108.4375 24.1875 C-106.17578125 23.67578125 -106.17578125 23.67578125 -103.75 23.5 C-102.53763672 23.40138672 -102.53763672 23.40138672 -101.30078125 23.30078125 C-100.37845703 23.24470703 -100.37845703 23.24470703 -99.4375 23.1875 C-99.4375 22.8575 -99.4375 22.5275 -99.4375 22.1875 C-96.1375 21.8575 -92.8375 21.5275 -89.4375 21.1875 C-89.4375 20.8575 -89.4375 20.5275 -89.4375 20.1875 C-86.876505 19.55568567 -84.31438178 18.93033482 -81.75 18.3125 C-80.98284668 18.1276001 -80.21569336 17.9427002 -79.42529297 17.75219727 C-73.64210233 16.39197642 -67.88425938 15.44289441 -61.9765625 14.77734375 C-59.39696557 14.41636831 -59.39696557 14.41636831 -57.94140625 12.671875 C-55.73139412 10.49056433 -53.79031825 10.67884225 -50.75 10.5 C-49.75613281 10.43425781 -48.76226562 10.36851562 -47.73828125 10.30078125 C-46.59939453 10.24470703 -46.59939453 10.24470703 -45.4375 10.1875 C-45.4375 9.8575 -45.4375 9.5275 -45.4375 9.1875 C-41.9725 8.6925 -41.9725 8.6925 -38.4375 8.1875 C-38.4375 7.8575 -38.4375 7.5275 -38.4375 7.1875 C-37.79683594 7.13851562 -37.15617187 7.08953125 -36.49609375 7.0390625 C-35.63113281 6.96429687 -34.76617187 6.88953125 -33.875 6.8125 C-33.02808594 6.74289062 -32.18117188 6.67328125 -31.30859375 6.6015625 C-27.90180129 6.11024277 -24.74522624 5.13807668 -21.4375 4.1875 C-17.9313133 3.45244686 -14.400226 2.85749249 -10.87109375 2.24414062 C-6.83294252 1.52060696 -4.05014935 0.03240119 0 0 Z " fill="#D0D6E2" transform="translate(534.4375,581.8125)"/>
<path d="M0 0 C99.33 0 198.66 0 301 0 C301 2.97 301 5.94 301 9 C201.67 9 102.34 9 0 9 C0 6.03 0 3.06 0 0 Z " fill="#183674" transform="translate(390,653)"/>
<path d="M0 0 C97.68 0 195.36 0 296 0 C295.67 0.66 295.34 1.32 295 2 C289.25 2.125 289.25 2.125 287 1 C287 4.96 287 8.92 287 13 C283.37 13 279.74 13 276 13 C276 9.04 276 5.08 276 1 C275.05125 1.185625 274.1025 1.37125 273.125 1.5625 C270 2 270 2 268 1 C268 4.96 268 8.92 268 13 C264.37 13 260.74 13 257 13 C257 9.04 257 5.08 257 1 C256.05125 1.185625 255.1025 1.37125 254.125 1.5625 C251 2 251 2 249 1 C249 4.96 249 8.92 249 13 C245.37 13 241.74 13 238 13 C238 9.04 238 5.08 238 1 C237.05125 1.185625 236.1025 1.37125 235.125 1.5625 C232 2 232 2 230 1 C230 4.96 230 8.92 230 13 C226.37 13 222.74 13 219 13 C218.67 9.37 218.34 5.74 218 2 C216.02 2 214.04 2 212 2 C211.67 5.63 211.34 9.26 211 13 C207.37 13 203.74 13 200 13 C199.67 9.37 199.34 5.74 199 2 C197.02 2 195.04 2 193 2 C192.67 5.63 192.34 9.26 192 13 C188.37 13 184.74 13 181 13 C180.67 9.37 180.34 5.74 180 2 C179.67 5.3 179.34 8.6 179 12 C178.67 12 178.34 12 178 12 C177.67 8.7 177.34 5.4 177 2 C176.01 2 175.02 2 174 2 C173.67 5.63 173.34 9.26 173 13 C163.1 13 153.2 13 143 13 C142.67 9.37 142.34 5.74 142 2 C140.02 2 138.04 2 136 2 C135.67 5.63 135.34 9.26 135 13 C122.79 13 110.58 13 98 13 C97.505 7.555 97.505 7.555 97 2 C97 5.63 97 9.26 97 13 C85.78 13 74.56 13 63 13 C62.505 7.555 62.505 7.555 62 2 C61.01 2 60.02 2 59 2 C58.67 5.63 58.34 9.26 58 13 C53.38 13 48.76 13 44 13 C43.505 7.555 43.505 7.555 43 2 C42.01 2 41.02 2 40 2 C39.67 5.63 39.34 9.26 39 13 C35.37 13 31.74 13 28 13 C28 9.37 28 5.74 28 2 C27.67 2 27.34 2 27 2 C27 5.63 27 9.26 27 13 C26.34 13 25.68 13 25 13 C24.67 9.37 24.34 5.74 24 2 C23.01 2 22.02 2 21 2 C20.67 5.63 20.34 9.26 20 13 C16.37 13 12.74 13 9 13 C8.67 9.37 8.34 5.74 8 2 C5.08347826 1.83318891 5.08347826 1.83318891 2 2 C1.34 2.66 0.68 3.32 0 4 C0 2.68 0 1.36 0 0 Z " fill="#6A7EA6" transform="translate(392,635)"/>
<path d="M0 0 C110.22 0 220.44 0 334 0 C334 1.65 334 3.3 334 5 C223.78 5 113.56 5 0 5 C0 3.35 0 1.7 0 0 Z " fill="#183774" transform="translate(373,845)"/>
<path d="M0 0 C5.81352995 1.56671434 11.65825149 2.93615151 17.53515625 4.2421875 C25.13840561 5.93723058 32.70064608 7.73627189 40.25 9.65625 C43.56902408 10.48516363 46.89271422 11.27182622 50.22657776 12.03739929 C56.67575831 13.52269247 63.05598182 15.14157161 69.41796875 16.96484375 C79.07117582 19.68641721 88.81240862 21.92784723 98.59765625 24.1171875 C111.20836213 26.93869261 123.6773424 30.04401613 136.09765625 33.6171875 C135.76765625 35.2671875 135.43765625 36.9171875 135.09765625 38.6171875 C122.59166672 36.2453619 110.30401028 33.24858003 97.99609375 30.015625 C85.75448764 26.80696562 73.50406395 23.74755749 61.15966797 20.9597168 C52.51157561 18.98774382 43.92788191 16.79900791 35.34765625 14.5546875 C25.54859711 11.99299464 15.74129571 9.52728726 5.84790039 7.3527832 C1.34361125 6.36266575 -3.13502941 5.31776184 -7.6015625 4.16796875 C-9.01284424 3.81061646 -9.01284424 3.81061646 -10.45263672 3.44604492 C-12.22703659 2.9938976 -13.99854912 2.53017457 -15.76611328 2.05200195 C-25.34442011 -0.36320525 -33.46338012 1.84043541 -42.83984375 4.3046875 C-51.1904893 6.44900642 -59.55375417 8.47454213 -67.96484375 10.3671875 C-79.16777653 12.90479208 -90.28345701 15.73752846 -101.40234375 18.6171875 C-115.57451958 22.28670359 -129.76771923 25.7522498 -144.05029297 28.97021484 C-156.1510532 31.71520839 -168.20411779 34.61101136 -180.1640625 37.91796875 C-182.90234375 38.6171875 -182.90234375 38.6171875 -184.90234375 38.6171875 C-185.23234375 36.9671875 -185.56234375 35.3171875 -185.90234375 33.6171875 C-176.70822238 30.80874428 -167.45379146 28.56008853 -158.07177734 26.47387695 C-152.8117427 25.29772853 -147.59975734 24.04460563 -142.40234375 22.6171875 C-135.4098711 20.69889854 -128.36193266 19.09344896 -121.27929688 17.54296875 C-115.43842756 16.24885793 -109.66183414 14.77731371 -103.88594055 13.21871948 C-96.14409941 11.13314747 -88.3684804 9.18520498 -80.58984375 7.2421875 C-79.81452301 7.04809296 -79.03920227 6.85399841 -78.24038696 6.65402222 C-66.83249428 3.80091622 -55.40690987 1.05223391 -43.93432617 -1.53076172 C-39.92335238 -2.43621722 -35.94775166 -3.33641284 -32.015625 -4.54296875 C-21.5577393 -7.36410479 -10.10284485 -2.7388454 0 0 Z " fill="#1A3573" transform="translate(564.90234375,589.3828125)"/>
<path d="M0 0 C104.94 0 209.88 0 318 0 C318 1.65 318 3.3 318 5 C213.06 5 108.12 5 0 5 C0 3.35 0 1.7 0 0 Z " fill="#1D3976" transform="translate(381,839)"/>
<path d="M0 0 C102.96 0 205.92 0 312 0 C312 1.65 312 3.3 312 5 C209.04 5 106.08 5 0 5 C0 3.35 0 1.7 0 0 Z " fill="#1C3875" transform="translate(384,629)"/>
<path d="M0 0 C0.99 0.33 1.98 0.66 3 1 C3 2.32 3 3.64 3 5 C3.66 5 4.32 5 5 5 C5.00054477 5.84152493 5.00108953 6.68304985 5.00165081 7.55007553 C5.01660967 28.0140255 5.05902015 48.47775739 5.13209057 68.94158554 C5.16676283 78.83770977 5.19209902 88.73369439 5.19555664 98.62988281 C5.19859343 107.25411717 5.21904538 115.87810303 5.26052457 124.50224137 C5.28188229 129.06991143 5.29444104 133.63722795 5.28615379 138.20494843 C5.27863106 142.50282611 5.2943632 146.79998642 5.32806015 151.09773254 C5.33631502 152.67633703 5.33601796 154.25501257 5.32659721 155.83361053 C5.31501385 157.98755985 5.33402812 160.13914283 5.36076355 162.29290771 C5.36352893 163.49861294 5.36629431 164.70431816 5.36914349 165.94655991 C6.18083321 169.87525986 7.7836714 170.76978514 11 173 C11 173.66 11 174.32 11 175 C11.99 175 12.98 175 14 175 C14 175.66 14 176.32 14 177 C14.99 177 15.98 177 17 177 C17 177.66 17 178.32 17 179 C17.9075 179.2475 18.815 179.495 19.75 179.75 C23.26911941 181.10350746 24.87456686 181.89359772 27 185 C27 187.64 27 190.28 27 193 C-89.16 193 -205.32 193 -325 193 C-325 192.67 -325 192.34 -325 192 C-209.83 192 -94.66 192 24 192 C24 190.02 24 188.04 24 186 C21.36 186 18.72 186 16 186 C16 184.02 16 182.04 16 180 C13.03 180 10.06 180 7 180 C7.33 177.69 7.66 175.38 8 173 C5.03 173 2.06 173 -1 173 C-1.02332665 150.59125806 -1.04097802 128.18251812 -1.05181217 105.77376652 C-1.05697563 95.36976275 -1.06401926 84.96576651 -1.07543945 74.56176758 C-1.08538478 65.49709726 -1.09185307 56.4324324 -1.09408849 47.36775678 C-1.09539586 42.56497392 -1.09848333 37.76220666 -1.10573006 32.95942879 C-1.11248789 28.444332 -1.11461745 23.92925732 -1.11310768 19.41415596 C-1.11338412 17.7520282 -1.11539064 16.08989974 -1.11920547 14.42777634 C-1.12413904 12.16850308 -1.12299955 9.90931466 -1.12025452 7.65003967 C-1.12163721 5.74884164 -1.12163721 5.74884164 -1.12304783 3.80923557 C-1 1 -1 1 0 0 Z " fill="#FEFEFE" transform="translate(691,665)"/>
<path d="M0 0 C3.63 0 7.26 0 11 0 C11 43.89 11 87.78 11 133 C7.37 133 3.74 133 0 133 C0 89.11 0 45.22 0 0 Z " fill="#173573" transform="translate(603,686)"/>
<path d="M0 0 C114.84 0 229.68 0 348 0 C348 1.32 348 2.64 348 4 C233.16 4 118.32 4 0 4 C0 2.68 0 1.36 0 0 Z " fill="#0C2568" transform="translate(366,852)"/>
<path d="M0 0 C1.20462891 -0.02126953 1.20462891 -0.02126953 2.43359375 -0.04296875 C4.5625 0.1875 4.5625 0.1875 6.5625 2.1875 C-5.74173395 5.31808366 -18.05859204 8.36514265 -30.4375 11.1875 C-39.80748316 13.32550464 -49.14025406 15.57958404 -58.45776367 17.93530273 C-65.70834081 19.76571365 -72.9745683 21.52123944 -80.25 23.25 C-87.65225301 25.01015972 -95.02650462 26.83987253 -102.375 28.8125 C-109.16959309 30.63589556 -115.98759288 32.24633296 -122.86303711 33.734375 C-127.91424255 34.83195392 -132.92885242 36.03522652 -137.9375 37.3125 C-143.7384652 38.79140079 -149.54758252 40.11145738 -155.4375 41.1875 C-155.1075 42.8375 -154.7775 44.4875 -154.4375 46.1875 C-152.82875 45.6925 -152.82875 45.6925 -151.1875 45.1875 C-147.4375 44.1875 -147.4375 44.1875 -143.4375 44.1875 C-143.4375 44.8475 -143.4375 45.5075 -143.4375 46.1875 C-145.7475 46.1875 -148.0575 46.1875 -150.4375 46.1875 C-150.4375 48.1675 -150.4375 50.1475 -150.4375 52.1875 C-50.1175 52.1875 50.2025 52.1875 153.5625 52.1875 C153.5625 52.5175 153.5625 52.8475 153.5625 53.1875 C55.8825 53.1875 -41.7975 53.1875 -142.4375 53.1875 C-141.9425 60.1175 -141.9425 60.1175 -141.4375 67.1875 C-142.9225 67.6825 -142.9225 67.6825 -144.4375 68.1875 C-144.9325 69.1775 -144.9325 69.1775 -145.4375 70.1875 C-46.4375 70.1875 52.5625 70.1875 154.5625 70.1875 C154.5625 70.5175 154.5625 70.8475 154.5625 71.1875 C55.5625 71.1875 -43.4375 71.1875 -145.4375 71.1875 C-145.4375 74.1575 -145.4375 77.1275 -145.4375 80.1875 C-146.4275 81.5075 -147.4175 82.8275 -148.4375 84.1875 C-148.4375 76.9275 -148.4375 69.6675 -148.4375 62.1875 C-148.1075 62.1875 -147.7775 62.1875 -147.4375 62.1875 C-146.7775 60.2075 -146.1175 58.2275 -145.4375 56.1875 C-146.324375 56.125625 -147.21125 56.06375 -148.125 56 C-152.23351121 54.99225197 -153.67560132 53.32262823 -156.4375 50.1875 C-157.035625 49.713125 -157.63375 49.23875 -158.25 48.75 C-160.15905099 46.2380908 -159.81062788 44.23471105 -159.4375 41.1875 C-157.71286874 38.23098926 -156.3328631 37.11774206 -153.4375 35.1875 C-150.95703125 34.7734375 -150.95703125 34.7734375 -148.25 34.5625 C-147.34894531 34.48773437 -146.44789063 34.41296875 -145.51953125 34.3359375 C-144.83246094 34.28695312 -144.14539063 34.23796875 -143.4375 34.1875 C-143.4375 33.8575 -143.4375 33.5275 -143.4375 33.1875 C-141.54947917 33.02473958 -139.66145833 32.86197917 -137.7734375 32.69921875 C-135.28573518 32.26936671 -135.28573518 32.26936671 -132.73828125 30.70703125 C-127.87805323 28.46960084 -123.08934496 28.3872301 -117.80664062 28.015625 C-116.64358398 27.91507813 -116.64358398 27.91507813 -115.45703125 27.8125 C-114.40672729 27.73902344 -114.40672729 27.73902344 -113.33520508 27.6640625 C-110.95890448 27.06731237 -110.0821542 25.95375578 -108.4375 24.1875 C-106.17578125 23.67578125 -106.17578125 23.67578125 -103.75 23.5 C-102.53763672 23.40138672 -102.53763672 23.40138672 -101.30078125 23.30078125 C-100.37845703 23.24470703 -100.37845703 23.24470703 -99.4375 23.1875 C-99.4375 22.8575 -99.4375 22.5275 -99.4375 22.1875 C-96.1375 21.8575 -92.8375 21.5275 -89.4375 21.1875 C-89.4375 20.8575 -89.4375 20.5275 -89.4375 20.1875 C-86.876505 19.55568567 -84.31438178 18.93033482 -81.75 18.3125 C-80.98284668 18.1276001 -80.21569336 17.9427002 -79.42529297 17.75219727 C-73.64210233 16.39197642 -67.88425938 15.44289441 -61.9765625 14.77734375 C-59.39696557 14.41636831 -59.39696557 14.41636831 -57.94140625 12.671875 C-55.73139412 10.49056433 -53.79031825 10.67884225 -50.75 10.5 C-49.75613281 10.43425781 -48.76226562 10.36851562 -47.73828125 10.30078125 C-46.59939453 10.24470703 -46.59939453 10.24470703 -45.4375 10.1875 C-45.4375 9.8575 -45.4375 9.5275 -45.4375 9.1875 C-41.9725 8.6925 -41.9725 8.6925 -38.4375 8.1875 C-38.4375 7.8575 -38.4375 7.5275 -38.4375 7.1875 C-37.79683594 7.13851562 -37.15617187 7.08953125 -36.49609375 7.0390625 C-35.63113281 6.96429687 -34.76617187 6.88953125 -33.875 6.8125 C-33.02808594 6.74289062 -32.18117188 6.67328125 -31.30859375 6.6015625 C-27.90180129 6.11024277 -24.74522624 5.13807668 -21.4375 4.1875 C-17.9313133 3.45244686 -14.400226 2.85749249 -10.87109375 2.24414062 C-6.83294252 1.52060696 -4.05014935 0.03240119 0 0 Z " fill="#FBFBFC" transform="translate(534.4375,581.8125)"/>
<path d="M0 0 C9.09229057 2.44332177 18.18857481 4.75085296 27.375 6.8125 C37.11062243 9.01105901 46.78107899 11.41820426 56.4375 13.9375 C65.84983436 16.39291644 75.26835548 18.78997057 84.74047852 21.00537109 C93.50071627 23.06080724 102.22405819 25.26130206 110.94799805 27.46508789 C117.15633747 29.02861372 123.36695046 30.5235276 129.625 31.875 C129.625 32.205 129.625 32.535 129.625 32.875 C114.81880813 33.59764494 101.92012853 31.62712561 87.625 27.875 C86.16486983 27.51106837 84.70398263 27.15015404 83.2421875 26.79296875 C79.3638478 25.84332357 75.49420516 24.86126798 71.625 23.875 C68.97992055 23.20531787 66.33399978 22.53904611 63.6875 21.875 C63.02959473 21.70991943 62.37168945 21.54483887 61.69384766 21.37475586 C55.59202541 19.8519041 49.47073865 18.41781556 43.34375 17 C33.4301952 14.66205805 23.56414316 12.13866565 13.72265625 9.515625 C11.46820344 8.91905326 9.21352211 8.32335412 6.95874023 7.72802734 C5.43109241 7.32242806 3.90440826 6.9131835 2.37866211 6.50048828 C0.12094216 5.89099247 -2.14017648 5.29587039 -4.40234375 4.703125 C-5.4057505 4.42665131 -5.4057505 4.42665131 -6.4294281 4.14459229 C-14.38515035 2.09216435 -21.61206291 2.58921826 -29.50390625 4.6328125 C-30.24712128 4.81626221 -30.9903363 4.99971191 -31.756073 5.1887207 C-34.15244599 5.78269216 -36.54485271 6.39121232 -38.9375 7 C-40.61116833 7.417472 -42.28508048 7.83396762 -43.95922852 8.24951172 C-48.04586851 9.26628268 -52.12957376 10.29423199 -56.21203613 11.32763672 C-60.14646452 12.3232898 -64.0829556 13.31073193 -68.01928711 14.29882812 C-69.87714221 14.76519993 -71.73472872 15.23264303 -73.59204102 15.70117188 C-81.66494683 17.72658687 -89.76733359 19.61998493 -97.875 21.5 C-109.60960032 24.21497086 -109.60960032 24.21497086 -121.3125 27.0625 C-122.51390625 27.36027344 -123.7153125 27.65804687 -124.953125 27.96484375 C-127.29211474 28.5869723 -129.61556269 29.2698487 -131.921875 30.00390625 C-142.80695791 33.35585775 -153.06833032 33.29975569 -164.375 32.875 C-161.46711468 30.93640979 -159.72218626 30.32507214 -156.38671875 29.54296875 C-155.38108887 29.30433105 -154.37545898 29.06569336 -153.33935547 28.81982422 C-152.25799316 28.56990723 -151.17663086 28.31999023 -150.0625 28.0625 C-148.94762207 27.79969238 -147.83274414 27.53688477 -146.68408203 27.26611328 C-138.46275463 25.3357265 -130.22508717 23.47845002 -121.98510742 21.62963867 C-115.72026519 20.21278802 -109.53813629 18.60559491 -103.34375 16.90625 C-98.38800124 15.584717 -93.37984928 14.49260004 -88.375 13.375 C-80.83087229 11.68862787 -73.36115921 9.86478117 -65.90234375 7.83203125 C-59.41914124 6.07302282 -52.90283108 4.45804007 -46.375 2.875 C-45.34713379 2.62395508 -44.31926758 2.37291016 -43.26025391 2.11425781 C-39.80095505 1.27392217 -36.33845322 0.44803228 -32.875 -0.375 C-31.20957153 -0.78081299 -31.20957153 -0.78081299 -29.51049805 -1.19482422 C-18.34459482 -3.81683189 -11.04312395 -3.06250569 0 0 Z " fill="#193473" transform="translate(557.375,594.125)"/>
<path d="M0 0 C99.33 0 198.66 0 301 0 C301 2.97 301 5.94 301 9 C201.67 9 102.34 9 0 9 C0 6.03 0 3.06 0 0 Z M1 2 C1 3.65 1 5.3 1 7 C99.34 7 197.68 7 299 7 C299 5.35 299 3.7 299 2 C200.66 2 102.32 2 1 2 Z " fill="#112F70" transform="translate(390,653)"/>
<path d="M0 0 C44.22 0 88.44 0 134 0 C133.67 0.66 133.34 1.32 133 2 C127.25 2.125 127.25 2.125 125 1 C125 4.96 125 8.92 125 13 C121.37 13 117.74 13 114 13 C114 9.04 114 5.08 114 1 C113.05125 1.185625 112.1025 1.37125 111.125 1.5625 C108 2 108 2 106 1 C106 4.96 106 8.92 106 13 C102.37 13 98.74 13 95 13 C95 9.04 95 5.08 95 1 C94.05125 1.185625 93.1025 1.37125 92.125 1.5625 C89 2 89 2 87 1 C87 4.96 87 8.92 87 13 C83.37 13 79.74 13 76 13 C76 9.04 76 5.08 76 1 C75.05125 1.185625 74.1025 1.37125 73.125 1.5625 C70 2 70 2 68 1 C68 4.96 68 8.92 68 13 C64.37 13 60.74 13 57 13 C56.505 7.555 56.505 7.555 56 2 C54.02 2 52.04 2 50 2 C49.67 5.63 49.34 9.26 49 13 C45.37 13 41.74 13 38 13 C37.505 7.555 37.505 7.555 37 2 C35.02 2 33.04 2 31 2 C30.67 5.63 30.34 9.26 30 13 C26.37 13 22.74 13 19 13 C18.67 9.37 18.34 5.74 18 2 C17.67 5.3 17.34 8.6 17 12 C16.67 12 16.34 12 16 12 C15.67 8.7 15.34 5.4 15 2 C14.01 2 13.02 2 12 2 C11.67 5.3 11.34 8.6 11 12 C10.67 12 10.34 12 10 12 C10 8.37 10 4.74 10 1 C6.7 1 3.4 1 0 1 C0 0.67 0 0.34 0 0 Z " fill="#4E6694" transform="translate(554,635)"/>
<path d="M0 0 C3.89074415 1.05772345 7.79096825 2.07944482 11.69021606 3.10528564 C12.85828041 3.41404129 12.85828041 3.41404129 14.04994202 3.72903442 C22.10145393 5.84787835 30.20046989 7.72654202 38.32278442 9.55499268 C47.3775515 11.59397624 56.37821515 13.81182574 65.33840942 16.23321533 C77.25335075 19.44617193 89.27217924 22.18852031 101.30715942 24.91094971 C102.84892894 25.26611553 104.38647554 25.64148174 105.91409302 26.05328369 C108.02491311 26.5367855 110.01251055 26.70421287 112.17459106 26.81231689 C112.97380981 26.85421143 113.77302856 26.89610596 114.59646606 26.93927002 C115.83396606 26.99824463 115.83396606 26.99824463 117.09646606 27.05841064 C117.93693481 27.10159424 118.77740356 27.14477783 119.64334106 27.18927002 C121.71087277 27.29499607 123.77864887 27.3959236 125.84646606 27.49591064 C125.84646606 27.82591064 125.84646606 28.15591064 125.84646606 28.49591064 C30.14646606 28.49591064 -65.55353394 28.49591064 -164.15353394 28.49591064 C-164.15353394 28.16591064 -164.15353394 27.83591064 -164.15353394 27.49591064 C-163.04880737 27.49333252 -161.94408081 27.49075439 -160.80587769 27.48809814 C-148.27388096 27.25417483 -137.16201016 24.67968446 -125.14279175 21.30450439 C-120.28399356 19.99020028 -115.37763061 18.90529718 -110.46603394 17.80841064 C-99.34536395 15.29462199 -88.28596523 12.56121139 -77.22872925 9.78375244 C-74.35110256 9.06093972 -71.47308148 8.33971821 -68.59494019 7.61895752 C-58.03653577 4.975565 -58.03653577 4.975565 -47.4826355 2.31427002 C-43.47985995 1.30104031 -39.47327264 0.30383937 -35.46603394 -0.69158936 C-34.32867798 -0.98283691 -33.19132202 -1.27408447 -32.01950073 -1.57415771 C-20.2400888 -4.47416293 -11.56059426 -3.14423926 0 0 Z M-31.46603394 0.43341064 C-32.38900269 0.64868408 -33.31197144 0.86395752 -34.26290894 1.08575439 C-44.96919602 3.62109136 -55.61006076 6.42549501 -66.25827026 9.19244385 C-75.202908 11.51186845 -84.15928819 13.69520706 -93.1857605 15.67681885 C-101.78145581 17.58505002 -110.28809299 19.8220908 -118.79611206 22.08624268 C-125.21483335 23.78355638 -131.62371983 25.29058982 -138.15353394 26.49591064 C-138.15353394 26.82591064 -138.15353394 27.15591064 -138.15353394 27.49591064 C-59.94353394 27.49591064 18.26646606 27.49591064 98.84646606 27.49591064 C95.81861976 25.47734644 93.93032031 24.90509946 90.42849731 24.12872314 C89.33730591 23.88251221 88.2461145 23.63630127 87.12185669 23.38262939 C85.97910278 23.13126221 84.83634888 22.87989502 83.65896606 22.62091064 C73.679609 20.39542571 63.75648493 18.00802539 53.84646606 15.49591064 C35.4281348 10.8450734 16.99709302 6.29727763 -1.51242065 2.02227783 C-2.21125366 1.85995163 -2.91008667 1.69762543 -3.63009644 1.53038025 C-5.52401101 1.09058018 -7.41858472 0.65362128 -9.3132019 0.21685791 C-12.15353394 -0.50408936 -12.15353394 -0.50408936 -14.15353394 -1.50408936 C-20.24885509 -1.81994392 -25.55507589 -0.98809829 -31.46603394 0.43341064 Z " fill="#E3E7EE" transform="translate(559.1535339355469,599.5040893554688)"/>
<path d="M0 0 C115.17 0 230.34 0 349 0 C349 1.98 349 3.96 349 6 C175.255 6.495 175.255 6.495 -2 7 C-1.34 4.69 -0.68 2.38 0 0 Z M0 1 C0 2.32 0 3.64 0 5 C114.84 5 229.68 5 348 5 C348 3.68 348 2.36 348 1 C233.16 1 118.32 1 0 1 Z " fill="#98A6C1" transform="translate(366,851)"/>
<path d="M0 0 C115.5 0 231 0 350 0 C350 0.66 350 1.32 350 2 C234.5 2 119 2 0 2 C0 1.34 0 0.68 0 0 Z " fill="#FFFFFF" transform="translate(366,859)"/>
<path d="M0 0 C8.5630045 -0.02326932 17.12599557 -0.04098897 25.68902397 -0.05181217 C29.66606648 -0.05700928 33.64308721 -0.06404866 37.62011719 -0.07543945 C41.46509131 -0.08638189 45.31004461 -0.09230068 49.15503311 -0.09487724 C50.61488294 -0.09671117 52.07473175 -0.10029195 53.5345726 -0.10573006 C61.42041091 -0.13391178 69.16310578 0.03786643 77 1 C77.495 6.94 77.495 6.94 78 13 C73.05 13 68.1 13 63 13 C62.505 7.555 62.505 7.555 62 2 C61.01 2 60.02 2 59 2 C58.67 5.63 58.34 9.26 58 13 C53.38 13 48.76 13 44 13 C43.505 7.555 43.505 7.555 43 2 C42.01 2 41.02 2 40 2 C39.67 5.63 39.34 9.26 39 13 C35.37 13 31.74 13 28 13 C28 9.37 28 5.74 28 2 C27.67 2 27.34 2 27 2 C27 5.63 27 9.26 27 13 C26.34 13 25.68 13 25 13 C24.67 9.37 24.34 5.74 24 2 C23.01 2 22.02 2 21 2 C20.67 5.63 20.34 9.26 20 13 C16.37 13 12.74 13 9 13 C8.67 9.37 8.34 5.74 8 2 C5.08347826 1.83318891 5.08347826 1.83318891 2 2 C1.34 2.66 0.68 3.32 0 4 C0 2.68 0 1.36 0 0 Z " fill="#5D739E" transform="translate(392,635)"/>
<path d="M0 0 C0 0.99 0 1.98 0 3 C-99.66 3 -199.32 3 -302 3 C-302 2.34 -302 1.68 -302 1 C-263.96023259 0.87254721 -225.920465 0.74514703 -187.88069717 0.61781773 C-183.39320241 0.60279684 -178.90570765 0.58777551 -174.41821289 0.57275391 C-173.52480601 0.56976329 -172.63139912 0.56677268 -171.7109193 0.56369144 C-157.2311599 0.51522045 -142.75140063 0.46671403 -128.2716414 0.41819459 C-113.42213408 0.36843697 -98.57262664 0.31871725 -83.72311908 0.26903296 C-74.55481681 0.23835595 -65.38651463 0.20764912 -56.21821258 0.17690456 C-49.93738735 0.15584556 -43.65656201 0.13482325 -37.37573656 0.11383021 C-33.74811249 0.10170413 -30.12048848 0.08956149 -26.49286461 0.07737541 C-22.56589653 0.06418418 -18.6389282 0.05107003 -14.71195984 0.03796387 C-13.55730482 0.03407292 -12.40264981 0.03018197 -11.21300524 0.02617311 C-10.16549682 0.02268972 -9.1179884 0.01920632 -8.0387373 0.01561737 C-7.13158543 0.01257961 -6.22443356 0.00954185 -5.28979224 0.00641203 C-3.52653378 0.00147444 -1.76326538 0 0 0 Z " fill="#3E477C" transform="translate(691,649)"/>
<path d="M0 0 C3.625 -0.1875 3.625 -0.1875 7 0 C7 3.96 7 7.92 7 12 C10.63 12 14.26 12 18 12 C18 8.37 18 4.74 18 1 C19.65 0.67 21.3 0.34 23 0 C23 3.96 23 7.92 23 12 C24.25949049 10.96593327 24.25949049 10.96593327 24.09765625 8.71484375 C24.08605469 7.79832031 24.07445312 6.88179687 24.0625 5.9375 C24.05347656 5.01839844 24.04445313 4.09929688 24.03515625 3.15234375 C24.02355469 2.44207031 24.01195312 1.73179687 24 1 C24.99 1 25.98 1 27 1 C27 4.3 27 7.6 27 11 C30.3 11.33 33.6 11.66 37 12 C37 8.37 37 4.74 37 1 C38.65 0.67 40.3 0.34 42 0 C42 3.96 42 7.92 42 12 C42.66 12 43.32 12 44 12 C44 8.04 44 4.08 44 0 C44.33 0 44.66 0 45 0 C45 3.96 45 7.92 45 12 C48.63 12 52.26 12 56 12 C56 8.37 56 4.74 56 1 C56.66 0.67 57.32 0.34 58 0 C58.66 0.33 59.32 0.66 60 1 C60 4.96 60 8.92 60 13 C46.51131505 14.13222934 33.09218758 14.1144355 19.5625 14.0625 C17.27018327 14.05747335 14.97786547 14.05291251 12.68554688 14.04882812 C7.12367417 14.03791862 1.56184223 14.02127351 -4 14 C-3.34 13.34 -2.68 12.68 -2 12 C-1.86072912 9.70638277 -2.00409046 7.484909 -2.125 5.19140625 C-2 3 -2 3 0 0 Z " fill="#D6DBE6" transform="translate(394,636)"/>
<path d="M0 0 C0.33 0 0.66 0 1 0 C1 2.97 1 5.94 1 9 C100 9 199 9 301 9 C301 9.33 301 9.66 301 10 C201.67 10.33 102.34 10.66 0 11 C-1.26026798 8.47946405 -0.91874445 7.1457902 -0.5625 4.375 C-0.46066406 3.55773437 -0.35882813 2.74046875 -0.25390625 1.8984375 C-0.17011719 1.27195312 -0.08632813 0.64546875 0 0 Z " fill="#F0F2F6" transform="translate(389,653)"/>
<path d="M0 0 C0 0.33 0 0.66 0 1 C1.23576468 0.99907821 2.47152935 0.99815641 3.74474144 0.99720669 C33.14686481 0.97550089 62.54898634 0.95903556 91.95111575 0.94893467 C95.5780876 0.94768412 99.20505943 0.94638978 102.83203125 0.94506836 C103.55402905 0.94480605 104.27602685 0.94454374 105.01990338 0.94427348 C116.67659283 0.9399343 128.3332773 0.93205647 139.98996381 0.9228472 C151.97044189 0.91346179 163.95091738 0.90793408 175.93139899 0.90591151 C182.65235439 0.9046682 189.37329785 0.90157738 196.09424973 0.89426994 C202.43234096 0.88743522 208.7704164 0.88539808 215.10851097 0.88689232 C217.42303364 0.88661932 219.73755688 0.88465872 222.05207634 0.88079453 C235.07289126 0.86013919 248.00846669 1.09456444 261 2 C261 2.33 261 2.66 261 3 C165.3 3 69.6 3 -29 3 C-29 2.67 -29 2.34 -29 2 C-28.44538086 1.97494385 -27.89076172 1.9498877 -27.31933594 1.92407227 C-24.79601157 1.80772073 -22.27302464 1.68517246 -19.75 1.5625 C-18.87730469 1.52318359 -18.00460937 1.48386719 -17.10546875 1.44335938 C-16.26113281 1.40146484 -15.41679687 1.35957031 -14.546875 1.31640625 C-13.77182617 1.27974854 -12.99677734 1.24309082 -12.19824219 1.20532227 C-7.98772386 0.81204751 -4.31497307 -0.09806757 0 0 Z " fill="#FCFDFD" transform="translate(424,625)"/>
<path d="M0 0 C0.66 0.33 1.32 0.66 2 1 C2 4.3 2 7.6 2 11 C5.3 11.33 8.6 11.66 12 12 C12 8.37 12 4.74 12 1 C13.65 0.67 15.3 0.34 17 0 C17 3.96 17 7.92 17 12 C17.66 12 18.32 12 19 12 C19 8.04 19 4.08 19 0 C19.33 0 19.66 0 20 0 C20 3.96 20 7.92 20 12 C23.63 12 27.26 12 31 12 C31 8.37 31 4.74 31 1 C31.66 0.67 32.32 0.34 33 0 C33.66 0.33 34.32 0.66 35 1 C35 4.96 35 8.92 35 13 C22.65864238 14.07650471 10.38100347 14.11028714 -2 14 C-1.67 13.01 -1.34 12.02 -1 11 C-0.95635078 9.29222439 -0.96016632 7.58286886 -1 5.875 C-1.03767103 4.25043671 -1.04657584 2.62433238 -1 1 C-0.67 0.67 -0.34 0.34 0 0 Z " fill="#D6DBE6" transform="translate(419,636)"/>
<path d="M0 0 C3.3 0 6.6 0 10 0 C10 17.16 10 34.32 10 52 C9.67 52 9.34 52 9 52 C9 35.5 9 19 9 2 C6.69 2 4.38 2 2 2 C2 22.13 2 42.26 2 63 C2.99 63.33 3.98 63.66 5 64 C4.505 64.99 4.505 64.99 4 66 C2.02838135 64.88273621 2.02838135 64.88273621 0 63 C-0.48101807 60.24751282 -0.48101807 60.24751282 -0.45410156 56.8762207 C-0.45379944 55.61513992 -0.45349731 54.35405914 -0.45318604 53.05476379 C-0.43275946 51.67842987 -0.41189548 50.30210239 -0.390625 48.92578125 C-0.38316348 47.51760155 -0.37747013 46.10941145 -0.37347412 44.70121765 C-0.35821038 40.99705271 -0.31892336 37.29351638 -0.2746582 33.58959961 C-0.23372076 29.80916854 -0.21546644 26.02863577 -0.1953125 22.24804688 C-0.15242883 14.83174484 -0.0841698 7.41596054 0 0 Z " fill="#0A296B" transform="translate(655,684)"/>
<path d="M0 0 C0 0.66 0 1.32 0 2 C-30.96915353 9.83722306 -30.96915353 9.83722306 -45.86791992 13.12670898 C-54.60579107 15.08226116 -63.25656956 17.36367711 -71.90551758 19.67797852 C-83.41385086 22.72841109 -83.41385086 22.72841109 -88 23 C-88.99 22.34 -89.98 21.68 -91 21 C-90.41210693 20.86948242 -89.82421387 20.73896484 -89.21850586 20.60449219 C-78.61120124 18.24202668 -68.05417742 15.81360085 -57.5703125 12.94921875 C-53.25286814 11.80136429 -48.91044821 10.78862509 -44.55639648 9.78979492 C-39.34737928 8.58191528 -34.16208185 7.28872113 -28.98046875 5.96875 C-27.53247276 5.60122888 -26.08447469 5.23371594 -24.63647461 4.86621094 C-22.45089255 4.31119839 -20.26594388 3.75411533 -18.08255005 3.19055176 C-16.01987286 2.65825942 -13.95545404 2.1332479 -11.890625 1.609375 C-10.08126465 1.1448291 -10.08126465 1.1448291 -8.23535156 0.67089844 C-5.36525891 0.07574189 -2.91496027 -0.1416899 0 0 Z " fill="#E4E8EF" transform="translate(512,603)"/>
<path d="M0 0 C0.99 0 1.98 0 3 0 C3 11.88 3 23.76 3 36 C-0.96 36 -4.92 36 -9 36 C-9 27.09 -9 18.18 -9 9 C-8.01 9.495 -8.01 9.495 -7 10 C-7 17.92 -7 25.84 -7 34 C-4.36 34 -1.72 34 1 34 C0.67 22.78 0.34 11.56 0 0 Z " fill="#29417B" transform="translate(507,785)"/>
<path d="M0 0 C6.15234375 -0.09765625 6.15234375 -0.09765625 8 0 C9 1 9 1 9.09765625 3.94140625 C9.06510417 7.29427083 9.03255208 10.64713542 9 14 C2.4 14 -4.2 14 -11 14 C-11 13.67 -11 13.34 -11 13 C-7.37 13 -3.74 13 0 13 C0 8.71 0 4.42 0 0 Z " fill="#BBC4D6" transform="translate(679,636)"/>
<path d="M0 0 C3.63 0 7.26 0 11 0 C11 3.96 11 7.92 11 12 C7.37 12 3.74 12 0 12 C0 8.04 0 4.08 0 0 Z " fill="#132F6F" transform="translate(592,636)"/>
<path d="M0 0 C3.63 0 7.26 0 11 0 C11 3.96 11 7.92 11 12 C7.37 12 3.74 12 0 12 C0 8.04 0 4.08 0 0 Z " fill="#193774" transform="translate(668,636)"/>
<path d="M0 0 C3.63 0 7.26 0 11 0 C11 3.96 11 7.92 11 12 C7.37 12 3.74 12 0 12 C0 8.04 0 4.08 0 0 Z " fill="#163372" transform="translate(649,636)"/>
<path d="M0 0 C3.63 0 7.26 0 11 0 C11 3.96 11 7.92 11 12 C7.37 12 3.74 12 0 12 C0 8.04 0 4.08 0 0 Z " fill="#1D3976" transform="translate(630,636)"/>
<path d="M0 0 C3.63 0 7.26 0 11 0 C11 3.96 11 7.92 11 12 C7.37 12 3.74 12 0 12 C0 8.04 0 4.08 0 0 Z " fill="#193573" transform="translate(611,636)"/>
<path d="M0 0 C3.63 0 7.26 0 11 0 C11 3.96 11 7.92 11 12 C7.37 12 3.74 12 0 12 C0 8.04 0 4.08 0 0 Z " fill="#163271" transform="translate(401,636)"/>
<path d="M0 0 C0 0.99 0 1.98 0 3 C0.66 3.66 1.32 4.32 2 5 C-1.9360551 6.00574701 -5.87406674 7.00361005 -9.8125 8 C-10.93205078 8.28617188 -12.05160156 8.57234375 -13.20507812 8.8671875 C-14.27822266 9.13789062 -15.35136719 9.40859375 -16.45703125 9.6875 C-17.44678955 9.93886719 -18.43654785 10.19023438 -19.45629883 10.44921875 C-22 11 -22 11 -25 11 C-24.62109375 8.1796875 -24.62109375 8.1796875 -23 5 C-19.82530736 3.46363244 -16.50459774 2.82639047 -13.0625 2.125 C-12.14275391 1.91359375 -11.22300781 1.7021875 -10.27539062 1.484375 C-6.77484358 0.69796472 -3.59691824 0 0 0 Z " fill="#173271" transform="translate(534,592)"/>
<path d="M0 0 C3.3 0 6.6 0 10 0 C10.33 3.96 10.66 7.92 11 12 C7.04 12 3.08 12 -1 12 C-0.67 8.04 -0.34 4.08 0 0 Z " fill="#112C6D" transform="translate(478,636)"/>
<path d="M0 0 C3.3 0 6.6 0 10 0 C10.33 3.96 10.66 7.92 11 12 C7.04 12 3.08 12 -1 12 C-0.67 8.04 -0.34 4.08 0 0 Z " fill="#112C6D" transform="translate(459,636)"/>
<path d="M0 0 C3.3 0 6.6 0 10 0 C10.33 3.96 10.66 7.92 11 12 C7.37 12 3.74 12 0 12 C0 8.04 0 4.08 0 0 Z " fill="#102D6E" transform="translate(573,636)"/>
<path d="M0 0 C3.3 0 6.6 0 10 0 C10.33 3.96 10.66 7.92 11 12 C7.37 12 3.74 12 0 12 C0 8.04 0 4.08 0 0 Z " fill="#102D6E" transform="translate(554,636)"/>
<path d="M0 0 C3.3 0 6.6 0 10 0 C10.33 3.96 10.66 7.92 11 12 C7.37 12 3.74 12 0 12 C0 8.04 0 4.08 0 0 Z " fill="#102C6D" transform="translate(535,636)"/>
<path d="M0 0 C3.3 0 6.6 0 10 0 C10.33 3.96 10.66 7.92 11 12 C7.37 12 3.74 12 0 12 C0 8.04 0 4.08 0 0 Z " fill="#102C6D" transform="translate(516,636)"/>
<path d="M0 0 C3.3 0 6.6 0 10 0 C10.33 3.96 10.66 7.92 11 12 C7.37 12 3.74 12 0 12 C0 8.04 0 4.08 0 0 Z " fill="#102C6D" transform="translate(497,636)"/>
<path d="M0 0 C3.3 0 6.6 0 10 0 C10 3.96 10 7.92 10 12 C6.37 12 2.74 12 -1 12 C-0.67 8.04 -0.34 4.08 0 0 Z " fill="#102D6E" transform="translate(440,636)"/>
<path d="M0 0 C3.3 0 6.6 0 10 0 C10 3.96 10 7.92 10 12 C6.37 12 2.74 12 -1 12 C-0.67 8.04 -0.34 4.08 0 0 Z " fill="#102D6E" transform="translate(421,636)"/>
<path d="M0 0 C2.97 0 5.94 0 9 0 C9 4.29 9 8.58 9 13 C2.84765625 13.09765625 2.84765625 13.09765625 1 13 C0 12 0 12 -0.09765625 9.27734375 C-0.08605469 8.17519531 -0.07445312 7.07304688 -0.0625 5.9375 C-0.05347656 4.83277344 -0.04445313 3.72804688 -0.03515625 2.58984375 C-0.02355469 1.73519531 -0.01195312 0.88054688 0 0 Z " fill="#7F90B2" transform="translate(545,635)"/>
<path d="M0 0 C0 1.32 0 2.64 0 4 C-2.3501719 4.7047491 -4.70341833 5.3887943 -7.0625 6.0625 C-7.71927734 6.26166016 -8.37605469 6.46082031 -9.05273438 6.66601562 C-13.773514 7.99155473 -17.19371794 7.99375663 -22 7 C-22 6.34 -22 5.68 -22 5 C-22.66 4.67 -23.32 4.34 -24 4 C-22.79601562 3.72285156 -21.59203125 3.44570313 -20.3515625 3.16015625 C-18.77601093 2.79440321 -17.20049177 2.42851055 -15.625 2.0625 C-14.8309375 1.88009766 -14.036875 1.69769531 -13.21875 1.50976562 C-12.45820313 1.33251953 -11.69765625 1.15527344 -10.9140625 0.97265625 C-9.8614624 0.72914429 -9.8614624 0.72914429 -8.78759766 0.48071289 C-3.7219585 -0.88151649 -3.7219585 -0.88151649 0 0 Z " fill="#1C3775" transform="translate(459,605)"/>
<path d="M0 0 C0.33 0 0.66 0 1 0 C1 3.96 1 7.92 1 12 C1.66 12 2.32 12 3 12 C3 8.04 3 4.08 3 0 C3.33 0 3.66 0 4 0 C4 3.96 4 7.92 4 12 C7.96 12 11.92 12 16 12 C16 8.04 16 4.08 16 0 C16.33 0 16.66 0 17 0 C17 3.96 17 7.92 17 12 C17.66 12 18.32 12 19 12 C19 8.04 19 4.08 19 0 C19.33 0 19.66 0 20 0 C20 3.96 20 7.92 20 12 C20.66 12.33 21.32 12.66 22 13 C18.88045872 14.55977064 15.57040616 14.12104126 12.1484375 14.09765625 C11.37440582 14.0962413 10.60037415 14.09482635 9.80288696 14.09336853 C7.32688558 14.08776403 4.85097412 14.07521083 2.375 14.0625 C0.69791797 14.05748558 -0.97916547 14.05292257 -2.65625 14.04882812 C-6.77086806 14.03779315 -10.88541878 14.02052554 -15 14 C-15 13.67 -15 13.34 -15 13 C-10.05 13 -5.1 13 0 13 C0 8.71 0 4.42 0 0 Z " fill="#DEE2EB" transform="translate(454,636)"/>
<path d="M0 0 C3.625 -0.1875 3.625 -0.1875 7 0 C7 3.96 7 7.92 7 12 C4.03 12 1.06 12 -2 12 C-2.25 3.375 -2.25 3.375 0 0 Z " fill="#AAB5CC" transform="translate(394,636)"/>
<path d="M0 0 C2.64 0 5.28 0 8 0 C8 3.96 8 7.92 8 12 C5.36 12 2.72 12 0 12 C0 8.04 0 4.08 0 0 Z " fill="#BFC7D8" transform="translate(641,636)"/>
<path d="M0 0 C2.64 0 5.28 0 8 0 C8 3.96 8 7.92 8 12 C5.36 12 2.72 12 0 12 C0 8.04 0 4.08 0 0 Z " fill="#BAC3D5" transform="translate(622,636)"/>
<path d="M0 0 C14.0489709 0.761533 14.0489709 0.761533 20 4 C20.33 4.99 20.66 5.98 21 7 C20.67 7.33 20.34 7.66 20 8 C13.22765959 7.80735137 5.67325187 6.78216791 0 3 C0 2.01 0 1.02 0 0 Z " fill="#193573" transform="translate(631,607)"/>
<path d="M0 0 C2.33294775 -0.04241723 4.66702567 -0.04092937 7 0 C8 1 8 1 8.09765625 3.50390625 C8.08605469 4.51324219 8.07445312 5.52257812 8.0625 6.5625 C8.05347656 7.57441406 8.04445313 8.58632813 8.03515625 9.62890625 C8.02355469 10.41136719 8.01195312 11.19382812 8 12 C5.36 12 2.72 12 0 12 C0 8.04 0 4.08 0 0 Z " fill="#B7C1D4" transform="translate(584,636)"/>
<path d="M0 0 C2.33294775 -0.04241723 4.66702567 -0.04092937 7 0 C8 1 8 1 8.09765625 3.50390625 C8.08605469 4.51324219 8.07445312 5.52257812 8.0625 6.5625 C8.05347656 7.57441406 8.04445313 8.58632813 8.03515625 9.62890625 C8.02355469 10.41136719 8.01195312 11.19382812 8 12 C5.36 12 2.72 12 0 12 C0 8.04 0 4.08 0 0 Z " fill="#A1ADC6" transform="translate(527,636)"/>
<path d="M0 0 C-0.33 0.99 -0.66 1.98 -1 3 C-0.34 3.33 0.32 3.66 1 4 C-1.35016471 4.58980968 -3.70101574 5.14665111 -6.0625 5.6875 C-6.71927734 5.85572266 -7.37605469 6.02394531 -8.05273438 6.19726562 C-13.50235045 7.4053086 -16.24655332 6.50344071 -21 4 C-17.78213065 2.23287271 -14.61245966 1.2302071 -11.0625 0.3125 C-9.53302734 -0.09548828 -9.53302734 -0.09548828 -7.97265625 -0.51171875 C-4.9451579 -1.00900823 -2.93490654 -0.80534268 0 0 Z " fill="#1F3976" transform="translate(508,593)"/>
<path d="M0 0 C0 0.66 0 1.32 0 2 C-4.46229791 3.17131985 -8.92793931 4.3284996 -13.3972168 5.47290039 C-14.91611394 5.86391804 -16.43403791 6.25873696 -17.95092773 6.6574707 C-20.13538898 7.23097233 -22.32302088 7.79057277 -24.51171875 8.34765625 C-25.18587326 8.52780777 -25.86002777 8.70795929 -26.55461121 8.89356995 C-30.37384984 9.84939331 -33.20505853 10.12667312 -37 9 C-33.75304966 6.83536644 -31.31704703 6.18860146 -27.5390625 5.2734375 C-26.26289063 4.9640625 -24.98671875 4.6546875 -23.671875 4.3359375 C-22.67510742 4.09955566 -22.67510742 4.09955566 -21.65820312 3.85839844 C-19.63710428 3.37787782 -17.61931874 2.88497036 -15.6015625 2.390625 C-4.76520834 -0.2092261 -4.76520834 -0.2092261 0 0 Z " fill="#CFD5E2" transform="translate(512,603)"/>
<path d="M0 0 C2.475 0.495 2.475 0.495 5 1 C5.99 1 6.98 1 8 1 C8 4.63 8 8.26 8 12 C5.36 12 2.72 12 0 12 C0 8.04 0 4.08 0 0 Z " fill="#B8C1D4" transform="translate(565,636)"/>
<path d="M0 0 C-0.33 0.99 -0.66 1.98 -1 3 C-7.79373575 4.69843394 -13.38500359 2.92258516 -20 1 C-14.30174011 -5.2409513 -7.14066154 -2.1859168 0 0 Z " fill="#1E3976" transform="translate(587,595)"/>
<path d="M0 0 C6.95660771 0.57021375 13.31427305 2.01302694 20 4 C19.360625 4.309375 18.72125 4.61875 18.0625 4.9375 C16.06389179 5.8345163 16.06389179 5.8345163 15 7 C9.76242091 6.85665573 4.89342839 5.88208784 0 4 C0 2.68 0 1.36 0 0 Z " fill="#132E6F" transform="translate(551,594)"/>
<path d="M0 0 C0.33 0.66 0.66 1.32 1 2 C1.99 2.33 2.98 2.66 4 3 C1.77332235 3.67493341 -0.45645977 4.33963044 -2.6875 5 C-4.54955078 5.556875 -4.54955078 5.556875 -6.44921875 6.125 C-9.5010019 6.87703457 -11.88898362 7.19034899 -15 7 C-15 5.68 -15 4.36 -15 3 C-10.25420243 0.26203987 -5.40112241 -0.15885654 0 0 Z " fill="#153070" transform="translate(522,589)"/>
<path d="M0 0 C5.93002267 -0.37851209 10.47239641 0.89424625 16 3 C15.01 3.33 14.02 3.66 13 4 C13 4.66 13 5.32 13 6 C13.99 6.33 14.98 6.66 16 7 C8.96871122 6.56615452 2.670985 5.25678003 -4 3 C-2.68 2.67 -1.36 2.34 0 2 C0 1.34 0 0.68 0 0 Z " fill="#173271" transform="translate(586,596)"/>
<path d="M0 0 C0 0.33 0 0.66 0 1 C-20.21484375 5.4921875 -20.21484375 5.4921875 -23.73388672 6.26464844 C-25.76725552 6.72245281 -27.7961622 7.20121416 -29.81689453 7.71191406 C-31.85948771 8.22184616 -33.92853704 8.62415583 -36 9 C-36.66 8.34 -37.32 7.68 -38 7 C-33.55641714 5.82708039 -29.10911339 4.67000027 -24.65771484 3.52709961 C-23.14553574 3.13652073 -21.63444146 2.74171554 -20.12451172 2.3425293 C-17.94773842 1.76784393 -15.76745296 1.20871863 -13.5859375 0.65234375 C-12.91694427 0.47219223 -12.24795105 0.29204071 -11.5586853 0.10643005 C-7.37652393 -0.9403438 -4.19091793 -1.00094319 0 0 Z " fill="#D5DBE5" transform="translate(509,598)"/>
<path d="M0 0 C0.90105469 0.19464844 1.80210937 0.38929688 2.73046875 0.58984375 C3.76107422 0.82380859 3.76107422 0.82380859 4.8125 1.0625 C4.4825 2.7125 4.1525 4.3625 3.8125 6.0625 C-1.69558397 5.47234815 -6.83628069 4.49586231 -12.1875 3.0625 C-7.86032422 -0.36939803 -5.41559551 -1.19565096 0 0 Z " fill="#1F3976" transform="translate(637.1875,613.9375)"/>
<path d="M0 0 C6.95660771 0.57021375 13.31427305 2.01302694 20 4 C17.75488081 6.02582848 16.56317412 6.97543789 13.4921875 7.109375 C12.62851562 6.99078125 11.76484375 6.8721875 10.875 6.75 C10.00617187 6.64171875 9.13734375 6.5334375 8.2421875 6.421875 C6 6 6 6 4 5 C3.67 4.01 3.34 3.02 3 2 C2.01 1.34 1.02 0.68 0 0 Z " fill="#0F2B6D" transform="translate(612,609)"/>
<path d="M0 0 C2 0.33333333 4 0.66666667 6 1 C5.01 1.33 4.02 1.66 3 2 C3.33 3.32 3.66 4.64 4 6 C-1.50808397 5.40984815 -6.64878069 4.43336231 -12 3 C-11.01 2.67 -10.02 2.34 -9 2 C-9 1.34 -9 0.68 -9 0 C-5.44205508 -1.18598164 -3.64866182 -0.71542389 0 0 Z " fill="#1E3876" transform="translate(628,605)"/>
<path d="M0 0 C2.31 0 4.62 0 7 0 C7 2.97 7 5.94 7 9 C4.69 9 2.38 9 0 9 C0 6.03 0 3.06 0 0 Z " fill="#193775" transform="translate(594,637)"/>
<path d="M0 0 C1.41750563 0.11509661 2.83401169 0.24253658 4.25 0.375 C5.03890625 0.44460938 5.8278125 0.51421875 6.640625 0.5859375 C9.085877 1.01507113 10.84836903 1.78600638 13 3 C12.67 4.32 12.34 5.64 12 7 C10.3743193 6.69106068 8.74947252 6.3777305 7.125 6.0625 C6.22007812 5.88847656 5.31515625 5.71445312 4.3828125 5.53515625 C2 5 2 5 0 4 C0 2.68 0 1.36 0 0 Z " fill="#1A3674" transform="translate(641,616)"/>
<path d="M0 0 C0 0.66 0 1.32 0 2 C1.32 2.33 2.64 2.66 4 3 C2.27318563 3.50806447 0.54342021 4.00610467 -1.1875 4.5 C-2.63189453 4.91765625 -2.63189453 4.91765625 -4.10546875 5.34375 C-6.85345876 5.96677608 -9.19598416 6.12302812 -12 6 C-12 4.68 -12 3.36 -12 2 C-7.8794254 0.00214565 -4.54805635 -0.17835515 0 0 Z " fill="#153171" transform="translate(437,610)"/>
<path d="M0 0 C2.475 0.495 2.475 0.495 5 1 C5 4.3 5 7.6 5 11 C3.35 11 1.7 11 0 11 C0 7.37 0 3.74 0 0 Z " fill="#C6CEDD" transform="translate(549,636)"/>
<path d="M0 0 C-0.33 0.99 -0.66 1.98 -1 3 C-0.34 3.33 0.32 3.66 1 4 C-2.63 4.66 -6.26 5.32 -10 6 C-10.33 4.35 -10.66 2.7 -11 1 C-3.57142857 -1.42857143 -3.57142857 -1.42857143 0 0 Z " fill="#2D467F" transform="translate(474,608)"/>
<path d="M0 0 C-5.04615385 4.92307692 -5.04615385 4.92307692 -9.875 5.3125 C-10.90625 5.209375 -11.9375 5.10625 -13 5 C-13 4.34 -13 3.68 -13 3 C-13.66 2.67 -14.32 2.34 -15 2 C-4.73863636 -1.57954545 -4.73863636 -1.57954545 0 0 Z " fill="#112C6D" transform="translate(513,599)"/>
<path d="M0 0 C3.63 0 7.26 0 11 0 C10.34 0.66 9.68 1.32 9 2 C5.375 1.625 5.375 1.625 2 1 C2 3.97 2 6.94 2 10 C4.31 10 6.62 10 9 10 C9 10.66 9 11.32 9 12 C6.03 12 3.06 12 0 12 C0 8.04 0 4.08 0 0 Z " fill="#0B296B" transform="translate(630,636)"/>
<path d="M0 0 C3.63 0 7.26 0 11 0 C11 0.33 11 0.66 11 1 C8.03 1 5.06 1 2 1 C2 3.97 2 6.94 2 10 C4.31 10 6.62 10 9 10 C9 10.66 9 11.32 9 12 C6.03 12 3.06 12 0 12 C0 8.04 0 4.08 0 0 Z " fill="#0B296B" transform="translate(668,636)"/>
<path d="M0 0 C1.51628465 0.37641101 3.02927396 0.76629359 4.5390625 1.16796875 C6.04673489 1.55003249 7.55454414 1.93155661 9.0625 2.3125 C9.76987305 2.49506348 10.47724609 2.67762695 11.20605469 2.86572266 C13.51136125 3.44233674 15.82768441 3.92263377 18.1640625 4.35546875 C15.1640625 6.35546875 15.1640625 6.35546875 13.10546875 6.21875 C12.32042969 6.03699219 11.53539062 5.85523438 10.7265625 5.66796875 C9.85386719 5.47074219 8.98117187 5.27351562 8.08203125 5.0703125 C7.11910156 4.83441406 6.15617188 4.59851563 5.1640625 4.35546875 C3.51857422 3.95521484 3.51857422 3.95521484 1.83984375 3.546875 C-1.05594711 2.83063797 -3.94730137 2.0999626 -6.8359375 1.35546875 C-3.8359375 -0.64453125 -3.8359375 -0.64453125 0 0 Z " fill="#DEE2EA" transform="translate(587.8359375,606.64453125)"/>
<path d="M0 0 C0.66 0.33 1.32 0.66 2 1 C2 4.63 2 8.26 2 12 C0.68 12 -0.64 12 -2 12 C-2 8.37 -2 4.74 -2 1 C-1.34 0.67 -0.68 0.34 0 0 Z " fill="#A3B0C8" transform="translate(495,636)"/>
<path d="M0 0 C0.99 0.33 1.98 0.66 3 1 C3 4.63 3 8.26 3 12 C1.68 12 0.36 12 -1 12 C-1.02687279 10.18757948 -1.04633715 8.37504767 -1.0625 6.5625 C-1.07410156 5.55316406 -1.08570313 4.54382813 -1.09765625 3.50390625 C-1 1 -1 1 0 0 Z " fill="#ABB6CC" transform="translate(451,636)"/>
<path d="M0 0 C0.99 0.33 1.98 0.66 3 1 C3 4.63 3 8.26 3 12 C1.68 12 0.36 12 -1 12 C-1.02687279 10.18757948 -1.04633715 8.37504767 -1.0625 6.5625 C-1.07410156 5.55316406 -1.08570313 4.54382813 -1.09765625 3.50390625 C-1 1 -1 1 0 0 Z " fill="#A8B4CA" transform="translate(432,636)"/>
<path d="M0 0 C0.99 0.33 1.98 0.66 3 1 C3 4.63 3 8.26 3 12 C1.68 12 0.36 12 -1 12 C-1.02687279 10.18757948 -1.04633715 8.37504767 -1.0625 6.5625 C-1.07410156 5.55316406 -1.08570313 4.54382813 -1.09765625 3.50390625 C-1 1 -1 1 0 0 Z " fill="#A8B4CB" transform="translate(413,636)"/>
<path d="M0 0 C0.66 0.33 1.32 0.66 2 1 C2 4.63 2 8.26 2 12 C0.68 12 -0.64 12 -2 12 C-2 8.37 -2 4.74 -2 1 C-1.34 0.67 -0.68 0.34 0 0 Z " fill="#9CA9C3" transform="translate(514,636)"/>
<path d="M0 0 C1.43655854 -0.08131463 2.8744483 -0.13933559 4.3125 -0.1875 C5.51326172 -0.23970703 5.51326172 -0.23970703 6.73828125 -0.29296875 C9.47851584 0.06198392 10.29171079 0.89366282 12 3 C11.67 3.66 11.34 4.32 11 5 C9.54119891 4.85892253 8.08296449 4.71197585 6.625 4.5625 C5.40683594 4.44068359 5.40683594 4.44068359 4.1640625 4.31640625 C2 4 2 4 0 3 C0 2.01 0 1.02 0 0 Z " fill="#112D6E" transform="translate(584,603)"/>
<path d="M0 0 C0 0.33 0 0.66 0 1 C-2.91337509 1.72534647 -5.82923131 2.43064548 -8.75 3.125 C-9.575 3.33253906 -10.4 3.54007813 -11.25 3.75390625 C-12.04921875 3.94082031 -12.8484375 4.12773438 -13.671875 4.3203125 C-14.77160645 4.58739014 -14.77160645 4.58739014 -15.89355469 4.85986328 C-18.48047007 5.03196451 -19.80908824 4.32060887 -22 3 C-19.46163847 2.29757929 -16.92055937 1.61289798 -14.375 0.9375 C-13.66214844 0.73833984 -12.94929688 0.53917969 -12.21484375 0.33398438 C-7.7911325 -0.82267407 -4.54228571 -1.13915367 0 0 Z " fill="#CCD3E0" transform="translate(443,621)"/>
<path d="M0 0 C1.32 0 2.64 0 4 0 C4 3.63 4 7.26 4 11 C2.68 11 1.36 11 0 11 C0 7.37 0 3.74 0 0 Z " fill="#C6CEDD" transform="translate(527,636)"/>
<path d="M0 0 C2.97 0.33 5.94 0.66 9 1 C8.67 2.65 8.34 4.3 8 6 C3.545 5.01 3.545 5.01 -1 4 C-0.67 2.68 -0.34 1.36 0 0 Z " fill="#122E6E" transform="translate(692,622)"/>
<path d="M0 0 C0.66 0 1.32 0 2 0 C2 0.99 2 1.98 2 3 C-2.32734391 5.22923777 -5.28400182 4.92470553 -10 4 C-10 3.34 -10 2.68 -10 2 C-10.66 1.67 -11.32 1.34 -12 1 C-11.21753906 1.01160156 -10.43507813 1.02320313 -9.62890625 1.03515625 C-8.61699219 1.04417969 -7.60507812 1.05320312 -6.5625 1.0625 C-5.04849609 1.07990234 -5.04849609 1.07990234 -3.50390625 1.09765625 C-1.05978933 1.28612676 -1.05978933 1.28612676 0 0 Z " fill="#26417B" transform="translate(447,608)"/>
<path d="M0 0 C-0.6796875 1.921875 -0.6796875 1.921875 -2 4 C-4.3828125 4.828125 -4.3828125 4.828125 -7.125 5.25 C-8.03507812 5.39953125 -8.94515625 5.5490625 -9.8828125 5.703125 C-10.58148438 5.80109375 -11.28015625 5.8990625 -12 6 C-11.34 5.195625 -10.68 4.39125 -10 3.5625 C-7.89745486 1.41038085 -7.89745486 1.41038085 -8 0 C-4.71303767 -0.79953138 -3.28976808 -1.09658936 0 0 Z " fill="#143070" transform="translate(406,618)"/>
<path d="M0 0 C0.33 0 0.66 0 1 0 C1 3.96 1 7.92 1 12 C5.95 12 10.9 12 16 12 C16 12.33 16 12.66 16 13 C10.06 13.33 4.12 13.66 -2 14 C-2 13.34 -2 12.68 -2 12 C-1.34 12 -0.68 12 0 12 C0 8.04 0 4.08 0 0 Z " fill="#E6E9F0" transform="translate(511,636)"/>
<path d="M0 0 C0.66 0 1.32 0 2 0 C2 2.97 2 5.94 2 9 C4.31 9 6.62 9 9 9 C9 9.66 9 10.32 9 11 C6.03 11 3.06 11 0 11 C0 7.37 0 3.74 0 0 Z " fill="#0C2B6D" transform="translate(611,637)"/>
<path d="M0 0 C0 1.32 0 2.64 0 4 C-3.63 4 -7.26 4 -11 4 C-10.67 2.68 -10.34 1.36 -10 0 C-6.33694766 -0.74926071 -3.57644848 -1.2380014 0 0 Z " fill="#213D79" transform="translate(443,616)"/>
<path d="M0 0 C-0.33 0.99 -0.66 1.98 -1 3 C-0.34 3.33 0.32 3.66 1 4 C-3.62 3.34 -8.24 2.68 -13 2 C-7.92858749 -0.53570625 -5.51630428 -1.37907607 0 0 Z " fill="#2E4780" transform="translate(508,593)"/>
<path d="M0 0 C-0.99 0.495 -0.99 0.495 -2 1 C-0.02 1 1.96 1 4 1 C1.57869669 3.42130331 0.19888623 3.52840504 -3.125 4.125 C-4.03507812 4.29257812 -4.94515625 4.46015625 -5.8828125 4.6328125 C-6.58148438 4.75398437 -7.28015625 4.87515625 -8 5 C-7.67 3.35 -7.34 1.7 -7 0 C-3.86650268 -1.04449911 -3.01031744 -0.93423645 0 0 Z " fill="#0D296B" transform="translate(435,618)"/>
<path d="M0 0 C-0.99 0.495 -0.99 0.495 -2 1 C-2.33 1.99 -2.66 2.98 -3 4 C-4.98 4 -6.96 4 -9 4 C-9.33 2.68 -9.66 1.36 -10 0 C-6.30581799 -1.231394 -3.7943739 -0.64432764 0 0 Z " fill="#203B77" transform="translate(609,600)"/>
<path d="M0 0 C5.28 0 10.56 0 16 0 C16 0.66 16 1.32 16 2 C10.72 2 5.44 2 0 2 C0 1.34 0 0.68 0 0 Z " fill="#FFFFFF" transform="translate(532,579)"/>
<path d="M0 0 C1.45922693 0.11409593 2.91740598 0.24165544 4.375 0.375 C5.59316406 0.47941406 5.59316406 0.47941406 6.8359375 0.5859375 C9 1 9 1 11 3 C8.69 2.67 6.38 2.34 4 2 C4 2.66 4 3.32 4 4 C4.99 4.33 5.98 4.66 7 5 C4.69 4.67 2.38 4.34 0 4 C0 2.68 0 1.36 0 0 Z " fill="#0F296B" transform="translate(661,621)"/>
<path d="M0 0 C-3.15023914 1.76174511 -6.08447018 2.58197551 -9.625 3.25 C-11.06746094 3.53617188 -11.06746094 3.53617188 -12.5390625 3.828125 C-13.75722656 3.91320312 -13.75722656 3.91320312 -15 4 C-15.66 3.34 -16.32 2.68 -17 2 C-15.10787298 1.46585888 -13.21108364 0.94821671 -11.3125 0.4375 C-10.25675781 0.14746094 -9.20101563 -0.14257812 -8.11328125 -0.44140625 C-4.99304618 -1.00124767 -3.02306766 -0.84690764 0 0 Z " fill="#C1C9D9" transform="translate(443,614)"/>
<path d="M0 0 C0 0.33 0 0.66 0 1 C-2.62275173 1.55561711 -5.24707977 2.09492378 -7.875 2.625 C-8.62136719 2.78484375 -9.36773437 2.9446875 -10.13671875 3.109375 C-12.0758447 3.49370627 -14.03835574 3.75531287 -16 4 C-16.66 3.34 -17.32 2.68 -18 2 C-16.12922332 1.46419503 -14.2531083 0.94701113 -12.375 0.4375 C-11.33085937 0.14746094 -10.28671875 -0.14257812 -9.2109375 -0.44140625 C-5.80977098 -1.03309337 -3.34551658 -0.75851802 0 0 Z " fill="#C1C9D9" transform="translate(509,598)"/>
<path d="M0 0 C-0.33 1.98 -0.66 3.96 -1 6 C-1.99 6 -2.98 6 -4 6 C-4 5.01 -4 4.02 -4 3 C-4.61875 3.20625 -5.2375 3.4125 -5.875 3.625 C-6.57625 3.74875 -7.2775 3.8725 -8 4 C-8.66 3.34 -9.32 2.68 -10 2 C-3.375 0 -3.375 0 0 0 Z " fill="#28417C" transform="translate(539,584)"/>
<path d="M0 0 C2.31 0.33 4.62 0.66 7 1 C6.01 1.495 6.01 1.495 5 2 C5 3.32 5 4.64 5 6 C2.69 5.67 0.38 5.34 -2 5 C-1.34 4.01 -0.68 3.02 0 2 C0 1.34 0 0.68 0 0 Z " fill="#29437D" transform="translate(667,615)"/>
<path d="M0 0 C0.33 0.99 0.66 1.98 1 3 C-3.01804691 3.84098656 -6.01803543 4.05404945 -10 3 C-6.86618053 -0.60389239 -4.59270471 -1.53090157 0 0 Z " fill="#1B3674" transform="translate(574,599)"/>
<path d="M0 0 C2.31 0.33 4.62 0.66 7 1 C6.01 1.495 6.01 1.495 5 2 C5 3.32 5 4.64 5 6 C2.03 5.505 2.03 5.505 -1 5 C-0.67 3.35 -0.34 1.7 0 0 Z " fill="#28417C" transform="translate(595,604)"/>
<path d="M0 0 C0 0.99 0 1.98 0 3 C0.66 3.66 1.32 4.32 2 5 C-0.31 5.33 -2.62 5.66 -5 6 C-5 4.68 -5 3.36 -5 2 C-5.66 1.67 -6.32 1.34 -7 1 C-4.50935112 0.31292445 -2.62113708 0 0 0 Z " fill="#26407B" transform="translate(534,592)"/>
<path d="M0 0 C2.97 0.495 2.97 0.495 6 1 C5.67 1.99 5.34 2.98 5 4 C-1.4 5.23076923 -1.4 5.23076923 -4.4375 4.0625 C-4.953125 3.711875 -5.46875 3.36125 -6 3 C-4.02 2.67 -2.04 2.34 0 2 C0 1.34 0 0.68 0 0 Z " fill="#28427C" transform="translate(581,594)"/>
<path d="M0 0 C-0.99 0.66 -1.98 1.32 -3 2 C-2.01 2.66 -1.02 3.32 0 4 C-2.64 4.33 -5.28 4.66 -8 5 C-8.33 4.34 -8.66 3.68 -9 3 C-7.14340032 -0.71319936 -3.69365381 -0.09982848 0 0 Z " fill="#0C276A" transform="translate(542,591)"/>
<path d="M0 0 C-1.3125 2.5 -1.3125 2.5 -3 5 C-3.99 5 -4.98 5 -6 5 C-6 3.68 -6 2.36 -6 1 C-6.66 0.67 -7.32 0.34 -8 0 C-4.94736336 -0.98120464 -3.05263664 -0.98120464 0 0 Z " fill="#233D79" transform="translate(429,619)"/>
<path d="M0 0 C-3.61328125 4.6875 -3.61328125 4.6875 -5 6 C-5.99 6 -6.98 6 -8 6 C-7.67 5.01 -7.34 4.02 -7 3 C-8.32 2.34 -9.64 1.68 -11 1 C-7.32589215 -0.17571451 -3.83070817 -0.07366746 0 0 Z " fill="#28417C" transform="translate(400,619)"/>
<path d="M0 0 C1.98 0 3.96 0 6 0 C6.66 1.32 7.32 2.64 8 4 C6.68 4.33 5.36 4.66 4 5 C4 4.34 4 3.68 4 3 C2.68 3 1.36 3 0 3 C0 2.01 0 1.02 0 0 Z " fill="#153070" transform="translate(660,614)"/>
<path d="M0 0 C0 0.99 0 1.98 0 3 C-2 5 -2 5 -4.625 5.125 C-5.40875 5.08375 -6.1925 5.0425 -7 5 C-7 3.68 -7 2.36 -7 1 C-4.53721199 -0.231394 -2.7204945 -0.07159196 0 0 Z " fill="#0F2A6C" transform="translate(432,611)"/>
<path d="M0 0 C2.64 0.33 5.28 0.66 8 1 C7.01 1.33 6.02 1.66 5 2 C5 2.66 5 3.32 5 4 C5.99 4.33 6.98 4.66 8 5 C5.69 4.67 3.38 4.34 1 4 C0.67 2.68 0.34 1.36 0 0 Z " fill="#0D286A" transform="translate(631,607)"/>
<path d="M0 0 C0 1.32 0 2.64 0 4 C-0.66 4 -1.32 4 -2 4 C-2 3.01 -2 2.02 -2 1 C-2.515625 1.350625 -3.03125 1.70125 -3.5625 2.0625 C-6.94006667 3.3615641 -9.50468057 2.67217681 -13 2 C-8.25713263 -0.5408218 -5.30009266 -1.32502317 0 0 Z " fill="#2C457E" transform="translate(451,607)"/>
<path d="M0 0 C-0.33 0.66 -0.66 1.32 -1 2 C-0.01 2.66 0.98 3.32 2 4 C-0.31 4.33 -2.62 4.66 -5 5 C-5.33 3.35 -5.66 1.7 -6 0 C-3.50907189 -1.24546405 -2.58919267 -0.7767578 0 0 Z " fill="#2A417C" transform="translate(385,623)"/>
<path d="M0 0 C1.41750563 0.11509661 2.83401169 0.24253658 4.25 0.375 C5.03890625 0.44460938 5.8278125 0.51421875 6.640625 0.5859375 C9.085877 1.01507113 10.84836903 1.78600638 13 3 C8.04653013 4.59789351 3.86717585 3.28306814 -1 2 C-0.67 1.34 -0.34 0.68 0 0 Z " fill="#D0D6E2" transform="translate(650,623)"/>
<path d="M0 0 C3.3 0.66 6.6 1.32 10 2 C9.67 2.66 9.34 3.32 9 4 C6.03 3.67 3.06 3.34 0 3 C0 2.01 0 1.02 0 0 Z " fill="#C8CFDE" transform="translate(547,597)"/>
<path d="M0 0 C1.98 0.66 3.96 1.32 6 2 C6 2.33 6 2.66 6 3 C2.04 3.66 -1.92 4.32 -6 5 C-6 4.34 -6 3.68 -6 3 C-5.195625 2.690625 -4.39125 2.38125 -3.5625 2.0625 C-1.10919595 1.23664655 -1.10919595 1.23664655 0 0 Z " fill="#27407B" transform="translate(523,596)"/>
<path d="M0 0 C-2.95070119 1.96713413 -4.53581611 2.65358161 -8 3 C-8.99 2.34 -9.98 1.68 -11 1 C-6.8204355 -1.78637633 -4.85331323 -0.79562512 0 0 Z " fill="#132F6F" transform="translate(506,596)"/>
<path d="M0 0 C0.66 0.33 1.32 0.66 2 1 C1.67 2.32 1.34 3.64 1 5 C-1.64 4.67 -4.28 4.34 -7 4 C-4.61426621 2.10786631 -2.92824652 0.97608217 0 0 Z " fill="#2B457E" transform="translate(640,615)"/>
<path d="M0 0 C1.33998047 0.31324219 1.33998047 0.31324219 2.70703125 0.6328125 C3.60808594 0.83648438 4.50914062 1.04015625 5.4375 1.25 C6.46810547 1.50136719 6.46810547 1.50136719 7.51953125 1.7578125 C4.51953125 3.7578125 4.51953125 3.7578125 2.0390625 3.515625 C1.14574219 3.30679688 0.25242187 3.09796875 -0.66796875 2.8828125 C-1.56902344 2.67914062 -2.47007812 2.47546875 -3.3984375 2.265625 C-4.08550781 2.09804688 -4.77257812 1.93046875 -5.48046875 1.7578125 C-2.48046875 -0.2421875 -2.48046875 -0.2421875 0 0 Z " fill="#C8CEDD" transform="translate(586.48046875,606.2421875)"/>
<path d="M0 0 C1.65 0.33 3.3 0.66 5 1 C5 1.66 5 2.32 5 3 C5.99 3.33 6.98 3.66 8 4 C5.1875 4.625 5.1875 4.625 2 5 C1.01 4.34 0.02 3.68 -1 3 C-0.67 2.01 -0.34 1.02 0 0 Z " fill="#1D3976" transform="translate(495,601)"/>
<path d="M0 0 C1.98 0 3.96 0 6 0 C6 0.99 6 1.98 6 3 C3.69 3.33 1.38 3.66 -1 4 C-0.67 2.68 -0.34 1.36 0 0 Z " fill="#163271" transform="translate(466,608)"/>
<path d="M0 0 C-0.99 0 -1.98 0 -3 0 C-3 1.32 -3 2.64 -3 4 C-5.31 3.67 -7.62 3.34 -10 3 C-9.01 2.67 -8.02 2.34 -7 2 C-7 1.34 -7 0.68 -7 0 C-3.86650268 -1.04449911 -3.01031744 -0.93423645 0 0 Z " fill="#29447E" transform="translate(626,605)"/>
<path d="M0 0 C1.32 0.33 2.64 0.66 4 1 C4 2.32 4 3.64 4 5 C2.02 5.33 0.04 5.66 -2 6 C-1.34 4.02 -0.68 2.04 0 0 Z " fill="#233E7A" transform="translate(511,597)"/>
<path d="M0 0 C1.32 0 2.64 0 4 0 C3.67 1.65 3.34 3.3 3 5 C0.03 4.505 0.03 4.505 -3 4 C-1.75 2 -1.75 2 0 0 Z " fill="#1D3573" transform="translate(697,623)"/>
<path d="M0 0 C2.64 0.33 5.28 0.66 8 1 C7.01 1.33 6.02 1.66 5 2 C5 2.66 5 3.32 5 4 C3.68 4 2.36 4 1 4 C0.67 2.68 0.34 1.36 0 0 Z " fill="#2A447E" transform="translate(675,617)"/>
<path d="M0 0 C0.66 0 1.32 0 2 0 C2 0.99 2 1.98 2 3 C0.741875 3.04125 -0.51625 3.0825 -1.8125 3.125 C-2.52019531 3.14820313 -3.22789062 3.17140625 -3.95703125 3.1953125 C-6 3 -6 3 -9 1 C-7.700625 1.020625 -6.40125 1.04125 -5.0625 1.0625 C-3.70834367 1.08399454 -2.35243917 1.07148199 -1 1 C-0.67 0.67 -0.34 0.34 0 0 Z " fill="#0F2C6D" transform="translate(447,608)"/>
<path d="M0 0 C2.31 0.33 4.62 0.66 7 1 C6.01 1.33 5.02 1.66 4 2 C4 2.66 4 3.32 4 4 C2.68 4 1.36 4 0 4 C0 2.68 0 1.36 0 0 Z " fill="#0D286A" transform="translate(615,603)"/>
<path d="M0 0 C1.98 0 3.96 0 6 0 C5.01 0.495 5.01 0.495 4 1 C3.67 1.99 3.34 2.98 3 4 C1.35 4 -0.3 4 -2 4 C-1.34 2.68 -0.68 1.36 0 0 Z " fill="#183372" transform="translate(607,601)"/>
<path d="M0 0 C1.32 0.33 2.64 0.66 4 1 C4 1.99 4 2.98 4 4 C1.36 3.67 -1.28 3.34 -4 3 C-2.68 2.67 -1.36 2.34 0 2 C0 1.34 0 0.68 0 0 Z " fill="#0B2669" transform="translate(586,596)"/>
<path d="M0 0 C-0.66 0 -1.32 0 -2 0 C-2 1.32 -2 2.64 -2 4 C-4.97 3.505 -4.97 3.505 -8 3 C-5.45189726 -0.82215411 -4.39145359 -1.46381786 0 0 Z " fill="#1D3976" transform="translate(556,588)"/>
<path d="M0 0 C-1.90401138 1.90401138 -3.33425686 2.93520439 -6.046875 3.19921875 C-8.03233273 3.1886578 -10.0169914 3.09915043 -12 3 C-7.86112344 0.24074896 -4.92824278 -0.13689563 0 0 Z " fill="#082266" transform="translate(440,623)"/>
<path d="M0 0 C0 0.66 0 1.32 0 2 C-4.455 2.495 -4.455 2.495 -9 3 C-9 2.34 -9 1.68 -9 1 C-5.92677456 0.08941469 -3.19902639 -0.08886184 0 0 Z " fill="#D8DDE7" transform="translate(512,603)"/>
<path d="M0 0 C2.31 0.33 4.62 0.66 7 1 C3.375 4 3.375 4 0 4 C0 2.68 0 1.36 0 0 Z " fill="#0E286B" transform="translate(566,591)"/>
<path d="M0 0 C1.32 0.33 2.64 0.66 4 1 C4 1.99 4 2.98 4 4 C1.36 3.67 -1.28 3.34 -4 3 C-2.68 2.67 -1.36 2.34 0 2 C0 1.34 0 0.68 0 0 Z " fill="#2F4981" transform="translate(612,610)"/>
<path d="M0 0 C-0.99 0 -1.98 0 -3 0 C-3 0.99 -3 1.98 -3 3 C-5.31 3 -7.62 3 -10 3 C-8.68 2.67 -7.36 2.34 -6 2 C-6 1.34 -6 0.68 -6 0 C-3.50907189 -1.24546405 -2.58919267 -0.7767578 0 0 Z " fill="#2B447E" transform="translate(695,622)"/>
<path d="M0 0 C2.64 0 5.28 0 8 0 C7.01 1.485 7.01 1.485 6 3 C4.68 3 3.36 3 2 3 C2 2.34 2 1.68 2 1 C1.34 0.67 0.68 0.34 0 0 Z " fill="#183573" transform="translate(386,621)"/>
<path d="M0 0 C0.99 0 1.98 0 3 0 C3 0.66 3 1.32 3 2 C4.32 2.33 5.64 2.66 7 3 C4.69 3.33 2.38 3.66 0 4 C0 2.68 0 1.36 0 0 Z " fill="#0B2669" transform="translate(481,605)"/>
<path d="M0 0 C-2.75924185 1.80411967 -3.88972103 2.0127245 -7.25 1.625 C-8.1575 1.41875 -9.065 1.2125 -10 1 C-10 0.67 -10 0.34 -10 0 C-6.30458414 -0.95024979 -3.69541586 -0.95024979 0 0 Z " fill="#C8CFDD" transform="translate(504,606)"/>
<path d="M0 0 C0 0.66 0 1.32 0 2 C-0.99 2.66 -1.98 3.32 -3 4 C-2.67 4.66 -2.34 5.32 -2 6 C-2.99 6 -3.98 6 -5 6 C-5.33 4.35 -5.66 2.7 -6 1 C-3.92446352 0.4465236 -2.15634036 0 0 0 Z " fill="#1F3B77" transform="translate(482,598)"/>
<path d="M0 0 C0.66 0 1.32 0 2 0 C1.67 1.65 1.34 3.3 1 5 C0.67 5 0.34 5 0 5 C0 3.35 0 1.7 0 0 Z " fill="#FFFFFF" transform="translate(719,852)"/>
<path d="M0 0 C2.31 0 4.62 0 7 0 C7 0.33 7 0.66 7 1 C4.69 1 2.38 1 0 1 C0 0.67 0 0.34 0 0 Z " fill="#FFFFFF" transform="translate(657,608)"/>
<path d="M0 0 C2.31 0 4.62 0 7 0 C7 0.33 7 0.66 7 1 C4.69 1 2.38 1 0 1 C0 0.67 0 0.34 0 0 Z " fill="#FFFFFF" transform="translate(416,608)"/>
<path d="M0 0 C0.33 0 0.66 0 1 0 C1 1.98 1 3.96 1 6 C0.67 6 0.34 6 0 6 C0 4.02 0 2.04 0 0 Z " fill="#FFFFFF" transform="translate(704,623)"/>
<path d="M0 0 C1.65 0 3.3 0 5 0 C5 0.33 5 0.66 5 1 C3.35 1 1.7 1 0 1 C0 0.67 0 0.34 0 0 Z " fill="#FFFFFF" transform="translate(605,595)"/>
<path d="M0 0 C1.65 0 3.3 0 5 0 C5 0.33 5 0.66 5 1 C3.35 1 1.7 1 0 1 C0 0.67 0 0.34 0 0 Z " fill="#FFFFFF" transform="translate(470,595)"/>
<path d="M0 0 C4 1 4 1 4 1 Z " fill="#FFFFFF" transform="translate(552,582)"/>
<path d="M0 0 C4 1 4 1 4 1 Z " fill="#FFFFFF" transform="translate(524,582)"/>
<path d="" fill="#FFFFFF" transform="translate(0,0)"/>
</svg>
