<?xml version="1.0" encoding="UTF-8"?>
<svg version="1.1" xmlns="http://www.w3.org/2000/svg" width="1080" height="1080">
<path d="M0 0 C1.07636719 0.49113281 2.15273438 0.98226562 3.26171875 1.48828125 C22.37128696 10.9639133 35.82567781 27.86883873 42.67578125 47.8515625 C51.78677998 75.87449277 49.04240756 108.91379008 36.40625 135.33203125 C30.2448966 147.36067346 21.38071288 159.37300964 10 167 C9.34 167 8.68 167 8 167 C8.01571045 166.43716309 8.0314209 165.87432617 8.04760742 165.29443359 C8.49003962 146.97363343 7.81292238 129.52448158 -5 115 C-10.52630015 110.39474987 -16.1529303 107.15555898 -23 105 C-22.9278125 104.27039063 -22.855625 103.54078125 -22.78125 102.7890625 C-20.13199277 77.11645283 -20.13199277 77.11645283 -28.640625 53.609375 C-34.12962086 47.11090864 -39.61003039 45.16074822 -48 44 C-57.71677487 43.58286573 -65.52574289 46.10934165 -72.875 52.5 C-78.19701109 59.82248334 -79.65653642 70.15954614 -80 79 C-80.03996094 79.70125 -80.07992188 80.4025 -80.12109375 81.125 C-80.49079162 92.95533187 -78.25849563 105.34257414 -73 116 C-68.75460176 117.41513275 -66.20330648 115.5053864 -62.375 113.6875 C-49.64462708 107.94225802 -35.46039842 105.00777538 -21.8125 109.75 C-11.73256164 114.11341223 -4.850037 120.44992437 -0.04296875 130.27734375 C19.46709934 181.20812074 -17.15966477 262.29083119 -37.98701477 309.13342285 C-48.22691441 332.00835791 -59.30111555 354.33428788 -72.69921875 375.54418945 C-75.13216892 379.00435339 -75.13216892 379.00435339 -76 383 C13.18767827 424.92427888 13.18767827 424.92427888 108 424 C109.0828125 423.62617187 110.165625 423.25234375 111.28125 422.8671875 C122.93628009 418.42297148 133.21562664 411.22912218 139.5625 400.3125 C141 398 141 398 143 397 C148.25189007 396.59600846 151.56881474 397.11009657 156 400 C160.02408677 403.75581432 162.01294811 406.87942574 162.3125 412.44921875 C161.06456994 422.63544789 153.70205684 430.82588156 146 437 C121.7799106 453.5671144 91.11994904 453.77328827 63.11376953 448.62060547 C17.02442052 439.43453638 -26.46668459 421.47784557 -69.39306641 402.82763672 C-70.26880814 402.44813873 -71.14454987 402.06864075 -72.04682922 401.67764282 C-73.69434755 400.96311367 -75.34072814 400.2459534 -76.98576355 399.52572632 C-77.72111832 399.20689484 -78.45647308 398.88806335 -79.21411133 398.55957031 C-79.85181961 398.28123352 -80.48952789 398.00289673 -81.14656067 397.71612549 C-83.07505048 396.97100226 -84.98609815 396.45971298 -87 396 C-87.24492187 396.54140625 -87.48984375 397.0828125 -87.7421875 397.640625 C-99.9738971 420.58457716 -125.2855017 441.12746516 -149.83984375 449.34375 C-155.81292865 451.12866331 -161.75585529 452.73662659 -168 453 C-169.61068359 453.07734375 -169.61068359 453.07734375 -171.25390625 453.15625 C-188.55656522 453.58926753 -206.45954763 450.37976074 -220.09765625 438.92578125 C-228.07623236 430.84890646 -230.84276665 422.16356788 -231 411 C-230.26013583 400.92140588 -224.304685 390.81566843 -217 384 C-199.00613648 368.64743754 -177.53329917 361.59621186 -154.0625 361.625 C-152.30437988 361.62415405 -152.30437988 361.62415405 -150.51074219 361.62329102 C-140.67866038 361.74582377 -131.53765744 363.19801649 -122.01757812 365.54248047 C-119.02992815 366.21997999 -116.03847489 366.61818106 -113 367 C-98.29911739 345.54465781 -85.65290557 323.2467299 -74 300 C-73.50226074 299.0085498 -73.00452148 298.01709961 -72.49169922 296.99560547 C-60.2572574 272.45585794 -50.54454099 247.03494642 -42 221 C-41.6484082 219.93523437 -41.29681641 218.87046875 -40.93457031 217.7734375 C-36.40254587 203.93016284 -32.60004965 189.9366468 -29.0625 175.8125 C-28.86477997 175.02479218 -28.66705994 174.23708435 -28.46334839 173.42550659 C-27.89883292 171.16640999 -27.34053377 168.90589004 -26.78515625 166.64453125 C-26.61887726 165.97577972 -26.45259827 165.3070282 -26.28128052 164.61801147 C-23.56612994 153.42652615 -21.4556307 139.67804457 -27 129 C-31.7757081 124.92074933 -35.9796215 123.66818407 -42.23828125 123.69921875 C-47.69065689 124.29304184 -52.83813853 126.21289495 -58 128 C-52.70487995 130.89451248 -48.08648285 130.33850808 -42.375 128.875 C-39.4169573 128.16567343 -38.15038759 127.96403775 -35.125 128.6875 C-31.71208491 130.79547696 -30.28351127 132.14946619 -29 136 C-27.43282065 152.60129298 -30.55005375 168.39427526 -36 184 C-57.9288279 189.6055286 -84.32712839 182.96240918 -103.46801758 171.94702148 C-107.01061755 169.92335139 -108.82391997 169 -113 169 C-115.23127506 170.96269565 -117.22889966 172.90176861 -119.25 175.0625 C-122.68164243 178.6636573 -126.11548312 182.15761673 -129.890625 185.40234375 C-134.32090582 189.21742595 -138.40529254 193.3307077 -142.5 197.5 C-147.24357398 202.32997788 -152.04121806 206.98052193 -157.17382812 211.39648438 C-159.7434841 213.6528347 -162.11058872 216.05301255 -164.5 218.5 C-168.13559136 222.18488963 -171.84612967 225.70735904 -175.78515625 229.06640625 C-178.11302249 231.09867043 -180.37098692 233.19327504 -182.62866211 235.30273438 C-187.9458145 240.26756856 -193.33802748 245.05534669 -199.01953125 249.60546875 C-201.22620404 251.37832645 -203.40586514 253.16975459 -205.57421875 254.98828125 C-214.91985828 262.78183482 -224.64481602 269.77609347 -234.77490234 276.51269531 C-236.7960709 277.86368926 -238.80119747 279.23453616 -240.80078125 280.6171875 C-289.06675311 313.80947651 -351.25551301 339.4330373 -410.86083984 329.39794922 C-428.02583347 326.20473539 -444.71996234 320.71768029 -458 309 C-458.81082031 308.38640625 -459.62164062 307.7728125 -460.45703125 307.140625 C-469.74113635 299.32543361 -477.81875664 285.99683847 -480 274 C-480.50779928 267.7217543 -480.77368964 262.33521639 -477 257 C-473.5277562 253.22138175 -470.21022124 252.14083085 -465.22265625 251.7578125 C-461.30249898 252.18496496 -459.63693433 254.16529559 -457 257 C-455.82448345 259.3510331 -455.84575626 260.85147988 -455.7890625 263.47265625 C-455.74652344 264.82327148 -455.74652344 264.82327148 -455.703125 266.20117188 C-455.65179316 268.08120068 -455.60731196 269.9614314 -455.5703125 271.84179688 C-455.18181642 283.26196284 -451.65233918 291.44811048 -444 300 C-426.9623421 315.52373343 -404.90590173 318.82523799 -382.65283203 318.13183594 C-317.82370282 314.91006806 -257.64234813 279.94563385 -209.59912109 238.37695312 C-207.94629478 236.95375612 -206.28139976 235.54585678 -204.61328125 234.140625 C-197.66946365 228.27326992 -190.92684108 222.23342523 -184.32470703 215.9831543 C-181.29542319 213.1186979 -178.23456886 210.31134415 -175.0859375 207.578125 C-170.78991362 203.84436721 -166.63760953 199.97024233 -162.5 196.0625 C-161.79230469 195.39798828 -161.08460938 194.73347656 -160.35546875 194.04882812 C-156.09280814 190.03164066 -151.91474784 185.94552923 -147.80517578 181.77172852 C-146.05543552 180.05440838 -144.24903915 178.45469307 -142.375 176.875 C-137.54681285 172.75172817 -133.15974595 168.18162761 -128.74755859 163.62255859 C-128.16312988 163.02652832 -127.57870117 162.43049805 -126.9765625 161.81640625 C-126.45143066 161.27443604 -125.92629883 160.73246582 -125.38525391 160.17407227 C-124 159 -124 159 -122 159 C-122.6290625 158.22398437 -123.258125 157.44796875 -123.90625 156.6484375 C-144.68897192 130.61289486 -151.68125041 101.5085934 -148.77294922 68.41650391 C-145.8822964 44.04223385 -135.44418593 23.46029311 -116.25 8.1875 C-84.26154874 -14.52060468 -35.10799202 -16.08928517 0 0 Z M-183 381 C-184.38445312 381.433125 -184.38445312 381.433125 -185.796875 381.875 C-196.50429948 385.59932156 -207.79610862 393.82902477 -213.375 403.875 C-215.56634294 408.81028539 -216.85749554 413.77389788 -215.44140625 419.1015625 C-212.62336618 425.58931697 -207.44753818 430.19787777 -201.25 433.4375 C-186.34168197 436.01778581 -174.30492259 431.23622663 -162 423 C-148.68514089 413.45275287 -128.33526509 397.00579526 -123 381 C-124.51870698 380.514136 -126.04010699 380.03668799 -127.5625 379.5625 C-128.40941406 379.29566406 -129.25632812 379.02882813 -130.12890625 378.75390625 C-146.75709503 374.38759273 -166.81170999 375.36929043 -183 381 Z " fill="#FDEFD5" transform="translate(500,527)"/>
<path d="M0 0 C0.80072433 -0.0049649 1.60144867 -0.00992981 2.42643738 -0.01504517 C5.07775744 -0.02965299 7.72901737 -0.0364717 10.38037109 -0.04199219 C11.2920039 -0.04481956 12.2036367 -0.04764694 13.14289474 -0.05056 C17.98117106 -0.06555857 22.81941758 -0.07477974 27.65771484 -0.07910156 C32.60853972 -0.08454192 37.55908337 -0.10847281 42.50982094 -0.13707352 C46.35365527 -0.15590605 50.1974252 -0.16091663 54.04130173 -0.16243744 C55.86297493 -0.16542575 57.68464808 -0.1733213 59.50627518 -0.18662262 C85.18835319 -0.36053658 109.55562283 3.70469053 129.03662109 22.04394531 C140.01490437 33.71106205 145.45625221 48.51443018 145.34130859 64.41113281 C145.33566895 65.23814697 145.3300293 66.06516113 145.32421875 66.91723633 C145.02030395 82.40635954 140.17176736 95.65177083 129.37255859 106.91894531 C122.34615569 113.64087076 114.5023841 118.4440324 106.02880859 123.16113281 C106.77904297 123.45246094 107.52927734 123.74378906 108.30224609 124.04394531 C122.05233465 129.55090773 134.21845361 136.41094841 141.02880859 150.16113281 C147.99836157 167.27882149 146.16795563 185.97810346 139.59130859 202.84863281 C135.49234194 211.83482893 129.99612346 218.34660994 123.02880859 225.16113281 C122.07748047 226.16080078 122.07748047 226.16080078 121.10693359 227.18066406 C102.45080507 245.465321 73.78450148 246.52094648 49.35766602 246.421875 C46.23157194 246.41118501 43.10605688 246.42181382 39.97998047 246.43457031 C15.69940896 246.45217838 -13.52226892 246.08557751 -32.23681641 228.09082031 C-47.09610645 211.55818679 -50.11313209 191.00586102 -50.13232422 169.57006836 C-50.13696233 168.218769 -50.1419883 166.86747092 -50.14736938 165.51617432 C-50.1603967 161.86932407 -50.16691885 158.22249215 -50.17138004 154.57562232 C-50.17432548 152.29081275 -50.17843287 150.00600804 -50.18288422 147.72120094 C-50.19653145 140.55365071 -50.20621257 133.38611175 -50.21008611 126.21854943 C-50.21456518 117.9790637 -50.23211774 109.73974398 -50.2610867 101.50030869 C-50.28277643 95.10678326 -50.2927942 88.7133043 -50.29412723 82.3197425 C-50.29516971 78.51210955 -50.30095831 74.70463324 -50.31894684 70.89703941 C-50.33555527 67.31247224 -50.33752198 63.7281774 -50.32880783 60.14358521 C-50.32768374 58.22080993 -50.34130042 56.29804316 -50.3555603 54.37532043 C-50.28168876 38.8154086 -46.2296374 25.86630653 -35.42041016 14.48535156 C-28.44107354 7.86221713 -21.17081524 3.89456737 -11.97119141 1.16113281 C-11.15214828 0.89613983 -11.15214828 0.89613983 -10.31655884 0.62579346 C-6.89001071 -0.05306907 -3.47917821 0.0051708 0 0 Z M19.02880859 53.16113281 C19.02880859 69.99113281 19.02880859 86.82113281 19.02880859 104.16113281 C23.40130859 104.22300781 27.77380859 104.28488281 32.27880859 104.34863281 C33.63135742 104.37594482 34.98390625 104.40325684 36.37744141 104.43139648 C49.04267443 104.51712186 60.25938088 102.70204794 69.62255859 93.61425781 C75.1169599 87.41708425 75.48857251 81.61805728 75.32958984 73.61035156 C74.82961815 67.87690996 73.40633959 64.4003161 69.21630859 60.45410156 C58.80907778 52.59128563 45.69441523 52.73824924 33.21630859 52.97363281 C26.19349609 53.06644531 26.19349609 53.06644531 19.02880859 53.16113281 Z M19.02880859 148.16113281 C18.95387823 152.1262939 18.8998441 156.09117295 18.86401367 160.05688477 C18.84175401 162.05857857 18.80360713 164.06007556 18.76513672 166.06152344 C18.58507207 178.26443512 18.58507207 178.26443512 24.27880859 188.59863281 C34.09031552 194.17335266 45.37885291 192.90128941 55.97412109 190.20800781 C63.49697389 187.62984343 69.04169762 183.18294256 73.10693359 176.34863281 C75.28595541 171.17807256 74.63912068 164.99206908 72.90380859 159.78613281 C67.86496164 152.73174707 61.99221477 150.61612886 53.85644531 148.63110352 C50.37973957 148.05325353 47.06531037 148.0494336 43.54052734 148.06347656 C42.48572929 148.06559898 42.48572929 148.06559898 41.40962219 148.06776428 C39.17847316 148.07333173 36.94742696 148.08587806 34.71630859 148.09863281 C33.19742984 148.10365203 31.67854951 148.1082142 30.15966797 148.11230469 C26.44934848 148.12329045 22.73908858 148.14053247 19.02880859 148.16113281 Z " fill="#FDEFD5" transform="translate(196.97119140625,462.8388671875)"/>
<path d="M0 0 C1.74135223 0.00022659 1.74135223 0.00022659 3.5178833 0.00045776 C4.76591736 0.01078033 6.01395142 0.02110291 7.29980469 0.03173828 C9.22237091 0.03598312 9.22237091 0.03598312 11.18377686 0.04031372 C14.58357607 0.0479329 17.98320315 0.06756644 21.38293457 0.08972168 C24.85520092 0.1102172 28.32749522 0.11932334 31.79980469 0.12939453 C38.60716686 0.15081412 45.414415 0.18492922 52.22167969 0.22705078 C52.31524137 26.47040859 52.3857169 52.7137413 52.42892838 78.95723248 C52.44952809 91.14333875 52.47759919 103.32934122 52.5234375 115.51538086 C52.56338453 126.14032479 52.58913132 136.76519351 52.59803367 147.39021045 C52.60323507 153.01283095 52.6154063 158.63523634 52.64459991 164.2577877 C52.67189329 169.55765732 52.68009664 174.85722467 52.67411041 180.1571579 C52.67520444 182.09484567 52.68307485 184.0325443 52.69850159 185.97017097 C52.83503786 204.01531949 49.78560919 219.16925369 37.15917969 233.03955078 C25.44950448 244.08641418 9.85371064 247.46423625 -5.77832031 247.28955078 C-8.41832031 247.26892578 -11.05832031 247.24830078 -13.77832031 247.22705078 C-14.10832031 238.31705078 -14.43832031 229.40705078 -14.77832031 220.22705078 C-18.67402972 222.17490549 -20.27705113 223.65314122 -23.15332031 226.78955078 C-38.34182863 242.2460916 -58.44648014 249.40835586 -79.90332031 249.60205078 C-96.55804155 249.39864244 -113.58361334 244.45905875 -125.76269531 232.53564453 C-144.76586542 210.77038575 -150.01514999 181.61249399 -148.53613281 153.40283203 C-147.30285186 135.38822812 -143.86664724 119.40808619 -135.77832031 103.22705078 C-135.25496094 102.17904297 -134.73160156 101.13103516 -134.19238281 100.05126953 C-123.53407137 80.42437895 -106.10216557 65.83971985 -84.85644531 58.87548828 C-75.45174708 56.11757044 -66.86172415 55.02527239 -57.09082031 54.97705078 C-56.06537109 54.95642578 -55.03992188 54.93580078 -53.98339844 54.91455078 C-40.56635284 54.84674512 -27.9852171 58.70748823 -18.15332031 68.09033203 C-16.81874892 69.43943889 -16.81874892 69.43943889 -14.77832031 69.22705078 C-14.77467468 68.4761618 -14.77102905 67.72527283 -14.76727295 66.95162964 C-14.7293375 59.86004618 -14.67242238 52.76892477 -14.59441757 45.67768669 C-14.55498142 42.03233976 -14.52277443 38.38723298 -14.50732422 34.74169922 C-14.49213153 31.22062003 -14.45764149 27.70020119 -14.41001129 24.17941666 C-14.38804899 22.18879496 -14.38584882 20.19798684 -14.38397217 18.20724487 C-14.19862749 6.73225128 -14.19862749 6.73225128 -9.77832031 2.22705078 C-6.47990604 0.13580447 -3.86740498 -0.0168148 0 0 Z M-67.77832031 111.22705078 C-68.46667969 111.63955078 -69.15503906 112.05205078 -69.86425781 112.47705078 C-81.39771815 120.25440334 -87.51274888 134.3385573 -90.27441406 147.56298828 C-91.97587074 159.93482057 -92.34003117 172.99557427 -84.96582031 183.60205078 C-80.34975541 189.22752546 -75.06746387 192.3806511 -67.77832031 193.22705078 C-58.03661069 193.63232992 -49.68713657 190.38771153 -42.26660156 184.09814453 C-30.12296377 171.58339387 -24.81738936 154.48053505 -24.27832031 137.35205078 C-24.58833265 127.92167536 -27.02168278 119.78299755 -33.67675781 112.88720703 C-40.13272942 107.78722946 -47.87616493 106.5321998 -55.92675781 106.84423828 C-60.41178211 107.44633743 -63.9163188 108.91274276 -67.77832031 111.22705078 Z " fill="#FDEFD5" transform="translate(706.7783203125,462.77294921875)"/>
<path d="M0 0 C7.84702316 -0.07620035 15.69395052 -0.12866329 23.54125977 -0.16479492 C26.20973072 -0.17816361 28.87771718 -0.20031605 31.54614258 -0.22631836 C35.38629252 -0.26279585 39.22611438 -0.27974859 43.06640625 -0.29296875 C44.84961021 -0.31619453 44.84961021 -0.31619453 46.6688385 -0.33988953 C52.87413568 -0.34114424 57.5854637 -0.16381721 63 3 C67.59693955 8.77097807 68.84122486 16.09107488 70.66125488 23.1151123 C74.93443008 39.51761955 79.96975902 55.64694079 85.25 71.75 C85.58970825 72.790495 85.9294165 73.83098999 86.27941895 74.90301514 C90.24926306 87.04343042 94.38244922 99.08975401 99 111 C99.66 111 100.32 111 101 111 C103.37619716 103.65044976 105.75093231 96.30042878 108.12426186 88.94995213 C109.26982721 85.40242305 110.41614128 81.85513885 111.56399536 78.30834961 C116.12523953 64.21434466 120.68356698 50.12169997 125.046875 35.96484375 C125.63513634 34.06631366 126.2234324 32.16779432 126.81176758 30.26928711 C127.87408135 26.83841548 128.91792175 23.40263495 129.9519043 19.96313477 C130.42429571 18.43354889 130.89731677 16.90415727 131.37109375 15.375 C131.56616516 14.70593124 131.76123657 14.03686249 131.96221924 13.34751892 C133.49051492 8.49500353 135.41723407 5.52113319 139 2 C143.07965704 0.32094818 146.52167404 -0.24657034 150.91357422 -0.22705078 C152.05430389 -0.22689972 153.19503357 -0.22674866 154.37033081 -0.22659302 C155.58616852 -0.21627045 156.80200623 -0.20594788 158.0546875 -0.1953125 C159.31137238 -0.1924826 160.56805725 -0.18965271 161.86282349 -0.18673706 C165.18700864 -0.17746123 168.51091424 -0.15952381 171.83502197 -0.1373291 C175.23374021 -0.11678812 178.63248744 -0.10771778 182.03125 -0.09765625 C188.68757667 -0.07563379 195.34377221 -0.04218433 202 0 C200.75360655 6.26970326 199.03158369 12.19204578 196.859375 18.19921875 C196.54525162 19.08173813 196.23112823 19.96425751 195.90748596 20.8735199 C194.85988029 23.8132839 193.80485653 26.7503308 192.75 29.6875 C191.99317085 31.8075791 191.23692012 33.92786475 190.48120117 36.04833984 C188.85025785 40.62304954 187.21670744 45.19681701 185.58154297 49.77001953 C181.82643063 60.27873342 178.10069494 70.79787488 174.37228394 81.31608295 C172.7629121 85.85588182 171.15169099 90.39502144 169.53955078 94.93383789 C165.18066857 107.20689693 160.82697776 119.48171279 156.4940033 131.76394653 C154.75772625 136.68553301 153.01876163 141.6061687 151.27924061 146.52660942 C150.09973226 149.86365162 148.92171672 153.20120349 147.74746704 156.5401001 C143.53564498 168.51395643 139.31430016 180.47565323 134.6171875 192.26953125 C134.15338181 193.43610764 134.15338181 193.43610764 133.6802063 194.62625122 C127.17006849 210.68429535 118.05110963 224.51104729 106 237 C105.33742188 237.69996094 104.67484375 238.39992188 103.9921875 239.12109375 C93.90420366 248.95975479 80.24141178 254.82061443 66.25 255.3125 C50.33778882 254.9885873 37.987761 249.32994041 27 238 C17.89433438 227.60469075 13.18153736 214.91386482 14 201 C17.48010575 201.49146532 20.95703189 201.99329541 24.4296875 202.53515625 C37.80600669 204.58255204 50.5309037 205.77425512 62.125 197.6328125 C64.17486121 195.84772503 65.66569983 194.37891675 67 192 C66.54132931 187.96047152 65.06140576 184.70907227 63.296875 181.07421875 C62.73564941 179.90318604 62.17442383 178.73215332 61.59619141 177.52563477 C61.29594055 176.90278595 60.9956897 176.27993713 60.68634033 175.63821411 C38.14488254 128.67672126 23.02135296 78.9321727 7.8327179 29.22497559 C6.37077063 24.44234558 4.90157131 19.66352253 3.37255859 14.90185547 C3.13361374 14.15471786 2.89466888 13.40758026 2.64848328 12.63780212 C2.03769166 10.73670119 1.41995947 8.83783374 0.80151367 6.93920898 C0 4 0 4 0 0 Z " fill="#FDEFD5" transform="translate(773,521)"/>
<path d="M0 0 C8.4559298 6.67656282 11.84164594 16.32690615 13.19140625 26.72265625 C14.51915224 40.70925323 12.97228808 54.93461358 9.78515625 68.59375 C17.14478433 62.4384247 20.91200731 55.18908792 24.78515625 46.59375 C25.44644531 45.14548828 25.44644531 45.14548828 26.12109375 43.66796875 C26.93675801 41.87298784 27.7453998 40.0747987 28.546875 38.2734375 C29.83088141 35.49479903 31.2375828 32.80377119 32.66015625 30.09375 C35.7460014 24.0565709 37.98091967 17.79329168 40.07373047 11.35546875 C42.0846148 5.50207591 44.99744602 -0.51239489 50.78515625 -3.40625 C53.61278831 -3.58315826 56.39329735 -3.68370427 59.22265625 -3.71875 C59.99931641 -3.74775391 60.77597656 -3.77675781 61.57617188 -3.80664062 C67.18923331 -3.86949144 67.18923331 -3.86949144 69.8203125 -1.82421875 C71.24596035 1.74855865 71.33201069 3.72370321 70.78515625 7.59375 C69.07212133 11.49296578 66.94963856 15.143334 64.84765625 18.84375 C51.67944712 43.12055755 43.46998618 70.92504214 43.72265625 98.71875 C43.73167969 100.02070312 43.74070312 101.32265625 43.75 102.6640625 C43.76160156 103.63085938 43.77320313 104.59765625 43.78515625 105.59375 C49.74737451 102.91205358 54.00233516 100.02691778 58.53515625 95.34375 C59.13150879 94.7367627 59.72786133 94.12977539 60.34228516 93.50439453 C66.32412114 87.2719274 71.47703075 80.51484728 76.44091797 73.45849609 C77.71466717 71.69153343 79.04611503 69.99529443 80.4140625 68.30078125 C84.51998122 63.28396642 84.51998122 63.28396642 85.6015625 57.18359375 C85.02774919 55.45117174 84.4059585 53.73426679 83.75 52.03125 C79.71968703 37.67224022 82.45607349 21.55420738 89.28515625 8.59375 C92.32874729 3.52728443 95.17557432 -1.03775985 100.78515625 -3.40625 C103.9532932 -4.04574431 106.63529784 -4.19233066 109.78515625 -3.40625 C113.57255095 -0.52436547 116.01266573 2.87484054 116.78515625 7.59375 C117.65747436 21.24888353 114.99879818 33.62410039 110.78515625 46.59375 C119.67640989 39.96059252 126.59452122 33.55732668 132.4140625 24.03662109 C135.09962939 19.86634053 137.20678428 19.08172089 141.78515625 17.59375 C143.9744092 15.06208169 143.9744092 15.06208169 145.72265625 11.96875 C153.79906948 -0.91320662 153.79906948 -0.91320662 158.78515625 -3.40625 C161.75808035 -3.66776272 164.73948365 -3.63767772 167.72265625 -3.65625 C168.54701172 -3.676875 169.37136719 -3.6975 170.22070312 -3.71875 C171.01412109 -3.72390625 171.80753906 -3.7290625 172.625 -3.734375 C173.71349243 -3.74839355 173.71349243 -3.74839355 174.82397461 -3.76269531 C177.35842161 -3.30205886 178.2038022 -2.40169057 179.78515625 -0.40625 C180.92665004 2.59017119 181.24758643 4.55708903 179.91772461 7.53833008 C176.56623849 13.36136261 173.00317355 19.01997395 169.34765625 24.65625 C158.87566059 40.99727286 149.15471644 57.70874878 140.16015625 74.90625 C139.58007812 76.00864014 139 77.11103027 138.40234375 78.24682617 C133.90836022 86.95723145 129.66223189 95.72664905 128.78515625 105.59375 C135.51825712 102.66998177 140.68601724 99.27523965 145.97265625 94.16796875 C147.78515625 92.59375 147.78515625 92.59375 149.78515625 92.59375 C150.18154297 91.70236328 150.18154297 91.70236328 150.5859375 90.79296875 C151.82933909 88.51272413 153.07699901 87.16309481 154.97265625 85.40625 C159.03638927 81.45166684 162.40926418 77.13996951 165.78515625 72.59375 C166.42308105 71.74014893 167.06100586 70.88654785 167.71826172 70.00708008 C174.03251481 61.44832543 179.81552322 52.56329471 185.54296875 43.60546875 C193.17202524 31.76727764 193.17202524 31.76727764 197.09765625 30.65625 C197.98453125 30.635625 198.87140625 30.615 199.78515625 30.59375 C200.01847656 29.78679688 200.25179688 28.97984375 200.4921875 28.1484375 C202.09192426 23.75036967 204.19743005 19.79975164 206.47265625 15.71875 C206.91818848 14.91953125 207.3637207 14.1203125 207.82275391 13.296875 C215.82752036 -0.7597138 215.82752036 -0.7597138 222.78515625 -3.40625 C226.28125 -3.92578125 226.28125 -3.92578125 230.22265625 -4.21875 C231.52074219 -4.32832031 232.81882812 -4.43789063 234.15625 -4.55078125 C238.05390638 -4.39554628 239.77069608 -3.82456693 242.78515625 -1.40625 C244.02123809 1.72030996 244.16760521 3.61106863 242.94140625 6.76171875 C241.95488376 8.75238021 240.91582237 10.68180815 239.78515625 12.59375 C240.31882812 12.01367188 240.8525 11.43359375 241.40234375 10.8359375 C248.62875419 3.25945873 256.8558945 -3.84531107 267.78515625 -4.40625 C272.95622365 -4.11014139 277.98885194 -3.41406176 282.28515625 -0.34375 C286.88141807 5.05685764 288.09495812 10.24029839 287.78515625 17.28125 C285.95223479 32.66609079 277.84032788 46.59119297 269.97265625 59.65625 C262.18582762 72.64327388 253.46482471 87.4991038 250.78515625 102.59375 C251.11515625 103.58375 251.44515625 104.57375 251.78515625 105.59375 C253.14647511 104.7510288 254.49876784 103.8937279 255.84765625 103.03125 C256.97880859 102.31775391 256.97880859 102.31775391 258.1328125 101.58984375 C264.65296915 96.68292174 269.60735398 90.52409111 274.47265625 84.03125 C275.30506836 82.93780273 275.30506836 82.93780273 276.15429688 81.82226562 C278.53975959 78.67095876 280.86345319 75.52241575 282.9921875 72.19140625 C284.78515625 69.59375 284.78515625 69.59375 287.78515625 67.59375 C290.84765625 67.34375 290.84765625 67.34375 293.78515625 67.59375 C295.78515625 69.59375 295.78515625 69.59375 296.22265625 72.65625 C294.62523927 87.03300279 277.33414912 104.66295162 266.5078125 113.34375 C259.27915776 118.58903235 252.75273803 119.89242601 243.78515625 118.59375 C238.6084478 116.59830472 234.75871725 113.28282696 231.78515625 108.59375 C225.71152521 93.23362513 231.77011762 76.88033195 237.84765625 62.53125 C243.08685052 50.48637975 249.06390202 38.80692999 255.05175781 27.12207031 C255.83678331 25.58813428 256.61970757 24.05312038 257.40014648 22.5168457 C258.09446938 21.15048526 258.79416483 19.78683611 259.50024414 18.42651367 C260.93767483 15.59848779 261.78515625 13.81574256 261.78515625 10.59375 C260.59190968 11.4398703 259.40595918 12.29627842 258.22265625 13.15625 C257.56136719 13.63191406 256.90007812 14.10757813 256.21875 14.59765625 C228.34964995 37.45658101 213.11749759 76.12060008 200.83154297 108.95019531 C198.30467266 115.3339918 198.30467266 115.3339918 195.78515625 116.59375 C193.09765625 117.15625 193.09765625 117.15625 189.78515625 116.59375 C183.65283691 111.34111888 180.66983789 105.55588477 179.78515625 97.59375 C179.31650882 89.10129052 180.41640543 80.96512777 181.78515625 72.59375 C181.02332031 73.63273438 180.26148438 74.67171875 179.4765625 75.7421875 C172.15475396 85.65894687 164.6367468 94.97509605 155.78515625 103.59375 C155.28886719 104.13515625 154.79257812 104.6765625 154.28125 105.234375 C148.31355841 111.60360501 140.02233583 117.89467747 131.1015625 118.89453125 C124.64364932 118.92201173 120.17847018 118.61093757 115.1640625 114.15234375 C109.90801601 108.71983526 109.10254949 103.27551154 108.47265625 95.96875 C108.82653756 85.4355769 111.8960747 75.46918669 115.80322266 65.78515625 C116.97125807 62.88236377 117.78515625 60.7576515 117.78515625 57.59375 C117.181875 58.00367188 116.57859375 58.41359375 115.95703125 58.8359375 C115.1578125 59.37476563 114.35859375 59.91359375 113.53515625 60.46875 C112.74625 61.00242187 111.95734375 61.53609375 111.14453125 62.0859375 C107.28469372 64.55265486 105.486123 65.59375 100.78515625 65.59375 C100.43130859 66.84091797 100.43130859 66.84091797 100.0703125 68.11328125 C98.56177258 72.19871916 96.54960839 75.6176881 94.22265625 79.28125 C93.77647949 79.98604492 93.33030273 80.69083984 92.87060547 81.41699219 C88.93484801 87.53184597 84.66808513 93.195577 79.78515625 98.59375 C79.32882812 99.09922363 78.8725 99.60469727 78.40234375 100.12548828 C69.95213539 109.36366728 61.34937953 116.67600874 48.48828125 118.4765625 C41.39996371 118.7838595 35.24074264 117.26996691 29.78515625 112.59375 C22.8769405 104.1503752 22.9494988 93.95828312 23.99023438 83.54101562 C24.49701901 79.21139888 25.11782184 74.90163193 25.78515625 70.59375 C25.30046875 71.11324219 24.81578125 71.63273438 24.31640625 72.16796875 C18.9567301 77.74409336 13.78689619 82.37893609 6.28515625 84.65625 C1.49018259 86.55901732 -0.56076039 91.27743982 -3.1875 95.45703125 C-10.64074738 106.98874155 -20.82237287 115.14246899 -34.21484375 118.59375 C-44.55221186 120.5627725 -54.25794789 119.26645071 -63.21484375 113.59375 C-70.62046475 108.4098153 -75.35190412 101.48516359 -77.7109375 92.75 C-80.63190134 74.45435051 -76.88878744 57.29047356 -67.21484375 41.59375 C-65.46484375 39.48046875 -65.46484375 39.48046875 -63.90234375 37.90625 C-61.07054978 34.99873962 -60.55155245 32.36124383 -59.77734375 28.40625 C-57.86892414 18.76429279 -53.2864806 10.30806218 -45.52734375 4.125 C-32.28630723 -4.64271337 -14.38198561 -9.13141944 0 0 Z M-31.21484375 14.59375 C-33.21068588 17.46832355 -34.80069382 20.39592351 -36.21484375 23.59375 C-35.45558594 23.64273438 -34.69632813 23.69171875 -33.9140625 23.7421875 C-32.92019531 23.81695313 -31.92632813 23.89171875 -30.90234375 23.96875 C-29.91621094 24.03835938 -28.93007813 24.10796875 -27.9140625 24.1796875 C-25.21484375 24.59375 -25.21484375 24.59375 -22.21484375 26.59375 C-21.921875 28.7578125 -21.921875 28.7578125 -22.02734375 31.21875 C-22.05441406 32.03601563 -22.08148437 32.85328125 -22.109375 33.6953125 C-22.14417969 34.32179688 -22.17898438 34.94828125 -22.21484375 35.59375 C-22.79363281 35.85671875 -23.37242187 36.1196875 -23.96875 36.390625 C-27.89641319 38.49448633 -30.98598446 41.55632505 -34.21484375 44.59375 C-34.76398437 45.10421875 -35.313125 45.6146875 -35.87890625 46.140625 C-38.49306556 48.857014 -39.20946352 50.29245695 -39.27734375 54.09375 C-36.88559561 61.97244977 -31.38276556 67.85296404 -24.1796875 71.74609375 C-19.33383575 73.83665007 -14.46030842 74.59375 -9.21484375 74.59375 C-3.31252152 57.05008867 4.5488896 33.46624558 -4.21484375 15.59375 C-6.12707539 12.67128278 -8.02815234 10.1870957 -11.21484375 8.59375 C-19.35906617 7.49393193 -25.29353923 8.71991085 -31.21484375 14.59375 Z M102.78515625 9.59375 C97.31066015 18.59529299 93.25590892 30.50570672 95.59765625 41.09375 C96.18546875 42.82625 96.18546875 42.82625 96.78515625 44.59375 C98.9378955 40.86748385 99.84763574 36.86332168 100.84765625 32.71875 C101.02103516 32.02394531 101.19441406 31.32914063 101.37304688 30.61328125 C102.75402867 24.99411394 103.93580228 19.53638786 103.84765625 13.71875 C103.83863281 12.93757812 103.82960938 12.15640625 103.8203125 11.3515625 C103.80871094 10.77148438 103.79710937 10.19140625 103.78515625 9.59375 C103.45515625 9.59375 103.12515625 9.59375 102.78515625 9.59375 Z M237.78515625 13.59375 C237.78515625 16.59375 237.78515625 16.59375 237.78515625 16.59375 Z M-50.21484375 70.59375 C-52.62306546 79.73925865 -54.82232469 88.1461757 -52.08984375 97.40625 C-49.33938171 102.08203546 -46.55039473 104.7306116 -41.33984375 106.65625 C-34.39782261 106.51740958 -29.08205073 102.12643816 -24.11328125 97.609375 C-20.97076516 94.27287643 -18.56268246 90.51570785 -16.21484375 86.59375 C-17.25382813 86.37460937 -18.2928125 86.15546875 -19.36328125 85.9296875 C-31.23833973 83.28666728 -39.70907827 79.52480375 -48.21484375 70.59375 C-48.87484375 70.59375 -49.53484375 70.59375 -50.21484375 70.59375 Z " fill="#FDEFD5" transform="translate(565.21484375,789.40625)"/>
<path d="M0 0 C2.86976586 1.46452927 3.15858148 3.40555222 4.140625 6.40234375 C4.64335938 7.88541016 4.64335938 7.88541016 5.15625 9.3984375 C5.890625 11.96484375 5.890625 11.96484375 5.890625 13.96484375 C4.71886719 14.25617188 3.54710937 14.5475 2.33984375 14.84765625 C-14.86348556 19.13030075 -14.86348556 19.13030075 -27.890625 30.546875 C-29.73273096 34.201566 -30.89239434 38.06454619 -32.109375 41.96484375 C-31.44518555 42.01495605 -30.78099609 42.06506836 -30.09667969 42.11669922 C8.19808089 45.0455909 8.19808089 45.0455909 17.34765625 55.01171875 C26.66157793 66.80149302 22.96378669 84.05261405 21.40136719 98.04614258 C21.14132465 100.39602133 20.90195144 102.7473968 20.6640625 105.09960938 C18.43412571 126.17281402 13.82086961 146.37346079 -0.109375 162.96484375 C-0.67785156 163.68027344 -1.24632812 164.39570313 -1.83203125 165.1328125 C-9.43896112 173.77629106 -22.61308867 180.22685105 -34.109375 180.96484375 C-52.28884192 181.93125473 -69.51554583 179.14703662 -84.1328125 167.5703125 C-97.50227687 154.82315052 -103.67322178 136.77970581 -104.4453125 118.5390625 C-104.47548758 116.57701174 -104.48753793 114.61462398 -104.484375 112.65234375 C-104.48276367 111.57146484 -104.48115234 110.49058594 -104.47949219 109.37695312 C-104.33085793 98.85597892 -103.41075997 88.42842959 -102.359375 77.96484375 C-102.28096375 77.14374115 -102.20255249 76.32263855 -102.12176514 75.47665405 C-99.88237343 52.47986807 -99.88237343 52.47986807 -91.0390625 44.43359375 C-80.5755829 36.46948782 -69.39964443 37.56647246 -56.984375 38.96484375 C-51.32421251 39.59659643 -45.80775604 40.08838589 -40.109375 39.96484375 C-39.90183594 39.27519531 -39.69429687 38.58554688 -39.48046875 37.875 C-37.13728172 30.72778934 -34.1152245 25.54988245 -29.109375 19.96484375 C-28.54734375 19.31 -27.9853125 18.65515625 -27.40625 17.98046875 C-21.77416278 11.85863482 -8.68897686 -0.14481628 0 0 Z " fill="#FDEFD5" transform="translate(585.109375,102.03515625)"/>
<path d="M0 0 C3.51144395 2.8276635 6.77925917 5.84766429 10 9 C10.57363281 9.55816406 11.14726563 10.11632812 11.73828125 10.69140625 C12.83954795 11.78026431 13.92301689 12.88711745 15 14 C15.42410156 13.49210937 15.84820313 12.98421875 16.28515625 12.4609375 C26.15854087 0.87327291 36.59714545 -5.96833514 52 -8 C69.57786447 -9.27349081 86.39277358 -7.67495929 100.1875 4.25 C116.0214922 19.28981078 122.04297153 39.18206379 123.19587708 60.64683533 C123.27747052 64.42338092 123.30344985 68.19523697 123.30078125 71.97265625 C123.30468253 73.3531456 123.30902006 74.73363378 123.31376648 76.11412048 C123.32114517 78.9754531 123.3209948 81.83666205 123.31567383 84.69799805 C123.30982571 88.35624986 123.32697733 92.0140041 123.3500185 95.6721735 C123.36475426 98.50924102 123.36562889 101.34618766 123.36250877 104.18328667 C123.36326685 106.18463751 123.37710171 108.18596972 123.39118958 110.18727112 C123.38496078 111.40301315 123.37873199 112.61875519 123.37231445 113.87133789 C123.37294388 114.9371962 123.3735733 116.0030545 123.3742218 117.10121155 C122.84807115 121.17686785 121.1365096 123.77606658 118.375 126.75 C113.35064689 129.39439638 108.5640539 129.4615241 103.1875 127.875 C99.68374653 125.81396855 98.14708739 124.43972018 96 121 C95.43723834 118.05962207 95.47646663 115.17962346 95.51757812 112.19335938 C95.51366562 111.31618256 95.50975311 110.43900574 95.50572205 109.5352478 C95.49975327 107.63373024 95.50290585 105.73216694 95.5141449 103.83067322 C95.53144131 100.81034293 95.52387736 97.79096722 95.5098877 94.77062988 C95.48026518 87.26333568 95.49336788 79.75622396 95.50506592 72.24890137 C95.51331208 65.91226113 95.50514207 59.57603771 95.47593689 53.23945618 C95.4689033 50.28318479 95.48545033 47.32767152 95.50305176 44.37145996 C95.50111414 29.81878252 94.24721645 17.34533015 83.52734375 6.51171875 C76.84673506 0.47244849 68.92149602 -1.32805779 60.12890625 -1.14453125 C52.10602679 -0.5998587 45.25176371 1.83325313 39 7 C28.93272763 18.86162673 28.56499182 32.05748362 28.58930969 46.86303329 C28.59382797 49.85634053 28.57967865 52.84906916 28.56091309 55.84231567 C28.51812614 63.26608457 28.50686183 70.68983785 28.49468994 78.1137085 C28.48316134 84.41105752 28.4596255 90.70813811 28.41999817 97.00537491 C28.40644055 99.95079107 28.41059411 102.89584304 28.41540527 105.84127808 C28.4060668 107.64532945 28.39589853 109.44937678 28.38476562 111.25341797 C28.39091385 112.0690773 28.39706207 112.88473663 28.40339661 113.72511292 C28.34187029 119.40067918 27.22779179 122.6896974 23.3125 126.75 C18.63439286 129.27870656 14.32353379 129.24264786 9.25 128.3125 C5.89572263 126.95788799 4.2223122 125.82062703 2 123 C0.71744443 119.1523333 0.85556812 115.52174617 0.8581543 111.51220703 C0.85467987 110.64507584 0.85120544 109.77794464 0.84762573 108.88453674 C0.84026932 106.99880744 0.83492332 105.11306949 0.83133507 103.22732925 C0.82415835 100.23260793 0.80847905 97.2380494 0.78999329 94.24337769 C0.73760656 85.7273798 0.6896337 77.21146776 0.67407227 68.6953125 C0.66392805 63.48507 0.63443407 58.2752328 0.59275246 53.06515121 C0.58052093 51.08867347 0.57530669 49.11213825 0.57755089 47.13562393 C0.58968596 32.94884145 0.372574 18.0166953 -10 7 C-17.95482124 0.71203227 -26.93641204 -1.90959353 -37 -1 C-46.49159438 0.1864493 -53.35538897 4.34745342 -59.4609375 11.6796875 C-64.7065391 19.58803102 -66.14924359 28.53555307 -66.12597656 37.80419922 C-66.1278447 38.69247406 -66.12971283 39.5807489 -66.13163757 40.49594116 C-66.13563786 42.42314235 -66.13771607 44.35034826 -66.13809967 46.27755356 C-66.14151874 50.37601531 -66.16288372 54.47431891 -66.18333054 58.5727253 C-66.22134108 66.20198812 -66.2526133 73.83108085 -66.25048828 81.46044922 C-66.24970131 86.76912559 -66.27305678 92.07722125 -66.3123703 97.385746 C-66.32283228 99.40708938 -66.32435289 101.42849977 -66.31671906 103.4498558 C-66.30709751 106.27954725 -66.32827812 109.10747914 -66.35644531 111.93701172 C-66.34624863 112.76942383 -66.33605194 113.60183594 -66.32554626 114.45947266 C-66.39891451 118.5755142 -66.7503933 121.20834258 -69.36834717 124.47659302 C-72.83869501 127.80419758 -75.35749663 128.92395674 -80.171875 129.0625 C-86.01355364 128.74885282 -88.97702867 127.2241199 -93 123 C-94.05976778 119.82069666 -94.13313136 117.54649518 -94.14526367 114.20605469 C-94.15164352 113.01341003 -94.15802338 111.82076538 -94.16459656 110.59197998 C-94.16570938 109.29834534 -94.1668222 108.00471069 -94.16796875 106.671875 C-94.17118618 105.32204148 -94.17455061 103.9722083 -94.17805481 102.62237549 C-94.18404876 99.78437496 -94.18589491 96.94640485 -94.18530273 94.10839844 C-94.18520216 90.5148233 -94.19874266 86.92145047 -94.21607494 83.32792282 C-94.2273445 80.53248244 -94.22921728 77.73708825 -94.22869301 74.9416275 C-94.2304122 72.98619614 -94.24117389 71.03077921 -94.25224304 69.07537842 C-94.22286727 57.32680158 -93.2425693 45.52726286 -89.75 34.25 C-89.53311523 33.54029053 -89.31623047 32.83058105 -89.09277344 32.09936523 C-84.19585229 16.76252863 -74.40198202 4.68256632 -60.3125 -3.1875 C-42.21231407 -11.50662392 -16.87787173 -10.92889302 0 0 Z " fill="#FDEFD5" transform="translate(713,153)"/>
<path d="M0 0 C14.46171363 11.09709804 26.7921977 27.19479949 30.59765625 45.3515625 C33.00816397 67.20995287 30.39440704 87.07009432 16.796875 104.88671875 C14.62109911 107.37060276 12.36486989 109.69650216 10 112 C9.33742188 112.69480469 8.67484375 113.38960938 7.9921875 114.10546875 C-2.9867479 124.89655165 -17.66724574 130.41372115 -32.875 130.3125 C-33.75905518 130.30686035 -34.64311035 130.3012207 -35.55395508 130.29541016 C-48.98027497 130.04509944 -58.07180654 125.29723834 -67.4921875 115.80859375 C-69.26960299 113.6766161 -70.59321257 111.38870454 -72 109 C-72.00586624 109.60277267 -72.01173248 110.20554535 -72.01777649 110.82658386 C-72.0817501 117.10483091 -72.16618022 123.38256725 -72.26245117 129.66040039 C-72.29568906 132.00277978 -72.3237245 134.34523904 -72.34643555 136.68774414 C-72.38000168 140.05649833 -72.43232019 143.42452131 -72.48828125 146.79296875 C-72.49786613 148.36198189 -72.49786613 148.36198189 -72.50764465 149.96269226 C-72.63461312 156.25294454 -73.19057404 160.08652123 -77.6875 164.75 C-82.36560714 167.27870656 -86.67646621 167.24264786 -91.75 166.3125 C-95.10427737 164.95788799 -96.7776878 163.82062703 -99 161 C-99.90382371 158.28852886 -100.12891321 156.71128745 -100.14044189 153.92601013 C-100.14615204 153.09806946 -100.15186218 152.27012878 -100.15774536 151.417099 C-100.15886322 150.51173904 -100.15998108 149.60637909 -100.16113281 148.67358398 C-100.16609772 147.71694855 -100.17106262 146.76031311 -100.17617798 145.77468872 C-100.19081948 142.5984831 -100.19760968 139.42232764 -100.203125 136.24609375 C-100.20888073 134.02905782 -100.21463841 131.81202189 -100.22039795 129.59498596 C-100.23091761 124.93352019 -100.23675202 120.27207168 -100.24023438 115.6105957 C-100.24568034 109.683369 -100.26961987 103.75637655 -100.29820633 97.82922268 C-100.31699511 93.23992796 -100.32204716 88.6506874 -100.32357025 84.0613575 C-100.32656766 81.87963664 -100.33449561 79.69791606 -100.34775543 77.51623344 C-100.49756023 50.94173983 -97.33084892 27.4879368 -78.37109375 7.28125 C-57.04838405 -13.23351518 -24.56521864 -16.26816048 0 0 Z M-62 7 C-62.55558594 7.58523437 -63.11117187 8.17046875 -63.68359375 8.7734375 C-73.57698808 20.46787369 -73.13974548 36.9695579 -73.203125 51.46875 C-73.20882507 52.51091675 -73.21452515 53.5530835 -73.22039795 54.62683105 C-73.22976531 56.81159474 -73.23634859 58.99637203 -73.24023438 61.18115234 C-73.2499768 64.49211408 -73.28109458 67.80246349 -73.3125 71.11328125 C-73.39642056 87.78897917 -72.53009085 102.39299083 -60.79296875 115.3671875 C-52.08287695 123.29925367 -42.79508473 125.52531443 -31.31640625 125.3125 C-23.99320144 124.62244537 -16.937131 122.08777643 -11.55859375 116.94140625 C-1.35061185 104.22620072 0.14725423 86.98654354 0.16796875 71.27734375 C0.17129715 70.37359512 0.17462555 69.4698465 0.17805481 68.53871155 C0.18308747 66.6352692 0.18546428 64.73181814 0.18530273 62.82836914 C0.18747575 59.9694092 0.20563389 57.11084438 0.22460938 54.25195312 C0.53156741 26.52040059 0.53156741 26.52040059 -12.62109375 3.1015625 C-20.92681655 -4.23584122 -30.44449754 -4.66411637 -41.00830078 -4.17480469 C-49.67479339 -3.41417602 -56.18234188 0.78597396 -62 7 Z " fill="#FDEFD5" transform="translate(386,155)"/>
<path d="M0 0 C2.15915969 1.6082017 2.71993313 2.74755512 3.69921875 5.265625 C3.95928097 8.33353996 3.95928097 8.33353996 3.97337341 12.00827026 C3.98122843 13.02385126 3.98122843 13.02385126 3.98924214 14.05994904 C4.00423852 16.32762353 4.00494719 18.5950723 4.00561523 20.86279297 C4.01323693 22.48909893 4.02166445 24.11540128 4.03083801 25.74169922 C4.05278792 30.15908666 4.06158248 34.57640488 4.06666446 38.99384069 C4.07030721 41.75380748 4.07654683 44.51375611 4.08366585 47.27371597 C4.10816131 56.90270027 4.12121261 66.53163067 4.12475586 76.16064453 C4.128392 85.13574563 4.1582927 94.11050494 4.20016044 103.08550155 C4.23484928 110.79178124 4.25030405 118.49794757 4.25100189 126.20430481 C4.25179514 130.80667367 4.26055567 135.40869433 4.28899956 140.01098251 C4.31515649 144.34002415 4.31739897 148.6684283 4.30134392 152.99751282 C4.29952756 154.5849916 4.30623712 156.17250683 4.32216263 157.75990677 C4.34260761 159.93036261 4.33208479 162.09858453 4.31394958 164.26901245 C4.31596091 165.4824275 4.31797224 166.69584255 4.32004452 167.94602776 C3.48663687 172.40231463 1.8615585 174.05710583 -1.30078125 177.265625 C-5.84135688 179.66019865 -10.33053572 179.56894657 -15.17578125 178.140625 C-18.74392436 176.90008779 -20.35947144 175.51405363 -22.30078125 172.265625 C-22.69112873 169.2105341 -22.69112873 169.2105341 -22.71296692 165.55421448 C-22.72102488 164.88053847 -22.72908284 164.20686246 -22.73738497 163.51277202 C-22.76071081 161.25651785 -22.76277265 159.00075112 -22.76489258 156.74438477 C-22.77718366 155.12630229 -22.79075496 153.50822911 -22.80551147 151.89016724 C-22.8416791 147.49558557 -22.85914965 143.1011091 -22.87275529 138.70640683 C-22.88957536 134.10824466 -22.92165027 129.51018611 -22.95158386 124.91209412 C-22.99947877 117.18906255 -23.03547092 109.46604512 -23.06420898 101.74291992 C-23.09755642 92.81439861 -23.14858594 83.88611416 -23.20936567 74.95774037 C-23.26750666 66.36996349 -23.31413592 57.78216277 -23.3551693 49.19428825 C-23.37277491 45.53927518 -23.39423061 41.8843146 -23.41874123 38.22934151 C-23.44701662 33.92430599 -23.46515424 29.61934289 -23.47547531 25.31422806 C-23.4808561 23.73439022 -23.48967664 22.15455978 -23.50219154 20.57476234 C-23.51869474 18.41775787 -23.52268959 16.2610785 -23.52351379 14.10401917 C-23.52883527 12.89705667 -23.53415674 11.69009417 -23.53963947 10.44655704 C-23.1907838 5.80076268 -22.29725223 3.18544437 -18.86328125 0.015625 C-12.46710744 -4.3524937 -6.5556334 -3.24561811 0 0 Z " fill="#FDEFD5" transform="translate(457.30078125,102.734375)"/>
<path d="M0 0 C2.3125 2.375 2.3125 2.375 4 5 C4.99 6.485 4.99 6.485 6 8 C6.515625 7.67 7.03125 7.34 7.5625 7 C10.9260416 5.6200855 13.39238959 5.62025154 17 6 C19.75329021 7.79562405 21.52627461 9.05254922 23 12 C23.23828125 13.98828125 23.23828125 13.98828125 23.3125 16.3125 C23.36857422 17.45138672 23.36857422 17.45138672 23.42578125 18.61328125 C22.39607624 24.38529738 17.34680236 27.43363194 12.84960938 30.60742188 C12.09486328 31.12884766 11.34011719 31.65027344 10.5625 32.1875 C9.81162109 32.72052734 9.06074219 33.25355469 8.28710938 33.80273438 C-0.65596897 40.05581026 -0.65596897 40.05581026 -5.625 39.9375 C-8.9454803 38.62678409 -9.41973201 37.20201282 -11 34 C-11.91507305 30.97246334 -12.56744316 27.9124813 -13.1875 24.8125 C-13.35822021 23.96478027 -13.52894043 23.11706055 -13.70483398 22.24365234 C-16.13402844 9.64182826 -16.13402844 9.64182826 -15 5 C-10.65551265 -0.75351027 -6.90722714 -1.69651193 0 0 Z " fill="#FDEFD5" transform="translate(887,784)"/>
<path d="M0 0 C7.13278715 5.00812714 12.12352374 10.87665878 13.74609375 19.57421875 C14.69911264 28.67921462 12.05132377 35.14048437 7.3125 42.6875 C1.71463531 48.28536469 -5.22435264 51.13210151 -13.0625 51.375 C-20.80551923 51.28887075 -26.30334352 49.34026805 -32.06640625 44.1328125 C-38.96275592 36.73255419 -40.66181453 30.53872014 -40.40625 20.5078125 C-39.46311282 12.36418569 -35.519876 6.45917434 -29.16796875 1.40625 C-20.25150626 -4.37740135 -9.46107128 -4.76408554 0 0 Z M-31.7734375 11.12109375 C-35.81206156 17.30764844 -35.84108464 23.8291031 -35 31 C-32.64666329 37.33279878 -27.86374666 41.61777712 -22.20703125 45.10546875 C-16.89887255 47.25691715 -9.92878961 47.05985278 -4.58203125 45.125 C1.11433952 41.77548992 5.62425879 37.00161718 8.375 31 C9.7550952 24.37554303 9.18874252 18.92677938 6 13 C2.23803705 7.57577435 -1.46648943 3.74226949 -8 2 C-18.31534072 0.778243 -25.14742872 3.14397145 -31.7734375 11.12109375 Z " fill="#FDEFD5" transform="translate(875,103)"/>
<path d="M0 0 C7.1445685 4.42963247 13.16402169 9.53782079 15.703125 17.82421875 C17.34408422 26.04420891 16.30302685 33.67244441 12.125 40.9375 C7.79377699 46.93457802 2.27192156 50.20429506 -4.875 51.9375 C-13.23631922 53.1083056 -19.99057414 51.92755364 -26.875 46.9375 C-32.69767725 41.62284157 -36.40756692 36.83037096 -37.17578125 28.7890625 C-37.20631208 20.38290727 -36.53017339 14.80646694 -31.6875 7.75 C-23.38566601 -0.55183399 -11.48819405 -4.35482705 0 0 Z M-29.0625 12.5625 C-32.04485718 18.11585475 -33.59556686 23.91619734 -32.25 30.1875 C-29.59418326 37.43063655 -25.58587148 42.01880789 -19.078125 46.05078125 C-13.75319502 48.19397115 -6.7661975 48.01018952 -1.421875 46.02734375 C4.58969258 42.45940956 8.8788057 37.60712081 11.125 30.9375 C12.03356747 23.86969027 11.47793181 17.71702291 7.125 11.9375 C2.00078425 6.31308965 -2.62392327 3.62843115 -10.25 2.625 C-18.12449138 3.56243945 -23.96790118 6.44898141 -29.0625 12.5625 Z " fill="#FDEFD5" transform="translate(1043.875,464.0625)"/>
<path d="M0 0 C2.866875 -0.061875 5.73375 -0.12375 8.6875 -0.1875 C10.02880981 -0.22846802 10.02880981 -0.22846802 11.3972168 -0.27026367 C16.08604008 -0.31916583 19.21011422 -0.08722451 23 3 C24.50934217 6.01868434 24.17510672 8.67297229 24 12 C23.01 13.485 23.01 13.485 22 15 C21.34 15 20.68 15 20 15 C20.99 16.485 20.99 16.485 22 18 C24.41068853 22.1507982 24.33170529 25.27319955 24 30 C22.02 30 20.04 30 18 30 C17.505 25.05 17.505 25.05 17 20 C13.7 19.67 10.4 19.34 7 19 C7 22.63 7 26.26 7 30 C4.69 30 2.38 30 0 30 C0 20.1 0 10.2 0 0 Z M7 4 C7 7.3 7 10.6 7 14 C11.96551325 14.35606813 11.96551325 14.35606813 16.4375 12.5 C16.953125 12.005 17.46875 11.51 18 11 C17.89386164 8.54775306 17.89386164 8.54775306 17 6 C13.38489427 3.89118832 11.33752497 4 7 4 Z " fill="#FDEFD5" transform="translate(850,112)"/>
<path d="M0 0 C17.39285714 0 17.39285714 0 22 3 C24.28919275 5.67072488 23.99976121 7.0034027 23.75 10.5625 C23 14 23 14 21 17 C21.66 17.99 22.32 18.98 23 20 C23.4140625 22.48046875 23.4140625 22.48046875 23.625 25.1875 C23.69976563 26.08855469 23.77453125 26.98960937 23.8515625 27.91796875 C23.92503906 28.94857422 23.92503906 28.94857422 24 30 C22.02 30 20.04 30 18 30 C17.86722656 29.36191406 17.73445313 28.72382813 17.59765625 28.06640625 C17.42105469 27.24011719 17.24445313 26.41382813 17.0625 25.5625 C16.88847656 24.73878906 16.71445313 23.91507812 16.53515625 23.06640625 C16.19247006 21.02338796 16.19247006 21.02338796 15 20 C12.01110641 19.54234333 9.01030352 19.29679049 6 19 C6 22.63 6 26.26 6 30 C4.02 30 2.04 30 0 30 C0 20.1 0 10.2 0 0 Z M6 5 C6 7.97 6 10.94 6 14 C7.423125 14.061875 8.84625 14.12375 10.3125 14.1875 C11.11300781 14.22230469 11.91351562 14.25710938 12.73828125 14.29296875 C15.06772528 14.17920516 15.06772528 14.17920516 16.8046875 12.65234375 C18.28129719 10.98365419 18.28129719 10.98365419 17.8125 8.375 C17.25355766 5.83447997 17.25355766 5.83447997 15 5 C11.99525503 4.86440682 9.00931153 4.95700984 6 5 Z " fill="#FDEFD5" transform="translate(1022,474)"/>
<path d="M0 0 C2 3 2 3 1.875 6.5 C1 10 1 10 -0.8125 11.875 C-5.72346853 14.40064096 -10.82046184 14.93915184 -16.1953125 13.3515625 C-18.40948788 12.42303734 -20.15004624 11.53269116 -22 10 C-23.25 6.5 -23.25 6.5 -23 3 C-17.31043688 -5.09668598 -7.84073249 -4.15097602 0 0 Z " fill="#FDEFD5" transform="translate(755,765)"/>
</svg>
