<svg version="1.1" id="Layer_1" xmlns="http://www.w3.org/2000/svg" xmlns:xlink="http://www.w3.org/1999/xlink" x="0px" y="0px"
	 width="100%" viewBox="0 0 1067 1067" enable-background="new 0 0 1067 1067" xml:space="preserve">
<path fill="#FFFFFF" opacity="1.000000" stroke="none" 
	d="
M543.000000,1068.000000 
	C362.021088,1068.000000 181.542175,1068.000000 1.031630,1068.000000 
	C1.031630,712.395996 1.031630,356.791931 1.031630,1.093957 
	C356.562439,1.093957 712.124878,1.093957 1067.843750,1.093957 
	C1067.843750,356.666626 1067.843750,712.333313 1067.843750,1068.000000 
	C893.124817,1068.000000 718.312439,1068.000000 543.000000,1068.000000 
M815.835938,410.256744 
	C813.588074,408.806305 811.340149,407.355865 808.855408,405.228760 
	C794.920227,396.690460 779.892456,391.954010 763.442139,391.973785 
	C730.779541,392.013062 698.116821,391.985443 665.454163,391.985443 
	C663.692993,391.985443 661.931824,391.985443 659.987854,391.985443 
	C659.987854,393.570068 659.987915,394.551453 659.987915,395.532837 
	C659.986389,487.688171 659.983948,579.843506 659.991821,671.998840 
	C659.991943,673.325439 660.121338,674.652100 660.456177,676.798035 
	C680.264587,676.837830 700.072998,676.932861 719.881348,676.901184 
	C738.022583,676.872192 756.181274,677.169495 774.299927,676.476501 
	C794.197144,675.715454 812.807007,670.065002 827.913147,656.583801 
	C853.604553,633.655945 861.296875,604.414978 854.181274,571.534729 
	C849.839355,551.471619 838.552185,535.550659 819.308350,526.267517 
	C819.418884,526.127136 819.643433,525.626404 820.030029,525.381958 
	C833.004944,517.177917 841.512512,505.179688 843.338745,490.407654 
	C845.018921,476.816895 844.303528,462.683136 842.711914,449.013550 
	C841.459717,438.258667 835.174744,429.012726 827.224548,420.753113 
	C826.780396,420.343109 826.336182,419.933136 825.496765,418.968933 
	C823.717651,417.294891 821.938538,415.620850 819.884399,413.334320 
	C818.623657,412.521179 817.362854,411.708069 815.835938,410.256744 
M127.317970,537.168640 
	C127.951111,543.458435 128.206329,549.813354 129.276215,556.027954 
	C139.272980,614.095947 181.951736,658.318787 239.759491,670.535706 
	C245.666534,671.784058 251.725342,672.314392 257.900085,673.204834 
	C258.042419,671.389160 258.161713,670.574707 258.162109,669.760254 
	C258.178833,635.927673 258.136200,602.094849 258.267731,568.262756 
	C258.280853,564.885132 256.650604,563.893677 253.975616,562.672363 
	C240.229477,556.396667 232.295563,540.720642 235.567520,526.850464 
	C239.352036,510.807556 252.205154,500.629364 268.335052,500.902222 
	C283.571808,501.159973 296.376587,511.858398 299.520355,526.957703 
	C302.566711,541.589172 294.616211,556.773987 280.343811,562.700317 
	C276.870667,564.142456 276.094727,566.017151 276.104675,569.417480 
	C276.200836,602.249756 276.154724,635.082520 276.149323,667.915100 
	C276.149078,669.488708 276.149292,671.062317 276.149292,673.287598 
	C282.638428,672.383118 288.249115,671.802307 293.783295,670.799255 
	C370.781067,656.843933 422.096436,578.322205 404.186188,501.838074 
	C395.724548,465.703247 376.431549,436.618927 345.218506,416.569397 
	C296.738220,385.428375 246.177643,383.562683 196.501251,412.506927 
	C149.824982,439.703156 127.851738,482.404816 127.317970,537.168640 
M543.578979,391.992340 
	C531.224976,392.774567 519.265686,395.268280 507.763000,399.949005 
	C473.667786,413.823181 442.129822,452.205933 460.010803,499.936768 
	C466.662140,517.691589 476.957397,532.221619 494.852264,540.286499 
	C509.964630,547.097412 524.941162,554.213013 540.107239,560.900208 
	C549.532715,565.056213 559.275024,568.556702 566.894592,575.867004 
	C580.605896,589.021912 578.030945,607.391052 561.384583,614.580627 
	C553.591919,617.946289 545.406860,618.951538 536.967224,617.468323 
	C523.941772,615.179260 512.468567,609.270447 501.592560,602.112061 
	C494.568939,597.489258 487.813995,592.458252 480.740448,587.470398 
	C469.004242,602.819763 457.410431,617.982910 445.628387,633.392212 
	C460.662476,646.804626 476.904419,657.954102 495.218170,665.792603 
	C524.262756,678.224060 553.770691,681.465454 583.825928,669.143616 
	C615.934692,655.979919 637.416260,625.538391 636.981079,592.786682 
	C636.615723,565.286377 623.289917,544.457642 602.074768,528.031982 
	C585.757263,515.398376 566.605286,508.777924 547.491028,501.958344 
	C540.359680,499.414062 533.091248,496.581116 526.824158,492.454071 
	C518.568787,487.017670 513.898315,478.770203 516.123962,468.448730 
	C518.228699,458.687744 525.617249,453.763275 534.763611,451.923279 
	C556.306702,447.589417 576.005859,451.891296 593.350403,465.748260 
	C597.465515,469.035980 601.563477,472.345093 606.081482,475.975494 
	C614.964844,458.198120 623.665100,440.787170 632.367615,423.371704 
	C630.495300,421.702332 629.064270,420.313660 627.519409,419.065796 
	C603.306885,399.508423 575.467102,391.036713 543.578979,391.992340 
M900.500244,676.937256 
	C914.262329,676.937256 928.024475,676.937256 941.783997,676.937256 
	C941.783997,581.629028 941.783997,486.910767 941.783997,392.208496 
	C921.259644,392.208496 901.019592,392.208496 880.693848,392.208496 
	C880.693848,487.202820 880.693848,581.924988 880.693848,676.937439 
	C887.198792,676.937439 893.349670,676.937439 900.500244,676.937256 
z"/>
<path fill="#23B4E8" opacity="1.000000" stroke="none" 
	d="
M127.309021,536.708984 
	C127.851738,482.404816 149.824982,439.703156 196.501251,412.506927 
	C246.177643,383.562683 296.738220,385.428375 345.218506,416.569397 
	C376.431549,436.618927 395.724548,465.703247 404.186188,501.838074 
	C422.096436,578.322205 370.781067,656.843933 293.783295,670.799255 
	C288.249115,671.802307 282.638428,672.383118 276.149292,673.287598 
	C276.149292,671.062317 276.149078,669.488708 276.149323,667.915100 
	C276.154724,635.082520 276.200836,602.249756 276.104675,569.417480 
	C276.094727,566.017151 276.870667,564.142456 280.343811,562.700317 
	C294.616211,556.773987 302.566711,541.589172 299.520355,526.957703 
	C296.376587,511.858398 283.571808,501.159973 268.335052,500.902222 
	C252.205154,500.629364 239.352036,510.807556 235.567520,526.850464 
	C232.295563,540.720642 240.229477,556.396667 253.975616,562.672363 
	C256.650604,563.893677 258.280853,564.885132 258.267731,568.262756 
	C258.136200,602.094849 258.178833,635.927673 258.162109,669.760254 
	C258.161713,670.574707 258.042419,671.389160 257.900085,673.204834 
	C251.725342,672.314392 245.666534,671.784058 239.759491,670.535706 
	C181.951736,658.318787 139.272980,614.095947 129.276215,556.027954 
	C128.206329,549.813354 127.951111,543.458435 127.309021,536.708984 
z"/>
<path fill="#151625" opacity="1.000000" stroke="none" 
	d="
M544.068604,391.982788 
	C575.467102,391.036713 603.306885,399.508423 627.519409,419.065796 
	C629.064270,420.313660 630.495300,421.702332 632.367615,423.371704 
	C623.665100,440.787170 614.964844,458.198120 606.081482,475.975494 
	C601.563477,472.345093 597.465515,469.035980 593.350403,465.748260 
	C576.005859,451.891296 556.306702,447.589417 534.763611,451.923279 
	C525.617249,453.763275 518.228699,458.687744 516.123962,468.448730 
	C513.898315,478.770203 518.568787,487.017670 526.824158,492.454071 
	C533.091248,496.581116 540.359680,499.414062 547.491028,501.958344 
	C566.605286,508.777924 585.757263,515.398376 602.074768,528.031982 
	C623.289917,544.457642 636.615723,565.286377 636.981079,592.786682 
	C637.416260,625.538391 615.934692,655.979919 583.825928,669.143616 
	C553.770691,681.465454 524.262756,678.224060 495.218170,665.792603 
	C476.904419,657.954102 460.662476,646.804626 445.628387,633.392212 
	C457.410431,617.982910 469.004242,602.819763 480.740448,587.470398 
	C487.813995,592.458252 494.568939,597.489258 501.592560,602.112061 
	C512.468567,609.270447 523.941772,615.179260 536.967224,617.468323 
	C545.406860,618.951538 553.591919,617.946289 561.384583,614.580627 
	C578.030945,607.391052 580.605896,589.021912 566.894592,575.867004 
	C559.275024,568.556702 549.532715,565.056213 540.107239,560.900208 
	C524.941162,554.213013 509.964630,547.097412 494.852264,540.286499 
	C476.957397,532.221619 466.662140,517.691589 460.010803,499.936768 
	C442.129822,452.205933 473.667786,413.823181 507.763000,399.949005 
	C519.265686,395.268280 531.224976,392.774567 544.068604,391.982788 
M616.489380,413.962097 
	C597.405640,401.050262 576.105164,394.731659 553.302856,394.169159 
	C531.862671,393.640289 511.780121,398.472565 493.460022,410.662872 
	C476.210785,422.140656 464.321411,437.178406 459.076782,457.058807 
	C452.775360,480.944885 460.975861,501.850464 474.288086,521.145874 
	C482.021790,532.355469 494.226501,537.797546 506.169800,543.182739 
	C521.283691,549.997498 536.688599,556.180481 551.676697,563.253296 
	C557.746094,566.117432 563.806213,569.836670 568.560852,574.501648 
	C585.608032,591.227539 578.022400,612.710510 557.929810,618.261353 
	C543.574951,622.227112 530.079712,619.813416 517.435608,613.400208 
	C506.846863,608.029602 496.996735,601.142395 487.084473,594.529602 
	C483.421143,592.085632 480.835663,591.310608 478.019104,595.321533 
	C475.832703,598.435120 473.325714,601.322083 470.997131,604.337524 
	C464.609192,612.609680 458.335754,620.972900 451.812164,629.136414 
	C449.508575,632.019043 449.745819,634.070496 452.578583,636.174622 
	C458.831573,640.819092 464.630219,646.270813 471.381927,650.005188 
	C483.219879,656.552673 495.332489,662.813782 507.877777,667.823181 
	C526.942993,675.436096 546.895569,676.865601 566.983398,672.177856 
	C584.132935,668.175842 598.976196,660.202759 611.559326,647.370850 
	C626.097229,632.545532 634.088989,615.196838 634.802185,594.729553 
	C635.290405,580.716309 631.013489,567.852417 623.739502,555.616699 
	C616.403564,543.276855 606.529541,533.904663 594.971985,525.898987 
	C582.593323,517.324646 568.661926,512.130310 554.679260,506.930603 
	C545.065552,503.355591 535.355347,499.744690 526.351562,494.913544 
	C518.389221,490.641205 513.954102,482.875610 513.152649,473.762207 
	C512.349670,464.630463 520.092285,454.230286 529.589905,451.012421 
	C544.539307,445.947418 559.351990,448.079559 574.121094,452.081787 
	C584.767029,454.966736 592.704773,462.237244 600.933533,468.865570 
	C605.021179,472.158234 606.308594,470.713501 608.133545,466.950836 
	C613.844055,455.176910 619.772766,443.508575 625.639526,431.810669 
	C629.612122,423.889740 629.623657,423.905762 622.146118,418.392181 
	C620.411926,417.113495 618.729126,415.765015 616.489380,413.962097 
z"/>
<path fill="#1E1F2E" opacity="1.000000" stroke="none" 
	d="
M900.000366,676.937378 
	C893.349670,676.937439 887.198792,676.937439 880.693848,676.937439 
	C880.693848,581.924988 880.693848,487.202820 880.693848,392.208496 
	C901.019592,392.208496 921.259644,392.208496 941.783997,392.208496 
	C941.783997,486.910767 941.783997,581.629028 941.783997,676.937256 
	C928.024475,676.937256 914.262329,676.937256 900.000366,676.937378 
M939.946350,497.500000 
	C939.946289,480.342590 940.131409,463.182617 939.894043,446.028503 
	C939.656006,428.826569 941.080688,411.559174 938.683899,394.063019 
	C920.883240,394.063019 903.583496,394.042847 886.283997,394.078522 
	C882.405396,394.086517 882.974243,397.046295 882.973938,399.489532 
	C882.962952,489.441437 882.986938,579.393372 882.890320,669.345215 
	C882.885864,673.520203 884.375549,674.984863 888.386536,674.957214 
	C903.377869,674.853882 918.370422,674.949402 933.362122,674.879395 
	C939.628967,674.850098 939.944885,674.417847 939.945129,667.909424 
	C939.947021,611.439636 939.946228,554.969788 939.946350,497.500000 
z"/>
<path fill="#181A28" opacity="1.000000" stroke="none" 
	d="
M827.501038,421.118225 
	C835.174744,429.012726 841.459717,438.258667 842.711914,449.013550 
	C844.303528,462.683136 845.018921,476.816895 843.338745,490.407654 
	C841.512512,505.179688 833.004944,517.177917 820.030029,525.381958 
	C819.643433,525.626404 819.418884,526.127136 819.308350,526.267517 
	C838.552185,535.550659 849.839355,551.471619 854.181274,571.534729 
	C861.296875,604.414978 853.604553,633.655945 827.913147,656.583801 
	C812.807007,670.065002 794.197144,675.715454 774.299927,676.476501 
	C756.181274,677.169495 738.022583,676.872192 719.881348,676.901184 
	C700.072998,676.932861 680.264587,676.837830 660.617432,676.343567 
	C661.168701,675.288574 661.558655,674.688049 662.366333,674.135376 
	C664.751709,674.426392 666.724243,674.910828 668.686035,674.870728 
	C676.820007,674.704407 684.951721,674.133301 693.082275,674.168701 
	C706.321289,674.226257 719.559448,674.884155 732.796631,674.843872 
	C748.363342,674.796448 763.950134,674.672974 779.487793,673.833618 
	C792.197510,673.146973 804.219971,669.099854 815.252625,662.792786 
	C826.500732,656.362427 835.370361,647.384460 842.030640,636.122375 
	C854.309509,615.359497 857.707092,593.318237 851.166199,570.182007 
	C845.382202,549.722656 834.466675,533.291626 813.324829,527.245300 
	C817.689941,523.562012 822.373596,519.571167 827.099548,515.630920 
	C834.533386,509.432953 839.428284,501.212616 840.660522,492.051239 
	C842.222534,480.438690 842.129517,468.511810 841.687378,456.760498 
	C841.469482,450.970184 839.539368,444.968689 837.157166,439.608002 
	C834.431091,433.473328 830.342468,427.944122 827.028931,421.905701 
	C827.308411,421.479065 827.404724,421.298645 827.501038,421.118225 
z"/>
<path fill="#030417" opacity="1.000000" stroke="none" 
	d="
M661.948608,674.087524 
	C661.558655,674.688049 661.168701,675.288574 660.484558,675.933899 
	C660.121338,674.652100 659.991943,673.325439 659.991821,671.998840 
	C659.983948,579.843506 659.986389,487.688171 659.987915,395.532837 
	C659.987915,394.551453 659.987854,393.570068 659.987854,391.985443 
	C661.931824,391.985443 663.692993,391.985443 665.454163,391.985443 
	C698.116821,391.985443 730.779541,392.013062 763.442139,391.973785 
	C779.892456,391.954010 794.920227,396.690460 808.947388,405.594299 
	C809.039429,405.959808 808.986694,406.014252 808.612793,406.096558 
	C806.416382,405.394409 804.534851,404.723022 802.780823,403.807343 
	C790.191833,397.235138 776.995300,393.742859 762.611328,393.898834 
	C731.134888,394.240112 699.652161,394.003326 668.171997,394.002655 
	C666.255676,394.002594 664.339355,394.002655 661.948608,394.002655 
	C661.948608,487.920929 661.948608,581.004211 661.948608,674.087524 
z"/>
<path fill="#181A28" opacity="1.000000" stroke="none" 
	d="
M820.159424,413.946838 
	C821.938538,415.620850 823.717651,417.294891 825.428101,419.376404 
	C825.197876,419.897705 825.036255,420.011536 824.546875,420.036560 
	C822.102478,417.985657 819.985840,416.023621 818.250977,414.042786 
	C819.141663,413.998260 819.650513,413.972534 820.159424,413.946838 
z"/>
<path fill="#030417" opacity="1.000000" stroke="none" 
	d="
M809.065857,405.932617 
	C811.340149,407.355865 813.588074,408.806305 815.940674,410.605164 
	C816.045410,410.953552 815.988464,411.011963 815.625366,411.090668 
	C813.170410,409.450989 811.078552,407.732605 808.986694,406.014252 
	C808.986694,406.014252 809.039429,405.959808 809.065857,405.932617 
z"/>
<path fill="#030417" opacity="1.000000" stroke="none" 
	d="
M820.021912,413.640564 
	C819.650513,413.972534 819.141663,413.998260 817.982666,413.869629 
	C816.884583,412.814178 816.436523,411.913086 815.988464,411.011963 
	C815.988464,411.011963 816.045410,410.953552 816.073730,410.924255 
	C817.362854,411.708069 818.623657,412.521179 820.021912,413.640564 
z"/>
<path fill="#181A28" opacity="1.000000" stroke="none" 
	d="
M825.625732,419.653503 
	C826.336182,419.933136 826.780396,420.343109 827.362793,420.935669 
	C827.404724,421.298645 827.308411,421.479065 826.737305,421.816467 
	C825.799866,421.357391 825.337219,420.741394 824.874634,420.125366 
	C825.036255,420.011536 825.197876,419.897705 825.625732,419.653503 
z"/>
<path fill="#2F2C77" opacity="1.000000" stroke="none" 
	d="
M616.756042,414.205383 
	C618.729126,415.765015 620.411926,417.113495 622.146118,418.392181 
	C629.623657,423.905762 629.612122,423.889740 625.639526,431.810669 
	C619.772766,443.508575 613.844055,455.176910 608.133545,466.950836 
	C606.308594,470.713501 605.021179,472.158234 600.933533,468.865570 
	C592.704773,462.237244 584.767029,454.966736 574.121094,452.081787 
	C559.351990,448.079559 544.539307,445.947418 529.589905,451.012421 
	C520.092285,454.230286 512.349670,464.630463 513.152649,473.762207 
	C513.954102,482.875610 518.389221,490.641205 526.351562,494.913544 
	C535.355347,499.744690 545.065552,503.355591 554.679260,506.930603 
	C568.661926,512.130310 582.593323,517.324646 594.971985,525.898987 
	C606.529541,533.904663 616.403564,543.276855 623.739502,555.616699 
	C631.013489,567.852417 635.290405,580.716309 634.802185,594.729553 
	C634.088989,615.196838 626.097229,632.545532 611.559326,647.370850 
	C598.976196,660.202759 584.132935,668.175842 566.983398,672.177856 
	C546.895569,676.865601 526.942993,675.436096 507.877777,667.823181 
	C495.332489,662.813782 483.219879,656.552673 471.381927,650.005188 
	C464.630219,646.270813 458.831573,640.819092 452.578583,636.174622 
	C449.745819,634.070496 449.508575,632.019043 451.812164,629.136414 
	C458.335754,620.972900 464.609192,612.609680 470.997131,604.337524 
	C473.325714,601.322083 475.832703,598.435120 478.019104,595.321533 
	C480.835663,591.310608 483.421143,592.085632 487.084473,594.529602 
	C496.996735,601.142395 506.846863,608.029602 517.435608,613.400208 
	C530.079712,619.813416 543.574951,622.227112 557.929810,618.261353 
	C578.022400,612.710510 585.608032,591.227539 568.560852,574.501648 
	C563.806213,569.836670 557.746094,566.117432 551.676697,563.253296 
	C536.688599,556.180481 521.283691,549.997498 506.169800,543.182739 
	C494.226501,537.797546 482.021790,532.355469 474.288086,521.145874 
	C460.975861,501.850464 452.775360,480.944885 459.076782,457.058807 
	C464.321411,437.178406 476.210785,422.140656 493.460022,410.662872 
	C511.780121,398.472565 531.862671,393.640289 553.302856,394.169159 
	C576.105164,394.731659 597.405640,401.050262 616.756042,414.205383 
z"/>
<path fill="#2F2C76" opacity="1.000000" stroke="none" 
	d="
M939.946289,498.000000 
	C939.946228,554.969788 939.947021,611.439636 939.945129,667.909424 
	C939.944885,674.417847 939.628967,674.850098 933.362122,674.879395 
	C918.370422,674.949402 903.377869,674.853882 888.386536,674.957214 
	C884.375549,674.984863 882.885864,673.520203 882.890320,669.345215 
	C882.986938,579.393372 882.962952,489.441437 882.973938,399.489532 
	C882.974243,397.046295 882.405396,394.086517 886.283997,394.078522 
	C903.583496,394.042847 920.883240,394.063019 938.683899,394.063019 
	C941.080688,411.559174 939.656006,428.826569 939.894043,446.028503 
	C940.131409,463.182617 939.946289,480.342590 939.946289,498.000000 
z"/>
<path fill="#2F2C77" opacity="1.000000" stroke="none" 
	d="
M824.546875,420.036560 
	C825.337219,420.741394 825.799866,421.357391 826.554199,422.062622 
	C830.342468,427.944122 834.431091,433.473328 837.157166,439.608002 
	C839.539368,444.968689 841.469482,450.970184 841.687378,456.760498 
	C842.129517,468.511810 842.222534,480.438690 840.660522,492.051239 
	C839.428284,501.212616 834.533386,509.432953 827.099548,515.630920 
	C822.373596,519.571167 817.689941,523.562012 813.324829,527.245300 
	C834.466675,533.291626 845.382202,549.722656 851.166199,570.182007 
	C857.707092,593.318237 854.309509,615.359497 842.030640,636.122375 
	C835.370361,647.384460 826.500732,656.362427 815.252625,662.792786 
	C804.219971,669.099854 792.197510,673.146973 779.487793,673.833618 
	C763.950134,674.672974 748.363342,674.796448 732.796631,674.843872 
	C719.559448,674.884155 706.321289,674.226257 693.082275,674.168701 
	C684.951721,674.133301 676.820007,674.704407 668.686035,674.870728 
	C666.724243,674.910828 664.751709,674.426392 662.366333,674.135376 
	C661.948608,581.004211 661.948608,487.920929 661.948608,394.002655 
	C664.339355,394.002655 666.255676,394.002594 668.171997,394.002655 
	C699.652161,394.003326 731.134888,394.240112 762.611328,393.898834 
	C776.995300,393.742859 790.191833,397.235138 802.780823,403.807343 
	C804.534851,404.723022 806.416382,405.394409 808.612793,406.096558 
	C811.078552,407.732605 813.170410,409.450989 815.625366,411.090668 
	C816.436523,411.913086 816.884583,412.814178 817.600952,413.888428 
	C819.985840,416.023621 822.102478,417.985657 824.546875,420.036560 
M749.499878,624.969971 
	C753.996399,624.970215 758.501099,624.793579 762.988037,625.001221 
	C782.270996,625.893494 796.959412,612.323730 799.746948,594.213074 
	C802.464172,576.559448 789.954956,557.951782 772.325073,555.024109 
	C765.828186,553.945190 759.089417,554.186646 752.457520,554.107727 
	C748.479675,554.060303 746.878235,552.667236 746.949707,548.470520 
	C747.170898,535.484253 747.020447,522.491943 747.051086,509.502014 
	C747.054443,508.071716 747.295715,506.641998 747.494324,504.472046 
	C753.874878,504.472046 760.013916,505.351990 765.752319,504.213104 
	C771.003479,503.170898 777.053101,501.132111 780.592651,497.455017 
	C790.078979,487.600189 791.012085,475.218933 786.786255,462.633759 
	C783.560974,453.028687 771.650513,443.000427 760.316101,443.017944 
	C747.492737,443.037750 734.665222,443.192200 721.848083,442.903870 
	C717.366638,442.803070 715.903625,443.907867 715.917969,448.651947 
	C716.089844,505.607422 716.032288,562.563599 716.049988,619.519592 
	C716.050476,621.136414 716.220337,622.753235 716.344971,624.969971 
	C727.284668,624.969971 737.892334,624.969971 749.499878,624.969971 
z"/>
<path fill="#101123" opacity="1.000000" stroke="none" 
	d="
M748.999939,624.969971 
	C737.892334,624.969971 727.284668,624.969971 716.344971,624.969971 
	C716.220337,622.753235 716.050476,621.136414 716.049988,619.519592 
	C716.032288,562.563599 716.089844,505.607422 715.917969,448.651947 
	C715.903625,443.907867 717.366638,442.803070 721.848083,442.903870 
	C734.665222,443.192200 747.492737,443.037750 760.316101,443.017944 
	C771.650513,443.000427 783.560974,453.028687 786.786255,462.633759 
	C791.012085,475.218933 790.078979,487.600189 780.592651,497.455017 
	C777.053101,501.132111 771.003479,503.170898 765.752319,504.213104 
	C760.013916,505.351990 753.874878,504.472046 747.494324,504.472046 
	C747.295715,506.641998 747.054443,508.071716 747.051086,509.502014 
	C747.020447,522.491943 747.170898,535.484253 746.949707,548.470520 
	C746.878235,552.667236 748.479675,554.060303 752.457520,554.107727 
	C759.089417,554.186646 765.828186,553.945190 772.325073,555.024109 
	C789.954956,557.951782 802.464172,576.559448 799.746948,594.213074 
	C796.959412,612.323730 782.270996,625.893494 762.988037,625.001221 
	C758.501099,624.793579 753.996399,624.970215 748.999939,624.969971 
M781.132568,457.498749 
	C776.192200,450.399506 769.480530,446.111053 760.813782,445.575256 
	C753.848877,445.144623 746.847351,445.270111 739.861572,445.221161 
	C732.764099,445.171417 725.666077,445.210175 718.516296,445.210175 
	C718.516296,504.687103 718.516296,563.534546 718.516296,622.098511 
	C736.086304,622.098511 753.414185,623.046387 770.586365,621.818176 
	C786.162170,620.704163 798.007141,605.272278 797.791626,589.286987 
	C797.567383,572.649292 785.135254,558.210083 769.145142,556.838928 
	C761.272400,556.163818 753.293945,556.721802 745.356934,556.721802 
	C745.356934,537.965759 745.356934,520.117615 745.356934,502.118164 
	C751.570618,502.118164 757.389160,502.136993 763.207520,502.113464 
	C770.735229,502.083008 776.953186,499.019562 781.100098,492.886169 
	C788.781433,481.525269 787.822449,469.765106 781.132568,457.498749 
z"/>
<path fill="#FCFDFC" opacity="1.000000" stroke="none" 
	d="
M781.366577,457.780762 
	C787.822449,469.765106 788.781433,481.525269 781.100098,492.886169 
	C776.953186,499.019562 770.735229,502.083008 763.207520,502.113464 
	C757.389160,502.136993 751.570618,502.118164 745.356934,502.118164 
	C745.356934,520.117615 745.356934,537.965759 745.356934,556.721802 
	C753.293945,556.721802 761.272400,556.163818 769.145142,556.838928 
	C785.135254,558.210083 797.567383,572.649292 797.791626,589.286987 
	C798.007141,605.272278 786.162170,620.704163 770.586365,621.818176 
	C753.414185,623.046387 736.086304,622.098511 718.516296,622.098511 
	C718.516296,563.534546 718.516296,504.687103 718.516296,445.210175 
	C725.666077,445.210175 732.764099,445.171417 739.861572,445.221161 
	C746.847351,445.270111 753.848877,445.144623 760.813782,445.575256 
	C769.480530,446.111053 776.192200,450.399506 781.366577,457.780762 
z"/>
</svg>